<?xml version="1.0" encoding="utf-8" standalone="no"?>
<!DOCTYPE svg PUBLIC "-//W3C//DTD SVG 1.1//EN"
  "http://www.w3.org/Graphics/SVG/1.1/DTD/svg11.dtd">
<!-- Created with matplotlib (http://matplotlib.org/) -->
<svg height="1080pt" version="1.1" viewBox="0 0 1080 1080" width="1080pt" xmlns="http://www.w3.org/2000/svg" xmlns:xlink="http://www.w3.org/1999/xlink">
 <defs>
  <style type="text/css">
*{stroke-linecap:butt;stroke-linejoin:round;}
  </style>
 </defs>
 <g id="figure_1">
  <g id="patch_1">
   <path d="M 0 1080 
L 1080 1080 
L 1080 0 
L 0 0 
z
" style="fill:#ffffff;"/>
  </g>
  <g id="axes_1">
   <g id="patch_2">
    <path d="M 192.109615 945.023198 
L 1043.231546 945.023198 
L 1043.231546 6.50024 
L 192.109615 6.50024 
z
" style="fill:#ffffff;"/>
   </g>
   <g id="PolyCollection_1">
    <path clip-path="url(#pab49cdbd77)" d="M 192.109615 753.464957 
L 192.109615 474.36423 
L 206.062434 501.019102 
L 220.015252 497.713822 
L 233.968071 498.129293 
L 247.920889 501.826645 
L 261.873708 503.541092 
L 275.826526 515.280634 
L 289.779345 514.057572 
L 303.732163 509.086899 
L 317.684982 511.024632 
L 331.6378 515.09368 
L 345.590619 507.499173 
L 359.543437 516.43548 
L 373.496256 517.385896 
L 387.449075 509.788913 
L 401.401893 498.783458 
L 415.354712 480.416396 
L 429.30753 485.257255 
L 443.260349 476.576265 
L 457.213167 507.230263 
L 471.165986 476.370694 
L 485.118804 470.580406 
L 499.071623 467.478222 
L 513.024441 442.515486 
L 526.97726 505.756039 
L 540.930078 497.18697 
L 554.882897 517.549773 
L 568.835716 509.771286 
L 582.788534 508.715676 
L 596.741353 519.558532 
L 610.694171 524.373641 
L 624.64699 527.515533 
L 638.599808 523.858276 
L 652.552627 529.441455 
L 666.505445 519.731926 
L 680.458264 519.873927 
L 694.411082 513.123592 
L 708.363901 529.589714 
L 722.316719 525.55544 
L 736.269538 522.204276 
L 750.222357 521.470291 
L 764.175175 520.985406 
L 778.127994 515.071641 
L 792.080812 497.913821 
L 806.033631 484.853024 
L 819.986449 469.663506 
L 833.939268 447.092559 
L 847.892086 438.738715 
L 861.844905 403.271756 
L 875.797723 401.553939 
L 889.750542 368.406678 
L 903.703361 309.5475 
L 917.656179 244.906871 
L 931.608998 136.526489 
L 945.561816 91.139966 
L 959.514635 76.812242 
L 973.467453 59.42588 
L 987.420272 53.980668 
L 1001.37309 61.911759 
L 1015.325909 68.701256 
L 1029.278727 44.99533 
L 1043.231546 56.858995 
L 1057.184364 11.627802 
L 1071.137183 21.733915 
L 1085.090002 -20.398846 
L 1099.04282 2.436911 
L 1112.995639 -20.692242 
L 1126.948457 -22.282795 
L 1140.901276 -12.29585 
L 1154.854094 -23.690733 
L 1168.806913 -6.420939 
L 1168.806913 400.453711 
L 1168.806913 400.453711 
L 1154.854094 378.563016 
L 1140.901276 411.977996 
L 1126.948457 424.900213 
L 1112.995639 424.695238 
L 1099.04282 453.775224 
L 1085.090002 423.846183 
L 1071.137183 459.52148 
L 1057.184364 443.808874 
L 1043.231546 450.784778 
L 1029.278727 465.902955 
L 1015.325909 490.381278 
L 1001.37309 510.972722 
L 987.420272 503.886251 
L 973.467453 512.931524 
L 959.514635 557.044552 
L 945.561816 593.932383 
L 931.608998 648.416227 
L 917.656179 652.229219 
L 903.703361 686.153961 
L 889.750542 696.168275 
L 875.797723 694.320167 
L 861.844905 695.257108 
L 847.892086 704.202142 
L 833.939268 723.518876 
L 819.986449 749.321287 
L 806.033631 742.200694 
L 792.080812 758.585529 
L 778.127994 773.680548 
L 764.175175 769.313612 
L 750.222357 772.32675 
L 736.269538 789.435825 
L 722.316719 775.467762 
L 708.363901 771.2825 
L 694.411082 774.691701 
L 680.458264 768.92474 
L 666.505445 763.951174 
L 652.552627 767.054899 
L 638.599808 763.706287 
L 624.64699 754.033964 
L 610.694171 762.274882 
L 596.741353 766.119352 
L 582.788534 758.368495 
L 568.835716 755.269397 
L 554.882897 735.835078 
L 540.930078 754.291752 
L 526.97726 783.11285 
L 513.024441 803.02856 
L 499.071623 800.675799 
L 485.118804 825.613363 
L 471.165986 791.790481 
L 457.213167 752.279228 
L 443.260349 763.045709 
L 429.30753 781.13326 
L 415.354712 812.231318 
L 401.401893 759.690085 
L 387.449075 767.820812 
L 373.496256 748.24449 
L 359.543437 729.679785 
L 345.590619 736.867641 
L 331.6378 748.958374 
L 317.684982 742.765416 
L 303.732163 729.325122 
L 289.779345 738.875774 
L 275.826526 742.500113 
L 261.873708 739.26493 
L 247.920889 741.77478 
L 233.968071 740.700117 
L 220.015252 737.430612 
L 206.062434 734.509595 
L 192.109615 753.464957 
z
" style="fill-opacity:0.05;"/>
   </g>
   <g id="PolyCollection_2">
    <path clip-path="url(#pab49cdbd77)" d="M 192.109615 786.285964 
L 192.109615 475.476677 
L 206.062434 470.999062 
L 220.015252 505.15127 
L 233.968071 500.294263 
L 247.920889 510.275266 
L 261.873708 503.948159 
L 275.826526 498.085887 
L 289.779345 476.251519 
L 303.732163 461.204696 
L 317.684982 512.525026 
L 331.6378 510.525357 
L 345.590619 507.564653 
L 359.543437 513.423907 
L 373.496256 521.400953 
L 387.449075 509.368353 
L 401.401893 496.499521 
L 415.354712 486.149472 
L 429.30753 473.21205 
L 443.260349 505.808226 
L 457.213167 498.006981 
L 471.165986 497.004054 
L 485.118804 490.056456 
L 499.071623 488.269759 
L 513.024441 488.173989 
L 526.97726 489.348721 
L 540.930078 509.433406 
L 554.882897 510.662535 
L 568.835716 515.577287 
L 582.788534 519.721034 
L 596.741353 501.043605 
L 610.694171 497.721959 
L 624.64699 512.71265 
L 638.599808 493.980959 
L 652.552627 510.661434 
L 666.505445 512.921881 
L 680.458264 513.656203 
L 694.411082 528.730601 
L 708.363901 507.970928 
L 722.316719 498.698559 
L 736.269538 511.107309 
L 750.222357 493.229662 
L 764.175175 481.488711 
L 778.127994 499.420508 
L 792.080812 481.244877 
L 806.033631 464.085421 
L 819.986449 458.414959 
L 833.939268 429.932909 
L 847.892086 416.279161 
L 861.844905 395.232324 
L 875.797723 366.832457 
L 889.750542 310.455563 
L 903.703361 223.793455 
L 917.656179 70.863231 
L 931.608998 121.317423 
L 945.561816 19.661427 
L 959.514635 28.584808 
L 973.467453 44.604243 
L 987.420272 25.15317 
L 1001.37309 -1.009046 
L 1015.325909 20.283845 
L 1029.278727 42.983401 
L 1043.231546 34.26771 
L 1057.184364 15.461876 
L 1071.137183 -10.065334 
L 1085.090002 -40.902778 
L 1099.04282 -28.221148 
L 1112.995639 -24.087543 
L 1126.948457 -36.138966 
L 1140.901276 -33.91221 
L 1154.854094 -27.984154 
L 1168.806913 -13.392776 
L 1168.806913 405.5026 
L 1168.806913 405.5026 
L 1154.854094 401.964556 
L 1140.901276 395.513988 
L 1126.948457 408.823993 
L 1112.995639 391.426194 
L 1099.04282 398.599205 
L 1085.090002 415.980096 
L 1071.137183 423.637768 
L 1057.184364 439.797636 
L 1043.231546 443.714373 
L 1029.278727 467.916793 
L 1015.325909 454.338401 
L 1001.37309 497.875652 
L 987.420272 513.574341 
L 973.467453 541.027705 
L 959.514635 556.457927 
L 945.561816 573.144643 
L 931.608998 610.139809 
L 917.656179 641.671282 
L 903.703361 688.975982 
L 889.750542 658.411672 
L 875.797723 664.412829 
L 861.844905 666.389974 
L 847.892086 687.793287 
L 833.939268 702.23481 
L 819.986449 711.571165 
L 806.033631 728.274617 
L 792.080812 735.686419 
L 778.127994 754.747819 
L 764.175175 768.15441 
L 750.222357 775.656103 
L 736.269538 763.746479 
L 722.316719 759.165616 
L 708.363901 751.503721 
L 694.411082 741.641264 
L 680.458264 741.461949 
L 666.505445 746.158515 
L 652.552627 756.02468 
L 638.599808 758.615545 
L 624.64699 760.697261 
L 610.694171 755.976233 
L 596.741353 748.319805 
L 582.788534 737.127247 
L 568.835716 730.001241 
L 554.882897 743.201662 
L 540.930078 740.266518 
L 526.97726 759.61952 
L 513.024441 765.546099 
L 499.071623 756.988746 
L 485.118804 748.620152 
L 471.165986 766.061991 
L 457.213167 740.505457 
L 443.260349 739.508516 
L 429.30753 825.49137 
L 415.354712 771.265205 
L 401.401893 764.204277 
L 387.449075 744.452968 
L 373.496256 741.797105 
L 359.543437 735.528487 
L 345.590619 734.786163 
L 331.6378 738.235687 
L 317.684982 730.036392 
L 303.732163 751.562402 
L 289.779345 777.093234 
L 275.826526 739.045521 
L 261.873708 741.498678 
L 247.920889 754.184362 
L 233.968071 736.692333 
L 220.015252 738.370398 
L 206.062434 741.719907 
L 192.109615 786.285964 
z
" style="fill:#696969;fill-opacity:0.05;"/>
   </g>
   <g id="PolyCollection_3">
    <path clip-path="url(#pab49cdbd77)" d="M 192.109615 742.787367 
L 192.109615 502.344023 
L 206.062434 500.317375 
L 220.015252 480.114411 
L 233.968071 495.022316 
L 247.920889 493.788968 
L 261.873708 494.207136 
L 275.826526 496.004024 
L 289.779345 476.833622 
L 303.732163 499.520957 
L 317.684982 476.121146 
L 331.6378 479.961157 
L 345.590619 486.156468 
L 359.543437 507.207507 
L 373.496256 512.768303 
L 387.449075 496.858551 
L 401.401893 480.757826 
L 415.354712 472.153973 
L 429.30753 481.885675 
L 443.260349 491.446385 
L 457.213167 486.258457 
L 471.165986 489.853476 
L 485.118804 484.655044 
L 499.071623 480.293008 
L 513.024441 493.246942 
L 526.97726 504.52469 
L 540.930078 480.396369 
L 554.882897 491.286181 
L 568.835716 498.554438 
L 582.788534 490.595043 
L 596.741353 482.866414 
L 610.694171 493.237161 
L 624.64699 499.616767 
L 638.599808 487.85082 
L 652.552627 489.439369 
L 666.505445 495.304314 
L 680.458264 498.423097 
L 694.411082 490.434987 
L 708.363901 499.227865 
L 722.316719 479.18535 
L 736.269538 503.261494 
L 750.222357 486.963055 
L 764.175175 495.591341 
L 778.127994 479.962861 
L 792.080812 462.489538 
L 806.033631 438.45943 
L 819.986449 424.345974 
L 833.939268 378.026327 
L 847.892086 359.359371 
L 861.844905 348.565227 
L 875.797723 335.596909 
L 889.750542 287.757205 
L 903.703361 245.504981 
L 917.656179 188.719708 
L 931.608998 58.259317 
L 945.561816 27.075726 
L 959.514635 8.616289 
L 973.467453 32.543026 
L 987.420272 22.468493 
L 1001.37309 14.011868 
L 1015.325909 46.766572 
L 1029.278727 25.636123 
L 1043.231546 9.549647 
L 1057.184364 34.293099 
L 1071.137183 -12.632144 
L 1085.090002 -49.294701 
L 1099.04282 -31.875792 
L 1112.995639 7.637896 
L 1126.948457 -26.622677 
L 1140.901276 -59.178509 
L 1154.854094 3.368109 
L 1168.806913 -39.357652 
L 1168.806913 418.075356 
L 1168.806913 418.075356 
L 1154.854094 420.728174 
L 1140.901276 420.517154 
L 1126.948457 445.533937 
L 1112.995639 454.874375 
L 1099.04282 472.075993 
L 1085.090002 436.864214 
L 1071.137183 457.163555 
L 1057.184364 486.410371 
L 1043.231546 456.553081 
L 1029.278727 439.742237 
L 1015.325909 466.038193 
L 1001.37309 475.237523 
L 987.420272 479.947136 
L 973.467453 529.706556 
L 959.514635 528.010205 
L 945.561816 575.637246 
L 931.608998 608.412689 
L 917.656179 626.135596 
L 903.703361 661.588902 
L 889.750542 680.38645 
L 875.797723 693.338037 
L 861.844905 689.817086 
L 847.892086 699.822997 
L 833.939268 702.128008 
L 819.986449 709.284442 
L 806.033631 727.450591 
L 792.080812 749.471027 
L 778.127994 751.967517 
L 764.175175 760.240561 
L 750.222357 789.935886 
L 736.269538 747.678852 
L 722.316719 748.000125 
L 708.363901 763.238048 
L 694.411082 768.727302 
L 680.458264 745.178328 
L 666.505445 762.595224 
L 652.552627 753.115003 
L 638.599808 759.865547 
L 624.64699 758.263414 
L 610.694171 738.017057 
L 596.741353 750.62308 
L 582.788534 782.558747 
L 568.835716 775.061865 
L 554.882897 759.888814 
L 540.930078 756.168921 
L 526.97726 740.670773 
L 513.024441 738.112682 
L 499.071623 748.778735 
L 485.118804 755.907131 
L 471.165986 752.571029 
L 457.213167 744.448637 
L 443.260349 759.049274 
L 429.30753 759.31704 
L 415.354712 765.458596 
L 401.401893 756.786328 
L 387.449075 753.025664 
L 373.496256 733.843732 
L 359.543437 742.164385 
L 345.590619 745.494447 
L 331.6378 756.150133 
L 317.684982 775.606987 
L 303.732163 741.762431 
L 289.779345 751.613888 
L 275.826526 733.60729 
L 261.873708 761.35683 
L 247.920889 762.716666 
L 233.968071 741.243719 
L 220.015252 743.099868 
L 206.062434 742.990793 
L 192.109615 742.787367 
z
" style="fill:#cd5c5c;fill-opacity:0.05;"/>
   </g>
   <g id="PolyCollection_4">
    <path clip-path="url(#pab49cdbd77)" d="M 192.109615 748.28211 
L 192.109615 488.365587 
L 206.062434 493.691107 
L 220.015252 489.735475 
L 233.968071 482.731569 
L 247.920889 492.932246 
L 261.873708 483.683958 
L 275.826526 487.446637 
L 289.779345 484.079372 
L 303.732163 494.96859 
L 317.684982 495.624373 
L 331.6378 497.180336 
L 345.590619 495.656953 
L 359.543437 500.733758 
L 373.496256 499.65196 
L 387.449075 491.529164 
L 401.401893 482.078929 
L 415.354712 482.797574 
L 429.30753 482.900578 
L 443.260349 478.625211 
L 457.213167 481.27467 
L 471.165986 488.314345 
L 485.118804 486.056264 
L 499.071623 479.596082 
L 513.024441 476.327491 
L 526.97726 473.497535 
L 540.930078 479.044592 
L 554.882897 484.698343 
L 568.835716 478.303157 
L 582.788534 493.528289 
L 596.741353 486.07453 
L 610.694171 489.710466 
L 624.64699 484.16301 
L 638.599808 486.789137 
L 652.552627 484.032019 
L 666.505445 486.303189 
L 680.458264 486.285832 
L 694.411082 480.191552 
L 708.363901 478.712181 
L 722.316719 478.047451 
L 736.269538 477.838195 
L 750.222357 468.264823 
L 764.175175 472.696378 
L 778.127994 462.348312 
L 792.080812 451.759739 
L 806.033631 422.611814 
L 819.986449 396.965667 
L 833.939268 373.348934 
L 847.892086 356.652734 
L 861.844905 331.606802 
L 875.797723 297.53569 
L 889.750542 253.012607 
L 903.703361 187.396204 
L 917.656179 140.854524 
L 931.608998 72.399582 
L 945.561816 39.104029 
L 959.514635 1.535893 
L 973.467453 -0.047171 
L 987.420272 0.778628 
L 1001.37309 4.726585 
L 1015.325909 5.479199 
L 1029.278727 12.024811 
L 1043.231546 11.482803 
L 1057.184364 3.906578 
L 1071.137183 -14.622038 
L 1085.090002 -14.541734 
L 1099.04282 -20.902392 
L 1112.995639 -25.179958 
L 1126.948457 -43.737574 
L 1140.901276 -43.244606 
L 1154.854094 -29.96092 
L 1168.806913 -31.511755 
L 1168.806913 409.393224 
L 1168.806913 409.393224 
L 1154.854094 404.220035 
L 1140.901276 406.439035 
L 1126.948457 421.836448 
L 1112.995639 424.217493 
L 1099.04282 425.67397 
L 1085.090002 438.939547 
L 1071.137183 438.825875 
L 1057.184364 432.718815 
L 1043.231546 448.627242 
L 1029.278727 446.990719 
L 1015.325909 466.325223 
L 1001.37309 464.084821 
L 987.420272 480.31976 
L 973.467453 484.754394 
L 959.514635 508.984679 
L 945.561816 536.788918 
L 931.608998 576.562581 
L 917.656179 593.073556 
L 903.703361 628.438606 
L 889.750542 648.693738 
L 875.797723 647.003688 
L 861.844905 646.103459 
L 847.892086 665.905367 
L 833.939268 684.341774 
L 819.986449 697.599821 
L 806.033631 706.223197 
L 792.080812 715.094409 
L 778.127994 730.709381 
L 764.175175 732.665653 
L 750.222357 737.44096 
L 736.269538 734.122326 
L 722.316719 733.959839 
L 708.363901 736.765375 
L 694.411082 733.8069 
L 680.458264 735.771217 
L 666.505445 737.485002 
L 652.552627 735.700361 
L 638.599808 738.660919 
L 624.64699 741.234174 
L 610.694171 739.344103 
L 596.741353 736.869631 
L 582.788534 735.988151 
L 568.835716 745.665686 
L 554.882897 740.738827 
L 540.930078 749.658221 
L 526.97726 755.580959 
L 513.024441 746.41056 
L 499.071623 759.472165 
L 485.118804 753.809979 
L 471.165986 745.744021 
L 457.213167 751.711703 
L 443.260349 753.434101 
L 429.30753 748.031054 
L 415.354712 760.776251 
L 401.401893 761.844526 
L 387.449075 752.151275 
L 373.496256 735.515302 
L 359.543437 731.127325 
L 345.590619 735.406836 
L 331.6378 740.539441 
L 317.684982 743.596854 
L 303.732163 742.298413 
L 289.779345 750.042467 
L 275.826526 746.235179 
L 261.873708 751.361795 
L 247.920889 751.565949 
L 233.968071 748.02553 
L 220.015252 750.55228 
L 206.062434 746.634043 
L 192.109615 748.28211 
z
" style="fill:#8b0000;fill-opacity:0.05;"/>
   </g>
   <g id="PolyCollection_5">
    <path clip-path="url(#pab49cdbd77)" d="M 192.109615 749.185188 
L 192.109615 479.798058 
L 206.062434 481.707571 
L 220.015252 481.484665 
L 233.968071 485.529953 
L 247.920889 482.604171 
L 261.873708 483.69758 
L 275.826526 478.283094 
L 289.779345 481.949676 
L 303.732163 476.04003 
L 317.684982 475.763065 
L 331.6378 486.578429 
L 345.590619 488.328757 
L 359.543437 487.11517 
L 373.496256 486.881271 
L 387.449075 481.599949 
L 401.401893 475.679631 
L 415.354712 468.350561 
L 429.30753 464.115218 
L 443.260349 467.568391 
L 457.213167 466.442171 
L 471.165986 461.150459 
L 485.118804 466.419838 
L 499.071623 460.344716 
L 513.024441 458.887302 
L 526.97726 468.02139 
L 540.930078 458.541237 
L 554.882897 458.362724 
L 568.835716 462.419336 
L 582.788534 465.020179 
L 596.741353 464.515147 
L 610.694171 463.849178 
L 624.64699 463.518076 
L 638.599808 461.152062 
L 652.552627 459.229507 
L 666.505445 453.988462 
L 680.458264 450.41214 
L 694.411082 450.10595 
L 708.363901 445.366438 
L 722.316719 443.409602 
L 736.269538 436.83401 
L 750.222357 428.635504 
L 764.175175 425.866164 
L 778.127994 413.812487 
L 792.080812 392.510777 
L 806.033631 355.509141 
L 819.986449 331.895425 
L 833.939268 312.869345 
L 847.892086 285.150672 
L 861.844905 261.99829 
L 875.797723 240.50013 
L 889.750542 213.261408 
L 903.703361 153.81981 
L 917.656179 92.674798 
L 931.608998 45.877674 
L 945.561816 14.408011 
L 959.514635 -2.577017 
L 973.467453 -15.937244 
L 987.420272 -21.899656 
L 1001.37309 -9.896996 
L 1015.325909 -10.722053 
L 1029.278727 -13.594379 
L 1043.231546 -6.185921 
L 1057.184364 -5.681687 
L 1071.137183 -7.111842 
L 1085.090002 -5.359065 
L 1099.04282 -7.467403 
L 1112.995639 -11.987741 
L 1126.948457 -21.060079 
L 1140.901276 -18.765864 
L 1154.854094 -25.203277 
L 1168.806913 -32.521027 
L 1168.806913 409.201167 
L 1168.806913 409.201167 
L 1154.854094 404.87511 
L 1140.901276 412.266157 
L 1126.948457 416.742886 
L 1112.995639 425.495197 
L 1099.04282 430.29374 
L 1085.090002 429.891296 
L 1071.137183 438.853328 
L 1057.184364 441.687 
L 1043.231546 437.946416 
L 1029.278727 441.974132 
L 1015.325909 445.606107 
L 1001.37309 447.011002 
L 987.420272 449.341046 
L 973.467453 485.712223 
L 959.514635 505.183459 
L 945.561816 519.14228 
L 931.608998 538.866577 
L 917.656179 560.24392 
L 903.703361 594.932201 
L 889.750542 617.255537 
L 875.797723 626.177332 
L 861.844905 622.559898 
L 847.892086 643.96567 
L 833.939268 655.067022 
L 819.986449 679.992517 
L 806.033631 707.60219 
L 792.080812 705.801668 
L 778.127994 704.040877 
L 764.175175 709.240974 
L 750.222357 714.101222 
L 736.269538 712.820432 
L 722.316719 715.072837 
L 708.363901 715.971071 
L 694.411082 720.29106 
L 680.458264 718.940532 
L 666.505445 722.519039 
L 652.552627 723.813698 
L 638.599808 721.472187 
L 624.64699 731.448715 
L 610.694171 727.676622 
L 596.741353 731.842798 
L 582.788534 735.530605 
L 568.835716 732.747132 
L 554.882897 749.172723 
L 540.930078 745.313767 
L 526.97726 748.762139 
L 513.024441 745.582757 
L 499.071623 755.023202 
L 485.118804 749.074374 
L 471.165986 758.498516 
L 457.213167 752.504308 
L 443.260349 752.06075 
L 429.30753 751.536037 
L 415.354712 751.901776 
L 401.401893 749.415459 
L 387.449075 746.124983 
L 373.496256 734.236104 
L 359.543437 739.121163 
L 345.590619 740.411033 
L 331.6378 743.161917 
L 317.684982 748.58011 
L 303.732163 757.695066 
L 289.779345 748.806886 
L 275.826526 746.253991 
L 261.873708 749.261533 
L 247.920889 752.555072 
L 233.968071 745.037584 
L 220.015252 749.251551 
L 206.062434 752.523148 
L 192.109615 749.185188 
z
" style="fill:#ff0000;fill-opacity:0.05;"/>
   </g>
   <g id="patch_3">
    <path clip-path="url(#pab49cdbd77)" d="M 192.109615 945.023198 
L 192.109615 6.50024 
L 610.694171 6.50024 
L 610.694171 945.023198 
z
" style="fill:#ff0000;opacity:0.2;stroke:#ff0000;stroke-linejoin:miter;"/>
   </g>
   <g id="patch_4">
    <path clip-path="url(#pab49cdbd77)" d="M 610.694171 945.023198 
L 610.694171 6.50024 
L 1182.759731 6.50024 
L 1182.759731 945.023198 
z
" style="opacity:0.15;stroke:#000000;stroke-linejoin:miter;"/>
   </g>
   <g id="matplotlib.axis_1">
    <g id="xtick_1">
     <g id="line2d_1">
      <defs>
       <path d="M 0 0 
L 0 3.5 
" id="m16c5190387" style="stroke:#000000;stroke-width:0.8;"/>
      </defs>
      <g>
       <use style="stroke:#000000;stroke-width:0.8;" x="192.109615" xlink:href="#m16c5190387" y="945.023198"/>
      </g>
     </g>
     <g id="text_1">
      <!-- -300 -->
      <defs>
       <path d="M 4.890625 31.390625 
L 31.203125 31.390625 
L 31.203125 23.390625 
L 4.890625 23.390625 
z
" id="DejaVuSans-2d"/>
       <path d="M 40.578125 39.3125 
Q 47.65625 37.796875 51.625 33 
Q 55.609375 28.21875 55.609375 21.1875 
Q 55.609375 10.40625 48.1875 4.484375 
Q 40.765625 -1.421875 27.09375 -1.421875 
Q 22.515625 -1.421875 17.65625 -0.515625 
Q 12.796875 0.390625 7.625 2.203125 
L 7.625 11.71875 
Q 11.71875 9.328125 16.59375 8.109375 
Q 21.484375 6.890625 26.8125 6.890625 
Q 36.078125 6.890625 40.9375 10.546875 
Q 45.796875 14.203125 45.796875 21.1875 
Q 45.796875 27.640625 41.28125 31.265625 
Q 36.765625 34.90625 28.71875 34.90625 
L 20.21875 34.90625 
L 20.21875 43.015625 
L 29.109375 43.015625 
Q 36.375 43.015625 40.234375 45.921875 
Q 44.09375 48.828125 44.09375 54.296875 
Q 44.09375 59.90625 40.109375 62.90625 
Q 36.140625 65.921875 28.71875 65.921875 
Q 24.65625 65.921875 20.015625 65.03125 
Q 15.375 64.15625 9.8125 62.3125 
L 9.8125 71.09375 
Q 15.4375 72.65625 20.34375 73.4375 
Q 25.25 74.21875 29.59375 74.21875 
Q 40.828125 74.21875 47.359375 69.109375 
Q 53.90625 64.015625 53.90625 55.328125 
Q 53.90625 49.265625 50.4375 45.09375 
Q 46.96875 40.921875 40.578125 39.3125 
z
" id="DejaVuSans-33"/>
       <path d="M 31.78125 66.40625 
Q 24.171875 66.40625 20.328125 58.90625 
Q 16.5 51.421875 16.5 36.375 
Q 16.5 21.390625 20.328125 13.890625 
Q 24.171875 6.390625 31.78125 6.390625 
Q 39.453125 6.390625 43.28125 13.890625 
Q 47.125 21.390625 47.125 36.375 
Q 47.125 51.421875 43.28125 58.90625 
Q 39.453125 66.40625 31.78125 66.40625 
z
M 31.78125 74.21875 
Q 44.046875 74.21875 50.515625 64.515625 
Q 56.984375 54.828125 56.984375 36.375 
Q 56.984375 17.96875 50.515625 8.265625 
Q 44.046875 -1.421875 31.78125 -1.421875 
Q 19.53125 -1.421875 13.0625 8.265625 
Q 6.59375 17.96875 6.59375 36.375 
Q 6.59375 54.828125 13.0625 64.515625 
Q 19.53125 74.21875 31.78125 74.21875 
z
" id="DejaVuSans-30"/>
      </defs>
      <g transform="translate(135.371334 990.015385)scale(0.5 -0.5)">
       <use xlink:href="#DejaVuSans-2d"/>
       <use x="36.083984" xlink:href="#DejaVuSans-33"/>
       <use x="99.707031" xlink:href="#DejaVuSans-30"/>
       <use x="163.330078" xlink:href="#DejaVuSans-30"/>
      </g>
     </g>
    </g>
    <g id="xtick_2">
     <g id="line2d_2">
      <g>
       <use style="stroke:#000000;stroke-width:0.8;" x="331.6378" xlink:href="#m16c5190387" y="945.023198"/>
      </g>
     </g>
     <g id="text_2">
      <!-- -200 -->
      <defs>
       <path d="M 19.1875 8.296875 
L 53.609375 8.296875 
L 53.609375 0 
L 7.328125 0 
L 7.328125 8.296875 
Q 12.9375 14.109375 22.625 23.890625 
Q 32.328125 33.6875 34.8125 36.53125 
Q 39.546875 41.84375 41.421875 45.53125 
Q 43.3125 49.21875 43.3125 52.78125 
Q 43.3125 58.59375 39.234375 62.25 
Q 35.15625 65.921875 28.609375 65.921875 
Q 23.96875 65.921875 18.8125 64.3125 
Q 13.671875 62.703125 7.8125 59.421875 
L 7.8125 69.390625 
Q 13.765625 71.78125 18.9375 73 
Q 24.125 74.21875 28.421875 74.21875 
Q 39.75 74.21875 46.484375 68.546875 
Q 53.21875 62.890625 53.21875 53.421875 
Q 53.21875 48.921875 51.53125 44.890625 
Q 49.859375 40.875 45.40625 35.40625 
Q 44.1875 33.984375 37.640625 27.21875 
Q 31.109375 20.453125 19.1875 8.296875 
z
" id="DejaVuSans-32"/>
      </defs>
      <g transform="translate(274.899519 990.015385)scale(0.5 -0.5)">
       <use xlink:href="#DejaVuSans-2d"/>
       <use x="36.083984" xlink:href="#DejaVuSans-32"/>
       <use x="99.707031" xlink:href="#DejaVuSans-30"/>
       <use x="163.330078" xlink:href="#DejaVuSans-30"/>
      </g>
     </g>
    </g>
    <g id="xtick_3">
     <g id="line2d_3">
      <g>
       <use style="stroke:#000000;stroke-width:0.8;" x="471.165986" xlink:href="#m16c5190387" y="945.023198"/>
      </g>
     </g>
     <g id="text_3">
      <!-- -100 -->
      <defs>
       <path d="M 12.40625 8.296875 
L 28.515625 8.296875 
L 28.515625 63.921875 
L 10.984375 60.40625 
L 10.984375 69.390625 
L 28.421875 72.90625 
L 38.28125 72.90625 
L 38.28125 8.296875 
L 54.390625 8.296875 
L 54.390625 0 
L 12.40625 0 
z
" id="DejaVuSans-31"/>
      </defs>
      <g transform="translate(414.427705 990.015385)scale(0.5 -0.5)">
       <use xlink:href="#DejaVuSans-2d"/>
       <use x="36.083984" xlink:href="#DejaVuSans-31"/>
       <use x="99.707031" xlink:href="#DejaVuSans-30"/>
       <use x="163.330078" xlink:href="#DejaVuSans-30"/>
      </g>
     </g>
    </g>
    <g id="xtick_4">
     <g id="line2d_4">
      <g>
       <use style="stroke:#000000;stroke-width:0.8;" x="610.694171" xlink:href="#m16c5190387" y="945.023198"/>
      </g>
     </g>
     <g id="text_4">
      <!-- 0 -->
      <g transform="translate(594.787921 990.015385)scale(0.5 -0.5)">
       <use xlink:href="#DejaVuSans-30"/>
      </g>
     </g>
    </g>
    <g id="xtick_5">
     <g id="line2d_5">
      <g>
       <use style="stroke:#000000;stroke-width:0.8;" x="750.222357" xlink:href="#m16c5190387" y="945.023198"/>
      </g>
     </g>
     <g id="text_5">
      <!-- 100 -->
      <g transform="translate(702.503607 990.015385)scale(0.5 -0.5)">
       <use xlink:href="#DejaVuSans-31"/>
       <use x="63.623047" xlink:href="#DejaVuSans-30"/>
       <use x="127.246094" xlink:href="#DejaVuSans-30"/>
      </g>
     </g>
    </g>
    <g id="xtick_6">
     <g id="line2d_6">
      <g>
       <use style="stroke:#000000;stroke-width:0.8;" x="889.750542" xlink:href="#m16c5190387" y="945.023198"/>
      </g>
     </g>
     <g id="text_6">
      <!-- 200 -->
      <g transform="translate(842.031792 990.015385)scale(0.5 -0.5)">
       <use xlink:href="#DejaVuSans-32"/>
       <use x="63.623047" xlink:href="#DejaVuSans-30"/>
       <use x="127.246094" xlink:href="#DejaVuSans-30"/>
      </g>
     </g>
    </g>
    <g id="xtick_7">
     <g id="line2d_7">
      <g>
       <use style="stroke:#000000;stroke-width:0.8;" x="1029.278727" xlink:href="#m16c5190387" y="945.023198"/>
      </g>
     </g>
     <g id="text_7">
      <!-- 300 -->
      <g transform="translate(981.559977 990.015385)scale(0.5 -0.5)">
       <use xlink:href="#DejaVuSans-33"/>
       <use x="63.623047" xlink:href="#DejaVuSans-30"/>
       <use x="127.246094" xlink:href="#DejaVuSans-30"/>
      </g>
     </g>
    </g>
    <g id="text_8">
     <!-- Time (ms) -->
     <defs>
      <path d="M -0.296875 72.90625 
L 61.375 72.90625 
L 61.375 64.59375 
L 35.5 64.59375 
L 35.5 0 
L 25.59375 0 
L 25.59375 64.59375 
L -0.296875 64.59375 
z
" id="DejaVuSans-54"/>
      <path d="M 9.421875 54.6875 
L 18.40625 54.6875 
L 18.40625 0 
L 9.421875 0 
z
M 9.421875 75.984375 
L 18.40625 75.984375 
L 18.40625 64.59375 
L 9.421875 64.59375 
z
" id="DejaVuSans-69"/>
      <path d="M 52 44.1875 
Q 55.375 50.25 60.0625 53.125 
Q 64.75 56 71.09375 56 
Q 79.640625 56 84.28125 50.015625 
Q 88.921875 44.046875 88.921875 33.015625 
L 88.921875 0 
L 79.890625 0 
L 79.890625 32.71875 
Q 79.890625 40.578125 77.09375 44.375 
Q 74.3125 48.1875 68.609375 48.1875 
Q 61.625 48.1875 57.5625 43.546875 
Q 53.515625 38.921875 53.515625 30.90625 
L 53.515625 0 
L 44.484375 0 
L 44.484375 32.71875 
Q 44.484375 40.625 41.703125 44.40625 
Q 38.921875 48.1875 33.109375 48.1875 
Q 26.21875 48.1875 22.15625 43.53125 
Q 18.109375 38.875 18.109375 30.90625 
L 18.109375 0 
L 9.078125 0 
L 9.078125 54.6875 
L 18.109375 54.6875 
L 18.109375 46.1875 
Q 21.1875 51.21875 25.484375 53.609375 
Q 29.78125 56 35.6875 56 
Q 41.65625 56 45.828125 52.96875 
Q 50 49.953125 52 44.1875 
z
" id="DejaVuSans-6d"/>
      <path d="M 56.203125 29.59375 
L 56.203125 25.203125 
L 14.890625 25.203125 
Q 15.484375 15.921875 20.484375 11.0625 
Q 25.484375 6.203125 34.421875 6.203125 
Q 39.59375 6.203125 44.453125 7.46875 
Q 49.3125 8.734375 54.109375 11.28125 
L 54.109375 2.78125 
Q 49.265625 0.734375 44.1875 -0.34375 
Q 39.109375 -1.421875 33.890625 -1.421875 
Q 20.796875 -1.421875 13.15625 6.1875 
Q 5.515625 13.8125 5.515625 26.8125 
Q 5.515625 40.234375 12.765625 48.109375 
Q 20.015625 56 32.328125 56 
Q 43.359375 56 49.78125 48.890625 
Q 56.203125 41.796875 56.203125 29.59375 
z
M 47.21875 32.234375 
Q 47.125 39.59375 43.09375 43.984375 
Q 39.0625 48.390625 32.421875 48.390625 
Q 24.90625 48.390625 20.390625 44.140625 
Q 15.875 39.890625 15.1875 32.171875 
z
" id="DejaVuSans-65"/>
      <path id="DejaVuSans-20"/>
      <path d="M 31 75.875 
Q 24.46875 64.65625 21.28125 53.65625 
Q 18.109375 42.671875 18.109375 31.390625 
Q 18.109375 20.125 21.3125 9.0625 
Q 24.515625 -2 31 -13.1875 
L 23.1875 -13.1875 
Q 15.875 -1.703125 12.234375 9.375 
Q 8.59375 20.453125 8.59375 31.390625 
Q 8.59375 42.28125 12.203125 53.3125 
Q 15.828125 64.359375 23.1875 75.875 
z
" id="DejaVuSans-28"/>
      <path d="M 44.28125 53.078125 
L 44.28125 44.578125 
Q 40.484375 46.53125 36.375 47.5 
Q 32.28125 48.484375 27.875 48.484375 
Q 21.1875 48.484375 17.84375 46.4375 
Q 14.5 44.390625 14.5 40.28125 
Q 14.5 37.15625 16.890625 35.375 
Q 19.28125 33.59375 26.515625 31.984375 
L 29.59375 31.296875 
Q 39.15625 29.25 43.1875 25.515625 
Q 47.21875 21.78125 47.21875 15.09375 
Q 47.21875 7.46875 41.1875 3.015625 
Q 35.15625 -1.421875 24.609375 -1.421875 
Q 20.21875 -1.421875 15.453125 -0.5625 
Q 10.6875 0.296875 5.421875 2 
L 5.421875 11.28125 
Q 10.40625 8.6875 15.234375 7.390625 
Q 20.0625 6.109375 24.8125 6.109375 
Q 31.15625 6.109375 34.5625 8.28125 
Q 37.984375 10.453125 37.984375 14.40625 
Q 37.984375 18.0625 35.515625 20.015625 
Q 33.0625 21.96875 24.703125 23.78125 
L 21.578125 24.515625 
Q 13.234375 26.265625 9.515625 29.90625 
Q 5.8125 33.546875 5.8125 39.890625 
Q 5.8125 47.609375 11.28125 51.796875 
Q 16.75 56 26.8125 56 
Q 31.78125 56 36.171875 55.265625 
Q 40.578125 54.546875 44.28125 53.078125 
z
" id="DejaVuSans-73"/>
      <path d="M 8.015625 75.875 
L 15.828125 75.875 
Q 23.140625 64.359375 26.78125 53.3125 
Q 30.421875 42.28125 30.421875 31.390625 
Q 30.421875 20.453125 26.78125 9.375 
Q 23.140625 -1.703125 15.828125 -13.1875 
L 8.015625 -13.1875 
Q 14.5 -2 17.703125 9.0625 
Q 20.90625 20.125 20.90625 31.390625 
Q 20.90625 42.671875 17.703125 53.65625 
Q 14.5 64.65625 8.015625 75.875 
z
" id="DejaVuSans-29"/>
     </defs>
     <g transform="translate(427.522143 1061.402104)scale(0.75 -0.75)">
      <use xlink:href="#DejaVuSans-54"/>
      <use x="61.037109" xlink:href="#DejaVuSans-69"/>
      <use x="88.820312" xlink:href="#DejaVuSans-6d"/>
      <use x="186.232422" xlink:href="#DejaVuSans-65"/>
      <use x="247.755859" xlink:href="#DejaVuSans-20"/>
      <use x="279.542969" xlink:href="#DejaVuSans-28"/>
      <use x="318.556641" xlink:href="#DejaVuSans-6d"/>
      <use x="415.96875" xlink:href="#DejaVuSans-73"/>
      <use x="468.068359" xlink:href="#DejaVuSans-29"/>
     </g>
    </g>
   </g>
   <g id="matplotlib.axis_2">
    <g id="ytick_1">
     <g id="line2d_8">
      <defs>
       <path d="M 0 0 
L -3.5 0 
" id="mac3ef815b4" style="stroke:#000000;stroke-width:0.8;"/>
      </defs>
      <g>
       <use style="stroke:#000000;stroke-width:0.8;" x="192.109615" xlink:href="#mac3ef815b4" y="908.127946"/>
      </g>
     </g>
     <g id="text_9">
      <!-- −10 -->
      <defs>
       <path d="M 10.59375 35.5 
L 73.1875 35.5 
L 73.1875 27.203125 
L 10.59375 27.203125 
z
" id="DejaVuSans-2212"/>
      </defs>
      <g transform="translate(79.586178 927.12404)scale(0.5 -0.5)">
       <use xlink:href="#DejaVuSans-2212"/>
       <use x="83.789062" xlink:href="#DejaVuSans-31"/>
       <use x="147.412109" xlink:href="#DejaVuSans-30"/>
      </g>
     </g>
    </g>
    <g id="ytick_2">
     <g id="line2d_9">
      <g>
       <use style="stroke:#000000;stroke-width:0.8;" x="192.109615" xlink:href="#mac3ef815b4" y="764.00587"/>
      </g>
     </g>
     <g id="text_10">
      <!-- −5 -->
      <defs>
       <path d="M 10.796875 72.90625 
L 49.515625 72.90625 
L 49.515625 64.59375 
L 19.828125 64.59375 
L 19.828125 46.734375 
Q 21.96875 47.46875 24.109375 47.828125 
Q 26.265625 48.1875 28.421875 48.1875 
Q 40.625 48.1875 47.75 41.5 
Q 54.890625 34.8125 54.890625 23.390625 
Q 54.890625 11.625 47.5625 5.09375 
Q 40.234375 -1.421875 26.90625 -1.421875 
Q 22.3125 -1.421875 17.546875 -0.640625 
Q 12.796875 0.140625 7.71875 1.703125 
L 7.71875 11.625 
Q 12.109375 9.234375 16.796875 8.0625 
Q 21.484375 6.890625 26.703125 6.890625 
Q 35.15625 6.890625 40.078125 11.328125 
Q 45.015625 15.765625 45.015625 23.390625 
Q 45.015625 31 40.078125 35.4375 
Q 35.15625 39.890625 26.703125 39.890625 
Q 22.75 39.890625 18.8125 39.015625 
Q 14.890625 38.140625 10.796875 36.28125 
z
" id="DejaVuSans-35"/>
      </defs>
      <g transform="translate(111.398678 783.001964)scale(0.5 -0.5)">
       <use xlink:href="#DejaVuSans-2212"/>
       <use x="83.789062" xlink:href="#DejaVuSans-35"/>
      </g>
     </g>
    </g>
    <g id="ytick_3">
     <g id="line2d_10">
      <g>
       <use style="stroke:#000000;stroke-width:0.8;" x="192.109615" xlink:href="#mac3ef815b4" y="619.883795"/>
      </g>
     </g>
     <g id="text_11">
      <!-- 0 -->
      <g transform="translate(153.297115 638.879888)scale(0.5 -0.5)">
       <use xlink:href="#DejaVuSans-30"/>
      </g>
     </g>
    </g>
    <g id="ytick_4">
     <g id="line2d_11">
      <g>
       <use style="stroke:#000000;stroke-width:0.8;" x="192.109615" xlink:href="#mac3ef815b4" y="475.761719"/>
      </g>
     </g>
     <g id="text_12">
      <!-- 5 -->
      <g transform="translate(153.297115 494.757812)scale(0.5 -0.5)">
       <use xlink:href="#DejaVuSans-35"/>
      </g>
     </g>
    </g>
    <g id="ytick_5">
     <g id="line2d_12">
      <g>
       <use style="stroke:#000000;stroke-width:0.8;" x="192.109615" xlink:href="#mac3ef815b4" y="331.639643"/>
      </g>
     </g>
     <g id="text_13">
      <!-- 10 -->
      <g transform="translate(121.484615 350.635737)scale(0.5 -0.5)">
       <use xlink:href="#DejaVuSans-31"/>
       <use x="63.623047" xlink:href="#DejaVuSans-30"/>
      </g>
     </g>
    </g>
    <g id="ytick_6">
     <g id="line2d_13">
      <g>
       <use style="stroke:#000000;stroke-width:0.8;" x="192.109615" xlink:href="#mac3ef815b4" y="187.517567"/>
      </g>
     </g>
     <g id="text_14">
      <!-- 15 -->
      <g transform="translate(121.484615 206.513661)scale(0.5 -0.5)">
       <use xlink:href="#DejaVuSans-31"/>
       <use x="63.623047" xlink:href="#DejaVuSans-35"/>
      </g>
     </g>
    </g>
    <g id="ytick_7">
     <g id="line2d_14">
      <g>
       <use style="stroke:#000000;stroke-width:0.8;" x="192.109615" xlink:href="#mac3ef815b4" y="43.395491"/>
      </g>
     </g>
     <g id="text_15">
      <!-- 20 -->
      <g transform="translate(121.484615 62.391585)scale(0.5 -0.5)">
       <use xlink:href="#DejaVuSans-32"/>
       <use x="63.623047" xlink:href="#DejaVuSans-30"/>
      </g>
     </g>
    </g>
    <g id="text_16">
     <!-- Velocity (°/s) -->
     <defs>
      <path d="M 28.609375 0 
L 0.78125 72.90625 
L 11.078125 72.90625 
L 34.1875 11.53125 
L 57.328125 72.90625 
L 67.578125 72.90625 
L 39.796875 0 
z
" id="DejaVuSans-56"/>
      <path d="M 9.421875 75.984375 
L 18.40625 75.984375 
L 18.40625 0 
L 9.421875 0 
z
" id="DejaVuSans-6c"/>
      <path d="M 30.609375 48.390625 
Q 23.390625 48.390625 19.1875 42.75 
Q 14.984375 37.109375 14.984375 27.296875 
Q 14.984375 17.484375 19.15625 11.84375 
Q 23.34375 6.203125 30.609375 6.203125 
Q 37.796875 6.203125 41.984375 11.859375 
Q 46.1875 17.53125 46.1875 27.296875 
Q 46.1875 37.015625 41.984375 42.703125 
Q 37.796875 48.390625 30.609375 48.390625 
z
M 30.609375 56 
Q 42.328125 56 49.015625 48.375 
Q 55.71875 40.765625 55.71875 27.296875 
Q 55.71875 13.875 49.015625 6.21875 
Q 42.328125 -1.421875 30.609375 -1.421875 
Q 18.84375 -1.421875 12.171875 6.21875 
Q 5.515625 13.875 5.515625 27.296875 
Q 5.515625 40.765625 12.171875 48.375 
Q 18.84375 56 30.609375 56 
z
" id="DejaVuSans-6f"/>
      <path d="M 48.78125 52.59375 
L 48.78125 44.1875 
Q 44.96875 46.296875 41.140625 47.34375 
Q 37.3125 48.390625 33.40625 48.390625 
Q 24.65625 48.390625 19.8125 42.84375 
Q 14.984375 37.3125 14.984375 27.296875 
Q 14.984375 17.28125 19.8125 11.734375 
Q 24.65625 6.203125 33.40625 6.203125 
Q 37.3125 6.203125 41.140625 7.25 
Q 44.96875 8.296875 48.78125 10.40625 
L 48.78125 2.09375 
Q 45.015625 0.34375 40.984375 -0.53125 
Q 36.96875 -1.421875 32.421875 -1.421875 
Q 20.0625 -1.421875 12.78125 6.34375 
Q 5.515625 14.109375 5.515625 27.296875 
Q 5.515625 40.671875 12.859375 48.328125 
Q 20.21875 56 33.015625 56 
Q 37.15625 56 41.109375 55.140625 
Q 45.0625 54.296875 48.78125 52.59375 
z
" id="DejaVuSans-63"/>
      <path d="M 18.3125 70.21875 
L 18.3125 54.6875 
L 36.8125 54.6875 
L 36.8125 47.703125 
L 18.3125 47.703125 
L 18.3125 18.015625 
Q 18.3125 11.328125 20.140625 9.421875 
Q 21.96875 7.515625 27.59375 7.515625 
L 36.8125 7.515625 
L 36.8125 0 
L 27.59375 0 
Q 17.1875 0 13.234375 3.875 
Q 9.28125 7.765625 9.28125 18.015625 
L 9.28125 47.703125 
L 2.6875 47.703125 
L 2.6875 54.6875 
L 9.28125 54.6875 
L 9.28125 70.21875 
z
" id="DejaVuSans-74"/>
      <path d="M 32.171875 -5.078125 
Q 28.375 -14.84375 24.75 -17.8125 
Q 21.140625 -20.796875 15.09375 -20.796875 
L 7.90625 -20.796875 
L 7.90625 -13.28125 
L 13.1875 -13.28125 
Q 16.890625 -13.28125 18.9375 -11.515625 
Q 21 -9.765625 23.484375 -3.21875 
L 25.09375 0.875 
L 2.984375 54.6875 
L 12.5 54.6875 
L 29.59375 11.921875 
L 46.6875 54.6875 
L 56.203125 54.6875 
z
" id="DejaVuSans-79"/>
      <path d="M 25 67.921875 
Q 21.09375 67.921875 18.40625 65.203125 
Q 15.71875 62.5 15.71875 58.59375 
Q 15.71875 54.734375 18.40625 52.078125 
Q 21.09375 49.421875 25 49.421875 
Q 28.90625 49.421875 31.59375 52.078125 
Q 34.28125 54.734375 34.28125 58.59375 
Q 34.28125 62.453125 31.5625 65.1875 
Q 28.859375 67.921875 25 67.921875 
z
M 25 74.21875 
Q 28.125 74.21875 31 73.015625 
Q 33.890625 71.828125 35.984375 69.578125 
Q 38.234375 67.390625 39.359375 64.59375 
Q 40.484375 61.8125 40.484375 58.59375 
Q 40.484375 52.15625 35.96875 47.6875 
Q 31.453125 43.21875 24.90625 43.21875 
Q 18.3125 43.21875 13.90625 47.609375 
Q 9.515625 52 9.515625 58.59375 
Q 9.515625 65.140625 14 69.671875 
Q 18.5 74.21875 25 74.21875 
z
" id="DejaVuSans-b0"/>
      <path d="M 25.390625 72.90625 
L 33.6875 72.90625 
L 8.296875 -9.28125 
L 0 -9.28125 
z
" id="DejaVuSans-2f"/>
     </defs>
     <g transform="translate(59.988521 717.841797)rotate(-90)scale(0.75 -0.75)">
      <use xlink:href="#DejaVuSans-56"/>
      <use x="68.298828" xlink:href="#DejaVuSans-65"/>
      <use x="129.822266" xlink:href="#DejaVuSans-6c"/>
      <use x="157.605469" xlink:href="#DejaVuSans-6f"/>
      <use x="218.787109" xlink:href="#DejaVuSans-63"/>
      <use x="273.767578" xlink:href="#DejaVuSans-69"/>
      <use x="301.550781" xlink:href="#DejaVuSans-74"/>
      <use x="340.759766" xlink:href="#DejaVuSans-79"/>
      <use x="399.939453" xlink:href="#DejaVuSans-20"/>
      <use x="431.726562" xlink:href="#DejaVuSans-28"/>
      <use x="470.740234" xlink:href="#DejaVuSans-b0"/>
      <use x="520.740234" xlink:href="#DejaVuSans-2f"/>
      <use x="554.431641" xlink:href="#DejaVuSans-73"/>
      <use x="606.53125" xlink:href="#DejaVuSans-29"/>
     </g>
    </g>
   </g>
   <g id="line2d_15">
    <path clip-path="url(#pab49cdbd77)" d="M 192.109615 619.883795 
L 1081 619.883795 
L 1081 619.883795 
" style="fill:none;opacity:0.6;stroke:#000000;stroke-linecap:square;stroke-width:1.5;"/>
   </g>
   <g id="line2d_16">
    <path clip-path="url(#pab49cdbd77)" d="M 192.109615 613.914594 
L 206.062434 617.764349 
L 220.015252 617.572217 
L 233.968071 619.414705 
L 247.920889 621.800712 
L 261.873708 621.403011 
L 275.826526 628.890374 
L 289.779345 626.466673 
L 303.732163 619.20601 
L 317.684982 626.895024 
L 331.6378 632.026027 
L 345.590619 622.183407 
L 359.543437 623.057632 
L 373.496256 632.815193 
L 387.449075 638.804862 
L 401.401893 629.236772 
L 415.354712 646.323857 
L 429.30753 633.195258 
L 443.260349 619.810987 
L 457.213167 629.754746 
L 471.165986 634.080588 
L 485.118804 648.096884 
L 499.071623 634.07701 
L 513.024441 622.772023 
L 526.97726 644.434444 
L 540.930078 625.739361 
L 554.882897 626.692425 
L 568.835716 632.520341 
L 582.788534 633.542085 
L 596.741353 642.838942 
L 610.694171 643.324261 
L 624.64699 640.774749 
L 638.599808 643.782282 
L 652.552627 648.248177 
L 666.505445 641.84155 
L 680.458264 644.399334 
L 694.411082 643.907647 
L 708.363901 650.436107 
L 722.316719 650.511601 
L 736.269538 655.82005 
L 750.222357 646.898521 
L 764.175175 645.149509 
L 778.127994 644.376094 
L 792.080812 628.249675 
L 806.033631 613.526859 
L 819.986449 609.492397 
L 833.939268 585.305717 
L 847.892086 571.470428 
L 861.844905 549.264432 
L 875.797723 547.937053 
L 889.750542 532.287476 
L 903.703361 497.85073 
L 917.656179 448.568045 
L 931.608998 392.471358 
L 945.561816 342.536174 
L 959.514635 316.928397 
L 973.467453 286.178702 
L 987.420272 278.93346 
L 1001.37309 286.442241 
L 1015.325909 279.541267 
L 1029.278727 255.449142 
L 1043.231546 253.821886 
L 1057.184364 227.718338 
L 1071.137183 240.627697 
L 1081 213.127639 
" style="fill:none;stroke:#000000;stroke-linecap:square;stroke-width:3;"/>
   </g>
   <g id="line2d_17">
    <path clip-path="url(#pab49cdbd77)" d="M 192.109615 630.881321 
L 206.062434 606.359485 
L 220.015252 621.760834 
L 233.968071 618.493298 
L 247.920889 632.229814 
L 261.873708 622.723418 
L 275.826526 618.565704 
L 289.779345 626.672376 
L 303.732163 606.383549 
L 317.684982 621.280709 
L 331.6378 624.380522 
L 345.590619 621.175408 
L 359.543437 624.476197 
L 373.496256 631.599029 
L 387.449075 626.91066 
L 401.401893 630.351899 
L 415.354712 628.707338 
L 429.30753 649.35171 
L 443.260349 622.658371 
L 457.213167 619.256219 
L 471.165986 631.533023 
L 485.118804 619.338304 
L 499.071623 622.629252 
L 513.024441 626.860044 
L 526.97726 624.484121 
L 540.930078 624.849962 
L 554.882897 626.932098 
L 568.835716 622.789264 
L 582.788534 628.42414 
L 596.741353 624.681705 
L 610.694171 626.849096 
L 624.64699 636.704956 
L 638.599808 626.298252 
L 652.552627 633.343057 
L 666.505445 629.540198 
L 680.458264 627.559076 
L 694.411082 635.185933 
L 708.363901 629.737325 
L 722.316719 628.932087 
L 736.269538 637.426894 
L 750.222357 634.442883 
L 764.175175 624.82156 
L 778.127994 627.084163 
L 792.080812 608.465648 
L 806.033631 596.180019 
L 819.986449 584.993062 
L 833.939268 566.083859 
L 847.892086 552.036224 
L 861.844905 530.811149 
L 875.797723 515.622643 
L 889.750542 484.433618 
L 903.703361 456.384718 
L 917.656179 356.267256 
L 931.608998 365.728616 
L 945.561816 296.403035 
L 959.514635 292.521368 
L 973.467453 292.815974 
L 987.420272 269.363755 
L 1001.37309 248.433303 
L 1015.325909 237.311123 
L 1029.278727 255.450097 
L 1043.231546 238.991042 
L 1057.184364 227.629756 
L 1071.137183 206.786217 
L 1081 193.180712 
" style="fill:none;stroke:#696969;stroke-linecap:square;stroke-width:3;"/>
   </g>
   <g id="line2d_18">
    <path clip-path="url(#pab49cdbd77)" d="M 192.109615 622.565695 
L 206.062434 621.654084 
L 220.015252 611.607139 
L 233.968071 618.133017 
L 247.920889 628.252817 
L 261.873708 627.781983 
L 275.826526 614.805657 
L 289.779345 614.223755 
L 303.732163 620.641694 
L 317.684982 625.864067 
L 331.6378 618.055645 
L 345.590619 615.825458 
L 359.543437 624.685946 
L 373.496256 623.306017 
L 387.449075 624.942107 
L 401.401893 618.772077 
L 415.354712 618.806284 
L 429.30753 620.601357 
L 443.260349 625.24783 
L 457.213167 615.353547 
L 471.165986 621.212253 
L 485.118804 620.281088 
L 499.071623 614.535871 
L 513.024441 615.679812 
L 526.97726 622.597731 
L 540.930078 618.282645 
L 554.882897 625.587497 
L 568.835716 636.808152 
L 582.788534 636.576895 
L 596.741353 616.744747 
L 610.694171 615.627109 
L 624.64699 628.940091 
L 638.599808 623.858183 
L 652.552627 621.277186 
L 666.505445 628.949769 
L 680.458264 621.800712 
L 694.411082 629.581144 
L 708.363901 631.232956 
L 722.316719 613.592737 
L 736.269538 625.470173 
L 750.222357 638.44947 
L 764.175175 627.915951 
L 778.127994 615.965189 
L 792.080812 605.980282 
L 806.033631 582.955011 
L 819.986449 566.815208 
L 833.939268 540.077168 
L 847.892086 529.591184 
L 861.844905 519.191156 
L 875.797723 514.467473 
L 889.750542 484.071828 
L 903.703361 453.546941 
L 917.656179 407.427652 
L 931.608998 333.336003 
L 945.561816 301.356486 
L 959.514635 268.313247 
L 973.467453 281.124791 
L 987.420272 251.207815 
L 1001.37309 244.624695 
L 1015.325909 256.402383 
L 1029.278727 232.68918 
L 1043.231546 233.051364 
L 1057.184364 260.351735 
L 1071.137183 222.265705 
L 1081 202.133401 
" style="fill:none;stroke:#cd5c5c;stroke-linecap:square;stroke-width:3;"/>
   </g>
   <g id="line2d_19">
    <path clip-path="url(#pab49cdbd77)" d="M 192.109615 618.323848 
L 206.062434 620.162575 
L 220.015252 620.143877 
L 233.968071 615.378549 
L 247.920889 622.249098 
L 261.873708 617.522877 
L 275.826526 616.840908 
L 289.779345 617.060919 
L 303.732163 618.633501 
L 317.684982 619.610613 
L 331.6378 618.859889 
L 345.590619 615.531895 
L 359.543437 615.930541 
L 373.496256 617.583631 
L 387.449075 621.840219 
L 401.401893 621.961728 
L 415.354712 621.786912 
L 429.30753 615.465816 
L 443.260349 616.029656 
L 457.213167 616.493186 
L 471.165986 617.029183 
L 485.118804 619.933122 
L 499.071623 619.534124 
L 513.024441 611.369025 
L 526.97726 614.539247 
L 540.930078 614.351407 
L 554.882897 612.718585 
L 568.835716 611.984422 
L 582.788534 614.75822 
L 596.741353 611.472081 
L 610.694171 614.527285 
L 624.64699 612.698592 
L 638.599808 612.725028 
L 652.552627 609.86619 
L 666.505445 611.894095 
L 680.458264 611.028525 
L 694.411082 606.999226 
L 708.363901 607.738778 
L 722.316719 606.003645 
L 736.269538 605.980261 
L 750.222357 602.852891 
L 764.175175 602.681016 
L 778.127994 596.528846 
L 792.080812 583.427074 
L 806.033631 564.417505 
L 819.986449 547.282744 
L 833.939268 528.845354 
L 847.892086 511.27905 
L 861.844905 488.855131 
L 875.797723 472.269689 
L 889.750542 450.853172 
L 903.703361 407.917405 
L 917.656179 366.96404 
L 931.608998 324.481081 
L 945.561816 287.946473 
L 959.514635 255.260286 
L 973.467453 242.353611 
L 987.420272 240.549194 
L 1001.37309 234.405703 
L 1015.325909 235.902211 
L 1029.278727 229.507765 
L 1043.231546 230.055022 
L 1057.184364 218.312696 
L 1071.137183 212.101918 
L 1081 212.170476 
" style="fill:none;stroke:#8b0000;stroke-linecap:square;stroke-width:3;"/>
   </g>
   <g id="line2d_20">
    <path clip-path="url(#pab49cdbd77)" d="M 192.109615 614.491623 
L 206.062434 617.115359 
L 220.015252 615.368108 
L 233.968071 615.283768 
L 247.920889 617.579621 
L 261.873708 616.479556 
L 275.826526 612.268542 
L 289.779345 615.378281 
L 303.732163 616.867548 
L 317.684982 612.171587 
L 331.6378 614.870173 
L 345.590619 614.369895 
L 359.543437 613.118166 
L 373.496256 610.558687 
L 387.449075 613.862466 
L 401.401893 612.547545 
L 415.354712 610.126169 
L 429.30753 607.825627 
L 443.260349 609.81457 
L 457.213167 609.473239 
L 471.165986 609.824488 
L 485.118804 607.747106 
L 499.071623 607.683959 
L 513.024441 602.23503 
L 526.97726 608.391764 
L 540.930078 601.927502 
L 554.882897 603.767723 
L 568.835716 597.583234 
L 582.788534 600.275392 
L 596.741353 598.178973 
L 610.694171 595.7629 
L 624.64699 597.483396 
L 638.599808 591.312124 
L 652.552627 591.521603 
L 666.505445 588.25375 
L 680.458264 584.676336 
L 694.411082 585.198505 
L 708.363901 580.668755 
L 722.316719 579.24122 
L 736.269538 574.827221 
L 750.222357 571.368363 
L 764.175175 567.553569 
L 778.127994 558.926682 
L 792.080812 549.156223 
L 806.033631 531.555666 
L 819.986449 505.943971 
L 833.939268 483.968183 
L 847.892086 464.558171 
L 861.844905 442.279094 
L 875.797723 433.338731 
L 889.750542 415.258473 
L 903.703361 374.376006 
L 917.656179 326.459359 
L 931.608998 292.372125 
L 945.561816 266.775145 
L 959.514635 251.303221 
L 973.467453 234.887489 
L 987.420272 213.720695 
L 1001.37309 218.557003 
L 1015.325909 217.442027 
L 1029.278727 214.189876 
L 1043.231546 215.880247 
L 1057.184364 218.002656 
L 1071.137183 215.870743 
L 1081 213.322743 
" style="fill:none;stroke:#ff0000;stroke-linecap:square;stroke-width:3;"/>
   </g>
   <g id="patch_5">
    <path d="M 192.109615 945.023198 
L 192.109615 6.50024 
" style="fill:none;stroke:#000000;stroke-linecap:square;stroke-linejoin:miter;stroke-width:0.8;"/>
   </g>
   <g id="patch_6">
    <path d="M 1043.231546 945.023198 
L 1043.231546 6.50024 
" style="fill:none;stroke:#000000;stroke-linecap:square;stroke-linejoin:miter;stroke-width:0.8;"/>
   </g>
   <g id="patch_7">
    <path d="M 192.109615 945.023198 
L 1043.231546 945.023198 
" style="fill:none;stroke:#000000;stroke-linecap:square;stroke-linejoin:miter;stroke-width:0.8;"/>
   </g>
   <g id="patch_8">
    <path d="M 192.109615 6.50024 
L 1043.231546 6.50024 
" style="fill:none;stroke:#000000;stroke-linecap:square;stroke-linejoin:miter;stroke-width:0.8;"/>
   </g>
   <g id="text_17">
    <!-- GAP -->
    <defs>
     <path d="M 59.515625 10.40625 
L 59.515625 29.984375 
L 43.40625 29.984375 
L 43.40625 38.09375 
L 69.28125 38.09375 
L 69.28125 6.78125 
Q 63.578125 2.734375 56.6875 0.65625 
Q 49.8125 -1.421875 42 -1.421875 
Q 24.90625 -1.421875 15.25 8.5625 
Q 5.609375 18.5625 5.609375 36.375 
Q 5.609375 54.25 15.25 64.234375 
Q 24.90625 74.21875 42 74.21875 
Q 49.125 74.21875 55.546875 72.453125 
Q 61.96875 70.703125 67.390625 67.28125 
L 67.390625 56.78125 
Q 61.921875 61.421875 55.765625 63.765625 
Q 49.609375 66.109375 42.828125 66.109375 
Q 29.4375 66.109375 22.71875 58.640625 
Q 16.015625 51.171875 16.015625 36.375 
Q 16.015625 21.625 22.71875 14.15625 
Q 29.4375 6.6875 42.828125 6.6875 
Q 48.046875 6.6875 52.140625 7.59375 
Q 56.25 8.5 59.515625 10.40625 
z
" id="DejaVuSans-47"/>
     <path d="M 34.1875 63.1875 
L 20.796875 26.90625 
L 47.609375 26.90625 
z
M 28.609375 72.90625 
L 39.796875 72.90625 
L 67.578125 0 
L 57.328125 0 
L 50.6875 18.703125 
L 17.828125 18.703125 
L 11.1875 0 
L 0.78125 0 
z
" id="DejaVuSans-41"/>
     <path d="M 19.671875 64.796875 
L 19.671875 37.40625 
L 32.078125 37.40625 
Q 38.96875 37.40625 42.71875 40.96875 
Q 46.484375 44.53125 46.484375 51.125 
Q 46.484375 57.671875 42.71875 61.234375 
Q 38.96875 64.796875 32.078125 64.796875 
z
M 9.8125 72.90625 
L 32.078125 72.90625 
Q 44.34375 72.90625 50.609375 67.359375 
Q 56.890625 61.8125 56.890625 51.125 
Q 56.890625 40.328125 50.609375 34.8125 
Q 44.34375 29.296875 32.078125 29.296875 
L 19.671875 29.296875 
L 19.671875 0 
L 9.8125 0 
z
" id="DejaVuSans-50"/>
    </defs>
    <g style="opacity:0.5;" transform="translate(308.617518 875.313491)scale(0.9 -0.9)">
     <use xlink:href="#DejaVuSans-47"/>
     <use x="77.490234" xlink:href="#DejaVuSans-41"/>
     <use x="145.898438" xlink:href="#DejaVuSans-50"/>
    </g>
   </g>
   <g id="text_18">
    <!-- PURSUIT -->
    <defs>
     <path d="M 8.6875 72.90625 
L 18.609375 72.90625 
L 18.609375 28.609375 
Q 18.609375 16.890625 22.84375 11.734375 
Q 27.09375 6.59375 36.625 6.59375 
Q 46.09375 6.59375 50.34375 11.734375 
Q 54.59375 16.890625 54.59375 28.609375 
L 54.59375 72.90625 
L 64.5 72.90625 
L 64.5 27.390625 
Q 64.5 13.140625 57.4375 5.859375 
Q 50.390625 -1.421875 36.625 -1.421875 
Q 22.796875 -1.421875 15.734375 5.859375 
Q 8.6875 13.140625 8.6875 27.390625 
z
" id="DejaVuSans-55"/>
     <path d="M 44.390625 34.1875 
Q 47.5625 33.109375 50.5625 29.59375 
Q 53.5625 26.078125 56.59375 19.921875 
L 66.609375 0 
L 56 0 
L 46.6875 18.703125 
Q 43.0625 26.03125 39.671875 28.421875 
Q 36.28125 30.8125 30.421875 30.8125 
L 19.671875 30.8125 
L 19.671875 0 
L 9.8125 0 
L 9.8125 72.90625 
L 32.078125 72.90625 
Q 44.578125 72.90625 50.734375 67.671875 
Q 56.890625 62.453125 56.890625 51.90625 
Q 56.890625 45.015625 53.6875 40.46875 
Q 50.484375 35.9375 44.390625 34.1875 
z
M 19.671875 64.796875 
L 19.671875 38.921875 
L 32.078125 38.921875 
Q 39.203125 38.921875 42.84375 42.21875 
Q 46.484375 45.515625 46.484375 51.90625 
Q 46.484375 58.296875 42.84375 61.546875 
Q 39.203125 64.796875 32.078125 64.796875 
z
" id="DejaVuSans-52"/>
     <path d="M 53.515625 70.515625 
L 53.515625 60.890625 
Q 47.90625 63.578125 42.921875 64.890625 
Q 37.9375 66.21875 33.296875 66.21875 
Q 25.25 66.21875 20.875 63.09375 
Q 16.5 59.96875 16.5 54.203125 
Q 16.5 49.359375 19.40625 46.890625 
Q 22.3125 44.4375 30.421875 42.921875 
L 36.375 41.703125 
Q 47.40625 39.59375 52.65625 34.296875 
Q 57.90625 29 57.90625 20.125 
Q 57.90625 9.515625 50.796875 4.046875 
Q 43.703125 -1.421875 29.984375 -1.421875 
Q 24.8125 -1.421875 18.96875 -0.25 
Q 13.140625 0.921875 6.890625 3.21875 
L 6.890625 13.375 
Q 12.890625 10.015625 18.65625 8.296875 
Q 24.421875 6.59375 29.984375 6.59375 
Q 38.421875 6.59375 43.015625 9.90625 
Q 47.609375 13.234375 47.609375 19.390625 
Q 47.609375 24.75 44.3125 27.78125 
Q 41.015625 30.8125 33.5 32.328125 
L 27.484375 33.5 
Q 16.453125 35.6875 11.515625 40.375 
Q 6.59375 45.0625 6.59375 53.421875 
Q 6.59375 63.09375 13.40625 68.65625 
Q 20.21875 74.21875 32.171875 74.21875 
Q 37.3125 74.21875 42.625 73.28125 
Q 47.953125 72.359375 53.515625 70.515625 
z
" id="DejaVuSans-53"/>
     <path d="M 9.8125 72.90625 
L 19.671875 72.90625 
L 19.671875 0 
L 9.8125 0 
z
" id="DejaVuSans-49"/>
    </defs>
    <g style="opacity:0.5;" transform="translate(626.388012 875.313491)scale(0.9 -0.9)">
     <use xlink:href="#DejaVuSans-50"/>
     <use x="60.302734" xlink:href="#DejaVuSans-55"/>
     <use x="133.496094" xlink:href="#DejaVuSans-52"/>
     <use x="202.978516" xlink:href="#DejaVuSans-53"/>
     <use x="266.455078" xlink:href="#DejaVuSans-55"/>
     <use x="339.648438" xlink:href="#DejaVuSans-49"/>
     <use x="369.140625" xlink:href="#DejaVuSans-54"/>
    </g>
   </g>
   <g id="legend_1">
    <g id="patch_9">
     <path d="M 227.109615 413.453365 
L 717.273678 413.453365 
Q 727.273678 413.453365 727.273678 403.453365 
L 727.273678 41.50024 
Q 727.273678 31.50024 717.273678 31.50024 
L 227.109615 31.50024 
Q 217.109615 31.50024 217.109615 41.50024 
L 217.109615 403.453365 
Q 217.109615 413.453365 227.109615 413.453365 
z
" style="fill:#ffffff;opacity:0.3;stroke:#cccccc;stroke-linejoin:miter;"/>
    </g>
    <g id="line2d_21">
     <path d="M 237.109615 71.992427 
L 337.109615 71.992427 
" style="fill:none;stroke:#000000;stroke-linecap:square;stroke-width:3;"/>
    </g>
    <g id="line2d_22"/>
    <g id="text_19">
     <!--  p = 0.0 - 0.2 -->
     <defs>
      <path d="M 18.109375 8.203125 
L 18.109375 -20.796875 
L 9.078125 -20.796875 
L 9.078125 54.6875 
L 18.109375 54.6875 
L 18.109375 46.390625 
Q 20.953125 51.265625 25.265625 53.625 
Q 29.59375 56 35.59375 56 
Q 45.5625 56 51.78125 48.09375 
Q 58.015625 40.1875 58.015625 27.296875 
Q 58.015625 14.40625 51.78125 6.484375 
Q 45.5625 -1.421875 35.59375 -1.421875 
Q 29.59375 -1.421875 25.265625 0.953125 
Q 20.953125 3.328125 18.109375 8.203125 
z
M 48.6875 27.296875 
Q 48.6875 37.203125 44.609375 42.84375 
Q 40.53125 48.484375 33.40625 48.484375 
Q 26.265625 48.484375 22.1875 42.84375 
Q 18.109375 37.203125 18.109375 27.296875 
Q 18.109375 17.390625 22.1875 11.75 
Q 26.265625 6.109375 33.40625 6.109375 
Q 40.53125 6.109375 44.609375 11.75 
Q 48.6875 17.390625 48.6875 27.296875 
z
" id="DejaVuSans-70"/>
      <path d="M 10.59375 45.40625 
L 73.1875 45.40625 
L 73.1875 37.203125 
L 10.59375 37.203125 
z
M 10.59375 25.484375 
L 73.1875 25.484375 
L 73.1875 17.1875 
L 10.59375 17.1875 
z
" id="DejaVuSans-3d"/>
      <path d="M 10.6875 12.40625 
L 21 12.40625 
L 21 0 
L 10.6875 0 
z
" id="DejaVuSans-2e"/>
     </defs>
     <g transform="translate(377.109615 89.492427)scale(0.5 -0.5)">
      <use xlink:href="#DejaVuSans-20"/>
      <use x="31.787109" xlink:href="#DejaVuSans-70"/>
      <use x="95.263672" xlink:href="#DejaVuSans-20"/>
      <use x="127.050781" xlink:href="#DejaVuSans-3d"/>
      <use x="210.839844" xlink:href="#DejaVuSans-20"/>
      <use x="242.626953" xlink:href="#DejaVuSans-30"/>
      <use x="306.25" xlink:href="#DejaVuSans-2e"/>
      <use x="338.037109" xlink:href="#DejaVuSans-30"/>
      <use x="401.660156" xlink:href="#DejaVuSans-20"/>
      <use x="433.447266" xlink:href="#DejaVuSans-2d"/>
      <use x="469.53125" xlink:href="#DejaVuSans-20"/>
      <use x="501.318359" xlink:href="#DejaVuSans-30"/>
      <use x="564.941406" xlink:href="#DejaVuSans-2e"/>
      <use x="596.728516" xlink:href="#DejaVuSans-32"/>
     </g>
    </g>
    <g id="line2d_23">
     <path d="M 237.109615 145.383052 
L 337.109615 145.383052 
" style="fill:none;stroke:#696969;stroke-linecap:square;stroke-width:3;"/>
    </g>
    <g id="line2d_24"/>
    <g id="text_20">
     <!--  p = 0.2 - 0.4 -->
     <defs>
      <path d="M 37.796875 64.3125 
L 12.890625 25.390625 
L 37.796875 25.390625 
z
M 35.203125 72.90625 
L 47.609375 72.90625 
L 47.609375 25.390625 
L 58.015625 25.390625 
L 58.015625 17.1875 
L 47.609375 17.1875 
L 47.609375 0 
L 37.796875 0 
L 37.796875 17.1875 
L 4.890625 17.1875 
L 4.890625 26.703125 
z
" id="DejaVuSans-34"/>
     </defs>
     <g transform="translate(377.109615 162.883052)scale(0.5 -0.5)">
      <use xlink:href="#DejaVuSans-20"/>
      <use x="31.787109" xlink:href="#DejaVuSans-70"/>
      <use x="95.263672" xlink:href="#DejaVuSans-20"/>
      <use x="127.050781" xlink:href="#DejaVuSans-3d"/>
      <use x="210.839844" xlink:href="#DejaVuSans-20"/>
      <use x="242.626953" xlink:href="#DejaVuSans-30"/>
      <use x="306.25" xlink:href="#DejaVuSans-2e"/>
      <use x="338.037109" xlink:href="#DejaVuSans-32"/>
      <use x="401.660156" xlink:href="#DejaVuSans-20"/>
      <use x="433.447266" xlink:href="#DejaVuSans-2d"/>
      <use x="469.53125" xlink:href="#DejaVuSans-20"/>
      <use x="501.318359" xlink:href="#DejaVuSans-30"/>
      <use x="564.941406" xlink:href="#DejaVuSans-2e"/>
      <use x="596.728516" xlink:href="#DejaVuSans-34"/>
     </g>
    </g>
    <g id="line2d_25">
     <path d="M 237.109615 218.773677 
L 337.109615 218.773677 
" style="fill:none;stroke:#cd5c5c;stroke-linecap:square;stroke-width:3;"/>
    </g>
    <g id="line2d_26"/>
    <g id="text_21">
     <!--  p = 0.4 - 0.6 -->
     <defs>
      <path d="M 33.015625 40.375 
Q 26.375 40.375 22.484375 35.828125 
Q 18.609375 31.296875 18.609375 23.390625 
Q 18.609375 15.53125 22.484375 10.953125 
Q 26.375 6.390625 33.015625 6.390625 
Q 39.65625 6.390625 43.53125 10.953125 
Q 47.40625 15.53125 47.40625 23.390625 
Q 47.40625 31.296875 43.53125 35.828125 
Q 39.65625 40.375 33.015625 40.375 
z
M 52.59375 71.296875 
L 52.59375 62.3125 
Q 48.875 64.0625 45.09375 64.984375 
Q 41.3125 65.921875 37.59375 65.921875 
Q 27.828125 65.921875 22.671875 59.328125 
Q 17.53125 52.734375 16.796875 39.40625 
Q 19.671875 43.65625 24.015625 45.921875 
Q 28.375 48.1875 33.59375 48.1875 
Q 44.578125 48.1875 50.953125 41.515625 
Q 57.328125 34.859375 57.328125 23.390625 
Q 57.328125 12.15625 50.6875 5.359375 
Q 44.046875 -1.421875 33.015625 -1.421875 
Q 20.359375 -1.421875 13.671875 8.265625 
Q 6.984375 17.96875 6.984375 36.375 
Q 6.984375 53.65625 15.1875 63.9375 
Q 23.390625 74.21875 37.203125 74.21875 
Q 40.921875 74.21875 44.703125 73.484375 
Q 48.484375 72.75 52.59375 71.296875 
z
" id="DejaVuSans-36"/>
     </defs>
     <g transform="translate(377.109615 236.273677)scale(0.5 -0.5)">
      <use xlink:href="#DejaVuSans-20"/>
      <use x="31.787109" xlink:href="#DejaVuSans-70"/>
      <use x="95.263672" xlink:href="#DejaVuSans-20"/>
      <use x="127.050781" xlink:href="#DejaVuSans-3d"/>
      <use x="210.839844" xlink:href="#DejaVuSans-20"/>
      <use x="242.626953" xlink:href="#DejaVuSans-30"/>
      <use x="306.25" xlink:href="#DejaVuSans-2e"/>
      <use x="338.037109" xlink:href="#DejaVuSans-34"/>
      <use x="401.660156" xlink:href="#DejaVuSans-20"/>
      <use x="433.447266" xlink:href="#DejaVuSans-2d"/>
      <use x="469.53125" xlink:href="#DejaVuSans-20"/>
      <use x="501.318359" xlink:href="#DejaVuSans-30"/>
      <use x="564.941406" xlink:href="#DejaVuSans-2e"/>
      <use x="596.728516" xlink:href="#DejaVuSans-36"/>
     </g>
    </g>
    <g id="line2d_27">
     <path d="M 237.109615 292.164302 
L 337.109615 292.164302 
" style="fill:none;stroke:#8b0000;stroke-linecap:square;stroke-width:3;"/>
    </g>
    <g id="line2d_28"/>
    <g id="text_22">
     <!--  p = 0.6 - 0.8 -->
     <defs>
      <path d="M 31.78125 34.625 
Q 24.75 34.625 20.71875 30.859375 
Q 16.703125 27.09375 16.703125 20.515625 
Q 16.703125 13.921875 20.71875 10.15625 
Q 24.75 6.390625 31.78125 6.390625 
Q 38.8125 6.390625 42.859375 10.171875 
Q 46.921875 13.96875 46.921875 20.515625 
Q 46.921875 27.09375 42.890625 30.859375 
Q 38.875 34.625 31.78125 34.625 
z
M 21.921875 38.8125 
Q 15.578125 40.375 12.03125 44.71875 
Q 8.5 49.078125 8.5 55.328125 
Q 8.5 64.0625 14.71875 69.140625 
Q 20.953125 74.21875 31.78125 74.21875 
Q 42.671875 74.21875 48.875 69.140625 
Q 55.078125 64.0625 55.078125 55.328125 
Q 55.078125 49.078125 51.53125 44.71875 
Q 48 40.375 41.703125 38.8125 
Q 48.828125 37.15625 52.796875 32.3125 
Q 56.78125 27.484375 56.78125 20.515625 
Q 56.78125 9.90625 50.3125 4.234375 
Q 43.84375 -1.421875 31.78125 -1.421875 
Q 19.734375 -1.421875 13.25 4.234375 
Q 6.78125 9.90625 6.78125 20.515625 
Q 6.78125 27.484375 10.78125 32.3125 
Q 14.796875 37.15625 21.921875 38.8125 
z
M 18.3125 54.390625 
Q 18.3125 48.734375 21.84375 45.5625 
Q 25.390625 42.390625 31.78125 42.390625 
Q 38.140625 42.390625 41.71875 45.5625 
Q 45.3125 48.734375 45.3125 54.390625 
Q 45.3125 60.0625 41.71875 63.234375 
Q 38.140625 66.40625 31.78125 66.40625 
Q 25.390625 66.40625 21.84375 63.234375 
Q 18.3125 60.0625 18.3125 54.390625 
z
" id="DejaVuSans-38"/>
     </defs>
     <g transform="translate(377.109615 309.664302)scale(0.5 -0.5)">
      <use xlink:href="#DejaVuSans-20"/>
      <use x="31.787109" xlink:href="#DejaVuSans-70"/>
      <use x="95.263672" xlink:href="#DejaVuSans-20"/>
      <use x="127.050781" xlink:href="#DejaVuSans-3d"/>
      <use x="210.839844" xlink:href="#DejaVuSans-20"/>
      <use x="242.626953" xlink:href="#DejaVuSans-30"/>
      <use x="306.25" xlink:href="#DejaVuSans-2e"/>
      <use x="338.037109" xlink:href="#DejaVuSans-36"/>
      <use x="401.660156" xlink:href="#DejaVuSans-20"/>
      <use x="433.447266" xlink:href="#DejaVuSans-2d"/>
      <use x="469.53125" xlink:href="#DejaVuSans-20"/>
      <use x="501.318359" xlink:href="#DejaVuSans-30"/>
      <use x="564.941406" xlink:href="#DejaVuSans-2e"/>
      <use x="596.728516" xlink:href="#DejaVuSans-38"/>
     </g>
    </g>
    <g id="line2d_29">
     <path d="M 237.109615 365.554927 
L 337.109615 365.554927 
" style="fill:none;stroke:#ff0000;stroke-linecap:square;stroke-width:3;"/>
    </g>
    <g id="line2d_30"/>
    <g id="text_23">
     <!--  p = 0.8 - 1.0 -->
     <g transform="translate(377.109615 383.054927)scale(0.5 -0.5)">
      <use xlink:href="#DejaVuSans-20"/>
      <use x="31.787109" xlink:href="#DejaVuSans-70"/>
      <use x="95.263672" xlink:href="#DejaVuSans-20"/>
      <use x="127.050781" xlink:href="#DejaVuSans-3d"/>
      <use x="210.839844" xlink:href="#DejaVuSans-20"/>
      <use x="242.626953" xlink:href="#DejaVuSans-30"/>
      <use x="306.25" xlink:href="#DejaVuSans-2e"/>
      <use x="338.037109" xlink:href="#DejaVuSans-38"/>
      <use x="401.660156" xlink:href="#DejaVuSans-20"/>
      <use x="433.447266" xlink:href="#DejaVuSans-2d"/>
      <use x="469.53125" xlink:href="#DejaVuSans-20"/>
      <use x="501.318359" xlink:href="#DejaVuSans-31"/>
      <use x="564.941406" xlink:href="#DejaVuSans-2e"/>
      <use x="596.728516" xlink:href="#DejaVuSans-30"/>
     </g>
    </g>
   </g>
  </g>
 </g>
 <defs>
  <clipPath id="pab49cdbd77">
   <rect height="938.522958" width="851.121931" x="192.109615" y="6.50024"/>
  </clipPath>
 </defs>
</svg>
