<?xml version="1.0" encoding="utf-8" standalone="no"?>
<!DOCTYPE svg PUBLIC "-//W3C//DTD SVG 1.1//EN"
  "http://www.w3.org/Graphics/SVG/1.1/DTD/svg11.dtd">
<!-- Created with matplotlib (https://matplotlib.org/) -->
<svg height="1080pt" version="1.1" viewBox="0 0 1080 1080" width="1080pt" xmlns="http://www.w3.org/2000/svg" xmlns:xlink="http://www.w3.org/1999/xlink">
 <defs>
  <style type="text/css">
*{stroke-linecap:butt;stroke-linejoin:round;}
  </style>
 </defs>
 <g id="figure_1">
  <g id="patch_1">
   <path d="M 0 1080 
L 1080 1080 
L 1080 0 
L 0 0 
z
" style="fill:#ffffff;"/>
  </g>
  <g id="axes_1">
   <g id="patch_2">
    <path d="M 192.109615 945.023197 
L 1029.28101 945.023197 
L 1029.28101 6.50024 
L 192.109615 6.50024 
z
" style="fill:#ffffff;"/>
   </g>
   <g id="PolyCollection_1">
    <path clip-path="url(#p95930bb200)" d="M 192.109615 735.017428 
L 192.109615 500.347449 
L 206.062472 500.72537 
L 220.015328 504.641018 
L 233.968185 506.621534 
L 247.921041 502.597707 
L 261.873898 501.54737 
L 275.826754 511.540481 
L 289.779611 511.927763 
L 303.732468 511.407886 
L 317.685324 509.354663 
L 331.638181 512.200134 
L 345.591037 503.603739 
L 359.543894 511.909393 
L 373.496751 514.89406 
L 387.449607 522.864996 
L 401.402464 497.137876 
L 415.35532 514.772814 
L 429.308177 503.316359 
L 443.261033 503.308007 
L 457.21389 517.371259 
L 471.166747 514.976983 
L 485.119603 516.479112 
L 499.07246 512.089614 
L 513.025316 497.232662 
L 526.978173 523.052094 
L 540.93103 503.583374 
L 554.883886 513.649055 
L 568.836743 505.863031 
L 582.789599 519.87893 
L 596.742456 523.298586 
L 610.695312 516.971978 
L 624.648169 526.050325 
L 638.601026 522.52007 
L 652.553882 524.675748 
L 666.506739 516.789317 
L 680.459595 519.747656 
L 694.412452 516.650588 
L 708.365309 529.896904 
L 722.318165 522.199159 
L 736.271022 522.880716 
L 750.223878 521.05508 
L 764.176735 516.286938 
L 778.129591 505.709214 
L 792.082448 499.6859 
L 806.035305 490.107572 
L 819.988161 468.61155 
L 833.941018 446.765218 
L 847.893874 441.953497 
L 861.846731 412.586742 
L 875.799588 409.06265 
L 889.752444 382.763168 
L 903.705301 328.707565 
L 917.658157 265.233383 
L 931.611014 154.392604 
L 945.56387 107.081753 
L 959.516727 88.404837 
L 973.469584 63.816638 
L 987.42244 46.003974 
L 1001.375297 31.632247 
L 1015.328153 68.626359 
L 1029.28101 50.966346 
L 1029.28101 480.628375 
L 1029.28101 480.628375 
L 1015.328153 504.886318 
L 1001.375297 578.427856 
L 987.42244 543.364221 
L 973.469584 530.58653 
L 959.516727 578.081472 
L 945.56387 612.633174 
L 931.611014 665.021907 
L 917.658157 672.116101 
L 903.705301 696.647098 
L 889.752444 705.61998 
L 875.799588 698.195971 
L 861.846731 704.696797 
L 847.893874 709.8213 
L 833.941018 729.782797 
L 819.988161 753.925676 
L 806.035305 747.726172 
L 792.082448 759.343267 
L 778.129591 777.454479 
L 764.176735 770.09978 
L 750.223878 773.687557 
L 736.271022 789.535393 
L 722.318165 774.876949 
L 708.365309 763.676812 
L 694.412452 764.752439 
L 680.459595 770.035535 
L 666.506739 760.49946 
L 652.553882 762.072047 
L 638.601026 763.325274 
L 624.648169 753.503216 
L 610.695312 760.265794 
L 596.742456 753.615621 
L 582.789599 748.614719 
L 568.836743 755.62483 
L 554.883886 740.194072 
L 540.93103 750.06438 
L 526.978173 753.050115 
L 513.025316 753.148356 
L 499.07246 747.5274 
L 485.119603 749.762534 
L 471.166747 749.93557 
L 457.21389 745.597403 
L 443.261033 740.70764 
L 429.308177 755.089444 
L 415.35532 744.754602 
L 401.402464 749.047132 
L 387.449607 740.117241 
L 373.496751 746.241064 
L 359.543894 731.935473 
L 345.591037 739.62839 
L 331.638181 747.105431 
L 317.685324 738.375365 
L 303.732468 730.454889 
L 289.779611 738.472096 
L 275.826754 742.743164 
L 261.873898 739.929137 
L 247.921041 737.22394 
L 233.968185 733.384374 
L 220.015328 733.646889 
L 206.062472 727.457829 
L 192.109615 735.017428 
z
" style="fill-opacity:0.05;"/>
   </g>
   <g id="PolyCollection_2">
    <path clip-path="url(#p95930bb200)" d="M 192.109615 737.530972 
L 192.109615 501.701485 
L 206.062472 496.778317 
L 220.015328 507.220217 
L 233.968185 500.241843 
L 247.921041 508.323163 
L 261.873898 500.78744 
L 275.826754 506.702803 
L 289.779611 497.024419 
L 303.732468 500.651927 
L 317.685324 509.681735 
L 331.638181 508.884164 
L 345.591037 502.355199 
L 359.543894 510.872637 
L 373.496751 517.088046 
L 387.449607 508.623819 
L 401.402464 515.241872 
L 415.35532 504.131773 
L 429.308177 512.566426 
L 443.261033 508.094314 
L 457.21389 515.717734 
L 471.166747 512.482892 
L 485.119603 500.885982 
L 499.07246 504.238193 
L 513.025316 514.6654 
L 526.978173 500.061119 
L 540.93103 497.503883 
L 554.883886 517.337255 
L 568.836743 514.184848 
L 582.789599 519.153024 
L 596.742456 513.159904 
L 610.695312 510.918605 
L 624.648169 517.026139 
L 638.601026 504.256699 
L 652.553882 512.149524 
L 666.506739 512.601111 
L 680.459595 511.861729 
L 694.412452 527.179148 
L 708.365309 505.974752 
L 722.318165 509.970957 
L 736.271022 518.580453 
L 750.223878 496.248405 
L 764.176735 482.155916 
L 778.129591 497.171435 
L 792.082448 478.171526 
L 806.035305 462.182744 
L 819.988161 461.785908 
L 833.941018 435.954242 
L 847.893874 420.862233 
L 861.846731 401.815384 
L 875.799588 378.059436 
L 889.752444 328.990785 
L 903.705301 250.75289 
L 917.658157 100.88399 
L 931.611014 141.248782 
L 945.56387 33.958708 
L 959.516727 36.159327 
L 973.469584 53.697794 
L 987.42244 32.341865 
L 1001.375297 7.314635 
L 1015.328153 28.835929 
L 1029.28101 50.349077 
L 1029.28101 485.248392 
L 1029.28101 485.248392 
L 1015.328153 477.761888 
L 1001.375297 508.254668 
L 987.42244 529.176785 
L 973.469584 561.823886 
L 959.516727 595.101568 
L 945.56387 602.58879 
L 931.611014 631.605897 
L 917.658157 665.876171 
L 903.705301 702.653999 
L 889.752444 685.393688 
L 875.799588 675.470011 
L 861.846731 679.918495 
L 847.893874 695.663892 
L 833.941018 703.630607 
L 819.988161 712.10353 
L 806.035305 737.308763 
L 792.082448 740.130945 
L 778.129591 760.552142 
L 764.176735 770.721396 
L 750.223878 776.909017 
L 736.271022 753.168171 
L 722.318165 744.177544 
L 708.365309 753.160477 
L 694.412452 745.78495 
L 680.459595 741.197528 
L 666.506739 746.997857 
L 652.553882 751.739734 
L 638.601026 749.349804 
L 624.648169 742.679743 
L 610.695312 745.064613 
L 596.742456 740.88843 
L 582.789599 736.168102 
L 568.836743 729.233891 
L 554.883886 740.835879 
L 540.93103 761.835015 
L 526.978173 745.827012 
L 513.025316 741.265863 
L 499.07246 746.735083 
L 485.119603 732.745155 
L 471.166747 737.143797 
L 457.21389 729.724965 
L 443.261033 721.705223 
L 429.308177 744.628347 
L 415.35532 727.163928 
L 401.402464 733.046617 
L 387.449607 741.77472 
L 373.496751 745.333448 
L 359.543894 737.228325 
L 345.591037 738.156573 
L 331.638181 737.395533 
L 317.685324 727.751532 
L 303.732468 728.593554 
L 289.779611 738.807436 
L 275.826754 733.441559 
L 261.873898 741.145651 
L 247.921041 751.624761 
L 233.968185 738.875816 
L 220.015328 737.761358 
L 206.062472 729.967735 
L 192.109615 737.530972 
z
" style="fill:#696969;fill-opacity:0.05;"/>
   </g>
   <g id="PolyCollection_3">
    <path clip-path="url(#p95930bb200)" d="M 192.109615 731.673264 
L 192.109615 507.273294 
L 206.062472 505.583811 
L 220.015328 493.83641 
L 233.968185 496.134302 
L 247.921041 500.446967 
L 261.873898 500.715297 
L 275.826754 498.963506 
L 289.779611 498.226267 
L 303.732468 498.800914 
L 317.685324 483.83991 
L 331.638181 488.167677 
L 345.591037 496.395848 
L 359.543894 506.665852 
L 373.496751 509.021606 
L 387.449607 496.124585 
L 401.402464 489.409758 
L 415.35532 492.105177 
L 429.308177 500.571089 
L 443.261033 497.117777 
L 457.21389 502.126987 
L 471.166747 497.187372 
L 485.119603 490.842004 
L 499.07246 499.736832 
L 513.025316 499.329869 
L 526.978173 507.964607 
L 540.93103 496.453276 
L 554.883886 505.186713 
L 568.836743 510.686591 
L 582.789599 498.575734 
L 596.742456 496.932381 
L 610.695312 503.046449 
L 624.648169 507.417933 
L 638.601026 492.257051 
L 652.553882 492.779337 
L 666.506739 497.002915 
L 680.459595 501.126678 
L 694.412452 494.558 
L 708.365309 505.362152 
L 722.318165 491.213604 
L 736.271022 504.469958 
L 750.223878 487.824058 
L 764.176735 497.006572 
L 778.129591 477.946281 
L 792.082448 463.662743 
L 806.035305 444.308839 
L 819.988161 430.070285 
L 833.941018 386.668871 
L 847.893874 368.890357 
L 861.846731 360.219981 
L 875.799588 345.461217 
L 889.752444 303.522847 
L 903.705301 255.150978 
L 917.658157 200.130238 
L 931.611014 31.344183 
L 945.56387 33.131751 
L 959.516727 19.157375 
L 973.469584 41.041308 
L 987.42244 31.610367 
L 1001.375297 17.319659 
L 1015.328153 47.265099 
L 1029.28101 22.894528 
L 1029.28101 476.719674 
L 1029.28101 476.719674 
L 1015.328153 484.734552 
L 1001.375297 486.990674 
L 987.42244 489.582931 
L 973.469584 540.018004 
L 959.516727 539.568426 
L 945.56387 618.238381 
L 931.611014 685.547781 
L 917.658157 665.501822 
L 903.705301 670.818021 
L 889.752444 687.716062 
L 875.799588 696.875328 
L 861.846731 693.42297 
L 847.893874 705.27375 
L 833.941018 706.159872 
L 819.988161 711.211029 
L 806.035305 730.171399 
L 792.082448 757.336776 
L 778.129591 755.208139 
L 764.176735 761.263888 
L 750.223878 786.591567 
L 736.271022 749.259622 
L 722.318165 748.543295 
L 708.365309 754.79304 
L 694.412452 762.512807 
L 680.459595 748.691924 
L 666.506739 762.802004 
L 652.553882 754.82631 
L 638.601026 759.418486 
L 624.648169 751.334989 
L 610.695312 739.41227 
L 596.742456 735.551819 
L 582.789599 757.355688 
L 568.836743 748.662748 
L 554.883886 740.164406 
L 540.93103 743.180373 
L 526.978173 737.772676 
L 513.025316 735.528495 
L 499.07246 735.163872 
L 485.119603 740.839788 
L 471.166747 747.524883 
L 457.21389 737.177548 
L 443.261033 745.09184 
L 429.308177 744.269075 
L 415.35532 740.248496 
L 401.402464 745.154761 
L 387.449607 754.239892 
L 373.496751 733.15327 
L 359.543894 743.204624 
L 345.591037 741.67541 
L 331.638181 742.067692 
L 317.685324 755.155983 
L 303.732468 736.970214 
L 289.779611 741.040897 
L 275.826754 732.372849 
L 261.873898 756.776253 
L 247.921041 738.84703 
L 233.968185 736.344004 
L 220.015328 738.593513 
L 206.062472 734.078889 
L 192.109615 731.673264 
z
" style="fill:#cd5c5c;fill-opacity:0.05;"/>
   </g>
   <g id="PolyCollection_4">
    <path clip-path="url(#p95930bb200)" d="M 192.109615 733.557018 
L 192.109615 499.706013 
L 206.062472 503.598725 
L 220.015328 498.822518 
L 233.968185 498.50031 
L 247.921041 502.268626 
L 261.873898 498.81289 
L 275.826754 499.923075 
L 289.779611 499.060842 
L 303.732468 501.403916 
L 317.685324 499.501194 
L 331.638181 503.407891 
L 345.591037 503.116321 
L 359.543894 500.095638 
L 373.496751 496.680114 
L 387.449607 500.647686 
L 401.402464 496.068157 
L 415.35532 500.168333 
L 429.308177 500.137878 
L 443.261033 491.737391 
L 457.21389 497.032793 
L 471.166747 499.13838 
L 485.119603 493.390227 
L 499.07246 496.597608 
L 513.025316 494.075004 
L 526.978173 492.244241 
L 540.93103 490.333177 
L 554.883886 493.272834 
L 568.836743 491.023481 
L 582.789599 494.242854 
L 596.742456 491.979207 
L 610.695312 490.939079 
L 624.648169 488.164534 
L 638.601026 489.482545 
L 652.553882 484.855592 
L 666.506739 487.282406 
L 680.459595 486.856918 
L 694.412452 481.110611 
L 708.365309 480.177241 
L 722.318165 478.251508 
L 736.271022 479.805645 
L 750.223878 470.328224 
L 764.176735 472.583256 
L 778.129591 462.999206 
L 792.082448 452.975881 
L 806.035305 426.780512 
L 819.988161 401.322503 
L 833.941018 379.218964 
L 847.893874 362.793525 
L 861.846731 339.326682 
L 875.799588 309.999645 
L 889.752444 269.73079 
L 903.705301 208.036373 
L 917.658157 156.593492 
L 931.611014 87.137771 
L 945.56387 54.582682 
L 959.516727 9.101501 
L 973.469584 1.92815 
L 987.42244 3.716355 
L 1001.375297 9.738797 
L 1015.328153 9.574584 
L 1029.28101 11.010725 
L 1029.28101 475.928482 
L 1029.28101 475.928482 
L 1015.328153 479.592604 
L 1001.375297 474.141105 
L 987.42244 498.061323 
L 973.469584 507.000891 
L 959.516727 537.201097 
L 945.56387 559.565114 
L 931.611014 612.298087 
L 917.658157 617.933464 
L 903.705301 647.617729 
L 889.752444 659.474082 
L 875.799588 656.128764 
L 861.846731 655.465339 
L 847.893874 671.102138 
L 833.941018 687.858295 
L 819.988161 700.662913 
L 806.035305 709.700528 
L 792.082448 716.812203 
L 778.129591 731.655816 
L 764.176735 734.043268 
L 750.223878 736.457515 
L 736.271022 732.375933 
L 722.318165 735.363496 
L 708.365309 738.257281 
L 694.412452 732.41898 
L 680.459595 735.444449 
L 666.506739 735.619282 
L 652.553882 734.644095 
L 638.601026 735.888199 
L 624.648169 737.741562 
L 610.695312 735.285368 
L 596.742456 733.181219 
L 582.789599 736.696511 
L 568.836743 734.66627 
L 554.883886 733.145881 
L 540.93103 735.673188 
L 526.978173 734.662487 
L 513.025316 731.78204 
L 499.07246 742.625556 
L 485.119603 740.247427 
L 471.166747 733.235406 
L 457.21389 735.710945 
L 443.261033 740.851493 
L 429.308177 733.376892 
L 415.35532 740.171598 
L 401.402464 734.501469 
L 387.449607 736.293197 
L 373.496751 735.06697 
L 359.543894 730.517034 
L 345.591037 732.915607 
L 331.638181 732.332372 
L 317.685324 734.860249 
L 303.732468 734.098619 
L 289.779611 737.4395 
L 275.826754 734.798484 
L 261.873898 733.693241 
L 247.921041 736.61088 
L 233.968185 734.374547 
L 220.015328 737.273143 
L 206.062472 735.706577 
L 192.109615 733.557018 
z
" style="fill:#8b0000;fill-opacity:0.05;"/>
   </g>
   <g id="PolyCollection_5">
    <path clip-path="url(#p95930bb200)" d="M 192.109615 734.637893 
L 192.109615 491.987885 
L 206.062472 493.031886 
L 220.015328 497.086516 
L 233.968185 495.025884 
L 247.921041 494.00146 
L 261.873898 493.196195 
L 275.826754 490.609126 
L 289.779611 494.176583 
L 303.732468 492.532483 
L 317.685324 492.142515 
L 331.638181 493.466408 
L 345.591037 491.187293 
L 359.543894 494.91024 
L 373.496751 491.716196 
L 387.449607 489.982515 
L 401.402464 486.165061 
L 415.35532 485.625566 
L 429.308177 484.504508 
L 443.261033 487.948192 
L 457.21389 487.302983 
L 471.166747 488.701961 
L 485.119603 485.199064 
L 499.07246 483.352842 
L 513.025316 480.916427 
L 526.978173 480.524654 
L 540.93103 476.53614 
L 554.883886 475.545684 
L 568.836743 475.260019 
L 582.789599 478.973481 
L 596.742456 470.663722 
L 610.695312 471.867684 
L 624.648169 469.718972 
L 638.601026 464.315245 
L 652.553882 461.782142 
L 666.506739 460.18356 
L 680.459595 455.505712 
L 694.412452 453.061964 
L 708.365309 449.632988 
L 722.318165 446.963054 
L 736.271022 439.70922 
L 750.223878 427.77733 
L 764.176735 421.333019 
L 778.129591 414.249684 
L 792.082448 395.141949 
L 806.035305 358.347673 
L 819.988161 335.19149 
L 833.941018 313.053952 
L 847.893874 286.818488 
L 861.846731 263.742165 
L 875.799588 246.89503 
L 889.752444 221.174028 
L 903.705301 157.748101 
L 917.658157 94.889744 
L 931.611014 47.504831 
L 945.56387 16.185027 
L 959.516727 -5.443707 
L 973.469584 -14.861634 
L 987.42244 -24.687502 
L 1001.375297 -12.523716 
L 1015.328153 -12.419693 
L 1029.28101 -13.391649 
L 1029.28101 469.091487 
L 1029.28101 469.091487 
L 1015.328153 466.136904 
L 1001.375297 471.308412 
L 987.42244 470.150007 
L 973.469584 511.831657 
L 959.516727 530.671137 
L 945.56387 539.395687 
L 931.611014 567.231466 
L 917.658157 585.475889 
L 903.705301 611.94328 
L 889.752444 626.924907 
L 875.799588 637.952648 
L 861.846731 632.542725 
L 847.893874 649.188324 
L 833.941018 661.00199 
L 819.988161 682.50845 
L 806.035305 708.604062 
L 792.082448 706.47661 
L 778.129591 704.590711 
L 764.176735 714.339127 
L 750.223878 715.001158 
L 736.271022 712.845477 
L 722.318165 712.544861 
L 708.365309 715.613944 
L 694.412452 719.359003 
L 680.459595 717.420176 
L 666.506739 719.940768 
L 652.553882 721.719516 
L 638.601026 718.7313 
L 624.648169 724.36272 
L 610.695312 721.67884 
L 596.742456 728.269998 
L 582.789599 724.626707 
L 568.836743 721.781185 
L 554.883886 731.950159 
L 540.93103 732.520501 
L 526.978173 732.726069 
L 513.025316 728.885143 
L 499.07246 734.152679 
L 485.119603 733.670866 
L 471.166747 730.633753 
L 457.21389 733.588291 
L 443.261033 732.339411 
L 429.308177 733.671122 
L 415.35532 733.991535 
L 401.402464 739.248115 
L 387.449607 735.157829 
L 373.496751 730.933806 
L 359.543894 731.124387 
L 345.591037 732.735306 
L 331.638181 733.580145 
L 317.685324 734.852926 
L 303.732468 735.063421 
L 289.779611 736.182229 
L 275.826754 732.783463 
L 261.873898 736.404963 
L 247.921041 734.933524 
L 233.968185 735.683198 
L 220.015328 733.824836 
L 206.062472 736.220735 
L 192.109615 734.637893 
z
" style="fill:#ff0000;fill-opacity:0.05;"/>
   </g>
   <g id="patch_3">
    <path clip-path="url(#p95930bb200)" d="M 192.109615 945.023197 
L 192.109615 6.50024 
L 610.695312 6.50024 
L 610.695312 945.023197 
z
" style="fill:#ff0000;opacity:0.2;stroke:#ff0000;stroke-linejoin:miter;"/>
   </g>
   <g id="patch_4">
    <path clip-path="url(#p95930bb200)" d="M 610.695312 945.023197 
L 610.695312 6.50024 
L 1043.233867 6.50024 
L 1043.233867 945.023197 
z
" style="opacity:0.15;stroke:#000000;stroke-linejoin:miter;"/>
   </g>
   <g id="matplotlib.axis_1">
    <g id="xtick_1">
     <g id="line2d_1">
      <defs>
       <path d="M 0 0 
L 0 3.5 
" id="mfd7d10313c" style="stroke:#000000;stroke-width:0.8;"/>
      </defs>
      <g>
       <use style="stroke:#000000;stroke-width:0.8;" x="192.109615" xlink:href="#mfd7d10313c" y="945.023197"/>
      </g>
     </g>
     <g id="text_1">
      <!-- -300 -->
      <defs>
       <path d="M 4.890625 31.390625 
L 31.203125 31.390625 
L 31.203125 23.390625 
L 4.890625 23.390625 
z
" id="DejaVuSans-45"/>
       <path d="M 40.578125 39.3125 
Q 47.65625 37.796875 51.625 33 
Q 55.609375 28.21875 55.609375 21.1875 
Q 55.609375 10.40625 48.1875 4.484375 
Q 40.765625 -1.421875 27.09375 -1.421875 
Q 22.515625 -1.421875 17.65625 -0.515625 
Q 12.796875 0.390625 7.625 2.203125 
L 7.625 11.71875 
Q 11.71875 9.328125 16.59375 8.109375 
Q 21.484375 6.890625 26.8125 6.890625 
Q 36.078125 6.890625 40.9375 10.546875 
Q 45.796875 14.203125 45.796875 21.1875 
Q 45.796875 27.640625 41.28125 31.265625 
Q 36.765625 34.90625 28.71875 34.90625 
L 20.21875 34.90625 
L 20.21875 43.015625 
L 29.109375 43.015625 
Q 36.375 43.015625 40.234375 45.921875 
Q 44.09375 48.828125 44.09375 54.296875 
Q 44.09375 59.90625 40.109375 62.90625 
Q 36.140625 65.921875 28.71875 65.921875 
Q 24.65625 65.921875 20.015625 65.03125 
Q 15.375 64.15625 9.8125 62.3125 
L 9.8125 71.09375 
Q 15.4375 72.65625 20.34375 73.4375 
Q 25.25 74.21875 29.59375 74.21875 
Q 40.828125 74.21875 47.359375 69.109375 
Q 53.90625 64.015625 53.90625 55.328125 
Q 53.90625 49.265625 50.4375 45.09375 
Q 46.96875 40.921875 40.578125 39.3125 
z
" id="DejaVuSans-51"/>
       <path d="M 31.78125 66.40625 
Q 24.171875 66.40625 20.328125 58.90625 
Q 16.5 51.421875 16.5 36.375 
Q 16.5 21.390625 20.328125 13.890625 
Q 24.171875 6.390625 31.78125 6.390625 
Q 39.453125 6.390625 43.28125 13.890625 
Q 47.125 21.390625 47.125 36.375 
Q 47.125 51.421875 43.28125 58.90625 
Q 39.453125 66.40625 31.78125 66.40625 
z
M 31.78125 74.21875 
Q 44.046875 74.21875 50.515625 64.515625 
Q 56.984375 54.828125 56.984375 36.375 
Q 56.984375 17.96875 50.515625 8.265625 
Q 44.046875 -1.421875 31.78125 -1.421875 
Q 19.53125 -1.421875 13.0625 8.265625 
Q 6.59375 17.96875 6.59375 36.375 
Q 6.59375 54.828125 13.0625 64.515625 
Q 19.53125 74.21875 31.78125 74.21875 
z
" id="DejaVuSans-48"/>
      </defs>
      <g transform="translate(135.371334 990.015385)scale(0.5 -0.5)">
       <use xlink:href="#DejaVuSans-45"/>
       <use x="36.083984" xlink:href="#DejaVuSans-51"/>
       <use x="99.707031" xlink:href="#DejaVuSans-48"/>
       <use x="163.330078" xlink:href="#DejaVuSans-48"/>
      </g>
     </g>
    </g>
    <g id="xtick_2">
     <g id="line2d_2">
      <g>
       <use style="stroke:#000000;stroke-width:0.8;" x="331.638181" xlink:href="#mfd7d10313c" y="945.023197"/>
      </g>
     </g>
     <g id="text_2">
      <!-- -200 -->
      <defs>
       <path d="M 19.1875 8.296875 
L 53.609375 8.296875 
L 53.609375 0 
L 7.328125 0 
L 7.328125 8.296875 
Q 12.9375 14.109375 22.625 23.890625 
Q 32.328125 33.6875 34.8125 36.53125 
Q 39.546875 41.84375 41.421875 45.53125 
Q 43.3125 49.21875 43.3125 52.78125 
Q 43.3125 58.59375 39.234375 62.25 
Q 35.15625 65.921875 28.609375 65.921875 
Q 23.96875 65.921875 18.8125 64.3125 
Q 13.671875 62.703125 7.8125 59.421875 
L 7.8125 69.390625 
Q 13.765625 71.78125 18.9375 73 
Q 24.125 74.21875 28.421875 74.21875 
Q 39.75 74.21875 46.484375 68.546875 
Q 53.21875 62.890625 53.21875 53.421875 
Q 53.21875 48.921875 51.53125 44.890625 
Q 49.859375 40.875 45.40625 35.40625 
Q 44.1875 33.984375 37.640625 27.21875 
Q 31.109375 20.453125 19.1875 8.296875 
z
" id="DejaVuSans-50"/>
      </defs>
      <g transform="translate(274.8999 990.015385)scale(0.5 -0.5)">
       <use xlink:href="#DejaVuSans-45"/>
       <use x="36.083984" xlink:href="#DejaVuSans-50"/>
       <use x="99.707031" xlink:href="#DejaVuSans-48"/>
       <use x="163.330078" xlink:href="#DejaVuSans-48"/>
      </g>
     </g>
    </g>
    <g id="xtick_3">
     <g id="line2d_3">
      <g>
       <use style="stroke:#000000;stroke-width:0.8;" x="471.166747" xlink:href="#mfd7d10313c" y="945.023197"/>
      </g>
     </g>
     <g id="text_3">
      <!-- -100 -->
      <defs>
       <path d="M 12.40625 8.296875 
L 28.515625 8.296875 
L 28.515625 63.921875 
L 10.984375 60.40625 
L 10.984375 69.390625 
L 28.421875 72.90625 
L 38.28125 72.90625 
L 38.28125 8.296875 
L 54.390625 8.296875 
L 54.390625 0 
L 12.40625 0 
z
" id="DejaVuSans-49"/>
      </defs>
      <g transform="translate(414.428465 990.015385)scale(0.5 -0.5)">
       <use xlink:href="#DejaVuSans-45"/>
       <use x="36.083984" xlink:href="#DejaVuSans-49"/>
       <use x="99.707031" xlink:href="#DejaVuSans-48"/>
       <use x="163.330078" xlink:href="#DejaVuSans-48"/>
      </g>
     </g>
    </g>
    <g id="xtick_4">
     <g id="line2d_4">
      <g>
       <use style="stroke:#000000;stroke-width:0.8;" x="610.695312" xlink:href="#mfd7d10313c" y="945.023197"/>
      </g>
     </g>
     <g id="text_4">
      <!-- 0 -->
      <g transform="translate(594.789062 990.015385)scale(0.5 -0.5)">
       <use xlink:href="#DejaVuSans-48"/>
      </g>
     </g>
    </g>
    <g id="xtick_5">
     <g id="line2d_5">
      <g>
       <use style="stroke:#000000;stroke-width:0.8;" x="750.223878" xlink:href="#mfd7d10313c" y="945.023197"/>
      </g>
     </g>
     <g id="text_5">
      <!-- 100 -->
      <g transform="translate(702.505128 990.015385)scale(0.5 -0.5)">
       <use xlink:href="#DejaVuSans-49"/>
       <use x="63.623047" xlink:href="#DejaVuSans-48"/>
       <use x="127.246094" xlink:href="#DejaVuSans-48"/>
      </g>
     </g>
    </g>
    <g id="xtick_6">
     <g id="line2d_6">
      <g>
       <use style="stroke:#000000;stroke-width:0.8;" x="889.752444" xlink:href="#mfd7d10313c" y="945.023197"/>
      </g>
     </g>
     <g id="text_6">
      <!-- 200 -->
      <g transform="translate(842.033694 990.015385)scale(0.5 -0.5)">
       <use xlink:href="#DejaVuSans-50"/>
       <use x="63.623047" xlink:href="#DejaVuSans-48"/>
       <use x="127.246094" xlink:href="#DejaVuSans-48"/>
      </g>
     </g>
    </g>
    <g id="xtick_7">
     <g id="line2d_7">
      <g>
       <use style="stroke:#000000;stroke-width:0.8;" x="1029.28101" xlink:href="#mfd7d10313c" y="945.023197"/>
      </g>
     </g>
     <g id="text_7">
      <!-- 300 -->
      <g transform="translate(981.56226 990.015385)scale(0.5 -0.5)">
       <use xlink:href="#DejaVuSans-51"/>
       <use x="63.623047" xlink:href="#DejaVuSans-48"/>
       <use x="127.246094" xlink:href="#DejaVuSans-48"/>
      </g>
     </g>
    </g>
    <g id="text_8">
     <!-- Time (ms) -->
     <defs>
      <path d="M -0.296875 72.90625 
L 61.375 72.90625 
L 61.375 64.59375 
L 35.5 64.59375 
L 35.5 0 
L 25.59375 0 
L 25.59375 64.59375 
L -0.296875 64.59375 
z
" id="DejaVuSans-84"/>
      <path d="M 9.421875 54.6875 
L 18.40625 54.6875 
L 18.40625 0 
L 9.421875 0 
z
M 9.421875 75.984375 
L 18.40625 75.984375 
L 18.40625 64.59375 
L 9.421875 64.59375 
z
" id="DejaVuSans-105"/>
      <path d="M 52 44.1875 
Q 55.375 50.25 60.0625 53.125 
Q 64.75 56 71.09375 56 
Q 79.640625 56 84.28125 50.015625 
Q 88.921875 44.046875 88.921875 33.015625 
L 88.921875 0 
L 79.890625 0 
L 79.890625 32.71875 
Q 79.890625 40.578125 77.09375 44.375 
Q 74.3125 48.1875 68.609375 48.1875 
Q 61.625 48.1875 57.5625 43.546875 
Q 53.515625 38.921875 53.515625 30.90625 
L 53.515625 0 
L 44.484375 0 
L 44.484375 32.71875 
Q 44.484375 40.625 41.703125 44.40625 
Q 38.921875 48.1875 33.109375 48.1875 
Q 26.21875 48.1875 22.15625 43.53125 
Q 18.109375 38.875 18.109375 30.90625 
L 18.109375 0 
L 9.078125 0 
L 9.078125 54.6875 
L 18.109375 54.6875 
L 18.109375 46.1875 
Q 21.1875 51.21875 25.484375 53.609375 
Q 29.78125 56 35.6875 56 
Q 41.65625 56 45.828125 52.96875 
Q 50 49.953125 52 44.1875 
z
" id="DejaVuSans-109"/>
      <path d="M 56.203125 29.59375 
L 56.203125 25.203125 
L 14.890625 25.203125 
Q 15.484375 15.921875 20.484375 11.0625 
Q 25.484375 6.203125 34.421875 6.203125 
Q 39.59375 6.203125 44.453125 7.46875 
Q 49.3125 8.734375 54.109375 11.28125 
L 54.109375 2.78125 
Q 49.265625 0.734375 44.1875 -0.34375 
Q 39.109375 -1.421875 33.890625 -1.421875 
Q 20.796875 -1.421875 13.15625 6.1875 
Q 5.515625 13.8125 5.515625 26.8125 
Q 5.515625 40.234375 12.765625 48.109375 
Q 20.015625 56 32.328125 56 
Q 43.359375 56 49.78125 48.890625 
Q 56.203125 41.796875 56.203125 29.59375 
z
M 47.21875 32.234375 
Q 47.125 39.59375 43.09375 43.984375 
Q 39.0625 48.390625 32.421875 48.390625 
Q 24.90625 48.390625 20.390625 44.140625 
Q 15.875 39.890625 15.1875 32.171875 
z
" id="DejaVuSans-101"/>
      <path id="DejaVuSans-32"/>
      <path d="M 31 75.875 
Q 24.46875 64.65625 21.28125 53.65625 
Q 18.109375 42.671875 18.109375 31.390625 
Q 18.109375 20.125 21.3125 9.0625 
Q 24.515625 -2 31 -13.1875 
L 23.1875 -13.1875 
Q 15.875 -1.703125 12.234375 9.375 
Q 8.59375 20.453125 8.59375 31.390625 
Q 8.59375 42.28125 12.203125 53.3125 
Q 15.828125 64.359375 23.1875 75.875 
z
" id="DejaVuSans-40"/>
      <path d="M 44.28125 53.078125 
L 44.28125 44.578125 
Q 40.484375 46.53125 36.375 47.5 
Q 32.28125 48.484375 27.875 48.484375 
Q 21.1875 48.484375 17.84375 46.4375 
Q 14.5 44.390625 14.5 40.28125 
Q 14.5 37.15625 16.890625 35.375 
Q 19.28125 33.59375 26.515625 31.984375 
L 29.59375 31.296875 
Q 39.15625 29.25 43.1875 25.515625 
Q 47.21875 21.78125 47.21875 15.09375 
Q 47.21875 7.46875 41.1875 3.015625 
Q 35.15625 -1.421875 24.609375 -1.421875 
Q 20.21875 -1.421875 15.453125 -0.5625 
Q 10.6875 0.296875 5.421875 2 
L 5.421875 11.28125 
Q 10.40625 8.6875 15.234375 7.390625 
Q 20.0625 6.109375 24.8125 6.109375 
Q 31.15625 6.109375 34.5625 8.28125 
Q 37.984375 10.453125 37.984375 14.40625 
Q 37.984375 18.0625 35.515625 20.015625 
Q 33.0625 21.96875 24.703125 23.78125 
L 21.578125 24.515625 
Q 13.234375 26.265625 9.515625 29.90625 
Q 5.8125 33.546875 5.8125 39.890625 
Q 5.8125 47.609375 11.28125 51.796875 
Q 16.75 56 26.8125 56 
Q 31.78125 56 36.171875 55.265625 
Q 40.578125 54.546875 44.28125 53.078125 
z
" id="DejaVuSans-115"/>
      <path d="M 8.015625 75.875 
L 15.828125 75.875 
Q 23.140625 64.359375 26.78125 53.3125 
Q 30.421875 42.28125 30.421875 31.390625 
Q 30.421875 20.453125 26.78125 9.375 
Q 23.140625 -1.703125 15.828125 -13.1875 
L 8.015625 -13.1875 
Q 14.5 -2 17.703125 9.0625 
Q 20.90625 20.125 20.90625 31.390625 
Q 20.90625 42.671875 17.703125 53.65625 
Q 14.5 64.65625 8.015625 75.875 
z
" id="DejaVuSans-41"/>
     </defs>
     <g transform="translate(420.546875 1061.402104)scale(0.75 -0.75)">
      <use xlink:href="#DejaVuSans-84"/>
      <use x="61.037109" xlink:href="#DejaVuSans-105"/>
      <use x="88.820312" xlink:href="#DejaVuSans-109"/>
      <use x="186.232422" xlink:href="#DejaVuSans-101"/>
      <use x="247.755859" xlink:href="#DejaVuSans-32"/>
      <use x="279.542969" xlink:href="#DejaVuSans-40"/>
      <use x="318.556641" xlink:href="#DejaVuSans-109"/>
      <use x="415.96875" xlink:href="#DejaVuSans-115"/>
      <use x="468.068359" xlink:href="#DejaVuSans-41"/>
     </g>
    </g>
   </g>
   <g id="matplotlib.axis_2">
    <g id="ytick_1">
     <g id="line2d_8">
      <defs>
       <path d="M 0 0 
L -3.5 0 
" id="m39b8d6c812" style="stroke:#000000;stroke-width:0.8;"/>
      </defs>
      <g>
       <use style="stroke:#000000;stroke-width:0.8;" x="192.109615" xlink:href="#m39b8d6c812" y="908.127946"/>
      </g>
     </g>
     <g id="text_9">
      <!-- −10 -->
      <defs>
       <path d="M 10.59375 35.5 
L 73.1875 35.5 
L 73.1875 27.203125 
L 10.59375 27.203125 
z
" id="DejaVuSans-8722"/>
      </defs>
      <g transform="translate(79.586178 927.12404)scale(0.5 -0.5)">
       <use xlink:href="#DejaVuSans-8722"/>
       <use x="83.789062" xlink:href="#DejaVuSans-49"/>
       <use x="147.412109" xlink:href="#DejaVuSans-48"/>
      </g>
     </g>
    </g>
    <g id="ytick_2">
     <g id="line2d_9">
      <g>
       <use style="stroke:#000000;stroke-width:0.8;" x="192.109615" xlink:href="#m39b8d6c812" y="764.00587"/>
      </g>
     </g>
     <g id="text_10">
      <!-- −5 -->
      <defs>
       <path d="M 10.796875 72.90625 
L 49.515625 72.90625 
L 49.515625 64.59375 
L 19.828125 64.59375 
L 19.828125 46.734375 
Q 21.96875 47.46875 24.109375 47.828125 
Q 26.265625 48.1875 28.421875 48.1875 
Q 40.625 48.1875 47.75 41.5 
Q 54.890625 34.8125 54.890625 23.390625 
Q 54.890625 11.625 47.5625 5.09375 
Q 40.234375 -1.421875 26.90625 -1.421875 
Q 22.3125 -1.421875 17.546875 -0.640625 
Q 12.796875 0.140625 7.71875 1.703125 
L 7.71875 11.625 
Q 12.109375 9.234375 16.796875 8.0625 
Q 21.484375 6.890625 26.703125 6.890625 
Q 35.15625 6.890625 40.078125 11.328125 
Q 45.015625 15.765625 45.015625 23.390625 
Q 45.015625 31 40.078125 35.4375 
Q 35.15625 39.890625 26.703125 39.890625 
Q 22.75 39.890625 18.8125 39.015625 
Q 14.890625 38.140625 10.796875 36.28125 
z
" id="DejaVuSans-53"/>
      </defs>
      <g transform="translate(111.398678 783.001964)scale(0.5 -0.5)">
       <use xlink:href="#DejaVuSans-8722"/>
       <use x="83.789062" xlink:href="#DejaVuSans-53"/>
      </g>
     </g>
    </g>
    <g id="ytick_3">
     <g id="line2d_10">
      <g>
       <use style="stroke:#000000;stroke-width:0.8;" x="192.109615" xlink:href="#m39b8d6c812" y="619.883795"/>
      </g>
     </g>
     <g id="text_11">
      <!-- 0 -->
      <g transform="translate(153.297115 638.879888)scale(0.5 -0.5)">
       <use xlink:href="#DejaVuSans-48"/>
      </g>
     </g>
    </g>
    <g id="ytick_4">
     <g id="line2d_11">
      <g>
       <use style="stroke:#000000;stroke-width:0.8;" x="192.109615" xlink:href="#m39b8d6c812" y="475.761719"/>
      </g>
     </g>
     <g id="text_12">
      <!-- 5 -->
      <g transform="translate(153.297115 494.757812)scale(0.5 -0.5)">
       <use xlink:href="#DejaVuSans-53"/>
      </g>
     </g>
    </g>
    <g id="ytick_5">
     <g id="line2d_12">
      <g>
       <use style="stroke:#000000;stroke-width:0.8;" x="192.109615" xlink:href="#m39b8d6c812" y="331.639643"/>
      </g>
     </g>
     <g id="text_13">
      <!-- 10 -->
      <g transform="translate(121.484615 350.635737)scale(0.5 -0.5)">
       <use xlink:href="#DejaVuSans-49"/>
       <use x="63.623047" xlink:href="#DejaVuSans-48"/>
      </g>
     </g>
    </g>
    <g id="ytick_6">
     <g id="line2d_13">
      <g>
       <use style="stroke:#000000;stroke-width:0.8;" x="192.109615" xlink:href="#m39b8d6c812" y="187.517567"/>
      </g>
     </g>
     <g id="text_14">
      <!-- 15 -->
      <g transform="translate(121.484615 206.513661)scale(0.5 -0.5)">
       <use xlink:href="#DejaVuSans-49"/>
       <use x="63.623047" xlink:href="#DejaVuSans-53"/>
      </g>
     </g>
    </g>
    <g id="ytick_7">
     <g id="line2d_14">
      <g>
       <use style="stroke:#000000;stroke-width:0.8;" x="192.109615" xlink:href="#m39b8d6c812" y="43.395491"/>
      </g>
     </g>
     <g id="text_15">
      <!-- 20 -->
      <g transform="translate(121.484615 62.391585)scale(0.5 -0.5)">
       <use xlink:href="#DejaVuSans-50"/>
       <use x="63.623047" xlink:href="#DejaVuSans-48"/>
      </g>
     </g>
    </g>
    <g id="text_16">
     <!-- Velocity (°/s) -->
     <defs>
      <path d="M 28.609375 0 
L 0.78125 72.90625 
L 11.078125 72.90625 
L 34.1875 11.53125 
L 57.328125 72.90625 
L 67.578125 72.90625 
L 39.796875 0 
z
" id="DejaVuSans-86"/>
      <path d="M 9.421875 75.984375 
L 18.40625 75.984375 
L 18.40625 0 
L 9.421875 0 
z
" id="DejaVuSans-108"/>
      <path d="M 30.609375 48.390625 
Q 23.390625 48.390625 19.1875 42.75 
Q 14.984375 37.109375 14.984375 27.296875 
Q 14.984375 17.484375 19.15625 11.84375 
Q 23.34375 6.203125 30.609375 6.203125 
Q 37.796875 6.203125 41.984375 11.859375 
Q 46.1875 17.53125 46.1875 27.296875 
Q 46.1875 37.015625 41.984375 42.703125 
Q 37.796875 48.390625 30.609375 48.390625 
z
M 30.609375 56 
Q 42.328125 56 49.015625 48.375 
Q 55.71875 40.765625 55.71875 27.296875 
Q 55.71875 13.875 49.015625 6.21875 
Q 42.328125 -1.421875 30.609375 -1.421875 
Q 18.84375 -1.421875 12.171875 6.21875 
Q 5.515625 13.875 5.515625 27.296875 
Q 5.515625 40.765625 12.171875 48.375 
Q 18.84375 56 30.609375 56 
z
" id="DejaVuSans-111"/>
      <path d="M 48.78125 52.59375 
L 48.78125 44.1875 
Q 44.96875 46.296875 41.140625 47.34375 
Q 37.3125 48.390625 33.40625 48.390625 
Q 24.65625 48.390625 19.8125 42.84375 
Q 14.984375 37.3125 14.984375 27.296875 
Q 14.984375 17.28125 19.8125 11.734375 
Q 24.65625 6.203125 33.40625 6.203125 
Q 37.3125 6.203125 41.140625 7.25 
Q 44.96875 8.296875 48.78125 10.40625 
L 48.78125 2.09375 
Q 45.015625 0.34375 40.984375 -0.53125 
Q 36.96875 -1.421875 32.421875 -1.421875 
Q 20.0625 -1.421875 12.78125 6.34375 
Q 5.515625 14.109375 5.515625 27.296875 
Q 5.515625 40.671875 12.859375 48.328125 
Q 20.21875 56 33.015625 56 
Q 37.15625 56 41.109375 55.140625 
Q 45.0625 54.296875 48.78125 52.59375 
z
" id="DejaVuSans-99"/>
      <path d="M 18.3125 70.21875 
L 18.3125 54.6875 
L 36.8125 54.6875 
L 36.8125 47.703125 
L 18.3125 47.703125 
L 18.3125 18.015625 
Q 18.3125 11.328125 20.140625 9.421875 
Q 21.96875 7.515625 27.59375 7.515625 
L 36.8125 7.515625 
L 36.8125 0 
L 27.59375 0 
Q 17.1875 0 13.234375 3.875 
Q 9.28125 7.765625 9.28125 18.015625 
L 9.28125 47.703125 
L 2.6875 47.703125 
L 2.6875 54.6875 
L 9.28125 54.6875 
L 9.28125 70.21875 
z
" id="DejaVuSans-116"/>
      <path d="M 32.171875 -5.078125 
Q 28.375 -14.84375 24.75 -17.8125 
Q 21.140625 -20.796875 15.09375 -20.796875 
L 7.90625 -20.796875 
L 7.90625 -13.28125 
L 13.1875 -13.28125 
Q 16.890625 -13.28125 18.9375 -11.515625 
Q 21 -9.765625 23.484375 -3.21875 
L 25.09375 0.875 
L 2.984375 54.6875 
L 12.5 54.6875 
L 29.59375 11.921875 
L 46.6875 54.6875 
L 56.203125 54.6875 
z
" id="DejaVuSans-121"/>
      <path d="M 25 67.921875 
Q 21.09375 67.921875 18.40625 65.203125 
Q 15.71875 62.5 15.71875 58.59375 
Q 15.71875 54.734375 18.40625 52.078125 
Q 21.09375 49.421875 25 49.421875 
Q 28.90625 49.421875 31.59375 52.078125 
Q 34.28125 54.734375 34.28125 58.59375 
Q 34.28125 62.453125 31.5625 65.1875 
Q 28.859375 67.921875 25 67.921875 
z
M 25 74.21875 
Q 28.125 74.21875 31 73.015625 
Q 33.890625 71.828125 35.984375 69.578125 
Q 38.234375 67.390625 39.359375 64.59375 
Q 40.484375 61.8125 40.484375 58.59375 
Q 40.484375 52.15625 35.96875 47.6875 
Q 31.453125 43.21875 24.90625 43.21875 
Q 18.3125 43.21875 13.90625 47.609375 
Q 9.515625 52 9.515625 58.59375 
Q 9.515625 65.140625 14 69.671875 
Q 18.5 74.21875 25 74.21875 
z
" id="DejaVuSans-176"/>
      <path d="M 25.390625 72.90625 
L 33.6875 72.90625 
L 8.296875 -9.28125 
L 0 -9.28125 
z
" id="DejaVuSans-47"/>
     </defs>
     <g transform="translate(59.988521 717.841797)rotate(-90)scale(0.75 -0.75)">
      <use xlink:href="#DejaVuSans-86"/>
      <use x="68.298828" xlink:href="#DejaVuSans-101"/>
      <use x="129.822266" xlink:href="#DejaVuSans-108"/>
      <use x="157.605469" xlink:href="#DejaVuSans-111"/>
      <use x="218.787109" xlink:href="#DejaVuSans-99"/>
      <use x="273.767578" xlink:href="#DejaVuSans-105"/>
      <use x="301.550781" xlink:href="#DejaVuSans-116"/>
      <use x="340.759766" xlink:href="#DejaVuSans-121"/>
      <use x="399.939453" xlink:href="#DejaVuSans-32"/>
      <use x="431.726562" xlink:href="#DejaVuSans-40"/>
      <use x="470.740234" xlink:href="#DejaVuSans-176"/>
      <use x="520.740234" xlink:href="#DejaVuSans-47"/>
      <use x="554.431641" xlink:href="#DejaVuSans-115"/>
      <use x="606.53125" xlink:href="#DejaVuSans-41"/>
     </g>
    </g>
   </g>
   <g id="line2d_15">
    <path clip-path="url(#p95930bb200)" d="M 192.109615 619.883795 
L 1081 619.883795 
L 1081 619.883795 
" style="fill:none;stroke:#000000;stroke-linecap:square;stroke-opacity:0.6;stroke-width:1.5;"/>
   </g>
   <g id="line2d_16">
    <path clip-path="url(#p95930bb200)" d="M 192.109615 617.682439 
L 206.062472 614.091599 
L 220.015328 619.143954 
L 233.968185 620.002954 
L 247.921041 619.910824 
L 261.873898 620.738253 
L 275.826754 627.141823 
L 289.779611 625.19993 
L 303.732468 620.931388 
L 317.685324 623.865014 
L 331.638181 629.652782 
L 345.591037 621.616064 
L 359.543894 621.922433 
L 373.496751 630.567562 
L 387.449607 631.491119 
L 401.402464 623.092504 
L 415.35532 629.763708 
L 429.308177 629.202901 
L 443.261033 622.007824 
L 457.21389 631.484331 
L 471.166747 632.456277 
L 485.119603 633.120823 
L 499.07246 629.808507 
L 513.025316 625.190509 
L 526.978173 638.051105 
L 540.93103 626.823877 
L 554.883886 626.921564 
L 568.836743 630.74393 
L 582.789599 634.246825 
L 596.742456 638.457103 
L 610.695312 638.618886 
L 624.648169 639.776771 
L 638.601026 642.922672 
L 652.553882 643.373897 
L 666.506739 638.644388 
L 680.459595 644.891596 
L 694.412452 640.701513 
L 708.365309 646.786858 
L 722.318165 648.538054 
L 736.271022 656.208054 
L 750.223878 647.371318 
L 764.176735 643.193359 
L 778.129591 641.581847 
L 792.082448 629.514583 
L 806.035305 618.916872 
L 819.988161 611.268613 
L 833.941018 588.274007 
L 847.893874 575.887398 
L 861.846731 558.641769 
L 875.799588 553.62931 
L 889.752444 544.191574 
L 903.705301 512.677332 
L 917.658157 468.674742 
L 931.611014 409.707256 
L 945.56387 359.857463 
L 959.516727 333.243155 
L 973.469584 297.201584 
L 987.42244 294.684097 
L 1001.375297 305.030051 
L 1015.328153 286.756339 
L 1029.28101 265.79736 
" style="fill:none;stroke:#000000;stroke-linecap:square;stroke-width:3;"/>
   </g>
   <g id="line2d_17">
    <path clip-path="url(#p95930bb200)" d="M 192.109615 619.616229 
L 206.062472 613.373026 
L 220.015328 622.490788 
L 233.968185 619.55883 
L 247.921041 629.973962 
L 261.873898 620.966546 
L 275.826754 620.072181 
L 289.779611 617.915927 
L 303.732468 614.62274 
L 317.685324 618.716634 
L 331.638181 623.139849 
L 345.591037 620.255886 
L 359.543894 624.050481 
L 373.496751 631.210747 
L 387.449607 625.19927 
L 401.402464 624.144245 
L 415.35532 615.647851 
L 429.308177 628.597386 
L 443.261033 614.899768 
L 457.21389 622.72135 
L 471.166747 624.813344 
L 485.119603 616.815568 
L 499.07246 625.486638 
L 513.025316 627.965632 
L 526.978173 622.944065 
L 540.93103 629.669449 
L 554.883886 629.086567 
L 568.836743 621.709369 
L 582.789599 627.660563 
L 596.742456 627.024167 
L 610.695312 627.991609 
L 624.648169 629.852941 
L 638.601026 626.803251 
L 652.553882 631.944629 
L 666.506739 629.799484 
L 680.459595 626.529629 
L 694.412452 636.482049 
L 708.365309 629.567614 
L 722.318165 627.07425 
L 736.271022 635.874312 
L 750.223878 636.578711 
L 764.176735 626.438656 
L 778.129591 628.861789 
L 792.082448 609.151235 
L 806.035305 599.745753 
L 819.988161 586.944719 
L 833.941018 569.792424 
L 847.893874 558.263063 
L 861.846731 540.866939 
L 875.799588 526.764723 
L 889.752444 507.192236 
L 903.705301 476.703445 
L 917.658157 383.380081 
L 931.611014 386.42734 
L 945.56387 318.273749 
L 959.516727 315.630447 
L 973.469584 307.76084 
L 987.42244 280.759325 
L 1001.375297 257.784652 
L 1015.328153 253.298908 
L 1029.28101 267.798735 
" style="fill:none;stroke:#696969;stroke-linecap:square;stroke-width:3;"/>
   </g>
   <g id="line2d_18">
    <path clip-path="url(#p95930bb200)" d="M 192.109615 619.473279 
L 206.062472 619.83135 
L 220.015328 616.214961 
L 233.968185 616.239153 
L 247.921041 619.646999 
L 261.873898 628.745775 
L 275.826754 615.668177 
L 289.779611 619.633582 
L 303.732468 617.885564 
L 317.685324 619.497946 
L 331.638181 615.117684 
L 345.591037 619.035629 
L 359.543894 624.935238 
L 373.496751 621.087438 
L 387.449607 625.182239 
L 401.402464 617.28226 
L 415.35532 616.176837 
L 429.308177 622.420082 
L 443.261033 621.104808 
L 457.21389 619.652267 
L 471.166747 622.356127 
L 485.119603 615.840896 
L 499.07246 617.450352 
L 513.025316 617.429182 
L 526.978173 622.868642 
L 540.93103 619.816825 
L 554.883886 622.67556 
L 568.836743 629.67467 
L 582.789599 627.965711 
L 596.742456 616.2421 
L 610.695312 621.229359 
L 624.648169 629.376461 
L 638.601026 625.837768 
L 652.553882 623.802823 
L 666.506739 629.90246 
L 680.459595 624.909301 
L 694.412452 628.535403 
L 708.365309 630.077596 
L 722.318165 619.878449 
L 736.271022 626.86479 
L 750.223878 637.207812 
L 764.176735 629.13523 
L 778.129591 616.57721 
L 792.082448 610.499759 
L 806.035305 587.240119 
L 819.988161 570.640657 
L 833.941018 546.414371 
L 847.893874 537.082053 
L 861.846731 526.821475 
L 875.799588 521.168272 
L 889.752444 495.619454 
L 903.705301 462.9845 
L 917.658157 432.81603 
L 931.611014 358.445982 
L 945.56387 325.685066 
L 959.516727 279.3629 
L 973.469584 290.529656 
L 987.42244 260.596649 
L 1001.375297 252.155166 
L 1015.328153 265.999826 
L 1029.28101 249.807101 
" style="fill:none;stroke:#cd5c5c;stroke-linecap:square;stroke-width:3;"/>
   </g>
   <g id="line2d_19">
    <path clip-path="url(#p95930bb200)" d="M 192.109615 616.631515 
L 206.062472 619.652651 
L 220.015328 618.04783 
L 233.968185 616.437429 
L 247.921041 619.439753 
L 261.873898 616.253065 
L 275.826754 617.36078 
L 289.779611 618.250171 
L 303.732468 617.751268 
L 317.685324 617.180721 
L 331.638181 617.870132 
L 345.591037 618.015964 
L 359.543894 615.306336 
L 373.496751 615.873542 
L 387.449607 618.470441 
L 401.402464 615.284813 
L 415.35532 620.169965 
L 429.308177 616.757385 
L 443.261033 616.294442 
L 457.21389 616.371869 
L 471.166747 616.186893 
L 485.119603 616.818827 
L 499.07246 619.611582 
L 513.025316 612.928522 
L 526.978173 613.453364 
L 540.93103 613.003183 
L 554.883886 613.209357 
L 568.836743 612.844876 
L 582.789599 615.469683 
L 596.742456 612.580213 
L 610.695312 613.112223 
L 624.648169 612.953048 
L 638.601026 612.685372 
L 652.553882 609.749844 
L 666.506739 611.450844 
L 680.459595 611.150684 
L 694.412452 606.764795 
L 708.365309 609.217261 
L 722.318165 606.807502 
L 736.271022 606.090789 
L 750.223878 603.392869 
L 764.176735 603.313262 
L 778.129591 597.327511 
L 792.082448 584.894042 
L 806.035305 568.24052 
L 819.988161 550.992708 
L 833.941018 533.53863 
L 847.893874 516.947831 
L 861.846731 497.39601 
L 875.799588 483.064204 
L 889.752444 464.602436 
L 903.705301 427.827051 
L 917.658157 387.263478 
L 931.611014 349.717929 
L 945.56387 307.073898 
L 959.516727 273.151299 
L 973.469584 254.46452 
L 987.42244 250.888839 
L 1001.375297 241.939951 
L 1015.328153 244.583594 
L 1029.28101 243.469603 
" style="fill:none;stroke:#8b0000;stroke-linecap:square;stroke-width:3;"/>
   </g>
   <g id="line2d_20">
    <path clip-path="url(#p95930bb200)" d="M 192.109615 613.312889 
L 206.062472 614.62631 
L 220.015328 615.455676 
L 233.968185 615.354541 
L 247.921041 614.467492 
L 261.873898 614.800579 
L 275.826754 611.696295 
L 289.779611 615.179406 
L 303.732468 613.797952 
L 317.685324 613.497721 
L 331.638181 613.523277 
L 345.591037 611.9613 
L 359.543894 613.017314 
L 373.496751 611.325001 
L 387.449607 612.570172 
L 401.402464 612.706588 
L 415.35532 609.80855 
L 429.308177 609.087815 
L 443.261033 610.143801 
L 457.21389 610.445637 
L 471.166747 609.667857 
L 485.119603 609.434965 
L 499.07246 608.752761 
L 513.025316 604.900785 
L 526.978173 606.625361 
L 540.93103 604.52832 
L 554.883886 603.747921 
L 568.836743 598.520602 
L 582.789599 601.800094 
L 596.742456 599.46686 
L 610.695312 596.773262 
L 624.648169 597.040846 
L 638.601026 591.523273 
L 652.553882 591.750829 
L 666.506739 590.062164 
L 680.459595 586.462944 
L 694.412452 586.210483 
L 708.365309 582.623466 
L 722.318165 579.753957 
L 736.271022 576.277348 
L 750.223878 571.389244 
L 764.176735 567.836073 
L 778.129591 559.420197 
L 792.082448 550.80928 
L 806.035305 533.475868 
L 819.988161 508.84997 
L 833.941018 487.027971 
L 847.893874 468.003406 
L 861.846731 448.142445 
L 875.799588 442.423839 
L 889.752444 424.049467 
L 903.705301 384.84569 
L 917.658157 340.182816 
L 931.611014 307.368149 
L 945.56387 277.790357 
L 959.516727 262.613715 
L 973.469584 248.485011 
L 987.42244 222.731253 
L 1001.375297 229.392348 
L 1015.328153 226.858605 
L 1029.28101 227.849919 
" style="fill:none;stroke:#ff0000;stroke-linecap:square;stroke-width:3;"/>
   </g>
   <g id="patch_5">
    <path d="M 192.109615 945.023197 
L 192.109615 6.50024 
" style="fill:none;stroke:#000000;stroke-linecap:square;stroke-linejoin:miter;stroke-width:0.8;"/>
   </g>
   <g id="patch_6">
    <path d="M 1029.28101 945.023197 
L 1029.28101 6.50024 
" style="fill:none;stroke:#000000;stroke-linecap:square;stroke-linejoin:miter;stroke-width:0.8;"/>
   </g>
   <g id="patch_7">
    <path d="M 192.109615 945.023197 
L 1029.28101 945.023197 
" style="fill:none;stroke:#000000;stroke-linecap:square;stroke-linejoin:miter;stroke-width:0.8;"/>
   </g>
   <g id="patch_8">
    <path d="M 192.109615 6.50024 
L 1029.28101 6.50024 
" style="fill:none;stroke:#000000;stroke-linecap:square;stroke-linejoin:miter;stroke-width:0.8;"/>
   </g>
   <g id="text_17">
    <!-- GAP -->
    <defs>
     <path d="M 59.515625 10.40625 
L 59.515625 29.984375 
L 43.40625 29.984375 
L 43.40625 38.09375 
L 69.28125 38.09375 
L 69.28125 6.78125 
Q 63.578125 2.734375 56.6875 0.65625 
Q 49.8125 -1.421875 42 -1.421875 
Q 24.90625 -1.421875 15.25 8.5625 
Q 5.609375 18.5625 5.609375 36.375 
Q 5.609375 54.25 15.25 64.234375 
Q 24.90625 74.21875 42 74.21875 
Q 49.125 74.21875 55.546875 72.453125 
Q 61.96875 70.703125 67.390625 67.28125 
L 67.390625 56.78125 
Q 61.921875 61.421875 55.765625 63.765625 
Q 49.609375 66.109375 42.828125 66.109375 
Q 29.4375 66.109375 22.71875 58.640625 
Q 16.015625 51.171875 16.015625 36.375 
Q 16.015625 21.625 22.71875 14.15625 
Q 29.4375 6.6875 42.828125 6.6875 
Q 48.046875 6.6875 52.140625 7.59375 
Q 56.25 8.5 59.515625 10.40625 
z
" id="DejaVuSans-71"/>
     <path d="M 34.1875 63.1875 
L 20.796875 26.90625 
L 47.609375 26.90625 
z
M 28.609375 72.90625 
L 39.796875 72.90625 
L 67.578125 0 
L 57.328125 0 
L 50.6875 18.703125 
L 17.828125 18.703125 
L 11.1875 0 
L 0.78125 0 
z
" id="DejaVuSans-65"/>
     <path d="M 19.671875 64.796875 
L 19.671875 37.40625 
L 32.078125 37.40625 
Q 38.96875 37.40625 42.71875 40.96875 
Q 46.484375 44.53125 46.484375 51.125 
Q 46.484375 57.671875 42.71875 61.234375 
Q 38.96875 64.796875 32.078125 64.796875 
z
M 9.8125 72.90625 
L 32.078125 72.90625 
Q 44.34375 72.90625 50.609375 67.359375 
Q 56.890625 61.8125 56.890625 51.125 
Q 56.890625 40.328125 50.609375 34.8125 
Q 44.34375 29.296875 32.078125 29.296875 
L 19.671875 29.296875 
L 19.671875 0 
L 9.8125 0 
z
" id="DejaVuSans-80"/>
    </defs>
    <g style="opacity:0.5;" transform="translate(308.618089 876.005277)scale(0.9 -0.9)">
     <use xlink:href="#DejaVuSans-71"/>
     <use x="77.490234" xlink:href="#DejaVuSans-65"/>
     <use x="145.898438" xlink:href="#DejaVuSans-80"/>
    </g>
   </g>
   <g id="text_18">
    <!-- PURSUIT -->
    <defs>
     <path d="M 8.6875 72.90625 
L 18.609375 72.90625 
L 18.609375 28.609375 
Q 18.609375 16.890625 22.84375 11.734375 
Q 27.09375 6.59375 36.625 6.59375 
Q 46.09375 6.59375 50.34375 11.734375 
Q 54.59375 16.890625 54.59375 28.609375 
L 54.59375 72.90625 
L 64.5 72.90625 
L 64.5 27.390625 
Q 64.5 13.140625 57.4375 5.859375 
Q 50.390625 -1.421875 36.625 -1.421875 
Q 22.796875 -1.421875 15.734375 5.859375 
Q 8.6875 13.140625 8.6875 27.390625 
z
" id="DejaVuSans-85"/>
     <path d="M 44.390625 34.1875 
Q 47.5625 33.109375 50.5625 29.59375 
Q 53.5625 26.078125 56.59375 19.921875 
L 66.609375 0 
L 56 0 
L 46.6875 18.703125 
Q 43.0625 26.03125 39.671875 28.421875 
Q 36.28125 30.8125 30.421875 30.8125 
L 19.671875 30.8125 
L 19.671875 0 
L 9.8125 0 
L 9.8125 72.90625 
L 32.078125 72.90625 
Q 44.578125 72.90625 50.734375 67.671875 
Q 56.890625 62.453125 56.890625 51.90625 
Q 56.890625 45.015625 53.6875 40.46875 
Q 50.484375 35.9375 44.390625 34.1875 
z
M 19.671875 64.796875 
L 19.671875 38.921875 
L 32.078125 38.921875 
Q 39.203125 38.921875 42.84375 42.21875 
Q 46.484375 45.515625 46.484375 51.90625 
Q 46.484375 58.296875 42.84375 61.546875 
Q 39.203125 64.796875 32.078125 64.796875 
z
" id="DejaVuSans-82"/>
     <path d="M 53.515625 70.515625 
L 53.515625 60.890625 
Q 47.90625 63.578125 42.921875 64.890625 
Q 37.9375 66.21875 33.296875 66.21875 
Q 25.25 66.21875 20.875 63.09375 
Q 16.5 59.96875 16.5 54.203125 
Q 16.5 49.359375 19.40625 46.890625 
Q 22.3125 44.4375 30.421875 42.921875 
L 36.375 41.703125 
Q 47.40625 39.59375 52.65625 34.296875 
Q 57.90625 29 57.90625 20.125 
Q 57.90625 9.515625 50.796875 4.046875 
Q 43.703125 -1.421875 29.984375 -1.421875 
Q 24.8125 -1.421875 18.96875 -0.25 
Q 13.140625 0.921875 6.890625 3.21875 
L 6.890625 13.375 
Q 12.890625 10.015625 18.65625 8.296875 
Q 24.421875 6.59375 29.984375 6.59375 
Q 38.421875 6.59375 43.015625 9.90625 
Q 47.609375 13.234375 47.609375 19.390625 
Q 47.609375 24.75 44.3125 27.78125 
Q 41.015625 30.8125 33.5 32.328125 
L 27.484375 33.5 
Q 16.453125 35.6875 11.515625 40.375 
Q 6.59375 45.0625 6.59375 53.421875 
Q 6.59375 63.09375 13.40625 68.65625 
Q 20.21875 74.21875 32.171875 74.21875 
Q 37.3125 74.21875 42.625 73.28125 
Q 47.953125 72.359375 53.515625 70.515625 
z
" id="DejaVuSans-83"/>
     <path d="M 9.8125 72.90625 
L 19.671875 72.90625 
L 19.671875 0 
L 9.8125 0 
z
" id="DejaVuSans-73"/>
    </defs>
    <g style="opacity:0.5;" transform="translate(633.366152 876.005277)scale(0.9 -0.9)">
     <use xlink:href="#DejaVuSans-80"/>
     <use x="60.302734" xlink:href="#DejaVuSans-85"/>
     <use x="133.496094" xlink:href="#DejaVuSans-82"/>
     <use x="202.978516" xlink:href="#DejaVuSans-83"/>
     <use x="266.455078" xlink:href="#DejaVuSans-85"/>
     <use x="339.648438" xlink:href="#DejaVuSans-73"/>
     <use x="369.140625" xlink:href="#DejaVuSans-84"/>
    </g>
   </g>
   <g id="legend_1">
    <g id="patch_9">
     <path d="M 227.109615 413.453365 
L 717.273678 413.453365 
Q 727.273678 413.453365 727.273678 403.453365 
L 727.273678 41.50024 
Q 727.273678 31.50024 717.273678 31.50024 
L 227.109615 31.50024 
Q 217.109615 31.50024 217.109615 41.50024 
L 217.109615 403.453365 
Q 217.109615 413.453365 227.109615 413.453365 
z
" style="fill:#ffffff;opacity:0.3;stroke:#cccccc;stroke-linejoin:miter;"/>
    </g>
    <g id="line2d_21">
     <path d="M 237.109615 71.992427 
L 337.109615 71.992427 
" style="fill:none;stroke:#000000;stroke-linecap:square;stroke-width:3;"/>
    </g>
    <g id="line2d_22"/>
    <g id="text_19">
     <!--  p = 0.0 - 0.2 -->
     <defs>
      <path d="M 18.109375 8.203125 
L 18.109375 -20.796875 
L 9.078125 -20.796875 
L 9.078125 54.6875 
L 18.109375 54.6875 
L 18.109375 46.390625 
Q 20.953125 51.265625 25.265625 53.625 
Q 29.59375 56 35.59375 56 
Q 45.5625 56 51.78125 48.09375 
Q 58.015625 40.1875 58.015625 27.296875 
Q 58.015625 14.40625 51.78125 6.484375 
Q 45.5625 -1.421875 35.59375 -1.421875 
Q 29.59375 -1.421875 25.265625 0.953125 
Q 20.953125 3.328125 18.109375 8.203125 
z
M 48.6875 27.296875 
Q 48.6875 37.203125 44.609375 42.84375 
Q 40.53125 48.484375 33.40625 48.484375 
Q 26.265625 48.484375 22.1875 42.84375 
Q 18.109375 37.203125 18.109375 27.296875 
Q 18.109375 17.390625 22.1875 11.75 
Q 26.265625 6.109375 33.40625 6.109375 
Q 40.53125 6.109375 44.609375 11.75 
Q 48.6875 17.390625 48.6875 27.296875 
z
" id="DejaVuSans-112"/>
      <path d="M 10.59375 45.40625 
L 73.1875 45.40625 
L 73.1875 37.203125 
L 10.59375 37.203125 
z
M 10.59375 25.484375 
L 73.1875 25.484375 
L 73.1875 17.1875 
L 10.59375 17.1875 
z
" id="DejaVuSans-61"/>
      <path d="M 10.6875 12.40625 
L 21 12.40625 
L 21 0 
L 10.6875 0 
z
" id="DejaVuSans-46"/>
     </defs>
     <g transform="translate(377.109615 89.492427)scale(0.5 -0.5)">
      <use xlink:href="#DejaVuSans-32"/>
      <use x="31.787109" xlink:href="#DejaVuSans-112"/>
      <use x="95.263672" xlink:href="#DejaVuSans-32"/>
      <use x="127.050781" xlink:href="#DejaVuSans-61"/>
      <use x="210.839844" xlink:href="#DejaVuSans-32"/>
      <use x="242.626953" xlink:href="#DejaVuSans-48"/>
      <use x="306.25" xlink:href="#DejaVuSans-46"/>
      <use x="338.037109" xlink:href="#DejaVuSans-48"/>
      <use x="401.660156" xlink:href="#DejaVuSans-32"/>
      <use x="433.447266" xlink:href="#DejaVuSans-45"/>
      <use x="469.53125" xlink:href="#DejaVuSans-32"/>
      <use x="501.318359" xlink:href="#DejaVuSans-48"/>
      <use x="564.941406" xlink:href="#DejaVuSans-46"/>
      <use x="596.728516" xlink:href="#DejaVuSans-50"/>
     </g>
    </g>
    <g id="line2d_23">
     <path d="M 237.109615 145.383052 
L 337.109615 145.383052 
" style="fill:none;stroke:#696969;stroke-linecap:square;stroke-width:3;"/>
    </g>
    <g id="line2d_24"/>
    <g id="text_20">
     <!--  p = 0.2 - 0.4 -->
     <defs>
      <path d="M 37.796875 64.3125 
L 12.890625 25.390625 
L 37.796875 25.390625 
z
M 35.203125 72.90625 
L 47.609375 72.90625 
L 47.609375 25.390625 
L 58.015625 25.390625 
L 58.015625 17.1875 
L 47.609375 17.1875 
L 47.609375 0 
L 37.796875 0 
L 37.796875 17.1875 
L 4.890625 17.1875 
L 4.890625 26.703125 
z
" id="DejaVuSans-52"/>
     </defs>
     <g transform="translate(377.109615 162.883052)scale(0.5 -0.5)">
      <use xlink:href="#DejaVuSans-32"/>
      <use x="31.787109" xlink:href="#DejaVuSans-112"/>
      <use x="95.263672" xlink:href="#DejaVuSans-32"/>
      <use x="127.050781" xlink:href="#DejaVuSans-61"/>
      <use x="210.839844" xlink:href="#DejaVuSans-32"/>
      <use x="242.626953" xlink:href="#DejaVuSans-48"/>
      <use x="306.25" xlink:href="#DejaVuSans-46"/>
      <use x="338.037109" xlink:href="#DejaVuSans-50"/>
      <use x="401.660156" xlink:href="#DejaVuSans-32"/>
      <use x="433.447266" xlink:href="#DejaVuSans-45"/>
      <use x="469.53125" xlink:href="#DejaVuSans-32"/>
      <use x="501.318359" xlink:href="#DejaVuSans-48"/>
      <use x="564.941406" xlink:href="#DejaVuSans-46"/>
      <use x="596.728516" xlink:href="#DejaVuSans-52"/>
     </g>
    </g>
    <g id="line2d_25">
     <path d="M 237.109615 218.773677 
L 337.109615 218.773677 
" style="fill:none;stroke:#cd5c5c;stroke-linecap:square;stroke-width:3;"/>
    </g>
    <g id="line2d_26"/>
    <g id="text_21">
     <!--  p = 0.4 - 0.6 -->
     <defs>
      <path d="M 33.015625 40.375 
Q 26.375 40.375 22.484375 35.828125 
Q 18.609375 31.296875 18.609375 23.390625 
Q 18.609375 15.53125 22.484375 10.953125 
Q 26.375 6.390625 33.015625 6.390625 
Q 39.65625 6.390625 43.53125 10.953125 
Q 47.40625 15.53125 47.40625 23.390625 
Q 47.40625 31.296875 43.53125 35.828125 
Q 39.65625 40.375 33.015625 40.375 
z
M 52.59375 71.296875 
L 52.59375 62.3125 
Q 48.875 64.0625 45.09375 64.984375 
Q 41.3125 65.921875 37.59375 65.921875 
Q 27.828125 65.921875 22.671875 59.328125 
Q 17.53125 52.734375 16.796875 39.40625 
Q 19.671875 43.65625 24.015625 45.921875 
Q 28.375 48.1875 33.59375 48.1875 
Q 44.578125 48.1875 50.953125 41.515625 
Q 57.328125 34.859375 57.328125 23.390625 
Q 57.328125 12.15625 50.6875 5.359375 
Q 44.046875 -1.421875 33.015625 -1.421875 
Q 20.359375 -1.421875 13.671875 8.265625 
Q 6.984375 17.96875 6.984375 36.375 
Q 6.984375 53.65625 15.1875 63.9375 
Q 23.390625 74.21875 37.203125 74.21875 
Q 40.921875 74.21875 44.703125 73.484375 
Q 48.484375 72.75 52.59375 71.296875 
z
" id="DejaVuSans-54"/>
     </defs>
     <g transform="translate(377.109615 236.273677)scale(0.5 -0.5)">
      <use xlink:href="#DejaVuSans-32"/>
      <use x="31.787109" xlink:href="#DejaVuSans-112"/>
      <use x="95.263672" xlink:href="#DejaVuSans-32"/>
      <use x="127.050781" xlink:href="#DejaVuSans-61"/>
      <use x="210.839844" xlink:href="#DejaVuSans-32"/>
      <use x="242.626953" xlink:href="#DejaVuSans-48"/>
      <use x="306.25" xlink:href="#DejaVuSans-46"/>
      <use x="338.037109" xlink:href="#DejaVuSans-52"/>
      <use x="401.660156" xlink:href="#DejaVuSans-32"/>
      <use x="433.447266" xlink:href="#DejaVuSans-45"/>
      <use x="469.53125" xlink:href="#DejaVuSans-32"/>
      <use x="501.318359" xlink:href="#DejaVuSans-48"/>
      <use x="564.941406" xlink:href="#DejaVuSans-46"/>
      <use x="596.728516" xlink:href="#DejaVuSans-54"/>
     </g>
    </g>
    <g id="line2d_27">
     <path d="M 237.109615 292.164302 
L 337.109615 292.164302 
" style="fill:none;stroke:#8b0000;stroke-linecap:square;stroke-width:3;"/>
    </g>
    <g id="line2d_28"/>
    <g id="text_22">
     <!--  p = 0.6 - 0.8 -->
     <defs>
      <path d="M 31.78125 34.625 
Q 24.75 34.625 20.71875 30.859375 
Q 16.703125 27.09375 16.703125 20.515625 
Q 16.703125 13.921875 20.71875 10.15625 
Q 24.75 6.390625 31.78125 6.390625 
Q 38.8125 6.390625 42.859375 10.171875 
Q 46.921875 13.96875 46.921875 20.515625 
Q 46.921875 27.09375 42.890625 30.859375 
Q 38.875 34.625 31.78125 34.625 
z
M 21.921875 38.8125 
Q 15.578125 40.375 12.03125 44.71875 
Q 8.5 49.078125 8.5 55.328125 
Q 8.5 64.0625 14.71875 69.140625 
Q 20.953125 74.21875 31.78125 74.21875 
Q 42.671875 74.21875 48.875 69.140625 
Q 55.078125 64.0625 55.078125 55.328125 
Q 55.078125 49.078125 51.53125 44.71875 
Q 48 40.375 41.703125 38.8125 
Q 48.828125 37.15625 52.796875 32.3125 
Q 56.78125 27.484375 56.78125 20.515625 
Q 56.78125 9.90625 50.3125 4.234375 
Q 43.84375 -1.421875 31.78125 -1.421875 
Q 19.734375 -1.421875 13.25 4.234375 
Q 6.78125 9.90625 6.78125 20.515625 
Q 6.78125 27.484375 10.78125 32.3125 
Q 14.796875 37.15625 21.921875 38.8125 
z
M 18.3125 54.390625 
Q 18.3125 48.734375 21.84375 45.5625 
Q 25.390625 42.390625 31.78125 42.390625 
Q 38.140625 42.390625 41.71875 45.5625 
Q 45.3125 48.734375 45.3125 54.390625 
Q 45.3125 60.0625 41.71875 63.234375 
Q 38.140625 66.40625 31.78125 66.40625 
Q 25.390625 66.40625 21.84375 63.234375 
Q 18.3125 60.0625 18.3125 54.390625 
z
" id="DejaVuSans-56"/>
     </defs>
     <g transform="translate(377.109615 309.664302)scale(0.5 -0.5)">
      <use xlink:href="#DejaVuSans-32"/>
      <use x="31.787109" xlink:href="#DejaVuSans-112"/>
      <use x="95.263672" xlink:href="#DejaVuSans-32"/>
      <use x="127.050781" xlink:href="#DejaVuSans-61"/>
      <use x="210.839844" xlink:href="#DejaVuSans-32"/>
      <use x="242.626953" xlink:href="#DejaVuSans-48"/>
      <use x="306.25" xlink:href="#DejaVuSans-46"/>
      <use x="338.037109" xlink:href="#DejaVuSans-54"/>
      <use x="401.660156" xlink:href="#DejaVuSans-32"/>
      <use x="433.447266" xlink:href="#DejaVuSans-45"/>
      <use x="469.53125" xlink:href="#DejaVuSans-32"/>
      <use x="501.318359" xlink:href="#DejaVuSans-48"/>
      <use x="564.941406" xlink:href="#DejaVuSans-46"/>
      <use x="596.728516" xlink:href="#DejaVuSans-56"/>
     </g>
    </g>
    <g id="line2d_29">
     <path d="M 237.109615 365.554927 
L 337.109615 365.554927 
" style="fill:none;stroke:#ff0000;stroke-linecap:square;stroke-width:3;"/>
    </g>
    <g id="line2d_30"/>
    <g id="text_23">
     <!--  p = 0.8 - 1.0 -->
     <g transform="translate(377.109615 383.054927)scale(0.5 -0.5)">
      <use xlink:href="#DejaVuSans-32"/>
      <use x="31.787109" xlink:href="#DejaVuSans-112"/>
      <use x="95.263672" xlink:href="#DejaVuSans-32"/>
      <use x="127.050781" xlink:href="#DejaVuSans-61"/>
      <use x="210.839844" xlink:href="#DejaVuSans-32"/>
      <use x="242.626953" xlink:href="#DejaVuSans-48"/>
      <use x="306.25" xlink:href="#DejaVuSans-46"/>
      <use x="338.037109" xlink:href="#DejaVuSans-56"/>
      <use x="401.660156" xlink:href="#DejaVuSans-32"/>
      <use x="433.447266" xlink:href="#DejaVuSans-45"/>
      <use x="469.53125" xlink:href="#DejaVuSans-32"/>
      <use x="501.318359" xlink:href="#DejaVuSans-49"/>
      <use x="564.941406" xlink:href="#DejaVuSans-46"/>
      <use x="596.728516" xlink:href="#DejaVuSans-48"/>
     </g>
    </g>
   </g>
  </g>
 </g>
 <defs>
  <clipPath id="p95930bb200">
   <rect height="938.522958" width="837.171395" x="192.109615" y="6.50024"/>
  </clipPath>
 </defs>
</svg>
