<?xml version="1.0" encoding="utf-8" standalone="no"?>
<!DOCTYPE svg PUBLIC "-//W3C//DTD SVG 1.1//EN"
  "http://www.w3.org/Graphics/SVG/1.1/DTD/svg11.dtd">
<!-- Created with matplotlib (https://matplotlib.org/) -->
<svg height="1080pt" version="1.1" viewBox="0 0 1080 1080" width="1080pt" xmlns="http://www.w3.org/2000/svg" xmlns:xlink="http://www.w3.org/1999/xlink">
 <defs>
  <style type="text/css">
*{stroke-linecap:butt;stroke-linejoin:round;}
  </style>
 </defs>
 <g id="figure_1">
  <g id="patch_1">
   <path d="M 0 1080 
L 1080 1080 
L 1080 0 
L 0 0 
z
" style="fill:#ffffff;"/>
  </g>
  <g id="axes_1">
   <g id="patch_2">
    <path d="M 0 1080 
L 1080 1080 
L 1080 0 
L 0 0 
z
" style="fill:#ffffff;"/>
   </g>
   <g id="PathCollection_1">
    <defs>
     <path d="M 0 5 
C 1.326016 5 2.597899 4.473168 3.535534 3.535534 
C 4.473168 2.597899 5 1.326016 5 0 
C 5 -1.326016 4.473168 -2.597899 3.535534 -3.535534 
C 2.597899 -4.473168 1.326016 -5 0 -5 
C -1.326016 -5 -2.597899 -4.473168 -3.535534 -3.535534 
C -4.473168 -2.597899 -5 -1.326016 -5 0 
C -5 1.326016 -4.473168 2.597899 -3.535534 3.535534 
C -2.597899 4.473168 -1.326016 5 0 5 
z
" id="mc7be03f4b6" style="stroke:#0000ff;"/>
    </defs>
    <g clip-path="url(#p3ec61b4bcc)">
     <use style="fill:#0000ff;stroke:#0000ff;" x="118.759398" xlink:href="#mc7be03f4b6" y="840.620301"/>
    </g>
   </g>
   <g id="PathCollection_2">
    <g clip-path="url(#p3ec61b4bcc)">
     <use style="fill:#0000ff;stroke:#0000ff;" x="321.766917" xlink:href="#mc7be03f4b6" y="607.299107"/>
    </g>
   </g>
   <g id="PathCollection_3">
    <g clip-path="url(#p3ec61b4bcc)">
     <use style="fill:#0000ff;stroke:#0000ff;" x="524.774436" xlink:href="#mc7be03f4b6" y="612.019334"/>
    </g>
   </g>
   <g id="PathCollection_4">
    <g clip-path="url(#p3ec61b4bcc)">
     <use style="fill:#0000ff;stroke:#0000ff;" x="727.781955" xlink:href="#mc7be03f4b6" y="460.407019"/>
    </g>
   </g>
   <g id="PathCollection_5">
    <g clip-path="url(#p3ec61b4bcc)">
     <use style="fill:#0000ff;stroke:#0000ff;" x="930.789474" xlink:href="#mc7be03f4b6" y="201.261218"/>
    </g>
   </g>
   <g id="PathCollection_6">
    <defs>
     <path d="M 0 5 
C 1.326016 5 2.597899 4.473168 3.535534 3.535534 
C 4.473168 2.597899 5 1.326016 5 0 
C 5 -1.326016 4.473168 -2.597899 3.535534 -3.535534 
C 2.597899 -4.473168 1.326016 -5 0 -5 
C -1.326016 -5 -2.597899 -4.473168 -3.535534 -3.535534 
C -4.473168 -2.597899 -5 -1.326016 -5 0 
C -5 1.326016 -4.473168 2.597899 -3.535534 3.535534 
C -2.597899 4.473168 -1.326016 5 0 5 
z
" id="m28116f8754" style="stroke:#ff7f0e;"/>
    </defs>
    <g clip-path="url(#p3ec61b4bcc)">
     <use style="fill:#ff7f0e;stroke:#ff7f0e;" x="133.984962" xlink:href="#m28116f8754" y="929.057465"/>
    </g>
   </g>
   <g id="PathCollection_7">
    <g clip-path="url(#p3ec61b4bcc)">
     <use style="fill:#ff7f0e;stroke:#ff7f0e;" x="336.992481" xlink:href="#m28116f8754" y="648.075994"/>
    </g>
   </g>
   <g id="PathCollection_8">
    <g clip-path="url(#p3ec61b4bcc)">
     <use style="fill:#ff7f0e;stroke:#ff7f0e;" x="540" xlink:href="#m28116f8754" y="511.443132"/>
    </g>
   </g>
   <g id="PathCollection_9">
    <g clip-path="url(#p3ec61b4bcc)">
     <use style="fill:#ff7f0e;stroke:#ff7f0e;" x="743.007519" xlink:href="#m28116f8754" y="347.775417"/>
    </g>
   </g>
   <g id="PathCollection_10">
    <g clip-path="url(#p3ec61b4bcc)">
     <use style="fill:#ff7f0e;stroke:#ff7f0e;" x="946.015038" xlink:href="#m28116f8754" y="121.055317"/>
    </g>
   </g>
   <g id="PathCollection_11">
    <defs>
     <path d="M 0 5 
C 1.326016 5 2.597899 4.473168 3.535534 3.535534 
C 4.473168 2.597899 5 1.326016 5 0 
C 5 -1.326016 4.473168 -2.597899 3.535534 -3.535534 
C 2.597899 -4.473168 1.326016 -5 0 -5 
C -1.326016 -5 -2.597899 -4.473168 -3.535534 -3.535534 
C -4.473168 -2.597899 -5 -1.326016 -5 0 
C -5 1.326016 -4.473168 2.597899 -3.535534 3.535534 
C -2.597899 4.473168 -1.326016 5 0 5 
z
" id="md2a261a150" style="stroke:#008000;"/>
    </defs>
    <g clip-path="url(#p3ec61b4bcc)">
     <use style="fill:#008000;stroke:#008000;" x="149.210526" xlink:href="#md2a261a150" y="962.346732"/>
    </g>
   </g>
   <g id="PathCollection_12">
    <g clip-path="url(#p3ec61b4bcc)">
     <use style="fill:#008000;stroke:#008000;" x="352.218045" xlink:href="#md2a261a150" y="706.939321"/>
    </g>
   </g>
   <g id="PathCollection_13">
    <g clip-path="url(#p3ec61b4bcc)">
     <use style="fill:#008000;stroke:#008000;" x="555.225564" xlink:href="#md2a261a150" y="537.77457"/>
    </g>
   </g>
   <g id="PathCollection_14">
    <g clip-path="url(#p3ec61b4bcc)">
     <use style="fill:#008000;stroke:#008000;" x="758.233083" xlink:href="#md2a261a150" y="378.083882"/>
    </g>
   </g>
   <g id="PathCollection_15">
    <g clip-path="url(#p3ec61b4bcc)">
     <use style="fill:#008000;stroke:#008000;" x="961.240602" xlink:href="#md2a261a150" y="126.976842"/>
    </g>
   </g>
   <g id="matplotlib.axis_1">
    <g id="xtick_1">
     <g id="line2d_1">
      <defs>
       <path d="M 0 0 
L 0 3.5 
" id="mb886234113" style="stroke:#000000;stroke-width:0.8;"/>
      </defs>
      <g>
       <use style="stroke:#000000;stroke-width:0.8;" x="32.481203" xlink:href="#mb886234113" y="1080"/>
      </g>
     </g>
     <g id="text_1">
      <!-- 0.0 -->
      <defs>
       <path d="M 31.78125 66.40625 
Q 24.171875 66.40625 20.328125 58.90625 
Q 16.5 51.421875 16.5 36.375 
Q 16.5 21.390625 20.328125 13.890625 
Q 24.171875 6.390625 31.78125 6.390625 
Q 39.453125 6.390625 43.28125 13.890625 
Q 47.125 21.390625 47.125 36.375 
Q 47.125 51.421875 43.28125 58.90625 
Q 39.453125 66.40625 31.78125 66.40625 
z
M 31.78125 74.21875 
Q 44.046875 74.21875 50.515625 64.515625 
Q 56.984375 54.828125 56.984375 36.375 
Q 56.984375 17.96875 50.515625 8.265625 
Q 44.046875 -1.421875 31.78125 -1.421875 
Q 19.53125 -1.421875 13.0625 8.265625 
Q 6.59375 17.96875 6.59375 36.375 
Q 6.59375 54.828125 13.0625 64.515625 
Q 19.53125 74.21875 31.78125 74.21875 
z
" id="DejaVuSans-48"/>
       <path d="M 10.6875 12.40625 
L 21 12.40625 
L 21 0 
L 10.6875 0 
z
" id="DejaVuSans-46"/>
      </defs>
      <g transform="translate(5.975995 1112.328125)scale(0.333333 -0.333333)">
       <use xlink:href="#DejaVuSans-48"/>
       <use x="63.623047" xlink:href="#DejaVuSans-46"/>
       <use x="95.410156" xlink:href="#DejaVuSans-48"/>
      </g>
     </g>
    </g>
    <g id="xtick_2">
     <g id="line2d_2">
      <g>
       <use style="stroke:#000000;stroke-width:0.8;" x="235.488722" xlink:href="#mb886234113" y="1080"/>
      </g>
     </g>
     <g id="text_2">
      <!-- 0.2 -->
      <defs>
       <path d="M 19.1875 8.296875 
L 53.609375 8.296875 
L 53.609375 0 
L 7.328125 0 
L 7.328125 8.296875 
Q 12.9375 14.109375 22.625 23.890625 
Q 32.328125 33.6875 34.8125 36.53125 
Q 39.546875 41.84375 41.421875 45.53125 
Q 43.3125 49.21875 43.3125 52.78125 
Q 43.3125 58.59375 39.234375 62.25 
Q 35.15625 65.921875 28.609375 65.921875 
Q 23.96875 65.921875 18.8125 64.3125 
Q 13.671875 62.703125 7.8125 59.421875 
L 7.8125 69.390625 
Q 13.765625 71.78125 18.9375 73 
Q 24.125 74.21875 28.421875 74.21875 
Q 39.75 74.21875 46.484375 68.546875 
Q 53.21875 62.890625 53.21875 53.421875 
Q 53.21875 48.921875 51.53125 44.890625 
Q 49.859375 40.875 45.40625 35.40625 
Q 44.1875 33.984375 37.640625 27.21875 
Q 31.109375 20.453125 19.1875 8.296875 
z
" id="DejaVuSans-50"/>
      </defs>
      <g transform="translate(208.983513 1112.328125)scale(0.333333 -0.333333)">
       <use xlink:href="#DejaVuSans-48"/>
       <use x="63.623047" xlink:href="#DejaVuSans-46"/>
       <use x="95.410156" xlink:href="#DejaVuSans-50"/>
      </g>
     </g>
    </g>
    <g id="xtick_3">
     <g id="line2d_3">
      <g>
       <use style="stroke:#000000;stroke-width:0.8;" x="438.496241" xlink:href="#mb886234113" y="1080"/>
      </g>
     </g>
     <g id="text_3">
      <!-- 0.4 -->
      <defs>
       <path d="M 37.796875 64.3125 
L 12.890625 25.390625 
L 37.796875 25.390625 
z
M 35.203125 72.90625 
L 47.609375 72.90625 
L 47.609375 25.390625 
L 58.015625 25.390625 
L 58.015625 17.1875 
L 47.609375 17.1875 
L 47.609375 0 
L 37.796875 0 
L 37.796875 17.1875 
L 4.890625 17.1875 
L 4.890625 26.703125 
z
" id="DejaVuSans-52"/>
      </defs>
      <g transform="translate(411.991032 1112.328125)scale(0.333333 -0.333333)">
       <use xlink:href="#DejaVuSans-48"/>
       <use x="63.623047" xlink:href="#DejaVuSans-46"/>
       <use x="95.410156" xlink:href="#DejaVuSans-52"/>
      </g>
     </g>
    </g>
    <g id="xtick_4">
     <g id="line2d_4">
      <g>
       <use style="stroke:#000000;stroke-width:0.8;" x="641.503759" xlink:href="#mb886234113" y="1080"/>
      </g>
     </g>
     <g id="text_4">
      <!-- 0.6 -->
      <defs>
       <path d="M 33.015625 40.375 
Q 26.375 40.375 22.484375 35.828125 
Q 18.609375 31.296875 18.609375 23.390625 
Q 18.609375 15.53125 22.484375 10.953125 
Q 26.375 6.390625 33.015625 6.390625 
Q 39.65625 6.390625 43.53125 10.953125 
Q 47.40625 15.53125 47.40625 23.390625 
Q 47.40625 31.296875 43.53125 35.828125 
Q 39.65625 40.375 33.015625 40.375 
z
M 52.59375 71.296875 
L 52.59375 62.3125 
Q 48.875 64.0625 45.09375 64.984375 
Q 41.3125 65.921875 37.59375 65.921875 
Q 27.828125 65.921875 22.671875 59.328125 
Q 17.53125 52.734375 16.796875 39.40625 
Q 19.671875 43.65625 24.015625 45.921875 
Q 28.375 48.1875 33.59375 48.1875 
Q 44.578125 48.1875 50.953125 41.515625 
Q 57.328125 34.859375 57.328125 23.390625 
Q 57.328125 12.15625 50.6875 5.359375 
Q 44.046875 -1.421875 33.015625 -1.421875 
Q 20.359375 -1.421875 13.671875 8.265625 
Q 6.984375 17.96875 6.984375 36.375 
Q 6.984375 53.65625 15.1875 63.9375 
Q 23.390625 74.21875 37.203125 74.21875 
Q 40.921875 74.21875 44.703125 73.484375 
Q 48.484375 72.75 52.59375 71.296875 
z
" id="DejaVuSans-54"/>
      </defs>
      <g transform="translate(614.998551 1112.328125)scale(0.333333 -0.333333)">
       <use xlink:href="#DejaVuSans-48"/>
       <use x="63.623047" xlink:href="#DejaVuSans-46"/>
       <use x="95.410156" xlink:href="#DejaVuSans-54"/>
      </g>
     </g>
    </g>
    <g id="xtick_5">
     <g id="line2d_5">
      <g>
       <use style="stroke:#000000;stroke-width:0.8;" x="844.511278" xlink:href="#mb886234113" y="1080"/>
      </g>
     </g>
     <g id="text_5">
      <!-- 0.8 -->
      <defs>
       <path d="M 31.78125 34.625 
Q 24.75 34.625 20.71875 30.859375 
Q 16.703125 27.09375 16.703125 20.515625 
Q 16.703125 13.921875 20.71875 10.15625 
Q 24.75 6.390625 31.78125 6.390625 
Q 38.8125 6.390625 42.859375 10.171875 
Q 46.921875 13.96875 46.921875 20.515625 
Q 46.921875 27.09375 42.890625 30.859375 
Q 38.875 34.625 31.78125 34.625 
z
M 21.921875 38.8125 
Q 15.578125 40.375 12.03125 44.71875 
Q 8.5 49.078125 8.5 55.328125 
Q 8.5 64.0625 14.71875 69.140625 
Q 20.953125 74.21875 31.78125 74.21875 
Q 42.671875 74.21875 48.875 69.140625 
Q 55.078125 64.0625 55.078125 55.328125 
Q 55.078125 49.078125 51.53125 44.71875 
Q 48 40.375 41.703125 38.8125 
Q 48.828125 37.15625 52.796875 32.3125 
Q 56.78125 27.484375 56.78125 20.515625 
Q 56.78125 9.90625 50.3125 4.234375 
Q 43.84375 -1.421875 31.78125 -1.421875 
Q 19.734375 -1.421875 13.25 4.234375 
Q 6.78125 9.90625 6.78125 20.515625 
Q 6.78125 27.484375 10.78125 32.3125 
Q 14.796875 37.15625 21.921875 38.8125 
z
M 18.3125 54.390625 
Q 18.3125 48.734375 21.84375 45.5625 
Q 25.390625 42.390625 31.78125 42.390625 
Q 38.140625 42.390625 41.71875 45.5625 
Q 45.3125 48.734375 45.3125 54.390625 
Q 45.3125 60.0625 41.71875 63.234375 
Q 38.140625 66.40625 31.78125 66.40625 
Q 25.390625 66.40625 21.84375 63.234375 
Q 18.3125 60.0625 18.3125 54.390625 
z
" id="DejaVuSans-56"/>
      </defs>
      <g transform="translate(818.00607 1112.328125)scale(0.333333 -0.333333)">
       <use xlink:href="#DejaVuSans-48"/>
       <use x="63.623047" xlink:href="#DejaVuSans-46"/>
       <use x="95.410156" xlink:href="#DejaVuSans-56"/>
      </g>
     </g>
    </g>
    <g id="xtick_6">
     <g id="line2d_6">
      <g>
       <use style="stroke:#000000;stroke-width:0.8;" x="1047.518797" xlink:href="#mb886234113" y="1080"/>
      </g>
     </g>
     <g id="text_6">
      <!-- 1.0 -->
      <defs>
       <path d="M 12.40625 8.296875 
L 28.515625 8.296875 
L 28.515625 63.921875 
L 10.984375 60.40625 
L 10.984375 69.390625 
L 28.421875 72.90625 
L 38.28125 72.90625 
L 38.28125 8.296875 
L 54.390625 8.296875 
L 54.390625 0 
L 12.40625 0 
z
" id="DejaVuSans-49"/>
      </defs>
      <g transform="translate(1021.013589 1112.328125)scale(0.333333 -0.333333)">
       <use xlink:href="#DejaVuSans-49"/>
       <use x="63.623047" xlink:href="#DejaVuSans-46"/>
       <use x="95.410156" xlink:href="#DejaVuSans-48"/>
      </g>
     </g>
    </g>
    <g id="text_7">
     <!-- $\hat{P}$ -->
     <defs>
      <path d="M -28.609375 79.984375 
L -21.390625 79.984375 
L -9.421875 61.625 
L -16.21875 61.625 
L -25 73.578125 
L -33.796875 61.625 
L -40.578125 61.625 
z
M -25 56 
z
" id="DejaVuSans-770"/>
      <path d="M 16.890625 72.90625 
L 39.703125 72.90625 
Q 49.65625 72.90625 54.875 68.265625 
Q 60.109375 63.625 60.109375 54.6875 
Q 60.109375 42.671875 52.390625 35.984375 
Q 44.671875 29.296875 30.71875 29.296875 
L 18.3125 29.296875 
L 12.59375 0 
L 2.6875 0 
z
M 25.203125 64.796875 
L 19.921875 37.40625 
L 32.328125 37.40625 
Q 40.71875 37.40625 45.203125 41.703125 
Q 49.703125 46 49.703125 54 
Q 49.703125 59.125 46.65625 61.953125 
Q 43.609375 64.796875 38.09375 64.796875 
z
" id="DejaVuSans-Oblique-80"/>
     </defs>
     <g transform="translate(521.7 1176.782292)scale(0.6 -0.6)">
      <use transform="translate(62.653809 30.015625)" xlink:href="#DejaVuSans-770"/>
      <use transform="translate(0 0.609375)" xlink:href="#DejaVuSans-Oblique-80"/>
     </g>
    </g>
   </g>
   <g id="matplotlib.axis_2">
    <g id="ytick_1">
     <g id="line2d_7">
      <defs>
       <path d="M 0 0 
L -3.5 0 
" id="m0d742ae58f" style="stroke:#000000;stroke-width:0.8;"/>
      </defs>
      <g>
       <use style="stroke:#000000;stroke-width:0.8;" x="0" xlink:href="#m0d742ae58f" y="1047.518797"/>
      </g>
     </g>
     <g id="text_8">
      <!-- 0.0 -->
      <g transform="translate(-60.010417 1060.182859)scale(0.333333 -0.333333)">
       <use xlink:href="#DejaVuSans-48"/>
       <use x="63.623047" xlink:href="#DejaVuSans-46"/>
       <use x="95.410156" xlink:href="#DejaVuSans-48"/>
      </g>
     </g>
    </g>
    <g id="ytick_2">
     <g id="line2d_8">
      <g>
       <use style="stroke:#000000;stroke-width:0.8;" x="0" xlink:href="#m0d742ae58f" y="844.511278"/>
      </g>
     </g>
     <g id="text_9">
      <!-- 0.2 -->
      <g transform="translate(-60.010417 857.175341)scale(0.333333 -0.333333)">
       <use xlink:href="#DejaVuSans-48"/>
       <use x="63.623047" xlink:href="#DejaVuSans-46"/>
       <use x="95.410156" xlink:href="#DejaVuSans-50"/>
      </g>
     </g>
    </g>
    <g id="ytick_3">
     <g id="line2d_9">
      <g>
       <use style="stroke:#000000;stroke-width:0.8;" x="0" xlink:href="#m0d742ae58f" y="641.503759"/>
      </g>
     </g>
     <g id="text_10">
      <!-- 0.4 -->
      <g transform="translate(-60.010417 654.167822)scale(0.333333 -0.333333)">
       <use xlink:href="#DejaVuSans-48"/>
       <use x="63.623047" xlink:href="#DejaVuSans-46"/>
       <use x="95.410156" xlink:href="#DejaVuSans-52"/>
      </g>
     </g>
    </g>
    <g id="ytick_4">
     <g id="line2d_10">
      <g>
       <use style="stroke:#000000;stroke-width:0.8;" x="0" xlink:href="#m0d742ae58f" y="438.496241"/>
      </g>
     </g>
     <g id="text_11">
      <!-- 0.6 -->
      <g transform="translate(-60.010417 451.160303)scale(0.333333 -0.333333)">
       <use xlink:href="#DejaVuSans-48"/>
       <use x="63.623047" xlink:href="#DejaVuSans-46"/>
       <use x="95.410156" xlink:href="#DejaVuSans-54"/>
      </g>
     </g>
    </g>
    <g id="ytick_5">
     <g id="line2d_11">
      <g>
       <use style="stroke:#000000;stroke-width:0.8;" x="0" xlink:href="#m0d742ae58f" y="235.488722"/>
      </g>
     </g>
     <g id="text_12">
      <!-- 0.8 -->
      <g transform="translate(-60.010417 248.152784)scale(0.333333 -0.333333)">
       <use xlink:href="#DejaVuSans-48"/>
       <use x="63.623047" xlink:href="#DejaVuSans-46"/>
       <use x="95.410156" xlink:href="#DejaVuSans-56"/>
      </g>
     </g>
    </g>
    <g id="ytick_6">
     <g id="line2d_12">
      <g>
       <use style="stroke:#000000;stroke-width:0.8;" x="0" xlink:href="#m0d742ae58f" y="32.481203"/>
      </g>
     </g>
     <g id="text_13">
      <!-- 1.0 -->
      <g transform="translate(-60.010417 45.145266)scale(0.333333 -0.333333)">
       <use xlink:href="#DejaVuSans-49"/>
       <use x="63.623047" xlink:href="#DejaVuSans-46"/>
       <use x="95.410156" xlink:href="#DejaVuSans-48"/>
      </g>
     </g>
    </g>
    <g id="text_14">
     <!-- Probability Bet -->
     <defs>
      <path d="M 19.671875 64.796875 
L 19.671875 37.40625 
L 32.078125 37.40625 
Q 38.96875 37.40625 42.71875 40.96875 
Q 46.484375 44.53125 46.484375 51.125 
Q 46.484375 57.671875 42.71875 61.234375 
Q 38.96875 64.796875 32.078125 64.796875 
z
M 9.8125 72.90625 
L 32.078125 72.90625 
Q 44.34375 72.90625 50.609375 67.359375 
Q 56.890625 61.8125 56.890625 51.125 
Q 56.890625 40.328125 50.609375 34.8125 
Q 44.34375 29.296875 32.078125 29.296875 
L 19.671875 29.296875 
L 19.671875 0 
L 9.8125 0 
z
" id="DejaVuSans-80"/>
      <path d="M 41.109375 46.296875 
Q 39.59375 47.171875 37.8125 47.578125 
Q 36.03125 48 33.890625 48 
Q 26.265625 48 22.1875 43.046875 
Q 18.109375 38.09375 18.109375 28.8125 
L 18.109375 0 
L 9.078125 0 
L 9.078125 54.6875 
L 18.109375 54.6875 
L 18.109375 46.1875 
Q 20.953125 51.171875 25.484375 53.578125 
Q 30.03125 56 36.53125 56 
Q 37.453125 56 38.578125 55.875 
Q 39.703125 55.765625 41.0625 55.515625 
z
" id="DejaVuSans-114"/>
      <path d="M 30.609375 48.390625 
Q 23.390625 48.390625 19.1875 42.75 
Q 14.984375 37.109375 14.984375 27.296875 
Q 14.984375 17.484375 19.15625 11.84375 
Q 23.34375 6.203125 30.609375 6.203125 
Q 37.796875 6.203125 41.984375 11.859375 
Q 46.1875 17.53125 46.1875 27.296875 
Q 46.1875 37.015625 41.984375 42.703125 
Q 37.796875 48.390625 30.609375 48.390625 
z
M 30.609375 56 
Q 42.328125 56 49.015625 48.375 
Q 55.71875 40.765625 55.71875 27.296875 
Q 55.71875 13.875 49.015625 6.21875 
Q 42.328125 -1.421875 30.609375 -1.421875 
Q 18.84375 -1.421875 12.171875 6.21875 
Q 5.515625 13.875 5.515625 27.296875 
Q 5.515625 40.765625 12.171875 48.375 
Q 18.84375 56 30.609375 56 
z
" id="DejaVuSans-111"/>
      <path d="M 48.6875 27.296875 
Q 48.6875 37.203125 44.609375 42.84375 
Q 40.53125 48.484375 33.40625 48.484375 
Q 26.265625 48.484375 22.1875 42.84375 
Q 18.109375 37.203125 18.109375 27.296875 
Q 18.109375 17.390625 22.1875 11.75 
Q 26.265625 6.109375 33.40625 6.109375 
Q 40.53125 6.109375 44.609375 11.75 
Q 48.6875 17.390625 48.6875 27.296875 
z
M 18.109375 46.390625 
Q 20.953125 51.265625 25.265625 53.625 
Q 29.59375 56 35.59375 56 
Q 45.5625 56 51.78125 48.09375 
Q 58.015625 40.1875 58.015625 27.296875 
Q 58.015625 14.40625 51.78125 6.484375 
Q 45.5625 -1.421875 35.59375 -1.421875 
Q 29.59375 -1.421875 25.265625 0.953125 
Q 20.953125 3.328125 18.109375 8.203125 
L 18.109375 0 
L 9.078125 0 
L 9.078125 75.984375 
L 18.109375 75.984375 
z
" id="DejaVuSans-98"/>
      <path d="M 34.28125 27.484375 
Q 23.390625 27.484375 19.1875 25 
Q 14.984375 22.515625 14.984375 16.5 
Q 14.984375 11.71875 18.140625 8.90625 
Q 21.296875 6.109375 26.703125 6.109375 
Q 34.1875 6.109375 38.703125 11.40625 
Q 43.21875 16.703125 43.21875 25.484375 
L 43.21875 27.484375 
z
M 52.203125 31.203125 
L 52.203125 0 
L 43.21875 0 
L 43.21875 8.296875 
Q 40.140625 3.328125 35.546875 0.953125 
Q 30.953125 -1.421875 24.3125 -1.421875 
Q 15.921875 -1.421875 10.953125 3.296875 
Q 6 8.015625 6 15.921875 
Q 6 25.140625 12.171875 29.828125 
Q 18.359375 34.515625 30.609375 34.515625 
L 43.21875 34.515625 
L 43.21875 35.40625 
Q 43.21875 41.609375 39.140625 45 
Q 35.0625 48.390625 27.6875 48.390625 
Q 23 48.390625 18.546875 47.265625 
Q 14.109375 46.140625 10.015625 43.890625 
L 10.015625 52.203125 
Q 14.9375 54.109375 19.578125 55.046875 
Q 24.21875 56 28.609375 56 
Q 40.484375 56 46.34375 49.84375 
Q 52.203125 43.703125 52.203125 31.203125 
z
" id="DejaVuSans-97"/>
      <path d="M 9.421875 54.6875 
L 18.40625 54.6875 
L 18.40625 0 
L 9.421875 0 
z
M 9.421875 75.984375 
L 18.40625 75.984375 
L 18.40625 64.59375 
L 9.421875 64.59375 
z
" id="DejaVuSans-105"/>
      <path d="M 9.421875 75.984375 
L 18.40625 75.984375 
L 18.40625 0 
L 9.421875 0 
z
" id="DejaVuSans-108"/>
      <path d="M 18.3125 70.21875 
L 18.3125 54.6875 
L 36.8125 54.6875 
L 36.8125 47.703125 
L 18.3125 47.703125 
L 18.3125 18.015625 
Q 18.3125 11.328125 20.140625 9.421875 
Q 21.96875 7.515625 27.59375 7.515625 
L 36.8125 7.515625 
L 36.8125 0 
L 27.59375 0 
Q 17.1875 0 13.234375 3.875 
Q 9.28125 7.765625 9.28125 18.015625 
L 9.28125 47.703125 
L 2.6875 47.703125 
L 2.6875 54.6875 
L 9.28125 54.6875 
L 9.28125 70.21875 
z
" id="DejaVuSans-116"/>
      <path d="M 32.171875 -5.078125 
Q 28.375 -14.84375 24.75 -17.8125 
Q 21.140625 -20.796875 15.09375 -20.796875 
L 7.90625 -20.796875 
L 7.90625 -13.28125 
L 13.1875 -13.28125 
Q 16.890625 -13.28125 18.9375 -11.515625 
Q 21 -9.765625 23.484375 -3.21875 
L 25.09375 0.875 
L 2.984375 54.6875 
L 12.5 54.6875 
L 29.59375 11.921875 
L 46.6875 54.6875 
L 56.203125 54.6875 
z
" id="DejaVuSans-121"/>
      <path id="DejaVuSans-32"/>
      <path d="M 19.671875 34.8125 
L 19.671875 8.109375 
L 35.5 8.109375 
Q 43.453125 8.109375 47.28125 11.40625 
Q 51.125 14.703125 51.125 21.484375 
Q 51.125 28.328125 47.28125 31.5625 
Q 43.453125 34.8125 35.5 34.8125 
z
M 19.671875 64.796875 
L 19.671875 42.828125 
L 34.28125 42.828125 
Q 41.5 42.828125 45.03125 45.53125 
Q 48.578125 48.25 48.578125 53.8125 
Q 48.578125 59.328125 45.03125 62.0625 
Q 41.5 64.796875 34.28125 64.796875 
z
M 9.8125 72.90625 
L 35.015625 72.90625 
Q 46.296875 72.90625 52.390625 68.21875 
Q 58.5 63.53125 58.5 54.890625 
Q 58.5 48.1875 55.375 44.234375 
Q 52.25 40.28125 46.1875 39.3125 
Q 53.46875 37.75 57.5 32.78125 
Q 61.53125 27.828125 61.53125 20.40625 
Q 61.53125 10.640625 54.890625 5.3125 
Q 48.25 0 35.984375 0 
L 9.8125 0 
z
" id="DejaVuSans-66"/>
      <path d="M 56.203125 29.59375 
L 56.203125 25.203125 
L 14.890625 25.203125 
Q 15.484375 15.921875 20.484375 11.0625 
Q 25.484375 6.203125 34.421875 6.203125 
Q 39.59375 6.203125 44.453125 7.46875 
Q 49.3125 8.734375 54.109375 11.28125 
L 54.109375 2.78125 
Q 49.265625 0.734375 44.1875 -0.34375 
Q 39.109375 -1.421875 33.890625 -1.421875 
Q 20.796875 -1.421875 13.15625 6.1875 
Q 5.515625 13.8125 5.515625 26.8125 
Q 5.515625 40.234375 12.765625 48.109375 
Q 20.015625 56 32.328125 56 
Q 43.359375 56 49.78125 48.890625 
Q 56.203125 41.796875 56.203125 29.59375 
z
M 47.21875 32.234375 
Q 47.125 39.59375 43.09375 43.984375 
Q 39.0625 48.390625 32.421875 48.390625 
Q 24.90625 48.390625 20.390625 44.140625 
Q 15.875 39.890625 15.1875 32.171875 
z
" id="DejaVuSans-101"/>
     </defs>
     <g transform="translate(-74.408854 723.414062)rotate(-90)scale(0.5 -0.5)">
      <use xlink:href="#DejaVuSans-80"/>
      <use x="60.287109" xlink:href="#DejaVuSans-114"/>
      <use x="101.369141" xlink:href="#DejaVuSans-111"/>
      <use x="162.550781" xlink:href="#DejaVuSans-98"/>
      <use x="226.027344" xlink:href="#DejaVuSans-97"/>
      <use x="287.306641" xlink:href="#DejaVuSans-98"/>
      <use x="350.783203" xlink:href="#DejaVuSans-105"/>
      <use x="378.566406" xlink:href="#DejaVuSans-108"/>
      <use x="406.349609" xlink:href="#DejaVuSans-105"/>
      <use x="434.132812" xlink:href="#DejaVuSans-116"/>
      <use x="473.341797" xlink:href="#DejaVuSans-121"/>
      <use x="532.521484" xlink:href="#DejaVuSans-32"/>
      <use x="564.308594" xlink:href="#DejaVuSans-66"/>
      <use x="632.912109" xlink:href="#DejaVuSans-101"/>
      <use x="694.435547" xlink:href="#DejaVuSans-116"/>
     </g>
    </g>
   </g>
   <g id="LineCollection_1">
    <path clip-path="url(#p3ec61b4bcc)" d="M 118.759398 1047.518797 
L 118.759398 697.330827 
" style="fill:none;stroke:#0000ff;stroke-width:1.5;"/>
   </g>
   <g id="LineCollection_2">
    <path clip-path="url(#p3ec61b4bcc)" d="M 321.766917 910.488722 
L 321.766917 447.37782 
" style="fill:none;stroke:#0000ff;stroke-width:1.5;"/>
   </g>
   <g id="LineCollection_3">
    <path clip-path="url(#p3ec61b4bcc)" d="M 524.774436 1047.518797 
L 524.774436 386.475564 
" style="fill:none;stroke:#0000ff;stroke-width:1.5;"/>
   </g>
   <g id="LineCollection_4">
    <path clip-path="url(#p3ec61b4bcc)" d="M 727.781955 793.759398 
L 727.781955 218.994361 
" style="fill:none;stroke:#0000ff;stroke-width:1.5;"/>
   </g>
   <g id="LineCollection_5">
    <path clip-path="url(#p3ec61b4bcc)" d="M 930.789474 474.022556 
L 930.789474 32.481203 
" style="fill:none;stroke:#0000ff;stroke-width:1.5;"/>
   </g>
   <g id="LineCollection_6">
    <path clip-path="url(#p3ec61b4bcc)" d="M 133.984962 1047.518797 
L 133.984962 905.413534 
" style="fill:none;stroke:#ff7f0e;stroke-width:1.5;"/>
   </g>
   <g id="LineCollection_7">
    <path clip-path="url(#p3ec61b4bcc)" d="M 336.992481 1022.142857 
L 336.992481 474.022556 
" style="fill:none;stroke:#ff7f0e;stroke-width:1.5;"/>
   </g>
   <g id="LineCollection_8">
    <path clip-path="url(#p3ec61b4bcc)" d="M 540 847.302632 
L 540 311.616541 
" style="fill:none;stroke:#ff7f0e;stroke-width:1.5;"/>
   </g>
   <g id="LineCollection_9">
    <path clip-path="url(#p3ec61b4bcc)" d="M 743.007519 616.889098 
L 743.007519 68.007519 
" style="fill:none;stroke:#ff7f0e;stroke-width:1.5;"/>
   </g>
   <g id="LineCollection_10">
    <path clip-path="url(#p3ec61b4bcc)" d="M 946.015038 230.413534 
L 946.015038 32.481203 
" style="fill:none;stroke:#ff7f0e;stroke-width:1.5;"/>
   </g>
   <g id="LineCollection_11">
    <path clip-path="url(#p3ec61b4bcc)" d="M 149.210526 1047.518797 
L 149.210526 959.971805 
" style="fill:none;stroke:#008000;stroke-width:1.5;"/>
   </g>
   <g id="LineCollection_12">
    <path clip-path="url(#p3ec61b4bcc)" d="M 352.218045 1017.067669 
L 352.218045 540 
" style="fill:none;stroke:#008000;stroke-width:1.5;"/>
   </g>
   <g id="LineCollection_13">
    <path clip-path="url(#p3ec61b4bcc)" d="M 555.225564 819.135338 
L 555.225564 377.593985 
" style="fill:none;stroke:#008000;stroke-width:1.5;"/>
   </g>
   <g id="LineCollection_14">
    <path clip-path="url(#p3ec61b4bcc)" d="M 758.233083 642.265038 
L 758.233083 108.609023 
" style="fill:none;stroke:#008000;stroke-width:1.5;"/>
   </g>
   <g id="LineCollection_15">
    <path clip-path="url(#p3ec61b4bcc)" d="M 961.240602 276.090226 
L 961.240602 32.481203 
" style="fill:none;stroke:#008000;stroke-width:1.5;"/>
   </g>
   <g id="line2d_13">
    <defs>
     <path d="M 10 0 
L -10 -0 
" id="m20bc1d4e71" style="stroke:#0000ff;"/>
    </defs>
    <g clip-path="url(#p3ec61b4bcc)">
     <use style="fill:#0000ff;stroke:#0000ff;" x="118.759398" xlink:href="#m20bc1d4e71" y="1047.518797"/>
    </g>
   </g>
   <g id="line2d_14">
    <g clip-path="url(#p3ec61b4bcc)">
     <use style="fill:#0000ff;stroke:#0000ff;" x="118.759398" xlink:href="#m20bc1d4e71" y="697.330827"/>
    </g>
   </g>
   <g id="line2d_15">
    <g clip-path="url(#p3ec61b4bcc)">
     <use style="fill:#0000ff;stroke:#0000ff;" x="321.766917" xlink:href="#m20bc1d4e71" y="910.488722"/>
    </g>
   </g>
   <g id="line2d_16">
    <g clip-path="url(#p3ec61b4bcc)">
     <use style="fill:#0000ff;stroke:#0000ff;" x="321.766917" xlink:href="#m20bc1d4e71" y="447.37782"/>
    </g>
   </g>
   <g id="line2d_17">
    <g clip-path="url(#p3ec61b4bcc)">
     <use style="fill:#0000ff;stroke:#0000ff;" x="524.774436" xlink:href="#m20bc1d4e71" y="1047.518797"/>
    </g>
   </g>
   <g id="line2d_18">
    <g clip-path="url(#p3ec61b4bcc)">
     <use style="fill:#0000ff;stroke:#0000ff;" x="524.774436" xlink:href="#m20bc1d4e71" y="386.475564"/>
    </g>
   </g>
   <g id="line2d_19">
    <g clip-path="url(#p3ec61b4bcc)">
     <use style="fill:#0000ff;stroke:#0000ff;" x="727.781955" xlink:href="#m20bc1d4e71" y="793.759398"/>
    </g>
   </g>
   <g id="line2d_20">
    <g clip-path="url(#p3ec61b4bcc)">
     <use style="fill:#0000ff;stroke:#0000ff;" x="727.781955" xlink:href="#m20bc1d4e71" y="218.994361"/>
    </g>
   </g>
   <g id="line2d_21">
    <g clip-path="url(#p3ec61b4bcc)">
     <use style="fill:#0000ff;stroke:#0000ff;" x="930.789474" xlink:href="#m20bc1d4e71" y="474.022556"/>
    </g>
   </g>
   <g id="line2d_22">
    <g clip-path="url(#p3ec61b4bcc)">
     <use style="fill:#0000ff;stroke:#0000ff;" x="930.789474" xlink:href="#m20bc1d4e71" y="32.481203"/>
    </g>
   </g>
   <g id="line2d_23">
    <path clip-path="url(#p3ec61b4bcc)" d="M 42.885208 880.093755 
L 52.890756 873.21076 
L 62.896304 866.327765 
L 72.901852 859.444769 
L 82.9074 852.561774 
L 92.912948 845.678779 
L 102.918496 838.795783 
L 112.924044 831.912788 
L 122.929592 825.029793 
L 132.93514 818.146797 
L 142.940688 811.263802 
L 152.946236 804.380807 
L 162.951784 797.497811 
L 172.957332 790.614816 
L 182.96288 783.731821 
L 192.968428 776.848825 
L 202.973976 769.96583 
L 212.979524 763.082835 
L 222.985072 756.199839 
L 232.99062 749.316844 
L 242.996168 742.433849 
L 253.001716 735.550853 
L 263.007264 728.667858 
L 273.012812 721.784863 
L 283.01836 714.901867 
L 293.023908 708.018872 
L 303.029456 701.135877 
L 313.035004 694.252881 
L 323.040552 687.369886 
L 333.0461 680.486891 
L 343.051648 673.603895 
L 353.057196 666.7209 
L 363.062744 659.837905 
L 373.068292 652.954909 
L 383.07384 646.071914 
L 393.079388 639.188919 
L 403.084936 632.305923 
L 413.090484 625.422928 
L 423.096032 618.539933 
L 433.10158 611.656937 
L 443.107128 604.773942 
L 453.112676 597.890947 
L 463.118224 591.007951 
L 473.123772 584.124956 
L 483.12932 577.241961 
L 493.134868 570.358965 
L 503.140416 563.47597 
L 513.145964 556.592975 
L 523.151512 549.709979 
L 533.15706 542.826984 
L 543.162608 535.943989 
L 553.168156 529.060993 
L 563.173704 522.177998 
L 573.179252 515.295003 
L 583.1848 508.412007 
L 593.190348 501.529012 
L 603.195897 494.646017 
L 613.201445 487.763021 
L 623.206993 480.880026 
L 633.212541 473.997031 
L 643.218089 467.114035 
L 653.223637 460.23104 
L 663.229185 453.348045 
L 673.234733 446.465049 
L 683.240281 439.582054 
L 693.245829 432.699059 
L 703.251377 425.816063 
L 713.256925 418.933068 
L 723.262473 412.050073 
L 733.268021 405.167077 
L 743.273569 398.284082 
L 753.279117 391.401087 
L 763.284665 384.518091 
L 773.290213 377.635096 
L 783.295761 370.752101 
L 793.301309 363.869105 
L 803.306857 356.98611 
L 813.312405 350.103115 
L 823.317953 343.220119 
L 833.323501 336.337124 
L 843.329049 329.454129 
L 853.334597 322.571133 
L 863.340145 315.688138 
L 873.345693 308.805143 
L 883.351241 301.922147 
L 893.356789 295.039152 
L 903.362337 288.156157 
L 913.367885 281.273161 
L 923.373433 274.390166 
L 933.378981 267.507171 
L 943.384529 260.624175 
L 953.390077 253.74118 
L 963.395625 246.858185 
L 973.401173 239.975189 
L 983.406721 233.092194 
L 993.412269 226.209199 
L 1003.417817 219.326203 
L 1013.423365 212.443208 
L 1023.428913 205.560213 
L 1033.434461 198.677217 
" style="fill:none;stroke:#0000ff;stroke-linecap:square;stroke-width:3;"/>
   </g>
   <g id="line2d_24">
    <defs>
     <path d="M 10 0 
L -10 -0 
" id="ma3b8edab9a" style="stroke:#ff7f0e;"/>
    </defs>
    <g clip-path="url(#p3ec61b4bcc)">
     <use style="fill:#ff7f0e;stroke:#ff7f0e;" x="133.984962" xlink:href="#ma3b8edab9a" y="1047.518797"/>
    </g>
   </g>
   <g id="line2d_25">
    <g clip-path="url(#p3ec61b4bcc)">
     <use style="fill:#ff7f0e;stroke:#ff7f0e;" x="133.984962" xlink:href="#ma3b8edab9a" y="905.413534"/>
    </g>
   </g>
   <g id="line2d_26">
    <g clip-path="url(#p3ec61b4bcc)">
     <use style="fill:#ff7f0e;stroke:#ff7f0e;" x="336.992481" xlink:href="#ma3b8edab9a" y="1022.142857"/>
    </g>
   </g>
   <g id="line2d_27">
    <g clip-path="url(#p3ec61b4bcc)">
     <use style="fill:#ff7f0e;stroke:#ff7f0e;" x="336.992481" xlink:href="#ma3b8edab9a" y="474.022556"/>
    </g>
   </g>
   <g id="line2d_28">
    <g clip-path="url(#p3ec61b4bcc)">
     <use style="fill:#ff7f0e;stroke:#ff7f0e;" x="540" xlink:href="#ma3b8edab9a" y="847.302632"/>
    </g>
   </g>
   <g id="line2d_29">
    <g clip-path="url(#p3ec61b4bcc)">
     <use style="fill:#ff7f0e;stroke:#ff7f0e;" x="540" xlink:href="#ma3b8edab9a" y="311.616541"/>
    </g>
   </g>
   <g id="line2d_30">
    <g clip-path="url(#p3ec61b4bcc)">
     <use style="fill:#ff7f0e;stroke:#ff7f0e;" x="743.007519" xlink:href="#ma3b8edab9a" y="616.889098"/>
    </g>
   </g>
   <g id="line2d_31">
    <g clip-path="url(#p3ec61b4bcc)">
     <use style="fill:#ff7f0e;stroke:#ff7f0e;" x="743.007519" xlink:href="#ma3b8edab9a" y="68.007519"/>
    </g>
   </g>
   <g id="line2d_32">
    <g clip-path="url(#p3ec61b4bcc)">
     <use style="fill:#ff7f0e;stroke:#ff7f0e;" x="946.015038" xlink:href="#ma3b8edab9a" y="230.413534"/>
    </g>
   </g>
   <g id="line2d_33">
    <g clip-path="url(#p3ec61b4bcc)">
     <use style="fill:#ff7f0e;stroke:#ff7f0e;" x="946.015038" xlink:href="#ma3b8edab9a" y="32.481203"/>
    </g>
   </g>
   <g id="line2d_34">
    <path clip-path="url(#p3ec61b4bcc)" d="M 68.745263 970.198963 
L 78.077257 961.02542 
L 87.40925 951.851878 
L 96.741244 942.678336 
L 106.073238 933.504794 
L 115.405232 924.331252 
L 124.737225 915.15771 
L 134.069219 905.984168 
L 143.401213 896.810625 
L 152.733207 887.637083 
L 162.065201 878.463541 
L 171.397194 869.289999 
L 180.729188 860.116457 
L 190.061182 850.942915 
L 199.393176 841.769372 
L 208.725169 832.59583 
L 218.057163 823.422288 
L 227.389157 814.248746 
L 236.721151 805.075204 
L 246.053145 795.901662 
L 255.385138 786.72812 
L 264.717132 777.554577 
L 274.049126 768.381035 
L 283.38112 759.207493 
L 292.713113 750.033951 
L 302.045107 740.860409 
L 311.377101 731.686867 
L 320.709095 722.513324 
L 330.041089 713.339782 
L 339.373082 704.16624 
L 348.705076 694.992698 
L 358.03707 685.819156 
L 367.369064 676.645614 
L 376.701057 667.472072 
L 386.033051 658.298529 
L 395.365045 649.124987 
L 404.697039 639.951445 
L 414.029033 630.777903 
L 423.361026 621.604361 
L 432.69302 612.430819 
L 442.025014 603.257276 
L 451.357008 594.083734 
L 460.689001 584.910192 
L 470.020995 575.73665 
L 479.352989 566.563108 
L 488.684983 557.389566 
L 498.016977 548.216024 
L 507.34897 539.042481 
L 516.680964 529.868939 
L 526.012958 520.695397 
L 535.344952 511.521855 
L 544.676945 502.348313 
L 554.008939 493.174771 
L 563.340933 484.001228 
L 572.672927 474.827686 
L 582.004921 465.654144 
L 591.336914 456.480602 
L 600.668908 447.30706 
L 610.000902 438.133518 
L 619.332896 428.959976 
L 628.664889 419.786433 
L 637.996883 410.612891 
L 647.328877 401.439349 
L 656.660871 392.265807 
L 665.992865 383.092265 
L 675.324858 373.918723 
L 684.656852 364.74518 
L 693.988846 355.571638 
L 703.32084 346.398096 
L 712.652833 337.224554 
L 721.984827 328.051012 
L 731.316821 318.87747 
L 740.648815 309.703928 
L 749.980809 300.530385 
L 759.312802 291.356843 
L 768.644796 282.183301 
L 777.97679 273.009759 
L 787.308784 263.836217 
L 796.640777 254.662675 
L 805.972771 245.489132 
L 815.304765 236.31559 
L 824.636759 227.142048 
L 833.968753 217.968506 
L 843.300746 208.794964 
L 852.63274 199.621422 
L 861.964734 190.44788 
L 871.296728 181.274337 
L 880.628721 172.100795 
L 889.960715 162.927253 
L 899.292709 153.753711 
L 908.624703 144.580169 
L 917.956697 135.406627 
L 927.28869 126.233084 
L 936.620684 117.059542 
L 945.952678 107.886 
L 955.284672 98.712458 
L 964.616665 89.538916 
L 973.948659 80.365374 
L 983.280653 71.191832 
L 992.612647 62.018289 
" style="fill:none;stroke:#ff7f0e;stroke-linecap:square;stroke-width:3;"/>
   </g>
   <g id="line2d_35">
    <defs>
     <path d="M 10 0 
L -10 -0 
" id="mb3185eca40" style="stroke:#008000;"/>
    </defs>
    <g clip-path="url(#p3ec61b4bcc)">
     <use style="fill:#008000;stroke:#008000;" x="149.210526" xlink:href="#mb3185eca40" y="1047.518797"/>
    </g>
   </g>
   <g id="line2d_36">
    <g clip-path="url(#p3ec61b4bcc)">
     <use style="fill:#008000;stroke:#008000;" x="149.210526" xlink:href="#mb3185eca40" y="959.971805"/>
    </g>
   </g>
   <g id="line2d_37">
    <g clip-path="url(#p3ec61b4bcc)">
     <use style="fill:#008000;stroke:#008000;" x="352.218045" xlink:href="#mb3185eca40" y="1017.067669"/>
    </g>
   </g>
   <g id="line2d_38">
    <g clip-path="url(#p3ec61b4bcc)">
     <use style="fill:#008000;stroke:#008000;" x="352.218045" xlink:href="#mb3185eca40" y="540"/>
    </g>
   </g>
   <g id="line2d_39">
    <g clip-path="url(#p3ec61b4bcc)">
     <use style="fill:#008000;stroke:#008000;" x="555.225564" xlink:href="#mb3185eca40" y="819.135338"/>
    </g>
   </g>
   <g id="line2d_40">
    <g clip-path="url(#p3ec61b4bcc)">
     <use style="fill:#008000;stroke:#008000;" x="555.225564" xlink:href="#mb3185eca40" y="377.593985"/>
    </g>
   </g>
   <g id="line2d_41">
    <g clip-path="url(#p3ec61b4bcc)">
     <use style="fill:#008000;stroke:#008000;" x="758.233083" xlink:href="#mb3185eca40" y="642.265038"/>
    </g>
   </g>
   <g id="line2d_42">
    <g clip-path="url(#p3ec61b4bcc)">
     <use style="fill:#008000;stroke:#008000;" x="758.233083" xlink:href="#mb3185eca40" y="108.609023"/>
    </g>
   </g>
   <g id="line2d_43">
    <g clip-path="url(#p3ec61b4bcc)">
     <use style="fill:#008000;stroke:#008000;" x="961.240602" xlink:href="#mb3185eca40" y="276.090226"/>
    </g>
   </g>
   <g id="line2d_44">
    <g clip-path="url(#p3ec61b4bcc)">
     <use style="fill:#008000;stroke:#008000;" x="961.240602" xlink:href="#mb3185eca40" y="32.481203"/>
    </g>
   </g>
   <g id="line2d_45">
    <path clip-path="url(#p3ec61b4bcc)" d="M 68.609757 1010.597689 
L 78.036453 1001.136042 
L 87.463148 991.674395 
L 96.889843 982.212748 
L 106.316539 972.751101 
L 115.743234 963.289453 
L 125.169929 953.827806 
L 134.596624 944.366159 
L 144.02332 934.904512 
L 153.450015 925.442865 
L 162.87671 915.981218 
L 172.303406 906.51957 
L 181.730101 897.057923 
L 191.156796 887.596276 
L 200.583492 878.134629 
L 210.010187 868.672982 
L 219.436882 859.211335 
L 228.863578 849.749687 
L 238.290273 840.28804 
L 247.716968 830.826393 
L 257.143663 821.364746 
L 266.570359 811.903099 
L 275.997054 802.441452 
L 285.423749 792.979804 
L 294.850445 783.518157 
L 304.27714 774.05651 
L 313.703835 764.594863 
L 323.130531 755.133216 
L 332.557226 745.671569 
L 341.983921 736.209921 
L 351.410616 726.748274 
L 360.837312 717.286627 
L 370.264007 707.82498 
L 379.690702 698.363333 
L 389.117398 688.901686 
L 398.544093 679.440038 
L 407.970788 669.978391 
L 417.397484 660.516744 
L 426.824179 651.055097 
L 436.250874 641.59345 
L 445.67757 632.131803 
L 455.104265 622.670155 
L 464.53096 613.208508 
L 473.957655 603.746861 
L 483.384351 594.285214 
L 492.811046 584.823567 
L 502.237741 575.36192 
L 511.664437 565.900273 
L 521.091132 556.438625 
L 530.517827 546.976978 
L 539.944523 537.515331 
L 549.371218 528.053684 
L 558.797913 518.592037 
L 568.224609 509.13039 
L 577.651304 499.668742 
L 587.077999 490.207095 
L 596.504694 480.745448 
L 605.93139 471.283801 
L 615.358085 461.822154 
L 624.78478 452.360507 
L 634.211476 442.898859 
L 643.638171 433.437212 
L 653.064866 423.975565 
L 662.491562 414.513918 
L 671.918257 405.052271 
L 681.344952 395.590624 
L 690.771648 386.128976 
L 700.198343 376.667329 
L 709.625038 367.205682 
L 719.051733 357.744035 
L 728.478429 348.282388 
L 737.905124 338.820741 
L 747.331819 329.359093 
L 756.758515 319.897446 
L 766.18521 310.435799 
L 775.611905 300.974152 
L 785.038601 291.512505 
L 794.465296 282.050858 
L 803.891991 272.58921 
L 813.318686 263.127563 
L 822.745382 253.665916 
L 832.172077 244.204269 
L 841.598772 234.742622 
L 851.025468 225.280975 
L 860.452163 215.819327 
L 869.878858 206.35768 
L 879.305554 196.896033 
L 888.732249 187.434386 
L 898.158944 177.972739 
L 907.58564 168.511092 
L 917.012335 159.049444 
L 926.43903 149.587797 
L 935.865725 140.12615 
L 945.292421 130.664503 
L 954.719116 121.202856 
L 964.145811 111.741209 
L 973.572507 102.279561 
L 982.999202 92.817914 
L 992.425897 83.356267 
L 1001.852593 73.89462 
" style="fill:none;stroke:#008000;stroke-linecap:square;stroke-width:3;"/>
   </g>
   <g id="line2d_46">
    <path clip-path="url(#p3ec61b4bcc)" d="M 118.759398 1047.518797 
" style="fill:none;stroke:#0000ff;stroke-linecap:square;stroke-width:1.5;"/>
   </g>
   <g id="line2d_47">
    <path clip-path="url(#p3ec61b4bcc)" d="M 321.766917 910.488722 
" style="fill:none;stroke:#0000ff;stroke-linecap:square;stroke-width:1.5;"/>
   </g>
   <g id="line2d_48">
    <path clip-path="url(#p3ec61b4bcc)" d="M 524.774436 1047.518797 
" style="fill:none;stroke:#0000ff;stroke-linecap:square;stroke-width:1.5;"/>
   </g>
   <g id="line2d_49">
    <path clip-path="url(#p3ec61b4bcc)" d="M 727.781955 793.759398 
" style="fill:none;stroke:#0000ff;stroke-linecap:square;stroke-width:1.5;"/>
   </g>
   <g id="line2d_50">
    <path clip-path="url(#p3ec61b4bcc)" d="M 930.789474 474.022556 
" style="fill:none;stroke:#0000ff;stroke-linecap:square;stroke-width:1.5;"/>
   </g>
   <g id="line2d_51">
    <path clip-path="url(#p3ec61b4bcc)" d="M 133.984962 1047.518797 
" style="fill:none;stroke:#ff7f0e;stroke-linecap:square;stroke-width:1.5;"/>
   </g>
   <g id="line2d_52">
    <path clip-path="url(#p3ec61b4bcc)" d="M 336.992481 1022.142857 
" style="fill:none;stroke:#ff7f0e;stroke-linecap:square;stroke-width:1.5;"/>
   </g>
   <g id="line2d_53">
    <path clip-path="url(#p3ec61b4bcc)" d="M 540 847.302632 
" style="fill:none;stroke:#ff7f0e;stroke-linecap:square;stroke-width:1.5;"/>
   </g>
   <g id="line2d_54">
    <path clip-path="url(#p3ec61b4bcc)" d="M 743.007519 616.889098 
" style="fill:none;stroke:#ff7f0e;stroke-linecap:square;stroke-width:1.5;"/>
   </g>
   <g id="line2d_55">
    <path clip-path="url(#p3ec61b4bcc)" d="M 946.015038 230.413534 
" style="fill:none;stroke:#ff7f0e;stroke-linecap:square;stroke-width:1.5;"/>
   </g>
   <g id="line2d_56">
    <path clip-path="url(#p3ec61b4bcc)" d="M 149.210526 1047.518797 
" style="fill:none;stroke:#008000;stroke-linecap:square;stroke-width:1.5;"/>
   </g>
   <g id="line2d_57">
    <path clip-path="url(#p3ec61b4bcc)" d="M 352.218045 1017.067669 
" style="fill:none;stroke:#008000;stroke-linecap:square;stroke-width:1.5;"/>
   </g>
   <g id="line2d_58">
    <path clip-path="url(#p3ec61b4bcc)" d="M 555.225564 819.135338 
" style="fill:none;stroke:#008000;stroke-linecap:square;stroke-width:1.5;"/>
   </g>
   <g id="line2d_59">
    <path clip-path="url(#p3ec61b4bcc)" d="M 758.233083 642.265038 
" style="fill:none;stroke:#008000;stroke-linecap:square;stroke-width:1.5;"/>
   </g>
   <g id="line2d_60">
    <path clip-path="url(#p3ec61b4bcc)" d="M 961.240602 276.090226 
" style="fill:none;stroke:#008000;stroke-linecap:square;stroke-width:1.5;"/>
   </g>
   <g id="patch_3">
    <path d="M 0 1080 
L 0 0 
" style="fill:none;stroke:#000000;stroke-linecap:square;stroke-linejoin:miter;stroke-width:0.8;"/>
   </g>
   <g id="patch_4">
    <path d="M 1080 1080 
L 1080 0 
" style="fill:none;stroke:#000000;stroke-linecap:square;stroke-linejoin:miter;stroke-width:0.8;"/>
   </g>
   <g id="patch_5">
    <path d="M 0 1080 
L 1080 1080 
" style="fill:none;stroke:#000000;stroke-linecap:square;stroke-linejoin:miter;stroke-width:0.8;"/>
   </g>
   <g id="patch_6">
    <path d="M 0 0 
L 1080 0 
" style="fill:none;stroke:#000000;stroke-linecap:square;stroke-linejoin:miter;stroke-width:0.8;"/>
   </g>
  </g>
  <g id="axes_2">
   <g id="patch_7">
    <path d="M 54 324 
L 324 324 
L 324 54 
L 54 54 
z
" style="fill:#ffffff;"/>
   </g>
   <g id="PathCollection_16">
    <defs>
     <path d="M 37.080992 0 
L -37.080992 -0 
" id="m23a1202493" style="stroke:#0000ff;stroke-width:1.5;"/>
    </defs>
    <g clip-path="url(#pe425d34e7c)">
     <use style="fill:#0000ff;stroke:#0000ff;stroke-width:1.5;" x="104.360502" xlink:href="#m23a1202493" y="196.236188"/>
    </g>
   </g>
   <g id="PathCollection_17">
    <g clip-path="url(#pe425d34e7c)">
     <use style="fill:#0000ff;stroke:#0000ff;stroke-width:1.5;" x="104.360502" xlink:href="#m23a1202493" y="187.195397"/>
    </g>
   </g>
   <g id="PathCollection_18">
    <g clip-path="url(#pe425d34e7c)">
     <use style="fill:#0000ff;stroke:#0000ff;stroke-width:1.5;" x="104.360502" xlink:href="#m23a1202493" y="224.023759"/>
    </g>
   </g>
   <g id="PathCollection_19">
    <g clip-path="url(#pe425d34e7c)">
     <use style="fill:#0000ff;stroke:#0000ff;stroke-width:1.5;" x="104.360502" xlink:href="#m23a1202493" y="206.073801"/>
    </g>
   </g>
   <g id="PathCollection_20">
    <g clip-path="url(#pe425d34e7c)">
     <use style="fill:#0000ff;stroke:#0000ff;stroke-width:1.5;" x="104.360502" xlink:href="#m23a1202493" y="213.179126"/>
    </g>
   </g>
   <g id="PathCollection_21">
    <g clip-path="url(#pe425d34e7c)">
     <use style="fill:#0000ff;stroke:#0000ff;stroke-width:1.5;" x="104.360502" xlink:href="#m23a1202493" y="191.792375"/>
    </g>
   </g>
   <g id="PathCollection_22">
    <g clip-path="url(#pe425d34e7c)">
     <use style="fill:#0000ff;stroke:#0000ff;stroke-width:1.5;" x="104.360502" xlink:href="#m23a1202493" y="198.352209"/>
    </g>
   </g>
   <g id="PathCollection_23">
    <g clip-path="url(#pe425d34e7c)">
     <use style="fill:#0000ff;stroke:#0000ff;stroke-width:1.5;" x="104.360502" xlink:href="#m23a1202493" y="209.329234"/>
    </g>
   </g>
   <g id="PathCollection_24">
    <g clip-path="url(#pe425d34e7c)">
     <use style="fill:#0000ff;stroke:#0000ff;stroke-width:1.5;" x="104.360502" xlink:href="#m23a1202493" y="237.785154"/>
    </g>
   </g>
   <g id="PathCollection_25">
    <g clip-path="url(#pe425d34e7c)">
     <use style="fill:#0000ff;stroke:#0000ff;stroke-width:1.5;" x="104.360502" xlink:href="#m23a1202493" y="196.640938"/>
    </g>
   </g>
   <g id="PathCollection_26">
    <g clip-path="url(#pe425d34e7c)">
     <use style="fill:#0000ff;stroke:#0000ff;stroke-width:1.5;" x="104.360502" xlink:href="#m23a1202493" y="197.520091"/>
    </g>
   </g>
   <g id="PathCollection_27">
    <g clip-path="url(#pe425d34e7c)">
     <use style="fill:#0000ff;stroke:#0000ff;stroke-width:1.5;" x="104.360502" xlink:href="#m23a1202493" y="222.64201"/>
    </g>
   </g>
   <g id="PathCollection_28">
    <defs>
     <path d="M 37.080992 0 
L -37.080992 -0 
" id="m738ee26fbc" style="stroke:#ff7f0e;stroke-width:1.5;"/>
    </defs>
    <g clip-path="url(#pe425d34e7c)">
     <use style="fill:#ff7f0e;stroke:#ff7f0e;stroke-width:1.5;" x="189" xlink:href="#m738ee26fbc" y="173.288519"/>
    </g>
   </g>
   <g id="PathCollection_29">
    <g clip-path="url(#pe425d34e7c)">
     <use style="fill:#ff7f0e;stroke:#ff7f0e;stroke-width:1.5;" x="189" xlink:href="#m738ee26fbc" y="179.510736"/>
    </g>
   </g>
   <g id="PathCollection_30">
    <g clip-path="url(#pe425d34e7c)">
     <use style="fill:#ff7f0e;stroke:#ff7f0e;stroke-width:1.5;" x="189" xlink:href="#m738ee26fbc" y="231.992951"/>
    </g>
   </g>
   <g id="PathCollection_31">
    <g clip-path="url(#pe425d34e7c)">
     <use style="fill:#ff7f0e;stroke:#ff7f0e;stroke-width:1.5;" x="189" xlink:href="#m738ee26fbc" y="206.394989"/>
    </g>
   </g>
   <g id="PathCollection_32">
    <g clip-path="url(#pe425d34e7c)">
     <use style="fill:#ff7f0e;stroke:#ff7f0e;stroke-width:1.5;" x="189" xlink:href="#m738ee26fbc" y="210.928828"/>
    </g>
   </g>
   <g id="PathCollection_33">
    <g clip-path="url(#pe425d34e7c)">
     <use style="fill:#ff7f0e;stroke:#ff7f0e;stroke-width:1.5;" x="189" xlink:href="#m738ee26fbc" y="183.741033"/>
    </g>
   </g>
   <g id="PathCollection_34">
    <g clip-path="url(#pe425d34e7c)">
     <use style="fill:#ff7f0e;stroke:#ff7f0e;stroke-width:1.5;" x="189" xlink:href="#m738ee26fbc" y="194.133696"/>
    </g>
   </g>
   <g id="PathCollection_35">
    <g clip-path="url(#pe425d34e7c)">
     <use style="fill:#ff7f0e;stroke:#ff7f0e;stroke-width:1.5;" x="189" xlink:href="#m738ee26fbc" y="210.550541"/>
    </g>
   </g>
   <g id="PathCollection_36">
    <g clip-path="url(#pe425d34e7c)">
     <use style="fill:#ff7f0e;stroke:#ff7f0e;stroke-width:1.5;" x="189" xlink:href="#m738ee26fbc" y="227.375069"/>
    </g>
   </g>
   <g id="PathCollection_37">
    <g clip-path="url(#pe425d34e7c)">
     <use style="fill:#ff7f0e;stroke:#ff7f0e;stroke-width:1.5;" x="189" xlink:href="#m738ee26fbc" y="163.454266"/>
    </g>
   </g>
   <g id="PathCollection_38">
    <g clip-path="url(#pe425d34e7c)">
     <use style="fill:#ff7f0e;stroke:#ff7f0e;stroke-width:1.5;" x="189" xlink:href="#m738ee26fbc" y="195.403008"/>
    </g>
   </g>
   <g id="PathCollection_39">
    <g clip-path="url(#pe425d34e7c)">
     <use style="fill:#ff7f0e;stroke:#ff7f0e;stroke-width:1.5;" x="189" xlink:href="#m738ee26fbc" y="230.557685"/>
    </g>
   </g>
   <g id="PathCollection_40">
    <defs>
     <path d="M 37.080992 0 
L -37.080992 -0 
" id="mae701ef04d" style="stroke:#008000;stroke-width:1.5;"/>
    </defs>
    <g clip-path="url(#pe425d34e7c)">
     <use style="fill:#008000;stroke:#008000;stroke-width:1.5;" x="273.639498" xlink:href="#mae701ef04d" y="175.557843"/>
    </g>
   </g>
   <g id="PathCollection_41">
    <g clip-path="url(#pe425d34e7c)">
     <use style="fill:#008000;stroke:#008000;stroke-width:1.5;" x="273.639498" xlink:href="#mae701ef04d" y="165.342478"/>
    </g>
   </g>
   <g id="PathCollection_42">
    <g clip-path="url(#pe425d34e7c)">
     <use style="fill:#008000;stroke:#008000;stroke-width:1.5;" x="273.639498" xlink:href="#mae701ef04d" y="203.651811"/>
    </g>
   </g>
   <g id="PathCollection_43">
    <g clip-path="url(#pe425d34e7c)">
     <use style="fill:#008000;stroke:#008000;stroke-width:1.5;" x="273.639498" xlink:href="#mae701ef04d" y="187.618711"/>
    </g>
   </g>
   <g id="PathCollection_44">
    <g clip-path="url(#pe425d34e7c)">
     <use style="fill:#008000;stroke:#008000;stroke-width:1.5;" x="273.639498" xlink:href="#mae701ef04d" y="190.531937"/>
    </g>
   </g>
   <g id="PathCollection_45">
    <g clip-path="url(#pe425d34e7c)">
     <use style="fill:#008000;stroke:#008000;stroke-width:1.5;" x="273.639498" xlink:href="#mae701ef04d" y="167.00244"/>
    </g>
   </g>
   <g id="PathCollection_46">
    <g clip-path="url(#pe425d34e7c)">
     <use style="fill:#008000;stroke:#008000;stroke-width:1.5;" x="273.639498" xlink:href="#mae701ef04d" y="177.445335"/>
    </g>
   </g>
   <g id="PathCollection_47">
    <g clip-path="url(#pe425d34e7c)">
     <use style="fill:#008000;stroke:#008000;stroke-width:1.5;" x="273.639498" xlink:href="#mae701ef04d" y="191.928707"/>
    </g>
   </g>
   <g id="PathCollection_48">
    <g clip-path="url(#pe425d34e7c)">
     <use style="fill:#008000;stroke:#008000;stroke-width:1.5;" x="273.639498" xlink:href="#mae701ef04d" y="215.339119"/>
    </g>
   </g>
   <g id="PathCollection_49">
    <g clip-path="url(#pe425d34e7c)">
     <use style="fill:#008000;stroke:#008000;stroke-width:1.5;" x="273.639498" xlink:href="#mae701ef04d" y="179.532422"/>
    </g>
   </g>
   <g id="PathCollection_50">
    <g clip-path="url(#pe425d34e7c)">
     <use style="fill:#008000;stroke:#008000;stroke-width:1.5;" x="273.639498" xlink:href="#mae701ef04d" y="177.163724"/>
    </g>
   </g>
   <g id="PathCollection_51">
    <g clip-path="url(#pe425d34e7c)">
     <use style="fill:#008000;stroke:#008000;stroke-width:1.5;" x="273.639498" xlink:href="#mae701ef04d" y="209.58438"/>
    </g>
   </g>
   <g id="patch_8">
    <path clip-path="url(#pe425d34e7c)" d="M 66.272727 324 
L 142.448276 324 
L 142.448276 209.395892 
L 66.272727 209.395892 
z
" style="fill:#0000ff;opacity:0.4;"/>
   </g>
   <g id="patch_9">
    <path clip-path="url(#pe425d34e7c)" d="M 150.912226 324 
L 227.087774 324 
L 227.087774 203.883613 
L 150.912226 203.883613 
z
" style="fill:#ff7f0e;opacity:0.4;"/>
   </g>
   <g id="patch_10">
    <path clip-path="url(#pe425d34e7c)" d="M 235.551724 324 
L 311.727273 324 
L 311.727273 189.840318 
L 235.551724 189.840318 
z
" style="fill:#008000;opacity:0.4;"/>
   </g>
   <g id="matplotlib.axis_3">
    <g id="xtick_7">
     <g id="line2d_61">
      <g>
       <use style="stroke:#000000;stroke-width:0.8;" x="104.360502" xlink:href="#mb886234113" y="324"/>
      </g>
     </g>
    </g>
    <g id="xtick_8">
     <g id="line2d_62">
      <g>
       <use style="stroke:#000000;stroke-width:0.8;" x="189" xlink:href="#mb886234113" y="324"/>
      </g>
     </g>
    </g>
    <g id="xtick_9">
     <g id="line2d_63">
      <g>
       <use style="stroke:#000000;stroke-width:0.8;" x="273.639498" xlink:href="#mb886234113" y="324"/>
      </g>
     </g>
    </g>
   </g>
   <g id="matplotlib.axis_4">
    <g id="ytick_7">
     <g id="line2d_64">
      <g>
       <use style="stroke:#000000;stroke-width:0.8;" x="54" xlink:href="#m0d742ae58f" y="324"/>
      </g>
     </g>
     <g id="text_15">
      <!-- 0.0 -->
      <g transform="translate(11.659722 332.442708)scale(0.222222 -0.222222)">
       <use xlink:href="#DejaVuSans-48"/>
       <use x="63.623047" xlink:href="#DejaVuSans-46"/>
       <use x="95.410156" xlink:href="#DejaVuSans-48"/>
      </g>
     </g>
    </g>
    <g id="ytick_8">
     <g id="line2d_65">
      <g>
       <use style="stroke:#000000;stroke-width:0.8;" x="54" xlink:href="#m0d742ae58f" y="239.625"/>
      </g>
     </g>
     <g id="text_16">
      <!-- 0.5 -->
      <defs>
       <path d="M 10.796875 72.90625 
L 49.515625 72.90625 
L 49.515625 64.59375 
L 19.828125 64.59375 
L 19.828125 46.734375 
Q 21.96875 47.46875 24.109375 47.828125 
Q 26.265625 48.1875 28.421875 48.1875 
Q 40.625 48.1875 47.75 41.5 
Q 54.890625 34.8125 54.890625 23.390625 
Q 54.890625 11.625 47.5625 5.09375 
Q 40.234375 -1.421875 26.90625 -1.421875 
Q 22.3125 -1.421875 17.546875 -0.640625 
Q 12.796875 0.140625 7.71875 1.703125 
L 7.71875 11.625 
Q 12.109375 9.234375 16.796875 8.0625 
Q 21.484375 6.890625 26.703125 6.890625 
Q 35.15625 6.890625 40.078125 11.328125 
Q 45.015625 15.765625 45.015625 23.390625 
Q 45.015625 31 40.078125 35.4375 
Q 35.15625 39.890625 26.703125 39.890625 
Q 22.75 39.890625 18.8125 39.015625 
Q 14.890625 38.140625 10.796875 36.28125 
z
" id="DejaVuSans-53"/>
      </defs>
      <g transform="translate(11.659722 248.067708)scale(0.222222 -0.222222)">
       <use xlink:href="#DejaVuSans-48"/>
       <use x="63.623047" xlink:href="#DejaVuSans-46"/>
       <use x="95.410156" xlink:href="#DejaVuSans-53"/>
      </g>
     </g>
    </g>
    <g id="ytick_9">
     <g id="line2d_66">
      <g>
       <use style="stroke:#000000;stroke-width:0.8;" x="54" xlink:href="#m0d742ae58f" y="155.25"/>
      </g>
     </g>
     <g id="text_17">
      <!-- 1.0 -->
      <g transform="translate(11.659722 163.692708)scale(0.222222 -0.222222)">
       <use xlink:href="#DejaVuSans-49"/>
       <use x="63.623047" xlink:href="#DejaVuSans-46"/>
       <use x="95.410156" xlink:href="#DejaVuSans-48"/>
      </g>
     </g>
    </g>
   </g>
   <g id="LineCollection_16">
    <path clip-path="url(#pe425d34e7c)" d="M 87.432602 95.954266 
L 290.567398 95.954266 
" style="fill:none;stroke:#000000;stroke-width:1.5;"/>
   </g>
   <g id="LineCollection_17">
    <path clip-path="url(#pe425d34e7c)" d="M 197.46395 129.704266 
L 282.103448 129.704266 
" style="fill:none;stroke:#000000;stroke-width:1.5;"/>
   </g>
   <g id="patch_11">
    <path d="M 54 324 
L 54 54 
" style="fill:none;stroke:#000000;stroke-linecap:square;stroke-linejoin:miter;stroke-width:0.8;"/>
   </g>
   <g id="patch_12">
    <path d="M 54 324 
L 324 324 
" style="fill:none;stroke:#000000;stroke-linecap:square;stroke-linejoin:miter;stroke-width:0.8;"/>
   </g>
   <g id="text_18">
    <!-- 0.679 -->
    <defs>
     <path d="M 46 36.53125 
Q 46 50.203125 43.4375 55.78125 
Q 40.875 61.375 34.8125 61.375 
Q 28.765625 61.375 26.171875 55.78125 
Q 23.578125 50.203125 23.578125 36.53125 
Q 23.578125 22.703125 26.171875 17.03125 
Q 28.765625 11.375 34.8125 11.375 
Q 40.828125 11.375 43.40625 17.03125 
Q 46 22.703125 46 36.53125 
z
M 64.796875 36.375 
Q 64.796875 18.265625 56.984375 8.421875 
Q 49.171875 -1.421875 34.8125 -1.421875 
Q 20.40625 -1.421875 12.59375 8.421875 
Q 4.78125 18.265625 4.78125 36.375 
Q 4.78125 54.546875 12.59375 64.375 
Q 20.40625 74.21875 34.8125 74.21875 
Q 49.171875 74.21875 56.984375 64.375 
Q 64.796875 54.546875 64.796875 36.375 
z
" id="DejaVuSans-Bold-48"/>
     <path d="M 10.203125 18.890625 
L 27.78125 18.890625 
L 27.78125 0 
L 10.203125 0 
z
" id="DejaVuSans-Bold-46"/>
     <path d="M 36.1875 35.984375 
Q 31.25 35.984375 28.78125 32.78125 
Q 26.3125 29.59375 26.3125 23.1875 
Q 26.3125 16.796875 28.78125 13.59375 
Q 31.25 10.40625 36.1875 10.40625 
Q 41.15625 10.40625 43.625 13.59375 
Q 46.09375 16.796875 46.09375 23.1875 
Q 46.09375 29.59375 43.625 32.78125 
Q 41.15625 35.984375 36.1875 35.984375 
z
M 59.421875 71 
L 59.421875 57.515625 
Q 54.78125 59.71875 50.671875 60.765625 
Q 46.578125 61.8125 42.671875 61.8125 
Q 34.28125 61.8125 29.59375 57.140625 
Q 24.90625 52.484375 24.125 43.3125 
Q 27.34375 45.703125 31.09375 46.890625 
Q 34.859375 48.09375 39.3125 48.09375 
Q 50.484375 48.09375 57.34375 41.546875 
Q 64.203125 35.015625 64.203125 24.421875 
Q 64.203125 12.703125 56.53125 5.640625 
Q 48.875 -1.421875 35.984375 -1.421875 
Q 21.78125 -1.421875 13.984375 8.171875 
Q 6.203125 17.78125 6.203125 35.40625 
Q 6.203125 53.46875 15.3125 63.796875 
Q 24.421875 74.125 40.28125 74.125 
Q 45.3125 74.125 50.046875 73.34375 
Q 54.78125 72.5625 59.421875 71 
z
" id="DejaVuSans-Bold-54"/>
     <path d="M 6.6875 72.90625 
L 61.625 72.90625 
L 61.625 62.3125 
L 33.203125 0 
L 14.890625 0 
L 41.796875 59.078125 
L 6.6875 59.078125 
z
" id="DejaVuSans-Bold-55"/>
     <path d="M 10.015625 1.609375 
L 10.015625 15.09375 
Q 14.5 12.984375 18.59375 11.9375 
Q 22.703125 10.890625 26.703125 10.890625 
Q 35.109375 10.890625 39.796875 15.546875 
Q 44.484375 20.21875 45.3125 29.390625 
Q 42 26.953125 38.234375 25.734375 
Q 34.46875 24.515625 30.078125 24.515625 
Q 18.890625 24.515625 12.03125 31.03125 
Q 5.171875 37.546875 5.171875 48.1875 
Q 5.171875 59.96875 12.8125 67.046875 
Q 20.453125 74.125 33.296875 74.125 
Q 47.5625 74.125 55.375 64.5 
Q 63.1875 54.890625 63.1875 37.3125 
Q 63.1875 19.234375 54.046875 8.90625 
Q 44.921875 -1.421875 29 -1.421875 
Q 23.875 -1.421875 19.1875 -0.65625 
Q 14.5 0.09375 10.015625 1.609375 
z
M 33.203125 36.71875 
Q 38.140625 36.71875 40.625 39.90625 
Q 43.109375 43.109375 43.109375 49.515625 
Q 43.109375 55.859375 40.625 59.078125 
Q 38.140625 62.3125 33.203125 62.3125 
Q 28.265625 62.3125 25.78125 59.078125 
Q 23.296875 55.859375 23.296875 49.515625 
Q 23.296875 43.109375 25.78125 39.90625 
Q 28.265625 36.71875 33.203125 36.71875 
z
" id="DejaVuSans-Bold-57"/>
    </defs>
    <g style="fill:#0000ff;" transform="translate(69.216404 310.940972)scale(0.222222 -0.222222)">
     <use xlink:href="#DejaVuSans-Bold-48"/>
     <use x="69.580078" xlink:href="#DejaVuSans-Bold-46"/>
     <use x="107.568359" xlink:href="#DejaVuSans-Bold-54"/>
     <use x="177.148438" xlink:href="#DejaVuSans-Bold-55"/>
     <use x="246.728516" xlink:href="#DejaVuSans-Bold-57"/>
    </g>
   </g>
   <g id="text_19">
    <!-- $P_{real}$ -->
    <defs>
     <path d="M 44.578125 46.390625 
Q 43.21875 47.125 41.453125 47.515625 
Q 39.703125 47.90625 37.703125 47.90625 
Q 30.515625 47.90625 25.140625 42.453125 
Q 19.78125 37.015625 18.015625 27.875 
L 12.5 0 
L 3.515625 0 
L 14.203125 54.6875 
L 23.1875 54.6875 
L 21.484375 46.1875 
Q 25.046875 50.921875 30 53.453125 
Q 34.96875 56 40.578125 56 
Q 42.046875 56 43.453125 55.828125 
Q 44.875 55.671875 46.296875 55.28125 
z
" id="DejaVuSans-Oblique-114"/>
     <path d="M 48.09375 32.234375 
Q 48.25 33.015625 48.3125 33.84375 
Q 48.390625 34.671875 48.390625 35.5 
Q 48.390625 41.453125 44.890625 44.921875 
Q 41.40625 48.390625 35.40625 48.390625 
Q 28.71875 48.390625 23.578125 44.15625 
Q 18.453125 39.9375 15.828125 32.171875 
z
M 55.90625 25.203125 
L 14.109375 25.203125 
Q 13.8125 23.34375 13.71875 22.265625 
Q 13.625 21.1875 13.625 20.40625 
Q 13.625 13.625 17.796875 9.90625 
Q 21.96875 6.203125 29.59375 6.203125 
Q 35.453125 6.203125 40.671875 7.515625 
Q 45.90625 8.84375 50.390625 11.375 
L 48.6875 2.484375 
Q 43.84375 0.53125 38.6875 -0.4375 
Q 33.546875 -1.421875 28.21875 -1.421875 
Q 16.84375 -1.421875 10.71875 4.015625 
Q 4.59375 9.46875 4.59375 19.484375 
Q 4.59375 28.03125 7.640625 35.375 
Q 10.6875 42.71875 16.609375 48.484375 
Q 20.40625 52.09375 25.65625 54.046875 
Q 30.90625 56 36.8125 56 
Q 46.09375 56 51.578125 50.4375 
Q 57.078125 44.875 57.078125 35.5 
Q 57.078125 33.25 56.78125 30.6875 
Q 56.5 28.125 55.90625 25.203125 
z
" id="DejaVuSans-Oblique-101"/>
     <path d="M 53.71875 31.203125 
L 47.609375 0 
L 38.625 0 
L 40.28125 8.296875 
Q 36.328125 3.421875 31.265625 1 
Q 26.21875 -1.421875 20.015625 -1.421875 
Q 13.03125 -1.421875 8.5625 2.84375 
Q 4.109375 7.125 4.109375 13.8125 
Q 4.109375 23.390625 11.75 28.953125 
Q 19.390625 34.515625 32.8125 34.515625 
L 45.3125 34.515625 
L 45.796875 36.921875 
Q 45.90625 37.3125 45.953125 37.765625 
Q 46 38.234375 46 39.203125 
Q 46 43.5625 42.453125 45.96875 
Q 38.921875 48.390625 32.515625 48.390625 
Q 28.125 48.390625 23.5 47.265625 
Q 18.890625 46.140625 14.015625 43.890625 
L 15.578125 52.203125 
Q 20.65625 54.109375 25.515625 55.046875 
Q 30.375 56 34.90625 56 
Q 44.578125 56 49.625 51.796875 
Q 54.6875 47.609375 54.6875 39.59375 
Q 54.6875 37.984375 54.4375 35.8125 
Q 54.203125 33.640625 53.71875 31.203125 
z
M 44 27.484375 
L 35.015625 27.484375 
Q 23.96875 27.484375 18.671875 24.53125 
Q 13.375 21.578125 13.375 15.375 
Q 13.375 11.078125 16.078125 8.640625 
Q 18.796875 6.203125 23.578125 6.203125 
Q 30.90625 6.203125 36.375 11.453125 
Q 41.84375 16.703125 43.609375 25.484375 
z
" id="DejaVuSans-Oblique-97"/>
     <path d="M 18.3125 75.984375 
L 27.296875 75.984375 
L 12.5 0 
L 3.515625 0 
z
" id="DejaVuSans-Oblique-108"/>
    </defs>
    <g style="fill:#0000ff;" transform="translate(74.660502 355.232813)scale(0.3 -0.3)">
     <use transform="translate(0 0.09375)" xlink:href="#DejaVuSans-Oblique-80"/>
     <use transform="translate(60.302734 -16.3125)scale(0.7)" xlink:href="#DejaVuSans-Oblique-114"/>
     <use transform="translate(89.082031 -16.3125)scale(0.7)" xlink:href="#DejaVuSans-Oblique-101"/>
     <use transform="translate(132.148438 -16.3125)scale(0.7)" xlink:href="#DejaVuSans-Oblique-97"/>
     <use transform="translate(175.043945 -16.3125)scale(0.7)" xlink:href="#DejaVuSans-Oblique-108"/>
    </g>
   </g>
   <g id="text_20">
    <!-- 0.712 -->
    <defs>
     <path d="M 11.71875 12.984375 
L 28.328125 12.984375 
L 28.328125 60.109375 
L 11.28125 56.59375 
L 11.28125 69.390625 
L 28.21875 72.90625 
L 46.09375 72.90625 
L 46.09375 12.984375 
L 62.703125 12.984375 
L 62.703125 0 
L 11.71875 0 
z
" id="DejaVuSans-Bold-49"/>
     <path d="M 28.8125 13.8125 
L 60.890625 13.8125 
L 60.890625 0 
L 7.90625 0 
L 7.90625 13.8125 
L 34.515625 37.3125 
Q 38.09375 40.53125 39.796875 43.609375 
Q 41.5 46.6875 41.5 50 
Q 41.5 55.125 38.0625 58.25 
Q 34.625 61.375 28.90625 61.375 
Q 24.515625 61.375 19.28125 59.5 
Q 14.0625 57.625 8.109375 53.90625 
L 8.109375 69.921875 
Q 14.453125 72.015625 20.65625 73.109375 
Q 26.859375 74.21875 32.8125 74.21875 
Q 45.90625 74.21875 53.15625 68.453125 
Q 60.40625 62.703125 60.40625 52.390625 
Q 60.40625 46.4375 57.328125 41.28125 
Q 54.25 36.140625 44.390625 27.484375 
z
" id="DejaVuSans-Bold-50"/>
    </defs>
    <g style="fill:#ff7f0e;" transform="translate(153.855903 310.940972)scale(0.222222 -0.222222)">
     <use xlink:href="#DejaVuSans-Bold-48"/>
     <use x="69.580078" xlink:href="#DejaVuSans-Bold-46"/>
     <use x="107.568359" xlink:href="#DejaVuSans-Bold-55"/>
     <use x="177.148438" xlink:href="#DejaVuSans-Bold-49"/>
     <use x="246.728516" xlink:href="#DejaVuSans-Bold-50"/>
    </g>
   </g>
   <g id="text_21">
    <!-- $\hat{P}_{leaky}$ -->
    <defs>
     <path d="M 18.3125 75.984375 
L 27.296875 75.984375 
L 18.703125 31.6875 
L 49.515625 54.6875 
L 61.1875 54.6875 
L 26.8125 28.515625 
L 51.90625 0 
L 41.015625 0 
L 17.671875 26.703125 
L 12.5 0 
L 3.515625 0 
z
" id="DejaVuSans-Oblique-107"/>
     <path d="M 24.8125 -5.078125 
Q 18.5625 -15.578125 14.625 -18.1875 
Q 10.6875 -20.796875 4.59375 -20.796875 
L -2.484375 -20.796875 
L -0.984375 -13.28125 
L 4.203125 -13.28125 
Q 7.953125 -13.28125 10.59375 -11.234375 
Q 13.234375 -9.1875 16.5 -3.21875 
L 19.28125 2 
L 7.171875 54.6875 
L 16.703125 54.6875 
L 25.78125 12.796875 
L 50.875 54.6875 
L 60.296875 54.6875 
z
" id="DejaVuSans-Oblique-121"/>
    </defs>
    <g style="fill:#ff7f0e;" transform="translate(151.2 365.4375)scale(0.3 -0.3)">
     <use transform="translate(62.653809 30.015625)" xlink:href="#DejaVuSans-770"/>
     <use transform="translate(0 0.609375)" xlink:href="#DejaVuSans-Oblique-80"/>
     <use transform="translate(61.259766 -15.796875)scale(0.7)" xlink:href="#DejaVuSans-Oblique-108"/>
     <use transform="translate(80.708008 -15.796875)scale(0.7)" xlink:href="#DejaVuSans-Oblique-101"/>
     <use transform="translate(123.774414 -15.796875)scale(0.7)" xlink:href="#DejaVuSans-Oblique-97"/>
     <use transform="translate(166.669922 -15.796875)scale(0.7)" xlink:href="#DejaVuSans-Oblique-107"/>
     <use transform="translate(207.207031 -15.796875)scale(0.7)" xlink:href="#DejaVuSans-Oblique-121"/>
    </g>
   </g>
   <g id="text_22">
    <!-- 0.795 -->
    <defs>
     <path d="M 10.59375 72.90625 
L 57.328125 72.90625 
L 57.328125 59.078125 
L 25.59375 59.078125 
L 25.59375 47.796875 
Q 27.734375 48.390625 29.90625 48.703125 
Q 32.078125 49.03125 34.421875 49.03125 
Q 47.75 49.03125 55.171875 42.359375 
Q 62.59375 35.6875 62.59375 23.78125 
Q 62.59375 11.96875 54.515625 5.265625 
Q 46.4375 -1.421875 32.078125 -1.421875 
Q 25.875 -1.421875 19.796875 -0.21875 
Q 13.71875 0.984375 7.71875 3.421875 
L 7.71875 18.21875 
Q 13.671875 14.796875 19.015625 13.078125 
Q 24.359375 11.375 29.109375 11.375 
Q 35.9375 11.375 39.859375 14.71875 
Q 43.796875 18.0625 43.796875 23.78125 
Q 43.796875 29.546875 39.859375 32.859375 
Q 35.9375 36.1875 29.109375 36.1875 
Q 25.046875 36.1875 20.453125 35.125 
Q 15.875 34.078125 10.59375 31.890625 
z
" id="DejaVuSans-Bold-53"/>
    </defs>
    <g style="fill:#008000;" transform="translate(238.495401 310.940972)scale(0.222222 -0.222222)">
     <use xlink:href="#DejaVuSans-Bold-48"/>
     <use x="69.580078" xlink:href="#DejaVuSans-Bold-46"/>
     <use x="107.568359" xlink:href="#DejaVuSans-Bold-55"/>
     <use x="177.148438" xlink:href="#DejaVuSans-Bold-57"/>
     <use x="246.728516" xlink:href="#DejaVuSans-Bold-53"/>
    </g>
   </g>
   <g id="text_23">
    <!-- $\hat{P}_{mean}$ -->
    <defs>
     <path d="M 89.796875 33.015625 
L 83.40625 0 
L 74.421875 0 
L 80.71875 32.71875 
Q 81.109375 34.8125 81.296875 36.328125 
Q 81.5 37.84375 81.5 38.921875 
Q 81.5 43.3125 79.046875 45.75 
Q 76.609375 48.1875 72.21875 48.1875 
Q 65.671875 48.1875 60.546875 43.28125 
Q 55.421875 38.375 53.90625 30.515625 
L 47.90625 0 
L 38.921875 0 
L 45.3125 32.71875 
Q 45.703125 34.515625 45.890625 36.046875 
Q 46.09375 37.59375 46.09375 38.8125 
Q 46.09375 43.265625 43.65625 45.71875 
Q 41.21875 48.1875 36.921875 48.1875 
Q 30.28125 48.1875 25.140625 43.28125 
Q 20.015625 38.375 18.5 30.515625 
L 12.5 0 
L 3.515625 0 
L 14.203125 54.6875 
L 23.1875 54.6875 
L 21.484375 46.1875 
Q 25.140625 50.984375 30.046875 53.484375 
Q 34.96875 56 40.578125 56 
Q 46.53125 56 50.359375 52.875 
Q 54.203125 49.75 54.984375 44.1875 
Q 59.078125 49.953125 64.46875 52.96875 
Q 69.875 56 75.875 56 
Q 82.90625 56 86.734375 51.953125 
Q 90.578125 47.90625 90.578125 40.484375 
Q 90.578125 38.875 90.375 36.9375 
Q 90.1875 35.015625 89.796875 33.015625 
z
" id="DejaVuSans-Oblique-109"/>
     <path d="M 55.71875 33.015625 
L 49.3125 0 
L 40.28125 0 
L 46.6875 32.671875 
Q 47.125 34.96875 47.359375 36.71875 
Q 47.609375 38.484375 47.609375 39.5 
Q 47.609375 43.609375 45.015625 45.890625 
Q 42.4375 48.1875 37.796875 48.1875 
Q 30.5625 48.1875 25.34375 43.375 
Q 20.125 38.578125 18.5 30.328125 
L 12.5 0 
L 3.515625 0 
L 14.109375 54.6875 
L 23.09375 54.6875 
L 21.296875 46.09375 
Q 25.046875 50.828125 30.3125 53.40625 
Q 35.59375 56 41.40625 56 
Q 48.640625 56 52.609375 52.09375 
Q 56.59375 48.1875 56.59375 41.109375 
Q 56.59375 39.359375 56.375 37.359375 
Q 56.15625 35.359375 55.71875 33.015625 
z
" id="DejaVuSans-Oblique-110"/>
    </defs>
    <g style="fill:#008000;" transform="translate(234.189498 364.598438)scale(0.3 -0.3)">
     <use transform="translate(62.653809 30.015625)" xlink:href="#DejaVuSans-770"/>
     <use transform="translate(0 0.609375)" xlink:href="#DejaVuSans-Oblique-80"/>
     <use transform="translate(61.259766 -15.796875)scale(0.7)" xlink:href="#DejaVuSans-Oblique-109"/>
     <use transform="translate(129.448242 -15.796875)scale(0.7)" xlink:href="#DejaVuSans-Oblique-101"/>
     <use transform="translate(172.514648 -15.796875)scale(0.7)" xlink:href="#DejaVuSans-Oblique-97"/>
     <use transform="translate(215.410156 -15.796875)scale(0.7)" xlink:href="#DejaVuSans-Oblique-110"/>
    </g>
   </g>
   <g id="text_24">
    <!-- ** -->
    <defs>
     <path d="M 47.015625 60.890625 
L 29.5 51.421875 
L 47.015625 41.890625 
L 44.1875 37.109375 
L 27.78125 47.015625 
L 27.78125 28.609375 
L 22.21875 28.609375 
L 22.21875 47.015625 
L 5.8125 37.109375 
L 2.984375 41.890625 
L 20.515625 51.421875 
L 2.984375 60.890625 
L 5.8125 65.71875 
L 22.21875 55.8125 
L 22.21875 74.21875 
L 27.78125 74.21875 
L 27.78125 55.8125 
L 44.1875 65.71875 
z
" id="DejaVuSans-42"/>
    </defs>
    <g transform="translate(174.714286 95.954266)scale(0.285714 -0.285714)">
     <use xlink:href="#DejaVuSans-42"/>
     <use x="50" xlink:href="#DejaVuSans-42"/>
    </g>
   </g>
   <g id="text_25">
    <!-- ** -->
    <g transform="translate(225.497985 129.704266)scale(0.285714 -0.285714)">
     <use xlink:href="#DejaVuSans-42"/>
     <use x="50" xlink:href="#DejaVuSans-42"/>
    </g>
   </g>
   <g id="text_26">
    <!-- r -->
    <g transform="translate(182.148438 48)scale(0.333333 -0.333333)">
     <use xlink:href="#DejaVuSans-114"/>
    </g>
   </g>
  </g>
  <g id="axes_3">
   <g id="patch_13">
    <path d="M 788.4 1004.4 
L 1058.4 1004.4 
L 1058.4 734.4 
L 788.4 734.4 
z
" style="fill:#ffffff;"/>
   </g>
   <g id="PathCollection_52">
    <g clip-path="url(#p554c35246e)">
     <use style="fill:#0000ff;stroke:#0000ff;stroke-width:1.5;" x="838.760502" xlink:href="#m23a1202493" y="901.40438"/>
    </g>
   </g>
   <g id="PathCollection_53">
    <g clip-path="url(#p554c35246e)">
     <use style="fill:#0000ff;stroke:#0000ff;stroke-width:1.5;" x="838.760502" xlink:href="#m23a1202493" y="920.603013"/>
    </g>
   </g>
   <g id="PathCollection_54">
    <g clip-path="url(#p554c35246e)">
     <use style="fill:#0000ff;stroke:#0000ff;stroke-width:1.5;" x="838.760502" xlink:href="#m23a1202493" y="944.194316"/>
    </g>
   </g>
   <g id="PathCollection_55">
    <g clip-path="url(#p554c35246e)">
     <use style="fill:#0000ff;stroke:#0000ff;stroke-width:1.5;" x="838.760502" xlink:href="#m23a1202493" y="931.078549"/>
    </g>
   </g>
   <g id="PathCollection_56">
    <g clip-path="url(#p554c35246e)">
     <use style="fill:#0000ff;stroke:#0000ff;stroke-width:1.5;" x="838.760502" xlink:href="#m23a1202493" y="933.589501"/>
    </g>
   </g>
   <g id="PathCollection_57">
    <g clip-path="url(#p554c35246e)">
     <use style="fill:#0000ff;stroke:#0000ff;stroke-width:1.5;" x="838.760502" xlink:href="#m23a1202493" y="910.929551"/>
    </g>
   </g>
   <g id="PathCollection_58">
    <g clip-path="url(#p554c35246e)">
     <use style="fill:#0000ff;stroke:#0000ff;stroke-width:1.5;" x="838.760502" xlink:href="#m23a1202493" y="926.724226"/>
    </g>
   </g>
   <g id="PathCollection_59">
    <g clip-path="url(#p554c35246e)">
     <use style="fill:#0000ff;stroke:#0000ff;stroke-width:1.5;" x="838.760502" xlink:href="#m23a1202493" y="922.314338"/>
    </g>
   </g>
   <g id="PathCollection_60">
    <g clip-path="url(#p554c35246e)">
     <use style="fill:#0000ff;stroke:#0000ff;stroke-width:1.5;" x="838.760502" xlink:href="#m23a1202493" y="961.947795"/>
    </g>
   </g>
   <g id="PathCollection_61">
    <g clip-path="url(#p554c35246e)">
     <use style="fill:#0000ff;stroke:#0000ff;stroke-width:1.5;" x="838.760502" xlink:href="#m23a1202493" y="924.268751"/>
    </g>
   </g>
   <g id="PathCollection_62">
    <g clip-path="url(#p554c35246e)">
     <use style="fill:#0000ff;stroke:#0000ff;stroke-width:1.5;" x="838.760502" xlink:href="#m23a1202493" y="906.616154"/>
    </g>
   </g>
   <g id="PathCollection_63">
    <g clip-path="url(#p554c35246e)">
     <use style="fill:#0000ff;stroke:#0000ff;stroke-width:1.5;" x="838.760502" xlink:href="#m23a1202493" y="967.519022"/>
    </g>
   </g>
   <g id="PathCollection_64">
    <g clip-path="url(#p554c35246e)">
     <use style="fill:#ff7f0e;stroke:#ff7f0e;stroke-width:1.5;" x="923.4" xlink:href="#m738ee26fbc" y="876.4515"/>
    </g>
   </g>
   <g id="PathCollection_65">
    <g clip-path="url(#p554c35246e)">
     <use style="fill:#ff7f0e;stroke:#ff7f0e;stroke-width:1.5;" x="923.4" xlink:href="#m738ee26fbc" y="884.745818"/>
    </g>
   </g>
   <g id="PathCollection_66">
    <g clip-path="url(#p554c35246e)">
     <use style="fill:#ff7f0e;stroke:#ff7f0e;stroke-width:1.5;" x="923.4" xlink:href="#m738ee26fbc" y="930.822107"/>
    </g>
   </g>
   <g id="PathCollection_67">
    <g clip-path="url(#p554c35246e)">
     <use style="fill:#ff7f0e;stroke:#ff7f0e;stroke-width:1.5;" x="923.4" xlink:href="#m738ee26fbc" y="924.307174"/>
    </g>
   </g>
   <g id="PathCollection_68">
    <g clip-path="url(#p554c35246e)">
     <use style="fill:#ff7f0e;stroke:#ff7f0e;stroke-width:1.5;" x="923.4" xlink:href="#m738ee26fbc" y="925.029217"/>
    </g>
   </g>
   <g id="PathCollection_69">
    <g clip-path="url(#p554c35246e)">
     <use style="fill:#ff7f0e;stroke:#ff7f0e;stroke-width:1.5;" x="923.4" xlink:href="#m738ee26fbc" y="883.555635"/>
    </g>
   </g>
   <g id="PathCollection_70">
    <g clip-path="url(#p554c35246e)">
     <use style="fill:#ff7f0e;stroke:#ff7f0e;stroke-width:1.5;" x="923.4" xlink:href="#m738ee26fbc" y="906.233153"/>
    </g>
   </g>
   <g id="PathCollection_71">
    <g clip-path="url(#p554c35246e)">
     <use style="fill:#ff7f0e;stroke:#ff7f0e;stroke-width:1.5;" x="923.4" xlink:href="#m738ee26fbc" y="926.287952"/>
    </g>
   </g>
   <g id="PathCollection_72">
    <g clip-path="url(#p554c35246e)">
     <use style="fill:#ff7f0e;stroke:#ff7f0e;stroke-width:1.5;" x="923.4" xlink:href="#m738ee26fbc" y="956.831724"/>
    </g>
   </g>
   <g id="PathCollection_73">
    <g clip-path="url(#p554c35246e)">
     <use style="fill:#ff7f0e;stroke:#ff7f0e;stroke-width:1.5;" x="923.4" xlink:href="#m738ee26fbc" y="846.252661"/>
    </g>
   </g>
   <g id="PathCollection_74">
    <g clip-path="url(#p554c35246e)">
     <use style="fill:#ff7f0e;stroke:#ff7f0e;stroke-width:1.5;" x="923.4" xlink:href="#m738ee26fbc" y="915.650579"/>
    </g>
   </g>
   <g id="PathCollection_75">
    <g clip-path="url(#p554c35246e)">
     <use style="fill:#ff7f0e;stroke:#ff7f0e;stroke-width:1.5;" x="923.4" xlink:href="#m738ee26fbc" y="967.253914"/>
    </g>
   </g>
   <g id="PathCollection_76">
    <g clip-path="url(#p554c35246e)">
     <use style="fill:#008000;stroke:#008000;stroke-width:1.5;" x="1008.039498" xlink:href="#mae701ef04d" y="872.029283"/>
    </g>
   </g>
   <g id="PathCollection_77">
    <g clip-path="url(#p554c35246e)">
     <use style="fill:#008000;stroke:#008000;stroke-width:1.5;" x="1008.039498" xlink:href="#mae701ef04d" y="861.121629"/>
    </g>
   </g>
   <g id="PathCollection_78">
    <g clip-path="url(#p554c35246e)">
     <use style="fill:#008000;stroke:#008000;stroke-width:1.5;" x="1008.039498" xlink:href="#mae701ef04d" y="912.837386"/>
    </g>
   </g>
   <g id="PathCollection_79">
    <g clip-path="url(#p554c35246e)">
     <use style="fill:#008000;stroke:#008000;stroke-width:1.5;" x="1008.039498" xlink:href="#mae701ef04d" y="897.946215"/>
    </g>
   </g>
   <g id="PathCollection_80">
    <g clip-path="url(#p554c35246e)">
     <use style="fill:#008000;stroke:#008000;stroke-width:1.5;" x="1008.039498" xlink:href="#mae701ef04d" y="903.879032"/>
    </g>
   </g>
   <g id="PathCollection_81">
    <g clip-path="url(#p554c35246e)">
     <use style="fill:#008000;stroke:#008000;stroke-width:1.5;" x="1008.039498" xlink:href="#mae701ef04d" y="848.489976"/>
    </g>
   </g>
   <g id="PathCollection_82">
    <g clip-path="url(#p554c35246e)">
     <use style="fill:#008000;stroke:#008000;stroke-width:1.5;" x="1008.039498" xlink:href="#mae701ef04d" y="885.260161"/>
    </g>
   </g>
   <g id="PathCollection_83">
    <g clip-path="url(#p554c35246e)">
     <use style="fill:#008000;stroke:#008000;stroke-width:1.5;" x="1008.039498" xlink:href="#mae701ef04d" y="905.563961"/>
    </g>
   </g>
   <g id="PathCollection_84">
    <g clip-path="url(#p554c35246e)">
     <use style="fill:#008000;stroke:#008000;stroke-width:1.5;" x="1008.039498" xlink:href="#mae701ef04d" y="946.657658"/>
    </g>
   </g>
   <g id="PathCollection_85">
    <g clip-path="url(#p554c35246e)">
     <use style="fill:#008000;stroke:#008000;stroke-width:1.5;" x="1008.039498" xlink:href="#mae701ef04d" y="878.505333"/>
    </g>
   </g>
   <g id="PathCollection_86">
    <g clip-path="url(#p554c35246e)">
     <use style="fill:#008000;stroke:#008000;stroke-width:1.5;" x="1008.039498" xlink:href="#mae701ef04d" y="892.284707"/>
    </g>
   </g>
   <g id="PathCollection_87">
    <g clip-path="url(#p554c35246e)">
     <use style="fill:#008000;stroke:#008000;stroke-width:1.5;" x="1008.039498" xlink:href="#mae701ef04d" y="952.581105"/>
    </g>
   </g>
   <g id="patch_14">
    <path clip-path="url(#p554c35246e)" d="M 800.672727 1004.4 
L 876.848276 1004.4 
L 876.848276 962.978608 
L 800.672727 962.978608 
z
" style="fill:#0000ff;opacity:0.4;"/>
   </g>
   <g id="patch_15">
    <path clip-path="url(#p554c35246e)" d="M 885.312226 1004.4 
L 961.487774 1004.4 
L 961.487774 953.165297 
L 885.312226 953.165297 
z
" style="fill:#ff7f0e;opacity:0.4;"/>
   </g>
   <g id="patch_16">
    <path clip-path="url(#p554c35246e)" d="M 969.951724 1004.4 
L 1046.127273 1004.4 
L 1046.127273 939.453364 
L 969.951724 939.453364 
z
" style="fill:#008000;opacity:0.4;"/>
   </g>
   <g id="matplotlib.axis_5">
    <g id="xtick_10">
     <g id="line2d_67">
      <g>
       <use style="stroke:#000000;stroke-width:0.8;" x="838.760502" xlink:href="#mb886234113" y="1004.4"/>
      </g>
     </g>
    </g>
    <g id="xtick_11">
     <g id="line2d_68">
      <g>
       <use style="stroke:#000000;stroke-width:0.8;" x="923.4" xlink:href="#mb886234113" y="1004.4"/>
      </g>
     </g>
    </g>
    <g id="xtick_12">
     <g id="line2d_69">
      <g>
       <use style="stroke:#000000;stroke-width:0.8;" x="1008.039498" xlink:href="#mb886234113" y="1004.4"/>
      </g>
     </g>
    </g>
   </g>
   <g id="matplotlib.axis_6">
    <g id="ytick_10">
     <g id="line2d_70">
      <g>
       <use style="stroke:#000000;stroke-width:0.8;" x="788.4" xlink:href="#m0d742ae58f" y="1004.4"/>
      </g>
     </g>
     <g id="text_27">
      <!-- 0.0 -->
      <g transform="translate(746.059722 1012.842708)scale(0.222222 -0.222222)">
       <use xlink:href="#DejaVuSans-48"/>
       <use x="63.623047" xlink:href="#DejaVuSans-46"/>
       <use x="95.410156" xlink:href="#DejaVuSans-48"/>
      </g>
     </g>
    </g>
    <g id="ytick_11">
     <g id="line2d_71">
      <g>
       <use style="stroke:#000000;stroke-width:0.8;" x="788.4" xlink:href="#m0d742ae58f" y="945.704348"/>
      </g>
     </g>
     <g id="text_28">
      <!-- 0.5 -->
      <g transform="translate(746.059722 954.147056)scale(0.222222 -0.222222)">
       <use xlink:href="#DejaVuSans-48"/>
       <use x="63.623047" xlink:href="#DejaVuSans-46"/>
       <use x="95.410156" xlink:href="#DejaVuSans-53"/>
      </g>
     </g>
    </g>
    <g id="ytick_12">
     <g id="line2d_72">
      <g>
       <use style="stroke:#000000;stroke-width:0.8;" x="788.4" xlink:href="#m0d742ae58f" y="887.008696"/>
      </g>
     </g>
     <g id="text_29">
      <!-- 1.0 -->
      <g transform="translate(746.059722 895.451404)scale(0.222222 -0.222222)">
       <use xlink:href="#DejaVuSans-49"/>
       <use x="63.623047" xlink:href="#DejaVuSans-46"/>
       <use x="95.410156" xlink:href="#DejaVuSans-48"/>
      </g>
     </g>
    </g>
    <g id="ytick_13">
     <g id="line2d_73">
      <g>
       <use style="stroke:#000000;stroke-width:0.8;" x="788.4" xlink:href="#m0d742ae58f" y="828.313043"/>
      </g>
     </g>
     <g id="text_30">
      <!-- 1.5 -->
      <g transform="translate(746.059722 836.755752)scale(0.222222 -0.222222)">
       <use xlink:href="#DejaVuSans-49"/>
       <use x="63.623047" xlink:href="#DejaVuSans-46"/>
       <use x="95.410156" xlink:href="#DejaVuSans-53"/>
      </g>
     </g>
    </g>
    <g id="ytick_14">
     <g id="line2d_74">
      <g>
       <use style="stroke:#000000;stroke-width:0.8;" x="788.4" xlink:href="#m0d742ae58f" y="769.617391"/>
      </g>
     </g>
     <g id="text_31">
      <!-- 2.0 -->
      <g transform="translate(746.059722 778.0601)scale(0.222222 -0.222222)">
       <use xlink:href="#DejaVuSans-50"/>
       <use x="63.623047" xlink:href="#DejaVuSans-46"/>
       <use x="95.410156" xlink:href="#DejaVuSans-48"/>
      </g>
     </g>
    </g>
   </g>
   <g id="LineCollection_18">
    <path clip-path="url(#p554c35246e)" d="M 830.296552 811.03527 
L 914.93605 811.03527 
" style="fill:none;stroke:#000000;stroke-width:1.5;"/>
   </g>
   <g id="LineCollection_19">
    <path clip-path="url(#p554c35246e)" d="M 821.832602 775.817878 
L 1024.967398 775.817878 
" style="fill:none;stroke:#000000;stroke-width:1.5;"/>
   </g>
   <g id="LineCollection_20">
    <path clip-path="url(#p554c35246e)" d="M 931.86395 811.03527 
L 1016.503448 811.03527 
" style="fill:none;stroke:#000000;stroke-width:1.5;"/>
   </g>
   <g id="patch_17">
    <path d="M 788.4 1004.4 
L 788.4 734.4 
" style="fill:none;stroke:#000000;stroke-linecap:square;stroke-linejoin:miter;stroke-width:0.8;"/>
   </g>
   <g id="patch_18">
    <path d="M 788.4 1004.4 
L 1058.4 1004.4 
" style="fill:none;stroke:#000000;stroke-linecap:square;stroke-linejoin:miter;stroke-width:0.8;"/>
   </g>
   <g id="text_32">
    <!-- 0.353 -->
    <defs>
     <path d="M 46.578125 39.3125 
Q 53.953125 37.40625 57.78125 32.6875 
Q 61.625 27.984375 61.625 20.703125 
Q 61.625 9.859375 53.3125 4.21875 
Q 45.015625 -1.421875 29.109375 -1.421875 
Q 23.484375 -1.421875 17.84375 -0.515625 
Q 12.203125 0.390625 6.6875 2.203125 
L 6.6875 16.703125 
Q 11.96875 14.0625 17.15625 12.71875 
Q 22.359375 11.375 27.390625 11.375 
Q 34.859375 11.375 38.84375 13.953125 
Q 42.828125 16.546875 42.828125 21.390625 
Q 42.828125 26.375 38.75 28.9375 
Q 34.671875 31.5 26.703125 31.5 
L 19.1875 31.5 
L 19.1875 43.609375 
L 27.09375 43.609375 
Q 34.1875 43.609375 37.640625 45.828125 
Q 41.109375 48.046875 41.109375 52.59375 
Q 41.109375 56.78125 37.734375 59.078125 
Q 34.375 61.375 28.21875 61.375 
Q 23.6875 61.375 19.046875 60.34375 
Q 14.40625 59.328125 9.8125 57.328125 
L 9.8125 71.09375 
Q 15.375 72.65625 20.84375 73.4375 
Q 26.3125 74.21875 31.59375 74.21875 
Q 45.796875 74.21875 52.84375 69.546875 
Q 59.90625 64.890625 59.90625 55.515625 
Q 59.90625 49.125 56.53125 45.046875 
Q 53.171875 40.96875 46.578125 39.3125 
z
" id="DejaVuSans-Bold-51"/>
    </defs>
    <g style="fill:#0000ff;" transform="translate(803.616404 993.908907)scale(0.222222 -0.222222)">
     <use xlink:href="#DejaVuSans-Bold-48"/>
     <use x="69.580078" xlink:href="#DejaVuSans-Bold-46"/>
     <use x="107.568359" xlink:href="#DejaVuSans-Bold-51"/>
     <use x="177.148438" xlink:href="#DejaVuSans-Bold-53"/>
     <use x="246.728516" xlink:href="#DejaVuSans-Bold-51"/>
    </g>
   </g>
   <g id="text_33">
    <!-- $P_{real}$ -->
    <g style="fill:#0000ff;" transform="translate(809.060502 1033.064878)scale(0.3 -0.3)">
     <use transform="translate(0 0.09375)" xlink:href="#DejaVuSans-Oblique-80"/>
     <use transform="translate(60.302734 -16.3125)scale(0.7)" xlink:href="#DejaVuSans-Oblique-114"/>
     <use transform="translate(89.082031 -16.3125)scale(0.7)" xlink:href="#DejaVuSans-Oblique-101"/>
     <use transform="translate(132.148438 -16.3125)scale(0.7)" xlink:href="#DejaVuSans-Oblique-97"/>
     <use transform="translate(175.043945 -16.3125)scale(0.7)" xlink:href="#DejaVuSans-Oblique-108"/>
    </g>
   </g>
   <g id="text_34">
    <!-- 0.436 -->
    <defs>
     <path d="M 36.8125 57.421875 
L 16.21875 26.90625 
L 36.8125 26.90625 
z
M 33.6875 72.90625 
L 54.59375 72.90625 
L 54.59375 26.90625 
L 64.984375 26.90625 
L 64.984375 13.28125 
L 54.59375 13.28125 
L 54.59375 0 
L 36.8125 0 
L 36.8125 13.28125 
L 4.5 13.28125 
L 4.5 29.390625 
z
" id="DejaVuSans-Bold-52"/>
    </defs>
    <g style="fill:#ff7f0e;" transform="translate(888.255903 993.908907)scale(0.222222 -0.222222)">
     <use xlink:href="#DejaVuSans-Bold-48"/>
     <use x="69.580078" xlink:href="#DejaVuSans-Bold-46"/>
     <use x="107.568359" xlink:href="#DejaVuSans-Bold-52"/>
     <use x="177.148438" xlink:href="#DejaVuSans-Bold-51"/>
     <use x="246.728516" xlink:href="#DejaVuSans-Bold-54"/>
    </g>
   </g>
   <g id="text_35">
    <!-- $\hat{P}_{leaky}$ -->
    <g style="fill:#ff7f0e;" transform="translate(885.6 1043.269565)scale(0.3 -0.3)">
     <use transform="translate(62.653809 30.015625)" xlink:href="#DejaVuSans-770"/>
     <use transform="translate(0 0.609375)" xlink:href="#DejaVuSans-Oblique-80"/>
     <use transform="translate(61.259766 -15.796875)scale(0.7)" xlink:href="#DejaVuSans-Oblique-108"/>
     <use transform="translate(80.708008 -15.796875)scale(0.7)" xlink:href="#DejaVuSans-Oblique-101"/>
     <use transform="translate(123.774414 -15.796875)scale(0.7)" xlink:href="#DejaVuSans-Oblique-97"/>
     <use transform="translate(166.669922 -15.796875)scale(0.7)" xlink:href="#DejaVuSans-Oblique-107"/>
     <use transform="translate(207.207031 -15.796875)scale(0.7)" xlink:href="#DejaVuSans-Oblique-121"/>
    </g>
   </g>
   <g id="text_36">
    <!-- 0.553 -->
    <g style="fill:#008000;" transform="translate(972.895401 993.908907)scale(0.222222 -0.222222)">
     <use xlink:href="#DejaVuSans-Bold-48"/>
     <use x="69.580078" xlink:href="#DejaVuSans-Bold-46"/>
     <use x="107.568359" xlink:href="#DejaVuSans-Bold-53"/>
     <use x="177.148438" xlink:href="#DejaVuSans-Bold-53"/>
     <use x="246.728516" xlink:href="#DejaVuSans-Bold-51"/>
    </g>
   </g>
   <g id="text_37">
    <!-- $\hat{P}_{mean}$ -->
    <g style="fill:#008000;" transform="translate(968.589498 1042.430503)scale(0.3 -0.3)">
     <use transform="translate(62.653809 30.015625)" xlink:href="#DejaVuSans-770"/>
     <use transform="translate(0 0.609375)" xlink:href="#DejaVuSans-Oblique-80"/>
     <use transform="translate(61.259766 -15.796875)scale(0.7)" xlink:href="#DejaVuSans-Oblique-109"/>
     <use transform="translate(129.448242 -15.796875)scale(0.7)" xlink:href="#DejaVuSans-Oblique-101"/>
     <use transform="translate(172.514648 -15.796875)scale(0.7)" xlink:href="#DejaVuSans-Oblique-97"/>
     <use transform="translate(215.410156 -15.796875)scale(0.7)" xlink:href="#DejaVuSans-Oblique-110"/>
    </g>
   </g>
   <g id="text_38">
    <!-- * -->
    <g transform="translate(864.282968 811.03527)scale(0.333333 -0.333333)">
     <use xlink:href="#DejaVuSans-42"/>
    </g>
   </g>
   <g id="text_39">
    <!-- ** -->
    <g transform="translate(906.733333 775.817878)scale(0.333333 -0.333333)">
     <use xlink:href="#DejaVuSans-42"/>
     <use x="50" xlink:href="#DejaVuSans-42"/>
    </g>
   </g>
   <g id="text_40">
    <!-- * -->
    <g transform="translate(965.850366 811.03527)scale(0.333333 -0.333333)">
     <use xlink:href="#DejaVuSans-42"/>
    </g>
   </g>
   <g id="text_41">
    <!-- MI -->
    <defs>
     <path d="M 9.8125 72.90625 
L 24.515625 72.90625 
L 43.109375 23.296875 
L 61.8125 72.90625 
L 76.515625 72.90625 
L 76.515625 0 
L 66.890625 0 
L 66.890625 64.015625 
L 48.09375 14.015625 
L 38.1875 14.015625 
L 19.390625 64.015625 
L 19.390625 0 
L 9.8125 0 
z
" id="DejaVuSans-77"/>
     <path d="M 9.8125 72.90625 
L 19.671875 72.90625 
L 19.671875 0 
L 9.8125 0 
z
" id="DejaVuSans-73"/>
    </defs>
    <g transform="translate(904.103125 728.4)scale(0.333333 -0.333333)">
     <use xlink:href="#DejaVuSans-77"/>
     <use x="86.279297" xlink:href="#DejaVuSans-73"/>
    </g>
   </g>
  </g>
 </g>
 <defs>
  <clipPath id="p3ec61b4bcc">
   <rect height="1080" width="1080" x="0" y="0"/>
  </clipPath>
  <clipPath id="pe425d34e7c">
   <rect height="270" width="270" x="54" y="54"/>
  </clipPath>
  <clipPath id="p554c35246e">
   <rect height="270" width="270" x="788.4" y="734.4"/>
  </clipPath>
 </defs>
</svg>
