<?xml version="1.0" encoding="utf-8" standalone="no"?>
<!DOCTYPE svg PUBLIC "-//W3C//DTD SVG 1.1//EN"
  "http://www.w3.org/Graphics/SVG/1.1/DTD/svg11.dtd">
<!-- Created with matplotlib (https://matplotlib.org/) -->
<svg height="1080pt" version="1.1" viewBox="0 0 1080 1080" width="1080pt" xmlns="http://www.w3.org/2000/svg" xmlns:xlink="http://www.w3.org/1999/xlink">
 <defs>
  <style type="text/css">
*{stroke-linecap:butt;stroke-linejoin:round;}
  </style>
 </defs>
 <g id="figure_1">
  <g id="patch_1">
   <path d="M 0 1080 
L 1080 1080 
L 1080 0 
L 0 0 
z
" style="fill:#ffffff;"/>
  </g>
  <g id="axes_1">
   <g id="patch_2">
    <path d="M 172.3 955.7 
L 1065.7 955.7 
L 1065.7 14.3 
L 172.3 14.3 
z
" style="fill:#ffffff;"/>
   </g>
   <g id="PathCollection_1">
    <defs>
     <path d="M 0 5 
C 1.326016 5 2.597899 4.473168 3.535534 3.535534 
C 4.473168 2.597899 5 1.326016 5 0 
C 5 -1.326016 4.473168 -2.597899 3.535534 -3.535534 
C 2.597899 -4.473168 1.326016 -5 0 -5 
C -1.326016 -5 -2.597899 -4.473168 -3.535534 -3.535534 
C -4.473168 -2.597899 -5 -1.326016 -5 0 
C -5 1.326016 -4.473168 2.597899 -3.535534 3.535534 
C -2.597899 4.473168 -1.326016 5 0 5 
z
" id="m0d7007170f" style="stroke:#0000ff;"/>
    </defs>
    <g clip-path="url(#p0fb7e557f9)">
     <use style="fill:#0000ff;stroke:#0000ff;" x="270.540414" xlink:href="#m0d7007170f" y="587.057085"/>
    </g>
   </g>
   <g id="PathCollection_2">
    <g clip-path="url(#p0fb7e557f9)">
     <use style="fill:#0000ff;stroke:#0000ff;" x="438.472744" xlink:href="#m0d7007170f" y="512.456235"/>
    </g>
   </g>
   <g id="PathCollection_3">
    <g clip-path="url(#p0fb7e557f9)">
     <use style="fill:#0000ff;stroke:#0000ff;" x="606.405075" xlink:href="#m0d7007170f" y="497.739981"/>
    </g>
   </g>
   <g id="PathCollection_4">
    <g clip-path="url(#p0fb7e557f9)">
     <use style="fill:#0000ff;stroke:#0000ff;" x="774.337406" xlink:href="#m0d7007170f" y="459.721286"/>
    </g>
   </g>
   <g id="PathCollection_5">
    <g clip-path="url(#p0fb7e557f9)">
     <use style="fill:#0000ff;stroke:#0000ff;" x="942.269737" xlink:href="#m0d7007170f" y="402.645118"/>
    </g>
   </g>
   <g id="PathCollection_6">
    <defs>
     <path d="M 0 5 
C 1.326016 5 2.597899 4.473168 3.535534 3.535534 
C 4.473168 2.597899 5 1.326016 5 0 
C 5 -1.326016 4.473168 -2.597899 3.535534 -3.535534 
C 2.597899 -4.473168 1.326016 -5 0 -5 
C -1.326016 -5 -2.597899 -4.473168 -3.535534 -3.535534 
C -4.473168 -2.597899 -5 -1.326016 -5 0 
C -5 1.326016 -4.473168 2.597899 -3.535534 3.535534 
C -2.597899 4.473168 -1.326016 5 0 5 
z
" id="m6d09000491" style="stroke:#ff7f0e;"/>
    </defs>
    <g clip-path="url(#p0fb7e557f9)">
     <use style="fill:#ff7f0e;stroke:#ff7f0e;" x="283.135338" xlink:href="#m6d09000491" y="606.416894"/>
    </g>
   </g>
   <g id="PathCollection_7">
    <g clip-path="url(#p0fb7e557f9)">
     <use style="fill:#ff7f0e;stroke:#ff7f0e;" x="451.067669" xlink:href="#m6d09000491" y="521.911915"/>
    </g>
   </g>
   <g id="PathCollection_8">
    <g clip-path="url(#p0fb7e557f9)">
     <use style="fill:#ff7f0e;stroke:#ff7f0e;" x="619" xlink:href="#m6d09000491" y="479.504854"/>
    </g>
   </g>
   <g id="PathCollection_9">
    <g clip-path="url(#p0fb7e557f9)">
     <use style="fill:#ff7f0e;stroke:#ff7f0e;" x="786.932331" xlink:href="#m6d09000491" y="438.760367"/>
    </g>
   </g>
   <g id="PathCollection_10">
    <g clip-path="url(#p0fb7e557f9)">
     <use style="fill:#ff7f0e;stroke:#ff7f0e;" x="954.864662" xlink:href="#m6d09000491" y="384.481596"/>
    </g>
   </g>
   <g id="PathCollection_11">
    <defs>
     <path d="M 0 5 
C 1.326016 5 2.597899 4.473168 3.535534 3.535534 
C 4.473168 2.597899 5 1.326016 5 0 
C 5 -1.326016 4.473168 -2.597899 3.535534 -3.535534 
C 2.597899 -4.473168 1.326016 -5 0 -5 
C -1.326016 -5 -2.597899 -4.473168 -3.535534 -3.535534 
C -4.473168 -2.597899 -5 -1.326016 -5 0 
C -5 1.326016 -4.473168 2.597899 -3.535534 3.535534 
C -2.597899 4.473168 -1.326016 5 0 5 
z
" id="md1b741ab51" style="stroke:#008000;"/>
    </defs>
    <g clip-path="url(#p0fb7e557f9)">
     <use style="fill:#008000;stroke:#008000;" x="295.730263" xlink:href="#md1b741ab51" y="623.017712"/>
    </g>
   </g>
   <g id="PathCollection_12">
    <g clip-path="url(#p0fb7e557f9)">
     <use style="fill:#008000;stroke:#008000;" x="463.662594" xlink:href="#md1b741ab51" y="533.214434"/>
    </g>
   </g>
   <g id="PathCollection_13">
    <g clip-path="url(#p0fb7e557f9)">
     <use style="fill:#008000;stroke:#008000;" x="631.594925" xlink:href="#md1b741ab51" y="482.318024"/>
    </g>
   </g>
   <g id="PathCollection_14">
    <g clip-path="url(#p0fb7e557f9)">
     <use style="fill:#008000;stroke:#008000;" x="799.527256" xlink:href="#md1b741ab51" y="448.010439"/>
    </g>
   </g>
   <g id="PathCollection_15">
    <g clip-path="url(#p0fb7e557f9)">
     <use style="fill:#008000;stroke:#008000;" x="967.459586" xlink:href="#md1b741ab51" y="384.832565"/>
    </g>
   </g>
   <g id="matplotlib.axis_1">
    <g id="xtick_1">
     <g id="line2d_1">
      <defs>
       <path d="M 0 0 
L 0 3.5 
" id="m84b9bb8598" style="stroke:#000000;stroke-width:0.8;"/>
      </defs>
      <g>
       <use style="stroke:#000000;stroke-width:0.8;" x="199.169173" xlink:href="#m84b9bb8598" y="955.7"/>
      </g>
     </g>
     <g id="text_1">
      <!-- 0.0 -->
      <defs>
       <path d="M 31.78125 66.40625 
Q 24.171875 66.40625 20.328125 58.90625 
Q 16.5 51.421875 16.5 36.375 
Q 16.5 21.390625 20.328125 13.890625 
Q 24.171875 6.390625 31.78125 6.390625 
Q 39.453125 6.390625 43.28125 13.890625 
Q 47.125 21.390625 47.125 36.375 
Q 47.125 51.421875 43.28125 58.90625 
Q 39.453125 66.40625 31.78125 66.40625 
z
M 31.78125 74.21875 
Q 44.046875 74.21875 50.515625 64.515625 
Q 56.984375 54.828125 56.984375 36.375 
Q 56.984375 17.96875 50.515625 8.265625 
Q 44.046875 -1.421875 31.78125 -1.421875 
Q 19.53125 -1.421875 13.0625 8.265625 
Q 6.59375 17.96875 6.59375 36.375 
Q 6.59375 54.828125 13.0625 64.515625 
Q 19.53125 74.21875 31.78125 74.21875 
z
" id="DejaVuSans-48"/>
       <path d="M 10.6875 12.40625 
L 21 12.40625 
L 21 0 
L 10.6875 0 
z
" id="DejaVuSans-46"/>
      </defs>
      <g transform="translate(172.663965 988.028125)scale(0.333333 -0.333333)">
       <use xlink:href="#DejaVuSans-48"/>
       <use x="63.623047" xlink:href="#DejaVuSans-46"/>
       <use x="95.410156" xlink:href="#DejaVuSans-48"/>
      </g>
     </g>
    </g>
    <g id="xtick_2">
     <g id="line2d_2">
      <g>
       <use style="stroke:#000000;stroke-width:0.8;" x="367.101504" xlink:href="#m84b9bb8598" y="955.7"/>
      </g>
     </g>
     <g id="text_2">
      <!-- 0.2 -->
      <defs>
       <path d="M 19.1875 8.296875 
L 53.609375 8.296875 
L 53.609375 0 
L 7.328125 0 
L 7.328125 8.296875 
Q 12.9375 14.109375 22.625 23.890625 
Q 32.328125 33.6875 34.8125 36.53125 
Q 39.546875 41.84375 41.421875 45.53125 
Q 43.3125 49.21875 43.3125 52.78125 
Q 43.3125 58.59375 39.234375 62.25 
Q 35.15625 65.921875 28.609375 65.921875 
Q 23.96875 65.921875 18.8125 64.3125 
Q 13.671875 62.703125 7.8125 59.421875 
L 7.8125 69.390625 
Q 13.765625 71.78125 18.9375 73 
Q 24.125 74.21875 28.421875 74.21875 
Q 39.75 74.21875 46.484375 68.546875 
Q 53.21875 62.890625 53.21875 53.421875 
Q 53.21875 48.921875 51.53125 44.890625 
Q 49.859375 40.875 45.40625 35.40625 
Q 44.1875 33.984375 37.640625 27.21875 
Q 31.109375 20.453125 19.1875 8.296875 
z
" id="DejaVuSans-50"/>
      </defs>
      <g transform="translate(340.596295 988.028125)scale(0.333333 -0.333333)">
       <use xlink:href="#DejaVuSans-48"/>
       <use x="63.623047" xlink:href="#DejaVuSans-46"/>
       <use x="95.410156" xlink:href="#DejaVuSans-50"/>
      </g>
     </g>
    </g>
    <g id="xtick_3">
     <g id="line2d_3">
      <g>
       <use style="stroke:#000000;stroke-width:0.8;" x="535.033835" xlink:href="#m84b9bb8598" y="955.7"/>
      </g>
     </g>
     <g id="text_3">
      <!-- 0.4 -->
      <defs>
       <path d="M 37.796875 64.3125 
L 12.890625 25.390625 
L 37.796875 25.390625 
z
M 35.203125 72.90625 
L 47.609375 72.90625 
L 47.609375 25.390625 
L 58.015625 25.390625 
L 58.015625 17.1875 
L 47.609375 17.1875 
L 47.609375 0 
L 37.796875 0 
L 37.796875 17.1875 
L 4.890625 17.1875 
L 4.890625 26.703125 
z
" id="DejaVuSans-52"/>
      </defs>
      <g transform="translate(508.528626 988.028125)scale(0.333333 -0.333333)">
       <use xlink:href="#DejaVuSans-48"/>
       <use x="63.623047" xlink:href="#DejaVuSans-46"/>
       <use x="95.410156" xlink:href="#DejaVuSans-52"/>
      </g>
     </g>
    </g>
    <g id="xtick_4">
     <g id="line2d_4">
      <g>
       <use style="stroke:#000000;stroke-width:0.8;" x="702.966165" xlink:href="#m84b9bb8598" y="955.7"/>
      </g>
     </g>
     <g id="text_4">
      <!-- 0.6 -->
      <defs>
       <path d="M 33.015625 40.375 
Q 26.375 40.375 22.484375 35.828125 
Q 18.609375 31.296875 18.609375 23.390625 
Q 18.609375 15.53125 22.484375 10.953125 
Q 26.375 6.390625 33.015625 6.390625 
Q 39.65625 6.390625 43.53125 10.953125 
Q 47.40625 15.53125 47.40625 23.390625 
Q 47.40625 31.296875 43.53125 35.828125 
Q 39.65625 40.375 33.015625 40.375 
z
M 52.59375 71.296875 
L 52.59375 62.3125 
Q 48.875 64.0625 45.09375 64.984375 
Q 41.3125 65.921875 37.59375 65.921875 
Q 27.828125 65.921875 22.671875 59.328125 
Q 17.53125 52.734375 16.796875 39.40625 
Q 19.671875 43.65625 24.015625 45.921875 
Q 28.375 48.1875 33.59375 48.1875 
Q 44.578125 48.1875 50.953125 41.515625 
Q 57.328125 34.859375 57.328125 23.390625 
Q 57.328125 12.15625 50.6875 5.359375 
Q 44.046875 -1.421875 33.015625 -1.421875 
Q 20.359375 -1.421875 13.671875 8.265625 
Q 6.984375 17.96875 6.984375 36.375 
Q 6.984375 53.65625 15.1875 63.9375 
Q 23.390625 74.21875 37.203125 74.21875 
Q 40.921875 74.21875 44.703125 73.484375 
Q 48.484375 72.75 52.59375 71.296875 
z
" id="DejaVuSans-54"/>
      </defs>
      <g transform="translate(676.460957 988.028125)scale(0.333333 -0.333333)">
       <use xlink:href="#DejaVuSans-48"/>
       <use x="63.623047" xlink:href="#DejaVuSans-46"/>
       <use x="95.410156" xlink:href="#DejaVuSans-54"/>
      </g>
     </g>
    </g>
    <g id="xtick_5">
     <g id="line2d_5">
      <g>
       <use style="stroke:#000000;stroke-width:0.8;" x="870.898496" xlink:href="#m84b9bb8598" y="955.7"/>
      </g>
     </g>
     <g id="text_5">
      <!-- 0.8 -->
      <defs>
       <path d="M 31.78125 34.625 
Q 24.75 34.625 20.71875 30.859375 
Q 16.703125 27.09375 16.703125 20.515625 
Q 16.703125 13.921875 20.71875 10.15625 
Q 24.75 6.390625 31.78125 6.390625 
Q 38.8125 6.390625 42.859375 10.171875 
Q 46.921875 13.96875 46.921875 20.515625 
Q 46.921875 27.09375 42.890625 30.859375 
Q 38.875 34.625 31.78125 34.625 
z
M 21.921875 38.8125 
Q 15.578125 40.375 12.03125 44.71875 
Q 8.5 49.078125 8.5 55.328125 
Q 8.5 64.0625 14.71875 69.140625 
Q 20.953125 74.21875 31.78125 74.21875 
Q 42.671875 74.21875 48.875 69.140625 
Q 55.078125 64.0625 55.078125 55.328125 
Q 55.078125 49.078125 51.53125 44.71875 
Q 48 40.375 41.703125 38.8125 
Q 48.828125 37.15625 52.796875 32.3125 
Q 56.78125 27.484375 56.78125 20.515625 
Q 56.78125 9.90625 50.3125 4.234375 
Q 43.84375 -1.421875 31.78125 -1.421875 
Q 19.734375 -1.421875 13.25 4.234375 
Q 6.78125 9.90625 6.78125 20.515625 
Q 6.78125 27.484375 10.78125 32.3125 
Q 14.796875 37.15625 21.921875 38.8125 
z
M 18.3125 54.390625 
Q 18.3125 48.734375 21.84375 45.5625 
Q 25.390625 42.390625 31.78125 42.390625 
Q 38.140625 42.390625 41.71875 45.5625 
Q 45.3125 48.734375 45.3125 54.390625 
Q 45.3125 60.0625 41.71875 63.234375 
Q 38.140625 66.40625 31.78125 66.40625 
Q 25.390625 66.40625 21.84375 63.234375 
Q 18.3125 60.0625 18.3125 54.390625 
z
" id="DejaVuSans-56"/>
      </defs>
      <g transform="translate(844.393288 988.028125)scale(0.333333 -0.333333)">
       <use xlink:href="#DejaVuSans-48"/>
       <use x="63.623047" xlink:href="#DejaVuSans-46"/>
       <use x="95.410156" xlink:href="#DejaVuSans-56"/>
      </g>
     </g>
    </g>
    <g id="xtick_6">
     <g id="line2d_6">
      <g>
       <use style="stroke:#000000;stroke-width:0.8;" x="1038.830827" xlink:href="#m84b9bb8598" y="955.7"/>
      </g>
     </g>
     <g id="text_6">
      <!-- 1.0 -->
      <defs>
       <path d="M 12.40625 8.296875 
L 28.515625 8.296875 
L 28.515625 63.921875 
L 10.984375 60.40625 
L 10.984375 69.390625 
L 28.421875 72.90625 
L 38.28125 72.90625 
L 38.28125 8.296875 
L 54.390625 8.296875 
L 54.390625 0 
L 12.40625 0 
z
" id="DejaVuSans-49"/>
      </defs>
      <g transform="translate(1012.325619 988.028125)scale(0.333333 -0.333333)">
       <use xlink:href="#DejaVuSans-49"/>
       <use x="63.623047" xlink:href="#DejaVuSans-46"/>
       <use x="95.410156" xlink:href="#DejaVuSans-48"/>
      </g>
     </g>
    </g>
    <g id="text_7">
     <!-- $\hat{P}$ -->
     <defs>
      <path d="M -28.609375 79.984375 
L -21.390625 79.984375 
L -9.421875 61.625 
L -16.21875 61.625 
L -25 73.578125 
L -33.796875 61.625 
L -40.578125 61.625 
z
M -25 56 
z
" id="DejaVuSans-770"/>
      <path d="M 16.890625 72.90625 
L 39.703125 72.90625 
Q 49.65625 72.90625 54.875 68.265625 
Q 60.109375 63.625 60.109375 54.6875 
Q 60.109375 42.671875 52.390625 35.984375 
Q 44.671875 29.296875 30.71875 29.296875 
L 18.3125 29.296875 
L 12.59375 0 
L 2.6875 0 
z
M 25.203125 64.796875 
L 19.921875 37.40625 
L 32.328125 37.40625 
Q 40.71875 37.40625 45.203125 41.703125 
Q 49.703125 46 49.703125 54 
Q 49.703125 59.125 46.65625 61.953125 
Q 43.609375 64.796875 38.09375 64.796875 
z
" id="DejaVuSans-Oblique-80"/>
     </defs>
     <g transform="translate(600.7 1052.482292)scale(0.6 -0.6)">
      <use transform="translate(62.653809 30.015625)" xlink:href="#DejaVuSans-770"/>
      <use transform="translate(0 0.609375)" xlink:href="#DejaVuSans-Oblique-80"/>
     </g>
    </g>
   </g>
   <g id="matplotlib.axis_2">
    <g id="ytick_1">
     <g id="line2d_7">
      <defs>
       <path d="M 0 0 
L -3.5 0 
" id="me57c199552" style="stroke:#000000;stroke-width:0.8;"/>
      </defs>
      <g>
       <use style="stroke:#000000;stroke-width:0.8;" x="172.3" xlink:href="#me57c199552" y="927.387218"/>
      </g>
     </g>
     <g id="text_8">
      <!-- −10.0 -->
      <defs>
       <path d="M 10.59375 35.5 
L 73.1875 35.5 
L 73.1875 27.203125 
L 10.59375 27.203125 
z
" id="DejaVuSans-8722"/>
      </defs>
      <g transform="translate(63.148958 940.051281)scale(0.333333 -0.333333)">
       <use xlink:href="#DejaVuSans-8722"/>
       <use x="83.789062" xlink:href="#DejaVuSans-49"/>
       <use x="147.412109" xlink:href="#DejaVuSans-48"/>
       <use x="211.035156" xlink:href="#DejaVuSans-46"/>
       <use x="242.822266" xlink:href="#DejaVuSans-48"/>
      </g>
     </g>
    </g>
    <g id="ytick_2">
     <g id="line2d_8">
      <g>
       <use style="stroke:#000000;stroke-width:0.8;" x="172.3" xlink:href="#me57c199552" y="816.790414"/>
      </g>
     </g>
     <g id="text_9">
      <!-- −7.5 -->
      <defs>
       <path d="M 8.203125 72.90625 
L 55.078125 72.90625 
L 55.078125 68.703125 
L 28.609375 0 
L 18.3125 0 
L 43.21875 64.59375 
L 8.203125 64.59375 
z
" id="DejaVuSans-55"/>
       <path d="M 10.796875 72.90625 
L 49.515625 72.90625 
L 49.515625 64.59375 
L 19.828125 64.59375 
L 19.828125 46.734375 
Q 21.96875 47.46875 24.109375 47.828125 
Q 26.265625 48.1875 28.421875 48.1875 
Q 40.625 48.1875 47.75 41.5 
Q 54.890625 34.8125 54.890625 23.390625 
Q 54.890625 11.625 47.5625 5.09375 
Q 40.234375 -1.421875 26.90625 -1.421875 
Q 22.3125 -1.421875 17.546875 -0.640625 
Q 12.796875 0.140625 7.71875 1.703125 
L 7.71875 11.625 
Q 12.109375 9.234375 16.796875 8.0625 
Q 21.484375 6.890625 26.703125 6.890625 
Q 35.15625 6.890625 40.078125 11.328125 
Q 45.015625 15.765625 45.015625 23.390625 
Q 45.015625 31 40.078125 35.4375 
Q 35.15625 39.890625 26.703125 39.890625 
Q 22.75 39.890625 18.8125 39.015625 
Q 14.890625 38.140625 10.796875 36.28125 
z
" id="DejaVuSans-53"/>
      </defs>
      <g transform="translate(84.357292 829.454476)scale(0.333333 -0.333333)">
       <use xlink:href="#DejaVuSans-8722"/>
       <use x="83.789062" xlink:href="#DejaVuSans-55"/>
       <use x="147.412109" xlink:href="#DejaVuSans-46"/>
       <use x="179.199219" xlink:href="#DejaVuSans-53"/>
      </g>
     </g>
    </g>
    <g id="ytick_3">
     <g id="line2d_9">
      <g>
       <use style="stroke:#000000;stroke-width:0.8;" x="172.3" xlink:href="#me57c199552" y="706.193609"/>
      </g>
     </g>
     <g id="text_10">
      <!-- −5.0 -->
      <g transform="translate(84.357292 718.857672)scale(0.333333 -0.333333)">
       <use xlink:href="#DejaVuSans-8722"/>
       <use x="83.789062" xlink:href="#DejaVuSans-53"/>
       <use x="147.412109" xlink:href="#DejaVuSans-46"/>
       <use x="179.199219" xlink:href="#DejaVuSans-48"/>
      </g>
     </g>
    </g>
    <g id="ytick_4">
     <g id="line2d_10">
      <g>
       <use style="stroke:#000000;stroke-width:0.8;" x="172.3" xlink:href="#me57c199552" y="595.596805"/>
      </g>
     </g>
     <g id="text_11">
      <!-- −2.5 -->
      <g transform="translate(84.357292 608.260867)scale(0.333333 -0.333333)">
       <use xlink:href="#DejaVuSans-8722"/>
       <use x="83.789062" xlink:href="#DejaVuSans-50"/>
       <use x="147.412109" xlink:href="#DejaVuSans-46"/>
       <use x="179.199219" xlink:href="#DejaVuSans-53"/>
      </g>
     </g>
    </g>
    <g id="ytick_5">
     <g id="line2d_11">
      <g>
       <use style="stroke:#000000;stroke-width:0.8;" x="172.3" xlink:href="#me57c199552" y="485"/>
      </g>
     </g>
     <g id="text_12">
      <!-- 0.0 -->
      <g transform="translate(112.289583 497.664062)scale(0.333333 -0.333333)">
       <use xlink:href="#DejaVuSans-48"/>
       <use x="63.623047" xlink:href="#DejaVuSans-46"/>
       <use x="95.410156" xlink:href="#DejaVuSans-48"/>
      </g>
     </g>
    </g>
    <g id="ytick_6">
     <g id="line2d_12">
      <g>
       <use style="stroke:#000000;stroke-width:0.8;" x="172.3" xlink:href="#me57c199552" y="374.403195"/>
      </g>
     </g>
     <g id="text_13">
      <!-- 2.5 -->
      <g transform="translate(112.289583 387.067258)scale(0.333333 -0.333333)">
       <use xlink:href="#DejaVuSans-50"/>
       <use x="63.623047" xlink:href="#DejaVuSans-46"/>
       <use x="95.410156" xlink:href="#DejaVuSans-53"/>
      </g>
     </g>
    </g>
    <g id="ytick_7">
     <g id="line2d_13">
      <g>
       <use style="stroke:#000000;stroke-width:0.8;" x="172.3" xlink:href="#me57c199552" y="263.806391"/>
      </g>
     </g>
     <g id="text_14">
      <!-- 5.0 -->
      <g transform="translate(112.289583 276.470453)scale(0.333333 -0.333333)">
       <use xlink:href="#DejaVuSans-53"/>
       <use x="63.623047" xlink:href="#DejaVuSans-46"/>
       <use x="95.410156" xlink:href="#DejaVuSans-48"/>
      </g>
     </g>
    </g>
    <g id="ytick_8">
     <g id="line2d_14">
      <g>
       <use style="stroke:#000000;stroke-width:0.8;" x="172.3" xlink:href="#me57c199552" y="153.209586"/>
      </g>
     </g>
     <g id="text_15">
      <!-- 7.5 -->
      <g transform="translate(112.289583 165.873649)scale(0.333333 -0.333333)">
       <use xlink:href="#DejaVuSans-55"/>
       <use x="63.623047" xlink:href="#DejaVuSans-46"/>
       <use x="95.410156" xlink:href="#DejaVuSans-53"/>
      </g>
     </g>
    </g>
    <g id="ytick_9">
     <g id="line2d_15">
      <g>
       <use style="stroke:#000000;stroke-width:0.8;" x="172.3" xlink:href="#me57c199552" y="42.612782"/>
      </g>
     </g>
     <g id="text_16">
      <!-- 10.0 -->
      <g transform="translate(91.08125 55.276844)scale(0.333333 -0.333333)">
       <use xlink:href="#DejaVuSans-49"/>
       <use x="63.623047" xlink:href="#DejaVuSans-48"/>
       <use x="127.246094" xlink:href="#DejaVuSans-46"/>
       <use x="159.033203" xlink:href="#DejaVuSans-48"/>
      </g>
     </g>
    </g>
    <g id="text_17">
     <!-- Velocity of anticipation (°/s) -->
     <defs>
      <path d="M 28.609375 0 
L 0.78125 72.90625 
L 11.078125 72.90625 
L 34.1875 11.53125 
L 57.328125 72.90625 
L 67.578125 72.90625 
L 39.796875 0 
z
" id="DejaVuSans-86"/>
      <path d="M 56.203125 29.59375 
L 56.203125 25.203125 
L 14.890625 25.203125 
Q 15.484375 15.921875 20.484375 11.0625 
Q 25.484375 6.203125 34.421875 6.203125 
Q 39.59375 6.203125 44.453125 7.46875 
Q 49.3125 8.734375 54.109375 11.28125 
L 54.109375 2.78125 
Q 49.265625 0.734375 44.1875 -0.34375 
Q 39.109375 -1.421875 33.890625 -1.421875 
Q 20.796875 -1.421875 13.15625 6.1875 
Q 5.515625 13.8125 5.515625 26.8125 
Q 5.515625 40.234375 12.765625 48.109375 
Q 20.015625 56 32.328125 56 
Q 43.359375 56 49.78125 48.890625 
Q 56.203125 41.796875 56.203125 29.59375 
z
M 47.21875 32.234375 
Q 47.125 39.59375 43.09375 43.984375 
Q 39.0625 48.390625 32.421875 48.390625 
Q 24.90625 48.390625 20.390625 44.140625 
Q 15.875 39.890625 15.1875 32.171875 
z
" id="DejaVuSans-101"/>
      <path d="M 9.421875 75.984375 
L 18.40625 75.984375 
L 18.40625 0 
L 9.421875 0 
z
" id="DejaVuSans-108"/>
      <path d="M 30.609375 48.390625 
Q 23.390625 48.390625 19.1875 42.75 
Q 14.984375 37.109375 14.984375 27.296875 
Q 14.984375 17.484375 19.15625 11.84375 
Q 23.34375 6.203125 30.609375 6.203125 
Q 37.796875 6.203125 41.984375 11.859375 
Q 46.1875 17.53125 46.1875 27.296875 
Q 46.1875 37.015625 41.984375 42.703125 
Q 37.796875 48.390625 30.609375 48.390625 
z
M 30.609375 56 
Q 42.328125 56 49.015625 48.375 
Q 55.71875 40.765625 55.71875 27.296875 
Q 55.71875 13.875 49.015625 6.21875 
Q 42.328125 -1.421875 30.609375 -1.421875 
Q 18.84375 -1.421875 12.171875 6.21875 
Q 5.515625 13.875 5.515625 27.296875 
Q 5.515625 40.765625 12.171875 48.375 
Q 18.84375 56 30.609375 56 
z
" id="DejaVuSans-111"/>
      <path d="M 48.78125 52.59375 
L 48.78125 44.1875 
Q 44.96875 46.296875 41.140625 47.34375 
Q 37.3125 48.390625 33.40625 48.390625 
Q 24.65625 48.390625 19.8125 42.84375 
Q 14.984375 37.3125 14.984375 27.296875 
Q 14.984375 17.28125 19.8125 11.734375 
Q 24.65625 6.203125 33.40625 6.203125 
Q 37.3125 6.203125 41.140625 7.25 
Q 44.96875 8.296875 48.78125 10.40625 
L 48.78125 2.09375 
Q 45.015625 0.34375 40.984375 -0.53125 
Q 36.96875 -1.421875 32.421875 -1.421875 
Q 20.0625 -1.421875 12.78125 6.34375 
Q 5.515625 14.109375 5.515625 27.296875 
Q 5.515625 40.671875 12.859375 48.328125 
Q 20.21875 56 33.015625 56 
Q 37.15625 56 41.109375 55.140625 
Q 45.0625 54.296875 48.78125 52.59375 
z
" id="DejaVuSans-99"/>
      <path d="M 9.421875 54.6875 
L 18.40625 54.6875 
L 18.40625 0 
L 9.421875 0 
z
M 9.421875 75.984375 
L 18.40625 75.984375 
L 18.40625 64.59375 
L 9.421875 64.59375 
z
" id="DejaVuSans-105"/>
      <path d="M 18.3125 70.21875 
L 18.3125 54.6875 
L 36.8125 54.6875 
L 36.8125 47.703125 
L 18.3125 47.703125 
L 18.3125 18.015625 
Q 18.3125 11.328125 20.140625 9.421875 
Q 21.96875 7.515625 27.59375 7.515625 
L 36.8125 7.515625 
L 36.8125 0 
L 27.59375 0 
Q 17.1875 0 13.234375 3.875 
Q 9.28125 7.765625 9.28125 18.015625 
L 9.28125 47.703125 
L 2.6875 47.703125 
L 2.6875 54.6875 
L 9.28125 54.6875 
L 9.28125 70.21875 
z
" id="DejaVuSans-116"/>
      <path d="M 32.171875 -5.078125 
Q 28.375 -14.84375 24.75 -17.8125 
Q 21.140625 -20.796875 15.09375 -20.796875 
L 7.90625 -20.796875 
L 7.90625 -13.28125 
L 13.1875 -13.28125 
Q 16.890625 -13.28125 18.9375 -11.515625 
Q 21 -9.765625 23.484375 -3.21875 
L 25.09375 0.875 
L 2.984375 54.6875 
L 12.5 54.6875 
L 29.59375 11.921875 
L 46.6875 54.6875 
L 56.203125 54.6875 
z
" id="DejaVuSans-121"/>
      <path id="DejaVuSans-32"/>
      <path d="M 37.109375 75.984375 
L 37.109375 68.5 
L 28.515625 68.5 
Q 23.6875 68.5 21.796875 66.546875 
Q 19.921875 64.59375 19.921875 59.515625 
L 19.921875 54.6875 
L 34.71875 54.6875 
L 34.71875 47.703125 
L 19.921875 47.703125 
L 19.921875 0 
L 10.890625 0 
L 10.890625 47.703125 
L 2.296875 47.703125 
L 2.296875 54.6875 
L 10.890625 54.6875 
L 10.890625 58.5 
Q 10.890625 67.625 15.140625 71.796875 
Q 19.390625 75.984375 28.609375 75.984375 
z
" id="DejaVuSans-102"/>
      <path d="M 34.28125 27.484375 
Q 23.390625 27.484375 19.1875 25 
Q 14.984375 22.515625 14.984375 16.5 
Q 14.984375 11.71875 18.140625 8.90625 
Q 21.296875 6.109375 26.703125 6.109375 
Q 34.1875 6.109375 38.703125 11.40625 
Q 43.21875 16.703125 43.21875 25.484375 
L 43.21875 27.484375 
z
M 52.203125 31.203125 
L 52.203125 0 
L 43.21875 0 
L 43.21875 8.296875 
Q 40.140625 3.328125 35.546875 0.953125 
Q 30.953125 -1.421875 24.3125 -1.421875 
Q 15.921875 -1.421875 10.953125 3.296875 
Q 6 8.015625 6 15.921875 
Q 6 25.140625 12.171875 29.828125 
Q 18.359375 34.515625 30.609375 34.515625 
L 43.21875 34.515625 
L 43.21875 35.40625 
Q 43.21875 41.609375 39.140625 45 
Q 35.0625 48.390625 27.6875 48.390625 
Q 23 48.390625 18.546875 47.265625 
Q 14.109375 46.140625 10.015625 43.890625 
L 10.015625 52.203125 
Q 14.9375 54.109375 19.578125 55.046875 
Q 24.21875 56 28.609375 56 
Q 40.484375 56 46.34375 49.84375 
Q 52.203125 43.703125 52.203125 31.203125 
z
" id="DejaVuSans-97"/>
      <path d="M 54.890625 33.015625 
L 54.890625 0 
L 45.90625 0 
L 45.90625 32.71875 
Q 45.90625 40.484375 42.875 44.328125 
Q 39.84375 48.1875 33.796875 48.1875 
Q 26.515625 48.1875 22.3125 43.546875 
Q 18.109375 38.921875 18.109375 30.90625 
L 18.109375 0 
L 9.078125 0 
L 9.078125 54.6875 
L 18.109375 54.6875 
L 18.109375 46.1875 
Q 21.34375 51.125 25.703125 53.5625 
Q 30.078125 56 35.796875 56 
Q 45.21875 56 50.046875 50.171875 
Q 54.890625 44.34375 54.890625 33.015625 
z
" id="DejaVuSans-110"/>
      <path d="M 18.109375 8.203125 
L 18.109375 -20.796875 
L 9.078125 -20.796875 
L 9.078125 54.6875 
L 18.109375 54.6875 
L 18.109375 46.390625 
Q 20.953125 51.265625 25.265625 53.625 
Q 29.59375 56 35.59375 56 
Q 45.5625 56 51.78125 48.09375 
Q 58.015625 40.1875 58.015625 27.296875 
Q 58.015625 14.40625 51.78125 6.484375 
Q 45.5625 -1.421875 35.59375 -1.421875 
Q 29.59375 -1.421875 25.265625 0.953125 
Q 20.953125 3.328125 18.109375 8.203125 
z
M 48.6875 27.296875 
Q 48.6875 37.203125 44.609375 42.84375 
Q 40.53125 48.484375 33.40625 48.484375 
Q 26.265625 48.484375 22.1875 42.84375 
Q 18.109375 37.203125 18.109375 27.296875 
Q 18.109375 17.390625 22.1875 11.75 
Q 26.265625 6.109375 33.40625 6.109375 
Q 40.53125 6.109375 44.609375 11.75 
Q 48.6875 17.390625 48.6875 27.296875 
z
" id="DejaVuSans-112"/>
      <path d="M 31 75.875 
Q 24.46875 64.65625 21.28125 53.65625 
Q 18.109375 42.671875 18.109375 31.390625 
Q 18.109375 20.125 21.3125 9.0625 
Q 24.515625 -2 31 -13.1875 
L 23.1875 -13.1875 
Q 15.875 -1.703125 12.234375 9.375 
Q 8.59375 20.453125 8.59375 31.390625 
Q 8.59375 42.28125 12.203125 53.3125 
Q 15.828125 64.359375 23.1875 75.875 
z
" id="DejaVuSans-40"/>
      <path d="M 25 67.921875 
Q 21.09375 67.921875 18.40625 65.203125 
Q 15.71875 62.5 15.71875 58.59375 
Q 15.71875 54.734375 18.40625 52.078125 
Q 21.09375 49.421875 25 49.421875 
Q 28.90625 49.421875 31.59375 52.078125 
Q 34.28125 54.734375 34.28125 58.59375 
Q 34.28125 62.453125 31.5625 65.1875 
Q 28.859375 67.921875 25 67.921875 
z
M 25 74.21875 
Q 28.125 74.21875 31 73.015625 
Q 33.890625 71.828125 35.984375 69.578125 
Q 38.234375 67.390625 39.359375 64.59375 
Q 40.484375 61.8125 40.484375 58.59375 
Q 40.484375 52.15625 35.96875 47.6875 
Q 31.453125 43.21875 24.90625 43.21875 
Q 18.3125 43.21875 13.90625 47.609375 
Q 9.515625 52 9.515625 58.59375 
Q 9.515625 65.140625 14 69.671875 
Q 18.5 74.21875 25 74.21875 
z
" id="DejaVuSans-176"/>
      <path d="M 25.390625 72.90625 
L 33.6875 72.90625 
L 8.296875 -9.28125 
L 0 -9.28125 
z
" id="DejaVuSans-47"/>
      <path d="M 44.28125 53.078125 
L 44.28125 44.578125 
Q 40.484375 46.53125 36.375 47.5 
Q 32.28125 48.484375 27.875 48.484375 
Q 21.1875 48.484375 17.84375 46.4375 
Q 14.5 44.390625 14.5 40.28125 
Q 14.5 37.15625 16.890625 35.375 
Q 19.28125 33.59375 26.515625 31.984375 
L 29.59375 31.296875 
Q 39.15625 29.25 43.1875 25.515625 
Q 47.21875 21.78125 47.21875 15.09375 
Q 47.21875 7.46875 41.1875 3.015625 
Q 35.15625 -1.421875 24.609375 -1.421875 
Q 20.21875 -1.421875 15.453125 -0.5625 
Q 10.6875 0.296875 5.421875 2 
L 5.421875 11.28125 
Q 10.40625 8.6875 15.234375 7.390625 
Q 20.0625 6.109375 24.8125 6.109375 
Q 31.15625 6.109375 34.5625 8.28125 
Q 37.984375 10.453125 37.984375 14.40625 
Q 37.984375 18.0625 35.515625 20.015625 
Q 33.0625 21.96875 24.703125 23.78125 
L 21.578125 24.515625 
Q 13.234375 26.265625 9.515625 29.90625 
Q 5.8125 33.546875 5.8125 39.890625 
Q 5.8125 47.609375 11.28125 51.796875 
Q 16.75 56 26.8125 56 
Q 31.78125 56 36.171875 55.265625 
Q 40.578125 54.546875 44.28125 53.078125 
z
" id="DejaVuSans-115"/>
      <path d="M 8.015625 75.875 
L 15.828125 75.875 
Q 23.140625 64.359375 26.78125 53.3125 
Q 30.421875 42.28125 30.421875 31.390625 
Q 30.421875 20.453125 26.78125 9.375 
Q 23.140625 -1.703125 15.828125 -13.1875 
L 8.015625 -13.1875 
Q 14.5 -2 17.703125 9.0625 
Q 20.90625 20.125 20.90625 31.390625 
Q 20.90625 42.671875 17.703125 53.65625 
Q 14.5 64.65625 8.015625 75.875 
z
" id="DejaVuSans-41"/>
     </defs>
     <g transform="translate(48.750521 834.054688)rotate(-90)scale(0.5 -0.5)">
      <use xlink:href="#DejaVuSans-86"/>
      <use x="68.298828" xlink:href="#DejaVuSans-101"/>
      <use x="129.822266" xlink:href="#DejaVuSans-108"/>
      <use x="157.605469" xlink:href="#DejaVuSans-111"/>
      <use x="218.787109" xlink:href="#DejaVuSans-99"/>
      <use x="273.767578" xlink:href="#DejaVuSans-105"/>
      <use x="301.550781" xlink:href="#DejaVuSans-116"/>
      <use x="340.759766" xlink:href="#DejaVuSans-121"/>
      <use x="399.939453" xlink:href="#DejaVuSans-32"/>
      <use x="431.726562" xlink:href="#DejaVuSans-111"/>
      <use x="492.908203" xlink:href="#DejaVuSans-102"/>
      <use x="528.113281" xlink:href="#DejaVuSans-32"/>
      <use x="559.900391" xlink:href="#DejaVuSans-97"/>
      <use x="621.179688" xlink:href="#DejaVuSans-110"/>
      <use x="684.558594" xlink:href="#DejaVuSans-116"/>
      <use x="723.767578" xlink:href="#DejaVuSans-105"/>
      <use x="751.550781" xlink:href="#DejaVuSans-99"/>
      <use x="806.53125" xlink:href="#DejaVuSans-105"/>
      <use x="834.314453" xlink:href="#DejaVuSans-112"/>
      <use x="897.791016" xlink:href="#DejaVuSans-97"/>
      <use x="959.070312" xlink:href="#DejaVuSans-116"/>
      <use x="998.279297" xlink:href="#DejaVuSans-105"/>
      <use x="1026.0625" xlink:href="#DejaVuSans-111"/>
      <use x="1087.244141" xlink:href="#DejaVuSans-110"/>
      <use x="1150.623047" xlink:href="#DejaVuSans-32"/>
      <use x="1182.410156" xlink:href="#DejaVuSans-40"/>
      <use x="1221.423828" xlink:href="#DejaVuSans-176"/>
      <use x="1271.423828" xlink:href="#DejaVuSans-47"/>
      <use x="1305.115234" xlink:href="#DejaVuSans-115"/>
      <use x="1357.214844" xlink:href="#DejaVuSans-41"/>
     </g>
    </g>
   </g>
   <g id="LineCollection_1">
    <path clip-path="url(#p0fb7e557f9)" d="M 270.540414 708.867454 
L 270.540414 509.174241 
" style="fill:none;stroke:#0000ff;stroke-width:1.5;"/>
   </g>
   <g id="LineCollection_2">
    <path clip-path="url(#p0fb7e557f9)" d="M 438.472744 588.033105 
L 438.472744 461.497085 
" style="fill:none;stroke:#0000ff;stroke-width:1.5;"/>
   </g>
   <g id="LineCollection_3">
    <path clip-path="url(#p0fb7e557f9)" d="M 606.405075 594.304382 
L 606.405075 440.170129 
" style="fill:none;stroke:#0000ff;stroke-width:1.5;"/>
   </g>
   <g id="LineCollection_4">
    <path clip-path="url(#p0fb7e557f9)" d="M 774.337406 535.881355 
L 774.337406 415.011648 
" style="fill:none;stroke:#0000ff;stroke-width:1.5;"/>
   </g>
   <g id="LineCollection_5">
    <path clip-path="url(#p0fb7e557f9)" d="M 942.269737 485.492006 
L 942.269737 352.631628 
" style="fill:none;stroke:#0000ff;stroke-width:1.5;"/>
   </g>
   <g id="LineCollection_6">
    <path clip-path="url(#p0fb7e557f9)" d="M 283.135338 740.351361 
L 283.135338 520.942329 
" style="fill:none;stroke:#ff7f0e;stroke-width:1.5;"/>
   </g>
   <g id="LineCollection_7">
    <path clip-path="url(#p0fb7e557f9)" d="M 451.067669 610.491512 
L 451.067669 460.824985 
" style="fill:none;stroke:#ff7f0e;stroke-width:1.5;"/>
   </g>
   <g id="LineCollection_8">
    <path clip-path="url(#p0fb7e557f9)" d="M 619 554.095133 
L 619 429.898579 
" style="fill:none;stroke:#ff7f0e;stroke-width:1.5;"/>
   </g>
   <g id="LineCollection_9">
    <path clip-path="url(#p0fb7e557f9)" d="M 786.932331 522.268155 
L 786.932331 388.85935 
" style="fill:none;stroke:#ff7f0e;stroke-width:1.5;"/>
   </g>
   <g id="LineCollection_10">
    <path clip-path="url(#p0fb7e557f9)" d="M 954.864662 475.879021 
L 954.864662 330.394063 
" style="fill:none;stroke:#ff7f0e;stroke-width:1.5;"/>
   </g>
   <g id="LineCollection_11">
    <path clip-path="url(#p0fb7e557f9)" d="M 295.730263 752.13984 
L 295.730263 533.86694 
" style="fill:none;stroke:#008000;stroke-width:1.5;"/>
   </g>
   <g id="LineCollection_12">
    <path clip-path="url(#p0fb7e557f9)" d="M 463.662594 616.362018 
L 463.662594 478.859262 
" style="fill:none;stroke:#008000;stroke-width:1.5;"/>
   </g>
   <g id="LineCollection_13">
    <path clip-path="url(#p0fb7e557f9)" d="M 631.594925 552.122941 
L 631.594925 436.232439 
" style="fill:none;stroke:#008000;stroke-width:1.5;"/>
   </g>
   <g id="LineCollection_14">
    <path clip-path="url(#p0fb7e557f9)" d="M 799.527256 523.658838 
L 799.527256 402.026584 
" style="fill:none;stroke:#008000;stroke-width:1.5;"/>
   </g>
   <g id="LineCollection_15">
    <path clip-path="url(#p0fb7e557f9)" d="M 967.459586 472.828381 
L 967.459586 330.995183 
" style="fill:none;stroke:#008000;stroke-width:1.5;"/>
   </g>
   <g id="line2d_16">
    <defs>
     <path d="M 10 0 
L -10 -0 
" id="ma75b681cf5" style="stroke:#0000ff;"/>
    </defs>
    <g clip-path="url(#p0fb7e557f9)">
     <use style="fill:#0000ff;stroke:#0000ff;" x="270.540414" xlink:href="#ma75b681cf5" y="708.867454"/>
    </g>
   </g>
   <g id="line2d_17">
    <g clip-path="url(#p0fb7e557f9)">
     <use style="fill:#0000ff;stroke:#0000ff;" x="270.540414" xlink:href="#ma75b681cf5" y="509.174241"/>
    </g>
   </g>
   <g id="line2d_18">
    <g clip-path="url(#p0fb7e557f9)">
     <use style="fill:#0000ff;stroke:#0000ff;" x="438.472744" xlink:href="#ma75b681cf5" y="588.033105"/>
    </g>
   </g>
   <g id="line2d_19">
    <g clip-path="url(#p0fb7e557f9)">
     <use style="fill:#0000ff;stroke:#0000ff;" x="438.472744" xlink:href="#ma75b681cf5" y="461.497085"/>
    </g>
   </g>
   <g id="line2d_20">
    <g clip-path="url(#p0fb7e557f9)">
     <use style="fill:#0000ff;stroke:#0000ff;" x="606.405075" xlink:href="#ma75b681cf5" y="594.304382"/>
    </g>
   </g>
   <g id="line2d_21">
    <g clip-path="url(#p0fb7e557f9)">
     <use style="fill:#0000ff;stroke:#0000ff;" x="606.405075" xlink:href="#ma75b681cf5" y="440.170129"/>
    </g>
   </g>
   <g id="line2d_22">
    <g clip-path="url(#p0fb7e557f9)">
     <use style="fill:#0000ff;stroke:#0000ff;" x="774.337406" xlink:href="#ma75b681cf5" y="535.881355"/>
    </g>
   </g>
   <g id="line2d_23">
    <g clip-path="url(#p0fb7e557f9)">
     <use style="fill:#0000ff;stroke:#0000ff;" x="774.337406" xlink:href="#ma75b681cf5" y="415.011648"/>
    </g>
   </g>
   <g id="line2d_24">
    <g clip-path="url(#p0fb7e557f9)">
     <use style="fill:#0000ff;stroke:#0000ff;" x="942.269737" xlink:href="#ma75b681cf5" y="485.492006"/>
    </g>
   </g>
   <g id="line2d_25">
    <g clip-path="url(#p0fb7e557f9)">
     <use style="fill:#0000ff;stroke:#0000ff;" x="942.269737" xlink:href="#ma75b681cf5" y="352.631628"/>
    </g>
   </g>
   <g id="line2d_26">
    <path clip-path="url(#p0fb7e557f9)" d="M 207.775597 594.898574 
L 216.052408 592.851886 
L 224.32922 590.805198 
L 232.606032 588.75851 
L 240.882843 586.711822 
L 249.159655 584.665134 
L 257.436467 582.618445 
L 265.713278 580.571757 
L 273.99009 578.525069 
L 282.266902 576.478381 
L 290.543713 574.431693 
L 298.820525 572.385005 
L 307.097337 570.338317 
L 315.374148 568.291628 
L 323.65096 566.24494 
L 331.927772 564.198252 
L 340.204583 562.151564 
L 348.481395 560.104876 
L 356.758207 558.058188 
L 365.035018 556.0115 
L 373.31183 553.964811 
L 381.588642 551.918123 
L 389.865453 549.871435 
L 398.142265 547.824747 
L 406.419077 545.778059 
L 414.695888 543.731371 
L 422.9727 541.684683 
L 431.249512 539.637994 
L 439.526323 537.591306 
L 447.803135 535.544618 
L 456.079947 533.49793 
L 464.356758 531.451242 
L 472.63357 529.404554 
L 480.910382 527.357866 
L 489.187193 525.311178 
L 497.464005 523.264489 
L 505.740817 521.217801 
L 514.017628 519.171113 
L 522.29444 517.124425 
L 530.571252 515.077737 
L 538.848063 513.031049 
L 547.124875 510.984361 
L 555.401687 508.937672 
L 563.678498 506.890984 
L 571.95531 504.844296 
L 580.232122 502.797608 
L 588.508933 500.75092 
L 596.785745 498.704232 
L 605.062557 496.657544 
L 613.339368 494.610855 
L 621.61618 492.564167 
L 629.892992 490.517479 
L 638.169803 488.470791 
L 646.446615 486.424103 
L 654.723427 484.377415 
L 663.000238 482.330727 
L 671.27705 480.284038 
L 679.553862 478.23735 
L 687.830673 476.190662 
L 696.107485 474.143974 
L 704.384297 472.097286 
L 712.661108 470.050598 
L 720.93792 468.00391 
L 729.214732 465.957221 
L 737.491543 463.910533 
L 745.768355 461.863845 
L 754.045167 459.817157 
L 762.321978 457.770469 
L 770.59879 455.723781 
L 778.875602 453.677093 
L 787.152413 451.630404 
L 795.429225 449.583716 
L 803.706037 447.537028 
L 811.982848 445.49034 
L 820.25966 443.443652 
L 828.536472 441.396964 
L 836.813283 439.350276 
L 845.090095 437.303588 
L 853.366907 435.256899 
L 861.643718 433.210211 
L 869.92053 431.163523 
L 878.197342 429.116835 
L 886.474153 427.070147 
L 894.750965 425.023459 
L 903.027777 422.976771 
L 911.304588 420.930082 
L 919.5814 418.883394 
L 927.858212 416.836706 
L 936.135023 414.790018 
L 944.411835 412.74333 
L 952.688647 410.696642 
L 960.965458 408.649954 
L 969.24227 406.603265 
L 977.519082 404.556577 
L 985.795893 402.509889 
L 994.072705 400.463201 
L 1002.349517 398.416513 
L 1010.626328 396.369825 
L 1018.90314 394.323137 
L 1027.179952 392.276448 
" style="fill:none;stroke:#0000ff;stroke-linecap:square;stroke-width:3;"/>
   </g>
   <g id="line2d_27">
    <defs>
     <path d="M 10 0 
L -10 -0 
" id="m283473e231" style="stroke:#ff7f0e;"/>
    </defs>
    <g clip-path="url(#p0fb7e557f9)">
     <use style="fill:#ff7f0e;stroke:#ff7f0e;" x="283.135338" xlink:href="#m283473e231" y="740.351361"/>
    </g>
   </g>
   <g id="line2d_28">
    <g clip-path="url(#p0fb7e557f9)">
     <use style="fill:#ff7f0e;stroke:#ff7f0e;" x="283.135338" xlink:href="#m283473e231" y="520.942329"/>
    </g>
   </g>
   <g id="line2d_29">
    <g clip-path="url(#p0fb7e557f9)">
     <use style="fill:#ff7f0e;stroke:#ff7f0e;" x="451.067669" xlink:href="#m283473e231" y="610.491512"/>
    </g>
   </g>
   <g id="line2d_30">
    <g clip-path="url(#p0fb7e557f9)">
     <use style="fill:#ff7f0e;stroke:#ff7f0e;" x="451.067669" xlink:href="#m283473e231" y="460.824985"/>
    </g>
   </g>
   <g id="line2d_31">
    <g clip-path="url(#p0fb7e557f9)">
     <use style="fill:#ff7f0e;stroke:#ff7f0e;" x="619" xlink:href="#m283473e231" y="554.095133"/>
    </g>
   </g>
   <g id="line2d_32">
    <g clip-path="url(#p0fb7e557f9)">
     <use style="fill:#ff7f0e;stroke:#ff7f0e;" x="619" xlink:href="#m283473e231" y="429.898579"/>
    </g>
   </g>
   <g id="line2d_33">
    <g clip-path="url(#p0fb7e557f9)">
     <use style="fill:#ff7f0e;stroke:#ff7f0e;" x="786.932331" xlink:href="#m283473e231" y="522.268155"/>
    </g>
   </g>
   <g id="line2d_34">
    <g clip-path="url(#p0fb7e557f9)">
     <use style="fill:#ff7f0e;stroke:#ff7f0e;" x="786.932331" xlink:href="#m283473e231" y="388.85935"/>
    </g>
   </g>
   <g id="line2d_35">
    <g clip-path="url(#p0fb7e557f9)">
     <use style="fill:#ff7f0e;stroke:#ff7f0e;" x="954.864662" xlink:href="#m283473e231" y="475.879021"/>
    </g>
   </g>
   <g id="line2d_36">
    <g clip-path="url(#p0fb7e557f9)">
     <use style="fill:#ff7f0e;stroke:#ff7f0e;" x="954.864662" xlink:href="#m283473e231" y="330.394063"/>
    </g>
   </g>
   <g id="line2d_37">
    <path clip-path="url(#p0fb7e557f9)" d="M 229.167609 612.824942 
L 236.887242 610.282342 
L 244.606874 607.739742 
L 252.326507 605.197143 
L 260.04614 602.654543 
L 267.765772 600.111944 
L 275.485405 597.569344 
L 283.205037 595.026744 
L 290.92467 592.484145 
L 298.644303 589.941545 
L 306.363935 587.398945 
L 314.083568 584.856346 
L 321.803201 582.313746 
L 329.522833 579.771147 
L 337.242466 577.228547 
L 344.962099 574.685947 
L 352.681731 572.143348 
L 360.401364 569.600748 
L 368.120996 567.058148 
L 375.840629 564.515549 
L 383.560262 561.972949 
L 391.279894 559.430349 
L 398.999527 556.88775 
L 406.71916 554.34515 
L 414.438792 551.802551 
L 422.158425 549.259951 
L 429.878057 546.717351 
L 437.59769 544.174752 
L 445.317323 541.632152 
L 453.036955 539.089552 
L 460.756588 536.546953 
L 468.476221 534.004353 
L 476.195853 531.461753 
L 483.915486 528.919154 
L 491.635118 526.376554 
L 499.354751 523.833955 
L 507.074384 521.291355 
L 514.794016 518.748755 
L 522.513649 516.206156 
L 530.233282 513.663556 
L 537.952914 511.120956 
L 545.672547 508.578357 
L 553.39218 506.035757 
L 561.111812 503.493157 
L 568.831445 500.950558 
L 576.551077 498.407958 
L 584.27071 495.865359 
L 591.990343 493.322759 
L 599.709975 490.780159 
L 607.429608 488.23756 
L 615.149241 485.69496 
L 622.868873 483.15236 
L 630.588506 480.609761 
L 638.308138 478.067161 
L 646.027771 475.524562 
L 653.747404 472.981962 
L 661.467036 470.439362 
L 669.186669 467.896763 
L 676.906302 465.354163 
L 684.625934 462.811563 
L 692.345567 460.268964 
L 700.0652 457.726364 
L 707.784832 455.183764 
L 715.504465 452.641165 
L 723.224097 450.098565 
L 730.94373 447.555966 
L 738.663363 445.013366 
L 746.382995 442.470766 
L 754.102628 439.928167 
L 761.822261 437.385567 
L 769.541893 434.842967 
L 777.261526 432.300368 
L 784.981158 429.757768 
L 792.700791 427.215168 
L 800.420424 424.672569 
L 808.140056 422.129969 
L 815.859689 419.58737 
L 823.579322 417.04477 
L 831.298954 414.50217 
L 839.018587 411.959571 
L 846.738219 409.416971 
L 854.457852 406.874371 
L 862.177485 404.331772 
L 869.897117 401.789172 
L 877.61675 399.246572 
L 885.336383 396.703973 
L 893.056015 394.161373 
L 900.775648 391.618774 
L 908.495281 389.076174 
L 916.214913 386.533574 
L 923.934546 383.990975 
L 931.654178 381.448375 
L 939.373811 378.905775 
L 947.093444 376.363176 
L 954.813076 373.820576 
L 962.532709 371.277977 
L 970.252342 368.735377 
L 977.971974 366.192777 
L 985.691607 363.650178 
L 993.411239 361.107578 
" style="fill:none;stroke:#ff7f0e;stroke-linecap:square;stroke-width:3;"/>
   </g>
   <g id="line2d_38">
    <defs>
     <path d="M 10 0 
L -10 -0 
" id="mf0256d7890" style="stroke:#008000;"/>
    </defs>
    <g clip-path="url(#p0fb7e557f9)">
     <use style="fill:#008000;stroke:#008000;" x="295.730263" xlink:href="#mf0256d7890" y="752.13984"/>
    </g>
   </g>
   <g id="line2d_39">
    <g clip-path="url(#p0fb7e557f9)">
     <use style="fill:#008000;stroke:#008000;" x="295.730263" xlink:href="#mf0256d7890" y="533.86694"/>
    </g>
   </g>
   <g id="line2d_40">
    <g clip-path="url(#p0fb7e557f9)">
     <use style="fill:#008000;stroke:#008000;" x="463.662594" xlink:href="#mf0256d7890" y="616.362018"/>
    </g>
   </g>
   <g id="line2d_41">
    <g clip-path="url(#p0fb7e557f9)">
     <use style="fill:#008000;stroke:#008000;" x="463.662594" xlink:href="#mf0256d7890" y="478.859262"/>
    </g>
   </g>
   <g id="line2d_42">
    <g clip-path="url(#p0fb7e557f9)">
     <use style="fill:#008000;stroke:#008000;" x="631.594925" xlink:href="#mf0256d7890" y="552.122941"/>
    </g>
   </g>
   <g id="line2d_43">
    <g clip-path="url(#p0fb7e557f9)">
     <use style="fill:#008000;stroke:#008000;" x="631.594925" xlink:href="#mf0256d7890" y="436.232439"/>
    </g>
   </g>
   <g id="line2d_44">
    <g clip-path="url(#p0fb7e557f9)">
     <use style="fill:#008000;stroke:#008000;" x="799.527256" xlink:href="#mf0256d7890" y="523.658838"/>
    </g>
   </g>
   <g id="line2d_45">
    <g clip-path="url(#p0fb7e557f9)">
     <use style="fill:#008000;stroke:#008000;" x="799.527256" xlink:href="#mf0256d7890" y="402.026584"/>
    </g>
   </g>
   <g id="line2d_46">
    <g clip-path="url(#p0fb7e557f9)">
     <use style="fill:#008000;stroke:#008000;" x="967.459586" xlink:href="#mf0256d7890" y="472.828381"/>
    </g>
   </g>
   <g id="line2d_47">
    <g clip-path="url(#p0fb7e557f9)">
     <use style="fill:#008000;stroke:#008000;" x="967.459586" xlink:href="#mf0256d7890" y="330.995183"/>
    </g>
   </g>
   <g id="line2d_48">
    <path clip-path="url(#p0fb7e557f9)" d="M 229.055516 626.16066 
L 236.853488 623.502591 
L 244.65146 620.844523 
L 252.449431 618.186454 
L 260.247403 615.528386 
L 268.045375 612.870317 
L 275.843347 610.212249 
L 283.641319 607.55418 
L 291.439291 604.896112 
L 299.237262 602.238043 
L 307.035234 599.579975 
L 314.833206 596.921906 
L 322.631178 594.263838 
L 330.42915 591.605769 
L 338.227122 588.947701 
L 346.025093 586.289632 
L 353.823065 583.631563 
L 361.621037 580.973495 
L 369.419009 578.315426 
L 377.216981 575.657358 
L 385.014953 572.999289 
L 392.812925 570.341221 
L 400.610896 567.683152 
L 408.408868 565.025084 
L 416.20684 562.367015 
L 424.004812 559.708947 
L 431.802784 557.050878 
L 439.600756 554.39281 
L 447.398727 551.734741 
L 455.196699 549.076673 
L 462.994671 546.418604 
L 470.792643 543.760536 
L 478.590615 541.102467 
L 486.388587 538.444399 
L 494.186558 535.78633 
L 501.98453 533.128262 
L 509.782502 530.470193 
L 517.580474 527.812125 
L 525.378446 525.154056 
L 533.176418 522.495988 
L 540.974389 519.837919 
L 548.772361 517.179851 
L 556.570333 514.521782 
L 564.368305 511.863714 
L 572.166277 509.205645 
L 579.964249 506.547577 
L 587.762221 503.889508 
L 595.560192 501.23144 
L 603.358164 498.573371 
L 611.156136 495.915302 
L 618.954108 493.257234 
L 626.75208 490.599165 
L 634.550052 487.941097 
L 642.348023 485.283028 
L 650.145995 482.62496 
L 657.943967 479.966891 
L 665.741939 477.308823 
L 673.539911 474.650754 
L 681.337883 471.992686 
L 689.135854 469.334617 
L 696.933826 466.676549 
L 704.731798 464.01848 
L 712.52977 461.360412 
L 720.327742 458.702343 
L 728.125714 456.044275 
L 735.923685 453.386206 
L 743.721657 450.728138 
L 751.519629 448.070069 
L 759.317601 445.412001 
L 767.115573 442.753932 
L 774.913545 440.095864 
L 782.711517 437.437795 
L 790.509488 434.779727 
L 798.30746 432.121658 
L 806.105432 429.46359 
L 813.903404 426.805521 
L 821.701376 424.147453 
L 829.499348 421.489384 
L 837.297319 418.831316 
L 845.095291 416.173247 
L 852.893263 413.515179 
L 860.691235 410.85711 
L 868.489207 408.199041 
L 876.287179 405.540973 
L 884.08515 402.882904 
L 891.883122 400.224836 
L 899.681094 397.566767 
L 907.479066 394.908699 
L 915.277038 392.25063 
L 923.07501 389.592562 
L 930.872981 386.934493 
L 938.670953 384.276425 
L 946.468925 381.618356 
L 954.266897 378.960288 
L 962.064869 376.302219 
L 969.862841 373.644151 
L 977.660812 370.986082 
L 985.458784 368.328014 
L 993.256756 365.669945 
L 1001.054728 363.011877 
" style="fill:none;stroke:#008000;stroke-linecap:square;stroke-width:3;"/>
   </g>
   <g id="line2d_49">
    <path clip-path="url(#p0fb7e557f9)" d="M 270.540414 708.867454 
" style="fill:none;stroke:#0000ff;stroke-linecap:square;stroke-width:1.5;"/>
   </g>
   <g id="line2d_50">
    <path clip-path="url(#p0fb7e557f9)" d="M 438.472744 588.033105 
" style="fill:none;stroke:#0000ff;stroke-linecap:square;stroke-width:1.5;"/>
   </g>
   <g id="line2d_51">
    <path clip-path="url(#p0fb7e557f9)" d="M 606.405075 594.304382 
" style="fill:none;stroke:#0000ff;stroke-linecap:square;stroke-width:1.5;"/>
   </g>
   <g id="line2d_52">
    <path clip-path="url(#p0fb7e557f9)" d="M 774.337406 535.881355 
" style="fill:none;stroke:#0000ff;stroke-linecap:square;stroke-width:1.5;"/>
   </g>
   <g id="line2d_53">
    <path clip-path="url(#p0fb7e557f9)" d="M 942.269737 485.492006 
" style="fill:none;stroke:#0000ff;stroke-linecap:square;stroke-width:1.5;"/>
   </g>
   <g id="line2d_54">
    <path clip-path="url(#p0fb7e557f9)" d="M 283.135338 740.351361 
" style="fill:none;stroke:#ff7f0e;stroke-linecap:square;stroke-width:1.5;"/>
   </g>
   <g id="line2d_55">
    <path clip-path="url(#p0fb7e557f9)" d="M 451.067669 610.491512 
" style="fill:none;stroke:#ff7f0e;stroke-linecap:square;stroke-width:1.5;"/>
   </g>
   <g id="line2d_56">
    <path clip-path="url(#p0fb7e557f9)" d="M 619 554.095133 
" style="fill:none;stroke:#ff7f0e;stroke-linecap:square;stroke-width:1.5;"/>
   </g>
   <g id="line2d_57">
    <path clip-path="url(#p0fb7e557f9)" d="M 786.932331 522.268155 
" style="fill:none;stroke:#ff7f0e;stroke-linecap:square;stroke-width:1.5;"/>
   </g>
   <g id="line2d_58">
    <path clip-path="url(#p0fb7e557f9)" d="M 954.864662 475.879021 
" style="fill:none;stroke:#ff7f0e;stroke-linecap:square;stroke-width:1.5;"/>
   </g>
   <g id="line2d_59">
    <path clip-path="url(#p0fb7e557f9)" d="M 295.730263 752.13984 
" style="fill:none;stroke:#008000;stroke-linecap:square;stroke-width:1.5;"/>
   </g>
   <g id="line2d_60">
    <path clip-path="url(#p0fb7e557f9)" d="M 463.662594 616.362018 
" style="fill:none;stroke:#008000;stroke-linecap:square;stroke-width:1.5;"/>
   </g>
   <g id="line2d_61">
    <path clip-path="url(#p0fb7e557f9)" d="M 631.594925 552.122941 
" style="fill:none;stroke:#008000;stroke-linecap:square;stroke-width:1.5;"/>
   </g>
   <g id="line2d_62">
    <path clip-path="url(#p0fb7e557f9)" d="M 799.527256 523.658838 
" style="fill:none;stroke:#008000;stroke-linecap:square;stroke-width:1.5;"/>
   </g>
   <g id="line2d_63">
    <path clip-path="url(#p0fb7e557f9)" d="M 967.459586 472.828381 
" style="fill:none;stroke:#008000;stroke-linecap:square;stroke-width:1.5;"/>
   </g>
   <g id="patch_3">
    <path d="M 172.3 955.7 
L 172.3 14.3 
" style="fill:none;stroke:#000000;stroke-linecap:square;stroke-linejoin:miter;stroke-width:0.8;"/>
   </g>
   <g id="patch_4">
    <path d="M 1065.7 955.7 
L 1065.7 14.3 
" style="fill:none;stroke:#000000;stroke-linecap:square;stroke-linejoin:miter;stroke-width:0.8;"/>
   </g>
   <g id="patch_5">
    <path d="M 172.3 955.7 
L 1065.7 955.7 
" style="fill:none;stroke:#000000;stroke-linecap:square;stroke-linejoin:miter;stroke-width:0.8;"/>
   </g>
   <g id="patch_6">
    <path d="M 172.3 14.3 
L 1065.7 14.3 
" style="fill:none;stroke:#000000;stroke-linecap:square;stroke-linejoin:miter;stroke-width:0.8;"/>
   </g>
  </g>
  <g id="axes_2">
   <g id="patch_7">
    <path d="M 226.3 322.2 
L 496.3 322.2 
L 496.3 52.2 
L 226.3 52.2 
z
" style="fill:#ffffff;"/>
   </g>
   <g id="PathCollection_16">
    <defs>
     <path d="M 0 3.535534 
C 0.937635 3.535534 1.836992 3.163008 2.5 2.5 
C 3.163008 1.836992 3.535534 0.937635 3.535534 0 
C 3.535534 -0.937635 3.163008 -1.836992 2.5 -2.5 
C 1.836992 -3.163008 0.937635 -3.535534 0 -3.535534 
C -0.937635 -3.535534 -1.836992 -3.163008 -2.5 -2.5 
C -3.163008 -1.836992 -3.535534 -0.937635 -3.535534 0 
C -3.535534 0.937635 -3.163008 1.836992 -2.5 2.5 
C -1.836992 3.163008 -0.937635 3.535534 0 3.535534 
z
" id="m2c28350fa1"/>
    </defs>
    <g clip-path="url(#p51b771bbaa)">
     <use style="fill:#0000ff;" x="242.804702" xlink:href="#m2c28350fa1" y="231.835498"/>
    </g>
   </g>
   <g id="PathCollection_17">
    <g clip-path="url(#p51b771bbaa)">
     <use style="fill:#0000ff;" x="248.960302" xlink:href="#m2c28350fa1" y="211.117283"/>
    </g>
   </g>
   <g id="PathCollection_18">
    <g clip-path="url(#p51b771bbaa)">
     <use style="fill:#0000ff;" x="255.115902" xlink:href="#m2c28350fa1" y="208.169506"/>
    </g>
   </g>
   <g id="PathCollection_19">
    <g clip-path="url(#p51b771bbaa)">
     <use style="fill:#0000ff;" x="261.271502" xlink:href="#m2c28350fa1" y="205.657831"/>
    </g>
   </g>
   <g id="PathCollection_20">
    <g clip-path="url(#p51b771bbaa)">
     <use style="fill:#0000ff;" x="267.427102" xlink:href="#m2c28350fa1" y="197.982099"/>
    </g>
   </g>
   <g id="PathCollection_21">
    <g clip-path="url(#p51b771bbaa)">
     <use style="fill:#0000ff;" x="273.582702" xlink:href="#m2c28350fa1" y="204.285294"/>
    </g>
   </g>
   <g id="PathCollection_22">
    <g clip-path="url(#p51b771bbaa)">
     <use style="fill:#0000ff;" x="279.738302" xlink:href="#m2c28350fa1" y="203.594275"/>
    </g>
   </g>
   <g id="PathCollection_23">
    <g clip-path="url(#p51b771bbaa)">
     <use style="fill:#0000ff;" x="285.893901" xlink:href="#m2c28350fa1" y="223.010798"/>
    </g>
   </g>
   <g id="PathCollection_24">
    <g clip-path="url(#p51b771bbaa)">
     <use style="fill:#0000ff;" x="292.049501" xlink:href="#m2c28350fa1" y="217.001637"/>
    </g>
   </g>
   <g id="PathCollection_25">
    <g clip-path="url(#p51b771bbaa)">
     <use style="fill:#0000ff;" x="298.205101" xlink:href="#m2c28350fa1" y="192.602992"/>
    </g>
   </g>
   <g id="PathCollection_26">
    <g clip-path="url(#p51b771bbaa)">
     <use style="fill:#0000ff;" x="304.360701" xlink:href="#m2c28350fa1" y="208.976728"/>
    </g>
   </g>
   <g id="PathCollection_27">
    <g clip-path="url(#p51b771bbaa)">
     <use style="fill:#0000ff;" x="310.516301" xlink:href="#m2c28350fa1" y="236.337675"/>
    </g>
   </g>
   <g id="PathCollection_28">
    <defs>
     <path d="M 0 3.535534 
C 0.937635 3.535534 1.836992 3.163008 2.5 2.5 
C 3.163008 1.836992 3.535534 0.937635 3.535534 0 
C 3.535534 -0.937635 3.163008 -1.836992 2.5 -2.5 
C 1.836992 -3.163008 0.937635 -3.535534 0 -3.535534 
C -0.937635 -3.535534 -1.836992 -3.163008 -2.5 -2.5 
C -3.163008 -1.836992 -3.535534 -0.937635 -3.535534 0 
C -3.535534 0.937635 -3.163008 1.836992 -2.5 2.5 
C -1.836992 3.163008 -0.937635 3.535534 0 3.535534 
z
" id="m13cc09ad6e"/>
    </defs>
    <g clip-path="url(#p51b771bbaa)">
     <use style="fill:#ff7f0e;" x="327.444201" xlink:href="#m13cc09ad6e" y="212.298519"/>
    </g>
   </g>
   <g id="PathCollection_29">
    <g clip-path="url(#p51b771bbaa)">
     <use style="fill:#ff7f0e;" x="333.599801" xlink:href="#m13cc09ad6e" y="217.6509"/>
    </g>
   </g>
   <g id="PathCollection_30">
    <g clip-path="url(#p51b771bbaa)">
     <use style="fill:#ff7f0e;" x="339.7554" xlink:href="#m13cc09ad6e" y="200.598475"/>
    </g>
   </g>
   <g id="PathCollection_31">
    <g clip-path="url(#p51b771bbaa)">
     <use style="fill:#ff7f0e;" x="345.911" xlink:href="#m13cc09ad6e" y="209.526707"/>
    </g>
   </g>
   <g id="PathCollection_32">
    <g clip-path="url(#p51b771bbaa)">
     <use style="fill:#ff7f0e;" x="352.0666" xlink:href="#m13cc09ad6e" y="209.244726"/>
    </g>
   </g>
   <g id="PathCollection_33">
    <g clip-path="url(#p51b771bbaa)">
     <use style="fill:#ff7f0e;" x="358.2222" xlink:href="#m13cc09ad6e" y="206.225114"/>
    </g>
   </g>
   <g id="PathCollection_34">
    <g clip-path="url(#p51b771bbaa)">
     <use style="fill:#ff7f0e;" x="364.3778" xlink:href="#m13cc09ad6e" y="210.848073"/>
    </g>
   </g>
   <g id="PathCollection_35">
    <g clip-path="url(#p51b771bbaa)">
     <use style="fill:#ff7f0e;" x="370.5334" xlink:href="#m13cc09ad6e" y="237.090727"/>
    </g>
   </g>
   <g id="PathCollection_36">
    <g clip-path="url(#p51b771bbaa)">
     <use style="fill:#ff7f0e;" x="376.689" xlink:href="#m13cc09ad6e" y="219.922046"/>
    </g>
   </g>
   <g id="PathCollection_37">
    <g clip-path="url(#p51b771bbaa)">
     <use style="fill:#ff7f0e;" x="382.8446" xlink:href="#m13cc09ad6e" y="193.625734"/>
    </g>
   </g>
   <g id="PathCollection_38">
    <g clip-path="url(#p51b771bbaa)">
     <use style="fill:#ff7f0e;" x="389.000199" xlink:href="#m13cc09ad6e" y="205.59738"/>
    </g>
   </g>
   <g id="PathCollection_39">
    <g clip-path="url(#p51b771bbaa)">
     <use style="fill:#ff7f0e;" x="395.155799" xlink:href="#m13cc09ad6e" y="246.671815"/>
    </g>
   </g>
   <g id="PathCollection_40">
    <defs>
     <path d="M 0 3.535534 
C 0.937635 3.535534 1.836992 3.163008 2.5 2.5 
C 3.163008 1.836992 3.535534 0.937635 3.535534 0 
C 3.535534 -0.937635 3.163008 -1.836992 2.5 -2.5 
C 1.836992 -3.163008 0.937635 -3.535534 0 -3.535534 
C -0.937635 -3.535534 -1.836992 -3.163008 -2.5 -2.5 
C -3.163008 -1.836992 -3.535534 -0.937635 -3.535534 0 
C -3.535534 0.937635 -3.163008 1.836992 -2.5 2.5 
C -1.836992 3.163008 -0.937635 3.535534 0 3.535534 
z
" id="mf8978c2738"/>
    </defs>
    <g clip-path="url(#p51b771bbaa)">
     <use style="fill:#008000;" x="412.083699" xlink:href="#mf8978c2738" y="218.261418"/>
    </g>
   </g>
   <g id="PathCollection_41">
    <g clip-path="url(#p51b771bbaa)">
     <use style="fill:#008000;" x="418.239299" xlink:href="#mf8978c2738" y="200.046365"/>
    </g>
   </g>
   <g id="PathCollection_42">
    <g clip-path="url(#p51b771bbaa)">
     <use style="fill:#008000;" x="424.394899" xlink:href="#mf8978c2738" y="194.660839"/>
    </g>
   </g>
   <g id="PathCollection_43">
    <g clip-path="url(#p51b771bbaa)">
     <use style="fill:#008000;" x="430.550499" xlink:href="#mf8978c2738" y="194.437256"/>
    </g>
   </g>
   <g id="PathCollection_44">
    <g clip-path="url(#p51b771bbaa)">
     <use style="fill:#008000;" x="436.706099" xlink:href="#mf8978c2738" y="192.065751"/>
    </g>
   </g>
   <g id="PathCollection_45">
    <g clip-path="url(#p51b771bbaa)">
     <use style="fill:#008000;" x="442.861698" xlink:href="#mf8978c2738" y="198.890932"/>
    </g>
   </g>
   <g id="PathCollection_46">
    <g clip-path="url(#p51b771bbaa)">
     <use style="fill:#008000;" x="449.017298" xlink:href="#mf8978c2738" y="189.303017"/>
    </g>
   </g>
   <g id="PathCollection_47">
    <g clip-path="url(#p51b771bbaa)">
     <use style="fill:#008000;" x="455.172898" xlink:href="#mf8978c2738" y="222.904402"/>
    </g>
   </g>
   <g id="PathCollection_48">
    <g clip-path="url(#p51b771bbaa)">
     <use style="fill:#008000;" x="461.328498" xlink:href="#mf8978c2738" y="208.497488"/>
    </g>
   </g>
   <g id="PathCollection_49">
    <g clip-path="url(#p51b771bbaa)">
     <use style="fill:#008000;" x="467.484098" xlink:href="#mf8978c2738" y="178.555461"/>
    </g>
   </g>
   <g id="PathCollection_50">
    <g clip-path="url(#p51b771bbaa)">
     <use style="fill:#008000;" x="473.639698" xlink:href="#mf8978c2738" y="187.627754"/>
    </g>
   </g>
   <g id="PathCollection_51">
    <g clip-path="url(#p51b771bbaa)">
     <use style="fill:#008000;" x="479.795298" xlink:href="#mf8978c2738" y="226.523493"/>
    </g>
   </g>
   <g id="patch_8">
    <path clip-path="url(#p51b771bbaa)" d="M 238.572727 322.2 
L 314.748276 322.2 
L 314.748276 214.744148 
L 238.572727 214.744148 
z
" style="fill:#0000ff;opacity:0.4;"/>
   </g>
   <g id="patch_9">
    <path clip-path="url(#p51b771bbaa)" d="M 323.212226 322.2 
L 399.387774 322.2 
L 399.387774 217.36723 
L 323.212226 217.36723 
z
" style="fill:#ff7f0e;opacity:0.4;"/>
   </g>
   <g id="patch_10">
    <path clip-path="url(#p51b771bbaa)" d="M 407.851724 322.2 
L 484.027273 322.2 
L 484.027273 203.871931 
L 407.851724 203.871931 
z
" style="fill:#008000;opacity:0.4;"/>
   </g>
   <g id="matplotlib.axis_3">
    <g id="xtick_7">
     <g id="line2d_64">
      <g>
       <use style="stroke:#000000;stroke-width:0.8;" x="276.660502" xlink:href="#m84b9bb8598" y="322.2"/>
      </g>
     </g>
    </g>
    <g id="xtick_8">
     <g id="line2d_65">
      <g>
       <use style="stroke:#000000;stroke-width:0.8;" x="361.3" xlink:href="#m84b9bb8598" y="322.2"/>
      </g>
     </g>
    </g>
    <g id="xtick_9">
     <g id="line2d_66">
      <g>
       <use style="stroke:#000000;stroke-width:0.8;" x="445.939498" xlink:href="#m84b9bb8598" y="322.2"/>
      </g>
     </g>
    </g>
   </g>
   <g id="matplotlib.axis_4">
    <g id="ytick_10">
     <g id="line2d_67">
      <g>
       <use style="stroke:#000000;stroke-width:0.8;" x="226.3" xlink:href="#me57c199552" y="322.2"/>
      </g>
     </g>
     <g id="text_18">
      <!-- 0.0 -->
      <g transform="translate(183.959722 330.642708)scale(0.222222 -0.222222)">
       <use xlink:href="#DejaVuSans-48"/>
       <use x="63.623047" xlink:href="#DejaVuSans-46"/>
       <use x="95.410156" xlink:href="#DejaVuSans-48"/>
      </g>
     </g>
    </g>
    <g id="ytick_11">
     <g id="line2d_68">
      <g>
       <use style="stroke:#000000;stroke-width:0.8;" x="226.3" xlink:href="#me57c199552" y="232.2"/>
      </g>
     </g>
     <g id="text_19">
      <!-- 0.5 -->
      <g transform="translate(183.959722 240.642708)scale(0.222222 -0.222222)">
       <use xlink:href="#DejaVuSans-48"/>
       <use x="63.623047" xlink:href="#DejaVuSans-46"/>
       <use x="95.410156" xlink:href="#DejaVuSans-53"/>
      </g>
     </g>
    </g>
    <g id="ytick_12">
     <g id="line2d_69">
      <g>
       <use style="stroke:#000000;stroke-width:0.8;" x="226.3" xlink:href="#me57c199552" y="142.2"/>
      </g>
     </g>
     <g id="text_20">
      <!-- 1.0 -->
      <g transform="translate(183.959722 150.642708)scale(0.222222 -0.222222)">
       <use xlink:href="#DejaVuSans-49"/>
       <use x="63.623047" xlink:href="#DejaVuSans-46"/>
       <use x="95.410156" xlink:href="#DejaVuSans-48"/>
      </g>
     </g>
    </g>
   </g>
   <g id="LineCollection_16">
    <path clip-path="url(#p51b771bbaa)" d="M 259.732602 88.2 
L 462.867398 88.2 
" style="fill:none;stroke:#000000;stroke-width:1.5;"/>
   </g>
   <g id="LineCollection_17">
    <path clip-path="url(#p51b771bbaa)" d="M 369.76395 124.2 
L 454.403448 124.2 
" style="fill:none;stroke:#000000;stroke-width:1.5;"/>
   </g>
   <g id="patch_11">
    <path d="M 226.3 322.2 
L 226.3 142.2 
" style="fill:none;stroke:#000000;stroke-linecap:square;stroke-linejoin:miter;stroke-width:0.8;"/>
   </g>
   <g id="patch_12">
    <path d="M 226.3 322.2 
L 496.3 322.2 
" style="fill:none;stroke:#000000;stroke-linecap:square;stroke-linejoin:miter;stroke-width:0.8;"/>
   </g>
   <g id="text_21">
    <!-- 0.597 -->
    <defs>
     <path d="M 46 36.53125 
Q 46 50.203125 43.4375 55.78125 
Q 40.875 61.375 34.8125 61.375 
Q 28.765625 61.375 26.171875 55.78125 
Q 23.578125 50.203125 23.578125 36.53125 
Q 23.578125 22.703125 26.171875 17.03125 
Q 28.765625 11.375 34.8125 11.375 
Q 40.828125 11.375 43.40625 17.03125 
Q 46 22.703125 46 36.53125 
z
M 64.796875 36.375 
Q 64.796875 18.265625 56.984375 8.421875 
Q 49.171875 -1.421875 34.8125 -1.421875 
Q 20.40625 -1.421875 12.59375 8.421875 
Q 4.78125 18.265625 4.78125 36.375 
Q 4.78125 54.546875 12.59375 64.375 
Q 20.40625 74.21875 34.8125 74.21875 
Q 49.171875 74.21875 56.984375 64.375 
Q 64.796875 54.546875 64.796875 36.375 
z
" id="DejaVuSans-Bold-48"/>
     <path d="M 10.203125 18.890625 
L 27.78125 18.890625 
L 27.78125 0 
L 10.203125 0 
z
" id="DejaVuSans-Bold-46"/>
     <path d="M 10.59375 72.90625 
L 57.328125 72.90625 
L 57.328125 59.078125 
L 25.59375 59.078125 
L 25.59375 47.796875 
Q 27.734375 48.390625 29.90625 48.703125 
Q 32.078125 49.03125 34.421875 49.03125 
Q 47.75 49.03125 55.171875 42.359375 
Q 62.59375 35.6875 62.59375 23.78125 
Q 62.59375 11.96875 54.515625 5.265625 
Q 46.4375 -1.421875 32.078125 -1.421875 
Q 25.875 -1.421875 19.796875 -0.21875 
Q 13.71875 0.984375 7.71875 3.421875 
L 7.71875 18.21875 
Q 13.671875 14.796875 19.015625 13.078125 
Q 24.359375 11.375 29.109375 11.375 
Q 35.9375 11.375 39.859375 14.71875 
Q 43.796875 18.0625 43.796875 23.78125 
Q 43.796875 29.546875 39.859375 32.859375 
Q 35.9375 36.1875 29.109375 36.1875 
Q 25.046875 36.1875 20.453125 35.125 
Q 15.875 34.078125 10.59375 31.890625 
z
" id="DejaVuSans-Bold-53"/>
     <path d="M 10.015625 1.609375 
L 10.015625 15.09375 
Q 14.5 12.984375 18.59375 11.9375 
Q 22.703125 10.890625 26.703125 10.890625 
Q 35.109375 10.890625 39.796875 15.546875 
Q 44.484375 20.21875 45.3125 29.390625 
Q 42 26.953125 38.234375 25.734375 
Q 34.46875 24.515625 30.078125 24.515625 
Q 18.890625 24.515625 12.03125 31.03125 
Q 5.171875 37.546875 5.171875 48.1875 
Q 5.171875 59.96875 12.8125 67.046875 
Q 20.453125 74.125 33.296875 74.125 
Q 47.5625 74.125 55.375 64.5 
Q 63.1875 54.890625 63.1875 37.3125 
Q 63.1875 19.234375 54.046875 8.90625 
Q 44.921875 -1.421875 29 -1.421875 
Q 23.875 -1.421875 19.1875 -0.65625 
Q 14.5 0.09375 10.015625 1.609375 
z
M 33.203125 36.71875 
Q 38.140625 36.71875 40.625 39.90625 
Q 43.109375 43.109375 43.109375 49.515625 
Q 43.109375 55.859375 40.625 59.078125 
Q 38.140625 62.3125 33.203125 62.3125 
Q 28.265625 62.3125 25.78125 59.078125 
Q 23.296875 55.859375 23.296875 49.515625 
Q 23.296875 43.109375 25.78125 39.90625 
Q 28.265625 36.71875 33.203125 36.71875 
z
" id="DejaVuSans-Bold-57"/>
     <path d="M 6.6875 72.90625 
L 61.625 72.90625 
L 61.625 62.3125 
L 33.203125 0 
L 14.890625 0 
L 41.796875 59.078125 
L 6.6875 59.078125 
z
" id="DejaVuSans-Bold-55"/>
    </defs>
    <g style="fill:#0000ff;" transform="translate(241.516404 308.578472)scale(0.222222 -0.222222)">
     <use xlink:href="#DejaVuSans-Bold-48"/>
     <use x="69.580078" xlink:href="#DejaVuSans-Bold-46"/>
     <use x="107.568359" xlink:href="#DejaVuSans-Bold-53"/>
     <use x="177.148438" xlink:href="#DejaVuSans-Bold-57"/>
     <use x="246.728516" xlink:href="#DejaVuSans-Bold-55"/>
    </g>
   </g>
   <g id="text_22">
    <!-- $P_{real}$ -->
    <defs>
     <path d="M 44.578125 46.390625 
Q 43.21875 47.125 41.453125 47.515625 
Q 39.703125 47.90625 37.703125 47.90625 
Q 30.515625 47.90625 25.140625 42.453125 
Q 19.78125 37.015625 18.015625 27.875 
L 12.5 0 
L 3.515625 0 
L 14.203125 54.6875 
L 23.1875 54.6875 
L 21.484375 46.1875 
Q 25.046875 50.921875 30 53.453125 
Q 34.96875 56 40.578125 56 
Q 42.046875 56 43.453125 55.828125 
Q 44.875 55.671875 46.296875 55.28125 
z
" id="DejaVuSans-Oblique-114"/>
     <path d="M 48.09375 32.234375 
Q 48.25 33.015625 48.3125 33.84375 
Q 48.390625 34.671875 48.390625 35.5 
Q 48.390625 41.453125 44.890625 44.921875 
Q 41.40625 48.390625 35.40625 48.390625 
Q 28.71875 48.390625 23.578125 44.15625 
Q 18.453125 39.9375 15.828125 32.171875 
z
M 55.90625 25.203125 
L 14.109375 25.203125 
Q 13.8125 23.34375 13.71875 22.265625 
Q 13.625 21.1875 13.625 20.40625 
Q 13.625 13.625 17.796875 9.90625 
Q 21.96875 6.203125 29.59375 6.203125 
Q 35.453125 6.203125 40.671875 7.515625 
Q 45.90625 8.84375 50.390625 11.375 
L 48.6875 2.484375 
Q 43.84375 0.53125 38.6875 -0.4375 
Q 33.546875 -1.421875 28.21875 -1.421875 
Q 16.84375 -1.421875 10.71875 4.015625 
Q 4.59375 9.46875 4.59375 19.484375 
Q 4.59375 28.03125 7.640625 35.375 
Q 10.6875 42.71875 16.609375 48.484375 
Q 20.40625 52.09375 25.65625 54.046875 
Q 30.90625 56 36.8125 56 
Q 46.09375 56 51.578125 50.4375 
Q 57.078125 44.875 57.078125 35.5 
Q 57.078125 33.25 56.78125 30.6875 
Q 56.5 28.125 55.90625 25.203125 
z
" id="DejaVuSans-Oblique-101"/>
     <path d="M 53.71875 31.203125 
L 47.609375 0 
L 38.625 0 
L 40.28125 8.296875 
Q 36.328125 3.421875 31.265625 1 
Q 26.21875 -1.421875 20.015625 -1.421875 
Q 13.03125 -1.421875 8.5625 2.84375 
Q 4.109375 7.125 4.109375 13.8125 
Q 4.109375 23.390625 11.75 28.953125 
Q 19.390625 34.515625 32.8125 34.515625 
L 45.3125 34.515625 
L 45.796875 36.921875 
Q 45.90625 37.3125 45.953125 37.765625 
Q 46 38.234375 46 39.203125 
Q 46 43.5625 42.453125 45.96875 
Q 38.921875 48.390625 32.515625 48.390625 
Q 28.125 48.390625 23.5 47.265625 
Q 18.890625 46.140625 14.015625 43.890625 
L 15.578125 52.203125 
Q 20.65625 54.109375 25.515625 55.046875 
Q 30.375 56 34.90625 56 
Q 44.578125 56 49.625 51.796875 
Q 54.6875 47.609375 54.6875 39.59375 
Q 54.6875 37.984375 54.4375 35.8125 
Q 54.203125 33.640625 53.71875 31.203125 
z
M 44 27.484375 
L 35.015625 27.484375 
Q 23.96875 27.484375 18.671875 24.53125 
Q 13.375 21.578125 13.375 15.375 
Q 13.375 11.078125 16.078125 8.640625 
Q 18.796875 6.203125 23.578125 6.203125 
Q 30.90625 6.203125 36.375 11.453125 
Q 41.84375 16.703125 43.609375 25.484375 
z
" id="DejaVuSans-Oblique-97"/>
     <path d="M 18.3125 75.984375 
L 27.296875 75.984375 
L 12.5 0 
L 3.515625 0 
z
" id="DejaVuSans-Oblique-108"/>
    </defs>
    <g style="fill:#0000ff;" transform="translate(246.960502 353.995313)scale(0.3 -0.3)">
     <use transform="translate(0 0.09375)" xlink:href="#DejaVuSans-Oblique-80"/>
     <use transform="translate(60.302734 -16.3125)scale(0.7)" xlink:href="#DejaVuSans-Oblique-114"/>
     <use transform="translate(89.082031 -16.3125)scale(0.7)" xlink:href="#DejaVuSans-Oblique-101"/>
     <use transform="translate(132.148438 -16.3125)scale(0.7)" xlink:href="#DejaVuSans-Oblique-97"/>
     <use transform="translate(175.043945 -16.3125)scale(0.7)" xlink:href="#DejaVuSans-Oblique-108"/>
    </g>
   </g>
   <g id="text_23">
    <!-- 0.582 -->
    <defs>
     <path d="M 34.8125 32.625 
Q 29.546875 32.625 26.703125 29.734375 
Q 23.875 26.859375 23.875 21.484375 
Q 23.875 16.109375 26.703125 13.25 
Q 29.546875 10.40625 34.8125 10.40625 
Q 40.046875 10.40625 42.828125 13.25 
Q 45.609375 16.109375 45.609375 21.484375 
Q 45.609375 26.90625 42.828125 29.765625 
Q 40.046875 32.625 34.8125 32.625 
z
M 21.09375 38.8125 
Q 14.453125 40.828125 11.078125 44.96875 
Q 7.71875 49.125 7.71875 55.328125 
Q 7.71875 64.546875 14.59375 69.375 
Q 21.484375 74.21875 34.8125 74.21875 
Q 48.046875 74.21875 54.921875 69.40625 
Q 61.8125 64.59375 61.8125 55.328125 
Q 61.8125 49.125 58.421875 44.96875 
Q 55.03125 40.828125 48.390625 38.8125 
Q 55.8125 36.765625 59.59375 32.15625 
Q 63.375 27.546875 63.375 20.515625 
Q 63.375 9.671875 56.171875 4.125 
Q 48.96875 -1.421875 34.8125 -1.421875 
Q 20.609375 -1.421875 13.359375 4.125 
Q 6.109375 9.671875 6.109375 20.515625 
Q 6.109375 27.546875 9.890625 32.15625 
Q 13.671875 36.765625 21.09375 38.8125 
z
M 25.484375 53.421875 
Q 25.484375 49.078125 27.90625 46.734375 
Q 30.328125 44.390625 34.8125 44.390625 
Q 39.203125 44.390625 41.59375 46.734375 
Q 44 49.078125 44 53.421875 
Q 44 57.765625 41.59375 60.078125 
Q 39.203125 62.40625 34.8125 62.40625 
Q 30.328125 62.40625 27.90625 60.0625 
Q 25.484375 57.71875 25.484375 53.421875 
z
" id="DejaVuSans-Bold-56"/>
     <path d="M 28.8125 13.8125 
L 60.890625 13.8125 
L 60.890625 0 
L 7.90625 0 
L 7.90625 13.8125 
L 34.515625 37.3125 
Q 38.09375 40.53125 39.796875 43.609375 
Q 41.5 46.6875 41.5 50 
Q 41.5 55.125 38.0625 58.25 
Q 34.625 61.375 28.90625 61.375 
Q 24.515625 61.375 19.28125 59.5 
Q 14.0625 57.625 8.109375 53.90625 
L 8.109375 69.921875 
Q 14.453125 72.015625 20.65625 73.109375 
Q 26.859375 74.21875 32.8125 74.21875 
Q 45.90625 74.21875 53.15625 68.453125 
Q 60.40625 62.703125 60.40625 52.390625 
Q 60.40625 46.4375 57.328125 41.28125 
Q 54.25 36.140625 44.390625 27.484375 
z
" id="DejaVuSans-Bold-50"/>
    </defs>
    <g style="fill:#ff7f0e;" transform="translate(326.155903 308.578472)scale(0.222222 -0.222222)">
     <use xlink:href="#DejaVuSans-Bold-48"/>
     <use x="69.580078" xlink:href="#DejaVuSans-Bold-46"/>
     <use x="107.568359" xlink:href="#DejaVuSans-Bold-53"/>
     <use x="177.148438" xlink:href="#DejaVuSans-Bold-56"/>
     <use x="246.728516" xlink:href="#DejaVuSans-Bold-50"/>
    </g>
   </g>
   <g id="text_24">
    <!-- $\hat{P}_{leaky}$ -->
    <defs>
     <path d="M 18.3125 75.984375 
L 27.296875 75.984375 
L 18.703125 31.6875 
L 49.515625 54.6875 
L 61.1875 54.6875 
L 26.8125 28.515625 
L 51.90625 0 
L 41.015625 0 
L 17.671875 26.703125 
L 12.5 0 
L 3.515625 0 
z
" id="DejaVuSans-Oblique-107"/>
     <path d="M 24.8125 -5.078125 
Q 18.5625 -15.578125 14.625 -18.1875 
Q 10.6875 -20.796875 4.59375 -20.796875 
L -2.484375 -20.796875 
L -0.984375 -13.28125 
L 4.203125 -13.28125 
Q 7.953125 -13.28125 10.59375 -11.234375 
Q 13.234375 -9.1875 16.5 -3.21875 
L 19.28125 2 
L 7.171875 54.6875 
L 16.703125 54.6875 
L 25.78125 12.796875 
L 50.875 54.6875 
L 60.296875 54.6875 
z
" id="DejaVuSans-Oblique-121"/>
    </defs>
    <g style="fill:#ff7f0e;" transform="translate(323.5 364.2)scale(0.3 -0.3)">
     <use transform="translate(62.653809 30.015625)" xlink:href="#DejaVuSans-770"/>
     <use transform="translate(0 0.609375)" xlink:href="#DejaVuSans-Oblique-80"/>
     <use transform="translate(61.259766 -15.796875)scale(0.7)" xlink:href="#DejaVuSans-Oblique-108"/>
     <use transform="translate(80.708008 -15.796875)scale(0.7)" xlink:href="#DejaVuSans-Oblique-101"/>
     <use transform="translate(123.774414 -15.796875)scale(0.7)" xlink:href="#DejaVuSans-Oblique-97"/>
     <use transform="translate(166.669922 -15.796875)scale(0.7)" xlink:href="#DejaVuSans-Oblique-107"/>
     <use transform="translate(207.207031 -15.796875)scale(0.7)" xlink:href="#DejaVuSans-Oblique-121"/>
    </g>
   </g>
   <g id="text_25">
    <!-- 0.657 -->
    <defs>
     <path d="M 36.1875 35.984375 
Q 31.25 35.984375 28.78125 32.78125 
Q 26.3125 29.59375 26.3125 23.1875 
Q 26.3125 16.796875 28.78125 13.59375 
Q 31.25 10.40625 36.1875 10.40625 
Q 41.15625 10.40625 43.625 13.59375 
Q 46.09375 16.796875 46.09375 23.1875 
Q 46.09375 29.59375 43.625 32.78125 
Q 41.15625 35.984375 36.1875 35.984375 
z
M 59.421875 71 
L 59.421875 57.515625 
Q 54.78125 59.71875 50.671875 60.765625 
Q 46.578125 61.8125 42.671875 61.8125 
Q 34.28125 61.8125 29.59375 57.140625 
Q 24.90625 52.484375 24.125 43.3125 
Q 27.34375 45.703125 31.09375 46.890625 
Q 34.859375 48.09375 39.3125 48.09375 
Q 50.484375 48.09375 57.34375 41.546875 
Q 64.203125 35.015625 64.203125 24.421875 
Q 64.203125 12.703125 56.53125 5.640625 
Q 48.875 -1.421875 35.984375 -1.421875 
Q 21.78125 -1.421875 13.984375 8.171875 
Q 6.203125 17.78125 6.203125 35.40625 
Q 6.203125 53.46875 15.3125 63.796875 
Q 24.421875 74.125 40.28125 74.125 
Q 45.3125 74.125 50.046875 73.34375 
Q 54.78125 72.5625 59.421875 71 
z
" id="DejaVuSans-Bold-54"/>
    </defs>
    <g style="fill:#008000;" transform="translate(410.795401 308.578472)scale(0.222222 -0.222222)">
     <use xlink:href="#DejaVuSans-Bold-48"/>
     <use x="69.580078" xlink:href="#DejaVuSans-Bold-46"/>
     <use x="107.568359" xlink:href="#DejaVuSans-Bold-54"/>
     <use x="177.148438" xlink:href="#DejaVuSans-Bold-53"/>
     <use x="246.728516" xlink:href="#DejaVuSans-Bold-55"/>
    </g>
   </g>
   <g id="text_26">
    <!-- $\hat{P}_{mean}$ -->
    <defs>
     <path d="M 89.796875 33.015625 
L 83.40625 0 
L 74.421875 0 
L 80.71875 32.71875 
Q 81.109375 34.8125 81.296875 36.328125 
Q 81.5 37.84375 81.5 38.921875 
Q 81.5 43.3125 79.046875 45.75 
Q 76.609375 48.1875 72.21875 48.1875 
Q 65.671875 48.1875 60.546875 43.28125 
Q 55.421875 38.375 53.90625 30.515625 
L 47.90625 0 
L 38.921875 0 
L 45.3125 32.71875 
Q 45.703125 34.515625 45.890625 36.046875 
Q 46.09375 37.59375 46.09375 38.8125 
Q 46.09375 43.265625 43.65625 45.71875 
Q 41.21875 48.1875 36.921875 48.1875 
Q 30.28125 48.1875 25.140625 43.28125 
Q 20.015625 38.375 18.5 30.515625 
L 12.5 0 
L 3.515625 0 
L 14.203125 54.6875 
L 23.1875 54.6875 
L 21.484375 46.1875 
Q 25.140625 50.984375 30.046875 53.484375 
Q 34.96875 56 40.578125 56 
Q 46.53125 56 50.359375 52.875 
Q 54.203125 49.75 54.984375 44.1875 
Q 59.078125 49.953125 64.46875 52.96875 
Q 69.875 56 75.875 56 
Q 82.90625 56 86.734375 51.953125 
Q 90.578125 47.90625 90.578125 40.484375 
Q 90.578125 38.875 90.375 36.9375 
Q 90.1875 35.015625 89.796875 33.015625 
z
" id="DejaVuSans-Oblique-109"/>
     <path d="M 55.71875 33.015625 
L 49.3125 0 
L 40.28125 0 
L 46.6875 32.671875 
Q 47.125 34.96875 47.359375 36.71875 
Q 47.609375 38.484375 47.609375 39.5 
Q 47.609375 43.609375 45.015625 45.890625 
Q 42.4375 48.1875 37.796875 48.1875 
Q 30.5625 48.1875 25.34375 43.375 
Q 20.125 38.578125 18.5 30.328125 
L 12.5 0 
L 3.515625 0 
L 14.109375 54.6875 
L 23.09375 54.6875 
L 21.296875 46.09375 
Q 25.046875 50.828125 30.3125 53.40625 
Q 35.59375 56 41.40625 56 
Q 48.640625 56 52.609375 52.09375 
Q 56.59375 48.1875 56.59375 41.109375 
Q 56.59375 39.359375 56.375 37.359375 
Q 56.15625 35.359375 55.71875 33.015625 
z
" id="DejaVuSans-Oblique-110"/>
    </defs>
    <g style="fill:#008000;" transform="translate(406.489498 363.360938)scale(0.3 -0.3)">
     <use transform="translate(62.653809 30.015625)" xlink:href="#DejaVuSans-770"/>
     <use transform="translate(0 0.609375)" xlink:href="#DejaVuSans-Oblique-80"/>
     <use transform="translate(61.259766 -15.796875)scale(0.7)" xlink:href="#DejaVuSans-Oblique-109"/>
     <use transform="translate(129.448242 -15.796875)scale(0.7)" xlink:href="#DejaVuSans-Oblique-101"/>
     <use transform="translate(172.514648 -15.796875)scale(0.7)" xlink:href="#DejaVuSans-Oblique-97"/>
     <use transform="translate(215.410156 -15.796875)scale(0.7)" xlink:href="#DejaVuSans-Oblique-110"/>
    </g>
   </g>
   <g id="text_27">
    <!-- ** -->
    <defs>
     <path d="M 47.015625 60.890625 
L 29.5 51.421875 
L 47.015625 41.890625 
L 44.1875 37.109375 
L 27.78125 47.015625 
L 27.78125 28.609375 
L 22.21875 28.609375 
L 22.21875 47.015625 
L 5.8125 37.109375 
L 2.984375 41.890625 
L 20.515625 51.421875 
L 2.984375 60.890625 
L 5.8125 65.71875 
L 22.21875 55.8125 
L 22.21875 74.21875 
L 27.78125 74.21875 
L 27.78125 55.8125 
L 44.1875 65.71875 
z
" id="DejaVuSans-42"/>
    </defs>
    <g transform="translate(347.014286 88.2)scale(0.285714 -0.285714)">
     <use xlink:href="#DejaVuSans-42"/>
     <use x="50" xlink:href="#DejaVuSans-42"/>
    </g>
   </g>
   <g id="text_28">
    <!-- ** -->
    <g transform="translate(397.797985 124.2)scale(0.285714 -0.285714)">
     <use xlink:href="#DejaVuSans-42"/>
     <use x="50" xlink:href="#DejaVuSans-42"/>
    </g>
   </g>
   <g id="text_29">
    <!-- r -->
    <defs>
     <path d="M 41.109375 46.296875 
Q 39.59375 47.171875 37.8125 47.578125 
Q 36.03125 48 33.890625 48 
Q 26.265625 48 22.1875 43.046875 
Q 18.109375 38.09375 18.109375 28.8125 
L 18.109375 0 
L 9.078125 0 
L 9.078125 54.6875 
L 18.109375 54.6875 
L 18.109375 46.1875 
Q 20.953125 51.171875 25.484375 53.578125 
Q 30.03125 56 36.53125 56 
Q 37.453125 56 38.578125 55.875 
Q 39.703125 55.765625 41.0625 55.515625 
z
" id="DejaVuSans-114"/>
    </defs>
    <g transform="translate(354.448438 46.2)scale(0.333333 -0.333333)">
     <use xlink:href="#DejaVuSans-114"/>
    </g>
   </g>
  </g>
  <g id="axes_3">
   <g id="patch_13">
    <path d="M 774.1 896.3 
L 1044.1 896.3 
L 1044.1 626.3 
L 774.1 626.3 
z
" style="fill:#ffffff;"/>
   </g>
   <g id="PathCollection_52">
    <g clip-path="url(#pe551a7a16e)">
     <use style="fill:#0000ff;" x="790.604702" xlink:href="#m2c28350fa1" y="860.923993"/>
    </g>
   </g>
   <g id="PathCollection_53">
    <g clip-path="url(#pe551a7a16e)">
     <use style="fill:#0000ff;" x="796.760302" xlink:href="#m2c28350fa1" y="851.72172"/>
    </g>
   </g>
   <g id="PathCollection_54">
    <g clip-path="url(#pe551a7a16e)">
     <use style="fill:#0000ff;" x="802.915902" xlink:href="#m2c28350fa1" y="848.217046"/>
    </g>
   </g>
   <g id="PathCollection_55">
    <g clip-path="url(#pe551a7a16e)">
     <use style="fill:#0000ff;" x="809.071502" xlink:href="#m2c28350fa1" y="847.285663"/>
    </g>
   </g>
   <g id="PathCollection_56">
    <g clip-path="url(#pe551a7a16e)">
     <use style="fill:#0000ff;" x="815.227102" xlink:href="#m2c28350fa1" y="837.328907"/>
    </g>
   </g>
   <g id="PathCollection_57">
    <g clip-path="url(#pe551a7a16e)">
     <use style="fill:#0000ff;" x="821.382702" xlink:href="#m2c28350fa1" y="842.958484"/>
    </g>
   </g>
   <g id="PathCollection_58">
    <g clip-path="url(#pe551a7a16e)">
     <use style="fill:#0000ff;" x="827.538302" xlink:href="#m2c28350fa1" y="837.930837"/>
    </g>
   </g>
   <g id="PathCollection_59">
    <g clip-path="url(#pe551a7a16e)">
     <use style="fill:#0000ff;" x="833.693901" xlink:href="#m2c28350fa1" y="857.416012"/>
    </g>
   </g>
   <g id="PathCollection_60">
    <g clip-path="url(#pe551a7a16e)">
     <use style="fill:#0000ff;" x="839.849501" xlink:href="#m2c28350fa1" y="853.98211"/>
    </g>
   </g>
   <g id="PathCollection_61">
    <g clip-path="url(#pe551a7a16e)">
     <use style="fill:#0000ff;" x="846.005101" xlink:href="#m2c28350fa1" y="835.637194"/>
    </g>
   </g>
   <g id="PathCollection_62">
    <g clip-path="url(#pe551a7a16e)">
     <use style="fill:#0000ff;" x="852.160701" xlink:href="#m2c28350fa1" y="845.383856"/>
    </g>
   </g>
   <g id="PathCollection_63">
    <g clip-path="url(#pe551a7a16e)">
     <use style="fill:#0000ff;" x="858.316301" xlink:href="#m2c28350fa1" y="859.163906"/>
    </g>
   </g>
   <g id="PathCollection_64">
    <g clip-path="url(#pe551a7a16e)">
     <use style="fill:#ff7f0e;" x="875.244201" xlink:href="#m13cc09ad6e" y="844.970152"/>
    </g>
   </g>
   <g id="PathCollection_65">
    <g clip-path="url(#pe551a7a16e)">
     <use style="fill:#ff7f0e;" x="881.399801" xlink:href="#m13cc09ad6e" y="846.879952"/>
    </g>
   </g>
   <g id="PathCollection_66">
    <g clip-path="url(#pe551a7a16e)">
     <use style="fill:#ff7f0e;" x="887.5554" xlink:href="#m13cc09ad6e" y="832.912014"/>
    </g>
   </g>
   <g id="PathCollection_67">
    <g clip-path="url(#pe551a7a16e)">
     <use style="fill:#ff7f0e;" x="893.711" xlink:href="#m13cc09ad6e" y="841.328104"/>
    </g>
   </g>
   <g id="PathCollection_68">
    <g clip-path="url(#pe551a7a16e)">
     <use style="fill:#ff7f0e;" x="899.8666" xlink:href="#m13cc09ad6e" y="834.680484"/>
    </g>
   </g>
   <g id="PathCollection_69">
    <g clip-path="url(#pe551a7a16e)">
     <use style="fill:#ff7f0e;" x="906.0222" xlink:href="#m13cc09ad6e" y="839.525303"/>
    </g>
   </g>
   <g id="PathCollection_70">
    <g clip-path="url(#pe551a7a16e)">
     <use style="fill:#ff7f0e;" x="912.1778" xlink:href="#m13cc09ad6e" y="825.115818"/>
    </g>
   </g>
   <g id="PathCollection_71">
    <g clip-path="url(#pe551a7a16e)">
     <use style="fill:#ff7f0e;" x="918.3334" xlink:href="#m13cc09ad6e" y="849.792251"/>
    </g>
   </g>
   <g id="PathCollection_72">
    <g clip-path="url(#pe551a7a16e)">
     <use style="fill:#ff7f0e;" x="924.489" xlink:href="#m13cc09ad6e" y="844.882454"/>
    </g>
   </g>
   <g id="PathCollection_73">
    <g clip-path="url(#pe551a7a16e)">
     <use style="fill:#ff7f0e;" x="930.6446" xlink:href="#m13cc09ad6e" y="832.35991"/>
    </g>
   </g>
   <g id="PathCollection_74">
    <g clip-path="url(#pe551a7a16e)">
     <use style="fill:#ff7f0e;" x="936.800199" xlink:href="#m13cc09ad6e" y="835.316934"/>
    </g>
   </g>
   <g id="PathCollection_75">
    <g clip-path="url(#pe551a7a16e)">
     <use style="fill:#ff7f0e;" x="942.955799" xlink:href="#m13cc09ad6e" y="846.663578"/>
    </g>
   </g>
   <g id="PathCollection_76">
    <g clip-path="url(#pe551a7a16e)">
     <use style="fill:#008000;" x="959.883699" xlink:href="#mf8978c2738" y="851.628615"/>
    </g>
   </g>
   <g id="PathCollection_77">
    <g clip-path="url(#pe551a7a16e)">
     <use style="fill:#008000;" x="966.039299" xlink:href="#mf8978c2738" y="836.108619"/>
    </g>
   </g>
   <g id="PathCollection_78">
    <g clip-path="url(#pe551a7a16e)">
     <use style="fill:#008000;" x="972.194899" xlink:href="#mf8978c2738" y="830.184548"/>
    </g>
   </g>
   <g id="PathCollection_79">
    <g clip-path="url(#pe551a7a16e)">
     <use style="fill:#008000;" x="978.350499" xlink:href="#mf8978c2738" y="829.908713"/>
    </g>
   </g>
   <g id="PathCollection_80">
    <g clip-path="url(#pe551a7a16e)">
     <use style="fill:#008000;" x="984.506099" xlink:href="#mf8978c2738" y="822.755815"/>
    </g>
   </g>
   <g id="PathCollection_81">
    <g clip-path="url(#pe551a7a16e)">
     <use style="fill:#008000;" x="990.661698" xlink:href="#mf8978c2738" y="832.836973"/>
    </g>
   </g>
   <g id="PathCollection_82">
    <g clip-path="url(#pe551a7a16e)">
     <use style="fill:#008000;" x="996.817298" xlink:href="#mf8978c2738" y="819.304825"/>
    </g>
   </g>
   <g id="PathCollection_83">
    <g clip-path="url(#pe551a7a16e)">
     <use style="fill:#008000;" x="1002.972898" xlink:href="#mf8978c2738" y="842.215258"/>
    </g>
   </g>
   <g id="PathCollection_84">
    <g clip-path="url(#pe551a7a16e)">
     <use style="fill:#008000;" x="1009.128498" xlink:href="#mf8978c2738" y="840.40069"/>
    </g>
   </g>
   <g id="PathCollection_85">
    <g clip-path="url(#pe551a7a16e)">
     <use style="fill:#008000;" x="1015.284098" xlink:href="#mf8978c2738" y="817.119417"/>
    </g>
   </g>
   <g id="PathCollection_86">
    <g clip-path="url(#pe551a7a16e)">
     <use style="fill:#008000;" x="1021.439698" xlink:href="#mf8978c2738" y="819.751705"/>
    </g>
   </g>
   <g id="PathCollection_87">
    <g clip-path="url(#pe551a7a16e)">
     <use style="fill:#008000;" x="1027.595298" xlink:href="#mf8978c2738" y="839.379205"/>
    </g>
   </g>
   <g id="patch_14">
    <path clip-path="url(#pe551a7a16e)" d="M 786.372727 896.3 
L 862.548276 896.3 
L 862.548276 865.455755 
L 786.372727 865.455755 
z
" style="fill:#0000ff;opacity:0.4;"/>
   </g>
   <g id="patch_15">
    <path clip-path="url(#pe551a7a16e)" d="M 871.012226 896.3 
L 947.187774 896.3 
L 947.187774 865.99022 
L 871.012226 865.99022 
z
" style="fill:#ff7f0e;opacity:0.4;"/>
   </g>
   <g id="patch_16">
    <path clip-path="url(#pe551a7a16e)" d="M 955.651724 896.3 
L 1031.827273 896.3 
L 1031.827273 857.784804 
L 955.651724 857.784804 
z
" style="fill:#008000;opacity:0.4;"/>
   </g>
   <g id="matplotlib.axis_5">
    <g id="xtick_10">
     <g id="line2d_70">
      <g>
       <use style="stroke:#000000;stroke-width:0.8;" x="824.460502" xlink:href="#m84b9bb8598" y="896.3"/>
      </g>
     </g>
    </g>
    <g id="xtick_11">
     <g id="line2d_71">
      <g>
       <use style="stroke:#000000;stroke-width:0.8;" x="909.1" xlink:href="#m84b9bb8598" y="896.3"/>
      </g>
     </g>
    </g>
    <g id="xtick_12">
     <g id="line2d_72">
      <g>
       <use style="stroke:#000000;stroke-width:0.8;" x="993.739498" xlink:href="#m84b9bb8598" y="896.3"/>
      </g>
     </g>
    </g>
   </g>
   <g id="matplotlib.axis_6">
    <g id="ytick_13">
     <g id="line2d_73">
      <g>
       <use style="stroke:#000000;stroke-width:0.8;" x="774.1" xlink:href="#me57c199552" y="896.3"/>
      </g>
     </g>
     <g id="text_30">
      <!-- 0.0 -->
      <g transform="translate(731.759722 904.742708)scale(0.222222 -0.222222)">
       <use xlink:href="#DejaVuSans-48"/>
       <use x="63.623047" xlink:href="#DejaVuSans-46"/>
       <use x="95.410156" xlink:href="#DejaVuSans-48"/>
      </g>
     </g>
    </g>
    <g id="ytick_14">
     <g id="line2d_74">
      <g>
       <use style="stroke:#000000;stroke-width:0.8;" x="774.1" xlink:href="#me57c199552" y="836.3"/>
      </g>
     </g>
     <g id="text_31">
      <!-- 0.5 -->
      <g transform="translate(731.759722 844.742708)scale(0.222222 -0.222222)">
       <use xlink:href="#DejaVuSans-48"/>
       <use x="63.623047" xlink:href="#DejaVuSans-46"/>
       <use x="95.410156" xlink:href="#DejaVuSans-53"/>
      </g>
     </g>
    </g>
    <g id="ytick_15">
     <g id="line2d_75">
      <g>
       <use style="stroke:#000000;stroke-width:0.8;" x="774.1" xlink:href="#me57c199552" y="776.3"/>
      </g>
     </g>
     <g id="text_32">
      <!-- 1.0 -->
      <g transform="translate(731.759722 784.742708)scale(0.222222 -0.222222)">
       <use xlink:href="#DejaVuSans-49"/>
       <use x="63.623047" xlink:href="#DejaVuSans-46"/>
       <use x="95.410156" xlink:href="#DejaVuSans-48"/>
      </g>
     </g>
    </g>
    <g id="ytick_16">
     <g id="line2d_76">
      <g>
       <use style="stroke:#000000;stroke-width:0.8;" x="774.1" xlink:href="#me57c199552" y="716.3"/>
      </g>
     </g>
     <g id="text_33">
      <!-- 1.5 -->
      <g transform="translate(731.759722 724.742708)scale(0.222222 -0.222222)">
       <use xlink:href="#DejaVuSans-49"/>
       <use x="63.623047" xlink:href="#DejaVuSans-46"/>
       <use x="95.410156" xlink:href="#DejaVuSans-53"/>
      </g>
     </g>
    </g>
   </g>
   <g id="LineCollection_18">
    <path clip-path="url(#pe551a7a16e)" d="M 815.996552 701.9 
L 900.63605 701.9 
" style="fill:none;stroke:#000000;stroke-width:1.5;"/>
   </g>
   <g id="LineCollection_19">
    <path clip-path="url(#pe551a7a16e)" d="M 807.532602 669.5 
L 1010.667398 669.5 
" style="fill:none;stroke:#000000;stroke-width:1.5;"/>
   </g>
   <g id="LineCollection_20">
    <path clip-path="url(#pe551a7a16e)" d="M 917.56395 701.9 
L 1002.203448 701.9 
" style="fill:none;stroke:#000000;stroke-width:1.5;"/>
   </g>
   <g id="patch_17">
    <path d="M 774.1 896.3 
L 774.1 716.3 
" style="fill:none;stroke:#000000;stroke-linecap:square;stroke-linejoin:miter;stroke-width:0.8;"/>
   </g>
   <g id="patch_18">
    <path d="M 774.1 896.3 
L 1044.1 896.3 
" style="fill:none;stroke:#000000;stroke-linecap:square;stroke-linejoin:miter;stroke-width:0.8;"/>
   </g>
   <g id="text_34">
    <!-- 0.257 -->
    <g style="fill:#0000ff;" transform="translate(789.316404 885.678472)scale(0.222222 -0.222222)">
     <use xlink:href="#DejaVuSans-Bold-48"/>
     <use x="69.580078" xlink:href="#DejaVuSans-Bold-46"/>
     <use x="107.568359" xlink:href="#DejaVuSans-Bold-50"/>
     <use x="177.148438" xlink:href="#DejaVuSans-Bold-53"/>
     <use x="246.728516" xlink:href="#DejaVuSans-Bold-55"/>
    </g>
   </g>
   <g id="text_35">
    <!-- $P_{real}$ -->
    <g style="fill:#0000ff;" transform="translate(794.760502 925.095312)scale(0.3 -0.3)">
     <use transform="translate(0 0.09375)" xlink:href="#DejaVuSans-Oblique-80"/>
     <use transform="translate(60.302734 -16.3125)scale(0.7)" xlink:href="#DejaVuSans-Oblique-114"/>
     <use transform="translate(89.082031 -16.3125)scale(0.7)" xlink:href="#DejaVuSans-Oblique-101"/>
     <use transform="translate(132.148438 -16.3125)scale(0.7)" xlink:href="#DejaVuSans-Oblique-97"/>
     <use transform="translate(175.043945 -16.3125)scale(0.7)" xlink:href="#DejaVuSans-Oblique-108"/>
    </g>
   </g>
   <g id="text_36">
    <!-- 0.253 -->
    <defs>
     <path d="M 46.578125 39.3125 
Q 53.953125 37.40625 57.78125 32.6875 
Q 61.625 27.984375 61.625 20.703125 
Q 61.625 9.859375 53.3125 4.21875 
Q 45.015625 -1.421875 29.109375 -1.421875 
Q 23.484375 -1.421875 17.84375 -0.515625 
Q 12.203125 0.390625 6.6875 2.203125 
L 6.6875 16.703125 
Q 11.96875 14.0625 17.15625 12.71875 
Q 22.359375 11.375 27.390625 11.375 
Q 34.859375 11.375 38.84375 13.953125 
Q 42.828125 16.546875 42.828125 21.390625 
Q 42.828125 26.375 38.75 28.9375 
Q 34.671875 31.5 26.703125 31.5 
L 19.1875 31.5 
L 19.1875 43.609375 
L 27.09375 43.609375 
Q 34.1875 43.609375 37.640625 45.828125 
Q 41.109375 48.046875 41.109375 52.59375 
Q 41.109375 56.78125 37.734375 59.078125 
Q 34.375 61.375 28.21875 61.375 
Q 23.6875 61.375 19.046875 60.34375 
Q 14.40625 59.328125 9.8125 57.328125 
L 9.8125 71.09375 
Q 15.375 72.65625 20.84375 73.4375 
Q 26.3125 74.21875 31.59375 74.21875 
Q 45.796875 74.21875 52.84375 69.546875 
Q 59.90625 64.890625 59.90625 55.515625 
Q 59.90625 49.125 56.53125 45.046875 
Q 53.171875 40.96875 46.578125 39.3125 
z
" id="DejaVuSans-Bold-51"/>
    </defs>
    <g style="fill:#ff7f0e;" transform="translate(873.955903 885.678472)scale(0.222222 -0.222222)">
     <use xlink:href="#DejaVuSans-Bold-48"/>
     <use x="69.580078" xlink:href="#DejaVuSans-Bold-46"/>
     <use x="107.568359" xlink:href="#DejaVuSans-Bold-50"/>
     <use x="177.148438" xlink:href="#DejaVuSans-Bold-53"/>
     <use x="246.728516" xlink:href="#DejaVuSans-Bold-51"/>
    </g>
   </g>
   <g id="text_37">
    <!-- $\hat{P}_{leaky}$ -->
    <g style="fill:#ff7f0e;" transform="translate(871.3 935.3)scale(0.3 -0.3)">
     <use transform="translate(62.653809 30.015625)" xlink:href="#DejaVuSans-770"/>
     <use transform="translate(0 0.609375)" xlink:href="#DejaVuSans-Oblique-80"/>
     <use transform="translate(61.259766 -15.796875)scale(0.7)" xlink:href="#DejaVuSans-Oblique-108"/>
     <use transform="translate(80.708008 -15.796875)scale(0.7)" xlink:href="#DejaVuSans-Oblique-101"/>
     <use transform="translate(123.774414 -15.796875)scale(0.7)" xlink:href="#DejaVuSans-Oblique-97"/>
     <use transform="translate(166.669922 -15.796875)scale(0.7)" xlink:href="#DejaVuSans-Oblique-107"/>
     <use transform="translate(207.207031 -15.796875)scale(0.7)" xlink:href="#DejaVuSans-Oblique-121"/>
    </g>
   </g>
   <g id="text_38">
    <!-- 0.321 -->
    <defs>
     <path d="M 11.71875 12.984375 
L 28.328125 12.984375 
L 28.328125 60.109375 
L 11.28125 56.59375 
L 11.28125 69.390625 
L 28.21875 72.90625 
L 46.09375 72.90625 
L 46.09375 12.984375 
L 62.703125 12.984375 
L 62.703125 0 
L 11.71875 0 
z
" id="DejaVuSans-Bold-49"/>
    </defs>
    <g style="fill:#008000;" transform="translate(958.595401 885.678472)scale(0.222222 -0.222222)">
     <use xlink:href="#DejaVuSans-Bold-48"/>
     <use x="69.580078" xlink:href="#DejaVuSans-Bold-46"/>
     <use x="107.568359" xlink:href="#DejaVuSans-Bold-51"/>
     <use x="177.148438" xlink:href="#DejaVuSans-Bold-50"/>
     <use x="246.728516" xlink:href="#DejaVuSans-Bold-49"/>
    </g>
   </g>
   <g id="text_39">
    <!-- $\hat{P}_{mean}$ -->
    <g style="fill:#008000;" transform="translate(954.289498 934.460938)scale(0.3 -0.3)">
     <use transform="translate(62.653809 30.015625)" xlink:href="#DejaVuSans-770"/>
     <use transform="translate(0 0.609375)" xlink:href="#DejaVuSans-Oblique-80"/>
     <use transform="translate(61.259766 -15.796875)scale(0.7)" xlink:href="#DejaVuSans-Oblique-109"/>
     <use transform="translate(129.448242 -15.796875)scale(0.7)" xlink:href="#DejaVuSans-Oblique-101"/>
     <use transform="translate(172.514648 -15.796875)scale(0.7)" xlink:href="#DejaVuSans-Oblique-97"/>
     <use transform="translate(215.410156 -15.796875)scale(0.7)" xlink:href="#DejaVuSans-Oblique-110"/>
    </g>
   </g>
   <g id="text_40">
    <!-- ** -->
    <g transform="translate(841.649634 701.9)scale(0.333333 -0.333333)">
     <use xlink:href="#DejaVuSans-42"/>
     <use x="50" xlink:href="#DejaVuSans-42"/>
    </g>
   </g>
   <g id="text_41">
    <!-- ** -->
    <g transform="translate(892.433333 669.5)scale(0.333333 -0.333333)">
     <use xlink:href="#DejaVuSans-42"/>
     <use x="50" xlink:href="#DejaVuSans-42"/>
    </g>
   </g>
   <g id="text_42">
    <!-- ** -->
    <g transform="translate(943.217032 701.9)scale(0.333333 -0.333333)">
     <use xlink:href="#DejaVuSans-42"/>
     <use x="50" xlink:href="#DejaVuSans-42"/>
    </g>
   </g>
   <g id="text_43">
    <!-- MI -->
    <defs>
     <path d="M 9.8125 72.90625 
L 24.515625 72.90625 
L 43.109375 23.296875 
L 61.8125 72.90625 
L 76.515625 72.90625 
L 76.515625 0 
L 66.890625 0 
L 66.890625 64.015625 
L 48.09375 14.015625 
L 38.1875 14.015625 
L 19.390625 64.015625 
L 19.390625 0 
L 9.8125 0 
z
" id="DejaVuSans-77"/>
     <path d="M 9.8125 72.90625 
L 19.671875 72.90625 
L 19.671875 0 
L 9.8125 0 
z
" id="DejaVuSans-73"/>
    </defs>
    <g transform="translate(889.803125 620.3)scale(0.333333 -0.333333)">
     <use xlink:href="#DejaVuSans-77"/>
     <use x="86.279297" xlink:href="#DejaVuSans-73"/>
    </g>
   </g>
  </g>
 </g>
 <defs>
  <clipPath id="p0fb7e557f9">
   <rect height="941.4" width="893.4" x="172.3" y="14.3"/>
  </clipPath>
  <clipPath id="p51b771bbaa">
   <rect height="270" width="270" x="226.3" y="52.2"/>
  </clipPath>
  <clipPath id="pe551a7a16e">
   <rect height="270" width="270" x="774.1" y="626.3"/>
  </clipPath>
 </defs>
</svg>
