<?xml version="1.0" encoding="utf-8" standalone="no"?>
<!DOCTYPE svg PUBLIC "-//W3C//DTD SVG 1.1//EN"
  "http://www.w3.org/Graphics/SVG/1.1/DTD/svg11.dtd">
<!-- Created with matplotlib (https://matplotlib.org/) -->
<svg height="1080pt" version="1.1" viewBox="0 0 1080 1080" width="1080pt" xmlns="http://www.w3.org/2000/svg" xmlns:xlink="http://www.w3.org/1999/xlink">
 <defs>
  <style type="text/css">
*{stroke-linecap:butt;stroke-linejoin:round;}
  </style>
 </defs>
 <g id="figure_1">
  <g id="patch_1">
   <path d="M 0 1080 
L 1080 1080 
L 1080 0 
L 0 0 
z
" style="fill:#ffffff;"/>
  </g>
  <g id="axes_1">
   <g id="patch_2">
    <path d="M 123.175 955.7 
L 1065.7 955.7 
L 1065.7 14.3 
L 123.175 14.3 
z
" style="fill:#ffffff;"/>
   </g>
   <g id="PathCollection_1">
    <defs>
     <path d="M 0 5 
C 1.326016 5 2.597899 4.473168 3.535534 3.535534 
C 4.473168 2.597899 5 1.326016 5 0 
C 5 -1.326016 4.473168 -2.597899 3.535534 -3.535534 
C 2.597899 -4.473168 1.326016 -5 0 -5 
C -1.326016 -5 -2.597899 -4.473168 -3.535534 -3.535534 
C -4.473168 -2.597899 -5 -1.326016 -5 0 
C -5 1.326016 -4.473168 2.597899 -3.535534 3.535534 
C -2.597899 4.473168 -1.326016 5 0 5 
z
" id="m53ce58fd9f" style="stroke:#0000ff;"/>
    </defs>
    <g clip-path="url(#pf98e1dbcaf)">
     <use style="fill:#0000ff;stroke:#0000ff;" x="226.817317" xlink:href="#m53ce58fd9f" y="747.040695"/>
    </g>
   </g>
   <g id="PathCollection_2">
    <g clip-path="url(#pf98e1dbcaf)">
     <use style="fill:#0000ff;stroke:#0000ff;" x="403.98367" xlink:href="#m53ce58fd9f" y="543.662388"/>
    </g>
   </g>
   <g id="PathCollection_3">
    <g clip-path="url(#pf98e1dbcaf)">
     <use style="fill:#0000ff;stroke:#0000ff;" x="581.150023" xlink:href="#m53ce58fd9f" y="547.776853"/>
    </g>
   </g>
   <g id="PathCollection_4">
    <g clip-path="url(#pf98e1dbcaf)">
     <use style="fill:#0000ff;stroke:#0000ff;" x="758.316377" xlink:href="#m53ce58fd9f" y="415.621452"/>
    </g>
   </g>
   <g id="PathCollection_5">
    <g clip-path="url(#pf98e1dbcaf)">
     <use style="fill:#0000ff;stroke:#0000ff;" x="935.48273" xlink:href="#m53ce58fd9f" y="189.732695"/>
    </g>
   </g>
   <g id="PathCollection_6">
    <defs>
     <path d="M 0 5 
C 1.326016 5 2.597899 4.473168 3.535534 3.535534 
C 4.473168 2.597899 5 1.326016 5 0 
C 5 -1.326016 4.473168 -2.597899 3.535534 -3.535534 
C 2.597899 -4.473168 1.326016 -5 0 -5 
C -1.326016 -5 -2.597899 -4.473168 -3.535534 -3.535534 
C -4.473168 -2.597899 -5 -1.326016 -5 0 
C -5 1.326016 -4.473168 2.597899 -3.535534 3.535534 
C -2.597899 4.473168 -1.326016 5 0 5 
z
" id="mceeb2d8725" style="stroke:#ff7f0e;"/>
    </defs>
    <g clip-path="url(#pf98e1dbcaf)">
     <use style="fill:#ff7f0e;stroke:#ff7f0e;" x="240.104793" xlink:href="#mceeb2d8725" y="824.128424"/>
    </g>
   </g>
   <g id="PathCollection_7">
    <g clip-path="url(#pf98e1dbcaf)">
     <use style="fill:#ff7f0e;stroke:#ff7f0e;" x="417.271147" xlink:href="#mceeb2d8725" y="579.206241"/>
    </g>
   </g>
   <g id="PathCollection_8">
    <g clip-path="url(#pf98e1dbcaf)">
     <use style="fill:#ff7f0e;stroke:#ff7f0e;" x="594.4375" xlink:href="#mceeb2d8725" y="460.10793"/>
    </g>
   </g>
   <g id="PathCollection_9">
    <g clip-path="url(#pf98e1dbcaf)">
     <use style="fill:#ff7f0e;stroke:#ff7f0e;" x="771.603853" xlink:href="#mceeb2d8725" y="317.444238"/>
    </g>
   </g>
   <g id="PathCollection_10">
    <g clip-path="url(#pf98e1dbcaf)">
     <use style="fill:#ff7f0e;stroke:#ff7f0e;" x="948.770207" xlink:href="#mceeb2d8725" y="119.819885"/>
    </g>
   </g>
   <g id="PathCollection_11">
    <defs>
     <path d="M 0 5 
C 1.326016 5 2.597899 4.473168 3.535534 3.535534 
C 4.473168 2.597899 5 1.326016 5 0 
C 5 -1.326016 4.473168 -2.597899 3.535534 -3.535534 
C 2.597899 -4.473168 1.326016 -5 0 -5 
C -1.326016 -5 -2.597899 -4.473168 -3.535534 -3.535534 
C -4.473168 -2.597899 -5 -1.326016 -5 0 
C -5 1.326016 -4.473168 2.597899 -3.535534 3.535534 
C -2.597899 4.473168 -1.326016 5 0 5 
z
" id="m0f6a51c8d7" style="stroke:#008000;"/>
    </defs>
    <g clip-path="url(#pf98e1dbcaf)">
     <use style="fill:#008000;stroke:#008000;" x="253.39227" xlink:href="#m0f6a51c8d7" y="853.145568"/>
    </g>
   </g>
   <g id="PathCollection_12">
    <g clip-path="url(#pf98e1dbcaf)">
     <use style="fill:#008000;stroke:#008000;" x="430.558623" xlink:href="#m0f6a51c8d7" y="630.515441"/>
    </g>
   </g>
   <g id="PathCollection_13">
    <g clip-path="url(#pf98e1dbcaf)">
     <use style="fill:#008000;stroke:#008000;" x="607.724977" xlink:href="#m0f6a51c8d7" y="483.060167"/>
    </g>
   </g>
   <g id="PathCollection_14">
    <g clip-path="url(#pf98e1dbcaf)">
     <use style="fill:#008000;stroke:#008000;" x="784.89133" xlink:href="#m0f6a51c8d7" y="343.863117"/>
    </g>
   </g>
   <g id="PathCollection_15">
    <g clip-path="url(#pf98e1dbcaf)">
     <use style="fill:#008000;stroke:#008000;" x="962.057683" xlink:href="#m0f6a51c8d7" y="124.98148"/>
    </g>
   </g>
   <g id="matplotlib.axis_1">
    <g id="xtick_1">
     <g id="line2d_1">
      <defs>
       <path d="M 0 0 
L 0 3.5 
" id="m4991380c64" style="stroke:#000000;stroke-width:0.8;"/>
      </defs>
      <g>
       <use style="stroke:#000000;stroke-width:0.8;" x="151.521617" xlink:href="#m4991380c64" y="955.7"/>
      </g>
     </g>
     <g id="text_1">
      <!-- 0.0 -->
      <defs>
       <path d="M 31.78125 66.40625 
Q 24.171875 66.40625 20.328125 58.90625 
Q 16.5 51.421875 16.5 36.375 
Q 16.5 21.390625 20.328125 13.890625 
Q 24.171875 6.390625 31.78125 6.390625 
Q 39.453125 6.390625 43.28125 13.890625 
Q 47.125 21.390625 47.125 36.375 
Q 47.125 51.421875 43.28125 58.90625 
Q 39.453125 66.40625 31.78125 66.40625 
z
M 31.78125 74.21875 
Q 44.046875 74.21875 50.515625 64.515625 
Q 56.984375 54.828125 56.984375 36.375 
Q 56.984375 17.96875 50.515625 8.265625 
Q 44.046875 -1.421875 31.78125 -1.421875 
Q 19.53125 -1.421875 13.0625 8.265625 
Q 6.59375 17.96875 6.59375 36.375 
Q 6.59375 54.828125 13.0625 64.515625 
Q 19.53125 74.21875 31.78125 74.21875 
z
" id="DejaVuSans-48"/>
       <path d="M 10.6875 12.40625 
L 21 12.40625 
L 21 0 
L 10.6875 0 
z
" id="DejaVuSans-46"/>
      </defs>
      <g transform="translate(125.016408 988.028125)scale(0.333333 -0.333333)">
       <use xlink:href="#DejaVuSans-48"/>
       <use x="63.623047" xlink:href="#DejaVuSans-46"/>
       <use x="95.410156" xlink:href="#DejaVuSans-48"/>
      </g>
     </g>
    </g>
    <g id="xtick_2">
     <g id="line2d_2">
      <g>
       <use style="stroke:#000000;stroke-width:0.8;" x="328.68797" xlink:href="#m4991380c64" y="955.7"/>
      </g>
     </g>
     <g id="text_2">
      <!-- 0.2 -->
      <defs>
       <path d="M 19.1875 8.296875 
L 53.609375 8.296875 
L 53.609375 0 
L 7.328125 0 
L 7.328125 8.296875 
Q 12.9375 14.109375 22.625 23.890625 
Q 32.328125 33.6875 34.8125 36.53125 
Q 39.546875 41.84375 41.421875 45.53125 
Q 43.3125 49.21875 43.3125 52.78125 
Q 43.3125 58.59375 39.234375 62.25 
Q 35.15625 65.921875 28.609375 65.921875 
Q 23.96875 65.921875 18.8125 64.3125 
Q 13.671875 62.703125 7.8125 59.421875 
L 7.8125 69.390625 
Q 13.765625 71.78125 18.9375 73 
Q 24.125 74.21875 28.421875 74.21875 
Q 39.75 74.21875 46.484375 68.546875 
Q 53.21875 62.890625 53.21875 53.421875 
Q 53.21875 48.921875 51.53125 44.890625 
Q 49.859375 40.875 45.40625 35.40625 
Q 44.1875 33.984375 37.640625 27.21875 
Q 31.109375 20.453125 19.1875 8.296875 
z
" id="DejaVuSans-50"/>
      </defs>
      <g transform="translate(302.182762 988.028125)scale(0.333333 -0.333333)">
       <use xlink:href="#DejaVuSans-48"/>
       <use x="63.623047" xlink:href="#DejaVuSans-46"/>
       <use x="95.410156" xlink:href="#DejaVuSans-50"/>
      </g>
     </g>
    </g>
    <g id="xtick_3">
     <g id="line2d_3">
      <g>
       <use style="stroke:#000000;stroke-width:0.8;" x="505.854323" xlink:href="#m4991380c64" y="955.7"/>
      </g>
     </g>
     <g id="text_3">
      <!-- 0.4 -->
      <defs>
       <path d="M 37.796875 64.3125 
L 12.890625 25.390625 
L 37.796875 25.390625 
z
M 35.203125 72.90625 
L 47.609375 72.90625 
L 47.609375 25.390625 
L 58.015625 25.390625 
L 58.015625 17.1875 
L 47.609375 17.1875 
L 47.609375 0 
L 37.796875 0 
L 37.796875 17.1875 
L 4.890625 17.1875 
L 4.890625 26.703125 
z
" id="DejaVuSans-52"/>
      </defs>
      <g transform="translate(479.349115 988.028125)scale(0.333333 -0.333333)">
       <use xlink:href="#DejaVuSans-48"/>
       <use x="63.623047" xlink:href="#DejaVuSans-46"/>
       <use x="95.410156" xlink:href="#DejaVuSans-52"/>
      </g>
     </g>
    </g>
    <g id="xtick_4">
     <g id="line2d_4">
      <g>
       <use style="stroke:#000000;stroke-width:0.8;" x="683.020677" xlink:href="#m4991380c64" y="955.7"/>
      </g>
     </g>
     <g id="text_4">
      <!-- 0.6 -->
      <defs>
       <path d="M 33.015625 40.375 
Q 26.375 40.375 22.484375 35.828125 
Q 18.609375 31.296875 18.609375 23.390625 
Q 18.609375 15.53125 22.484375 10.953125 
Q 26.375 6.390625 33.015625 6.390625 
Q 39.65625 6.390625 43.53125 10.953125 
Q 47.40625 15.53125 47.40625 23.390625 
Q 47.40625 31.296875 43.53125 35.828125 
Q 39.65625 40.375 33.015625 40.375 
z
M 52.59375 71.296875 
L 52.59375 62.3125 
Q 48.875 64.0625 45.09375 64.984375 
Q 41.3125 65.921875 37.59375 65.921875 
Q 27.828125 65.921875 22.671875 59.328125 
Q 17.53125 52.734375 16.796875 39.40625 
Q 19.671875 43.65625 24.015625 45.921875 
Q 28.375 48.1875 33.59375 48.1875 
Q 44.578125 48.1875 50.953125 41.515625 
Q 57.328125 34.859375 57.328125 23.390625 
Q 57.328125 12.15625 50.6875 5.359375 
Q 44.046875 -1.421875 33.015625 -1.421875 
Q 20.359375 -1.421875 13.671875 8.265625 
Q 6.984375 17.96875 6.984375 36.375 
Q 6.984375 53.65625 15.1875 63.9375 
Q 23.390625 74.21875 37.203125 74.21875 
Q 40.921875 74.21875 44.703125 73.484375 
Q 48.484375 72.75 52.59375 71.296875 
z
" id="DejaVuSans-54"/>
      </defs>
      <g transform="translate(656.515468 988.028125)scale(0.333333 -0.333333)">
       <use xlink:href="#DejaVuSans-48"/>
       <use x="63.623047" xlink:href="#DejaVuSans-46"/>
       <use x="95.410156" xlink:href="#DejaVuSans-54"/>
      </g>
     </g>
    </g>
    <g id="xtick_5">
     <g id="line2d_5">
      <g>
       <use style="stroke:#000000;stroke-width:0.8;" x="860.18703" xlink:href="#m4991380c64" y="955.7"/>
      </g>
     </g>
     <g id="text_5">
      <!-- 0.8 -->
      <defs>
       <path d="M 31.78125 34.625 
Q 24.75 34.625 20.71875 30.859375 
Q 16.703125 27.09375 16.703125 20.515625 
Q 16.703125 13.921875 20.71875 10.15625 
Q 24.75 6.390625 31.78125 6.390625 
Q 38.8125 6.390625 42.859375 10.171875 
Q 46.921875 13.96875 46.921875 20.515625 
Q 46.921875 27.09375 42.890625 30.859375 
Q 38.875 34.625 31.78125 34.625 
z
M 21.921875 38.8125 
Q 15.578125 40.375 12.03125 44.71875 
Q 8.5 49.078125 8.5 55.328125 
Q 8.5 64.0625 14.71875 69.140625 
Q 20.953125 74.21875 31.78125 74.21875 
Q 42.671875 74.21875 48.875 69.140625 
Q 55.078125 64.0625 55.078125 55.328125 
Q 55.078125 49.078125 51.53125 44.71875 
Q 48 40.375 41.703125 38.8125 
Q 48.828125 37.15625 52.796875 32.3125 
Q 56.78125 27.484375 56.78125 20.515625 
Q 56.78125 9.90625 50.3125 4.234375 
Q 43.84375 -1.421875 31.78125 -1.421875 
Q 19.734375 -1.421875 13.25 4.234375 
Q 6.78125 9.90625 6.78125 20.515625 
Q 6.78125 27.484375 10.78125 32.3125 
Q 14.796875 37.15625 21.921875 38.8125 
z
M 18.3125 54.390625 
Q 18.3125 48.734375 21.84375 45.5625 
Q 25.390625 42.390625 31.78125 42.390625 
Q 38.140625 42.390625 41.71875 45.5625 
Q 45.3125 48.734375 45.3125 54.390625 
Q 45.3125 60.0625 41.71875 63.234375 
Q 38.140625 66.40625 31.78125 66.40625 
Q 25.390625 66.40625 21.84375 63.234375 
Q 18.3125 60.0625 18.3125 54.390625 
z
" id="DejaVuSans-56"/>
      </defs>
      <g transform="translate(833.681822 988.028125)scale(0.333333 -0.333333)">
       <use xlink:href="#DejaVuSans-48"/>
       <use x="63.623047" xlink:href="#DejaVuSans-46"/>
       <use x="95.410156" xlink:href="#DejaVuSans-56"/>
      </g>
     </g>
    </g>
    <g id="xtick_6">
     <g id="line2d_6">
      <g>
       <use style="stroke:#000000;stroke-width:0.8;" x="1037.353383" xlink:href="#m4991380c64" y="955.7"/>
      </g>
     </g>
     <g id="text_6">
      <!-- 1.0 -->
      <defs>
       <path d="M 12.40625 8.296875 
L 28.515625 8.296875 
L 28.515625 63.921875 
L 10.984375 60.40625 
L 10.984375 69.390625 
L 28.421875 72.90625 
L 38.28125 72.90625 
L 38.28125 8.296875 
L 54.390625 8.296875 
L 54.390625 0 
L 12.40625 0 
z
" id="DejaVuSans-49"/>
      </defs>
      <g transform="translate(1010.848175 988.028125)scale(0.333333 -0.333333)">
       <use xlink:href="#DejaVuSans-49"/>
       <use x="63.623047" xlink:href="#DejaVuSans-46"/>
       <use x="95.410156" xlink:href="#DejaVuSans-48"/>
      </g>
     </g>
    </g>
    <g id="text_7">
     <!-- $\hat{P}$ -->
     <defs>
      <path d="M -28.609375 79.984375 
L -21.390625 79.984375 
L -9.421875 61.625 
L -16.21875 61.625 
L -25 73.578125 
L -33.796875 61.625 
L -40.578125 61.625 
z
M -25 56 
z
" id="DejaVuSans-770"/>
      <path d="M 16.890625 72.90625 
L 39.703125 72.90625 
Q 49.65625 72.90625 54.875 68.265625 
Q 60.109375 63.625 60.109375 54.6875 
Q 60.109375 42.671875 52.390625 35.984375 
Q 44.671875 29.296875 30.71875 29.296875 
L 18.3125 29.296875 
L 12.59375 0 
L 2.6875 0 
z
M 25.203125 64.796875 
L 19.921875 37.40625 
L 32.328125 37.40625 
Q 40.71875 37.40625 45.203125 41.703125 
Q 49.703125 46 49.703125 54 
Q 49.703125 59.125 46.65625 61.953125 
Q 43.609375 64.796875 38.09375 64.796875 
z
" id="DejaVuSans-Oblique-80"/>
     </defs>
     <g transform="translate(576.1375 1052.482292)scale(0.6 -0.6)">
      <use transform="translate(62.653809 30.015625)" xlink:href="#DejaVuSans-770"/>
      <use transform="translate(0 0.609375)" xlink:href="#DejaVuSans-Oblique-80"/>
     </g>
    </g>
   </g>
   <g id="matplotlib.axis_2">
    <g id="ytick_1">
     <g id="line2d_7">
      <defs>
       <path d="M 0 0 
L -3.5 0 
" id="m436eaa71be" style="stroke:#000000;stroke-width:0.8;"/>
      </defs>
      <g>
       <use style="stroke:#000000;stroke-width:0.8;" x="123.175" xlink:href="#m436eaa71be" y="927.387218"/>
      </g>
     </g>
     <g id="text_8">
      <!-- 0.0 -->
      <g transform="translate(63.164583 940.051281)scale(0.333333 -0.333333)">
       <use xlink:href="#DejaVuSans-48"/>
       <use x="63.623047" xlink:href="#DejaVuSans-46"/>
       <use x="95.410156" xlink:href="#DejaVuSans-48"/>
      </g>
     </g>
    </g>
    <g id="ytick_2">
     <g id="line2d_8">
      <g>
       <use style="stroke:#000000;stroke-width:0.8;" x="123.175" xlink:href="#m436eaa71be" y="750.432331"/>
      </g>
     </g>
     <g id="text_9">
      <!-- 0.2 -->
      <g transform="translate(63.164583 763.096393)scale(0.333333 -0.333333)">
       <use xlink:href="#DejaVuSans-48"/>
       <use x="63.623047" xlink:href="#DejaVuSans-46"/>
       <use x="95.410156" xlink:href="#DejaVuSans-50"/>
      </g>
     </g>
    </g>
    <g id="ytick_3">
     <g id="line2d_9">
      <g>
       <use style="stroke:#000000;stroke-width:0.8;" x="123.175" xlink:href="#m436eaa71be" y="573.477444"/>
      </g>
     </g>
     <g id="text_10">
      <!-- 0.4 -->
      <g transform="translate(63.164583 586.141506)scale(0.333333 -0.333333)">
       <use xlink:href="#DejaVuSans-48"/>
       <use x="63.623047" xlink:href="#DejaVuSans-46"/>
       <use x="95.410156" xlink:href="#DejaVuSans-52"/>
      </g>
     </g>
    </g>
    <g id="ytick_4">
     <g id="line2d_10">
      <g>
       <use style="stroke:#000000;stroke-width:0.8;" x="123.175" xlink:href="#m436eaa71be" y="396.522556"/>
      </g>
     </g>
     <g id="text_11">
      <!-- 0.6 -->
      <g transform="translate(63.164583 409.186619)scale(0.333333 -0.333333)">
       <use xlink:href="#DejaVuSans-48"/>
       <use x="63.623047" xlink:href="#DejaVuSans-46"/>
       <use x="95.410156" xlink:href="#DejaVuSans-54"/>
      </g>
     </g>
    </g>
    <g id="ytick_5">
     <g id="line2d_11">
      <g>
       <use style="stroke:#000000;stroke-width:0.8;" x="123.175" xlink:href="#m436eaa71be" y="219.567669"/>
      </g>
     </g>
     <g id="text_12">
      <!-- 0.8 -->
      <g transform="translate(63.164583 232.231732)scale(0.333333 -0.333333)">
       <use xlink:href="#DejaVuSans-48"/>
       <use x="63.623047" xlink:href="#DejaVuSans-46"/>
       <use x="95.410156" xlink:href="#DejaVuSans-56"/>
      </g>
     </g>
    </g>
    <g id="ytick_6">
     <g id="line2d_12">
      <g>
       <use style="stroke:#000000;stroke-width:0.8;" x="123.175" xlink:href="#m436eaa71be" y="42.612782"/>
      </g>
     </g>
     <g id="text_13">
      <!-- 1.0 -->
      <g transform="translate(63.164583 55.276844)scale(0.333333 -0.333333)">
       <use xlink:href="#DejaVuSans-49"/>
       <use x="63.623047" xlink:href="#DejaVuSans-46"/>
       <use x="95.410156" xlink:href="#DejaVuSans-48"/>
      </g>
     </g>
    </g>
    <g id="text_14">
     <!-- Probability Bet -->
     <defs>
      <path d="M 19.671875 64.796875 
L 19.671875 37.40625 
L 32.078125 37.40625 
Q 38.96875 37.40625 42.71875 40.96875 
Q 46.484375 44.53125 46.484375 51.125 
Q 46.484375 57.671875 42.71875 61.234375 
Q 38.96875 64.796875 32.078125 64.796875 
z
M 9.8125 72.90625 
L 32.078125 72.90625 
Q 44.34375 72.90625 50.609375 67.359375 
Q 56.890625 61.8125 56.890625 51.125 
Q 56.890625 40.328125 50.609375 34.8125 
Q 44.34375 29.296875 32.078125 29.296875 
L 19.671875 29.296875 
L 19.671875 0 
L 9.8125 0 
z
" id="DejaVuSans-80"/>
      <path d="M 41.109375 46.296875 
Q 39.59375 47.171875 37.8125 47.578125 
Q 36.03125 48 33.890625 48 
Q 26.265625 48 22.1875 43.046875 
Q 18.109375 38.09375 18.109375 28.8125 
L 18.109375 0 
L 9.078125 0 
L 9.078125 54.6875 
L 18.109375 54.6875 
L 18.109375 46.1875 
Q 20.953125 51.171875 25.484375 53.578125 
Q 30.03125 56 36.53125 56 
Q 37.453125 56 38.578125 55.875 
Q 39.703125 55.765625 41.0625 55.515625 
z
" id="DejaVuSans-114"/>
      <path d="M 30.609375 48.390625 
Q 23.390625 48.390625 19.1875 42.75 
Q 14.984375 37.109375 14.984375 27.296875 
Q 14.984375 17.484375 19.15625 11.84375 
Q 23.34375 6.203125 30.609375 6.203125 
Q 37.796875 6.203125 41.984375 11.859375 
Q 46.1875 17.53125 46.1875 27.296875 
Q 46.1875 37.015625 41.984375 42.703125 
Q 37.796875 48.390625 30.609375 48.390625 
z
M 30.609375 56 
Q 42.328125 56 49.015625 48.375 
Q 55.71875 40.765625 55.71875 27.296875 
Q 55.71875 13.875 49.015625 6.21875 
Q 42.328125 -1.421875 30.609375 -1.421875 
Q 18.84375 -1.421875 12.171875 6.21875 
Q 5.515625 13.875 5.515625 27.296875 
Q 5.515625 40.765625 12.171875 48.375 
Q 18.84375 56 30.609375 56 
z
" id="DejaVuSans-111"/>
      <path d="M 48.6875 27.296875 
Q 48.6875 37.203125 44.609375 42.84375 
Q 40.53125 48.484375 33.40625 48.484375 
Q 26.265625 48.484375 22.1875 42.84375 
Q 18.109375 37.203125 18.109375 27.296875 
Q 18.109375 17.390625 22.1875 11.75 
Q 26.265625 6.109375 33.40625 6.109375 
Q 40.53125 6.109375 44.609375 11.75 
Q 48.6875 17.390625 48.6875 27.296875 
z
M 18.109375 46.390625 
Q 20.953125 51.265625 25.265625 53.625 
Q 29.59375 56 35.59375 56 
Q 45.5625 56 51.78125 48.09375 
Q 58.015625 40.1875 58.015625 27.296875 
Q 58.015625 14.40625 51.78125 6.484375 
Q 45.5625 -1.421875 35.59375 -1.421875 
Q 29.59375 -1.421875 25.265625 0.953125 
Q 20.953125 3.328125 18.109375 8.203125 
L 18.109375 0 
L 9.078125 0 
L 9.078125 75.984375 
L 18.109375 75.984375 
z
" id="DejaVuSans-98"/>
      <path d="M 34.28125 27.484375 
Q 23.390625 27.484375 19.1875 25 
Q 14.984375 22.515625 14.984375 16.5 
Q 14.984375 11.71875 18.140625 8.90625 
Q 21.296875 6.109375 26.703125 6.109375 
Q 34.1875 6.109375 38.703125 11.40625 
Q 43.21875 16.703125 43.21875 25.484375 
L 43.21875 27.484375 
z
M 52.203125 31.203125 
L 52.203125 0 
L 43.21875 0 
L 43.21875 8.296875 
Q 40.140625 3.328125 35.546875 0.953125 
Q 30.953125 -1.421875 24.3125 -1.421875 
Q 15.921875 -1.421875 10.953125 3.296875 
Q 6 8.015625 6 15.921875 
Q 6 25.140625 12.171875 29.828125 
Q 18.359375 34.515625 30.609375 34.515625 
L 43.21875 34.515625 
L 43.21875 35.40625 
Q 43.21875 41.609375 39.140625 45 
Q 35.0625 48.390625 27.6875 48.390625 
Q 23 48.390625 18.546875 47.265625 
Q 14.109375 46.140625 10.015625 43.890625 
L 10.015625 52.203125 
Q 14.9375 54.109375 19.578125 55.046875 
Q 24.21875 56 28.609375 56 
Q 40.484375 56 46.34375 49.84375 
Q 52.203125 43.703125 52.203125 31.203125 
z
" id="DejaVuSans-97"/>
      <path d="M 9.421875 54.6875 
L 18.40625 54.6875 
L 18.40625 0 
L 9.421875 0 
z
M 9.421875 75.984375 
L 18.40625 75.984375 
L 18.40625 64.59375 
L 9.421875 64.59375 
z
" id="DejaVuSans-105"/>
      <path d="M 9.421875 75.984375 
L 18.40625 75.984375 
L 18.40625 0 
L 9.421875 0 
z
" id="DejaVuSans-108"/>
      <path d="M 18.3125 70.21875 
L 18.3125 54.6875 
L 36.8125 54.6875 
L 36.8125 47.703125 
L 18.3125 47.703125 
L 18.3125 18.015625 
Q 18.3125 11.328125 20.140625 9.421875 
Q 21.96875 7.515625 27.59375 7.515625 
L 36.8125 7.515625 
L 36.8125 0 
L 27.59375 0 
Q 17.1875 0 13.234375 3.875 
Q 9.28125 7.765625 9.28125 18.015625 
L 9.28125 47.703125 
L 2.6875 47.703125 
L 2.6875 54.6875 
L 9.28125 54.6875 
L 9.28125 70.21875 
z
" id="DejaVuSans-116"/>
      <path d="M 32.171875 -5.078125 
Q 28.375 -14.84375 24.75 -17.8125 
Q 21.140625 -20.796875 15.09375 -20.796875 
L 7.90625 -20.796875 
L 7.90625 -13.28125 
L 13.1875 -13.28125 
Q 16.890625 -13.28125 18.9375 -11.515625 
Q 21 -9.765625 23.484375 -3.21875 
L 25.09375 0.875 
L 2.984375 54.6875 
L 12.5 54.6875 
L 29.59375 11.921875 
L 46.6875 54.6875 
L 56.203125 54.6875 
z
" id="DejaVuSans-121"/>
      <path id="DejaVuSans-32"/>
      <path d="M 19.671875 34.8125 
L 19.671875 8.109375 
L 35.5 8.109375 
Q 43.453125 8.109375 47.28125 11.40625 
Q 51.125 14.703125 51.125 21.484375 
Q 51.125 28.328125 47.28125 31.5625 
Q 43.453125 34.8125 35.5 34.8125 
z
M 19.671875 64.796875 
L 19.671875 42.828125 
L 34.28125 42.828125 
Q 41.5 42.828125 45.03125 45.53125 
Q 48.578125 48.25 48.578125 53.8125 
Q 48.578125 59.328125 45.03125 62.0625 
Q 41.5 64.796875 34.28125 64.796875 
z
M 9.8125 72.90625 
L 35.015625 72.90625 
Q 46.296875 72.90625 52.390625 68.21875 
Q 58.5 63.53125 58.5 54.890625 
Q 58.5 48.1875 55.375 44.234375 
Q 52.25 40.28125 46.1875 39.3125 
Q 53.46875 37.75 57.5 32.78125 
Q 61.53125 27.828125 61.53125 20.40625 
Q 61.53125 10.640625 54.890625 5.3125 
Q 48.25 0 35.984375 0 
L 9.8125 0 
z
" id="DejaVuSans-66"/>
      <path d="M 56.203125 29.59375 
L 56.203125 25.203125 
L 14.890625 25.203125 
Q 15.484375 15.921875 20.484375 11.0625 
Q 25.484375 6.203125 34.421875 6.203125 
Q 39.59375 6.203125 44.453125 7.46875 
Q 49.3125 8.734375 54.109375 11.28125 
L 54.109375 2.78125 
Q 49.265625 0.734375 44.1875 -0.34375 
Q 39.109375 -1.421875 33.890625 -1.421875 
Q 20.796875 -1.421875 13.15625 6.1875 
Q 5.515625 13.8125 5.515625 26.8125 
Q 5.515625 40.234375 12.765625 48.109375 
Q 20.015625 56 32.328125 56 
Q 43.359375 56 49.78125 48.890625 
Q 56.203125 41.796875 56.203125 29.59375 
z
M 47.21875 32.234375 
Q 47.125 39.59375 43.09375 43.984375 
Q 39.0625 48.390625 32.421875 48.390625 
Q 24.90625 48.390625 20.390625 44.140625 
Q 15.875 39.890625 15.1875 32.171875 
z
" id="DejaVuSans-101"/>
     </defs>
     <g transform="translate(48.766146 668.414062)rotate(-90)scale(0.5 -0.5)">
      <use xlink:href="#DejaVuSans-80"/>
      <use x="60.287109" xlink:href="#DejaVuSans-114"/>
      <use x="101.369141" xlink:href="#DejaVuSans-111"/>
      <use x="162.550781" xlink:href="#DejaVuSans-98"/>
      <use x="226.027344" xlink:href="#DejaVuSans-97"/>
      <use x="287.306641" xlink:href="#DejaVuSans-98"/>
      <use x="350.783203" xlink:href="#DejaVuSans-105"/>
      <use x="378.566406" xlink:href="#DejaVuSans-108"/>
      <use x="406.349609" xlink:href="#DejaVuSans-105"/>
      <use x="434.132812" xlink:href="#DejaVuSans-116"/>
      <use x="473.341797" xlink:href="#DejaVuSans-121"/>
      <use x="532.521484" xlink:href="#DejaVuSans-32"/>
      <use x="564.308594" xlink:href="#DejaVuSans-66"/>
      <use x="632.912109" xlink:href="#DejaVuSans-101"/>
      <use x="694.435547" xlink:href="#DejaVuSans-116"/>
     </g>
    </g>
   </g>
   <g id="LineCollection_1">
    <path clip-path="url(#pf98e1dbcaf)" d="M 226.817317 927.387218 
L 226.817317 622.140038 
" style="fill:none;stroke:#0000ff;stroke-width:1.5;"/>
   </g>
   <g id="LineCollection_2">
    <path clip-path="url(#pf98e1dbcaf)" d="M 403.98367 710.617481 
L 403.98367 404.264333 
" style="fill:none;stroke:#0000ff;stroke-width:1.5;"/>
   </g>
   <g id="LineCollection_3">
    <path clip-path="url(#pf98e1dbcaf)" d="M 581.150023 878.724624 
L 581.150023 351.177867 
" style="fill:none;stroke:#0000ff;stroke-width:1.5;"/>
   </g>
   <g id="LineCollection_4">
    <path clip-path="url(#pf98e1dbcaf)" d="M 758.316377 573.477444 
L 758.316377 205.190085 
" style="fill:none;stroke:#0000ff;stroke-width:1.5;"/>
   </g>
   <g id="LineCollection_5">
    <path clip-path="url(#pf98e1dbcaf)" d="M 935.48273 277.078008 
L 935.48273 42.612782 
" style="fill:none;stroke:#0000ff;stroke-width:1.5;"/>
   </g>
   <g id="LineCollection_6">
    <path clip-path="url(#pf98e1dbcaf)" d="M 240.104793 927.387218 
L 240.104793 803.518797 
" style="fill:none;stroke:#ff7f0e;stroke-width:1.5;"/>
   </g>
   <g id="LineCollection_7">
    <path clip-path="url(#pf98e1dbcaf)" d="M 417.271147 807.942669 
L 417.271147 427.489662 
" style="fill:none;stroke:#ff7f0e;stroke-width:1.5;"/>
   </g>
   <g id="LineCollection_8">
    <path clip-path="url(#pf98e1dbcaf)" d="M 594.4375 622.140038 
L 594.4375 285.925752 
" style="fill:none;stroke:#ff7f0e;stroke-width:1.5;"/>
   </g>
   <g id="LineCollection_9">
    <path clip-path="url(#pf98e1dbcaf)" d="M 771.603853 485 
L 771.603853 73.579887 
" style="fill:none;stroke:#ff7f0e;stroke-width:1.5;"/>
   </g>
   <g id="LineCollection_10">
    <path clip-path="url(#pf98e1dbcaf)" d="M 948.770207 131.090226 
L 948.770207 42.612782 
" style="fill:none;stroke:#ff7f0e;stroke-width:1.5;"/>
   </g>
   <g id="LineCollection_11">
    <path clip-path="url(#pf98e1dbcaf)" d="M 253.39227 927.387218 
L 253.39227 851.075423 
" style="fill:none;stroke:#008000;stroke-width:1.5;"/>
   </g>
   <g id="LineCollection_12">
    <path clip-path="url(#pf98e1dbcaf)" d="M 430.558623 821.214286 
L 430.558623 485 
" style="fill:none;stroke:#008000;stroke-width:1.5;"/>
   </g>
   <g id="LineCollection_13">
    <path clip-path="url(#pf98e1dbcaf)" d="M 607.724977 622.140038 
L 607.724977 343.43609 
" style="fill:none;stroke:#008000;stroke-width:1.5;"/>
   </g>
   <g id="LineCollection_14">
    <path clip-path="url(#pf98e1dbcaf)" d="M 784.89133 485 
L 784.89133 108.970865 
" style="fill:none;stroke:#008000;stroke-width:1.5;"/>
   </g>
   <g id="LineCollection_15">
    <path clip-path="url(#pf98e1dbcaf)" d="M 962.057683 153.209586 
L 962.057683 42.612782 
" style="fill:none;stroke:#008000;stroke-width:1.5;"/>
   </g>
   <g id="line2d_13">
    <defs>
     <path d="M 10 0 
L -10 -0 
" id="mb7a1a1db3d" style="stroke:#0000ff;"/>
    </defs>
    <g clip-path="url(#pf98e1dbcaf)">
     <use style="fill:#0000ff;stroke:#0000ff;" x="226.817317" xlink:href="#mb7a1a1db3d" y="927.387218"/>
    </g>
   </g>
   <g id="line2d_14">
    <g clip-path="url(#pf98e1dbcaf)">
     <use style="fill:#0000ff;stroke:#0000ff;" x="226.817317" xlink:href="#mb7a1a1db3d" y="622.140038"/>
    </g>
   </g>
   <g id="line2d_15">
    <g clip-path="url(#pf98e1dbcaf)">
     <use style="fill:#0000ff;stroke:#0000ff;" x="403.98367" xlink:href="#mb7a1a1db3d" y="710.617481"/>
    </g>
   </g>
   <g id="line2d_16">
    <g clip-path="url(#pf98e1dbcaf)">
     <use style="fill:#0000ff;stroke:#0000ff;" x="403.98367" xlink:href="#mb7a1a1db3d" y="404.264333"/>
    </g>
   </g>
   <g id="line2d_17">
    <g clip-path="url(#pf98e1dbcaf)">
     <use style="fill:#0000ff;stroke:#0000ff;" x="581.150023" xlink:href="#mb7a1a1db3d" y="878.724624"/>
    </g>
   </g>
   <g id="line2d_18">
    <g clip-path="url(#pf98e1dbcaf)">
     <use style="fill:#0000ff;stroke:#0000ff;" x="581.150023" xlink:href="#mb7a1a1db3d" y="351.177867"/>
    </g>
   </g>
   <g id="line2d_19">
    <g clip-path="url(#pf98e1dbcaf)">
     <use style="fill:#0000ff;stroke:#0000ff;" x="758.316377" xlink:href="#mb7a1a1db3d" y="573.477444"/>
    </g>
   </g>
   <g id="line2d_20">
    <g clip-path="url(#pf98e1dbcaf)">
     <use style="fill:#0000ff;stroke:#0000ff;" x="758.316377" xlink:href="#mb7a1a1db3d" y="205.190085"/>
    </g>
   </g>
   <g id="line2d_21">
    <g clip-path="url(#pf98e1dbcaf)">
     <use style="fill:#0000ff;stroke:#0000ff;" x="935.48273" xlink:href="#mb7a1a1db3d" y="277.078008"/>
    </g>
   </g>
   <g id="line2d_22">
    <g clip-path="url(#pf98e1dbcaf)">
     <use style="fill:#0000ff;stroke:#0000ff;" x="935.48273" xlink:href="#mb7a1a1db3d" y="42.612782"/>
    </g>
   </g>
   <g id="line2d_23">
    <path clip-path="url(#pf98e1dbcaf)" d="M 160.601278 781.44839 
L 169.333203 775.448713 
L 178.065128 769.449035 
L 186.797053 763.449357 
L 195.528979 757.44968 
L 204.260904 751.450002 
L 212.992829 745.450325 
L 221.724754 739.450647 
L 230.456679 733.450969 
L 239.188604 727.451292 
L 247.920529 721.451614 
L 256.652454 715.451937 
L 265.38438 709.452259 
L 274.116305 703.452581 
L 282.84823 697.452904 
L 291.580155 691.453226 
L 300.31208 685.453549 
L 309.044005 679.453871 
L 317.77593 673.454193 
L 326.507856 667.454516 
L 335.239781 661.454838 
L 343.971706 655.455161 
L 352.703631 649.455483 
L 361.435556 643.455805 
L 370.167481 637.456128 
L 378.899406 631.45645 
L 387.631331 625.456773 
L 396.363257 619.457095 
L 405.095182 613.457417 
L 413.827107 607.45774 
L 422.559032 601.458062 
L 431.290957 595.458385 
L 440.022882 589.458707 
L 448.754807 583.459029 
L 457.486733 577.459352 
L 466.218658 571.459674 
L 474.950583 565.459997 
L 483.682508 559.460319 
L 492.414433 553.460641 
L 501.146358 547.460964 
L 509.878283 541.461286 
L 518.610209 535.461608 
L 527.342134 529.461931 
L 536.074059 523.462253 
L 544.805984 517.462576 
L 553.537909 511.462898 
L 562.269834 505.46322 
L 571.001759 499.463543 
L 579.733684 493.463865 
L 588.46561 487.464188 
L 597.197535 481.46451 
L 605.92946 475.464832 
L 614.661385 469.465155 
L 623.39331 463.465477 
L 632.125235 457.4658 
L 640.85716 451.466122 
L 649.589086 445.466444 
L 658.321011 439.466767 
L 667.052936 433.467089 
L 675.784861 427.467412 
L 684.516786 421.467734 
L 693.248711 415.468056 
L 701.980636 409.468379 
L 710.712561 403.468701 
L 719.444487 397.469024 
L 728.176412 391.469346 
L 736.908337 385.469668 
L 745.640262 379.469991 
L 754.372187 373.470313 
L 763.104112 367.470636 
L 771.836037 361.470958 
L 780.567963 355.47128 
L 789.299888 349.471603 
L 798.031813 343.471925 
L 806.763738 337.472248 
L 815.495663 331.47257 
L 824.227588 325.472892 
L 832.959513 319.473215 
L 841.691438 313.473537 
L 850.423364 307.47386 
L 859.155289 301.474182 
L 867.887214 295.474504 
L 876.619139 289.474827 
L 885.351064 283.475149 
L 894.082989 277.475472 
L 902.814914 271.475794 
L 911.54684 265.476116 
L 920.278765 259.476439 
L 929.01069 253.476761 
L 937.742615 247.477084 
L 946.47454 241.477406 
L 955.206465 235.477728 
L 963.93839 229.478051 
L 972.670315 223.478373 
L 981.402241 217.478696 
L 990.134166 211.479018 
L 998.866091 205.47934 
L 1007.598016 199.479663 
L 1016.329941 193.479985 
L 1025.061866 187.480308 
" style="fill:none;stroke:#0000ff;stroke-linecap:square;stroke-width:3;"/>
   </g>
   <g id="line2d_24">
    <defs>
     <path d="M 10 0 
L -10 -0 
" id="m5379a9c476" style="stroke:#ff7f0e;"/>
    </defs>
    <g clip-path="url(#pf98e1dbcaf)">
     <use style="fill:#ff7f0e;stroke:#ff7f0e;" x="240.104793" xlink:href="#m5379a9c476" y="927.387218"/>
    </g>
   </g>
   <g id="line2d_25">
    <g clip-path="url(#pf98e1dbcaf)">
     <use style="fill:#ff7f0e;stroke:#ff7f0e;" x="240.104793" xlink:href="#m5379a9c476" y="803.518797"/>
    </g>
   </g>
   <g id="line2d_26">
    <g clip-path="url(#pf98e1dbcaf)">
     <use style="fill:#ff7f0e;stroke:#ff7f0e;" x="417.271147" xlink:href="#m5379a9c476" y="807.942669"/>
    </g>
   </g>
   <g id="line2d_27">
    <g clip-path="url(#pf98e1dbcaf)">
     <use style="fill:#ff7f0e;stroke:#ff7f0e;" x="417.271147" xlink:href="#m5379a9c476" y="427.489662"/>
    </g>
   </g>
   <g id="line2d_28">
    <g clip-path="url(#pf98e1dbcaf)">
     <use style="fill:#ff7f0e;stroke:#ff7f0e;" x="594.4375" xlink:href="#m5379a9c476" y="622.140038"/>
    </g>
   </g>
   <g id="line2d_29">
    <g clip-path="url(#pf98e1dbcaf)">
     <use style="fill:#ff7f0e;stroke:#ff7f0e;" x="594.4375" xlink:href="#m5379a9c476" y="285.925752"/>
    </g>
   </g>
   <g id="line2d_30">
    <g clip-path="url(#pf98e1dbcaf)">
     <use style="fill:#ff7f0e;stroke:#ff7f0e;" x="771.603853" xlink:href="#m5379a9c476" y="485"/>
    </g>
   </g>
   <g id="line2d_31">
    <g clip-path="url(#pf98e1dbcaf)">
     <use style="fill:#ff7f0e;stroke:#ff7f0e;" x="771.603853" xlink:href="#m5379a9c476" y="73.579887"/>
    </g>
   </g>
   <g id="line2d_32">
    <g clip-path="url(#pf98e1dbcaf)">
     <use style="fill:#ff7f0e;stroke:#ff7f0e;" x="948.770207" xlink:href="#m5379a9c476" y="131.090226"/>
    </g>
   </g>
   <g id="line2d_33">
    <g clip-path="url(#pf98e1dbcaf)">
     <use style="fill:#ff7f0e;stroke:#ff7f0e;" x="948.770207" xlink:href="#m5379a9c476" y="42.612782"/>
    </g>
   </g>
   <g id="line2d_34">
    <path clip-path="url(#pf98e1dbcaf)" d="M 183.169564 859.990096 
L 191.313672 851.993825 
L 199.457781 843.997554 
L 207.60189 836.001283 
L 215.745999 828.005012 
L 223.890107 820.008741 
L 232.034216 812.01247 
L 240.178325 804.016199 
L 248.322434 796.019928 
L 256.466542 788.023658 
L 264.610651 780.027387 
L 272.75476 772.031116 
L 280.898869 764.034845 
L 289.042977 756.038574 
L 297.187086 748.042303 
L 305.331195 740.046032 
L 313.475304 732.049761 
L 321.619412 724.05349 
L 329.763521 716.057219 
L 337.90763 708.060948 
L 346.051738 700.064678 
L 354.195847 692.068407 
L 362.339956 684.072136 
L 370.484065 676.075865 
L 378.628173 668.079594 
L 386.772282 660.083323 
L 394.916391 652.087052 
L 403.0605 644.090781 
L 411.204608 636.09451 
L 419.348717 628.098239 
L 427.492826 620.101968 
L 435.636935 612.105698 
L 443.781043 604.109427 
L 451.925152 596.113156 
L 460.069261 588.116885 
L 468.213369 580.120614 
L 476.357478 572.124343 
L 484.501587 564.128072 
L 492.645696 556.131801 
L 500.789804 548.13553 
L 508.933913 540.139259 
L 517.078022 532.142988 
L 525.222131 524.146717 
L 533.366239 516.150447 
L 541.510348 508.154176 
L 549.654457 500.157905 
L 557.798566 492.161634 
L 565.942674 484.165363 
L 574.086783 476.169092 
L 582.230892 468.172821 
L 590.375001 460.17655 
L 598.519109 452.180279 
L 606.663218 444.184008 
L 614.807327 436.187737 
L 622.951435 428.191467 
L 631.095544 420.195196 
L 639.239653 412.198925 
L 647.383762 404.202654 
L 655.52787 396.206383 
L 663.671979 388.210112 
L 671.816088 380.213841 
L 679.960197 372.21757 
L 688.104305 364.221299 
L 696.248414 356.225028 
L 704.392523 348.228757 
L 712.536632 340.232487 
L 720.68074 332.236216 
L 728.824849 324.239945 
L 736.968958 316.243674 
L 745.113067 308.247403 
L 753.257175 300.251132 
L 761.401284 292.254861 
L 769.545393 284.25859 
L 777.689501 276.262319 
L 785.83361 268.266048 
L 793.977719 260.269777 
L 802.121828 252.273507 
L 810.265936 244.277236 
L 818.410045 236.280965 
L 826.554154 228.284694 
L 834.698263 220.288423 
L 842.842371 212.292152 
L 850.98648 204.295881 
L 859.130589 196.29961 
L 867.274698 188.303339 
L 875.418806 180.307068 
L 883.562915 172.310797 
L 891.707024 164.314527 
L 899.851132 156.318256 
L 907.995241 148.321985 
L 916.13935 140.325714 
L 924.283459 132.329443 
L 932.427567 124.333172 
L 940.571676 116.336901 
L 948.715785 108.34063 
L 956.859894 100.344359 
L 965.004002 92.348088 
L 973.148111 84.351817 
L 981.29222 76.355547 
L 989.436329 68.359276 
" style="fill:none;stroke:#ff7f0e;stroke-linecap:square;stroke-width:3;"/>
   </g>
   <g id="line2d_35">
    <defs>
     <path d="M 10 0 
L -10 -0 
" id="mb1c96fefaf" style="stroke:#008000;"/>
    </defs>
    <g clip-path="url(#pf98e1dbcaf)">
     <use style="fill:#008000;stroke:#008000;" x="253.39227" xlink:href="#mb1c96fefaf" y="927.387218"/>
    </g>
   </g>
   <g id="line2d_36">
    <g clip-path="url(#pf98e1dbcaf)">
     <use style="fill:#008000;stroke:#008000;" x="253.39227" xlink:href="#mb1c96fefaf" y="851.075423"/>
    </g>
   </g>
   <g id="line2d_37">
    <g clip-path="url(#pf98e1dbcaf)">
     <use style="fill:#008000;stroke:#008000;" x="430.558623" xlink:href="#mb1c96fefaf" y="821.214286"/>
    </g>
   </g>
   <g id="line2d_38">
    <g clip-path="url(#pf98e1dbcaf)">
     <use style="fill:#008000;stroke:#008000;" x="430.558623" xlink:href="#mb1c96fefaf" y="485"/>
    </g>
   </g>
   <g id="line2d_39">
    <g clip-path="url(#pf98e1dbcaf)">
     <use style="fill:#008000;stroke:#008000;" x="607.724977" xlink:href="#mb1c96fefaf" y="622.140038"/>
    </g>
   </g>
   <g id="line2d_40">
    <g clip-path="url(#pf98e1dbcaf)">
     <use style="fill:#008000;stroke:#008000;" x="607.724977" xlink:href="#mb1c96fefaf" y="343.43609"/>
    </g>
   </g>
   <g id="line2d_41">
    <g clip-path="url(#pf98e1dbcaf)">
     <use style="fill:#008000;stroke:#008000;" x="784.89133" xlink:href="#mb1c96fefaf" y="485"/>
    </g>
   </g>
   <g id="line2d_42">
    <g clip-path="url(#pf98e1dbcaf)">
     <use style="fill:#008000;stroke:#008000;" x="784.89133" xlink:href="#mb1c96fefaf" y="108.970865"/>
    </g>
   </g>
   <g id="line2d_43">
    <g clip-path="url(#pf98e1dbcaf)">
     <use style="fill:#008000;stroke:#008000;" x="962.057683" xlink:href="#mb1c96fefaf" y="153.209586"/>
    </g>
   </g>
   <g id="line2d_44">
    <g clip-path="url(#pf98e1dbcaf)">
     <use style="fill:#008000;stroke:#008000;" x="962.057683" xlink:href="#mb1c96fefaf" y="42.612782"/>
    </g>
   </g>
   <g id="line2d_45">
    <path clip-path="url(#pf98e1dbcaf)" d="M 183.051307 895.204319 
L 191.278062 886.956917 
L 199.504818 878.709514 
L 207.731574 870.462112 
L 215.958329 862.214709 
L 224.185085 853.967307 
L 232.41184 845.719904 
L 240.638596 837.472502 
L 248.865351 829.2251 
L 257.092107 820.977697 
L 265.318862 812.730295 
L 273.545618 804.482892 
L 281.772374 796.23549 
L 289.999129 787.988087 
L 298.225885 779.740685 
L 306.45264 771.493282 
L 314.679396 763.24588 
L 322.906151 754.998478 
L 331.132907 746.751075 
L 339.359662 738.503673 
L 347.586418 730.25627 
L 355.813173 722.008868 
L 364.039929 713.761465 
L 372.266685 705.514063 
L 380.49344 697.26666 
L 388.720196 689.019258 
L 396.946951 680.771856 
L 405.173707 672.524453 
L 413.400462 664.277051 
L 421.627218 656.029648 
L 429.853973 647.782246 
L 438.080729 639.534843 
L 446.307485 631.287441 
L 454.53424 623.040038 
L 462.760996 614.792636 
L 470.987751 606.545234 
L 479.214507 598.297831 
L 487.441262 590.050429 
L 495.668018 581.803026 
L 503.894773 573.555624 
L 512.121529 565.308221 
L 520.348284 557.060819 
L 528.57504 548.813416 
L 536.801796 540.566014 
L 545.028551 532.318612 
L 553.255307 524.071209 
L 561.482062 515.823807 
L 569.708818 507.576404 
L 577.935573 499.329002 
L 586.162329 491.081599 
L 594.389084 482.834197 
L 602.61584 474.586794 
L 610.842596 466.339392 
L 619.069351 458.09199 
L 627.296107 449.844587 
L 635.522862 441.597185 
L 643.749618 433.349782 
L 651.976373 425.10238 
L 660.203129 416.854977 
L 668.429884 408.607575 
L 676.65664 400.360172 
L 684.883395 392.11277 
L 693.110151 383.865368 
L 701.336907 375.617965 
L 709.563662 367.370563 
L 717.790418 359.12316 
L 726.017173 350.875758 
L 734.243929 342.628355 
L 742.470684 334.380953 
L 750.69744 326.13355 
L 758.924195 317.886148 
L 767.150951 309.638746 
L 775.377707 301.391343 
L 783.604462 293.143941 
L 791.831218 284.896538 
L 800.057973 276.649136 
L 808.284729 268.401733 
L 816.511484 260.154331 
L 824.73824 251.906928 
L 832.964995 243.659526 
L 841.191751 235.412124 
L 849.418506 227.164721 
L 857.645262 218.917319 
L 865.872018 210.669916 
L 874.098773 202.422514 
L 882.325529 194.175111 
L 890.552284 185.927709 
L 898.77904 177.680306 
L 907.005795 169.432904 
L 915.232551 161.185502 
L 923.459306 152.938099 
L 931.686062 144.690697 
L 939.912818 136.443294 
L 948.139573 128.195892 
L 956.366329 119.948489 
L 964.593084 111.701087 
L 972.81984 103.453684 
L 981.046595 95.206282 
L 989.273351 86.958879 
L 997.500106 78.711477 
" style="fill:none;stroke:#008000;stroke-linecap:square;stroke-width:3;"/>
   </g>
   <g id="line2d_46">
    <path clip-path="url(#pf98e1dbcaf)" d="M 226.817317 927.387218 
" style="fill:none;stroke:#0000ff;stroke-linecap:square;stroke-width:1.5;"/>
   </g>
   <g id="line2d_47">
    <path clip-path="url(#pf98e1dbcaf)" d="M 403.98367 710.617481 
" style="fill:none;stroke:#0000ff;stroke-linecap:square;stroke-width:1.5;"/>
   </g>
   <g id="line2d_48">
    <path clip-path="url(#pf98e1dbcaf)" d="M 581.150023 878.724624 
" style="fill:none;stroke:#0000ff;stroke-linecap:square;stroke-width:1.5;"/>
   </g>
   <g id="line2d_49">
    <path clip-path="url(#pf98e1dbcaf)" d="M 758.316377 573.477444 
" style="fill:none;stroke:#0000ff;stroke-linecap:square;stroke-width:1.5;"/>
   </g>
   <g id="line2d_50">
    <path clip-path="url(#pf98e1dbcaf)" d="M 935.48273 277.078008 
" style="fill:none;stroke:#0000ff;stroke-linecap:square;stroke-width:1.5;"/>
   </g>
   <g id="line2d_51">
    <path clip-path="url(#pf98e1dbcaf)" d="M 240.104793 927.387218 
" style="fill:none;stroke:#ff7f0e;stroke-linecap:square;stroke-width:1.5;"/>
   </g>
   <g id="line2d_52">
    <path clip-path="url(#pf98e1dbcaf)" d="M 417.271147 807.942669 
" style="fill:none;stroke:#ff7f0e;stroke-linecap:square;stroke-width:1.5;"/>
   </g>
   <g id="line2d_53">
    <path clip-path="url(#pf98e1dbcaf)" d="M 594.4375 622.140038 
" style="fill:none;stroke:#ff7f0e;stroke-linecap:square;stroke-width:1.5;"/>
   </g>
   <g id="line2d_54">
    <path clip-path="url(#pf98e1dbcaf)" d="M 771.603853 485 
" style="fill:none;stroke:#ff7f0e;stroke-linecap:square;stroke-width:1.5;"/>
   </g>
   <g id="line2d_55">
    <path clip-path="url(#pf98e1dbcaf)" d="M 948.770207 131.090226 
" style="fill:none;stroke:#ff7f0e;stroke-linecap:square;stroke-width:1.5;"/>
   </g>
   <g id="line2d_56">
    <path clip-path="url(#pf98e1dbcaf)" d="M 253.39227 927.387218 
" style="fill:none;stroke:#008000;stroke-linecap:square;stroke-width:1.5;"/>
   </g>
   <g id="line2d_57">
    <path clip-path="url(#pf98e1dbcaf)" d="M 430.558623 821.214286 
" style="fill:none;stroke:#008000;stroke-linecap:square;stroke-width:1.5;"/>
   </g>
   <g id="line2d_58">
    <path clip-path="url(#pf98e1dbcaf)" d="M 607.724977 622.140038 
" style="fill:none;stroke:#008000;stroke-linecap:square;stroke-width:1.5;"/>
   </g>
   <g id="line2d_59">
    <path clip-path="url(#pf98e1dbcaf)" d="M 784.89133 485 
" style="fill:none;stroke:#008000;stroke-linecap:square;stroke-width:1.5;"/>
   </g>
   <g id="line2d_60">
    <path clip-path="url(#pf98e1dbcaf)" d="M 962.057683 153.209586 
" style="fill:none;stroke:#008000;stroke-linecap:square;stroke-width:1.5;"/>
   </g>
   <g id="patch_3">
    <path d="M 123.175 955.7 
L 123.175 14.3 
" style="fill:none;stroke:#000000;stroke-linecap:square;stroke-linejoin:miter;stroke-width:0.8;"/>
   </g>
   <g id="patch_4">
    <path d="M 1065.7 955.7 
L 1065.7 14.3 
" style="fill:none;stroke:#000000;stroke-linecap:square;stroke-linejoin:miter;stroke-width:0.8;"/>
   </g>
   <g id="patch_5">
    <path d="M 123.175 955.7 
L 1065.7 955.7 
" style="fill:none;stroke:#000000;stroke-linecap:square;stroke-linejoin:miter;stroke-width:0.8;"/>
   </g>
   <g id="patch_6">
    <path d="M 123.175 14.3 
L 1065.7 14.3 
" style="fill:none;stroke:#000000;stroke-linecap:square;stroke-linejoin:miter;stroke-width:0.8;"/>
   </g>
  </g>
  <g id="axes_2">
   <g id="patch_7">
    <path d="M 177.175 322.2 
L 447.175 322.2 
L 447.175 52.2 
L 177.175 52.2 
z
" style="fill:#ffffff;"/>
   </g>
   <g id="PathCollection_16">
    <defs>
     <path d="M 0 3.535534 
C 0.937635 3.535534 1.836992 3.163008 2.5 2.5 
C 3.163008 1.836992 3.535534 0.937635 3.535534 0 
C 3.535534 -0.937635 3.163008 -1.836992 2.5 -2.5 
C 1.836992 -3.163008 0.937635 -3.535534 0 -3.535534 
C -0.937635 -3.535534 -1.836992 -3.163008 -2.5 -2.5 
C -3.163008 -1.836992 -3.535534 -0.937635 -3.535534 0 
C -3.535534 0.937635 -3.163008 1.836992 -2.5 2.5 
C -1.836992 3.163008 -0.937635 3.535534 0 3.535534 
z
" id="m536b5edcb9"/>
    </defs>
    <g clip-path="url(#pf369475d4f)">
     <use style="fill:#0000ff;" x="193.679702" xlink:href="#m536b5edcb9" y="185.9186"/>
    </g>
   </g>
   <g id="PathCollection_17">
    <g clip-path="url(#pf369475d4f)">
     <use style="fill:#0000ff;" x="199.835302" xlink:href="#m536b5edcb9" y="176.27509"/>
    </g>
   </g>
   <g id="PathCollection_18">
    <g clip-path="url(#pf369475d4f)">
     <use style="fill:#0000ff;" x="205.990902" xlink:href="#m536b5edcb9" y="215.558676"/>
    </g>
   </g>
   <g id="PathCollection_19">
    <g clip-path="url(#pf369475d4f)">
     <use style="fill:#0000ff;" x="212.146502" xlink:href="#m536b5edcb9" y="196.412054"/>
    </g>
   </g>
   <g id="PathCollection_20">
    <g clip-path="url(#pf369475d4f)">
     <use style="fill:#0000ff;" x="218.302102" xlink:href="#m536b5edcb9" y="203.991067"/>
    </g>
   </g>
   <g id="PathCollection_21">
    <g clip-path="url(#pf369475d4f)">
     <use style="fill:#0000ff;" x="224.457702" xlink:href="#m536b5edcb9" y="181.178533"/>
    </g>
   </g>
   <g id="PathCollection_22">
    <g clip-path="url(#pf369475d4f)">
     <use style="fill:#0000ff;" x="230.613302" xlink:href="#m536b5edcb9" y="188.175689"/>
    </g>
   </g>
   <g id="PathCollection_23">
    <g clip-path="url(#pf369475d4f)">
     <use style="fill:#0000ff;" x="236.768901" xlink:href="#m536b5edcb9" y="199.884517"/>
    </g>
   </g>
   <g id="PathCollection_24">
    <g clip-path="url(#pf369475d4f)">
     <use style="fill:#0000ff;" x="242.924501" xlink:href="#m536b5edcb9" y="230.237498"/>
    </g>
   </g>
   <g id="PathCollection_25">
    <g clip-path="url(#pf369475d4f)">
     <use style="fill:#0000ff;" x="249.080101" xlink:href="#m536b5edcb9" y="186.350334"/>
    </g>
   </g>
   <g id="PathCollection_26">
    <g clip-path="url(#pf369475d4f)">
     <use style="fill:#0000ff;" x="255.235701" xlink:href="#m536b5edcb9" y="187.288098"/>
    </g>
   </g>
   <g id="PathCollection_27">
    <g clip-path="url(#pf369475d4f)">
     <use style="fill:#0000ff;" x="261.391301" xlink:href="#m536b5edcb9" y="214.084811"/>
    </g>
   </g>
   <g id="PathCollection_28">
    <defs>
     <path d="M 0 3.535534 
C 0.937635 3.535534 1.836992 3.163008 2.5 2.5 
C 3.163008 1.836992 3.535534 0.937635 3.535534 0 
C 3.535534 -0.937635 3.163008 -1.836992 2.5 -2.5 
C 1.836992 -3.163008 0.937635 -3.535534 0 -3.535534 
C -0.937635 -3.535534 -1.836992 -3.163008 -2.5 -2.5 
C -3.163008 -1.836992 -3.535534 -0.937635 -3.535534 0 
C -3.535534 0.937635 -3.163008 1.836992 -2.5 2.5 
C -1.836992 3.163008 -0.937635 3.535534 0 3.535534 
z
" id="m817506b3c5"/>
    </defs>
    <g clip-path="url(#pf369475d4f)">
     <use style="fill:#ff7f0e;" x="278.319201" xlink:href="#m817506b3c5" y="161.441087"/>
    </g>
   </g>
   <g id="PathCollection_29">
    <g clip-path="url(#pf369475d4f)">
     <use style="fill:#ff7f0e;" x="284.474801" xlink:href="#m817506b3c5" y="168.078118"/>
    </g>
   </g>
   <g id="PathCollection_30">
    <g clip-path="url(#pf369475d4f)">
     <use style="fill:#ff7f0e;" x="290.6304" xlink:href="#m817506b3c5" y="224.059148"/>
    </g>
   </g>
   <g id="PathCollection_31">
    <g clip-path="url(#pf369475d4f)">
     <use style="fill:#ff7f0e;" x="296.786" xlink:href="#m817506b3c5" y="196.754655"/>
    </g>
   </g>
   <g id="PathCollection_32">
    <g clip-path="url(#pf369475d4f)">
     <use style="fill:#ff7f0e;" x="302.9416" xlink:href="#m817506b3c5" y="201.59075"/>
    </g>
   </g>
   <g id="PathCollection_33">
    <g clip-path="url(#pf369475d4f)">
     <use style="fill:#ff7f0e;" x="309.0972" xlink:href="#m817506b3c5" y="172.590435"/>
    </g>
   </g>
   <g id="PathCollection_34">
    <g clip-path="url(#pf369475d4f)">
     <use style="fill:#ff7f0e;" x="315.2528" xlink:href="#m817506b3c5" y="183.675942"/>
    </g>
   </g>
   <g id="PathCollection_35">
    <g clip-path="url(#pf369475d4f)">
     <use style="fill:#ff7f0e;" x="321.4084" xlink:href="#m817506b3c5" y="201.187244"/>
    </g>
   </g>
   <g id="PathCollection_36">
    <g clip-path="url(#pf369475d4f)">
     <use style="fill:#ff7f0e;" x="327.564" xlink:href="#m817506b3c5" y="219.133407"/>
    </g>
   </g>
   <g id="PathCollection_37">
    <g clip-path="url(#pf369475d4f)">
     <use style="fill:#ff7f0e;" x="333.7196" xlink:href="#m817506b3c5" y="150.951217"/>
    </g>
   </g>
   <g id="PathCollection_38">
    <g clip-path="url(#pf369475d4f)">
     <use style="fill:#ff7f0e;" x="339.875199" xlink:href="#m817506b3c5" y="185.029876"/>
    </g>
   </g>
   <g id="PathCollection_39">
    <g clip-path="url(#pf369475d4f)">
     <use style="fill:#ff7f0e;" x="346.030799" xlink:href="#m817506b3c5" y="222.528197"/>
    </g>
   </g>
   <g id="PathCollection_40">
    <defs>
     <path d="M 0 3.535534 
C 0.937635 3.535534 1.836992 3.163008 2.5 2.5 
C 3.163008 1.836992 3.535534 0.937635 3.535534 0 
C 3.535534 -0.937635 3.163008 -1.836992 2.5 -2.5 
C 1.836992 -3.163008 0.937635 -3.535534 0 -3.535534 
C -0.937635 -3.535534 -1.836992 -3.163008 -2.5 -2.5 
C -3.163008 -1.836992 -3.535534 -0.937635 -3.535534 0 
C -3.535534 0.937635 -3.163008 1.836992 -2.5 2.5 
C -1.836992 3.163008 -0.937635 3.535534 0 3.535534 
z
" id="m4eb7d5b238"/>
    </defs>
    <g clip-path="url(#pf369475d4f)">
     <use style="fill:#008000;" x="362.958699" xlink:href="#m4eb7d5b238" y="163.861699"/>
    </g>
   </g>
   <g id="PathCollection_41">
    <g clip-path="url(#pf369475d4f)">
     <use style="fill:#008000;" x="369.114299" xlink:href="#m4eb7d5b238" y="152.96531"/>
    </g>
   </g>
   <g id="PathCollection_42">
    <g clip-path="url(#pf369475d4f)">
     <use style="fill:#008000;" x="375.269899" xlink:href="#m4eb7d5b238" y="193.828598"/>
    </g>
   </g>
   <g id="PathCollection_43">
    <g clip-path="url(#pf369475d4f)">
     <use style="fill:#008000;" x="381.425499" xlink:href="#m4eb7d5b238" y="176.726626"/>
    </g>
   </g>
   <g id="PathCollection_44">
    <g clip-path="url(#pf369475d4f)">
     <use style="fill:#008000;" x="387.581099" xlink:href="#m4eb7d5b238" y="179.834067"/>
    </g>
   </g>
   <g id="PathCollection_45">
    <g clip-path="url(#pf369475d4f)">
     <use style="fill:#008000;" x="393.736698" xlink:href="#m4eb7d5b238" y="154.735936"/>
    </g>
   </g>
   <g id="PathCollection_46">
    <g clip-path="url(#pf369475d4f)">
     <use style="fill:#008000;" x="399.892298" xlink:href="#m4eb7d5b238" y="165.875024"/>
    </g>
   </g>
   <g id="PathCollection_47">
    <g clip-path="url(#pf369475d4f)">
     <use style="fill:#008000;" x="406.047898" xlink:href="#m4eb7d5b238" y="181.323954"/>
    </g>
   </g>
   <g id="PathCollection_48">
    <g clip-path="url(#pf369475d4f)">
     <use style="fill:#008000;" x="412.203498" xlink:href="#m4eb7d5b238" y="206.29506"/>
    </g>
   </g>
   <g id="PathCollection_49">
    <g clip-path="url(#pf369475d4f)">
     <use style="fill:#008000;" x="418.359098" xlink:href="#m4eb7d5b238" y="168.10125"/>
    </g>
   </g>
   <g id="PathCollection_50">
    <g clip-path="url(#pf369475d4f)">
     <use style="fill:#008000;" x="424.514698" xlink:href="#m4eb7d5b238" y="165.574639"/>
    </g>
   </g>
   <g id="PathCollection_51">
    <g clip-path="url(#pf369475d4f)">
     <use style="fill:#008000;" x="430.670298" xlink:href="#m4eb7d5b238" y="200.156672"/>
    </g>
   </g>
   <g id="patch_8">
    <path clip-path="url(#pf369475d4f)" d="M 189.447727 322.2 
L 265.623276 322.2 
L 265.623276 199.955618 
L 189.447727 199.955618 
z
" style="fill:#0000ff;opacity:0.4;"/>
   </g>
   <g id="patch_9">
    <path clip-path="url(#pf369475d4f)" d="M 274.087226 322.2 
L 350.262774 322.2 
L 350.262774 194.075854 
L 274.087226 194.075854 
z
" style="fill:#ff7f0e;opacity:0.4;"/>
   </g>
   <g id="patch_10">
    <path clip-path="url(#pf369475d4f)" d="M 358.726724 322.2 
L 434.902273 322.2 
L 434.902273 179.09634 
L 358.726724 179.09634 
z
" style="fill:#008000;opacity:0.4;"/>
   </g>
   <g id="matplotlib.axis_3">
    <g id="xtick_7">
     <g id="line2d_61">
      <g>
       <use style="stroke:#000000;stroke-width:0.8;" x="227.535502" xlink:href="#m4991380c64" y="322.2"/>
      </g>
     </g>
    </g>
    <g id="xtick_8">
     <g id="line2d_62">
      <g>
       <use style="stroke:#000000;stroke-width:0.8;" x="312.175" xlink:href="#m4991380c64" y="322.2"/>
      </g>
     </g>
    </g>
    <g id="xtick_9">
     <g id="line2d_63">
      <g>
       <use style="stroke:#000000;stroke-width:0.8;" x="396.814498" xlink:href="#m4991380c64" y="322.2"/>
      </g>
     </g>
    </g>
   </g>
   <g id="matplotlib.axis_4">
    <g id="ytick_7">
     <g id="line2d_64">
      <g>
       <use style="stroke:#000000;stroke-width:0.8;" x="177.175" xlink:href="#m436eaa71be" y="322.2"/>
      </g>
     </g>
     <g id="text_15">
      <!-- 0.0 -->
      <g transform="translate(134.834722 330.642708)scale(0.222222 -0.222222)">
       <use xlink:href="#DejaVuSans-48"/>
       <use x="63.623047" xlink:href="#DejaVuSans-46"/>
       <use x="95.410156" xlink:href="#DejaVuSans-48"/>
      </g>
     </g>
    </g>
    <g id="ytick_8">
     <g id="line2d_65">
      <g>
       <use style="stroke:#000000;stroke-width:0.8;" x="177.175" xlink:href="#m436eaa71be" y="232.2"/>
      </g>
     </g>
     <g id="text_16">
      <!-- 0.5 -->
      <defs>
       <path d="M 10.796875 72.90625 
L 49.515625 72.90625 
L 49.515625 64.59375 
L 19.828125 64.59375 
L 19.828125 46.734375 
Q 21.96875 47.46875 24.109375 47.828125 
Q 26.265625 48.1875 28.421875 48.1875 
Q 40.625 48.1875 47.75 41.5 
Q 54.890625 34.8125 54.890625 23.390625 
Q 54.890625 11.625 47.5625 5.09375 
Q 40.234375 -1.421875 26.90625 -1.421875 
Q 22.3125 -1.421875 17.546875 -0.640625 
Q 12.796875 0.140625 7.71875 1.703125 
L 7.71875 11.625 
Q 12.109375 9.234375 16.796875 8.0625 
Q 21.484375 6.890625 26.703125 6.890625 
Q 35.15625 6.890625 40.078125 11.328125 
Q 45.015625 15.765625 45.015625 23.390625 
Q 45.015625 31 40.078125 35.4375 
Q 35.15625 39.890625 26.703125 39.890625 
Q 22.75 39.890625 18.8125 39.015625 
Q 14.890625 38.140625 10.796875 36.28125 
z
" id="DejaVuSans-53"/>
      </defs>
      <g transform="translate(134.834722 240.642708)scale(0.222222 -0.222222)">
       <use xlink:href="#DejaVuSans-48"/>
       <use x="63.623047" xlink:href="#DejaVuSans-46"/>
       <use x="95.410156" xlink:href="#DejaVuSans-53"/>
      </g>
     </g>
    </g>
    <g id="ytick_9">
     <g id="line2d_66">
      <g>
       <use style="stroke:#000000;stroke-width:0.8;" x="177.175" xlink:href="#m436eaa71be" y="142.2"/>
      </g>
     </g>
     <g id="text_17">
      <!-- 1.0 -->
      <g transform="translate(134.834722 150.642708)scale(0.222222 -0.222222)">
       <use xlink:href="#DejaVuSans-49"/>
       <use x="63.623047" xlink:href="#DejaVuSans-46"/>
       <use x="95.410156" xlink:href="#DejaVuSans-48"/>
      </g>
     </g>
    </g>
   </g>
   <g id="LineCollection_16">
    <path clip-path="url(#pf369475d4f)" d="M 210.607602 88.2 
L 413.742398 88.2 
" style="fill:none;stroke:#000000;stroke-width:1.5;"/>
   </g>
   <g id="LineCollection_17">
    <path clip-path="url(#pf369475d4f)" d="M 320.63895 124.2 
L 405.278448 124.2 
" style="fill:none;stroke:#000000;stroke-width:1.5;"/>
   </g>
   <g id="patch_11">
    <path d="M 177.175 322.2 
L 177.175 142.2 
" style="fill:none;stroke:#000000;stroke-linecap:square;stroke-linejoin:miter;stroke-width:0.8;"/>
   </g>
   <g id="patch_12">
    <path d="M 177.175 322.2 
L 447.175 322.2 
" style="fill:none;stroke:#000000;stroke-linecap:square;stroke-linejoin:miter;stroke-width:0.8;"/>
   </g>
   <g id="text_18">
    <!-- 0.679 -->
    <defs>
     <path d="M 46 36.53125 
Q 46 50.203125 43.4375 55.78125 
Q 40.875 61.375 34.8125 61.375 
Q 28.765625 61.375 26.171875 55.78125 
Q 23.578125 50.203125 23.578125 36.53125 
Q 23.578125 22.703125 26.171875 17.03125 
Q 28.765625 11.375 34.8125 11.375 
Q 40.828125 11.375 43.40625 17.03125 
Q 46 22.703125 46 36.53125 
z
M 64.796875 36.375 
Q 64.796875 18.265625 56.984375 8.421875 
Q 49.171875 -1.421875 34.8125 -1.421875 
Q 20.40625 -1.421875 12.59375 8.421875 
Q 4.78125 18.265625 4.78125 36.375 
Q 4.78125 54.546875 12.59375 64.375 
Q 20.40625 74.21875 34.8125 74.21875 
Q 49.171875 74.21875 56.984375 64.375 
Q 64.796875 54.546875 64.796875 36.375 
z
" id="DejaVuSans-Bold-48"/>
     <path d="M 10.203125 18.890625 
L 27.78125 18.890625 
L 27.78125 0 
L 10.203125 0 
z
" id="DejaVuSans-Bold-46"/>
     <path d="M 36.1875 35.984375 
Q 31.25 35.984375 28.78125 32.78125 
Q 26.3125 29.59375 26.3125 23.1875 
Q 26.3125 16.796875 28.78125 13.59375 
Q 31.25 10.40625 36.1875 10.40625 
Q 41.15625 10.40625 43.625 13.59375 
Q 46.09375 16.796875 46.09375 23.1875 
Q 46.09375 29.59375 43.625 32.78125 
Q 41.15625 35.984375 36.1875 35.984375 
z
M 59.421875 71 
L 59.421875 57.515625 
Q 54.78125 59.71875 50.671875 60.765625 
Q 46.578125 61.8125 42.671875 61.8125 
Q 34.28125 61.8125 29.59375 57.140625 
Q 24.90625 52.484375 24.125 43.3125 
Q 27.34375 45.703125 31.09375 46.890625 
Q 34.859375 48.09375 39.3125 48.09375 
Q 50.484375 48.09375 57.34375 41.546875 
Q 64.203125 35.015625 64.203125 24.421875 
Q 64.203125 12.703125 56.53125 5.640625 
Q 48.875 -1.421875 35.984375 -1.421875 
Q 21.78125 -1.421875 13.984375 8.171875 
Q 6.203125 17.78125 6.203125 35.40625 
Q 6.203125 53.46875 15.3125 63.796875 
Q 24.421875 74.125 40.28125 74.125 
Q 45.3125 74.125 50.046875 73.34375 
Q 54.78125 72.5625 59.421875 71 
z
" id="DejaVuSans-Bold-54"/>
     <path d="M 6.6875 72.90625 
L 61.625 72.90625 
L 61.625 62.3125 
L 33.203125 0 
L 14.890625 0 
L 41.796875 59.078125 
L 6.6875 59.078125 
z
" id="DejaVuSans-Bold-55"/>
     <path d="M 10.015625 1.609375 
L 10.015625 15.09375 
Q 14.5 12.984375 18.59375 11.9375 
Q 22.703125 10.890625 26.703125 10.890625 
Q 35.109375 10.890625 39.796875 15.546875 
Q 44.484375 20.21875 45.3125 29.390625 
Q 42 26.953125 38.234375 25.734375 
Q 34.46875 24.515625 30.078125 24.515625 
Q 18.890625 24.515625 12.03125 31.03125 
Q 5.171875 37.546875 5.171875 48.1875 
Q 5.171875 59.96875 12.8125 67.046875 
Q 20.453125 74.125 33.296875 74.125 
Q 47.5625 74.125 55.375 64.5 
Q 63.1875 54.890625 63.1875 37.3125 
Q 63.1875 19.234375 54.046875 8.90625 
Q 44.921875 -1.421875 29 -1.421875 
Q 23.875 -1.421875 19.1875 -0.65625 
Q 14.5 0.09375 10.015625 1.609375 
z
M 33.203125 36.71875 
Q 38.140625 36.71875 40.625 39.90625 
Q 43.109375 43.109375 43.109375 49.515625 
Q 43.109375 55.859375 40.625 59.078125 
Q 38.140625 62.3125 33.203125 62.3125 
Q 28.265625 62.3125 25.78125 59.078125 
Q 23.296875 55.859375 23.296875 49.515625 
Q 23.296875 43.109375 25.78125 39.90625 
Q 28.265625 36.71875 33.203125 36.71875 
z
" id="DejaVuSans-Bold-57"/>
    </defs>
    <g style="fill:#0000ff;" transform="translate(192.391404 308.578472)scale(0.222222 -0.222222)">
     <use xlink:href="#DejaVuSans-Bold-48"/>
     <use x="69.580078" xlink:href="#DejaVuSans-Bold-46"/>
     <use x="107.568359" xlink:href="#DejaVuSans-Bold-54"/>
     <use x="177.148438" xlink:href="#DejaVuSans-Bold-55"/>
     <use x="246.728516" xlink:href="#DejaVuSans-Bold-57"/>
    </g>
   </g>
   <g id="text_19">
    <!-- $P_{real}$ -->
    <defs>
     <path d="M 44.578125 46.390625 
Q 43.21875 47.125 41.453125 47.515625 
Q 39.703125 47.90625 37.703125 47.90625 
Q 30.515625 47.90625 25.140625 42.453125 
Q 19.78125 37.015625 18.015625 27.875 
L 12.5 0 
L 3.515625 0 
L 14.203125 54.6875 
L 23.1875 54.6875 
L 21.484375 46.1875 
Q 25.046875 50.921875 30 53.453125 
Q 34.96875 56 40.578125 56 
Q 42.046875 56 43.453125 55.828125 
Q 44.875 55.671875 46.296875 55.28125 
z
" id="DejaVuSans-Oblique-114"/>
     <path d="M 48.09375 32.234375 
Q 48.25 33.015625 48.3125 33.84375 
Q 48.390625 34.671875 48.390625 35.5 
Q 48.390625 41.453125 44.890625 44.921875 
Q 41.40625 48.390625 35.40625 48.390625 
Q 28.71875 48.390625 23.578125 44.15625 
Q 18.453125 39.9375 15.828125 32.171875 
z
M 55.90625 25.203125 
L 14.109375 25.203125 
Q 13.8125 23.34375 13.71875 22.265625 
Q 13.625 21.1875 13.625 20.40625 
Q 13.625 13.625 17.796875 9.90625 
Q 21.96875 6.203125 29.59375 6.203125 
Q 35.453125 6.203125 40.671875 7.515625 
Q 45.90625 8.84375 50.390625 11.375 
L 48.6875 2.484375 
Q 43.84375 0.53125 38.6875 -0.4375 
Q 33.546875 -1.421875 28.21875 -1.421875 
Q 16.84375 -1.421875 10.71875 4.015625 
Q 4.59375 9.46875 4.59375 19.484375 
Q 4.59375 28.03125 7.640625 35.375 
Q 10.6875 42.71875 16.609375 48.484375 
Q 20.40625 52.09375 25.65625 54.046875 
Q 30.90625 56 36.8125 56 
Q 46.09375 56 51.578125 50.4375 
Q 57.078125 44.875 57.078125 35.5 
Q 57.078125 33.25 56.78125 30.6875 
Q 56.5 28.125 55.90625 25.203125 
z
" id="DejaVuSans-Oblique-101"/>
     <path d="M 53.71875 31.203125 
L 47.609375 0 
L 38.625 0 
L 40.28125 8.296875 
Q 36.328125 3.421875 31.265625 1 
Q 26.21875 -1.421875 20.015625 -1.421875 
Q 13.03125 -1.421875 8.5625 2.84375 
Q 4.109375 7.125 4.109375 13.8125 
Q 4.109375 23.390625 11.75 28.953125 
Q 19.390625 34.515625 32.8125 34.515625 
L 45.3125 34.515625 
L 45.796875 36.921875 
Q 45.90625 37.3125 45.953125 37.765625 
Q 46 38.234375 46 39.203125 
Q 46 43.5625 42.453125 45.96875 
Q 38.921875 48.390625 32.515625 48.390625 
Q 28.125 48.390625 23.5 47.265625 
Q 18.890625 46.140625 14.015625 43.890625 
L 15.578125 52.203125 
Q 20.65625 54.109375 25.515625 55.046875 
Q 30.375 56 34.90625 56 
Q 44.578125 56 49.625 51.796875 
Q 54.6875 47.609375 54.6875 39.59375 
Q 54.6875 37.984375 54.4375 35.8125 
Q 54.203125 33.640625 53.71875 31.203125 
z
M 44 27.484375 
L 35.015625 27.484375 
Q 23.96875 27.484375 18.671875 24.53125 
Q 13.375 21.578125 13.375 15.375 
Q 13.375 11.078125 16.078125 8.640625 
Q 18.796875 6.203125 23.578125 6.203125 
Q 30.90625 6.203125 36.375 11.453125 
Q 41.84375 16.703125 43.609375 25.484375 
z
" id="DejaVuSans-Oblique-97"/>
     <path d="M 18.3125 75.984375 
L 27.296875 75.984375 
L 12.5 0 
L 3.515625 0 
z
" id="DejaVuSans-Oblique-108"/>
    </defs>
    <g style="fill:#0000ff;" transform="translate(197.835502 353.995313)scale(0.3 -0.3)">
     <use transform="translate(0 0.09375)" xlink:href="#DejaVuSans-Oblique-80"/>
     <use transform="translate(60.302734 -16.3125)scale(0.7)" xlink:href="#DejaVuSans-Oblique-114"/>
     <use transform="translate(89.082031 -16.3125)scale(0.7)" xlink:href="#DejaVuSans-Oblique-101"/>
     <use transform="translate(132.148438 -16.3125)scale(0.7)" xlink:href="#DejaVuSans-Oblique-97"/>
     <use transform="translate(175.043945 -16.3125)scale(0.7)" xlink:href="#DejaVuSans-Oblique-108"/>
    </g>
   </g>
   <g id="text_20">
    <!-- 0.712 -->
    <defs>
     <path d="M 11.71875 12.984375 
L 28.328125 12.984375 
L 28.328125 60.109375 
L 11.28125 56.59375 
L 11.28125 69.390625 
L 28.21875 72.90625 
L 46.09375 72.90625 
L 46.09375 12.984375 
L 62.703125 12.984375 
L 62.703125 0 
L 11.71875 0 
z
" id="DejaVuSans-Bold-49"/>
     <path d="M 28.8125 13.8125 
L 60.890625 13.8125 
L 60.890625 0 
L 7.90625 0 
L 7.90625 13.8125 
L 34.515625 37.3125 
Q 38.09375 40.53125 39.796875 43.609375 
Q 41.5 46.6875 41.5 50 
Q 41.5 55.125 38.0625 58.25 
Q 34.625 61.375 28.90625 61.375 
Q 24.515625 61.375 19.28125 59.5 
Q 14.0625 57.625 8.109375 53.90625 
L 8.109375 69.921875 
Q 14.453125 72.015625 20.65625 73.109375 
Q 26.859375 74.21875 32.8125 74.21875 
Q 45.90625 74.21875 53.15625 68.453125 
Q 60.40625 62.703125 60.40625 52.390625 
Q 60.40625 46.4375 57.328125 41.28125 
Q 54.25 36.140625 44.390625 27.484375 
z
" id="DejaVuSans-Bold-50"/>
    </defs>
    <g style="fill:#ff7f0e;" transform="translate(277.030903 308.578472)scale(0.222222 -0.222222)">
     <use xlink:href="#DejaVuSans-Bold-48"/>
     <use x="69.580078" xlink:href="#DejaVuSans-Bold-46"/>
     <use x="107.568359" xlink:href="#DejaVuSans-Bold-55"/>
     <use x="177.148438" xlink:href="#DejaVuSans-Bold-49"/>
     <use x="246.728516" xlink:href="#DejaVuSans-Bold-50"/>
    </g>
   </g>
   <g id="text_21">
    <!-- $\hat{P}_{leaky}$ -->
    <defs>
     <path d="M 18.3125 75.984375 
L 27.296875 75.984375 
L 18.703125 31.6875 
L 49.515625 54.6875 
L 61.1875 54.6875 
L 26.8125 28.515625 
L 51.90625 0 
L 41.015625 0 
L 17.671875 26.703125 
L 12.5 0 
L 3.515625 0 
z
" id="DejaVuSans-Oblique-107"/>
     <path d="M 24.8125 -5.078125 
Q 18.5625 -15.578125 14.625 -18.1875 
Q 10.6875 -20.796875 4.59375 -20.796875 
L -2.484375 -20.796875 
L -0.984375 -13.28125 
L 4.203125 -13.28125 
Q 7.953125 -13.28125 10.59375 -11.234375 
Q 13.234375 -9.1875 16.5 -3.21875 
L 19.28125 2 
L 7.171875 54.6875 
L 16.703125 54.6875 
L 25.78125 12.796875 
L 50.875 54.6875 
L 60.296875 54.6875 
z
" id="DejaVuSans-Oblique-121"/>
    </defs>
    <g style="fill:#ff7f0e;" transform="translate(274.375 364.2)scale(0.3 -0.3)">
     <use transform="translate(62.653809 30.015625)" xlink:href="#DejaVuSans-770"/>
     <use transform="translate(0 0.609375)" xlink:href="#DejaVuSans-Oblique-80"/>
     <use transform="translate(61.259766 -15.796875)scale(0.7)" xlink:href="#DejaVuSans-Oblique-108"/>
     <use transform="translate(80.708008 -15.796875)scale(0.7)" xlink:href="#DejaVuSans-Oblique-101"/>
     <use transform="translate(123.774414 -15.796875)scale(0.7)" xlink:href="#DejaVuSans-Oblique-97"/>
     <use transform="translate(166.669922 -15.796875)scale(0.7)" xlink:href="#DejaVuSans-Oblique-107"/>
     <use transform="translate(207.207031 -15.796875)scale(0.7)" xlink:href="#DejaVuSans-Oblique-121"/>
    </g>
   </g>
   <g id="text_22">
    <!-- 0.795 -->
    <defs>
     <path d="M 10.59375 72.90625 
L 57.328125 72.90625 
L 57.328125 59.078125 
L 25.59375 59.078125 
L 25.59375 47.796875 
Q 27.734375 48.390625 29.90625 48.703125 
Q 32.078125 49.03125 34.421875 49.03125 
Q 47.75 49.03125 55.171875 42.359375 
Q 62.59375 35.6875 62.59375 23.78125 
Q 62.59375 11.96875 54.515625 5.265625 
Q 46.4375 -1.421875 32.078125 -1.421875 
Q 25.875 -1.421875 19.796875 -0.21875 
Q 13.71875 0.984375 7.71875 3.421875 
L 7.71875 18.21875 
Q 13.671875 14.796875 19.015625 13.078125 
Q 24.359375 11.375 29.109375 11.375 
Q 35.9375 11.375 39.859375 14.71875 
Q 43.796875 18.0625 43.796875 23.78125 
Q 43.796875 29.546875 39.859375 32.859375 
Q 35.9375 36.1875 29.109375 36.1875 
Q 25.046875 36.1875 20.453125 35.125 
Q 15.875 34.078125 10.59375 31.890625 
z
" id="DejaVuSans-Bold-53"/>
    </defs>
    <g style="fill:#008000;" transform="translate(361.670401 308.578472)scale(0.222222 -0.222222)">
     <use xlink:href="#DejaVuSans-Bold-48"/>
     <use x="69.580078" xlink:href="#DejaVuSans-Bold-46"/>
     <use x="107.568359" xlink:href="#DejaVuSans-Bold-55"/>
     <use x="177.148438" xlink:href="#DejaVuSans-Bold-57"/>
     <use x="246.728516" xlink:href="#DejaVuSans-Bold-53"/>
    </g>
   </g>
   <g id="text_23">
    <!-- $\hat{P}_{mean}$ -->
    <defs>
     <path d="M 89.796875 33.015625 
L 83.40625 0 
L 74.421875 0 
L 80.71875 32.71875 
Q 81.109375 34.8125 81.296875 36.328125 
Q 81.5 37.84375 81.5 38.921875 
Q 81.5 43.3125 79.046875 45.75 
Q 76.609375 48.1875 72.21875 48.1875 
Q 65.671875 48.1875 60.546875 43.28125 
Q 55.421875 38.375 53.90625 30.515625 
L 47.90625 0 
L 38.921875 0 
L 45.3125 32.71875 
Q 45.703125 34.515625 45.890625 36.046875 
Q 46.09375 37.59375 46.09375 38.8125 
Q 46.09375 43.265625 43.65625 45.71875 
Q 41.21875 48.1875 36.921875 48.1875 
Q 30.28125 48.1875 25.140625 43.28125 
Q 20.015625 38.375 18.5 30.515625 
L 12.5 0 
L 3.515625 0 
L 14.203125 54.6875 
L 23.1875 54.6875 
L 21.484375 46.1875 
Q 25.140625 50.984375 30.046875 53.484375 
Q 34.96875 56 40.578125 56 
Q 46.53125 56 50.359375 52.875 
Q 54.203125 49.75 54.984375 44.1875 
Q 59.078125 49.953125 64.46875 52.96875 
Q 69.875 56 75.875 56 
Q 82.90625 56 86.734375 51.953125 
Q 90.578125 47.90625 90.578125 40.484375 
Q 90.578125 38.875 90.375 36.9375 
Q 90.1875 35.015625 89.796875 33.015625 
z
" id="DejaVuSans-Oblique-109"/>
     <path d="M 55.71875 33.015625 
L 49.3125 0 
L 40.28125 0 
L 46.6875 32.671875 
Q 47.125 34.96875 47.359375 36.71875 
Q 47.609375 38.484375 47.609375 39.5 
Q 47.609375 43.609375 45.015625 45.890625 
Q 42.4375 48.1875 37.796875 48.1875 
Q 30.5625 48.1875 25.34375 43.375 
Q 20.125 38.578125 18.5 30.328125 
L 12.5 0 
L 3.515625 0 
L 14.109375 54.6875 
L 23.09375 54.6875 
L 21.296875 46.09375 
Q 25.046875 50.828125 30.3125 53.40625 
Q 35.59375 56 41.40625 56 
Q 48.640625 56 52.609375 52.09375 
Q 56.59375 48.1875 56.59375 41.109375 
Q 56.59375 39.359375 56.375 37.359375 
Q 56.15625 35.359375 55.71875 33.015625 
z
" id="DejaVuSans-Oblique-110"/>
    </defs>
    <g style="fill:#008000;" transform="translate(357.364498 363.360938)scale(0.3 -0.3)">
     <use transform="translate(62.653809 30.015625)" xlink:href="#DejaVuSans-770"/>
     <use transform="translate(0 0.609375)" xlink:href="#DejaVuSans-Oblique-80"/>
     <use transform="translate(61.259766 -15.796875)scale(0.7)" xlink:href="#DejaVuSans-Oblique-109"/>
     <use transform="translate(129.448242 -15.796875)scale(0.7)" xlink:href="#DejaVuSans-Oblique-101"/>
     <use transform="translate(172.514648 -15.796875)scale(0.7)" xlink:href="#DejaVuSans-Oblique-97"/>
     <use transform="translate(215.410156 -15.796875)scale(0.7)" xlink:href="#DejaVuSans-Oblique-110"/>
    </g>
   </g>
   <g id="text_24">
    <!-- ** -->
    <defs>
     <path d="M 47.015625 60.890625 
L 29.5 51.421875 
L 47.015625 41.890625 
L 44.1875 37.109375 
L 27.78125 47.015625 
L 27.78125 28.609375 
L 22.21875 28.609375 
L 22.21875 47.015625 
L 5.8125 37.109375 
L 2.984375 41.890625 
L 20.515625 51.421875 
L 2.984375 60.890625 
L 5.8125 65.71875 
L 22.21875 55.8125 
L 22.21875 74.21875 
L 27.78125 74.21875 
L 27.78125 55.8125 
L 44.1875 65.71875 
z
" id="DejaVuSans-42"/>
    </defs>
    <g transform="translate(297.889286 88.2)scale(0.285714 -0.285714)">
     <use xlink:href="#DejaVuSans-42"/>
     <use x="50" xlink:href="#DejaVuSans-42"/>
    </g>
   </g>
   <g id="text_25">
    <!-- ** -->
    <g transform="translate(348.672985 124.2)scale(0.285714 -0.285714)">
     <use xlink:href="#DejaVuSans-42"/>
     <use x="50" xlink:href="#DejaVuSans-42"/>
    </g>
   </g>
   <g id="text_26">
    <!-- r -->
    <g transform="translate(305.323438 46.2)scale(0.333333 -0.333333)">
     <use xlink:href="#DejaVuSans-114"/>
    </g>
   </g>
  </g>
  <g id="axes_3">
   <g id="patch_13">
    <path d="M 774.1 896.3 
L 1044.1 896.3 
L 1044.1 626.3 
L 774.1 626.3 
z
" style="fill:#ffffff;"/>
   </g>
   <g id="PathCollection_52">
    <g clip-path="url(#pae983f1536)">
     <use style="fill:#0000ff;" x="790.604702" xlink:href="#m536b5edcb9" y="846.727394"/>
    </g>
   </g>
   <g id="PathCollection_53">
    <g clip-path="url(#pae983f1536)">
     <use style="fill:#0000ff;" x="796.760302" xlink:href="#m536b5edcb9" y="860.360439"/>
    </g>
   </g>
   <g id="PathCollection_54">
    <g clip-path="url(#pae983f1536)">
     <use style="fill:#0000ff;" x="802.915902" xlink:href="#m536b5edcb9" y="850.52055"/>
    </g>
   </g>
   <g id="PathCollection_55">
    <g clip-path="url(#pae983f1536)">
     <use style="fill:#0000ff;" x="809.071502" xlink:href="#m536b5edcb9" y="849.34197"/>
    </g>
   </g>
   <g id="PathCollection_56">
    <g clip-path="url(#pae983f1536)">
     <use style="fill:#0000ff;" x="815.227102" xlink:href="#m536b5edcb9" y="865.731481"/>
    </g>
   </g>
   <g id="PathCollection_57">
    <g clip-path="url(#pae983f1536)">
     <use style="fill:#0000ff;" x="821.382702" xlink:href="#m536b5edcb9" y="857.251766"/>
    </g>
   </g>
   <g id="PathCollection_58">
    <g clip-path="url(#pae983f1536)">
     <use style="fill:#0000ff;" x="827.538302" xlink:href="#m536b5edcb9" y="852.519207"/>
    </g>
   </g>
   <g id="PathCollection_59">
    <g clip-path="url(#pae983f1536)">
     <use style="fill:#0000ff;" x="833.693901" xlink:href="#m536b5edcb9" y="863.27025"/>
    </g>
   </g>
   <g id="PathCollection_60">
    <g clip-path="url(#pae983f1536)">
     <use style="fill:#0000ff;" x="839.849501" xlink:href="#m536b5edcb9" y="861.504543"/>
    </g>
   </g>
   <g id="PathCollection_61">
    <g clip-path="url(#pae983f1536)">
     <use style="fill:#0000ff;" x="846.005101" xlink:href="#m536b5edcb9" y="853.839419"/>
    </g>
   </g>
   <g id="PathCollection_62">
    <g clip-path="url(#pae983f1536)">
     <use style="fill:#0000ff;" x="852.160701" xlink:href="#m536b5edcb9" y="857.4612"/>
    </g>
   </g>
   <g id="PathCollection_63">
    <g clip-path="url(#pae983f1536)">
     <use style="fill:#0000ff;" x="858.316301" xlink:href="#m536b5edcb9" y="885.975571"/>
    </g>
   </g>
   <g id="PathCollection_64">
    <g clip-path="url(#pae983f1536)">
     <use style="fill:#ff7f0e;" x="875.244201" xlink:href="#m817506b3c5" y="786.954727"/>
    </g>
   </g>
   <g id="PathCollection_65">
    <g clip-path="url(#pae983f1536)">
     <use style="fill:#ff7f0e;" x="881.399801" xlink:href="#m817506b3c5" y="814.220674"/>
    </g>
   </g>
   <g id="PathCollection_66">
    <g clip-path="url(#pae983f1536)">
     <use style="fill:#ff7f0e;" x="887.5554" xlink:href="#m817506b3c5" y="791.670539"/>
    </g>
   </g>
   <g id="PathCollection_67">
    <g clip-path="url(#pae983f1536)">
     <use style="fill:#ff7f0e;" x="893.711" xlink:href="#m817506b3c5" y="783.029778"/>
    </g>
   </g>
   <g id="PathCollection_68">
    <g clip-path="url(#pae983f1536)">
     <use style="fill:#ff7f0e;" x="899.8666" xlink:href="#m817506b3c5" y="823.862148"/>
    </g>
   </g>
   <g id="PathCollection_69">
    <g clip-path="url(#pae983f1536)">
     <use style="fill:#ff7f0e;" x="906.0222" xlink:href="#m817506b3c5" y="791.146329"/>
    </g>
   </g>
   <g id="PathCollection_70">
    <g clip-path="url(#pae983f1536)">
     <use style="fill:#ff7f0e;" x="912.1778" xlink:href="#m817506b3c5" y="790.772286"/>
    </g>
   </g>
   <g id="PathCollection_71">
    <g clip-path="url(#pae983f1536)">
     <use style="fill:#ff7f0e;" x="918.3334" xlink:href="#m817506b3c5" y="829.226105"/>
    </g>
   </g>
   <g id="PathCollection_72">
    <g clip-path="url(#pae983f1536)">
     <use style="fill:#ff7f0e;" x="924.489" xlink:href="#m817506b3c5" y="817.58852"/>
    </g>
   </g>
   <g id="PathCollection_73">
    <g clip-path="url(#pae983f1536)">
     <use style="fill:#ff7f0e;" x="930.6446" xlink:href="#m817506b3c5" y="791.777182"/>
    </g>
   </g>
   <g id="PathCollection_74">
    <g clip-path="url(#pae983f1536)">
     <use style="fill:#ff7f0e;" x="936.800199" xlink:href="#m817506b3c5" y="820.408268"/>
    </g>
   </g>
   <g id="PathCollection_75">
    <g clip-path="url(#pae983f1536)">
     <use style="fill:#ff7f0e;" x="942.955799" xlink:href="#m817506b3c5" y="869.709526"/>
    </g>
   </g>
   <g id="PathCollection_76">
    <g clip-path="url(#pae983f1536)">
     <use style="fill:#008000;" x="959.883699" xlink:href="#m4eb7d5b238" y="786.040099"/>
    </g>
   </g>
   <g id="PathCollection_77">
    <g clip-path="url(#pae983f1536)">
     <use style="fill:#008000;" x="966.039299" xlink:href="#m4eb7d5b238" y="812.614653"/>
    </g>
   </g>
   <g id="PathCollection_78">
    <g clip-path="url(#pae983f1536)">
     <use style="fill:#008000;" x="972.194899" xlink:href="#m4eb7d5b238" y="790.575293"/>
    </g>
   </g>
   <g id="PathCollection_79">
    <g clip-path="url(#pae983f1536)">
     <use style="fill:#008000;" x="978.350499" xlink:href="#m4eb7d5b238" y="781.911808"/>
    </g>
   </g>
   <g id="PathCollection_80">
    <g clip-path="url(#pae983f1536)">
     <use style="fill:#008000;" x="984.506099" xlink:href="#m4eb7d5b238" y="822.254562"/>
    </g>
   </g>
   <g id="PathCollection_81">
    <g clip-path="url(#pae983f1536)">
     <use style="fill:#008000;" x="990.661698" xlink:href="#m4eb7d5b238" y="789.598949"/>
    </g>
   </g>
   <g id="PathCollection_82">
    <g clip-path="url(#pae983f1536)">
     <use style="fill:#008000;" x="996.817298" xlink:href="#m4eb7d5b238" y="789.752004"/>
    </g>
   </g>
   <g id="PathCollection_83">
    <g clip-path="url(#pae983f1536)">
     <use style="fill:#008000;" x="1002.972898" xlink:href="#m4eb7d5b238" y="827.087722"/>
    </g>
   </g>
   <g id="PathCollection_84">
    <g clip-path="url(#pae983f1536)">
     <use style="fill:#008000;" x="1009.128498" xlink:href="#m4eb7d5b238" y="816.372862"/>
    </g>
   </g>
   <g id="PathCollection_85">
    <g clip-path="url(#pae983f1536)">
     <use style="fill:#008000;" x="1015.284098" xlink:href="#m4eb7d5b238" y="791.01204"/>
    </g>
   </g>
   <g id="PathCollection_86">
    <g clip-path="url(#pae983f1536)">
     <use style="fill:#008000;" x="1021.439698" xlink:href="#m4eb7d5b238" y="818.559858"/>
    </g>
   </g>
   <g id="PathCollection_87">
    <g clip-path="url(#pae983f1536)">
     <use style="fill:#008000;" x="1027.595298" xlink:href="#m4eb7d5b238" y="867.717981"/>
    </g>
   </g>
   <g id="patch_14">
    <path clip-path="url(#pae983f1536)" d="M 786.372727 896.3 
L 862.548276 896.3 
L 862.548276 879.210587 
L 786.372727 879.210587 
z
" style="fill:#0000ff;opacity:0.4;"/>
   </g>
   <g id="patch_15">
    <path clip-path="url(#pae983f1536)" d="M 871.012226 896.3 
L 947.187774 896.3 
L 947.187774 843.343569 
L 871.012226 843.343569 
z
" style="fill:#ff7f0e;opacity:0.4;"/>
   </g>
   <g id="patch_16">
    <path clip-path="url(#pae983f1536)" d="M 955.651724 896.3 
L 1031.827273 896.3 
L 1031.827273 842.041598 
L 955.651724 842.041598 
z
" style="fill:#008000;opacity:0.4;"/>
   </g>
   <g id="matplotlib.axis_5">
    <g id="xtick_10">
     <g id="line2d_67">
      <g>
       <use style="stroke:#000000;stroke-width:0.8;" x="824.460502" xlink:href="#m4991380c64" y="896.3"/>
      </g>
     </g>
    </g>
    <g id="xtick_11">
     <g id="line2d_68">
      <g>
       <use style="stroke:#000000;stroke-width:0.8;" x="909.1" xlink:href="#m4991380c64" y="896.3"/>
      </g>
     </g>
    </g>
    <g id="xtick_12">
     <g id="line2d_69">
      <g>
       <use style="stroke:#000000;stroke-width:0.8;" x="993.739498" xlink:href="#m4991380c64" y="896.3"/>
      </g>
     </g>
    </g>
   </g>
   <g id="matplotlib.axis_6">
    <g id="ytick_10">
     <g id="line2d_70">
      <g>
       <use style="stroke:#000000;stroke-width:0.8;" x="774.1" xlink:href="#m436eaa71be" y="896.3"/>
      </g>
     </g>
     <g id="text_27">
      <!-- 0 -->
      <g transform="translate(752.961111 904.742708)scale(0.222222 -0.222222)">
       <use xlink:href="#DejaVuSans-48"/>
      </g>
     </g>
    </g>
    <g id="ytick_11">
     <g id="line2d_71">
      <g>
       <use style="stroke:#000000;stroke-width:0.8;" x="774.1" xlink:href="#m436eaa71be" y="836.3"/>
      </g>
     </g>
     <g id="text_28">
      <!-- 1 -->
      <g transform="translate(752.961111 844.742708)scale(0.222222 -0.222222)">
       <use xlink:href="#DejaVuSans-49"/>
      </g>
     </g>
    </g>
    <g id="ytick_12">
     <g id="line2d_72">
      <g>
       <use style="stroke:#000000;stroke-width:0.8;" x="774.1" xlink:href="#m436eaa71be" y="776.3"/>
      </g>
     </g>
     <g id="text_29">
      <!-- 2 -->
      <g transform="translate(752.961111 784.742708)scale(0.222222 -0.222222)">
       <use xlink:href="#DejaVuSans-50"/>
      </g>
     </g>
    </g>
    <g id="ytick_13">
     <g id="line2d_73">
      <g>
       <use style="stroke:#000000;stroke-width:0.8;" x="774.1" xlink:href="#m436eaa71be" y="716.3"/>
      </g>
     </g>
     <g id="text_30">
      <!-- 3 -->
      <defs>
       <path d="M 40.578125 39.3125 
Q 47.65625 37.796875 51.625 33 
Q 55.609375 28.21875 55.609375 21.1875 
Q 55.609375 10.40625 48.1875 4.484375 
Q 40.765625 -1.421875 27.09375 -1.421875 
Q 22.515625 -1.421875 17.65625 -0.515625 
Q 12.796875 0.390625 7.625 2.203125 
L 7.625 11.71875 
Q 11.71875 9.328125 16.59375 8.109375 
Q 21.484375 6.890625 26.8125 6.890625 
Q 36.078125 6.890625 40.9375 10.546875 
Q 45.796875 14.203125 45.796875 21.1875 
Q 45.796875 27.640625 41.28125 31.265625 
Q 36.765625 34.90625 28.71875 34.90625 
L 20.21875 34.90625 
L 20.21875 43.015625 
L 29.109375 43.015625 
Q 36.375 43.015625 40.234375 45.921875 
Q 44.09375 48.828125 44.09375 54.296875 
Q 44.09375 59.90625 40.109375 62.90625 
Q 36.140625 65.921875 28.71875 65.921875 
Q 24.65625 65.921875 20.015625 65.03125 
Q 15.375 64.15625 9.8125 62.3125 
L 9.8125 71.09375 
Q 15.4375 72.65625 20.34375 73.4375 
Q 25.25 74.21875 29.59375 74.21875 
Q 40.828125 74.21875 47.359375 69.109375 
Q 53.90625 64.015625 53.90625 55.328125 
Q 53.90625 49.265625 50.4375 45.09375 
Q 46.96875 40.921875 40.578125 39.3125 
z
" id="DejaVuSans-51"/>
      </defs>
      <g transform="translate(752.961111 724.742708)scale(0.222222 -0.222222)">
       <use xlink:href="#DejaVuSans-51"/>
      </g>
     </g>
    </g>
   </g>
   <g id="LineCollection_18">
    <path clip-path="url(#pae983f1536)" d="M 815.996552 698.3 
L 900.63605 698.3 
" style="fill:none;stroke:#000000;stroke-width:1.5;"/>
   </g>
   <g id="LineCollection_19">
    <path clip-path="url(#pae983f1536)" d="M 807.532602 662.3 
L 1010.667398 662.3 
" style="fill:none;stroke:#000000;stroke-width:1.5;"/>
   </g>
   <g id="LineCollection_20">
    <path clip-path="url(#pae983f1536)" d="M 917.56395 698.3 
L 1002.203448 698.3 
" style="fill:none;stroke:#000000;stroke-width:1.5;"/>
   </g>
   <g id="patch_17">
    <path d="M 774.1 896.3 
L 774.1 716.3 
" style="fill:none;stroke:#000000;stroke-linecap:square;stroke-linejoin:miter;stroke-width:0.8;"/>
   </g>
   <g id="patch_18">
    <path d="M 774.1 896.3 
L 1044.1 896.3 
" style="fill:none;stroke:#000000;stroke-linecap:square;stroke-linejoin:miter;stroke-width:0.8;"/>
   </g>
   <g id="text_31">
    <!-- 0.285 -->
    <defs>
     <path d="M 34.8125 32.625 
Q 29.546875 32.625 26.703125 29.734375 
Q 23.875 26.859375 23.875 21.484375 
Q 23.875 16.109375 26.703125 13.25 
Q 29.546875 10.40625 34.8125 10.40625 
Q 40.046875 10.40625 42.828125 13.25 
Q 45.609375 16.109375 45.609375 21.484375 
Q 45.609375 26.90625 42.828125 29.765625 
Q 40.046875 32.625 34.8125 32.625 
z
M 21.09375 38.8125 
Q 14.453125 40.828125 11.078125 44.96875 
Q 7.71875 49.125 7.71875 55.328125 
Q 7.71875 64.546875 14.59375 69.375 
Q 21.484375 74.21875 34.8125 74.21875 
Q 48.046875 74.21875 54.921875 69.40625 
Q 61.8125 64.59375 61.8125 55.328125 
Q 61.8125 49.125 58.421875 44.96875 
Q 55.03125 40.828125 48.390625 38.8125 
Q 55.8125 36.765625 59.59375 32.15625 
Q 63.375 27.546875 63.375 20.515625 
Q 63.375 9.671875 56.171875 4.125 
Q 48.96875 -1.421875 34.8125 -1.421875 
Q 20.609375 -1.421875 13.359375 4.125 
Q 6.109375 9.671875 6.109375 20.515625 
Q 6.109375 27.546875 9.890625 32.15625 
Q 13.671875 36.765625 21.09375 38.8125 
z
M 25.484375 53.421875 
Q 25.484375 49.078125 27.90625 46.734375 
Q 30.328125 44.390625 34.8125 44.390625 
Q 39.203125 44.390625 41.59375 46.734375 
Q 44 49.078125 44 53.421875 
Q 44 57.765625 41.59375 60.078125 
Q 39.203125 62.40625 34.8125 62.40625 
Q 30.328125 62.40625 27.90625 60.0625 
Q 25.484375 57.71875 25.484375 53.421875 
z
" id="DejaVuSans-Bold-56"/>
    </defs>
    <g style="fill:#0000ff;" transform="translate(789.316404 888.678472)scale(0.222222 -0.222222)">
     <use xlink:href="#DejaVuSans-Bold-48"/>
     <use x="69.580078" xlink:href="#DejaVuSans-Bold-46"/>
     <use x="107.568359" xlink:href="#DejaVuSans-Bold-50"/>
     <use x="177.148438" xlink:href="#DejaVuSans-Bold-56"/>
     <use x="246.728516" xlink:href="#DejaVuSans-Bold-53"/>
    </g>
   </g>
   <g id="text_32">
    <!-- $P_{real}$ -->
    <g style="fill:#0000ff;" transform="translate(794.760502 922.095312)scale(0.3 -0.3)">
     <use transform="translate(0 0.09375)" xlink:href="#DejaVuSans-Oblique-80"/>
     <use transform="translate(60.302734 -16.3125)scale(0.7)" xlink:href="#DejaVuSans-Oblique-114"/>
     <use transform="translate(89.082031 -16.3125)scale(0.7)" xlink:href="#DejaVuSans-Oblique-101"/>
     <use transform="translate(132.148438 -16.3125)scale(0.7)" xlink:href="#DejaVuSans-Oblique-97"/>
     <use transform="translate(175.043945 -16.3125)scale(0.7)" xlink:href="#DejaVuSans-Oblique-108"/>
    </g>
   </g>
   <g id="text_33">
    <!-- 0.883 -->
    <defs>
     <path d="M 46.578125 39.3125 
Q 53.953125 37.40625 57.78125 32.6875 
Q 61.625 27.984375 61.625 20.703125 
Q 61.625 9.859375 53.3125 4.21875 
Q 45.015625 -1.421875 29.109375 -1.421875 
Q 23.484375 -1.421875 17.84375 -0.515625 
Q 12.203125 0.390625 6.6875 2.203125 
L 6.6875 16.703125 
Q 11.96875 14.0625 17.15625 12.71875 
Q 22.359375 11.375 27.390625 11.375 
Q 34.859375 11.375 38.84375 13.953125 
Q 42.828125 16.546875 42.828125 21.390625 
Q 42.828125 26.375 38.75 28.9375 
Q 34.671875 31.5 26.703125 31.5 
L 19.1875 31.5 
L 19.1875 43.609375 
L 27.09375 43.609375 
Q 34.1875 43.609375 37.640625 45.828125 
Q 41.109375 48.046875 41.109375 52.59375 
Q 41.109375 56.78125 37.734375 59.078125 
Q 34.375 61.375 28.21875 61.375 
Q 23.6875 61.375 19.046875 60.34375 
Q 14.40625 59.328125 9.8125 57.328125 
L 9.8125 71.09375 
Q 15.375 72.65625 20.84375 73.4375 
Q 26.3125 74.21875 31.59375 74.21875 
Q 45.796875 74.21875 52.84375 69.546875 
Q 59.90625 64.890625 59.90625 55.515625 
Q 59.90625 49.125 56.53125 45.046875 
Q 53.171875 40.96875 46.578125 39.3125 
z
" id="DejaVuSans-Bold-51"/>
    </defs>
    <g style="fill:#ff7f0e;" transform="translate(873.955903 888.678472)scale(0.222222 -0.222222)">
     <use xlink:href="#DejaVuSans-Bold-48"/>
     <use x="69.580078" xlink:href="#DejaVuSans-Bold-46"/>
     <use x="107.568359" xlink:href="#DejaVuSans-Bold-56"/>
     <use x="177.148438" xlink:href="#DejaVuSans-Bold-56"/>
     <use x="246.728516" xlink:href="#DejaVuSans-Bold-51"/>
    </g>
   </g>
   <g id="text_34">
    <!-- $\hat{P}_{leaky}$ -->
    <g style="fill:#ff7f0e;" transform="translate(871.3 932.3)scale(0.3 -0.3)">
     <use transform="translate(62.653809 30.015625)" xlink:href="#DejaVuSans-770"/>
     <use transform="translate(0 0.609375)" xlink:href="#DejaVuSans-Oblique-80"/>
     <use transform="translate(61.259766 -15.796875)scale(0.7)" xlink:href="#DejaVuSans-Oblique-108"/>
     <use transform="translate(80.708008 -15.796875)scale(0.7)" xlink:href="#DejaVuSans-Oblique-101"/>
     <use transform="translate(123.774414 -15.796875)scale(0.7)" xlink:href="#DejaVuSans-Oblique-97"/>
     <use transform="translate(166.669922 -15.796875)scale(0.7)" xlink:href="#DejaVuSans-Oblique-107"/>
     <use transform="translate(207.207031 -15.796875)scale(0.7)" xlink:href="#DejaVuSans-Oblique-121"/>
    </g>
   </g>
   <g id="text_35">
    <!-- 0.904 -->
    <defs>
     <path d="M 36.8125 57.421875 
L 16.21875 26.90625 
L 36.8125 26.90625 
z
M 33.6875 72.90625 
L 54.59375 72.90625 
L 54.59375 26.90625 
L 64.984375 26.90625 
L 64.984375 13.28125 
L 54.59375 13.28125 
L 54.59375 0 
L 36.8125 0 
L 36.8125 13.28125 
L 4.5 13.28125 
L 4.5 29.390625 
z
" id="DejaVuSans-Bold-52"/>
    </defs>
    <g style="fill:#008000;" transform="translate(958.595401 888.678472)scale(0.222222 -0.222222)">
     <use xlink:href="#DejaVuSans-Bold-48"/>
     <use x="69.580078" xlink:href="#DejaVuSans-Bold-46"/>
     <use x="107.568359" xlink:href="#DejaVuSans-Bold-57"/>
     <use x="177.148438" xlink:href="#DejaVuSans-Bold-48"/>
     <use x="246.728516" xlink:href="#DejaVuSans-Bold-52"/>
    </g>
   </g>
   <g id="text_36">
    <!-- $\hat{P}_{mean}$ -->
    <g style="fill:#008000;" transform="translate(954.289498 931.460938)scale(0.3 -0.3)">
     <use transform="translate(62.653809 30.015625)" xlink:href="#DejaVuSans-770"/>
     <use transform="translate(0 0.609375)" xlink:href="#DejaVuSans-Oblique-80"/>
     <use transform="translate(61.259766 -15.796875)scale(0.7)" xlink:href="#DejaVuSans-Oblique-109"/>
     <use transform="translate(129.448242 -15.796875)scale(0.7)" xlink:href="#DejaVuSans-Oblique-101"/>
     <use transform="translate(172.514648 -15.796875)scale(0.7)" xlink:href="#DejaVuSans-Oblique-97"/>
     <use transform="translate(215.410156 -15.796875)scale(0.7)" xlink:href="#DejaVuSans-Oblique-110"/>
    </g>
   </g>
   <g id="text_37">
    <!-- ** -->
    <g transform="translate(841.649634 698.3)scale(0.333333 -0.333333)">
     <use xlink:href="#DejaVuSans-42"/>
     <use x="50" xlink:href="#DejaVuSans-42"/>
    </g>
   </g>
   <g id="text_38">
    <!-- ** -->
    <g transform="translate(892.433333 662.3)scale(0.333333 -0.333333)">
     <use xlink:href="#DejaVuSans-42"/>
     <use x="50" xlink:href="#DejaVuSans-42"/>
    </g>
   </g>
   <g id="text_39">
    <!-- ** -->
    <g transform="translate(943.217032 698.3)scale(0.333333 -0.333333)">
     <use xlink:href="#DejaVuSans-42"/>
     <use x="50" xlink:href="#DejaVuSans-42"/>
    </g>
   </g>
   <g id="text_40">
    <!-- MI -->
    <defs>
     <path d="M 9.8125 72.90625 
L 24.515625 72.90625 
L 43.109375 23.296875 
L 61.8125 72.90625 
L 76.515625 72.90625 
L 76.515625 0 
L 66.890625 0 
L 66.890625 64.015625 
L 48.09375 14.015625 
L 38.1875 14.015625 
L 19.390625 64.015625 
L 19.390625 0 
L 9.8125 0 
z
" id="DejaVuSans-77"/>
     <path d="M 9.8125 72.90625 
L 19.671875 72.90625 
L 19.671875 0 
L 9.8125 0 
z
" id="DejaVuSans-73"/>
    </defs>
    <g transform="translate(889.803125 620.3)scale(0.333333 -0.333333)">
     <use xlink:href="#DejaVuSans-77"/>
     <use x="86.279297" xlink:href="#DejaVuSans-73"/>
    </g>
   </g>
  </g>
 </g>
 <defs>
  <clipPath id="pf98e1dbcaf">
   <rect height="941.4" width="942.525" x="123.175" y="14.3"/>
  </clipPath>
  <clipPath id="pf369475d4f">
   <rect height="270" width="270" x="177.175" y="52.2"/>
  </clipPath>
  <clipPath id="pae983f1536">
   <rect height="270" width="270" x="774.1" y="626.3"/>
  </clipPath>
 </defs>
</svg>
