<?xml version="1.0" encoding="utf-8" standalone="no"?>
<!DOCTYPE svg PUBLIC "-//W3C//DTD SVG 1.1//EN"
  "http://www.w3.org/Graphics/SVG/1.1/DTD/svg11.dtd">
<!-- Created with matplotlib (https://matplotlib.org/) -->
<svg height="1080pt" version="1.1" viewBox="0 0 1080 1080" width="1080pt" xmlns="http://www.w3.org/2000/svg" xmlns:xlink="http://www.w3.org/1999/xlink">
 <defs>
  <style type="text/css">
*{stroke-linecap:butt;stroke-linejoin:round;}
  </style>
 </defs>
 <g id="figure_1">
  <g id="patch_1">
   <path d="M 0 1080 
L 1080 1080 
L 1080 0 
L 0 0 
z
" style="fill:#ffffff;"/>
  </g>
  <g id="axes_1">
   <g id="patch_2">
    <path d="M 0 1080 
L 1080 1080 
L 1080 0 
L 0 0 
z
" style="fill:#ffffff;"/>
   </g>
   <g id="PathCollection_1">
    <defs>
     <path d="M 0 5 
C 1.326016 5 2.597899 4.473168 3.535534 3.535534 
C 4.473168 2.597899 5 1.326016 5 0 
C 5 -1.326016 4.473168 -2.597899 3.535534 -3.535534 
C 2.597899 -4.473168 1.326016 -5 0 -5 
C -1.326016 -5 -2.597899 -4.473168 -3.535534 -3.535534 
C -4.473168 -2.597899 -5 -1.326016 -5 0 
C -5 1.326016 -4.473168 2.597899 -3.535534 3.535534 
C -2.597899 4.473168 -1.326016 5 0 5 
z
" id="mdbdbb71ccc" style="stroke:#0000ff;"/>
    </defs>
    <g clip-path="url(#p0872a7208e)">
     <use style="fill:#0000ff;stroke:#0000ff;" x="118.759398" xlink:href="#mdbdbb71ccc" y="657.082698"/>
    </g>
   </g>
   <g id="PathCollection_2">
    <g clip-path="url(#p0872a7208e)">
     <use style="fill:#0000ff;stroke:#0000ff;" x="321.766917" xlink:href="#mdbdbb71ccc" y="571.498549"/>
    </g>
   </g>
   <g id="PathCollection_3">
    <g clip-path="url(#p0872a7208e)">
     <use style="fill:#0000ff;stroke:#0000ff;" x="524.774436" xlink:href="#mdbdbb71ccc" y="554.615657"/>
    </g>
   </g>
   <g id="PathCollection_4">
    <g clip-path="url(#p0872a7208e)">
     <use style="fill:#0000ff;stroke:#0000ff;" x="727.781955" xlink:href="#mdbdbb71ccc" y="510.999564"/>
    </g>
   </g>
   <g id="PathCollection_5">
    <g clip-path="url(#p0872a7208e)">
     <use style="fill:#0000ff;stroke:#0000ff;" x="930.789474" xlink:href="#mdbdbb71ccc" y="445.520212"/>
    </g>
   </g>
   <g id="PathCollection_6">
    <defs>
     <path d="M 0 5 
C 1.326016 5 2.597899 4.473168 3.535534 3.535534 
C 4.473168 2.597899 5 1.326016 5 0 
C 5 -1.326016 4.473168 -2.597899 3.535534 -3.535534 
C 2.597899 -4.473168 1.326016 -5 0 -5 
C -1.326016 -5 -2.597899 -4.473168 -3.535534 -3.535534 
C -4.473168 -2.597899 -5 -1.326016 -5 0 
C -5 1.326016 -4.473168 2.597899 -3.535534 3.535534 
C -2.597899 4.473168 -1.326016 5 0 5 
z
" id="m299a1c12b7" style="stroke:#ff7f0e;"/>
    </defs>
    <g clip-path="url(#p0872a7208e)">
     <use style="fill:#ff7f0e;stroke:#ff7f0e;" x="133.984962" xlink:href="#m299a1c12b7" y="679.292804"/>
    </g>
   </g>
   <g id="PathCollection_7">
    <g clip-path="url(#p0872a7208e)">
     <use style="fill:#ff7f0e;stroke:#ff7f0e;" x="336.992481" xlink:href="#m299a1c12b7" y="582.346365"/>
    </g>
   </g>
   <g id="PathCollection_8">
    <g clip-path="url(#p0872a7208e)">
     <use style="fill:#ff7f0e;stroke:#ff7f0e;" x="540" xlink:href="#m299a1c12b7" y="533.695818"/>
    </g>
   </g>
   <g id="PathCollection_9">
    <g clip-path="url(#p0872a7208e)">
     <use style="fill:#ff7f0e;stroke:#ff7f0e;" x="743.007519" xlink:href="#m299a1c12b7" y="486.95262"/>
    </g>
   </g>
   <g id="PathCollection_10">
    <g clip-path="url(#p0872a7208e)">
     <use style="fill:#ff7f0e;stroke:#ff7f0e;" x="946.015038" xlink:href="#m299a1c12b7" y="424.682519"/>
    </g>
   </g>
   <g id="PathCollection_11">
    <defs>
     <path d="M 0 5 
C 1.326016 5 2.597899 4.473168 3.535534 3.535534 
C 4.473168 2.597899 5 1.326016 5 0 
C 5 -1.326016 4.473168 -2.597899 3.535534 -3.535534 
C 2.597899 -4.473168 1.326016 -5 0 -5 
C -1.326016 -5 -2.597899 -4.473168 -3.535534 -3.535534 
C -4.473168 -2.597899 -5 -1.326016 -5 0 
C -5 1.326016 -4.473168 2.597899 -3.535534 3.535534 
C -2.597899 4.473168 -1.326016 5 0 5 
z
" id="m24b5d3eeba" style="stroke:#008000;"/>
    </defs>
    <g clip-path="url(#p0872a7208e)">
     <use style="fill:#008000;stroke:#008000;" x="149.210526" xlink:href="#m24b5d3eeba" y="698.337719"/>
    </g>
   </g>
   <g id="PathCollection_12">
    <g clip-path="url(#p0872a7208e)">
     <use style="fill:#008000;stroke:#008000;" x="352.218045" xlink:href="#m24b5d3eeba" y="595.312927"/>
    </g>
   </g>
   <g id="PathCollection_13">
    <g clip-path="url(#p0872a7208e)">
     <use style="fill:#008000;stroke:#008000;" x="555.225564" xlink:href="#m24b5d3eeba" y="536.923163"/>
    </g>
   </g>
   <g id="PathCollection_14">
    <g clip-path="url(#p0872a7208e)">
     <use style="fill:#008000;stroke:#008000;" x="758.233083" xlink:href="#m24b5d3eeba" y="497.564557"/>
    </g>
   </g>
   <g id="PathCollection_15">
    <g clip-path="url(#p0872a7208e)">
     <use style="fill:#008000;stroke:#008000;" x="961.240602" xlink:href="#m24b5d3eeba" y="425.08516"/>
    </g>
   </g>
   <g id="matplotlib.axis_1">
    <g id="xtick_1">
     <g id="line2d_1">
      <defs>
       <path d="M 0 0 
L 0 3.5 
" id="m4411be6271" style="stroke:#000000;stroke-width:0.8;"/>
      </defs>
      <g>
       <use style="stroke:#000000;stroke-width:0.8;" x="32.481203" xlink:href="#m4411be6271" y="1080"/>
      </g>
     </g>
     <g id="text_1">
      <!-- 0.0 -->
      <defs>
       <path d="M 31.78125 66.40625 
Q 24.171875 66.40625 20.328125 58.90625 
Q 16.5 51.421875 16.5 36.375 
Q 16.5 21.390625 20.328125 13.890625 
Q 24.171875 6.390625 31.78125 6.390625 
Q 39.453125 6.390625 43.28125 13.890625 
Q 47.125 21.390625 47.125 36.375 
Q 47.125 51.421875 43.28125 58.90625 
Q 39.453125 66.40625 31.78125 66.40625 
z
M 31.78125 74.21875 
Q 44.046875 74.21875 50.515625 64.515625 
Q 56.984375 54.828125 56.984375 36.375 
Q 56.984375 17.96875 50.515625 8.265625 
Q 44.046875 -1.421875 31.78125 -1.421875 
Q 19.53125 -1.421875 13.0625 8.265625 
Q 6.59375 17.96875 6.59375 36.375 
Q 6.59375 54.828125 13.0625 64.515625 
Q 19.53125 74.21875 31.78125 74.21875 
z
" id="DejaVuSans-48"/>
       <path d="M 10.6875 12.40625 
L 21 12.40625 
L 21 0 
L 10.6875 0 
z
" id="DejaVuSans-46"/>
      </defs>
      <g transform="translate(5.975995 1112.328125)scale(0.333333 -0.333333)">
       <use xlink:href="#DejaVuSans-48"/>
       <use x="63.623047" xlink:href="#DejaVuSans-46"/>
       <use x="95.410156" xlink:href="#DejaVuSans-48"/>
      </g>
     </g>
    </g>
    <g id="xtick_2">
     <g id="line2d_2">
      <g>
       <use style="stroke:#000000;stroke-width:0.8;" x="235.488722" xlink:href="#m4411be6271" y="1080"/>
      </g>
     </g>
     <g id="text_2">
      <!-- 0.2 -->
      <defs>
       <path d="M 19.1875 8.296875 
L 53.609375 8.296875 
L 53.609375 0 
L 7.328125 0 
L 7.328125 8.296875 
Q 12.9375 14.109375 22.625 23.890625 
Q 32.328125 33.6875 34.8125 36.53125 
Q 39.546875 41.84375 41.421875 45.53125 
Q 43.3125 49.21875 43.3125 52.78125 
Q 43.3125 58.59375 39.234375 62.25 
Q 35.15625 65.921875 28.609375 65.921875 
Q 23.96875 65.921875 18.8125 64.3125 
Q 13.671875 62.703125 7.8125 59.421875 
L 7.8125 69.390625 
Q 13.765625 71.78125 18.9375 73 
Q 24.125 74.21875 28.421875 74.21875 
Q 39.75 74.21875 46.484375 68.546875 
Q 53.21875 62.890625 53.21875 53.421875 
Q 53.21875 48.921875 51.53125 44.890625 
Q 49.859375 40.875 45.40625 35.40625 
Q 44.1875 33.984375 37.640625 27.21875 
Q 31.109375 20.453125 19.1875 8.296875 
z
" id="DejaVuSans-50"/>
      </defs>
      <g transform="translate(208.983513 1112.328125)scale(0.333333 -0.333333)">
       <use xlink:href="#DejaVuSans-48"/>
       <use x="63.623047" xlink:href="#DejaVuSans-46"/>
       <use x="95.410156" xlink:href="#DejaVuSans-50"/>
      </g>
     </g>
    </g>
    <g id="xtick_3">
     <g id="line2d_3">
      <g>
       <use style="stroke:#000000;stroke-width:0.8;" x="438.496241" xlink:href="#m4411be6271" y="1080"/>
      </g>
     </g>
     <g id="text_3">
      <!-- 0.4 -->
      <defs>
       <path d="M 37.796875 64.3125 
L 12.890625 25.390625 
L 37.796875 25.390625 
z
M 35.203125 72.90625 
L 47.609375 72.90625 
L 47.609375 25.390625 
L 58.015625 25.390625 
L 58.015625 17.1875 
L 47.609375 17.1875 
L 47.609375 0 
L 37.796875 0 
L 37.796875 17.1875 
L 4.890625 17.1875 
L 4.890625 26.703125 
z
" id="DejaVuSans-52"/>
      </defs>
      <g transform="translate(411.991032 1112.328125)scale(0.333333 -0.333333)">
       <use xlink:href="#DejaVuSans-48"/>
       <use x="63.623047" xlink:href="#DejaVuSans-46"/>
       <use x="95.410156" xlink:href="#DejaVuSans-52"/>
      </g>
     </g>
    </g>
    <g id="xtick_4">
     <g id="line2d_4">
      <g>
       <use style="stroke:#000000;stroke-width:0.8;" x="641.503759" xlink:href="#m4411be6271" y="1080"/>
      </g>
     </g>
     <g id="text_4">
      <!-- 0.6 -->
      <defs>
       <path d="M 33.015625 40.375 
Q 26.375 40.375 22.484375 35.828125 
Q 18.609375 31.296875 18.609375 23.390625 
Q 18.609375 15.53125 22.484375 10.953125 
Q 26.375 6.390625 33.015625 6.390625 
Q 39.65625 6.390625 43.53125 10.953125 
Q 47.40625 15.53125 47.40625 23.390625 
Q 47.40625 31.296875 43.53125 35.828125 
Q 39.65625 40.375 33.015625 40.375 
z
M 52.59375 71.296875 
L 52.59375 62.3125 
Q 48.875 64.0625 45.09375 64.984375 
Q 41.3125 65.921875 37.59375 65.921875 
Q 27.828125 65.921875 22.671875 59.328125 
Q 17.53125 52.734375 16.796875 39.40625 
Q 19.671875 43.65625 24.015625 45.921875 
Q 28.375 48.1875 33.59375 48.1875 
Q 44.578125 48.1875 50.953125 41.515625 
Q 57.328125 34.859375 57.328125 23.390625 
Q 57.328125 12.15625 50.6875 5.359375 
Q 44.046875 -1.421875 33.015625 -1.421875 
Q 20.359375 -1.421875 13.671875 8.265625 
Q 6.984375 17.96875 6.984375 36.375 
Q 6.984375 53.65625 15.1875 63.9375 
Q 23.390625 74.21875 37.203125 74.21875 
Q 40.921875 74.21875 44.703125 73.484375 
Q 48.484375 72.75 52.59375 71.296875 
z
" id="DejaVuSans-54"/>
      </defs>
      <g transform="translate(614.998551 1112.328125)scale(0.333333 -0.333333)">
       <use xlink:href="#DejaVuSans-48"/>
       <use x="63.623047" xlink:href="#DejaVuSans-46"/>
       <use x="95.410156" xlink:href="#DejaVuSans-54"/>
      </g>
     </g>
    </g>
    <g id="xtick_5">
     <g id="line2d_5">
      <g>
       <use style="stroke:#000000;stroke-width:0.8;" x="844.511278" xlink:href="#m4411be6271" y="1080"/>
      </g>
     </g>
     <g id="text_5">
      <!-- 0.8 -->
      <defs>
       <path d="M 31.78125 34.625 
Q 24.75 34.625 20.71875 30.859375 
Q 16.703125 27.09375 16.703125 20.515625 
Q 16.703125 13.921875 20.71875 10.15625 
Q 24.75 6.390625 31.78125 6.390625 
Q 38.8125 6.390625 42.859375 10.171875 
Q 46.921875 13.96875 46.921875 20.515625 
Q 46.921875 27.09375 42.890625 30.859375 
Q 38.875 34.625 31.78125 34.625 
z
M 21.921875 38.8125 
Q 15.578125 40.375 12.03125 44.71875 
Q 8.5 49.078125 8.5 55.328125 
Q 8.5 64.0625 14.71875 69.140625 
Q 20.953125 74.21875 31.78125 74.21875 
Q 42.671875 74.21875 48.875 69.140625 
Q 55.078125 64.0625 55.078125 55.328125 
Q 55.078125 49.078125 51.53125 44.71875 
Q 48 40.375 41.703125 38.8125 
Q 48.828125 37.15625 52.796875 32.3125 
Q 56.78125 27.484375 56.78125 20.515625 
Q 56.78125 9.90625 50.3125 4.234375 
Q 43.84375 -1.421875 31.78125 -1.421875 
Q 19.734375 -1.421875 13.25 4.234375 
Q 6.78125 9.90625 6.78125 20.515625 
Q 6.78125 27.484375 10.78125 32.3125 
Q 14.796875 37.15625 21.921875 38.8125 
z
M 18.3125 54.390625 
Q 18.3125 48.734375 21.84375 45.5625 
Q 25.390625 42.390625 31.78125 42.390625 
Q 38.140625 42.390625 41.71875 45.5625 
Q 45.3125 48.734375 45.3125 54.390625 
Q 45.3125 60.0625 41.71875 63.234375 
Q 38.140625 66.40625 31.78125 66.40625 
Q 25.390625 66.40625 21.84375 63.234375 
Q 18.3125 60.0625 18.3125 54.390625 
z
" id="DejaVuSans-56"/>
      </defs>
      <g transform="translate(818.00607 1112.328125)scale(0.333333 -0.333333)">
       <use xlink:href="#DejaVuSans-48"/>
       <use x="63.623047" xlink:href="#DejaVuSans-46"/>
       <use x="95.410156" xlink:href="#DejaVuSans-56"/>
      </g>
     </g>
    </g>
    <g id="xtick_6">
     <g id="line2d_6">
      <g>
       <use style="stroke:#000000;stroke-width:0.8;" x="1047.518797" xlink:href="#m4411be6271" y="1080"/>
      </g>
     </g>
     <g id="text_6">
      <!-- 1.0 -->
      <defs>
       <path d="M 12.40625 8.296875 
L 28.515625 8.296875 
L 28.515625 63.921875 
L 10.984375 60.40625 
L 10.984375 69.390625 
L 28.421875 72.90625 
L 38.28125 72.90625 
L 38.28125 8.296875 
L 54.390625 8.296875 
L 54.390625 0 
L 12.40625 0 
z
" id="DejaVuSans-49"/>
      </defs>
      <g transform="translate(1021.013589 1112.328125)scale(0.333333 -0.333333)">
       <use xlink:href="#DejaVuSans-49"/>
       <use x="63.623047" xlink:href="#DejaVuSans-46"/>
       <use x="95.410156" xlink:href="#DejaVuSans-48"/>
      </g>
     </g>
    </g>
    <g id="text_7">
     <!-- $\hat{P}$ -->
     <defs>
      <path d="M -28.609375 79.984375 
L -21.390625 79.984375 
L -9.421875 61.625 
L -16.21875 61.625 
L -25 73.578125 
L -33.796875 61.625 
L -40.578125 61.625 
z
M -25 56 
z
" id="DejaVuSans-770"/>
      <path d="M 16.890625 72.90625 
L 39.703125 72.90625 
Q 49.65625 72.90625 54.875 68.265625 
Q 60.109375 63.625 60.109375 54.6875 
Q 60.109375 42.671875 52.390625 35.984375 
Q 44.671875 29.296875 30.71875 29.296875 
L 18.3125 29.296875 
L 12.59375 0 
L 2.6875 0 
z
M 25.203125 64.796875 
L 19.921875 37.40625 
L 32.328125 37.40625 
Q 40.71875 37.40625 45.203125 41.703125 
Q 49.703125 46 49.703125 54 
Q 49.703125 59.125 46.65625 61.953125 
Q 43.609375 64.796875 38.09375 64.796875 
z
" id="DejaVuSans-Oblique-80"/>
     </defs>
     <g transform="translate(521.7 1176.782292)scale(0.6 -0.6)">
      <use transform="translate(62.653809 30.015625)" xlink:href="#DejaVuSans-770"/>
      <use transform="translate(0 0.609375)" xlink:href="#DejaVuSans-Oblique-80"/>
     </g>
    </g>
   </g>
   <g id="matplotlib.axis_2">
    <g id="ytick_1">
     <g id="line2d_7">
      <defs>
       <path d="M 0 0 
L -3.5 0 
" id="ma667ba6642" style="stroke:#000000;stroke-width:0.8;"/>
      </defs>
      <g>
       <use style="stroke:#000000;stroke-width:0.8;" x="0" xlink:href="#ma667ba6642" y="1047.518797"/>
      </g>
     </g>
     <g id="text_8">
      <!-- −10.0 -->
      <defs>
       <path d="M 10.59375 35.5 
L 73.1875 35.5 
L 73.1875 27.203125 
L 10.59375 27.203125 
z
" id="DejaVuSans-8722"/>
      </defs>
      <g transform="translate(-109.151042 1060.182859)scale(0.333333 -0.333333)">
       <use xlink:href="#DejaVuSans-8722"/>
       <use x="83.789062" xlink:href="#DejaVuSans-49"/>
       <use x="147.412109" xlink:href="#DejaVuSans-48"/>
       <use x="211.035156" xlink:href="#DejaVuSans-46"/>
       <use x="242.822266" xlink:href="#DejaVuSans-48"/>
      </g>
     </g>
    </g>
    <g id="ytick_2">
     <g id="line2d_8">
      <g>
       <use style="stroke:#000000;stroke-width:0.8;" x="0" xlink:href="#ma667ba6642" y="920.639098"/>
      </g>
     </g>
     <g id="text_9">
      <!-- −7.5 -->
      <defs>
       <path d="M 8.203125 72.90625 
L 55.078125 72.90625 
L 55.078125 68.703125 
L 28.609375 0 
L 18.3125 0 
L 43.21875 64.59375 
L 8.203125 64.59375 
z
" id="DejaVuSans-55"/>
       <path d="M 10.796875 72.90625 
L 49.515625 72.90625 
L 49.515625 64.59375 
L 19.828125 64.59375 
L 19.828125 46.734375 
Q 21.96875 47.46875 24.109375 47.828125 
Q 26.265625 48.1875 28.421875 48.1875 
Q 40.625 48.1875 47.75 41.5 
Q 54.890625 34.8125 54.890625 23.390625 
Q 54.890625 11.625 47.5625 5.09375 
Q 40.234375 -1.421875 26.90625 -1.421875 
Q 22.3125 -1.421875 17.546875 -0.640625 
Q 12.796875 0.140625 7.71875 1.703125 
L 7.71875 11.625 
Q 12.109375 9.234375 16.796875 8.0625 
Q 21.484375 6.890625 26.703125 6.890625 
Q 35.15625 6.890625 40.078125 11.328125 
Q 45.015625 15.765625 45.015625 23.390625 
Q 45.015625 31 40.078125 35.4375 
Q 35.15625 39.890625 26.703125 39.890625 
Q 22.75 39.890625 18.8125 39.015625 
Q 14.890625 38.140625 10.796875 36.28125 
z
" id="DejaVuSans-53"/>
      </defs>
      <g transform="translate(-87.942708 933.30316)scale(0.333333 -0.333333)">
       <use xlink:href="#DejaVuSans-8722"/>
       <use x="83.789062" xlink:href="#DejaVuSans-55"/>
       <use x="147.412109" xlink:href="#DejaVuSans-46"/>
       <use x="179.199219" xlink:href="#DejaVuSans-53"/>
      </g>
     </g>
    </g>
    <g id="ytick_3">
     <g id="line2d_9">
      <g>
       <use style="stroke:#000000;stroke-width:0.8;" x="0" xlink:href="#ma667ba6642" y="793.759398"/>
      </g>
     </g>
     <g id="text_10">
      <!-- −5.0 -->
      <g transform="translate(-87.942708 806.423461)scale(0.333333 -0.333333)">
       <use xlink:href="#DejaVuSans-8722"/>
       <use x="83.789062" xlink:href="#DejaVuSans-53"/>
       <use x="147.412109" xlink:href="#DejaVuSans-46"/>
       <use x="179.199219" xlink:href="#DejaVuSans-48"/>
      </g>
     </g>
    </g>
    <g id="ytick_4">
     <g id="line2d_10">
      <g>
       <use style="stroke:#000000;stroke-width:0.8;" x="0" xlink:href="#ma667ba6642" y="666.879699"/>
      </g>
     </g>
     <g id="text_11">
      <!-- −2.5 -->
      <g transform="translate(-87.942708 679.543762)scale(0.333333 -0.333333)">
       <use xlink:href="#DejaVuSans-8722"/>
       <use x="83.789062" xlink:href="#DejaVuSans-50"/>
       <use x="147.412109" xlink:href="#DejaVuSans-46"/>
       <use x="179.199219" xlink:href="#DejaVuSans-53"/>
      </g>
     </g>
    </g>
    <g id="ytick_5">
     <g id="line2d_11">
      <g>
       <use style="stroke:#000000;stroke-width:0.8;" x="0" xlink:href="#ma667ba6642" y="540"/>
      </g>
     </g>
     <g id="text_12">
      <!-- 0.0 -->
      <g transform="translate(-60.010417 552.664062)scale(0.333333 -0.333333)">
       <use xlink:href="#DejaVuSans-48"/>
       <use x="63.623047" xlink:href="#DejaVuSans-46"/>
       <use x="95.410156" xlink:href="#DejaVuSans-48"/>
      </g>
     </g>
    </g>
    <g id="ytick_6">
     <g id="line2d_12">
      <g>
       <use style="stroke:#000000;stroke-width:0.8;" x="0" xlink:href="#ma667ba6642" y="413.120301"/>
      </g>
     </g>
     <g id="text_13">
      <!-- 2.5 -->
      <g transform="translate(-60.010417 425.784363)scale(0.333333 -0.333333)">
       <use xlink:href="#DejaVuSans-50"/>
       <use x="63.623047" xlink:href="#DejaVuSans-46"/>
       <use x="95.410156" xlink:href="#DejaVuSans-53"/>
      </g>
     </g>
    </g>
    <g id="ytick_7">
     <g id="line2d_13">
      <g>
       <use style="stroke:#000000;stroke-width:0.8;" x="0" xlink:href="#ma667ba6642" y="286.240602"/>
      </g>
     </g>
     <g id="text_14">
      <!-- 5.0 -->
      <g transform="translate(-60.010417 298.904664)scale(0.333333 -0.333333)">
       <use xlink:href="#DejaVuSans-53"/>
       <use x="63.623047" xlink:href="#DejaVuSans-46"/>
       <use x="95.410156" xlink:href="#DejaVuSans-48"/>
      </g>
     </g>
    </g>
    <g id="ytick_8">
     <g id="line2d_14">
      <g>
       <use style="stroke:#000000;stroke-width:0.8;" x="0" xlink:href="#ma667ba6642" y="159.360902"/>
      </g>
     </g>
     <g id="text_15">
      <!-- 7.5 -->
      <g transform="translate(-60.010417 172.024965)scale(0.333333 -0.333333)">
       <use xlink:href="#DejaVuSans-55"/>
       <use x="63.623047" xlink:href="#DejaVuSans-46"/>
       <use x="95.410156" xlink:href="#DejaVuSans-53"/>
      </g>
     </g>
    </g>
    <g id="ytick_9">
     <g id="line2d_15">
      <g>
       <use style="stroke:#000000;stroke-width:0.8;" x="0" xlink:href="#ma667ba6642" y="32.481203"/>
      </g>
     </g>
     <g id="text_16">
      <!-- 10.0 -->
      <g transform="translate(-81.21875 45.145266)scale(0.333333 -0.333333)">
       <use xlink:href="#DejaVuSans-49"/>
       <use x="63.623047" xlink:href="#DejaVuSans-48"/>
       <use x="127.246094" xlink:href="#DejaVuSans-46"/>
       <use x="159.033203" xlink:href="#DejaVuSans-48"/>
      </g>
     </g>
    </g>
    <g id="text_17">
     <!-- Velocity of anticipation (°/s) -->
     <defs>
      <path d="M 28.609375 0 
L 0.78125 72.90625 
L 11.078125 72.90625 
L 34.1875 11.53125 
L 57.328125 72.90625 
L 67.578125 72.90625 
L 39.796875 0 
z
" id="DejaVuSans-86"/>
      <path d="M 56.203125 29.59375 
L 56.203125 25.203125 
L 14.890625 25.203125 
Q 15.484375 15.921875 20.484375 11.0625 
Q 25.484375 6.203125 34.421875 6.203125 
Q 39.59375 6.203125 44.453125 7.46875 
Q 49.3125 8.734375 54.109375 11.28125 
L 54.109375 2.78125 
Q 49.265625 0.734375 44.1875 -0.34375 
Q 39.109375 -1.421875 33.890625 -1.421875 
Q 20.796875 -1.421875 13.15625 6.1875 
Q 5.515625 13.8125 5.515625 26.8125 
Q 5.515625 40.234375 12.765625 48.109375 
Q 20.015625 56 32.328125 56 
Q 43.359375 56 49.78125 48.890625 
Q 56.203125 41.796875 56.203125 29.59375 
z
M 47.21875 32.234375 
Q 47.125 39.59375 43.09375 43.984375 
Q 39.0625 48.390625 32.421875 48.390625 
Q 24.90625 48.390625 20.390625 44.140625 
Q 15.875 39.890625 15.1875 32.171875 
z
" id="DejaVuSans-101"/>
      <path d="M 9.421875 75.984375 
L 18.40625 75.984375 
L 18.40625 0 
L 9.421875 0 
z
" id="DejaVuSans-108"/>
      <path d="M 30.609375 48.390625 
Q 23.390625 48.390625 19.1875 42.75 
Q 14.984375 37.109375 14.984375 27.296875 
Q 14.984375 17.484375 19.15625 11.84375 
Q 23.34375 6.203125 30.609375 6.203125 
Q 37.796875 6.203125 41.984375 11.859375 
Q 46.1875 17.53125 46.1875 27.296875 
Q 46.1875 37.015625 41.984375 42.703125 
Q 37.796875 48.390625 30.609375 48.390625 
z
M 30.609375 56 
Q 42.328125 56 49.015625 48.375 
Q 55.71875 40.765625 55.71875 27.296875 
Q 55.71875 13.875 49.015625 6.21875 
Q 42.328125 -1.421875 30.609375 -1.421875 
Q 18.84375 -1.421875 12.171875 6.21875 
Q 5.515625 13.875 5.515625 27.296875 
Q 5.515625 40.765625 12.171875 48.375 
Q 18.84375 56 30.609375 56 
z
" id="DejaVuSans-111"/>
      <path d="M 48.78125 52.59375 
L 48.78125 44.1875 
Q 44.96875 46.296875 41.140625 47.34375 
Q 37.3125 48.390625 33.40625 48.390625 
Q 24.65625 48.390625 19.8125 42.84375 
Q 14.984375 37.3125 14.984375 27.296875 
Q 14.984375 17.28125 19.8125 11.734375 
Q 24.65625 6.203125 33.40625 6.203125 
Q 37.3125 6.203125 41.140625 7.25 
Q 44.96875 8.296875 48.78125 10.40625 
L 48.78125 2.09375 
Q 45.015625 0.34375 40.984375 -0.53125 
Q 36.96875 -1.421875 32.421875 -1.421875 
Q 20.0625 -1.421875 12.78125 6.34375 
Q 5.515625 14.109375 5.515625 27.296875 
Q 5.515625 40.671875 12.859375 48.328125 
Q 20.21875 56 33.015625 56 
Q 37.15625 56 41.109375 55.140625 
Q 45.0625 54.296875 48.78125 52.59375 
z
" id="DejaVuSans-99"/>
      <path d="M 9.421875 54.6875 
L 18.40625 54.6875 
L 18.40625 0 
L 9.421875 0 
z
M 9.421875 75.984375 
L 18.40625 75.984375 
L 18.40625 64.59375 
L 9.421875 64.59375 
z
" id="DejaVuSans-105"/>
      <path d="M 18.3125 70.21875 
L 18.3125 54.6875 
L 36.8125 54.6875 
L 36.8125 47.703125 
L 18.3125 47.703125 
L 18.3125 18.015625 
Q 18.3125 11.328125 20.140625 9.421875 
Q 21.96875 7.515625 27.59375 7.515625 
L 36.8125 7.515625 
L 36.8125 0 
L 27.59375 0 
Q 17.1875 0 13.234375 3.875 
Q 9.28125 7.765625 9.28125 18.015625 
L 9.28125 47.703125 
L 2.6875 47.703125 
L 2.6875 54.6875 
L 9.28125 54.6875 
L 9.28125 70.21875 
z
" id="DejaVuSans-116"/>
      <path d="M 32.171875 -5.078125 
Q 28.375 -14.84375 24.75 -17.8125 
Q 21.140625 -20.796875 15.09375 -20.796875 
L 7.90625 -20.796875 
L 7.90625 -13.28125 
L 13.1875 -13.28125 
Q 16.890625 -13.28125 18.9375 -11.515625 
Q 21 -9.765625 23.484375 -3.21875 
L 25.09375 0.875 
L 2.984375 54.6875 
L 12.5 54.6875 
L 29.59375 11.921875 
L 46.6875 54.6875 
L 56.203125 54.6875 
z
" id="DejaVuSans-121"/>
      <path id="DejaVuSans-32"/>
      <path d="M 37.109375 75.984375 
L 37.109375 68.5 
L 28.515625 68.5 
Q 23.6875 68.5 21.796875 66.546875 
Q 19.921875 64.59375 19.921875 59.515625 
L 19.921875 54.6875 
L 34.71875 54.6875 
L 34.71875 47.703125 
L 19.921875 47.703125 
L 19.921875 0 
L 10.890625 0 
L 10.890625 47.703125 
L 2.296875 47.703125 
L 2.296875 54.6875 
L 10.890625 54.6875 
L 10.890625 58.5 
Q 10.890625 67.625 15.140625 71.796875 
Q 19.390625 75.984375 28.609375 75.984375 
z
" id="DejaVuSans-102"/>
      <path d="M 34.28125 27.484375 
Q 23.390625 27.484375 19.1875 25 
Q 14.984375 22.515625 14.984375 16.5 
Q 14.984375 11.71875 18.140625 8.90625 
Q 21.296875 6.109375 26.703125 6.109375 
Q 34.1875 6.109375 38.703125 11.40625 
Q 43.21875 16.703125 43.21875 25.484375 
L 43.21875 27.484375 
z
M 52.203125 31.203125 
L 52.203125 0 
L 43.21875 0 
L 43.21875 8.296875 
Q 40.140625 3.328125 35.546875 0.953125 
Q 30.953125 -1.421875 24.3125 -1.421875 
Q 15.921875 -1.421875 10.953125 3.296875 
Q 6 8.015625 6 15.921875 
Q 6 25.140625 12.171875 29.828125 
Q 18.359375 34.515625 30.609375 34.515625 
L 43.21875 34.515625 
L 43.21875 35.40625 
Q 43.21875 41.609375 39.140625 45 
Q 35.0625 48.390625 27.6875 48.390625 
Q 23 48.390625 18.546875 47.265625 
Q 14.109375 46.140625 10.015625 43.890625 
L 10.015625 52.203125 
Q 14.9375 54.109375 19.578125 55.046875 
Q 24.21875 56 28.609375 56 
Q 40.484375 56 46.34375 49.84375 
Q 52.203125 43.703125 52.203125 31.203125 
z
" id="DejaVuSans-97"/>
      <path d="M 54.890625 33.015625 
L 54.890625 0 
L 45.90625 0 
L 45.90625 32.71875 
Q 45.90625 40.484375 42.875 44.328125 
Q 39.84375 48.1875 33.796875 48.1875 
Q 26.515625 48.1875 22.3125 43.546875 
Q 18.109375 38.921875 18.109375 30.90625 
L 18.109375 0 
L 9.078125 0 
L 9.078125 54.6875 
L 18.109375 54.6875 
L 18.109375 46.1875 
Q 21.34375 51.125 25.703125 53.5625 
Q 30.078125 56 35.796875 56 
Q 45.21875 56 50.046875 50.171875 
Q 54.890625 44.34375 54.890625 33.015625 
z
" id="DejaVuSans-110"/>
      <path d="M 18.109375 8.203125 
L 18.109375 -20.796875 
L 9.078125 -20.796875 
L 9.078125 54.6875 
L 18.109375 54.6875 
L 18.109375 46.390625 
Q 20.953125 51.265625 25.265625 53.625 
Q 29.59375 56 35.59375 56 
Q 45.5625 56 51.78125 48.09375 
Q 58.015625 40.1875 58.015625 27.296875 
Q 58.015625 14.40625 51.78125 6.484375 
Q 45.5625 -1.421875 35.59375 -1.421875 
Q 29.59375 -1.421875 25.265625 0.953125 
Q 20.953125 3.328125 18.109375 8.203125 
z
M 48.6875 27.296875 
Q 48.6875 37.203125 44.609375 42.84375 
Q 40.53125 48.484375 33.40625 48.484375 
Q 26.265625 48.484375 22.1875 42.84375 
Q 18.109375 37.203125 18.109375 27.296875 
Q 18.109375 17.390625 22.1875 11.75 
Q 26.265625 6.109375 33.40625 6.109375 
Q 40.53125 6.109375 44.609375 11.75 
Q 48.6875 17.390625 48.6875 27.296875 
z
" id="DejaVuSans-112"/>
      <path d="M 31 75.875 
Q 24.46875 64.65625 21.28125 53.65625 
Q 18.109375 42.671875 18.109375 31.390625 
Q 18.109375 20.125 21.3125 9.0625 
Q 24.515625 -2 31 -13.1875 
L 23.1875 -13.1875 
Q 15.875 -1.703125 12.234375 9.375 
Q 8.59375 20.453125 8.59375 31.390625 
Q 8.59375 42.28125 12.203125 53.3125 
Q 15.828125 64.359375 23.1875 75.875 
z
" id="DejaVuSans-40"/>
      <path d="M 25 67.921875 
Q 21.09375 67.921875 18.40625 65.203125 
Q 15.71875 62.5 15.71875 58.59375 
Q 15.71875 54.734375 18.40625 52.078125 
Q 21.09375 49.421875 25 49.421875 
Q 28.90625 49.421875 31.59375 52.078125 
Q 34.28125 54.734375 34.28125 58.59375 
Q 34.28125 62.453125 31.5625 65.1875 
Q 28.859375 67.921875 25 67.921875 
z
M 25 74.21875 
Q 28.125 74.21875 31 73.015625 
Q 33.890625 71.828125 35.984375 69.578125 
Q 38.234375 67.390625 39.359375 64.59375 
Q 40.484375 61.8125 40.484375 58.59375 
Q 40.484375 52.15625 35.96875 47.6875 
Q 31.453125 43.21875 24.90625 43.21875 
Q 18.3125 43.21875 13.90625 47.609375 
Q 9.515625 52 9.515625 58.59375 
Q 9.515625 65.140625 14 69.671875 
Q 18.5 74.21875 25 74.21875 
z
" id="DejaVuSans-176"/>
      <path d="M 25.390625 72.90625 
L 33.6875 72.90625 
L 8.296875 -9.28125 
L 0 -9.28125 
z
" id="DejaVuSans-47"/>
      <path d="M 44.28125 53.078125 
L 44.28125 44.578125 
Q 40.484375 46.53125 36.375 47.5 
Q 32.28125 48.484375 27.875 48.484375 
Q 21.1875 48.484375 17.84375 46.4375 
Q 14.5 44.390625 14.5 40.28125 
Q 14.5 37.15625 16.890625 35.375 
Q 19.28125 33.59375 26.515625 31.984375 
L 29.59375 31.296875 
Q 39.15625 29.25 43.1875 25.515625 
Q 47.21875 21.78125 47.21875 15.09375 
Q 47.21875 7.46875 41.1875 3.015625 
Q 35.15625 -1.421875 24.609375 -1.421875 
Q 20.21875 -1.421875 15.453125 -0.5625 
Q 10.6875 0.296875 5.421875 2 
L 5.421875 11.28125 
Q 10.40625 8.6875 15.234375 7.390625 
Q 20.0625 6.109375 24.8125 6.109375 
Q 31.15625 6.109375 34.5625 8.28125 
Q 37.984375 10.453125 37.984375 14.40625 
Q 37.984375 18.0625 35.515625 20.015625 
Q 33.0625 21.96875 24.703125 23.78125 
L 21.578125 24.515625 
Q 13.234375 26.265625 9.515625 29.90625 
Q 5.8125 33.546875 5.8125 39.890625 
Q 5.8125 47.609375 11.28125 51.796875 
Q 16.75 56 26.8125 56 
Q 31.78125 56 36.171875 55.265625 
Q 40.578125 54.546875 44.28125 53.078125 
z
" id="DejaVuSans-115"/>
      <path d="M 8.015625 75.875 
L 15.828125 75.875 
Q 23.140625 64.359375 26.78125 53.3125 
Q 30.421875 42.28125 30.421875 31.390625 
Q 30.421875 20.453125 26.78125 9.375 
Q 23.140625 -1.703125 15.828125 -13.1875 
L 8.015625 -13.1875 
Q 14.5 -2 17.703125 9.0625 
Q 20.90625 20.125 20.90625 31.390625 
Q 20.90625 42.671875 17.703125 53.65625 
Q 14.5 64.65625 8.015625 75.875 
z
" id="DejaVuSans-41"/>
     </defs>
     <g transform="translate(-123.549479 889.054688)rotate(-90)scale(0.5 -0.5)">
      <use xlink:href="#DejaVuSans-86"/>
      <use x="68.298828" xlink:href="#DejaVuSans-101"/>
      <use x="129.822266" xlink:href="#DejaVuSans-108"/>
      <use x="157.605469" xlink:href="#DejaVuSans-111"/>
      <use x="218.787109" xlink:href="#DejaVuSans-99"/>
      <use x="273.767578" xlink:href="#DejaVuSans-105"/>
      <use x="301.550781" xlink:href="#DejaVuSans-116"/>
      <use x="340.759766" xlink:href="#DejaVuSans-121"/>
      <use x="399.939453" xlink:href="#DejaVuSans-32"/>
      <use x="431.726562" xlink:href="#DejaVuSans-111"/>
      <use x="492.908203" xlink:href="#DejaVuSans-102"/>
      <use x="528.113281" xlink:href="#DejaVuSans-32"/>
      <use x="559.900391" xlink:href="#DejaVuSans-97"/>
      <use x="621.179688" xlink:href="#DejaVuSans-110"/>
      <use x="684.558594" xlink:href="#DejaVuSans-116"/>
      <use x="723.767578" xlink:href="#DejaVuSans-105"/>
      <use x="751.550781" xlink:href="#DejaVuSans-99"/>
      <use x="806.53125" xlink:href="#DejaVuSans-105"/>
      <use x="834.314453" xlink:href="#DejaVuSans-112"/>
      <use x="897.791016" xlink:href="#DejaVuSans-97"/>
      <use x="959.070312" xlink:href="#DejaVuSans-116"/>
      <use x="998.279297" xlink:href="#DejaVuSans-105"/>
      <use x="1026.0625" xlink:href="#DejaVuSans-111"/>
      <use x="1087.244141" xlink:href="#DejaVuSans-110"/>
      <use x="1150.623047" xlink:href="#DejaVuSans-32"/>
      <use x="1182.410156" xlink:href="#DejaVuSans-40"/>
      <use x="1221.423828" xlink:href="#DejaVuSans-176"/>
      <use x="1271.423828" xlink:href="#DejaVuSans-47"/>
      <use x="1305.115234" xlink:href="#DejaVuSans-115"/>
      <use x="1357.214844" xlink:href="#DejaVuSans-41"/>
     </g>
    </g>
   </g>
   <g id="LineCollection_1">
    <path clip-path="url(#p0872a7208e)" d="M 118.759398 796.826907 
L 118.759398 567.733354 
" style="fill:none;stroke:#0000ff;stroke-width:1.5;"/>
   </g>
   <g id="LineCollection_2">
    <path clip-path="url(#p0872a7208e)" d="M 321.766917 658.202415 
L 321.766917 513.036809 
" style="fill:none;stroke:#0000ff;stroke-width:1.5;"/>
   </g>
   <g id="LineCollection_3">
    <path clip-path="url(#p0872a7208e)" d="M 524.774436 665.396996 
L 524.774436 488.569938 
" style="fill:none;stroke:#0000ff;stroke-width:1.5;"/>
   </g>
   <g id="LineCollection_4">
    <path clip-path="url(#p0872a7208e)" d="M 727.781955 598.372492 
L 727.781955 459.707435 
" style="fill:none;stroke:#0000ff;stroke-width:1.5;"/>
   </g>
   <g id="LineCollection_5">
    <path clip-path="url(#p0872a7208e)" d="M 930.789474 540.564443 
L 930.789474 388.143359 
" style="fill:none;stroke:#0000ff;stroke-width:1.5;"/>
   </g>
   <g id="LineCollection_6">
    <path clip-path="url(#p0872a7208e)" d="M 133.984962 832.946112 
L 133.984962 581.23403 
" style="fill:none;stroke:#ff7f0e;stroke-width:1.5;"/>
   </g>
   <g id="LineCollection_7">
    <path clip-path="url(#p0872a7208e)" d="M 336.992481 683.967318 
L 336.992481 512.265758 
" style="fill:none;stroke:#ff7f0e;stroke-width:1.5;"/>
   </g>
   <g id="LineCollection_8">
    <path clip-path="url(#p0872a7208e)" d="M 540 619.267839 
L 540 476.786132 
" style="fill:none;stroke:#ff7f0e;stroke-width:1.5;"/>
   </g>
   <g id="LineCollection_9">
    <path clip-path="url(#p0872a7208e)" d="M 743.007519 582.755054 
L 743.007519 429.704799 
" style="fill:none;stroke:#ff7f0e;stroke-width:1.5;"/>
   </g>
   <g id="LineCollection_10">
    <path clip-path="url(#p0872a7208e)" d="M 946.015038 529.536162 
L 946.015038 362.631813 
" style="fill:none;stroke:#ff7f0e;stroke-width:1.5;"/>
   </g>
   <g id="LineCollection_11">
    <path clip-path="url(#p0872a7208e)" d="M 149.210526 846.470179 
L 149.210526 596.061498 
" style="fill:none;stroke:#008000;stroke-width:1.5;"/>
   </g>
   <g id="LineCollection_12">
    <path clip-path="url(#p0872a7208e)" d="M 352.218045 690.702124 
L 352.218045 532.955176 
" style="fill:none;stroke:#008000;stroke-width:1.5;"/>
   </g>
   <g id="LineCollection_13">
    <path clip-path="url(#p0872a7208e)" d="M 555.225564 617.005286 
L 555.225564 484.052512 
" style="fill:none;stroke:#008000;stroke-width:1.5;"/>
   </g>
   <g id="LineCollection_14">
    <path clip-path="url(#p0872a7208e)" d="M 758.233083 584.350483 
L 758.233083 444.810613 
" style="fill:none;stroke:#008000;stroke-width:1.5;"/>
   </g>
   <g id="LineCollection_15">
    <path clip-path="url(#p0872a7208e)" d="M 961.240602 526.036383 
L 961.240602 363.321434 
" style="fill:none;stroke:#008000;stroke-width:1.5;"/>
   </g>
   <g id="line2d_16">
    <defs>
     <path d="M 10 0 
L -10 -0 
" id="me374463e67" style="stroke:#0000ff;"/>
    </defs>
    <g clip-path="url(#p0872a7208e)">
     <use style="fill:#0000ff;stroke:#0000ff;" x="118.759398" xlink:href="#me374463e67" y="796.826907"/>
    </g>
   </g>
   <g id="line2d_17">
    <g clip-path="url(#p0872a7208e)">
     <use style="fill:#0000ff;stroke:#0000ff;" x="118.759398" xlink:href="#me374463e67" y="567.733354"/>
    </g>
   </g>
   <g id="line2d_18">
    <g clip-path="url(#p0872a7208e)">
     <use style="fill:#0000ff;stroke:#0000ff;" x="321.766917" xlink:href="#me374463e67" y="658.202415"/>
    </g>
   </g>
   <g id="line2d_19">
    <g clip-path="url(#p0872a7208e)">
     <use style="fill:#0000ff;stroke:#0000ff;" x="321.766917" xlink:href="#me374463e67" y="513.036809"/>
    </g>
   </g>
   <g id="line2d_20">
    <g clip-path="url(#p0872a7208e)">
     <use style="fill:#0000ff;stroke:#0000ff;" x="524.774436" xlink:href="#me374463e67" y="665.396996"/>
    </g>
   </g>
   <g id="line2d_21">
    <g clip-path="url(#p0872a7208e)">
     <use style="fill:#0000ff;stroke:#0000ff;" x="524.774436" xlink:href="#me374463e67" y="488.569938"/>
    </g>
   </g>
   <g id="line2d_22">
    <g clip-path="url(#p0872a7208e)">
     <use style="fill:#0000ff;stroke:#0000ff;" x="727.781955" xlink:href="#me374463e67" y="598.372492"/>
    </g>
   </g>
   <g id="line2d_23">
    <g clip-path="url(#p0872a7208e)">
     <use style="fill:#0000ff;stroke:#0000ff;" x="727.781955" xlink:href="#me374463e67" y="459.707435"/>
    </g>
   </g>
   <g id="line2d_24">
    <g clip-path="url(#p0872a7208e)">
     <use style="fill:#0000ff;stroke:#0000ff;" x="930.789474" xlink:href="#me374463e67" y="540.564443"/>
    </g>
   </g>
   <g id="line2d_25">
    <g clip-path="url(#p0872a7208e)">
     <use style="fill:#0000ff;stroke:#0000ff;" x="930.789474" xlink:href="#me374463e67" y="388.143359"/>
    </g>
   </g>
   <g id="line2d_26">
    <path clip-path="url(#p0872a7208e)" d="M 42.885208 666.07867 
L 52.890756 663.730653 
L 62.896304 661.382636 
L 72.901852 659.034619 
L 82.9074 656.686602 
L 92.912948 654.338585 
L 102.918496 651.990568 
L 112.924044 649.642551 
L 122.929592 647.294534 
L 132.93514 644.946517 
L 142.940688 642.5985 
L 152.946236 640.250483 
L 162.951784 637.902466 
L 172.957332 635.554449 
L 182.96288 633.206432 
L 192.968428 630.858415 
L 202.973976 628.510399 
L 212.979524 626.162382 
L 222.985072 623.814365 
L 232.99062 621.466348 
L 242.996168 619.118331 
L 253.001716 616.770314 
L 263.007264 614.422297 
L 273.012812 612.07428 
L 283.01836 609.726263 
L 293.023908 607.378246 
L 303.029456 605.030229 
L 313.035004 602.682212 
L 323.040552 600.334195 
L 333.0461 597.986178 
L 343.051648 595.638161 
L 353.057196 593.290144 
L 363.062744 590.942127 
L 373.068292 588.59411 
L 383.07384 586.246093 
L 393.079388 583.898076 
L 403.084936 581.550059 
L 413.090484 579.202042 
L 423.096032 576.854025 
L 433.10158 574.506008 
L 443.107128 572.157991 
L 453.112676 569.809974 
L 463.118224 567.461957 
L 473.123772 565.11394 
L 483.12932 562.765923 
L 493.134868 560.417906 
L 503.140416 558.069889 
L 513.145964 555.721872 
L 523.151512 553.373855 
L 533.15706 551.025838 
L 543.162608 548.677821 
L 553.168156 546.329804 
L 563.173704 543.981787 
L 573.179252 541.63377 
L 583.1848 539.285753 
L 593.190348 536.937736 
L 603.195897 534.589719 
L 613.201445 532.241702 
L 623.206993 529.893685 
L 633.212541 527.545668 
L 643.218089 525.197651 
L 653.223637 522.849634 
L 663.229185 520.501617 
L 673.234733 518.1536 
L 683.240281 515.805583 
L 693.245829 513.457566 
L 703.251377 511.109549 
L 713.256925 508.761532 
L 723.262473 506.413515 
L 733.268021 504.065498 
L 743.273569 501.717481 
L 753.279117 499.369464 
L 763.284665 497.021447 
L 773.290213 494.67343 
L 783.295761 492.325413 
L 793.301309 489.977396 
L 803.306857 487.629379 
L 813.312405 485.281362 
L 823.317953 482.933345 
L 833.323501 480.585328 
L 843.329049 478.237311 
L 853.334597 475.889294 
L 863.340145 473.541277 
L 873.345693 471.19326 
L 883.351241 468.845243 
L 893.356789 466.497226 
L 903.362337 464.149209 
L 913.367885 461.801192 
L 923.373433 459.453175 
L 933.378981 457.105159 
L 943.384529 454.757142 
L 953.390077 452.409125 
L 963.395625 450.061108 
L 973.401173 447.713091 
L 983.406721 445.365074 
L 993.412269 443.017057 
L 1003.417817 440.66904 
L 1013.423365 438.321023 
L 1023.428913 435.973006 
L 1033.434461 433.624989 
" style="fill:none;stroke:#0000ff;stroke-linecap:square;stroke-width:3;"/>
   </g>
   <g id="line2d_27">
    <defs>
     <path d="M 10 0 
L -10 -0 
" id="md03aa35d9c" style="stroke:#ff7f0e;"/>
    </defs>
    <g clip-path="url(#p0872a7208e)">
     <use style="fill:#ff7f0e;stroke:#ff7f0e;" x="133.984962" xlink:href="#md03aa35d9c" y="832.946112"/>
    </g>
   </g>
   <g id="line2d_28">
    <g clip-path="url(#p0872a7208e)">
     <use style="fill:#ff7f0e;stroke:#ff7f0e;" x="133.984962" xlink:href="#md03aa35d9c" y="581.23403"/>
    </g>
   </g>
   <g id="line2d_29">
    <g clip-path="url(#p0872a7208e)">
     <use style="fill:#ff7f0e;stroke:#ff7f0e;" x="336.992481" xlink:href="#md03aa35d9c" y="683.967318"/>
    </g>
   </g>
   <g id="line2d_30">
    <g clip-path="url(#p0872a7208e)">
     <use style="fill:#ff7f0e;stroke:#ff7f0e;" x="336.992481" xlink:href="#md03aa35d9c" y="512.265758"/>
    </g>
   </g>
   <g id="line2d_31">
    <g clip-path="url(#p0872a7208e)">
     <use style="fill:#ff7f0e;stroke:#ff7f0e;" x="540" xlink:href="#md03aa35d9c" y="619.267839"/>
    </g>
   </g>
   <g id="line2d_32">
    <g clip-path="url(#p0872a7208e)">
     <use style="fill:#ff7f0e;stroke:#ff7f0e;" x="540" xlink:href="#md03aa35d9c" y="476.786132"/>
    </g>
   </g>
   <g id="line2d_33">
    <g clip-path="url(#p0872a7208e)">
     <use style="fill:#ff7f0e;stroke:#ff7f0e;" x="743.007519" xlink:href="#md03aa35d9c" y="582.755054"/>
    </g>
   </g>
   <g id="line2d_34">
    <g clip-path="url(#p0872a7208e)">
     <use style="fill:#ff7f0e;stroke:#ff7f0e;" x="743.007519" xlink:href="#md03aa35d9c" y="429.704799"/>
    </g>
   </g>
   <g id="line2d_35">
    <g clip-path="url(#p0872a7208e)">
     <use style="fill:#ff7f0e;stroke:#ff7f0e;" x="946.015038" xlink:href="#md03aa35d9c" y="529.536162"/>
    </g>
   </g>
   <g id="line2d_36">
    <g clip-path="url(#p0872a7208e)">
     <use style="fill:#ff7f0e;stroke:#ff7f0e;" x="946.015038" xlink:href="#md03aa35d9c" y="362.631813"/>
    </g>
   </g>
   <g id="line2d_37">
    <path clip-path="url(#p0872a7208e)" d="M 68.745263 686.644293 
L 78.077257 683.727352 
L 87.40925 680.810412 
L 96.741244 677.893472 
L 106.073238 674.976531 
L 115.405232 672.059591 
L 124.737225 669.142651 
L 134.069219 666.22571 
L 143.401213 663.30877 
L 152.733207 660.39183 
L 162.065201 657.47489 
L 171.397194 654.557949 
L 180.729188 651.641009 
L 190.061182 648.724069 
L 199.393176 645.807128 
L 208.725169 642.890188 
L 218.057163 639.973248 
L 227.389157 637.056307 
L 236.721151 634.139367 
L 246.053145 631.222427 
L 255.385138 628.305487 
L 264.717132 625.388546 
L 274.049126 622.471606 
L 283.38112 619.554666 
L 292.713113 616.637725 
L 302.045107 613.720785 
L 311.377101 610.803845 
L 320.709095 607.886904 
L 330.041089 604.969964 
L 339.373082 602.053024 
L 348.705076 599.136083 
L 358.03707 596.219143 
L 367.369064 593.302203 
L 376.701057 590.385263 
L 386.033051 587.468322 
L 395.365045 584.551382 
L 404.697039 581.634442 
L 414.029033 578.717501 
L 423.361026 575.800561 
L 432.69302 572.883621 
L 442.025014 569.96668 
L 451.357008 567.04974 
L 460.689001 564.1328 
L 470.020995 561.215859 
L 479.352989 558.298919 
L 488.684983 555.381979 
L 498.016977 552.465039 
L 507.34897 549.548098 
L 516.680964 546.631158 
L 526.012958 543.714218 
L 535.344952 540.797277 
L 544.676945 537.880337 
L 554.008939 534.963397 
L 563.340933 532.046456 
L 572.672927 529.129516 
L 582.004921 526.212576 
L 591.336914 523.295635 
L 600.668908 520.378695 
L 610.000902 517.461755 
L 619.332896 514.544815 
L 628.664889 511.627874 
L 637.996883 508.710934 
L 647.328877 505.793994 
L 656.660871 502.877053 
L 665.992865 499.960113 
L 675.324858 497.043173 
L 684.656852 494.126232 
L 693.988846 491.209292 
L 703.32084 488.292352 
L 712.652833 485.375411 
L 721.984827 482.458471 
L 731.316821 479.541531 
L 740.648815 476.624591 
L 749.980809 473.70765 
L 759.312802 470.79071 
L 768.644796 467.87377 
L 777.97679 464.956829 
L 787.308784 462.039889 
L 796.640777 459.122949 
L 805.972771 456.206008 
L 815.304765 453.289068 
L 824.636759 450.372128 
L 833.968753 447.455187 
L 843.300746 444.538247 
L 852.63274 441.621307 
L 861.964734 438.704367 
L 871.296728 435.787426 
L 880.628721 432.870486 
L 889.960715 429.953546 
L 899.292709 427.036605 
L 908.624703 424.119665 
L 917.956697 421.202725 
L 927.28869 418.285784 
L 936.620684 415.368844 
L 945.952678 412.451904 
L 955.284672 409.534963 
L 964.616665 406.618023 
L 973.948659 403.701083 
L 983.280653 400.784143 
L 992.612647 397.867202 
" style="fill:none;stroke:#ff7f0e;stroke-linecap:square;stroke-width:3;"/>
   </g>
   <g id="line2d_38">
    <defs>
     <path d="M 10 0 
L -10 -0 
" id="m960ab46f53" style="stroke:#008000;"/>
    </defs>
    <g clip-path="url(#p0872a7208e)">
     <use style="fill:#008000;stroke:#008000;" x="149.210526" xlink:href="#m960ab46f53" y="846.470179"/>
    </g>
   </g>
   <g id="line2d_39">
    <g clip-path="url(#p0872a7208e)">
     <use style="fill:#008000;stroke:#008000;" x="149.210526" xlink:href="#m960ab46f53" y="596.061498"/>
    </g>
   </g>
   <g id="line2d_40">
    <g clip-path="url(#p0872a7208e)">
     <use style="fill:#008000;stroke:#008000;" x="352.218045" xlink:href="#m960ab46f53" y="690.702124"/>
    </g>
   </g>
   <g id="line2d_41">
    <g clip-path="url(#p0872a7208e)">
     <use style="fill:#008000;stroke:#008000;" x="352.218045" xlink:href="#m960ab46f53" y="532.955176"/>
    </g>
   </g>
   <g id="line2d_42">
    <g clip-path="url(#p0872a7208e)">
     <use style="fill:#008000;stroke:#008000;" x="555.225564" xlink:href="#m960ab46f53" y="617.005286"/>
    </g>
   </g>
   <g id="line2d_43">
    <g clip-path="url(#p0872a7208e)">
     <use style="fill:#008000;stroke:#008000;" x="555.225564" xlink:href="#m960ab46f53" y="484.052512"/>
    </g>
   </g>
   <g id="line2d_44">
    <g clip-path="url(#p0872a7208e)">
     <use style="fill:#008000;stroke:#008000;" x="758.233083" xlink:href="#m960ab46f53" y="584.350483"/>
    </g>
   </g>
   <g id="line2d_45">
    <g clip-path="url(#p0872a7208e)">
     <use style="fill:#008000;stroke:#008000;" x="758.233083" xlink:href="#m960ab46f53" y="444.810613"/>
    </g>
   </g>
   <g id="line2d_46">
    <g clip-path="url(#p0872a7208e)">
     <use style="fill:#008000;stroke:#008000;" x="961.240602" xlink:href="#m960ab46f53" y="526.036383"/>
    </g>
   </g>
   <g id="line2d_47">
    <g clip-path="url(#p0872a7208e)">
     <use style="fill:#008000;stroke:#008000;" x="961.240602" xlink:href="#m960ab46f53" y="363.321434"/>
    </g>
   </g>
   <g id="line2d_48">
    <path clip-path="url(#p0872a7208e)" d="M 68.609757 701.943395 
L 78.036453 698.893986 
L 87.463148 695.844577 
L 96.889843 692.795167 
L 106.316539 689.745758 
L 115.743234 686.696349 
L 125.169929 683.646939 
L 134.596624 680.59753 
L 144.02332 677.54812 
L 153.450015 674.498711 
L 162.87671 671.449302 
L 172.303406 668.399892 
L 181.730101 665.350483 
L 191.156796 662.301073 
L 200.583492 659.251664 
L 210.010187 656.202255 
L 219.436882 653.152845 
L 228.863578 650.103436 
L 238.290273 647.054027 
L 247.716968 644.004617 
L 257.143663 640.955208 
L 266.570359 637.905798 
L 275.997054 634.856389 
L 285.423749 631.80698 
L 294.850445 628.75757 
L 304.27714 625.708161 
L 313.703835 622.658751 
L 323.130531 619.609342 
L 332.557226 616.559933 
L 341.983921 613.510523 
L 351.410616 610.461114 
L 360.837312 607.411704 
L 370.264007 604.362295 
L 379.690702 601.312886 
L 389.117398 598.263476 
L 398.544093 595.214067 
L 407.970788 592.164658 
L 417.397484 589.115248 
L 426.824179 586.065839 
L 436.250874 583.016429 
L 445.67757 579.96702 
L 455.104265 576.917611 
L 464.53096 573.868201 
L 473.957655 570.818792 
L 483.384351 567.769382 
L 492.811046 564.719973 
L 502.237741 561.670564 
L 511.664437 558.621154 
L 521.091132 555.571745 
L 530.517827 552.522336 
L 539.944523 549.472926 
L 549.371218 546.423517 
L 558.797913 543.374107 
L 568.224609 540.324698 
L 577.651304 537.275289 
L 587.077999 534.225879 
L 596.504694 531.17647 
L 605.93139 528.12706 
L 615.358085 525.077651 
L 624.78478 522.028242 
L 634.211476 518.978832 
L 643.638171 515.929423 
L 653.064866 512.880014 
L 662.491562 509.830604 
L 671.918257 506.781195 
L 681.344952 503.731785 
L 690.771648 500.682376 
L 700.198343 497.632967 
L 709.625038 494.583557 
L 719.051733 491.534148 
L 728.478429 488.484738 
L 737.905124 485.435329 
L 747.331819 482.38592 
L 756.758515 479.33651 
L 766.18521 476.287101 
L 775.611905 473.237692 
L 785.038601 470.188282 
L 794.465296 467.138873 
L 803.891991 464.089463 
L 813.318686 461.040054 
L 822.745382 457.990645 
L 832.172077 454.941235 
L 841.598772 451.891826 
L 851.025468 448.842416 
L 860.452163 445.793007 
L 869.878858 442.743598 
L 879.305554 439.694188 
L 888.732249 436.644779 
L 898.158944 433.595369 
L 907.58564 430.54596 
L 917.012335 427.496551 
L 926.43903 424.447141 
L 935.865725 421.397732 
L 945.292421 418.348323 
L 954.719116 415.298913 
L 964.145811 412.249504 
L 973.572507 409.200094 
L 982.999202 406.150685 
L 992.425897 403.101276 
L 1001.852593 400.051866 
" style="fill:none;stroke:#008000;stroke-linecap:square;stroke-width:3;"/>
   </g>
   <g id="line2d_49">
    <path clip-path="url(#p0872a7208e)" d="M 118.759398 796.826907 
" style="fill:none;stroke:#0000ff;stroke-linecap:square;stroke-width:1.5;"/>
   </g>
   <g id="line2d_50">
    <path clip-path="url(#p0872a7208e)" d="M 321.766917 658.202415 
" style="fill:none;stroke:#0000ff;stroke-linecap:square;stroke-width:1.5;"/>
   </g>
   <g id="line2d_51">
    <path clip-path="url(#p0872a7208e)" d="M 524.774436 665.396996 
" style="fill:none;stroke:#0000ff;stroke-linecap:square;stroke-width:1.5;"/>
   </g>
   <g id="line2d_52">
    <path clip-path="url(#p0872a7208e)" d="M 727.781955 598.372492 
" style="fill:none;stroke:#0000ff;stroke-linecap:square;stroke-width:1.5;"/>
   </g>
   <g id="line2d_53">
    <path clip-path="url(#p0872a7208e)" d="M 930.789474 540.564443 
" style="fill:none;stroke:#0000ff;stroke-linecap:square;stroke-width:1.5;"/>
   </g>
   <g id="line2d_54">
    <path clip-path="url(#p0872a7208e)" d="M 133.984962 832.946112 
" style="fill:none;stroke:#ff7f0e;stroke-linecap:square;stroke-width:1.5;"/>
   </g>
   <g id="line2d_55">
    <path clip-path="url(#p0872a7208e)" d="M 336.992481 683.967318 
" style="fill:none;stroke:#ff7f0e;stroke-linecap:square;stroke-width:1.5;"/>
   </g>
   <g id="line2d_56">
    <path clip-path="url(#p0872a7208e)" d="M 540 619.267839 
" style="fill:none;stroke:#ff7f0e;stroke-linecap:square;stroke-width:1.5;"/>
   </g>
   <g id="line2d_57">
    <path clip-path="url(#p0872a7208e)" d="M 743.007519 582.755054 
" style="fill:none;stroke:#ff7f0e;stroke-linecap:square;stroke-width:1.5;"/>
   </g>
   <g id="line2d_58">
    <path clip-path="url(#p0872a7208e)" d="M 946.015038 529.536162 
" style="fill:none;stroke:#ff7f0e;stroke-linecap:square;stroke-width:1.5;"/>
   </g>
   <g id="line2d_59">
    <path clip-path="url(#p0872a7208e)" d="M 149.210526 846.470179 
" style="fill:none;stroke:#008000;stroke-linecap:square;stroke-width:1.5;"/>
   </g>
   <g id="line2d_60">
    <path clip-path="url(#p0872a7208e)" d="M 352.218045 690.702124 
" style="fill:none;stroke:#008000;stroke-linecap:square;stroke-width:1.5;"/>
   </g>
   <g id="line2d_61">
    <path clip-path="url(#p0872a7208e)" d="M 555.225564 617.005286 
" style="fill:none;stroke:#008000;stroke-linecap:square;stroke-width:1.5;"/>
   </g>
   <g id="line2d_62">
    <path clip-path="url(#p0872a7208e)" d="M 758.233083 584.350483 
" style="fill:none;stroke:#008000;stroke-linecap:square;stroke-width:1.5;"/>
   </g>
   <g id="line2d_63">
    <path clip-path="url(#p0872a7208e)" d="M 961.240602 526.036383 
" style="fill:none;stroke:#008000;stroke-linecap:square;stroke-width:1.5;"/>
   </g>
   <g id="patch_3">
    <path d="M 0 1080 
L 0 0 
" style="fill:none;stroke:#000000;stroke-linecap:square;stroke-linejoin:miter;stroke-width:0.8;"/>
   </g>
   <g id="patch_4">
    <path d="M 1080 1080 
L 1080 0 
" style="fill:none;stroke:#000000;stroke-linecap:square;stroke-linejoin:miter;stroke-width:0.8;"/>
   </g>
   <g id="patch_5">
    <path d="M 0 1080 
L 1080 1080 
" style="fill:none;stroke:#000000;stroke-linecap:square;stroke-linejoin:miter;stroke-width:0.8;"/>
   </g>
   <g id="patch_6">
    <path d="M 0 0 
L 1080 0 
" style="fill:none;stroke:#000000;stroke-linecap:square;stroke-linejoin:miter;stroke-width:0.8;"/>
   </g>
  </g>
  <g id="axes_2">
   <g id="patch_7">
    <path d="M 54 324 
L 324 324 
L 324 54 
L 54 54 
z
" style="fill:#ffffff;"/>
   </g>
   <g id="PathCollection_16">
    <defs>
     <path d="M 37.080992 0 
L -37.080992 -0 
" id="m029c5da131" style="stroke:#0000ff;stroke-width:1.5;"/>
    </defs>
    <g clip-path="url(#pf7ab7464ae)">
     <use style="fill:#0000ff;stroke:#0000ff;stroke-width:1.5;" x="104.360502" xlink:href="#m029c5da131" y="239.283279"/>
    </g>
   </g>
   <g id="PathCollection_17">
    <g clip-path="url(#pf7ab7464ae)">
     <use style="fill:#0000ff;stroke:#0000ff;stroke-width:1.5;" x="104.360502" xlink:href="#m029c5da131" y="219.859953"/>
    </g>
   </g>
   <g id="PathCollection_18">
    <g clip-path="url(#pf7ab7464ae)">
     <use style="fill:#0000ff;stroke:#0000ff;stroke-width:1.5;" x="104.360502" xlink:href="#m029c5da131" y="217.096412"/>
    </g>
   </g>
   <g id="PathCollection_19">
    <g clip-path="url(#pf7ab7464ae)">
     <use style="fill:#0000ff;stroke:#0000ff;stroke-width:1.5;" x="104.360502" xlink:href="#m029c5da131" y="214.741717"/>
    </g>
   </g>
   <g id="PathCollection_20">
    <g clip-path="url(#pf7ab7464ae)">
     <use style="fill:#0000ff;stroke:#0000ff;stroke-width:1.5;" x="104.360502" xlink:href="#m029c5da131" y="207.545718"/>
    </g>
   </g>
   <g id="PathCollection_21">
    <g clip-path="url(#pf7ab7464ae)">
     <use style="fill:#0000ff;stroke:#0000ff;stroke-width:1.5;" x="104.360502" xlink:href="#m029c5da131" y="213.454963"/>
    </g>
   </g>
   <g id="PathCollection_22">
    <g clip-path="url(#pf7ab7464ae)">
     <use style="fill:#0000ff;stroke:#0000ff;stroke-width:1.5;" x="104.360502" xlink:href="#m029c5da131" y="212.807133"/>
    </g>
   </g>
   <g id="PathCollection_23">
    <g clip-path="url(#pf7ab7464ae)">
     <use style="fill:#0000ff;stroke:#0000ff;stroke-width:1.5;" x="104.360502" xlink:href="#m029c5da131" y="231.010123"/>
    </g>
   </g>
   <g id="PathCollection_24">
    <g clip-path="url(#pf7ab7464ae)">
     <use style="fill:#0000ff;stroke:#0000ff;stroke-width:1.5;" x="104.360502" xlink:href="#m029c5da131" y="225.376535"/>
    </g>
   </g>
   <g id="PathCollection_25">
    <g clip-path="url(#pf7ab7464ae)">
     <use style="fill:#0000ff;stroke:#0000ff;stroke-width:1.5;" x="104.360502" xlink:href="#m029c5da131" y="202.502805"/>
    </g>
   </g>
   <g id="PathCollection_26">
    <g clip-path="url(#pf7ab7464ae)">
     <use style="fill:#0000ff;stroke:#0000ff;stroke-width:1.5;" x="104.360502" xlink:href="#m029c5da131" y="217.853182"/>
    </g>
   </g>
   <g id="PathCollection_27">
    <g clip-path="url(#pf7ab7464ae)">
     <use style="fill:#0000ff;stroke:#0000ff;stroke-width:1.5;" x="104.360502" xlink:href="#m029c5da131" y="243.50407"/>
    </g>
   </g>
   <g id="PathCollection_28">
    <defs>
     <path d="M 37.080992 0 
L -37.080992 -0 
" id="m86d51a5425" style="stroke:#ff7f0e;stroke-width:1.5;"/>
    </defs>
    <g clip-path="url(#pf7ab7464ae)">
     <use style="fill:#ff7f0e;stroke:#ff7f0e;stroke-width:1.5;" x="189" xlink:href="#m86d51a5425" y="220.967361"/>
    </g>
   </g>
   <g id="PathCollection_29">
    <g clip-path="url(#pf7ab7464ae)">
     <use style="fill:#ff7f0e;stroke:#ff7f0e;stroke-width:1.5;" x="189" xlink:href="#m86d51a5425" y="225.985218"/>
    </g>
   </g>
   <g id="PathCollection_30">
    <g clip-path="url(#pf7ab7464ae)">
     <use style="fill:#ff7f0e;stroke:#ff7f0e;stroke-width:1.5;" x="189" xlink:href="#m86d51a5425" y="209.99857"/>
    </g>
   </g>
   <g id="PathCollection_31">
    <g clip-path="url(#pf7ab7464ae)">
     <use style="fill:#ff7f0e;stroke:#ff7f0e;stroke-width:1.5;" x="189" xlink:href="#m86d51a5425" y="218.368788"/>
    </g>
   </g>
   <g id="PathCollection_32">
    <g clip-path="url(#pf7ab7464ae)">
     <use style="fill:#ff7f0e;stroke:#ff7f0e;stroke-width:1.5;" x="189" xlink:href="#m86d51a5425" y="218.104431"/>
    </g>
   </g>
   <g id="PathCollection_33">
    <g clip-path="url(#pf7ab7464ae)">
     <use style="fill:#ff7f0e;stroke:#ff7f0e;stroke-width:1.5;" x="189" xlink:href="#m86d51a5425" y="215.273544"/>
    </g>
   </g>
   <g id="PathCollection_34">
    <g clip-path="url(#pf7ab7464ae)">
     <use style="fill:#ff7f0e;stroke:#ff7f0e;stroke-width:1.5;" x="189" xlink:href="#m86d51a5425" y="219.607569"/>
    </g>
   </g>
   <g id="PathCollection_35">
    <g clip-path="url(#pf7ab7464ae)">
     <use style="fill:#ff7f0e;stroke:#ff7f0e;stroke-width:1.5;" x="189" xlink:href="#m86d51a5425" y="244.210056"/>
    </g>
   </g>
   <g id="PathCollection_36">
    <g clip-path="url(#pf7ab7464ae)">
     <use style="fill:#ff7f0e;stroke:#ff7f0e;stroke-width:1.5;" x="189" xlink:href="#m86d51a5425" y="228.114418"/>
    </g>
   </g>
   <g id="PathCollection_37">
    <g clip-path="url(#pf7ab7464ae)">
     <use style="fill:#ff7f0e;stroke:#ff7f0e;stroke-width:1.5;" x="189" xlink:href="#m86d51a5425" y="203.461626"/>
    </g>
   </g>
   <g id="PathCollection_38">
    <g clip-path="url(#pf7ab7464ae)">
     <use style="fill:#ff7f0e;stroke:#ff7f0e;stroke-width:1.5;" x="189" xlink:href="#m86d51a5425" y="214.685043"/>
    </g>
   </g>
   <g id="PathCollection_39">
    <g clip-path="url(#pf7ab7464ae)">
     <use style="fill:#ff7f0e;stroke:#ff7f0e;stroke-width:1.5;" x="189" xlink:href="#m86d51a5425" y="253.192327"/>
    </g>
   </g>
   <g id="PathCollection_40">
    <defs>
     <path d="M 37.080992 0 
L -37.080992 -0 
" id="m752a032f91" style="stroke:#008000;stroke-width:1.5;"/>
    </defs>
    <g clip-path="url(#pf7ab7464ae)">
     <use style="fill:#008000;stroke:#008000;stroke-width:1.5;" x="273.639498" xlink:href="#m752a032f91" y="226.557579"/>
    </g>
   </g>
   <g id="PathCollection_41">
    <g clip-path="url(#pf7ab7464ae)">
     <use style="fill:#008000;stroke:#008000;stroke-width:1.5;" x="273.639498" xlink:href="#m752a032f91" y="209.480967"/>
    </g>
   </g>
   <g id="PathCollection_42">
    <g clip-path="url(#pf7ab7464ae)">
     <use style="fill:#008000;stroke:#008000;stroke-width:1.5;" x="273.639498" xlink:href="#m752a032f91" y="204.432037"/>
    </g>
   </g>
   <g id="PathCollection_43">
    <g clip-path="url(#pf7ab7464ae)">
     <use style="fill:#008000;stroke:#008000;stroke-width:1.5;" x="273.639498" xlink:href="#m752a032f91" y="204.222428"/>
    </g>
   </g>
   <g id="PathCollection_44">
    <g clip-path="url(#pf7ab7464ae)">
     <use style="fill:#008000;stroke:#008000;stroke-width:1.5;" x="273.639498" xlink:href="#m752a032f91" y="201.999141"/>
    </g>
   </g>
   <g id="PathCollection_45">
    <g clip-path="url(#pf7ab7464ae)">
     <use style="fill:#008000;stroke:#008000;stroke-width:1.5;" x="273.639498" xlink:href="#m752a032f91" y="208.397749"/>
    </g>
   </g>
   <g id="PathCollection_46">
    <g clip-path="url(#pf7ab7464ae)">
     <use style="fill:#008000;stroke:#008000;stroke-width:1.5;" x="273.639498" xlink:href="#m752a032f91" y="199.409078"/>
    </g>
   </g>
   <g id="PathCollection_47">
    <g clip-path="url(#pf7ab7464ae)">
     <use style="fill:#008000;stroke:#008000;stroke-width:1.5;" x="273.639498" xlink:href="#m752a032f91" y="230.910377"/>
    </g>
   </g>
   <g id="PathCollection_48">
    <g clip-path="url(#pf7ab7464ae)">
     <use style="fill:#008000;stroke:#008000;stroke-width:1.5;" x="273.639498" xlink:href="#m752a032f91" y="217.403895"/>
    </g>
   </g>
   <g id="PathCollection_49">
    <g clip-path="url(#pf7ab7464ae)">
     <use style="fill:#008000;stroke:#008000;stroke-width:1.5;" x="273.639498" xlink:href="#m752a032f91" y="189.333245"/>
    </g>
   </g>
   <g id="PathCollection_50">
    <g clip-path="url(#pf7ab7464ae)">
     <use style="fill:#008000;stroke:#008000;stroke-width:1.5;" x="273.639498" xlink:href="#m752a032f91" y="197.838519"/>
    </g>
   </g>
   <g id="PathCollection_51">
    <g clip-path="url(#pf7ab7464ae)">
     <use style="fill:#008000;stroke:#008000;stroke-width:1.5;" x="273.639498" xlink:href="#m752a032f91" y="234.303275"/>
    </g>
   </g>
   <g id="patch_8">
    <path clip-path="url(#pf7ab7464ae)" d="M 66.272727 324 
L 142.448276 324 
L 142.448276 223.260139 
L 66.272727 223.260139 
z
" style="fill:#0000ff;opacity:0.4;"/>
   </g>
   <g id="patch_9">
    <path clip-path="url(#pf7ab7464ae)" d="M 150.912226 324 
L 227.087774 324 
L 227.087774 225.719278 
L 150.912226 225.719278 
z
" style="fill:#ff7f0e;opacity:0.4;"/>
   </g>
   <g id="patch_10">
    <path clip-path="url(#pf7ab7464ae)" d="M 235.551724 324 
L 311.727273 324 
L 311.727273 213.067435 
L 235.551724 213.067435 
z
" style="fill:#008000;opacity:0.4;"/>
   </g>
   <g id="matplotlib.axis_3">
    <g id="xtick_7">
     <g id="line2d_64">
      <g>
       <use style="stroke:#000000;stroke-width:0.8;" x="104.360502" xlink:href="#m4411be6271" y="324"/>
      </g>
     </g>
    </g>
    <g id="xtick_8">
     <g id="line2d_65">
      <g>
       <use style="stroke:#000000;stroke-width:0.8;" x="189" xlink:href="#m4411be6271" y="324"/>
      </g>
     </g>
    </g>
    <g id="xtick_9">
     <g id="line2d_66">
      <g>
       <use style="stroke:#000000;stroke-width:0.8;" x="273.639498" xlink:href="#m4411be6271" y="324"/>
      </g>
     </g>
    </g>
   </g>
   <g id="matplotlib.axis_4">
    <g id="ytick_10">
     <g id="line2d_67">
      <g>
       <use style="stroke:#000000;stroke-width:0.8;" x="54" xlink:href="#ma667ba6642" y="324"/>
      </g>
     </g>
     <g id="text_18">
      <!-- 0.0 -->
      <g transform="translate(11.659722 332.442708)scale(0.222222 -0.222222)">
       <use xlink:href="#DejaVuSans-48"/>
       <use x="63.623047" xlink:href="#DejaVuSans-46"/>
       <use x="95.410156" xlink:href="#DejaVuSans-48"/>
      </g>
     </g>
    </g>
    <g id="ytick_11">
     <g id="line2d_68">
      <g>
       <use style="stroke:#000000;stroke-width:0.8;" x="54" xlink:href="#ma667ba6642" y="239.625"/>
      </g>
     </g>
     <g id="text_19">
      <!-- 0.5 -->
      <g transform="translate(11.659722 248.067708)scale(0.222222 -0.222222)">
       <use xlink:href="#DejaVuSans-48"/>
       <use x="63.623047" xlink:href="#DejaVuSans-46"/>
       <use x="95.410156" xlink:href="#DejaVuSans-53"/>
      </g>
     </g>
    </g>
    <g id="ytick_12">
     <g id="line2d_69">
      <g>
       <use style="stroke:#000000;stroke-width:0.8;" x="54" xlink:href="#ma667ba6642" y="155.25"/>
      </g>
     </g>
     <g id="text_20">
      <!-- 1.0 -->
      <g transform="translate(11.659722 163.692708)scale(0.222222 -0.222222)">
       <use xlink:href="#DejaVuSans-49"/>
       <use x="63.623047" xlink:href="#DejaVuSans-46"/>
       <use x="95.410156" xlink:href="#DejaVuSans-48"/>
      </g>
     </g>
    </g>
   </g>
   <g id="LineCollection_16">
    <path clip-path="url(#pf7ab7464ae)" d="M 87.432602 121.833245 
L 290.567398 121.833245 
" style="fill:none;stroke:#000000;stroke-width:1.5;"/>
   </g>
   <g id="LineCollection_17">
    <path clip-path="url(#pf7ab7464ae)" d="M 197.46395 155.583245 
L 282.103448 155.583245 
" style="fill:none;stroke:#000000;stroke-width:1.5;"/>
   </g>
   <g id="patch_11">
    <path d="M 54 324 
L 54 54 
" style="fill:none;stroke:#000000;stroke-linecap:square;stroke-linejoin:miter;stroke-width:0.8;"/>
   </g>
   <g id="patch_12">
    <path d="M 54 324 
L 324 324 
" style="fill:none;stroke:#000000;stroke-linecap:square;stroke-linejoin:miter;stroke-width:0.8;"/>
   </g>
   <g id="text_21">
    <!-- 0.597 -->
    <defs>
     <path d="M 46 36.53125 
Q 46 50.203125 43.4375 55.78125 
Q 40.875 61.375 34.8125 61.375 
Q 28.765625 61.375 26.171875 55.78125 
Q 23.578125 50.203125 23.578125 36.53125 
Q 23.578125 22.703125 26.171875 17.03125 
Q 28.765625 11.375 34.8125 11.375 
Q 40.828125 11.375 43.40625 17.03125 
Q 46 22.703125 46 36.53125 
z
M 64.796875 36.375 
Q 64.796875 18.265625 56.984375 8.421875 
Q 49.171875 -1.421875 34.8125 -1.421875 
Q 20.40625 -1.421875 12.59375 8.421875 
Q 4.78125 18.265625 4.78125 36.375 
Q 4.78125 54.546875 12.59375 64.375 
Q 20.40625 74.21875 34.8125 74.21875 
Q 49.171875 74.21875 56.984375 64.375 
Q 64.796875 54.546875 64.796875 36.375 
z
" id="DejaVuSans-Bold-48"/>
     <path d="M 10.203125 18.890625 
L 27.78125 18.890625 
L 27.78125 0 
L 10.203125 0 
z
" id="DejaVuSans-Bold-46"/>
     <path d="M 10.59375 72.90625 
L 57.328125 72.90625 
L 57.328125 59.078125 
L 25.59375 59.078125 
L 25.59375 47.796875 
Q 27.734375 48.390625 29.90625 48.703125 
Q 32.078125 49.03125 34.421875 49.03125 
Q 47.75 49.03125 55.171875 42.359375 
Q 62.59375 35.6875 62.59375 23.78125 
Q 62.59375 11.96875 54.515625 5.265625 
Q 46.4375 -1.421875 32.078125 -1.421875 
Q 25.875 -1.421875 19.796875 -0.21875 
Q 13.71875 0.984375 7.71875 3.421875 
L 7.71875 18.21875 
Q 13.671875 14.796875 19.015625 13.078125 
Q 24.359375 11.375 29.109375 11.375 
Q 35.9375 11.375 39.859375 14.71875 
Q 43.796875 18.0625 43.796875 23.78125 
Q 43.796875 29.546875 39.859375 32.859375 
Q 35.9375 36.1875 29.109375 36.1875 
Q 25.046875 36.1875 20.453125 35.125 
Q 15.875 34.078125 10.59375 31.890625 
z
" id="DejaVuSans-Bold-53"/>
     <path d="M 10.015625 1.609375 
L 10.015625 15.09375 
Q 14.5 12.984375 18.59375 11.9375 
Q 22.703125 10.890625 26.703125 10.890625 
Q 35.109375 10.890625 39.796875 15.546875 
Q 44.484375 20.21875 45.3125 29.390625 
Q 42 26.953125 38.234375 25.734375 
Q 34.46875 24.515625 30.078125 24.515625 
Q 18.890625 24.515625 12.03125 31.03125 
Q 5.171875 37.546875 5.171875 48.1875 
Q 5.171875 59.96875 12.8125 67.046875 
Q 20.453125 74.125 33.296875 74.125 
Q 47.5625 74.125 55.375 64.5 
Q 63.1875 54.890625 63.1875 37.3125 
Q 63.1875 19.234375 54.046875 8.90625 
Q 44.921875 -1.421875 29 -1.421875 
Q 23.875 -1.421875 19.1875 -0.65625 
Q 14.5 0.09375 10.015625 1.609375 
z
M 33.203125 36.71875 
Q 38.140625 36.71875 40.625 39.90625 
Q 43.109375 43.109375 43.109375 49.515625 
Q 43.109375 55.859375 40.625 59.078125 
Q 38.140625 62.3125 33.203125 62.3125 
Q 28.265625 62.3125 25.78125 59.078125 
Q 23.296875 55.859375 23.296875 49.515625 
Q 23.296875 43.109375 25.78125 39.90625 
Q 28.265625 36.71875 33.203125 36.71875 
z
" id="DejaVuSans-Bold-57"/>
     <path d="M 6.6875 72.90625 
L 61.625 72.90625 
L 61.625 62.3125 
L 33.203125 0 
L 14.890625 0 
L 41.796875 59.078125 
L 6.6875 59.078125 
z
" id="DejaVuSans-Bold-55"/>
    </defs>
    <g style="fill:#0000ff;" transform="translate(69.216404 310.940972)scale(0.222222 -0.222222)">
     <use xlink:href="#DejaVuSans-Bold-48"/>
     <use x="69.580078" xlink:href="#DejaVuSans-Bold-46"/>
     <use x="107.568359" xlink:href="#DejaVuSans-Bold-53"/>
     <use x="177.148438" xlink:href="#DejaVuSans-Bold-57"/>
     <use x="246.728516" xlink:href="#DejaVuSans-Bold-55"/>
    </g>
   </g>
   <g id="text_22">
    <!-- $P_{real}$ -->
    <defs>
     <path d="M 44.578125 46.390625 
Q 43.21875 47.125 41.453125 47.515625 
Q 39.703125 47.90625 37.703125 47.90625 
Q 30.515625 47.90625 25.140625 42.453125 
Q 19.78125 37.015625 18.015625 27.875 
L 12.5 0 
L 3.515625 0 
L 14.203125 54.6875 
L 23.1875 54.6875 
L 21.484375 46.1875 
Q 25.046875 50.921875 30 53.453125 
Q 34.96875 56 40.578125 56 
Q 42.046875 56 43.453125 55.828125 
Q 44.875 55.671875 46.296875 55.28125 
z
" id="DejaVuSans-Oblique-114"/>
     <path d="M 48.09375 32.234375 
Q 48.25 33.015625 48.3125 33.84375 
Q 48.390625 34.671875 48.390625 35.5 
Q 48.390625 41.453125 44.890625 44.921875 
Q 41.40625 48.390625 35.40625 48.390625 
Q 28.71875 48.390625 23.578125 44.15625 
Q 18.453125 39.9375 15.828125 32.171875 
z
M 55.90625 25.203125 
L 14.109375 25.203125 
Q 13.8125 23.34375 13.71875 22.265625 
Q 13.625 21.1875 13.625 20.40625 
Q 13.625 13.625 17.796875 9.90625 
Q 21.96875 6.203125 29.59375 6.203125 
Q 35.453125 6.203125 40.671875 7.515625 
Q 45.90625 8.84375 50.390625 11.375 
L 48.6875 2.484375 
Q 43.84375 0.53125 38.6875 -0.4375 
Q 33.546875 -1.421875 28.21875 -1.421875 
Q 16.84375 -1.421875 10.71875 4.015625 
Q 4.59375 9.46875 4.59375 19.484375 
Q 4.59375 28.03125 7.640625 35.375 
Q 10.6875 42.71875 16.609375 48.484375 
Q 20.40625 52.09375 25.65625 54.046875 
Q 30.90625 56 36.8125 56 
Q 46.09375 56 51.578125 50.4375 
Q 57.078125 44.875 57.078125 35.5 
Q 57.078125 33.25 56.78125 30.6875 
Q 56.5 28.125 55.90625 25.203125 
z
" id="DejaVuSans-Oblique-101"/>
     <path d="M 53.71875 31.203125 
L 47.609375 0 
L 38.625 0 
L 40.28125 8.296875 
Q 36.328125 3.421875 31.265625 1 
Q 26.21875 -1.421875 20.015625 -1.421875 
Q 13.03125 -1.421875 8.5625 2.84375 
Q 4.109375 7.125 4.109375 13.8125 
Q 4.109375 23.390625 11.75 28.953125 
Q 19.390625 34.515625 32.8125 34.515625 
L 45.3125 34.515625 
L 45.796875 36.921875 
Q 45.90625 37.3125 45.953125 37.765625 
Q 46 38.234375 46 39.203125 
Q 46 43.5625 42.453125 45.96875 
Q 38.921875 48.390625 32.515625 48.390625 
Q 28.125 48.390625 23.5 47.265625 
Q 18.890625 46.140625 14.015625 43.890625 
L 15.578125 52.203125 
Q 20.65625 54.109375 25.515625 55.046875 
Q 30.375 56 34.90625 56 
Q 44.578125 56 49.625 51.796875 
Q 54.6875 47.609375 54.6875 39.59375 
Q 54.6875 37.984375 54.4375 35.8125 
Q 54.203125 33.640625 53.71875 31.203125 
z
M 44 27.484375 
L 35.015625 27.484375 
Q 23.96875 27.484375 18.671875 24.53125 
Q 13.375 21.578125 13.375 15.375 
Q 13.375 11.078125 16.078125 8.640625 
Q 18.796875 6.203125 23.578125 6.203125 
Q 30.90625 6.203125 36.375 11.453125 
Q 41.84375 16.703125 43.609375 25.484375 
z
" id="DejaVuSans-Oblique-97"/>
     <path d="M 18.3125 75.984375 
L 27.296875 75.984375 
L 12.5 0 
L 3.515625 0 
z
" id="DejaVuSans-Oblique-108"/>
    </defs>
    <g style="fill:#0000ff;" transform="translate(74.660502 355.232813)scale(0.3 -0.3)">
     <use transform="translate(0 0.09375)" xlink:href="#DejaVuSans-Oblique-80"/>
     <use transform="translate(60.302734 -16.3125)scale(0.7)" xlink:href="#DejaVuSans-Oblique-114"/>
     <use transform="translate(89.082031 -16.3125)scale(0.7)" xlink:href="#DejaVuSans-Oblique-101"/>
     <use transform="translate(132.148438 -16.3125)scale(0.7)" xlink:href="#DejaVuSans-Oblique-97"/>
     <use transform="translate(175.043945 -16.3125)scale(0.7)" xlink:href="#DejaVuSans-Oblique-108"/>
    </g>
   </g>
   <g id="text_23">
    <!-- 0.582 -->
    <defs>
     <path d="M 34.8125 32.625 
Q 29.546875 32.625 26.703125 29.734375 
Q 23.875 26.859375 23.875 21.484375 
Q 23.875 16.109375 26.703125 13.25 
Q 29.546875 10.40625 34.8125 10.40625 
Q 40.046875 10.40625 42.828125 13.25 
Q 45.609375 16.109375 45.609375 21.484375 
Q 45.609375 26.90625 42.828125 29.765625 
Q 40.046875 32.625 34.8125 32.625 
z
M 21.09375 38.8125 
Q 14.453125 40.828125 11.078125 44.96875 
Q 7.71875 49.125 7.71875 55.328125 
Q 7.71875 64.546875 14.59375 69.375 
Q 21.484375 74.21875 34.8125 74.21875 
Q 48.046875 74.21875 54.921875 69.40625 
Q 61.8125 64.59375 61.8125 55.328125 
Q 61.8125 49.125 58.421875 44.96875 
Q 55.03125 40.828125 48.390625 38.8125 
Q 55.8125 36.765625 59.59375 32.15625 
Q 63.375 27.546875 63.375 20.515625 
Q 63.375 9.671875 56.171875 4.125 
Q 48.96875 -1.421875 34.8125 -1.421875 
Q 20.609375 -1.421875 13.359375 4.125 
Q 6.109375 9.671875 6.109375 20.515625 
Q 6.109375 27.546875 9.890625 32.15625 
Q 13.671875 36.765625 21.09375 38.8125 
z
M 25.484375 53.421875 
Q 25.484375 49.078125 27.90625 46.734375 
Q 30.328125 44.390625 34.8125 44.390625 
Q 39.203125 44.390625 41.59375 46.734375 
Q 44 49.078125 44 53.421875 
Q 44 57.765625 41.59375 60.078125 
Q 39.203125 62.40625 34.8125 62.40625 
Q 30.328125 62.40625 27.90625 60.0625 
Q 25.484375 57.71875 25.484375 53.421875 
z
" id="DejaVuSans-Bold-56"/>
     <path d="M 28.8125 13.8125 
L 60.890625 13.8125 
L 60.890625 0 
L 7.90625 0 
L 7.90625 13.8125 
L 34.515625 37.3125 
Q 38.09375 40.53125 39.796875 43.609375 
Q 41.5 46.6875 41.5 50 
Q 41.5 55.125 38.0625 58.25 
Q 34.625 61.375 28.90625 61.375 
Q 24.515625 61.375 19.28125 59.5 
Q 14.0625 57.625 8.109375 53.90625 
L 8.109375 69.921875 
Q 14.453125 72.015625 20.65625 73.109375 
Q 26.859375 74.21875 32.8125 74.21875 
Q 45.90625 74.21875 53.15625 68.453125 
Q 60.40625 62.703125 60.40625 52.390625 
Q 60.40625 46.4375 57.328125 41.28125 
Q 54.25 36.140625 44.390625 27.484375 
z
" id="DejaVuSans-Bold-50"/>
    </defs>
    <g style="fill:#ff7f0e;" transform="translate(153.855903 310.940972)scale(0.222222 -0.222222)">
     <use xlink:href="#DejaVuSans-Bold-48"/>
     <use x="69.580078" xlink:href="#DejaVuSans-Bold-46"/>
     <use x="107.568359" xlink:href="#DejaVuSans-Bold-53"/>
     <use x="177.148438" xlink:href="#DejaVuSans-Bold-56"/>
     <use x="246.728516" xlink:href="#DejaVuSans-Bold-50"/>
    </g>
   </g>
   <g id="text_24">
    <!-- $\hat{P}_{leaky}$ -->
    <defs>
     <path d="M 18.3125 75.984375 
L 27.296875 75.984375 
L 18.703125 31.6875 
L 49.515625 54.6875 
L 61.1875 54.6875 
L 26.8125 28.515625 
L 51.90625 0 
L 41.015625 0 
L 17.671875 26.703125 
L 12.5 0 
L 3.515625 0 
z
" id="DejaVuSans-Oblique-107"/>
     <path d="M 24.8125 -5.078125 
Q 18.5625 -15.578125 14.625 -18.1875 
Q 10.6875 -20.796875 4.59375 -20.796875 
L -2.484375 -20.796875 
L -0.984375 -13.28125 
L 4.203125 -13.28125 
Q 7.953125 -13.28125 10.59375 -11.234375 
Q 13.234375 -9.1875 16.5 -3.21875 
L 19.28125 2 
L 7.171875 54.6875 
L 16.703125 54.6875 
L 25.78125 12.796875 
L 50.875 54.6875 
L 60.296875 54.6875 
z
" id="DejaVuSans-Oblique-121"/>
    </defs>
    <g style="fill:#ff7f0e;" transform="translate(151.2 365.4375)scale(0.3 -0.3)">
     <use transform="translate(62.653809 30.015625)" xlink:href="#DejaVuSans-770"/>
     <use transform="translate(0 0.609375)" xlink:href="#DejaVuSans-Oblique-80"/>
     <use transform="translate(61.259766 -15.796875)scale(0.7)" xlink:href="#DejaVuSans-Oblique-108"/>
     <use transform="translate(80.708008 -15.796875)scale(0.7)" xlink:href="#DejaVuSans-Oblique-101"/>
     <use transform="translate(123.774414 -15.796875)scale(0.7)" xlink:href="#DejaVuSans-Oblique-97"/>
     <use transform="translate(166.669922 -15.796875)scale(0.7)" xlink:href="#DejaVuSans-Oblique-107"/>
     <use transform="translate(207.207031 -15.796875)scale(0.7)" xlink:href="#DejaVuSans-Oblique-121"/>
    </g>
   </g>
   <g id="text_25">
    <!-- 0.657 -->
    <defs>
     <path d="M 36.1875 35.984375 
Q 31.25 35.984375 28.78125 32.78125 
Q 26.3125 29.59375 26.3125 23.1875 
Q 26.3125 16.796875 28.78125 13.59375 
Q 31.25 10.40625 36.1875 10.40625 
Q 41.15625 10.40625 43.625 13.59375 
Q 46.09375 16.796875 46.09375 23.1875 
Q 46.09375 29.59375 43.625 32.78125 
Q 41.15625 35.984375 36.1875 35.984375 
z
M 59.421875 71 
L 59.421875 57.515625 
Q 54.78125 59.71875 50.671875 60.765625 
Q 46.578125 61.8125 42.671875 61.8125 
Q 34.28125 61.8125 29.59375 57.140625 
Q 24.90625 52.484375 24.125 43.3125 
Q 27.34375 45.703125 31.09375 46.890625 
Q 34.859375 48.09375 39.3125 48.09375 
Q 50.484375 48.09375 57.34375 41.546875 
Q 64.203125 35.015625 64.203125 24.421875 
Q 64.203125 12.703125 56.53125 5.640625 
Q 48.875 -1.421875 35.984375 -1.421875 
Q 21.78125 -1.421875 13.984375 8.171875 
Q 6.203125 17.78125 6.203125 35.40625 
Q 6.203125 53.46875 15.3125 63.796875 
Q 24.421875 74.125 40.28125 74.125 
Q 45.3125 74.125 50.046875 73.34375 
Q 54.78125 72.5625 59.421875 71 
z
" id="DejaVuSans-Bold-54"/>
    </defs>
    <g style="fill:#008000;" transform="translate(238.495401 310.940972)scale(0.222222 -0.222222)">
     <use xlink:href="#DejaVuSans-Bold-48"/>
     <use x="69.580078" xlink:href="#DejaVuSans-Bold-46"/>
     <use x="107.568359" xlink:href="#DejaVuSans-Bold-54"/>
     <use x="177.148438" xlink:href="#DejaVuSans-Bold-53"/>
     <use x="246.728516" xlink:href="#DejaVuSans-Bold-55"/>
    </g>
   </g>
   <g id="text_26">
    <!-- $\hat{P}_{mean}$ -->
    <defs>
     <path d="M 89.796875 33.015625 
L 83.40625 0 
L 74.421875 0 
L 80.71875 32.71875 
Q 81.109375 34.8125 81.296875 36.328125 
Q 81.5 37.84375 81.5 38.921875 
Q 81.5 43.3125 79.046875 45.75 
Q 76.609375 48.1875 72.21875 48.1875 
Q 65.671875 48.1875 60.546875 43.28125 
Q 55.421875 38.375 53.90625 30.515625 
L 47.90625 0 
L 38.921875 0 
L 45.3125 32.71875 
Q 45.703125 34.515625 45.890625 36.046875 
Q 46.09375 37.59375 46.09375 38.8125 
Q 46.09375 43.265625 43.65625 45.71875 
Q 41.21875 48.1875 36.921875 48.1875 
Q 30.28125 48.1875 25.140625 43.28125 
Q 20.015625 38.375 18.5 30.515625 
L 12.5 0 
L 3.515625 0 
L 14.203125 54.6875 
L 23.1875 54.6875 
L 21.484375 46.1875 
Q 25.140625 50.984375 30.046875 53.484375 
Q 34.96875 56 40.578125 56 
Q 46.53125 56 50.359375 52.875 
Q 54.203125 49.75 54.984375 44.1875 
Q 59.078125 49.953125 64.46875 52.96875 
Q 69.875 56 75.875 56 
Q 82.90625 56 86.734375 51.953125 
Q 90.578125 47.90625 90.578125 40.484375 
Q 90.578125 38.875 90.375 36.9375 
Q 90.1875 35.015625 89.796875 33.015625 
z
" id="DejaVuSans-Oblique-109"/>
     <path d="M 55.71875 33.015625 
L 49.3125 0 
L 40.28125 0 
L 46.6875 32.671875 
Q 47.125 34.96875 47.359375 36.71875 
Q 47.609375 38.484375 47.609375 39.5 
Q 47.609375 43.609375 45.015625 45.890625 
Q 42.4375 48.1875 37.796875 48.1875 
Q 30.5625 48.1875 25.34375 43.375 
Q 20.125 38.578125 18.5 30.328125 
L 12.5 0 
L 3.515625 0 
L 14.109375 54.6875 
L 23.09375 54.6875 
L 21.296875 46.09375 
Q 25.046875 50.828125 30.3125 53.40625 
Q 35.59375 56 41.40625 56 
Q 48.640625 56 52.609375 52.09375 
Q 56.59375 48.1875 56.59375 41.109375 
Q 56.59375 39.359375 56.375 37.359375 
Q 56.15625 35.359375 55.71875 33.015625 
z
" id="DejaVuSans-Oblique-110"/>
    </defs>
    <g style="fill:#008000;" transform="translate(234.189498 364.598438)scale(0.3 -0.3)">
     <use transform="translate(62.653809 30.015625)" xlink:href="#DejaVuSans-770"/>
     <use transform="translate(0 0.609375)" xlink:href="#DejaVuSans-Oblique-80"/>
     <use transform="translate(61.259766 -15.796875)scale(0.7)" xlink:href="#DejaVuSans-Oblique-109"/>
     <use transform="translate(129.448242 -15.796875)scale(0.7)" xlink:href="#DejaVuSans-Oblique-101"/>
     <use transform="translate(172.514648 -15.796875)scale(0.7)" xlink:href="#DejaVuSans-Oblique-97"/>
     <use transform="translate(215.410156 -15.796875)scale(0.7)" xlink:href="#DejaVuSans-Oblique-110"/>
    </g>
   </g>
   <g id="text_27">
    <!-- ** -->
    <defs>
     <path d="M 47.015625 60.890625 
L 29.5 51.421875 
L 47.015625 41.890625 
L 44.1875 37.109375 
L 27.78125 47.015625 
L 27.78125 28.609375 
L 22.21875 28.609375 
L 22.21875 47.015625 
L 5.8125 37.109375 
L 2.984375 41.890625 
L 20.515625 51.421875 
L 2.984375 60.890625 
L 5.8125 65.71875 
L 22.21875 55.8125 
L 22.21875 74.21875 
L 27.78125 74.21875 
L 27.78125 55.8125 
L 44.1875 65.71875 
z
" id="DejaVuSans-42"/>
    </defs>
    <g transform="translate(174.714286 121.833245)scale(0.285714 -0.285714)">
     <use xlink:href="#DejaVuSans-42"/>
     <use x="50" xlink:href="#DejaVuSans-42"/>
    </g>
   </g>
   <g id="text_28">
    <!-- ** -->
    <g transform="translate(225.497985 155.583245)scale(0.285714 -0.285714)">
     <use xlink:href="#DejaVuSans-42"/>
     <use x="50" xlink:href="#DejaVuSans-42"/>
    </g>
   </g>
   <g id="text_29">
    <!-- r -->
    <defs>
     <path d="M 41.109375 46.296875 
Q 39.59375 47.171875 37.8125 47.578125 
Q 36.03125 48 33.890625 48 
Q 26.265625 48 22.1875 43.046875 
Q 18.109375 38.09375 18.109375 28.8125 
L 18.109375 0 
L 9.078125 0 
L 9.078125 54.6875 
L 18.109375 54.6875 
L 18.109375 46.1875 
Q 20.953125 51.171875 25.484375 53.578125 
Q 30.03125 56 36.53125 56 
Q 37.453125 56 38.578125 55.875 
Q 39.703125 55.765625 41.0625 55.515625 
z
" id="DejaVuSans-114"/>
    </defs>
    <g transform="translate(182.148438 48)scale(0.333333 -0.333333)">
     <use xlink:href="#DejaVuSans-114"/>
    </g>
   </g>
  </g>
  <g id="axes_3">
   <g id="patch_13">
    <path d="M 788.4 1004.4 
L 1058.4 1004.4 
L 1058.4 734.4 
L 788.4 734.4 
z
" style="fill:#ffffff;"/>
   </g>
   <g id="PathCollection_52">
    <g clip-path="url(#p89b3ca0d5a)">
     <use style="fill:#0000ff;stroke:#0000ff;stroke-width:1.5;" x="838.760502" xlink:href="#m029c5da131" y="969.793037"/>
    </g>
   </g>
   <g id="PathCollection_53">
    <g clip-path="url(#p89b3ca0d5a)">
     <use style="fill:#0000ff;stroke:#0000ff;stroke-width:1.5;" x="838.760502" xlink:href="#m029c5da131" y="960.790813"/>
    </g>
   </g>
   <g id="PathCollection_54">
    <g clip-path="url(#p89b3ca0d5a)">
     <use style="fill:#0000ff;stroke:#0000ff;stroke-width:1.5;" x="838.760502" xlink:href="#m029c5da131" y="957.362328"/>
    </g>
   </g>
   <g id="PathCollection_55">
    <g clip-path="url(#p89b3ca0d5a)">
     <use style="fill:#0000ff;stroke:#0000ff;stroke-width:1.5;" x="838.760502" xlink:href="#m029c5da131" y="956.451192"/>
    </g>
   </g>
   <g id="PathCollection_56">
    <g clip-path="url(#p89b3ca0d5a)">
     <use style="fill:#0000ff;stroke:#0000ff;stroke-width:1.5;" x="838.760502" xlink:href="#m029c5da131" y="946.710887"/>
    </g>
   </g>
   <g id="PathCollection_57">
    <g clip-path="url(#p89b3ca0d5a)">
     <use style="fill:#0000ff;stroke:#0000ff;stroke-width:1.5;" x="838.760502" xlink:href="#m029c5da131" y="952.218082"/>
    </g>
   </g>
   <g id="PathCollection_58">
    <g clip-path="url(#p89b3ca0d5a)">
     <use style="fill:#0000ff;stroke:#0000ff;stroke-width:1.5;" x="838.760502" xlink:href="#m029c5da131" y="947.299732"/>
    </g>
   </g>
   <g id="PathCollection_59">
    <g clip-path="url(#p89b3ca0d5a)">
     <use style="fill:#0000ff;stroke:#0000ff;stroke-width:1.5;" x="838.760502" xlink:href="#m029c5da131" y="966.361316"/>
    </g>
   </g>
   <g id="PathCollection_60">
    <g clip-path="url(#p89b3ca0d5a)">
     <use style="fill:#0000ff;stroke:#0000ff;stroke-width:1.5;" x="838.760502" xlink:href="#m029c5da131" y="963.002065"/>
    </g>
   </g>
   <g id="PathCollection_61">
    <g clip-path="url(#p89b3ca0d5a)">
     <use style="fill:#0000ff;stroke:#0000ff;stroke-width:1.5;" x="838.760502" xlink:href="#m029c5da131" y="945.055951"/>
    </g>
   </g>
   <g id="PathCollection_62">
    <g clip-path="url(#p89b3ca0d5a)">
     <use style="fill:#0000ff;stroke:#0000ff;stroke-width:1.5;" x="838.760502" xlink:href="#m029c5da131" y="954.590728"/>
    </g>
   </g>
   <g id="PathCollection_63">
    <g clip-path="url(#p89b3ca0d5a)">
     <use style="fill:#0000ff;stroke:#0000ff;stroke-width:1.5;" x="838.760502" xlink:href="#m029c5da131" y="968.071213"/>
    </g>
   </g>
   <g id="PathCollection_64">
    <g clip-path="url(#p89b3ca0d5a)">
     <use style="fill:#ff7f0e;stroke:#ff7f0e;stroke-width:1.5;" x="923.4" xlink:href="#m86d51a5425" y="954.186019"/>
    </g>
   </g>
   <g id="PathCollection_65">
    <g clip-path="url(#p89b3ca0d5a)">
     <use style="fill:#ff7f0e;stroke:#ff7f0e;stroke-width:1.5;" x="923.4" xlink:href="#m86d51a5425" y="956.054301"/>
    </g>
   </g>
   <g id="PathCollection_66">
    <g clip-path="url(#p89b3ca0d5a)">
     <use style="fill:#ff7f0e;stroke:#ff7f0e;stroke-width:1.5;" x="923.4" xlink:href="#m86d51a5425" y="942.390014"/>
    </g>
   </g>
   <g id="PathCollection_67">
    <g clip-path="url(#p89b3ca0d5a)">
     <use style="fill:#ff7f0e;stroke:#ff7f0e;stroke-width:1.5;" x="923.4" xlink:href="#m86d51a5425" y="950.623145"/>
    </g>
   </g>
   <g id="PathCollection_68">
    <g clip-path="url(#p89b3ca0d5a)">
     <use style="fill:#ff7f0e;stroke:#ff7f0e;stroke-width:1.5;" x="923.4" xlink:href="#m86d51a5425" y="944.120039"/>
    </g>
   </g>
   <g id="PathCollection_69">
    <g clip-path="url(#p89b3ca0d5a)">
     <use style="fill:#ff7f0e;stroke:#ff7f0e;stroke-width:1.5;" x="923.4" xlink:href="#m86d51a5425" y="948.859536"/>
    </g>
   </g>
   <g id="PathCollection_70">
    <g clip-path="url(#p89b3ca0d5a)">
     <use style="fill:#ff7f0e;stroke:#ff7f0e;stroke-width:1.5;" x="923.4" xlink:href="#m86d51a5425" y="934.7633"/>
    </g>
   </g>
   <g id="PathCollection_71">
    <g clip-path="url(#p89b3ca0d5a)">
     <use style="fill:#ff7f0e;stroke:#ff7f0e;stroke-width:1.5;" x="923.4" xlink:href="#m86d51a5425" y="958.903289"/>
    </g>
   </g>
   <g id="PathCollection_72">
    <g clip-path="url(#p89b3ca0d5a)">
     <use style="fill:#ff7f0e;stroke:#ff7f0e;stroke-width:1.5;" x="923.4" xlink:href="#m86d51a5425" y="954.100226"/>
    </g>
   </g>
   <g id="PathCollection_73">
    <g clip-path="url(#p89b3ca0d5a)">
     <use style="fill:#ff7f0e;stroke:#ff7f0e;stroke-width:1.5;" x="923.4" xlink:href="#m86d51a5425" y="941.849912"/>
    </g>
   </g>
   <g id="PathCollection_74">
    <g clip-path="url(#p89b3ca0d5a)">
     <use style="fill:#ff7f0e;stroke:#ff7f0e;stroke-width:1.5;" x="923.4" xlink:href="#m86d51a5425" y="944.742653"/>
    </g>
   </g>
   <g id="PathCollection_75">
    <g clip-path="url(#p89b3ca0d5a)">
     <use style="fill:#ff7f0e;stroke:#ff7f0e;stroke-width:1.5;" x="923.4" xlink:href="#m86d51a5425" y="955.84263"/>
    </g>
   </g>
   <g id="PathCollection_76">
    <g clip-path="url(#p89b3ca0d5a)">
     <use style="fill:#008000;stroke:#008000;stroke-width:1.5;" x="1008.039498" xlink:href="#m752a032f91" y="960.699732"/>
    </g>
   </g>
   <g id="PathCollection_77">
    <g clip-path="url(#p89b3ca0d5a)">
     <use style="fill:#008000;stroke:#008000;stroke-width:1.5;" x="1008.039498" xlink:href="#m752a032f91" y="945.517127"/>
    </g>
   </g>
   <g id="PathCollection_78">
    <g clip-path="url(#p89b3ca0d5a)">
     <use style="fill:#008000;stroke:#008000;stroke-width:1.5;" x="1008.039498" xlink:href="#m752a032f91" y="939.72184"/>
    </g>
   </g>
   <g id="PathCollection_79">
    <g clip-path="url(#p89b3ca0d5a)">
     <use style="fill:#008000;stroke:#008000;stroke-width:1.5;" x="1008.039498" xlink:href="#m752a032f91" y="939.452002"/>
    </g>
   </g>
   <g id="PathCollection_80">
    <g clip-path="url(#p89b3ca0d5a)">
     <use style="fill:#008000;stroke:#008000;stroke-width:1.5;" x="1008.039498" xlink:href="#m752a032f91" y="932.454602"/>
    </g>
   </g>
   <g id="PathCollection_81">
    <g clip-path="url(#p89b3ca0d5a)">
     <use style="fill:#008000;stroke:#008000;stroke-width:1.5;" x="1008.039498" xlink:href="#m752a032f91" y="942.316604"/>
    </g>
   </g>
   <g id="PathCollection_82">
    <g clip-path="url(#p89b3ca0d5a)">
     <use style="fill:#008000;stroke:#008000;stroke-width:1.5;" x="1008.039498" xlink:href="#m752a032f91" y="929.078633"/>
    </g>
   </g>
   <g id="PathCollection_83">
    <g clip-path="url(#p89b3ca0d5a)">
     <use style="fill:#008000;stroke:#008000;stroke-width:1.5;" x="1008.039498" xlink:href="#m752a032f91" y="951.491014"/>
    </g>
   </g>
   <g id="PathCollection_84">
    <g clip-path="url(#p89b3ca0d5a)">
     <use style="fill:#008000;stroke:#008000;stroke-width:1.5;" x="1008.039498" xlink:href="#m752a032f91" y="949.715892"/>
    </g>
   </g>
   <g id="PathCollection_85">
    <g clip-path="url(#p89b3ca0d5a)">
     <use style="fill:#008000;stroke:#008000;stroke-width:1.5;" x="1008.039498" xlink:href="#m752a032f91" y="926.940734"/>
    </g>
   </g>
   <g id="PathCollection_86">
    <g clip-path="url(#p89b3ca0d5a)">
     <use style="fill:#008000;stroke:#008000;stroke-width:1.5;" x="1008.039498" xlink:href="#m752a032f91" y="929.515799"/>
    </g>
   </g>
   <g id="PathCollection_87">
    <g clip-path="url(#p89b3ca0d5a)">
     <use style="fill:#008000;stroke:#008000;stroke-width:1.5;" x="1008.039498" xlink:href="#m752a032f91" y="948.716613"/>
    </g>
   </g>
   <g id="patch_14">
    <path clip-path="url(#p89b3ca0d5a)" d="M 800.672727 1004.4 
L 876.848276 1004.4 
L 876.848276 974.226282 
L 800.672727 974.226282 
z
" style="fill:#0000ff;opacity:0.4;"/>
   </g>
   <g id="patch_15">
    <path clip-path="url(#p89b3ca0d5a)" d="M 885.312226 1004.4 
L 961.487774 1004.4 
L 961.487774 974.749129 
L 885.312226 974.749129 
z
" style="fill:#ff7f0e;opacity:0.4;"/>
   </g>
   <g id="patch_16">
    <path clip-path="url(#p89b3ca0d5a)" d="M 969.951724 1004.4 
L 1046.127273 1004.4 
L 1046.127273 966.72209 
L 969.951724 966.72209 
z
" style="fill:#008000;opacity:0.4;"/>
   </g>
   <g id="matplotlib.axis_5">
    <g id="xtick_10">
     <g id="line2d_70">
      <g>
       <use style="stroke:#000000;stroke-width:0.8;" x="838.760502" xlink:href="#m4411be6271" y="1004.4"/>
      </g>
     </g>
    </g>
    <g id="xtick_11">
     <g id="line2d_71">
      <g>
       <use style="stroke:#000000;stroke-width:0.8;" x="923.4" xlink:href="#m4411be6271" y="1004.4"/>
      </g>
     </g>
    </g>
    <g id="xtick_12">
     <g id="line2d_72">
      <g>
       <use style="stroke:#000000;stroke-width:0.8;" x="1008.039498" xlink:href="#m4411be6271" y="1004.4"/>
      </g>
     </g>
    </g>
   </g>
   <g id="matplotlib.axis_6">
    <g id="ytick_13">
     <g id="line2d_73">
      <g>
       <use style="stroke:#000000;stroke-width:0.8;" x="788.4" xlink:href="#ma667ba6642" y="1004.4"/>
      </g>
     </g>
     <g id="text_30">
      <!-- 0.0 -->
      <g transform="translate(746.059722 1012.842708)scale(0.222222 -0.222222)">
       <use xlink:href="#DejaVuSans-48"/>
       <use x="63.623047" xlink:href="#DejaVuSans-46"/>
       <use x="95.410156" xlink:href="#DejaVuSans-48"/>
      </g>
     </g>
    </g>
    <g id="ytick_14">
     <g id="line2d_74">
      <g>
       <use style="stroke:#000000;stroke-width:0.8;" x="788.4" xlink:href="#ma667ba6642" y="945.704348"/>
      </g>
     </g>
     <g id="text_31">
      <!-- 0.5 -->
      <g transform="translate(746.059722 954.147056)scale(0.222222 -0.222222)">
       <use xlink:href="#DejaVuSans-48"/>
       <use x="63.623047" xlink:href="#DejaVuSans-46"/>
       <use x="95.410156" xlink:href="#DejaVuSans-53"/>
      </g>
     </g>
    </g>
    <g id="ytick_15">
     <g id="line2d_75">
      <g>
       <use style="stroke:#000000;stroke-width:0.8;" x="788.4" xlink:href="#ma667ba6642" y="887.008696"/>
      </g>
     </g>
     <g id="text_32">
      <!-- 1.0 -->
      <g transform="translate(746.059722 895.451404)scale(0.222222 -0.222222)">
       <use xlink:href="#DejaVuSans-49"/>
       <use x="63.623047" xlink:href="#DejaVuSans-46"/>
       <use x="95.410156" xlink:href="#DejaVuSans-48"/>
      </g>
     </g>
    </g>
    <g id="ytick_16">
     <g id="line2d_76">
      <g>
       <use style="stroke:#000000;stroke-width:0.8;" x="788.4" xlink:href="#ma667ba6642" y="828.313043"/>
      </g>
     </g>
     <g id="text_33">
      <!-- 1.5 -->
      <g transform="translate(746.059722 836.755752)scale(0.222222 -0.222222)">
       <use xlink:href="#DejaVuSans-49"/>
       <use x="63.623047" xlink:href="#DejaVuSans-46"/>
       <use x="95.410156" xlink:href="#DejaVuSans-53"/>
      </g>
     </g>
    </g>
    <g id="ytick_17">
     <g id="line2d_77">
      <g>
       <use style="stroke:#000000;stroke-width:0.8;" x="788.4" xlink:href="#ma667ba6642" y="769.617391"/>
      </g>
     </g>
     <g id="text_34">
      <!-- 2.0 -->
      <g transform="translate(746.059722 778.0601)scale(0.222222 -0.222222)">
       <use xlink:href="#DejaVuSans-50"/>
       <use x="63.623047" xlink:href="#DejaVuSans-46"/>
       <use x="95.410156" xlink:href="#DejaVuSans-48"/>
      </g>
     </g>
    </g>
   </g>
   <g id="LineCollection_18">
    <path clip-path="url(#p89b3ca0d5a)" d="M 830.296552 891.723342 
L 914.93605 891.723342 
" style="fill:none;stroke:#000000;stroke-width:1.5;"/>
   </g>
   <g id="LineCollection_19">
    <path clip-path="url(#p89b3ca0d5a)" d="M 821.832602 856.505951 
L 1024.967398 856.505951 
" style="fill:none;stroke:#000000;stroke-width:1.5;"/>
   </g>
   <g id="LineCollection_20">
    <path clip-path="url(#p89b3ca0d5a)" d="M 931.86395 891.723342 
L 1016.503448 891.723342 
" style="fill:none;stroke:#000000;stroke-width:1.5;"/>
   </g>
   <g id="patch_17">
    <path d="M 788.4 1004.4 
L 788.4 734.4 
" style="fill:none;stroke:#000000;stroke-linecap:square;stroke-linejoin:miter;stroke-width:0.8;"/>
   </g>
   <g id="patch_18">
    <path d="M 788.4 1004.4 
L 1058.4 1004.4 
" style="fill:none;stroke:#000000;stroke-linecap:square;stroke-linejoin:miter;stroke-width:0.8;"/>
   </g>
   <g id="text_35">
    <!-- 0.257 -->
    <g style="fill:#0000ff;" transform="translate(803.616404 993.908907)scale(0.222222 -0.222222)">
     <use xlink:href="#DejaVuSans-Bold-48"/>
     <use x="69.580078" xlink:href="#DejaVuSans-Bold-46"/>
     <use x="107.568359" xlink:href="#DejaVuSans-Bold-50"/>
     <use x="177.148438" xlink:href="#DejaVuSans-Bold-53"/>
     <use x="246.728516" xlink:href="#DejaVuSans-Bold-55"/>
    </g>
   </g>
   <g id="text_36">
    <!-- $P_{real}$ -->
    <g style="fill:#0000ff;" transform="translate(809.060502 1033.064878)scale(0.3 -0.3)">
     <use transform="translate(0 0.09375)" xlink:href="#DejaVuSans-Oblique-80"/>
     <use transform="translate(60.302734 -16.3125)scale(0.7)" xlink:href="#DejaVuSans-Oblique-114"/>
     <use transform="translate(89.082031 -16.3125)scale(0.7)" xlink:href="#DejaVuSans-Oblique-101"/>
     <use transform="translate(132.148438 -16.3125)scale(0.7)" xlink:href="#DejaVuSans-Oblique-97"/>
     <use transform="translate(175.043945 -16.3125)scale(0.7)" xlink:href="#DejaVuSans-Oblique-108"/>
    </g>
   </g>
   <g id="text_37">
    <!-- 0.253 -->
    <defs>
     <path d="M 46.578125 39.3125 
Q 53.953125 37.40625 57.78125 32.6875 
Q 61.625 27.984375 61.625 20.703125 
Q 61.625 9.859375 53.3125 4.21875 
Q 45.015625 -1.421875 29.109375 -1.421875 
Q 23.484375 -1.421875 17.84375 -0.515625 
Q 12.203125 0.390625 6.6875 2.203125 
L 6.6875 16.703125 
Q 11.96875 14.0625 17.15625 12.71875 
Q 22.359375 11.375 27.390625 11.375 
Q 34.859375 11.375 38.84375 13.953125 
Q 42.828125 16.546875 42.828125 21.390625 
Q 42.828125 26.375 38.75 28.9375 
Q 34.671875 31.5 26.703125 31.5 
L 19.1875 31.5 
L 19.1875 43.609375 
L 27.09375 43.609375 
Q 34.1875 43.609375 37.640625 45.828125 
Q 41.109375 48.046875 41.109375 52.59375 
Q 41.109375 56.78125 37.734375 59.078125 
Q 34.375 61.375 28.21875 61.375 
Q 23.6875 61.375 19.046875 60.34375 
Q 14.40625 59.328125 9.8125 57.328125 
L 9.8125 71.09375 
Q 15.375 72.65625 20.84375 73.4375 
Q 26.3125 74.21875 31.59375 74.21875 
Q 45.796875 74.21875 52.84375 69.546875 
Q 59.90625 64.890625 59.90625 55.515625 
Q 59.90625 49.125 56.53125 45.046875 
Q 53.171875 40.96875 46.578125 39.3125 
z
" id="DejaVuSans-Bold-51"/>
    </defs>
    <g style="fill:#ff7f0e;" transform="translate(888.255903 993.908907)scale(0.222222 -0.222222)">
     <use xlink:href="#DejaVuSans-Bold-48"/>
     <use x="69.580078" xlink:href="#DejaVuSans-Bold-46"/>
     <use x="107.568359" xlink:href="#DejaVuSans-Bold-50"/>
     <use x="177.148438" xlink:href="#DejaVuSans-Bold-53"/>
     <use x="246.728516" xlink:href="#DejaVuSans-Bold-51"/>
    </g>
   </g>
   <g id="text_38">
    <!-- $\hat{P}_{leaky}$ -->
    <g style="fill:#ff7f0e;" transform="translate(885.6 1043.269565)scale(0.3 -0.3)">
     <use transform="translate(62.653809 30.015625)" xlink:href="#DejaVuSans-770"/>
     <use transform="translate(0 0.609375)" xlink:href="#DejaVuSans-Oblique-80"/>
     <use transform="translate(61.259766 -15.796875)scale(0.7)" xlink:href="#DejaVuSans-Oblique-108"/>
     <use transform="translate(80.708008 -15.796875)scale(0.7)" xlink:href="#DejaVuSans-Oblique-101"/>
     <use transform="translate(123.774414 -15.796875)scale(0.7)" xlink:href="#DejaVuSans-Oblique-97"/>
     <use transform="translate(166.669922 -15.796875)scale(0.7)" xlink:href="#DejaVuSans-Oblique-107"/>
     <use transform="translate(207.207031 -15.796875)scale(0.7)" xlink:href="#DejaVuSans-Oblique-121"/>
    </g>
   </g>
   <g id="text_39">
    <!-- 0.321 -->
    <defs>
     <path d="M 11.71875 12.984375 
L 28.328125 12.984375 
L 28.328125 60.109375 
L 11.28125 56.59375 
L 11.28125 69.390625 
L 28.21875 72.90625 
L 46.09375 72.90625 
L 46.09375 12.984375 
L 62.703125 12.984375 
L 62.703125 0 
L 11.71875 0 
z
" id="DejaVuSans-Bold-49"/>
    </defs>
    <g style="fill:#008000;" transform="translate(972.895401 993.908907)scale(0.222222 -0.222222)">
     <use xlink:href="#DejaVuSans-Bold-48"/>
     <use x="69.580078" xlink:href="#DejaVuSans-Bold-46"/>
     <use x="107.568359" xlink:href="#DejaVuSans-Bold-51"/>
     <use x="177.148438" xlink:href="#DejaVuSans-Bold-50"/>
     <use x="246.728516" xlink:href="#DejaVuSans-Bold-49"/>
    </g>
   </g>
   <g id="text_40">
    <!-- $\hat{P}_{mean}$ -->
    <g style="fill:#008000;" transform="translate(968.589498 1042.430503)scale(0.3 -0.3)">
     <use transform="translate(62.653809 30.015625)" xlink:href="#DejaVuSans-770"/>
     <use transform="translate(0 0.609375)" xlink:href="#DejaVuSans-Oblique-80"/>
     <use transform="translate(61.259766 -15.796875)scale(0.7)" xlink:href="#DejaVuSans-Oblique-109"/>
     <use transform="translate(129.448242 -15.796875)scale(0.7)" xlink:href="#DejaVuSans-Oblique-101"/>
     <use transform="translate(172.514648 -15.796875)scale(0.7)" xlink:href="#DejaVuSans-Oblique-97"/>
     <use transform="translate(215.410156 -15.796875)scale(0.7)" xlink:href="#DejaVuSans-Oblique-110"/>
    </g>
   </g>
   <g id="text_41">
    <!-- ** -->
    <g transform="translate(855.949634 891.723342)scale(0.333333 -0.333333)">
     <use xlink:href="#DejaVuSans-42"/>
     <use x="50" xlink:href="#DejaVuSans-42"/>
    </g>
   </g>
   <g id="text_42">
    <!-- ** -->
    <g transform="translate(906.733333 856.505951)scale(0.333333 -0.333333)">
     <use xlink:href="#DejaVuSans-42"/>
     <use x="50" xlink:href="#DejaVuSans-42"/>
    </g>
   </g>
   <g id="text_43">
    <!-- ** -->
    <g transform="translate(957.517032 891.723342)scale(0.333333 -0.333333)">
     <use xlink:href="#DejaVuSans-42"/>
     <use x="50" xlink:href="#DejaVuSans-42"/>
    </g>
   </g>
   <g id="text_44">
    <!-- MI -->
    <defs>
     <path d="M 9.8125 72.90625 
L 24.515625 72.90625 
L 43.109375 23.296875 
L 61.8125 72.90625 
L 76.515625 72.90625 
L 76.515625 0 
L 66.890625 0 
L 66.890625 64.015625 
L 48.09375 14.015625 
L 38.1875 14.015625 
L 19.390625 64.015625 
L 19.390625 0 
L 9.8125 0 
z
" id="DejaVuSans-77"/>
     <path d="M 9.8125 72.90625 
L 19.671875 72.90625 
L 19.671875 0 
L 9.8125 0 
z
" id="DejaVuSans-73"/>
    </defs>
    <g transform="translate(904.103125 728.4)scale(0.333333 -0.333333)">
     <use xlink:href="#DejaVuSans-77"/>
     <use x="86.279297" xlink:href="#DejaVuSans-73"/>
    </g>
   </g>
  </g>
 </g>
 <defs>
  <clipPath id="p0872a7208e">
   <rect height="1080" width="1080" x="0" y="0"/>
  </clipPath>
  <clipPath id="pf7ab7464ae">
   <rect height="270" width="270" x="54" y="54"/>
  </clipPath>
  <clipPath id="p89b3ca0d5a">
   <rect height="270" width="270" x="788.4" y="734.4"/>
  </clipPath>
 </defs>
</svg>
