<?xml version="1.0" encoding="utf-8" standalone="no"?>
<!DOCTYPE svg PUBLIC "-//W3C//DTD SVG 1.1//EN"
  "http://www.w3.org/Graphics/SVG/1.1/DTD/svg11.dtd">
<!-- Created with matplotlib (http://matplotlib.org/) -->
<svg height="1080pt" version="1.1" viewBox="0 0 1080 1080" width="1080pt" xmlns="http://www.w3.org/2000/svg" xmlns:xlink="http://www.w3.org/1999/xlink">
 <defs>
  <style type="text/css">
*{stroke-linecap:butt;stroke-linejoin:round;}
  </style>
 </defs>
 <g id="figure_1">
  <g id="patch_1">
   <path d="M 0 1080 
L 1080 1080 
L 1080 0 
L 0 0 
z
" style="fill:#ffffff;"/>
  </g>
  <g id="axes_1">
   <g id="patch_2">
    <path d="M 236.158573 885.341427 
L 1048.436334 885.341427 
L 1048.436334 6.50024 
L 236.158573 6.50024 
z
" style="fill:#ffffff;"/>
   </g>
   <g id="matplotlib.axis_1">
    <g id="xtick_1">
     <g id="line2d_1">
      <defs>
       <path d="M 0 0 
L 0 3.5 
" id="m19021540ab" style="stroke:#000000;stroke-width:0.8;"/>
      </defs>
      <g>
       <use style="stroke:#000000;stroke-width:0.8;" x="260.58798" xlink:href="#m19021540ab" y="885.341427"/>
      </g>
     </g>
     <g id="text_1">
      <!-- 0.0 -->
      <defs>
       <path d="M 31.78125 66.40625 
Q 24.171875 66.40625 20.328125 58.90625 
Q 16.5 51.421875 16.5 36.375 
Q 16.5 21.390625 20.328125 13.890625 
Q 24.171875 6.390625 31.78125 6.390625 
Q 39.453125 6.390625 43.28125 13.890625 
Q 47.125 21.390625 47.125 36.375 
Q 47.125 51.421875 43.28125 58.90625 
Q 39.453125 66.40625 31.78125 66.40625 
z
M 31.78125 74.21875 
Q 44.046875 74.21875 50.515625 64.515625 
Q 56.984375 54.828125 56.984375 36.375 
Q 56.984375 17.96875 50.515625 8.265625 
Q 44.046875 -1.421875 31.78125 -1.421875 
Q 19.53125 -1.421875 13.0625 8.265625 
Q 6.59375 17.96875 6.59375 36.375 
Q 6.59375 54.828125 13.0625 64.515625 
Q 19.53125 74.21875 31.78125 74.21875 
z
" id="DejaVuSans-30"/>
       <path d="M 10.6875 12.40625 
L 21 12.40625 
L 21 0 
L 10.6875 0 
z
" id="DejaVuSans-2e"/>
      </defs>
      <g transform="translate(207.577563 942.997677)scale(0.666667 -0.666667)">
       <use xlink:href="#DejaVuSans-30"/>
       <use x="63.623047" xlink:href="#DejaVuSans-2e"/>
       <use x="95.410156" xlink:href="#DejaVuSans-30"/>
      </g>
     </g>
    </g>
    <g id="xtick_2">
     <g id="line2d_2">
      <g>
       <use style="stroke:#000000;stroke-width:0.8;" x="642.297454" xlink:href="#m19021540ab" y="885.341427"/>
      </g>
     </g>
     <g id="text_2">
      <!-- 0.5 -->
      <defs>
       <path d="M 10.796875 72.90625 
L 49.515625 72.90625 
L 49.515625 64.59375 
L 19.828125 64.59375 
L 19.828125 46.734375 
Q 21.96875 47.46875 24.109375 47.828125 
Q 26.265625 48.1875 28.421875 48.1875 
Q 40.625 48.1875 47.75 41.5 
Q 54.890625 34.8125 54.890625 23.390625 
Q 54.890625 11.625 47.5625 5.09375 
Q 40.234375 -1.421875 26.90625 -1.421875 
Q 22.3125 -1.421875 17.546875 -0.640625 
Q 12.796875 0.140625 7.71875 1.703125 
L 7.71875 11.625 
Q 12.109375 9.234375 16.796875 8.0625 
Q 21.484375 6.890625 26.703125 6.890625 
Q 35.15625 6.890625 40.078125 11.328125 
Q 45.015625 15.765625 45.015625 23.390625 
Q 45.015625 31 40.078125 35.4375 
Q 35.15625 39.890625 26.703125 39.890625 
Q 22.75 39.890625 18.8125 39.015625 
Q 14.890625 38.140625 10.796875 36.28125 
z
" id="DejaVuSans-35"/>
      </defs>
      <g transform="translate(589.287037 942.997677)scale(0.666667 -0.666667)">
       <use xlink:href="#DejaVuSans-30"/>
       <use x="63.623047" xlink:href="#DejaVuSans-2e"/>
       <use x="95.410156" xlink:href="#DejaVuSans-35"/>
      </g>
     </g>
    </g>
    <g id="xtick_3">
     <g id="line2d_3">
      <g>
       <use style="stroke:#000000;stroke-width:0.8;" x="1024.006928" xlink:href="#m19021540ab" y="885.341427"/>
      </g>
     </g>
     <g id="text_3">
      <!-- 1.0 -->
      <defs>
       <path d="M 12.40625 8.296875 
L 28.515625 8.296875 
L 28.515625 63.921875 
L 10.984375 60.40625 
L 10.984375 69.390625 
L 28.421875 72.90625 
L 38.28125 72.90625 
L 38.28125 8.296875 
L 54.390625 8.296875 
L 54.390625 0 
L 12.40625 0 
z
" id="DejaVuSans-31"/>
      </defs>
      <g transform="translate(970.996511 942.997677)scale(0.666667 -0.666667)">
       <use xlink:href="#DejaVuSans-31"/>
       <use x="63.623047" xlink:href="#DejaVuSans-2e"/>
       <use x="95.410156" xlink:href="#DejaVuSans-30"/>
      </g>
     </g>
    </g>
    <g id="text_4">
     <!-- h -->
     <defs>
      <path d="M 54.890625 33.015625 
L 54.890625 0 
L 45.90625 0 
L 45.90625 32.71875 
Q 45.90625 40.484375 42.875 44.328125 
Q 39.84375 48.1875 33.796875 48.1875 
Q 26.515625 48.1875 22.3125 43.546875 
Q 18.109375 38.921875 18.109375 30.90625 
L 18.109375 0 
L 9.078125 0 
L 9.078125 75.984375 
L 18.109375 75.984375 
L 18.109375 46.1875 
Q 21.34375 51.125 25.703125 53.5625 
Q 30.078125 56 35.796875 56 
Q 45.21875 56 50.046875 50.171875 
Q 54.890625 44.34375 54.890625 33.015625 
z
" id="DejaVuSans-68"/>
     </defs>
     <g transform="translate(604.272454 1052.04351)scale(1.2 -1.2)">
      <use xlink:href="#DejaVuSans-68"/>
     </g>
    </g>
   </g>
   <g id="matplotlib.axis_2">
    <g id="ytick_1">
     <g id="line2d_4">
      <defs>
       <path d="M 0 0 
L -3.5 0 
" id="m2e92547daf" style="stroke:#000000;stroke-width:0.8;"/>
      </defs>
      <g>
       <use style="stroke:#000000;stroke-width:0.8;" x="236.158573" xlink:href="#m2e92547daf" y="858.910113"/>
      </g>
     </g>
     <g id="text_5">
      <!-- 0.0 -->
      <g transform="translate(123.13774 884.238238)scale(0.666667 -0.666667)">
       <use xlink:href="#DejaVuSans-30"/>
       <use x="63.623047" xlink:href="#DejaVuSans-2e"/>
       <use x="95.410156" xlink:href="#DejaVuSans-30"/>
      </g>
     </g>
    </g>
    <g id="ytick_2">
     <g id="line2d_5">
      <g>
       <use style="stroke:#000000;stroke-width:0.8;" x="236.158573" xlink:href="#m2e92547daf" y="583.583926"/>
      </g>
     </g>
     <g id="text_6">
      <!-- 0.5 -->
      <g transform="translate(123.13774 608.912051)scale(0.666667 -0.666667)">
       <use xlink:href="#DejaVuSans-30"/>
       <use x="63.623047" xlink:href="#DejaVuSans-2e"/>
       <use x="95.410156" xlink:href="#DejaVuSans-35"/>
      </g>
     </g>
    </g>
    <g id="ytick_3">
     <g id="line2d_6">
      <g>
       <use style="stroke:#000000;stroke-width:0.8;" x="236.158573" xlink:href="#m2e92547daf" y="308.25774"/>
      </g>
     </g>
     <g id="text_7">
      <!-- 1.0 -->
      <g transform="translate(123.13774 333.585865)scale(0.666667 -0.666667)">
       <use xlink:href="#DejaVuSans-31"/>
       <use x="63.623047" xlink:href="#DejaVuSans-2e"/>
       <use x="95.410156" xlink:href="#DejaVuSans-30"/>
      </g>
     </g>
    </g>
    <g id="ytick_4">
     <g id="line2d_7">
      <g>
       <use style="stroke:#000000;stroke-width:0.8;" x="236.158573" xlink:href="#m2e92547daf" y="32.931554"/>
      </g>
     </g>
     <g id="text_8">
      <!-- 1.5 -->
      <g transform="translate(123.13774 58.259679)scale(0.666667 -0.666667)">
       <use xlink:href="#DejaVuSans-31"/>
       <use x="63.623047" xlink:href="#DejaVuSans-2e"/>
       <use x="95.410156" xlink:href="#DejaVuSans-35"/>
      </g>
     </g>
    </g>
    <g id="text_9">
     <!-- MI -->
     <defs>
      <path d="M 9.8125 72.90625 
L 24.515625 72.90625 
L 43.109375 23.296875 
L 61.8125 72.90625 
L 76.515625 72.90625 
L 76.515625 0 
L 66.890625 0 
L 66.890625 64.015625 
L 48.09375 14.015625 
L 38.1875 14.015625 
L 19.390625 64.015625 
L 19.390625 0 
L 9.8125 0 
z
" id="DejaVuSans-4d"/>
      <path d="M 9.8125 72.90625 
L 19.671875 72.90625 
L 19.671875 0 
L 9.8125 0 
z
" id="DejaVuSans-49"/>
     </defs>
     <g transform="translate(94.18149 515.389583)rotate(-90)scale(1.2 -1.2)">
      <use xlink:href="#DejaVuSans-4d"/>
      <use x="86.279297" xlink:href="#DejaVuSans-49"/>
     </g>
    </g>
   </g>
   <g id="LineCollection_1">
    <path clip-path="url(#p68d10008e4)" d="M 265.168493 858.910113 
L 265.168493 32.931554 
" style="fill:none;stroke:#ff0000;stroke-width:3;"/>
   </g>
   <g id="line2d_8">
    <path clip-path="url(#p68d10008e4)" d="M 260.58798 443.004459 
L 261.351399 107.334514 
L 262.114818 118.564784 
L 262.878237 97.814597 
L 263.641655 91.468672 
L 264.405074 77.514612 
L 265.168493 68.44415 
L 265.931912 81.860168 
L 266.695331 77.025873 
L 267.45875 85.760191 
L 268.222169 89.0667 
L 268.985588 84.141101 
L 270.512426 85.084766 
L 271.275845 82.370735 
L 272.039264 85.155048 
L 272.802683 84.694022 
L 273.566102 79.131259 
L 275.09294 73.38098 
L 275.856359 88.107153 
L 276.619778 88.919312 
L 277.383197 88.361218 
L 278.146615 83.923335 
L 278.910034 85.152361 
L 279.673453 82.856956 
L 280.436872 77.801677 
L 281.200291 70.82497 
L 281.96371 70.350443 
L 282.727129 74.448264 
L 283.490548 75.802413 
L 284.253967 73.485665 
L 285.017386 73.485665 
L 285.780805 72.979648 
L 286.544224 80.572944 
L 287.307643 74.104133 
L 288.071062 75.638131 
L 288.834481 80.175262 
L 289.5979 80.291573 
L 290.361319 80.291573 
L 291.124738 72.004279 
L 291.888157 70.447644 
L 292.651576 77.178648 
L 293.414994 80.962002 
L 294.178413 86.406991 
L 294.941832 86.392835 
L 295.705251 91.281271 
L 296.46867 91.281271 
L 297.232089 90.326325 
L 297.995508 90.369693 
L 298.758927 91.244712 
L 299.522346 87.427881 
L 300.285765 88.001342 
L 301.049184 85.144732 
L 301.812603 83.72383 
L 302.576022 83.72383 
L 303.339441 85.899237 
L 304.10286 82.938103 
L 304.866279 81.781062 
L 305.629698 81.781062 
L 306.393117 83.293716 
L 307.156536 80.503053 
L 307.919954 82.623257 
L 308.683373 80.796447 
L 309.446792 79.871477 
L 310.210211 78.225456 
L 310.97363 78.225456 
L 311.737049 74.180113 
L 312.500468 73.688214 
L 313.263887 76.732124 
L 314.027306 87.123148 
L 314.790725 87.321725 
L 316.317563 87.321725 
L 317.080982 86.005003 
L 317.844401 86.670115 
L 318.60782 82.438814 
L 319.371239 83.636966 
L 320.134658 83.636966 
L 320.898077 81.427383 
L 321.661496 79.854672 
L 322.424914 78.781117 
L 323.188333 78.781117 
L 323.951752 76.978701 
L 324.715171 73.617658 
L 325.47859 81.102776 
L 326.242009 81.102776 
L 327.005428 81.541741 
L 327.768847 81.541741 
L 328.532266 78.634826 
L 330.059104 78.634826 
L 330.822523 77.348661 
L 331.585942 77.348661 
L 332.349361 78.670731 
L 333.11278 77.088804 
L 333.876199 82.081968 
L 334.639618 85.437774 
L 335.403037 86.089385 
L 338.456712 86.089385 
L 339.220131 84.507473 
L 339.98355 84.507473 
L 340.746969 89.550754 
L 341.510388 90.714638 
L 342.273807 90.319966 
L 343.037226 92.497732 
L 343.800645 93.463773 
L 344.564064 93.463773 
L 345.327483 94.321492 
L 346.090902 96.289825 
L 346.854321 96.289825 
L 347.61774 89.975599 
L 348.381159 97.266806 
L 349.144578 97.266806 
L 349.907997 93.738839 
L 350.671416 96.101844 
L 351.434835 96.101844 
L 352.198253 96.418367 
L 352.961672 95.181815 
L 353.725091 92.711611 
L 354.48851 89.449163 
L 355.251929 89.449163 
L 356.015348 87.804437 
L 356.778767 86.962209 
L 358.305605 86.995686 
L 359.069024 94.198882 
L 359.832443 97.080161 
L 360.595862 103.240022 
L 361.359281 104.785146 
L 362.1227 104.785146 
L 362.886119 102.630412 
L 363.649538 101.89068 
L 364.412957 101.89068 
L 365.176376 101.336296 
L 365.939795 98.48034 
L 366.703214 98.48034 
L 367.466632 100.514077 
L 369.756889 100.514077 
L 370.520308 99.068201 
L 371.283727 99.068201 
L 372.047146 100.847317 
L 373.573984 93.404239 
L 374.337403 93.404239 
L 375.100822 96.845137 
L 375.864241 96.43196 
L 376.62766 96.43196 
L 377.391079 97.15591 
L 378.154498 92.558 
L 378.917917 96.374832 
L 379.681336 93.949342 
L 380.444755 95.496417 
L 381.971592 95.496417 
L 382.735011 100.674032 
L 383.49843 103.801775 
L 384.261849 104.820509 
L 385.025268 104.820509 
L 385.788687 106.297258 
L 386.552106 109.832483 
L 387.315525 112.288531 
L 388.842363 112.288531 
L 389.605782 109.619181 
L 390.369201 109.619181 
L 391.13262 108.717826 
L 391.896039 103.079186 
L 392.659458 103.079186 
L 393.422877 100.829829 
L 394.186296 99.629072 
L 394.949715 99.629072 
L 395.713134 99.363868 
L 396.476552 99.363868 
L 397.239971 98.596665 
L 398.00339 98.596665 
L 398.766809 96.507387 
L 399.530228 96.692735 
L 402.583904 96.692735 
L 403.347323 93.708883 
L 404.110742 96.085076 
L 404.874161 94.75485 
L 405.63758 95.237515 
L 408.691256 95.237515 
L 409.454675 94.842843 
L 410.218094 93.791639 
L 410.981513 93.468982 
L 411.744931 88.330081 
L 413.271769 88.330081 
L 414.035188 89.453004 
L 414.798607 89.453004 
L 415.562026 96.252628 
L 416.325445 96.6473 
L 418.615702 96.6473 
L 419.379121 92.698396 
L 420.14254 91.52793 
L 420.905959 98.761685 
L 421.669378 98.207301 
L 422.432797 100.21048 
L 423.959635 100.171765 
L 424.723054 106.103564 
L 425.486473 108.990079 
L 426.249891 108.990079 
L 427.01331 109.544462 
L 430.830405 109.544462 
L 431.593824 110.722817 
L 432.357243 117.376866 
L 433.120662 120.227586 
L 434.6475 120.227586 
L 435.410919 121.557496 
L 436.174338 119.926272 
L 436.937757 119.926272 
L 437.701176 120.499977 
L 439.228014 120.499977 
L 439.991433 116.683145 
L 440.754851 115.981923 
L 442.281689 115.981923 
L 443.045108 114.899387 
L 443.808527 119.811798 
L 444.571946 123.659188 
L 445.335365 121.547616 
L 446.862203 121.547616 
L 447.625622 122.287348 
L 448.389041 122.287348 
L 449.15246 119.400833 
L 449.915879 117.455108 
L 451.442717 117.455108 
L 452.206136 118.194839 
L 452.969555 117.579024 
L 453.732974 115.957015 
L 454.496393 115.233066 
L 455.259812 117.054874 
L 457.550068 117.054874 
L 458.313487 117.799843 
L 459.840325 117.799843 
L 460.603744 119.400508 
L 461.367163 119.400508 
L 462.130582 122.822983 
L 462.894001 122.822983 
L 463.65742 123.490306 
L 465.184258 123.490306 
L 465.947677 119.472307 
L 467.474515 119.472307 
L 468.237934 121.196889 
L 469.764772 121.196889 
L 470.52819 118.155584 
L 472.055028 118.155584 
L 472.818447 118.709968 
L 475.108704 118.709968 
L 475.872123 122.526799 
L 476.635542 119.37508 
L 477.398961 124.975006 
L 478.16238 127.621639 
L 478.925799 127.621639 
L 479.689218 131.745021 
L 480.452637 129.062278 
L 481.216056 129.062278 
L 481.979475 123.804808 
L 482.742894 129.062278 
L 483.506313 138.854893 
L 484.269732 139.199953 
L 485.03315 139.199953 
L 485.796569 140.426837 
L 486.559988 140.148446 
L 487.323407 143.496096 
L 488.850245 143.496096 
L 489.613664 143.03507 
L 490.377083 142.725915 
L 491.140502 142.725915 
L 491.903921 148.444411 
L 492.66734 148.444411 
L 493.430759 155.603546 
L 494.957597 159.215231 
L 495.721016 159.990758 
L 496.484435 160.23064 
L 497.247854 160.23064 
L 498.011273 159.532633 
L 498.774692 155.36519 
L 499.538111 155.36519 
L 500.301529 155.826216 
L 501.064948 153.911364 
L 501.828367 160.063629 
L 502.591786 160.494096 
L 503.355205 157.847463 
L 504.118624 157.847463 
L 504.882043 156.342347 
L 505.645462 156.342347 
L 506.408881 157.986758 
L 507.935719 157.986758 
L 508.699138 160.172365 
L 509.462557 160.172365 
L 510.225976 165.429836 
L 510.989395 162.813761 
L 511.752814 162.623177 
L 512.516233 164.715426 
L 513.279652 164.715426 
L 514.043071 161.834148 
L 514.806489 162.137483 
L 515.569908 160.016891 
L 516.333327 160.016891 
L 517.096746 163.709806 
L 519.387003 163.709806 
L 520.150422 160.293054 
L 520.913841 155.510111 
L 521.67726 154.309354 
L 522.440679 154.309354 
L 523.204098 153.293945 
L 523.967517 153.293945 
L 524.730936 152.460965 
L 525.494355 154.012333 
L 526.257774 154.012333 
L 527.021193 155.585045 
L 527.784612 160.447843 
L 530.074868 160.447843 
L 530.838287 159.890541 
L 531.601706 163.516787 
L 532.365125 163.516787 
L 533.128544 162.43471 
L 533.891963 158.96849 
L 534.655382 151.809355 
L 537.709058 151.809355 
L 538.472477 146.454008 
L 539.235896 147.19374 
L 539.999315 156.714788 
L 541.526153 156.714788 
L 542.289572 149.055593 
L 543.052991 153.730727 
L 543.81641 153.730727 
L 544.579828 150.393659 
L 545.343247 155.261695 
L 546.106666 155.261695 
L 546.870085 145.775665 
L 548.396923 145.775665 
L 549.160342 146.791073 
L 549.923761 146.791073 
L 550.68718 148.55145 
L 552.214018 145.96333 
L 552.977437 145.96333 
L 553.740856 147.837041 
L 555.267694 147.837041 
L 556.031113 155.200263 
L 560.611626 155.200263 
L 561.375045 157.178676 
L 562.138464 155.526108 
L 563.665302 155.526108 
L 564.428721 149.479609 
L 565.19214 146.920988 
L 565.955559 143.037488 
L 566.718978 143.037488 
L 567.482397 148.215103 
L 568.245816 152.031934 
L 569.772654 152.031934 
L 570.536073 156.065195 
L 571.299492 147.52254 
L 573.589749 147.52254 
L 574.353167 146.87093 
L 575.116586 147.011903 
L 575.880005 143.576241 
L 577.406843 143.576241 
L 578.170262 144.081327 
L 578.933681 144.081327 
L 579.6971 143.181884 
L 580.460519 135.481553 
L 581.223938 138.553416 
L 581.987357 145.140796 
L 583.514195 145.140796 
L 584.277614 149.573443 
L 585.041033 151.604576 
L 585.804452 151.604576 
L 586.567871 163.951713 
L 588.094709 171.492017 
L 588.858127 171.097345 
L 589.621546 177.099784 
L 590.384965 179.125365 
L 591.148384 179.914394 
L 591.911803 187.885166 
L 592.675222 189.325805 
L 595.728898 189.325805 
L 596.492317 187.614725 
L 597.255736 188.169109 
L 598.019155 187.191922 
L 600.309412 187.191922 
L 601.072831 191.988367 
L 601.83625 193.699447 
L 603.363087 193.699447 
L 604.126506 192.529248 
L 604.889925 194.20977 
L 605.653344 198.652191 
L 606.416763 198.351192 
L 607.180182 196.480086 
L 607.943601 199.237448 
L 610.233858 199.237448 
L 610.997277 187.635083 
L 611.760696 192.117027 
L 613.287534 192.117027 
L 614.050953 193.774941 
L 614.814372 193.774941 
L 615.577791 195.174438 
L 616.34121 197.339848 
L 617.104629 195.584708 
L 617.868048 201.604518 
L 618.631466 202.380044 
L 626.265656 202.366542 
L 627.029075 201.714932 
L 627.792494 200.699523 
L 630.082751 200.699523 
L 630.84617 196.882692 
L 631.609589 190.960109 
L 633.899845 190.960109 
L 634.663264 189.452801 
L 635.426683 189.452801 
L 636.190102 187.702897 
L 636.953521 187.702897 
L 637.71694 193.040223 
L 638.480359 191.674203 
L 639.243778 191.674203 
L 640.007197 193.114843 
L 640.770616 193.114843 
L 641.534035 190.534878 
L 642.297454 182.630775 
L 643.060873 184.422025 
L 643.824292 183.690244 
L 644.587711 183.690244 
L 645.35113 179.332532 
L 646.877968 189.607591 
L 647.641386 183.839189 
L 650.695062 183.795128 
L 651.458481 186.55249 
L 652.2219 185.688952 
L 652.985319 187.281461 
L 653.748738 193.032014 
L 654.512157 197.000716 
L 655.275576 198.667735 
L 656.802414 214.41594 
L 657.565833 214.41594 
L 658.329252 212.083809 
L 659.092671 213.099218 
L 659.85609 212.704861 
L 660.619509 209.517032 
L 661.382928 212.274394 
L 662.909765 212.274394 
L 663.673184 207.207508 
L 664.436603 210.709838 
L 665.200022 206.379765 
L 665.963441 206.418479 
L 666.72686 214.666988 
L 667.490279 214.506962 
L 672.070793 214.506962 
L 672.834212 218.643531 
L 676.651307 218.643531 
L 677.414725 217.94786 
L 678.178144 227.84175 
L 679.704982 237.341282 
L 680.468401 237.341282 
L 681.23182 240.095429 
L 681.995239 239.932798 
L 682.758658 239.932798 
L 683.522077 235.713454 
L 685.812334 235.713454 
L 686.575753 230.969225 
L 687.339172 232.719019 
L 688.102591 228.863068 
L 688.86601 227.019916 
L 693.446523 227.019916 
L 694.209942 230.682067 
L 694.973361 229.973209 
L 695.73678 222.187676 
L 696.500199 227.226607 
L 697.263618 221.317526 
L 698.027037 221.778552 
L 698.790456 221.778552 
L 699.553875 218.845057 
L 700.317294 217.031404 
L 701.080713 218.618567 
L 701.844132 231.495862 
L 702.607551 237.667142 
L 704.134389 237.667142 
L 704.897808 242.640649 
L 705.661227 244.423743 
L 706.424646 240.469603 
L 707.188064 248.568688 
L 707.951483 261.035622 
L 709.478321 261.035622 
L 710.24174 270.973777 
L 711.005159 271.000152 
L 711.768578 271.539326 
L 712.531997 270.730905 
L 713.295416 273.760729 
L 714.058835 273.760729 
L 714.822254 264.719006 
L 715.585673 278.731356 
L 716.349092 276.217855 
L 717.112511 283.0224 
L 717.87593 287.372272 
L 718.639349 286.122217 
L 719.402768 289.805532 
L 720.166187 291.076282 
L 744.595593 291.076282 
L 745.359012 280.960934 
L 746.122431 280.960934 
L 746.88585 281.614881 
L 747.649269 281.207132 
L 748.412688 281.207132 
L 749.176107 278.50253 
L 751.466363 278.50253 
L 752.229782 276.186801 
L 752.993201 268.414187 
L 753.75662 261.967779 
L 754.520039 259.809097 
L 755.283458 264.956153 
L 759.100553 264.912438 
L 759.863972 260.634236 
L 760.627391 261.346727 
L 761.39081 266.162147 
L 762.154229 266.162147 
L 763.681067 289.958274 
L 768.26158 289.989665 
L 769.024999 294.859145 
L 769.788418 294.859145 
L 770.551837 307.154575 
L 772.078675 307.154575 
L 773.605513 333.496939 
L 774.368932 331.800098 
L 775.89577 331.800098 
L 776.659189 329.320988 
L 777.422608 327.969764 
L 778.186027 327.969764 
L 778.949446 323.005107 
L 780.476284 323.005107 
L 781.239702 326.046096 
L 782.003121 328.502074 
L 782.76654 332.16443 
L 783.529959 332.984018 
L 785.820216 332.984018 
L 786.583635 331.991326 
L 787.347054 327.934613 
L 788.110473 333.220037 
L 788.873892 343.883453 
L 802.615433 343.883453 
L 803.378852 343.342643 
L 804.142271 342.367207 
L 804.90569 342.367207 
L 805.669109 337.887977 
L 806.432528 341.678434 
L 809.486204 341.678118 
L 810.249622 353.57123 
L 811.013041 370.797024 
L 827.808258 370.797024 
L 829.335096 343.626048 
L 830.861934 343.626048 
L 831.625353 342.765445 
L 833.91561 342.765445 
L 834.679029 341.718546 
L 836.969286 341.718546 
L 837.732705 341.03209 
L 838.496124 341.294345 
L 839.259543 344.876145 
L 843.076637 344.876145 
L 843.840056 343.883453 
L 853.001084 343.883453 
L 853.764503 342.367207 
L 854.527921 341.678434 
L 856.054759 341.678434 
L 856.818178 352.414518 
L 857.581597 370.797024 
L 862.92553 370.797024 
L 863.688949 380.331966 
L 864.452368 407.938682 
L 865.215787 406.829694 
L 865.979206 429.195384 
L 867.506044 429.195384 
L 868.269463 457.589572 
L 869.032882 469.259384 
L 888.118355 469.259384 
L 889.645193 445.709749 
L 890.408612 445.709749 
L 891.172031 440.180906 
L 891.93545 439.756704 
L 892.698869 443.338505 
L 894.989126 443.338505 
L 895.752545 442.345813 
L 899.569639 442.345813 
L 900.333058 440.829567 
L 901.096477 440.140793 
L 901.859896 469.259384 
L 939.267425 469.259384 
L 940.030844 445.007909 
L 940.794263 449.440192 
L 941.557682 449.440192 
L 942.321101 448.4475 
L 943.08452 448.4475 
L 943.847938 447.392972 
L 944.611357 477.218489 
L 962.169993 477.218489 
L 962.933412 476.182068 
L 983.545724 476.182068 
L 984.309143 531.655121 
L 985.072562 636.580326 
L 1023.243509 636.580326 
L 1023.243509 636.580326 
" style="fill:none;stroke:#000000;stroke-linecap:square;stroke-width:3;"/>
   </g>
   <g id="patch_3">
    <path d="M 236.158573 885.341427 
L 236.158573 6.50024 
" style="fill:none;stroke:#000000;stroke-linecap:square;stroke-linejoin:miter;stroke-width:0.8;"/>
   </g>
   <g id="patch_4">
    <path d="M 1048.436334 885.341427 
L 1048.436334 6.50024 
" style="fill:none;stroke:#000000;stroke-linecap:square;stroke-linejoin:miter;stroke-width:0.8;"/>
   </g>
   <g id="patch_5">
    <path d="M 236.158573 885.341427 
L 1048.436334 885.341427 
" style="fill:none;stroke:#000000;stroke-linecap:square;stroke-linejoin:miter;stroke-width:0.8;"/>
   </g>
   <g id="patch_6">
    <path d="M 236.158573 6.50024 
L 1048.436334 6.50024 
" style="fill:none;stroke:#000000;stroke-linecap:square;stroke-linejoin:miter;stroke-width:0.8;"/>
   </g>
  </g>
 </g>
 <defs>
  <clipPath id="p68d10008e4">
   <rect height="878.841187" width="812.277761" x="236.158573" y="6.50024"/>
  </clipPath>
 </defs>
</svg>
