<?xml version="1.0" encoding="utf-8" standalone="no"?>
<!DOCTYPE svg PUBLIC "-//W3C//DTD SVG 1.1//EN"
  "http://www.w3.org/Graphics/SVG/1.1/DTD/svg11.dtd">
<!-- Created with matplotlib (http://matplotlib.org/) -->
<svg height="1080pt" version="1.1" viewBox="0 0 1080 1080" width="1080pt" xmlns="http://www.w3.org/2000/svg" xmlns:xlink="http://www.w3.org/1999/xlink">
 <defs>
  <style type="text/css">
*{stroke-linecap:butt;stroke-linejoin:round;}
  </style>
 </defs>
 <g id="figure_1">
  <g id="patch_1">
   <path d="M 0 1080 
L 1080 1080 
L 1080 0 
L 0 0 
z
" style="fill:#ffffff;"/>
  </g>
  <g id="axes_1">
   <g id="patch_2">
    <path d="M 236.158573 885.341427 
L 1048.436334 885.341427 
L 1048.436334 6.50024 
L 236.158573 6.50024 
z
" style="fill:#ffffff;"/>
   </g>
   <g id="matplotlib.axis_1">
    <g id="xtick_1">
     <g id="line2d_1">
      <defs>
       <path d="M 0 0 
L 0 3.5 
" id="ma56cb25455" style="stroke:#000000;stroke-width:0.8;"/>
      </defs>
      <g>
       <use style="stroke:#000000;stroke-width:0.8;" x="260.58798" xlink:href="#ma56cb25455" y="885.341427"/>
      </g>
     </g>
     <g id="text_1">
      <!-- 0.0 -->
      <defs>
       <path d="M 31.78125 66.40625 
Q 24.171875 66.40625 20.328125 58.90625 
Q 16.5 51.421875 16.5 36.375 
Q 16.5 21.390625 20.328125 13.890625 
Q 24.171875 6.390625 31.78125 6.390625 
Q 39.453125 6.390625 43.28125 13.890625 
Q 47.125 21.390625 47.125 36.375 
Q 47.125 51.421875 43.28125 58.90625 
Q 39.453125 66.40625 31.78125 66.40625 
z
M 31.78125 74.21875 
Q 44.046875 74.21875 50.515625 64.515625 
Q 56.984375 54.828125 56.984375 36.375 
Q 56.984375 17.96875 50.515625 8.265625 
Q 44.046875 -1.421875 31.78125 -1.421875 
Q 19.53125 -1.421875 13.0625 8.265625 
Q 6.59375 17.96875 6.59375 36.375 
Q 6.59375 54.828125 13.0625 64.515625 
Q 19.53125 74.21875 31.78125 74.21875 
z
" id="DejaVuSans-30"/>
       <path d="M 10.6875 12.40625 
L 21 12.40625 
L 21 0 
L 10.6875 0 
z
" id="DejaVuSans-2e"/>
      </defs>
      <g transform="translate(207.577563 942.997677)scale(0.666667 -0.666667)">
       <use xlink:href="#DejaVuSans-30"/>
       <use x="63.623047" xlink:href="#DejaVuSans-2e"/>
       <use x="95.410156" xlink:href="#DejaVuSans-30"/>
      </g>
     </g>
    </g>
    <g id="xtick_2">
     <g id="line2d_2">
      <g>
       <use style="stroke:#000000;stroke-width:0.8;" x="642.297454" xlink:href="#ma56cb25455" y="885.341427"/>
      </g>
     </g>
     <g id="text_2">
      <!-- 0.5 -->
      <defs>
       <path d="M 10.796875 72.90625 
L 49.515625 72.90625 
L 49.515625 64.59375 
L 19.828125 64.59375 
L 19.828125 46.734375 
Q 21.96875 47.46875 24.109375 47.828125 
Q 26.265625 48.1875 28.421875 48.1875 
Q 40.625 48.1875 47.75 41.5 
Q 54.890625 34.8125 54.890625 23.390625 
Q 54.890625 11.625 47.5625 5.09375 
Q 40.234375 -1.421875 26.90625 -1.421875 
Q 22.3125 -1.421875 17.546875 -0.640625 
Q 12.796875 0.140625 7.71875 1.703125 
L 7.71875 11.625 
Q 12.109375 9.234375 16.796875 8.0625 
Q 21.484375 6.890625 26.703125 6.890625 
Q 35.15625 6.890625 40.078125 11.328125 
Q 45.015625 15.765625 45.015625 23.390625 
Q 45.015625 31 40.078125 35.4375 
Q 35.15625 39.890625 26.703125 39.890625 
Q 22.75 39.890625 18.8125 39.015625 
Q 14.890625 38.140625 10.796875 36.28125 
z
" id="DejaVuSans-35"/>
      </defs>
      <g transform="translate(589.287037 942.997677)scale(0.666667 -0.666667)">
       <use xlink:href="#DejaVuSans-30"/>
       <use x="63.623047" xlink:href="#DejaVuSans-2e"/>
       <use x="95.410156" xlink:href="#DejaVuSans-35"/>
      </g>
     </g>
    </g>
    <g id="xtick_3">
     <g id="line2d_3">
      <g>
       <use style="stroke:#000000;stroke-width:0.8;" x="1024.006928" xlink:href="#ma56cb25455" y="885.341427"/>
      </g>
     </g>
     <g id="text_3">
      <!-- 1.0 -->
      <defs>
       <path d="M 12.40625 8.296875 
L 28.515625 8.296875 
L 28.515625 63.921875 
L 10.984375 60.40625 
L 10.984375 69.390625 
L 28.421875 72.90625 
L 38.28125 72.90625 
L 38.28125 8.296875 
L 54.390625 8.296875 
L 54.390625 0 
L 12.40625 0 
z
" id="DejaVuSans-31"/>
      </defs>
      <g transform="translate(970.996511 942.997677)scale(0.666667 -0.666667)">
       <use xlink:href="#DejaVuSans-31"/>
       <use x="63.623047" xlink:href="#DejaVuSans-2e"/>
       <use x="95.410156" xlink:href="#DejaVuSans-30"/>
      </g>
     </g>
    </g>
    <g id="text_4">
     <!-- h -->
     <defs>
      <path d="M 54.890625 33.015625 
L 54.890625 0 
L 45.90625 0 
L 45.90625 32.71875 
Q 45.90625 40.484375 42.875 44.328125 
Q 39.84375 48.1875 33.796875 48.1875 
Q 26.515625 48.1875 22.3125 43.546875 
Q 18.109375 38.921875 18.109375 30.90625 
L 18.109375 0 
L 9.078125 0 
L 9.078125 75.984375 
L 18.109375 75.984375 
L 18.109375 46.1875 
Q 21.34375 51.125 25.703125 53.5625 
Q 30.078125 56 35.796875 56 
Q 45.21875 56 50.046875 50.171875 
Q 54.890625 44.34375 54.890625 33.015625 
z
" id="DejaVuSans-68"/>
     </defs>
     <g transform="translate(604.272454 1052.04351)scale(1.2 -1.2)">
      <use xlink:href="#DejaVuSans-68"/>
     </g>
    </g>
   </g>
   <g id="matplotlib.axis_2">
    <g id="ytick_1">
     <g id="line2d_4">
      <defs>
       <path d="M 0 0 
L -3.5 0 
" id="m9c2d0f16f8" style="stroke:#000000;stroke-width:0.8;"/>
      </defs>
      <g>
       <use style="stroke:#000000;stroke-width:0.8;" x="236.158573" xlink:href="#m9c2d0f16f8" y="858.910113"/>
      </g>
     </g>
     <g id="text_5">
      <!-- 0.0 -->
      <g transform="translate(123.13774 884.238238)scale(0.666667 -0.666667)">
       <use xlink:href="#DejaVuSans-30"/>
       <use x="63.623047" xlink:href="#DejaVuSans-2e"/>
       <use x="95.410156" xlink:href="#DejaVuSans-30"/>
      </g>
     </g>
    </g>
    <g id="ytick_2">
     <g id="line2d_5">
      <g>
       <use style="stroke:#000000;stroke-width:0.8;" x="236.158573" xlink:href="#m9c2d0f16f8" y="583.583926"/>
      </g>
     </g>
     <g id="text_6">
      <!-- 0.5 -->
      <g transform="translate(123.13774 608.912051)scale(0.666667 -0.666667)">
       <use xlink:href="#DejaVuSans-30"/>
       <use x="63.623047" xlink:href="#DejaVuSans-2e"/>
       <use x="95.410156" xlink:href="#DejaVuSans-35"/>
      </g>
     </g>
    </g>
    <g id="ytick_3">
     <g id="line2d_6">
      <g>
       <use style="stroke:#000000;stroke-width:0.8;" x="236.158573" xlink:href="#m9c2d0f16f8" y="308.25774"/>
      </g>
     </g>
     <g id="text_7">
      <!-- 1.0 -->
      <g transform="translate(123.13774 333.585865)scale(0.666667 -0.666667)">
       <use xlink:href="#DejaVuSans-31"/>
       <use x="63.623047" xlink:href="#DejaVuSans-2e"/>
       <use x="95.410156" xlink:href="#DejaVuSans-30"/>
      </g>
     </g>
    </g>
    <g id="ytick_4">
     <g id="line2d_7">
      <g>
       <use style="stroke:#000000;stroke-width:0.8;" x="236.158573" xlink:href="#m9c2d0f16f8" y="32.931554"/>
      </g>
     </g>
     <g id="text_8">
      <!-- 1.5 -->
      <g transform="translate(123.13774 58.259679)scale(0.666667 -0.666667)">
       <use xlink:href="#DejaVuSans-31"/>
       <use x="63.623047" xlink:href="#DejaVuSans-2e"/>
       <use x="95.410156" xlink:href="#DejaVuSans-35"/>
      </g>
     </g>
    </g>
    <g id="text_9">
     <!-- MI -->
     <defs>
      <path d="M 9.8125 72.90625 
L 24.515625 72.90625 
L 43.109375 23.296875 
L 61.8125 72.90625 
L 76.515625 72.90625 
L 76.515625 0 
L 66.890625 0 
L 66.890625 64.015625 
L 48.09375 14.015625 
L 38.1875 14.015625 
L 19.390625 64.015625 
L 19.390625 0 
L 9.8125 0 
z
" id="DejaVuSans-4d"/>
      <path d="M 9.8125 72.90625 
L 19.671875 72.90625 
L 19.671875 0 
L 9.8125 0 
z
" id="DejaVuSans-49"/>
     </defs>
     <g transform="translate(94.18149 515.389583)rotate(-90)scale(1.2 -1.2)">
      <use xlink:href="#DejaVuSans-4d"/>
      <use x="86.279297" xlink:href="#DejaVuSans-49"/>
     </g>
    </g>
   </g>
   <g id="LineCollection_1">
    <path clip-path="url(#p4ee8cc89a2)" d="M 375.864241 858.910113 
L 375.864241 32.931554 
" style="fill:none;stroke:#ff0000;stroke-width:3;"/>
   </g>
   <g id="line2d_8">
    <path clip-path="url(#p4ee8cc89a2)" d="M 260.58798 490.684491 
L 261.351399 326.599169 
L 262.114818 344.125617 
L 262.878237 348.254725 
L 263.641655 343.035969 
L 264.405074 330.092914 
L 265.168493 326.672957 
L 265.931912 332.455311 
L 266.695331 335.047968 
L 267.45875 332.522377 
L 268.222169 335.638301 
L 268.985588 340.341388 
L 269.749007 343.148047 
L 270.512426 344.312854 
L 271.275845 341.818593 
L 272.039264 341.713471 
L 272.802683 341.252446 
L 273.566102 346.315353 
L 274.329521 337.13078 
L 275.09294 334.181465 
L 275.856359 337.377289 
L 276.619778 325.452789 
L 277.383197 327.966558 
L 278.146615 325.714282 
L 278.910034 325.350799 
L 279.673453 326.805557 
L 280.436872 319.029025 
L 281.200291 314.428511 
L 281.96371 320.147007 
L 282.727129 315.440967 
L 283.490548 313.850109 
L 284.253967 315.159608 
L 285.017386 315.159608 
L 285.780805 312.277398 
L 286.544224 319.870694 
L 287.307643 316.283162 
L 288.071062 314.775854 
L 288.834481 317.251295 
L 289.5979 315.852348 
L 290.361319 315.852348 
L 291.124738 312.822524 
L 291.888157 322.05127 
L 292.651576 321.369755 
L 293.414994 322.431857 
L 294.178413 321.923705 
L 294.941832 322.955516 
L 295.705251 320.924699 
L 296.46867 320.924699 
L 297.232089 316.534091 
L 297.995508 317.317191 
L 298.758927 313.980707 
L 299.522346 308.723236 
L 300.285765 309.691369 
L 301.049184 302.703426 
L 301.812603 302.027493 
L 302.576022 302.027493 
L 303.339441 301.432351 
L 304.866279 310.205309 
L 305.629698 310.205309 
L 306.393117 306.965578 
L 307.156536 305.767425 
L 307.919954 307.617188 
L 308.683373 308.862242 
L 309.446792 305.321197 
L 310.210211 304.326786 
L 310.97363 304.326786 
L 311.737049 312.628777 
L 312.500468 315.399326 
L 313.263887 314.816989 
L 314.027306 309.245017 
L 314.790725 313.092428 
L 317.080982 313.167047 
L 317.844401 312.391521 
L 318.60782 313.56956 
L 319.371239 313.136489 
L 320.134658 313.136489 
L 320.898077 316.73876 
L 321.661496 318.98288 
L 322.424914 322.128669 
L 323.951752 322.128669 
L 324.715171 320.257563 
L 325.47859 315.930409 
L 327.768847 315.999776 
L 328.532266 313.788532 
L 330.059104 313.788532 
L 330.822523 312.692952 
L 331.585942 312.692952 
L 332.349361 317.831852 
L 333.11278 311.928008 
L 333.876199 309.841894 
L 334.639618 309.380868 
L 335.403037 306.215647 
L 338.456712 306.215647 
L 339.220131 301.54828 
L 339.98355 301.54828 
L 340.746969 305.987316 
L 341.510388 301.531952 
L 342.273807 306.394751 
L 343.037226 312.389349 
L 343.800645 315.994181 
L 344.564064 315.994181 
L 345.327483 310.507006 
L 346.090902 309.052865 
L 346.854321 309.052865 
L 347.61774 307.952048 
L 348.381159 306.168954 
L 349.144578 306.168954 
L 349.907997 307.393372 
L 350.671416 311.210518 
L 351.434835 311.210518 
L 352.198253 308.552404 
L 352.961672 308.947076 
L 353.725091 313.365567 
L 354.48851 308.66248 
L 355.251929 308.66248 
L 356.015348 313.525278 
L 356.778767 308.444895 
L 357.542186 308.444895 
L 358.305605 302.357363 
L 359.069024 307.374952 
L 359.832443 308.625006 
L 360.595862 307.363132 
L 361.359281 303.380345 
L 362.1227 303.380345 
L 362.886119 306.052615 
L 363.649538 305.312883 
L 364.412957 305.312883 
L 365.176376 304.7585 
L 365.939795 307.160014 
L 366.703214 310.976845 
L 367.466632 312.075029 
L 369.756889 312.075029 
L 370.520308 307.55729 
L 371.283727 307.55729 
L 372.047146 304.774606 
L 372.810565 304.774606 
L 373.573984 302.588999 
L 374.337403 302.588999 
L 375.100822 294.769988 
L 375.864241 290.490765 
L 376.62766 290.490765 
L 377.391079 292.846254 
L 378.154498 305.891862 
L 378.917917 305.891862 
L 379.681336 305.65198 
L 380.444755 306.796542 
L 381.971592 306.796542 
L 382.735011 305.781133 
L 383.49843 305.762394 
L 384.261849 303.747979 
L 385.025268 303.747979 
L 385.788687 302.152865 
L 386.552106 303.626399 
L 387.315525 306.857974 
L 388.842363 306.857974 
L 389.605782 306.374231 
L 390.369201 306.374231 
L 391.13262 321.946195 
L 391.896039 322.500579 
L 392.659458 322.500579 
L 393.422877 330.371492 
L 394.186296 329.170735 
L 394.949715 329.170735 
L 395.713134 333.227448 
L 396.476552 333.227448 
L 397.239971 336.747686 
L 398.00339 336.747686 
L 398.766809 338.364825 
L 399.530228 337.805205 
L 402.583904 337.805205 
L 403.347323 338.638185 
L 404.110742 338.638185 
L 404.874161 334.426682 
L 405.63758 337.834685 
L 408.691256 337.834685 
L 409.454675 337.440013 
L 410.218094 335.723697 
L 410.981513 333.68996 
L 411.744931 335.630339 
L 413.271769 335.630339 
L 414.035188 333.366897 
L 414.798607 331.926258 
L 415.562026 324.899195 
L 416.325445 325.293867 
L 418.615702 325.293867 
L 419.379121 323.721156 
L 420.905959 332.011657 
L 421.669378 332.011657 
L 422.432797 332.14373 
L 423.196216 332.14373 
L 423.959635 328.983855 
L 424.723054 334.650449 
L 425.486473 333.910717 
L 426.249891 333.910717 
L 427.01331 330.648269 
L 430.830405 330.648269 
L 431.593824 329.720872 
L 432.357243 330.181898 
L 433.120662 331.591979 
L 434.6475 331.591979 
L 435.410919 334.362528 
L 436.174338 338.179359 
L 436.937757 338.179359 
L 437.701176 335.822489 
L 439.991433 335.822489 
L 440.754851 331.729665 
L 442.281689 331.729665 
L 443.045108 334.092227 
L 443.808527 333.747167 
L 444.571946 332.337087 
L 445.335365 326.963067 
L 446.862203 326.963067 
L 447.625622 331.519631 
L 448.389041 331.519631 
L 449.15246 328.442531 
L 449.915879 317.692944 
L 450.679298 313.876113 
L 451.442717 313.876113 
L 452.206136 310.799013 
L 452.969555 312.368805 
L 453.732974 307.674933 
L 455.259812 303.133837 
L 457.550068 303.133837 
L 458.313487 302.438166 
L 459.840325 302.438166 
L 460.603744 303.293863 
L 461.367163 303.293863 
L 462.130582 304.340146 
L 462.894001 304.340146 
L 463.65742 308.824301 
L 465.184258 308.824301 
L 465.947677 307.68758 
L 467.474515 307.68758 
L 468.237934 309.412162 
L 469.764772 309.412162 
L 470.52819 310.187688 
L 471.291609 306.370857 
L 472.055028 306.370857 
L 472.818447 306.92524 
L 473.581866 306.92524 
L 474.345285 307.670209 
L 475.872123 307.670209 
L 476.635542 305.959129 
L 477.398961 307.742224 
L 478.16238 306.111 
L 478.925799 306.111 
L 479.689218 298.974472 
L 480.452637 306.111 
L 481.216056 306.111 
L 481.979475 309.927831 
L 482.742894 309.927831 
L 483.506313 309.205505 
L 484.269732 309.550564 
L 485.03315 313.367396 
L 485.796569 315.5019 
L 487.323407 329.04204 
L 488.850245 329.04204 
L 489.613664 328.581014 
L 490.377083 334.735324 
L 491.140502 334.735324 
L 491.903921 335.196349 
L 492.66734 335.196349 
L 493.430759 334.451381 
L 494.194178 328.851455 
L 494.957597 331.125074 
L 495.721016 330.269377 
L 496.484435 328.878035 
L 497.247854 328.878035 
L 498.011273 334.102611 
L 498.774692 342.081333 
L 499.538111 342.081333 
L 500.301529 342.542358 
L 501.064948 337.00126 
L 502.591786 334.744335 
L 503.355205 335.914534 
L 504.118624 335.914534 
L 504.882043 335.599729 
L 505.645462 335.599729 
L 506.408881 335.107831 
L 507.935719 335.107831 
L 508.699138 338.734077 
L 510.225976 338.734077 
L 511.752814 341.184889 
L 512.516233 347.093969 
L 513.279652 347.093969 
L 514.043071 348.029522 
L 514.806489 349.298969 
L 515.569908 353.197966 
L 516.333327 353.197966 
L 517.096746 354.705274 
L 519.387003 354.705274 
L 520.150422 356.976459 
L 520.913841 358.386539 
L 521.67726 361.002614 
L 522.440679 361.002614 
L 523.204098 356.170374 
L 523.967517 356.170374 
L 524.730936 347.703731 
L 525.494355 356.383676 
L 526.257774 356.383676 
L 527.021193 357.956388 
L 527.784612 357.561716 
L 530.074868 357.561716 
L 530.838287 358.365196 
L 531.601706 356.733972 
L 532.365125 356.733972 
L 533.128544 351.835064 
L 533.891963 350.824891 
L 534.655382 346.547035 
L 537.709058 346.547035 
L 538.472477 348.035102 
L 539.235896 348.774834 
L 539.999315 351.437746 
L 541.526153 351.437746 
L 542.289572 351.894587 
L 543.052991 351.31225 
L 543.81641 356.56972 
L 544.579828 355.368963 
L 545.343247 357.78095 
L 546.106666 357.78095 
L 546.870085 350.671113 
L 548.396923 350.671113 
L 549.160342 350.245882 
L 549.923761 350.245882 
L 550.68718 352.006259 
L 551.450599 354.41301 
L 552.214018 353.23497 
L 552.977437 353.23497 
L 553.740856 350.596179 
L 555.267694 350.596179 
L 556.031113 352.70193 
L 560.611626 352.70193 
L 561.375045 349.271002 
L 562.138464 350.499713 
L 563.665302 350.499713 
L 564.428721 344.453214 
L 565.19214 343.525816 
L 565.955559 338.201677 
L 566.718978 338.201677 
L 567.482397 334.384846 
L 569.772654 334.384846 
L 570.536073 337.407935 
L 571.299492 339.910836 
L 574.353167 339.954897 
L 575.116586 338.194205 
L 575.880005 340.951567 
L 577.406843 340.951567 
L 578.170262 342.152324 
L 578.933681 342.152324 
L 579.6971 345.069712 
L 580.460519 339.745573 
L 581.223938 340.441244 
L 581.987357 335.768715 
L 583.514195 335.768715 
L 584.277614 338.570138 
L 585.041033 342.31235 
L 585.804452 342.31235 
L 586.567871 344.649632 
L 587.33129 348.342547 
L 588.094709 345.301243 
L 588.858127 334.626275 
L 590.384965 338.837463 
L 591.148384 338.376438 
L 591.911803 333.456076 
L 592.675222 330.384213 
L 595.728898 330.384213 
L 598.019155 344.403911 
L 600.309412 344.403911 
L 601.072831 343.942886 
L 601.83625 349.470797 
L 603.363087 349.470797 
L 604.126506 349.931823 
L 604.889925 357.805367 
L 605.653344 362.096455 
L 606.416763 360.354817 
L 607.180182 363.741182 
L 607.943601 365.057904 
L 610.233858 365.057904 
L 610.997277 367.787312 
L 611.760696 366.076232 
L 613.287534 366.076232 
L 614.050953 362.981762 
L 614.814372 362.981762 
L 615.577791 357.30198 
L 616.34121 359.972476 
L 617.104629 358.217336 
L 617.868048 371.870808 
L 618.631466 374.086974 
L 619.394885 374.086974 
L 620.158304 378.715127 
L 620.921723 378.715127 
L 621.685142 383.387656 
L 626.265656 383.387656 
L 627.029075 381.295406 
L 627.792494 375.102383 
L 630.082751 375.102383 
L 630.84617 378.919214 
L 631.609589 376.813462 
L 633.899845 376.813462 
L 634.663264 375.306155 
L 635.426683 375.306155 
L 636.190102 370.404532 
L 636.953521 370.404532 
L 637.71694 365.732003 
L 638.480359 366.077063 
L 640.770616 366.077063 
L 641.534035 362.721572 
L 642.297454 363.891771 
L 643.060873 364.747468 
L 643.824292 369.273158 
L 644.587711 369.273158 
L 645.35113 375.620971 
L 646.114549 376.821728 
L 646.877968 376.821728 
L 647.641386 375.708366 
L 649.931643 375.708366 
L 650.695062 376.359976 
L 651.458481 375.300507 
L 652.2219 375.181937 
L 652.985319 379.150639 
L 653.748738 382.138483 
L 654.512157 380.849715 
L 655.275576 381.501325 
L 656.038995 395.761615 
L 656.802414 402.507001 
L 657.565833 402.507001 
L 658.329252 404.262141 
L 659.85609 413.957495 
L 660.619509 409.329027 
L 661.382928 410.64575 
L 662.909765 410.64575 
L 663.673184 409.395695 
L 664.436603 409.081194 
L 665.200022 413.049896 
L 665.963441 414.529249 
L 666.72686 436.364563 
L 667.490279 435.508866 
L 672.070793 435.508866 
L 672.834212 440.580988 
L 676.651307 440.580988 
L 677.414725 436.764157 
L 678.178144 441.59116 
L 678.941563 441.160693 
L 679.704982 445.642637 
L 680.468401 445.642637 
L 681.23182 453.924695 
L 681.995239 448.929824 
L 682.758658 448.929824 
L 683.522077 443.269841 
L 685.048915 443.269841 
L 685.812334 441.829201 
L 686.575753 442.342443 
L 687.339172 437.203543 
L 688.102591 422.087682 
L 688.86601 420.24453 
L 693.446523 420.24453 
L 694.209942 427.723513 
L 694.973361 421.83704 
L 695.73678 423.125808 
L 696.500199 418.899853 
L 697.263618 412.990773 
L 698.027037 414.196766 
L 698.790456 414.196766 
L 699.553875 411.928384 
L 700.317294 407.308072 
L 701.080713 407.959682 
L 701.844132 412.193142 
L 702.607551 408.887606 
L 704.134389 408.887606 
L 704.897808 406.015523 
L 705.661227 407.798617 
L 707.188064 426.515217 
L 708.714902 426.596103 
L 710.24174 426.524403 
L 711.005159 444.260964 
L 712.531997 442.48441 
L 713.295416 444.769265 
L 714.058835 444.769265 
L 714.822254 450.125984 
L 715.585673 471.581412 
L 716.349092 474.325381 
L 717.112511 473.686848 
L 717.87593 476.596081 
L 718.639349 475.660528 
L 719.402768 483.400555 
L 720.166187 489.928776 
L 744.595593 489.928776 
L 745.359012 483.63026 
L 746.122431 483.63026 
L 746.88585 479.181211 
L 747.649269 476.002912 
L 748.412688 476.002912 
L 749.176107 462.02103 
L 751.466363 462.02103 
L 752.229782 464.143185 
L 752.993201 452.934909 
L 753.75662 447.54797 
L 754.520039 444.481689 
L 755.283458 448.693193 
L 758.337134 448.693193 
L 759.100553 450.280701 
L 759.863972 446.002499 
L 760.627391 446.18195 
L 761.39081 460.223542 
L 762.154229 460.223542 
L 762.917648 457.891066 
L 763.681067 482.104502 
L 767.498161 482.104502 
L 768.26158 487.393364 
L 769.024999 496.079675 
L 769.788418 496.079675 
L 770.551837 505.341957 
L 772.078675 505.341957 
L 772.842094 507.369519 
L 773.605513 517.9736 
L 774.368932 510.274321 
L 775.89577 510.274321 
L 776.659189 506.398631 
L 777.422608 510.735346 
L 778.186027 510.735346 
L 778.949446 511.621256 
L 780.476284 511.621256 
L 781.239702 512.79114 
L 782.76654 518.023218 
L 783.529959 519.778359 
L 785.820216 519.778359 
L 786.583635 520.416891 
L 787.347054 521.808233 
L 788.110473 525.653019 
L 788.873892 541.573905 
L 802.615433 541.573905 
L 803.378852 540.048244 
L 804.142271 535.305274 
L 804.90569 535.305274 
L 805.669109 523.906791 
L 806.432528 527.302576 
L 808.722785 527.302576 
L 809.486204 529.487868 
L 810.249622 542.927111 
L 811.013041 562.658251 
L 827.808258 562.658251 
L 828.571677 536.832667 
L 829.335096 531.632312 
L 830.861934 531.632312 
L 831.625353 533.749631 
L 833.91561 533.749631 
L 834.679029 532.893317 
L 836.969286 532.893317 
L 837.732705 534.503198 
L 838.496124 536.799189 
L 839.259543 540.935372 
L 843.076637 540.935372 
L 843.840056 541.573905 
L 853.001084 541.573905 
L 853.764503 535.305274 
L 854.527921 527.302576 
L 856.054759 527.302576 
L 857.581597 562.658251 
L 862.92553 562.658251 
L 863.688949 557.938376 
L 864.452368 580.502874 
L 865.215787 584.146271 
L 865.979206 589.011752 
L 867.506044 589.011752 
L 869.032882 620.658989 
L 888.118355 620.658989 
L 888.881774 606.50342 
L 889.645193 596.232313 
L 890.408612 596.232313 
L 891.172031 590.894055 
L 892.698869 598.936111 
L 894.989126 598.936111 
L 895.752545 599.574644 
L 899.569639 599.574644 
L 900.333058 593.306012 
L 901.096477 585.303314 
L 901.859896 620.658989 
L 939.267425 620.658989 
L 940.030844 595.721059 
L 940.794263 605.037798 
L 941.557682 605.037798 
L 942.321101 605.676331 
L 943.08452 605.676331 
L 943.847938 592.555492 
L 944.611357 627.177455 
L 962.169993 627.177455 
L 962.933412 629.212897 
L 983.545724 629.212897 
L 984.309143 661.95652 
L 985.072562 720.752444 
L 1023.243509 720.752444 
L 1023.243509 720.752444 
" style="fill:none;stroke:#000000;stroke-linecap:square;stroke-width:3;"/>
   </g>
   <g id="patch_3">
    <path d="M 236.158573 885.341427 
L 236.158573 6.50024 
" style="fill:none;stroke:#000000;stroke-linecap:square;stroke-linejoin:miter;stroke-width:0.8;"/>
   </g>
   <g id="patch_4">
    <path d="M 1048.436334 885.341427 
L 1048.436334 6.50024 
" style="fill:none;stroke:#000000;stroke-linecap:square;stroke-linejoin:miter;stroke-width:0.8;"/>
   </g>
   <g id="patch_5">
    <path d="M 236.158573 885.341427 
L 1048.436334 885.341427 
" style="fill:none;stroke:#000000;stroke-linecap:square;stroke-linejoin:miter;stroke-width:0.8;"/>
   </g>
   <g id="patch_6">
    <path d="M 236.158573 6.50024 
L 1048.436334 6.50024 
" style="fill:none;stroke:#000000;stroke-linecap:square;stroke-linejoin:miter;stroke-width:0.8;"/>
   </g>
  </g>
 </g>
 <defs>
  <clipPath id="p4ee8cc89a2">
   <rect height="878.841187" width="812.277761" x="236.158573" y="6.50024"/>
  </clipPath>
 </defs>
</svg>
