<?xml version="1.0" encoding="utf-8" standalone="no"?>
<!DOCTYPE svg PUBLIC "-//W3C//DTD SVG 1.1//EN"
  "http://www.w3.org/Graphics/SVG/1.1/DTD/svg11.dtd">
<!-- Created with matplotlib (https://matplotlib.org/) -->
<svg height="720pt" version="1.1" viewBox="0 0 720 720" width="720pt" xmlns="http://www.w3.org/2000/svg" xmlns:xlink="http://www.w3.org/1999/xlink">
 <defs>
  <style type="text/css">
*{stroke-linecap:butt;stroke-linejoin:round;}
  </style>
 </defs>
 <g id="figure_1">
  <g id="patch_1">
   <path d="M 0 720 
L 720 720 
L 720 0 
L 0 0 
z
" style="fill:#ffffff;"/>
  </g>
  <g id="axes_1">
   <g id="patch_2">
    <path d="M 90 630 
L 648 630 
L 648 86.4 
L 90 86.4 
z
" style="fill:#ffffff;"/>
   </g>
   <g id="PathCollection_1">
    <defs>
     <path d="M 0 3.508216 
C 0.93039 3.508216 1.822798 3.138568 2.480683 2.480683 
C 3.138568 1.822798 3.508216 0.93039 3.508216 0 
C 3.508216 -0.93039 3.138568 -1.822798 2.480683 -2.480683 
C 1.822798 -3.138568 0.93039 -3.508216 0 -3.508216 
C -0.93039 -3.508216 -1.822798 -3.138568 -2.480683 -2.480683 
C -3.138568 -1.822798 -3.508216 -0.93039 -3.508216 0 
C -3.508216 0.93039 -3.138568 1.822798 -2.480683 2.480683 
C -1.822798 3.138568 -0.93039 3.508216 0 3.508216 
z
" id="m10ce147ff3" style="stroke:#0000ff;stroke-opacity:0.5;"/>
    </defs>
    <g clip-path="url(#pde22b9e91c)">
     <use style="fill:#0000ff;fill-opacity:0.5;stroke:#0000ff;stroke-opacity:0.5;" x="100.69127" xlink:href="#m10ce147ff3" y="244.506742"/>
    </g>
   </g>
   <g id="PathCollection_2">
    <path clip-path="url(#pde22b9e91c)" d="M 386.177102 372.148046 
L 385.335212 374.739118 
L 382.610798 374.739118 
L 384.814895 376.340488 
L 383.973005 378.93156 
L 386.177102 377.330189 
L 388.381199 378.93156 
L 387.539309 376.340488 
L 389.743406 374.739118 
L 387.018992 374.739118 
z
" style="fill:#ff0000;fill-opacity:0.5;stroke:#ff0000;stroke-opacity:0.5;"/>
    <path clip-path="url(#pde22b9e91c)" d="M 427.32095 290.927533 
L 426.405686 293.744427 
L 423.443828 293.744427 
L 425.840021 295.485363 
L 424.924757 298.302257 
L 427.32095 296.561321 
L 429.717143 298.302257 
L 428.801879 295.485363 
L 431.198072 293.744427 
L 428.236214 293.744427 
z
" style="fill:#ff0000;fill-opacity:0.5;stroke:#ff0000;stroke-opacity:0.5;"/>
    <path clip-path="url(#pde22b9e91c)" d="M 395.006426 313.968136 
L 394.017633 317.011329 
L 390.81783 317.011329 
L 393.406525 318.892126 
L 392.417731 321.935319 
L 395.006426 320.054523 
L 397.595121 321.935319 
L 396.606327 318.892126 
L 399.195022 317.011329 
L 395.99522 317.011329 
z
" style="fill:#ff0000;fill-opacity:0.5;stroke:#ff0000;stroke-opacity:0.5;"/>
    <path clip-path="url(#pde22b9e91c)" d="M 485.705 405.401167 
L 484.675432 408.569853 
L 481.343678 408.569853 
L 484.039123 410.528208 
L 483.009555 413.696894 
L 485.705 411.738538 
L 488.400445 413.696894 
L 487.370876 410.528208 
L 490.066321 408.569853 
L 486.734568 408.569853 
z
" style="fill:#ff0000;fill-opacity:0.5;stroke:#ff0000;stroke-opacity:0.5;"/>
    <path clip-path="url(#pde22b9e91c)" d="M 409.882752 352.809358 
L 409.008199 355.500955 
L 406.178086 355.500955 
L 408.467695 357.164454 
L 407.593142 359.856052 
L 409.882752 358.192553 
L 412.172362 359.856052 
L 411.297809 357.164454 
L 413.587418 355.500955 
L 410.757305 355.500955 
z
" style="fill:#ff0000;fill-opacity:0.5;stroke:#ff0000;stroke-opacity:0.5;"/>
    <path clip-path="url(#pde22b9e91c)" d="M 433.869881 414.145658 
L 433.027087 416.739511 
L 430.299748 416.739511 
L 432.506212 418.342601 
L 431.663418 420.936455 
L 433.869881 419.333365 
L 436.076345 420.936455 
L 435.233551 418.342601 
L 437.440015 416.739511 
L 434.712676 416.739511 
z
" style="fill:#ff0000;fill-opacity:0.5;stroke:#ff0000;stroke-opacity:0.5;"/>
    <path clip-path="url(#pde22b9e91c)" d="M 456.512975 362.430942 
L 455.539614 365.42664 
L 452.38975 365.42664 
L 454.938043 367.278083 
L 453.964682 370.273782 
L 456.512975 368.422338 
L 459.061268 370.273782 
L 458.087907 367.278083 
L 460.6362 365.42664 
L 457.486336 365.42664 
z
" style="fill:#ff0000;fill-opacity:0.5;stroke:#ff0000;stroke-opacity:0.5;"/>
    <path clip-path="url(#pde22b9e91c)" d="M 545.349603 349.413343 
L 544.519749 351.967371 
L 541.834284 351.967371 
L 544.006871 353.545847 
L 543.177016 356.099876 
L 545.349603 354.521399 
L 547.522189 356.099876 
L 546.692335 353.545847 
L 548.864921 351.967371 
L 546.179457 351.967371 
z
" style="fill:#ff0000;fill-opacity:0.5;stroke:#ff0000;stroke-opacity:0.5;"/>
   </g>
   <g id="PathCollection_3">
    <path clip-path="url(#pde22b9e91c)" d="M 456.512975 98.830278 
C 457.310821 98.830278 458.076096 98.513291 458.640259 97.949129 
C 459.204421 97.384966 459.521408 96.619691 459.521408 95.821845 
C 459.521408 95.023999 459.204421 94.258724 458.640259 93.694562 
C 458.076096 93.130399 457.310821 92.813412 456.512975 92.813412 
C 455.715129 92.813412 454.949854 93.130399 454.385692 93.694562 
C 453.821529 94.258724 453.504542 95.023999 453.504542 95.821845 
C 453.504542 96.619691 453.821529 97.384966 454.385692 97.949129 
C 454.949854 98.513291 455.715129 98.830278 456.512975 98.830278 
z
" style="fill-opacity:0.5;stroke:#000000;stroke-opacity:0.5;"/>
    <path clip-path="url(#pde22b9e91c)" d="M 497.656823 139.231574 
C 498.539328 139.231574 499.385807 138.880951 500.009833 138.256926 
C 500.633858 137.632901 500.984481 136.786422 500.984481 135.903917 
C 500.984481 135.021411 500.633858 134.174933 500.009833 133.550907 
C 499.385807 132.926882 498.539328 132.576259 497.656823 132.576259 
C 496.774318 132.576259 495.927839 132.926882 495.303814 133.550907 
C 494.679789 134.174933 494.329166 135.021411 494.329166 135.903917 
C 494.329166 136.786422 494.679789 137.632901 495.303814 138.256926 
C 495.927839 138.880951 496.774318 139.231574 497.656823 139.231574 
z
" style="fill-opacity:0.5;stroke:#000000;stroke-opacity:0.5;"/>
    <path clip-path="url(#pde22b9e91c)" d="M 427.32095 190.288413 
C 428.35181 190.288413 429.340588 189.878848 430.069516 189.14992 
C 430.798444 188.420992 431.208009 187.432215 431.208009 186.401355 
C 431.208009 185.370495 430.798444 184.381717 430.069516 183.652789 
C 429.340588 182.923861 428.35181 182.514296 427.32095 182.514296 
C 426.29009 182.514296 425.301313 182.923861 424.572385 183.652789 
C 423.843457 184.381717 423.433892 185.370495 423.433892 186.401355 
C 423.433892 187.432215 423.843457 188.420992 424.572385 189.14992 
C 425.301313 189.878848 426.29009 190.288413 427.32095 190.288413 
z
" style="fill-opacity:0.5;stroke:#000000;stroke-opacity:0.5;"/>
    <path clip-path="url(#pde22b9e91c)" d="M 196.239316 168.059992 
C 197.225181 168.059992 198.170799 167.668304 198.867911 166.971193 
C 199.565022 166.274082 199.95671 165.328463 199.95671 164.342599 
C 199.95671 163.356735 199.565022 162.411116 198.867911 161.714005 
C 198.170799 161.016894 197.225181 160.625206 196.239316 160.625206 
C 195.253452 160.625206 194.307834 161.016894 193.610722 161.714005 
C 192.913611 162.411116 192.521923 163.356735 192.521923 164.342599 
C 192.521923 165.328463 192.913611 166.274082 193.610722 166.971193 
C 194.307834 167.668304 195.253452 168.059992 196.239316 168.059992 
z
" style="fill-opacity:0.5;stroke:#000000;stroke-opacity:0.5;"/>
    <path clip-path="url(#pde22b9e91c)" d="M 262.745557 258.807085 
C 263.775865 258.807085 264.764113 258.397739 265.49265 257.669202 
C 266.221188 256.940664 266.630534 255.952416 266.630534 254.922109 
C 266.630534 253.891801 266.221188 252.903553 265.49265 252.175015 
C 264.764113 251.446478 263.775865 251.037132 262.745557 251.037132 
C 261.715249 251.037132 260.727002 251.446478 259.998464 252.175015 
C 259.269926 252.903553 258.860581 253.891801 258.860581 254.922109 
C 258.860581 255.952416 259.269926 256.940664 259.998464 257.669202 
C 260.727002 258.397739 261.715249 258.807085 262.745557 258.807085 
z
" style="fill-opacity:0.5;stroke:#000000;stroke-opacity:0.5;"/>
    <path clip-path="url(#pde22b9e91c)" d="M 638.32857 208.740165 
C 639.473052 208.740165 640.570814 208.285457 641.380085 207.476186 
C 642.189356 206.666915 642.644064 205.569153 642.644064 204.42467 
C 642.644064 203.280188 642.189356 202.182426 641.380085 201.373155 
C 640.570814 200.563884 639.473052 200.109176 638.32857 200.109176 
C 637.184087 200.109176 636.086326 200.563884 635.277054 201.373155 
C 634.467783 202.182426 634.013075 203.280188 634.013075 204.42467 
C 634.013075 205.569153 634.467783 206.666915 635.277054 207.476186 
C 636.086326 208.285457 637.184087 208.740165 638.32857 208.740165 
z
" style="fill-opacity:0.5;stroke:#000000;stroke-opacity:0.5;"/>
    <path clip-path="url(#pde22b9e91c)" d="M 485.705 190.200447 
C 486.712531 190.200447 487.678932 189.800151 488.391364 189.087719 
C 489.103796 188.375287 489.504092 187.408886 489.504092 186.401355 
C 489.504092 185.393824 489.103796 184.427423 488.391364 183.714991 
C 487.678932 183.002559 486.712531 182.602262 485.705 182.602262 
C 484.697469 182.602262 483.731068 183.002559 483.018636 183.714991 
C 482.306204 184.427423 481.905908 185.393824 481.905908 186.401355 
C 481.905908 187.408886 482.306204 188.375287 483.018636 189.087719 
C 483.731068 189.800151 484.697469 190.200447 485.705 190.200447 
z
" style="fill-opacity:0.5;stroke:#000000;stroke-opacity:0.5;"/>
    <path clip-path="url(#pde22b9e91c)" d="M 465.342299 167.87883 
C 466.280119 167.87883 467.179654 167.50623 467.842792 166.843092 
C 468.505931 166.179953 468.87853 165.280418 468.87853 164.342599 
C 468.87853 163.40478 468.505931 162.505245 467.842792 161.842106 
C 467.179654 161.178968 466.280119 160.806368 465.342299 160.806368 
C 464.40448 160.806368 463.504945 161.178968 462.841806 161.842106 
C 462.178668 162.505245 461.806068 163.40478 461.806068 164.342599 
C 461.806068 165.280418 462.178668 166.179953 462.841806 166.843092 
C 463.504945 167.50623 464.40448 167.87883 465.342299 167.87883 
z
" style="fill-opacity:0.5;stroke:#000000;stroke-opacity:0.5;"/>
    <path clip-path="url(#pde22b9e91c)" d="M 511.206683 168.256663 
C 512.244705 168.256663 513.240352 167.844253 513.974345 167.11026 
C 514.708337 166.376268 515.120748 165.380621 515.120748 164.342599 
C 515.120748 163.304577 514.708337 162.30893 513.974345 161.574937 
C 513.240352 160.840945 512.244705 160.428535 511.206683 160.428535 
C 510.168661 160.428535 509.173014 160.840945 508.439022 161.574937 
C 507.705029 162.30893 507.292619 163.304577 507.292619 164.342599 
C 507.292619 165.380621 507.705029 166.376268 508.439022 167.11026 
C 509.173014 167.844253 510.168661 168.256663 511.206683 168.256663 
z
" style="fill-opacity:0.5;stroke:#000000;stroke-opacity:0.5;"/>
    <path clip-path="url(#pde22b9e91c)" d="M 485.705 248.115584 
C 486.662076 248.115584 487.580081 247.735333 488.256836 247.058578 
C 488.933591 246.381824 489.313842 245.463818 489.313842 244.506742 
C 489.313842 243.549666 488.933591 242.63166 488.256836 241.954905 
C 487.580081 241.278151 486.662076 240.8979 485.705 240.8979 
C 484.747924 240.8979 483.829918 241.278151 483.153163 241.954905 
C 482.476409 242.63166 482.096158 243.549666 482.096158 244.506742 
C 482.096158 245.463818 482.476409 246.381824 483.153163 247.058578 
C 483.829918 247.735333 484.747924 248.115584 485.705 248.115584 
z
" style="fill-opacity:0.5;stroke:#000000;stroke-opacity:0.5;"/>
   </g>
   <g id="PathCollection_4">
    <path clip-path="url(#pde22b9e91c)" d="M 309.689453 485.710769 
C 310.793007 485.710769 311.851511 485.272322 312.631841 484.491992 
C 313.412171 483.711662 313.850618 482.653158 313.850618 481.549604 
C 313.850618 480.446051 313.412171 479.387547 312.631841 478.607217 
C 311.851511 477.826886 310.793007 477.38844 309.689453 477.38844 
C 308.5859 477.38844 307.527396 477.826886 306.747066 478.607217 
C 305.966735 479.387547 305.528289 480.446051 305.528289 481.549604 
C 305.528289 482.653158 305.966735 483.711662 306.747066 484.491992 
C 307.527396 485.272322 308.5859 485.710769 309.689453 485.710769 
z
" style="fill:#008000;fill-opacity:0.5;stroke:#008000;stroke-opacity:0.5;"/>
    <path clip-path="url(#pde22b9e91c)" d="M 597.184721 531.616784 
C 598.373569 531.616784 599.513884 531.14445 600.354525 530.303808 
C 601.195167 529.463166 601.667501 528.322851 601.667501 527.134004 
C 601.667501 525.945157 601.195167 524.804842 600.354525 523.9642 
C 599.513884 523.123558 598.373569 522.651224 597.184721 522.651224 
C 595.995874 522.651224 594.855559 523.123558 594.014917 523.9642 
C 593.174275 524.804842 592.701941 525.945157 592.701941 527.134004 
C 592.701941 528.322851 593.174275 529.463166 594.014917 530.303808 
C 594.855559 531.14445 595.995874 531.616784 597.184721 531.616784 
z
" style="fill:#008000;fill-opacity:0.5;stroke:#008000;stroke-opacity:0.5;"/>
    <path clip-path="url(#pde22b9e91c)" d="M 475.01373 440.890352 
C 476.080253 440.890352 477.103238 440.466618 477.857384 439.712472 
C 478.61153 438.958326 479.035264 437.935341 479.035264 436.868818 
C 479.035264 435.802294 478.61153 434.779309 477.857384 434.025163 
C 477.103238 433.271017 476.080253 432.847283 475.01373 432.847283 
C 473.947206 432.847283 472.924221 433.271017 472.170075 434.025163 
C 471.415929 434.779309 470.992195 435.802294 470.992195 436.868818 
C 470.992195 437.935341 471.415929 438.958326 472.170075 439.712472 
C 472.924221 440.466618 473.947206 440.890352 475.01373 440.890352 
z
" style="fill:#008000;fill-opacity:0.5;stroke:#008000;stroke-opacity:0.5;"/>
    <path clip-path="url(#pde22b9e91c)" d="M 475.01373 415.961267 
C 476.057576 415.961267 477.058809 415.546542 477.796919 414.808432 
C 478.53503 414.070321 478.949754 413.069088 478.949754 412.025242 
C 478.949754 410.981397 478.53503 409.980163 477.796919 409.242053 
C 477.058809 408.503942 476.057576 408.089218 475.01373 408.089218 
C 473.969884 408.089218 472.968651 408.503942 472.23054 409.242053 
C 471.49243 409.980163 471.077705 410.981397 471.077705 412.025242 
C 471.077705 413.069088 471.49243 414.070321 472.23054 414.808432 
C 472.968651 415.546542 473.969884 415.961267 475.01373 415.961267 
z
" style="fill:#008000;fill-opacity:0.5;stroke:#008000;stroke-opacity:0.5;"/>
    <path clip-path="url(#pde22b9e91c)" d="M 433.869881 376.864457 
C 434.908862 376.864457 435.905428 376.451666 436.640098 375.716996 
C 437.374768 374.982326 437.787559 373.985759 437.787559 372.946779 
C 437.787559 371.907799 437.374768 370.911232 436.640098 370.176562 
C 435.905428 369.441892 434.908862 369.029101 433.869881 369.029101 
C 432.830901 369.029101 431.834335 369.441892 431.099665 370.176562 
C 430.364995 370.911232 429.952203 371.907799 429.952203 372.946779 
C 429.952203 373.985759 430.364995 374.982326 431.099665 375.716996 
C 431.834335 376.451666 432.830901 376.864457 433.869881 376.864457 
z
" style="fill:#008000;fill-opacity:0.5;stroke:#008000;stroke-opacity:0.5;"/>
   </g>
   <g id="PathCollection_5">
    <path clip-path="url(#pde22b9e91c)" d="M 485.705 223.625686 
C 486.755872 223.625686 487.763845 223.20817 488.506924 222.465091 
C 489.250003 221.722012 489.667519 220.714039 489.667519 219.663167 
C 489.667519 218.612295 489.250003 217.604322 488.506924 216.861243 
C 487.763845 216.118164 486.755872 215.700648 485.705 215.700648 
C 484.654128 215.700648 483.646155 216.118164 482.903076 216.861243 
C 482.159997 217.604322 481.742481 218.612295 481.742481 219.663167 
C 481.742481 220.714039 482.159997 221.722012 482.903076 222.465091 
C 483.646155 223.20817 484.654128 223.625686 485.705 223.625686 
z
" style="fill:#bf00bf;fill-opacity:0.5;stroke:#bf00bf;stroke-opacity:0.5;"/>
    <path clip-path="url(#pde22b9e91c)" d="M 307.719038 140.21513 
C 308.862385 140.21513 309.959057 139.760873 310.767526 138.952405 
C 311.575994 138.143936 312.030251 137.047264 312.030251 135.903917 
C 312.030251 134.76057 311.575994 133.663897 310.767526 132.855429 
C 309.959057 132.04696 308.862385 131.592703 307.719038 131.592703 
C 306.575691 131.592703 305.479018 132.04696 304.67055 132.855429 
C 303.862081 133.663897 303.407825 134.76057 303.407825 135.903917 
C 303.407825 137.047264 303.862081 138.143936 304.67055 138.952405 
C 305.479018 139.760873 306.575691 140.21513 307.719038 140.21513 
z
" style="fill:#bf00bf;fill-opacity:0.5;stroke:#bf00bf;stroke-opacity:0.5;"/>
    <path clip-path="url(#pde22b9e91c)" d="M 226.302361 236.670165 
C 227.31194 236.670165 228.280304 236.269055 228.994184 235.555175 
C 229.708064 234.841296 230.109173 233.872931 230.109173 232.863353 
C 230.109173 231.853774 229.708064 230.88541 228.994184 230.17153 
C 228.280304 229.457651 227.31194 229.056541 226.302361 229.056541 
C 225.292783 229.056541 224.324419 229.457651 223.610539 230.17153 
C 222.896659 230.88541 222.495549 231.853774 222.495549 232.863353 
C 222.495549 233.872931 222.896659 234.841296 223.610539 235.555175 
C 224.324419 236.269055 225.292783 236.670165 226.302361 236.670165 
z
" style="fill:#bf00bf;fill-opacity:0.5;stroke:#bf00bf;stroke-opacity:0.5;"/>
    <path clip-path="url(#pde22b9e91c)" d="M 456.512975 168.384573 
C 457.584919 168.384573 458.613104 167.958685 459.371083 167.200706 
C 460.129062 166.442727 460.55495 165.414543 460.55495 164.342599 
C 460.55495 163.270655 460.129062 162.24247 459.371083 161.484491 
C 458.613104 160.726512 457.584919 160.300625 456.512975 160.300625 
C 455.441031 160.300625 454.412847 160.726512 453.654868 161.484491 
C 452.896889 162.24247 452.471001 163.270655 452.471001 164.342599 
C 452.471001 165.414543 452.896889 166.442727 453.654868 167.200706 
C 454.412847 167.958685 455.441031 168.384573 456.512975 168.384573 
z
" style="fill:#bf00bf;fill-opacity:0.5;stroke:#bf00bf;stroke-opacity:0.5;"/>
   </g>
   <g id="PathCollection_6">
    <path clip-path="url(#pde22b9e91c)" d="M 374.225279 423.2177 
C 375.136299 423.2177 376.01013 422.855748 376.654319 422.211559 
C 377.298508 421.56737 377.66046 420.69354 377.66046 419.782519 
C 377.66046 418.871498 377.298508 417.997668 376.654319 417.353479 
C 376.01013 416.70929 375.136299 416.347337 374.225279 416.347337 
C 373.314258 416.347337 372.440427 416.70929 371.796238 417.353479 
C 371.15205 417.997668 370.790097 418.871498 370.790097 419.782519 
C 370.790097 420.69354 371.15205 421.56737 371.796238 422.211559 
C 372.440427 422.855748 373.314258 423.2177 374.225279 423.2177 
z
" style="fill:#00bfbf;fill-opacity:0.5;stroke:#00bfbf;stroke-opacity:0.5;"/>
    <path clip-path="url(#pde22b9e91c)" d="M 638.32857 223.782602 
C 639.421057 223.782602 640.468945 223.348552 641.24145 222.576047 
C 642.013955 221.803542 642.448005 220.755654 642.448005 219.663167 
C 642.448005 218.57068 642.013955 217.522791 641.24145 216.750286 
C 640.468945 215.977782 639.421057 215.543732 638.32857 215.543732 
C 637.236083 215.543732 636.188194 215.977782 635.415689 216.750286 
C 634.643184 217.522791 634.209135 218.57068 634.209135 219.663167 
C 634.209135 220.755654 634.643184 221.803542 635.415689 222.576047 
C 636.188194 223.348552 637.236083 223.782602 638.32857 223.782602 
z
" style="fill:#00bfbf;fill-opacity:0.5;stroke:#00bfbf;stroke-opacity:0.5;"/>
   </g>
   <g id="PathCollection_7">
    <path clip-path="url(#pde22b9e91c)" d="M 485.705 267.734839 
C 486.604273 267.734839 487.466836 267.377554 488.102718 266.741672 
C 488.7386 266.105789 489.095885 265.243227 489.095885 264.343954 
C 489.095885 263.44468 488.7386 262.582118 488.102718 261.946235 
C 487.466836 261.310353 486.604273 260.953068 485.705 260.953068 
C 484.805727 260.953068 483.943164 261.310353 483.307282 261.946235 
C 482.6714 262.582118 482.314114 263.44468 482.314114 264.343954 
C 482.314114 265.243227 482.6714 266.105789 483.307282 266.741672 
C 483.943164 267.377554 484.805727 267.734839 485.705 267.734839 
z
" style="fill:#00008b;fill-opacity:0.5;stroke:#00008b;stroke-opacity:0.5;"/>
    <path clip-path="url(#pde22b9e91c)" d="M 497.656823 344.798819 
C 498.54065 344.798819 499.388396 344.447671 500.013356 343.822711 
C 500.638316 343.197751 500.989464 342.350005 500.989464 341.466178 
C 500.989464 340.582351 500.638316 339.734605 500.013356 339.109645 
C 499.388396 338.484685 498.54065 338.133537 497.656823 338.133537 
C 496.772997 338.133537 495.92525 338.484685 495.30029 339.109645 
C 494.67533 339.734605 494.324182 340.582351 494.324182 341.466178 
C 494.324182 342.350005 494.67533 343.197751 495.30029 343.822711 
C 495.92525 344.447671 496.772997 344.798819 497.656823 344.798819 
z
" style="fill:#00008b;fill-opacity:0.5;stroke:#00008b;stroke-opacity:0.5;"/>
    <path clip-path="url(#pde22b9e91c)" d="M 456.512975 458.373293 
C 457.645087 458.373293 458.730983 457.9235 459.531508 457.122976 
C 460.332032 456.322452 460.781825 455.236556 460.781825 454.104443 
C 460.781825 452.972331 460.332032 451.886435 459.531508 451.085911 
C 458.730983 450.285387 457.645087 449.835594 456.512975 449.835594 
C 455.380863 449.835594 454.294967 450.285387 453.494442 451.085911 
C 452.693918 451.886435 452.244125 452.972331 452.244125 454.104443 
C 452.244125 455.236556 452.693918 456.322452 453.494442 457.122976 
C 454.294967 457.9235 455.380863 458.373293 456.512975 458.373293 
z
" style="fill:#00008b;fill-opacity:0.5;stroke:#00008b;stroke-opacity:0.5;"/>
    <path clip-path="url(#pde22b9e91c)" d="M 597.184721 140.516896 
C 598.408098 140.516896 599.581533 140.030844 600.446591 139.165786 
C 601.311649 138.300728 601.797701 137.127293 601.797701 135.903917 
C 601.797701 134.68054 601.311649 133.507105 600.446591 132.642047 
C 599.581533 131.776989 598.408098 131.290937 597.184721 131.290937 
C 595.961345 131.290937 594.78791 131.776989 593.922852 132.642047 
C 593.057794 133.507105 592.571741 134.68054 592.571741 135.903917 
C 592.571741 137.127293 593.057794 138.300728 593.922852 139.165786 
C 594.78791 140.030844 595.961345 140.516896 597.184721 140.516896 
z
" style="fill:#00008b;fill-opacity:0.5;stroke:#00008b;stroke-opacity:0.5;"/>
    <path clip-path="url(#pde22b9e91c)" d="M 440.87081 190.470666 
C 441.950004 190.470666 442.985142 190.041898 443.748247 189.278792 
C 444.511353 188.515687 444.940121 187.480549 444.940121 186.401355 
C 444.940121 185.322161 444.511353 184.287023 443.748247 183.523917 
C 442.985142 182.760812 441.950004 182.332044 440.87081 182.332044 
C 439.791616 182.332044 438.756478 182.760812 437.993372 183.523917 
C 437.230267 184.287023 436.801499 185.322161 436.801499 186.401355 
C 436.801499 187.480549 437.230267 188.515687 437.993372 189.278792 
C 438.756478 190.041898 439.791616 190.470666 440.87081 190.470666 
z
" style="fill:#00008b;fill-opacity:0.5;stroke:#00008b;stroke-opacity:0.5;"/>
    <path clip-path="url(#pde22b9e91c)" d="M 374.225279 168.319708 
C 375.28002 168.319708 376.291704 167.900654 377.037519 167.15484 
C 377.783334 166.409025 378.202387 165.397341 378.202387 164.342599 
C 378.202387 163.287857 377.783334 162.276173 377.037519 161.530358 
C 376.291704 160.784543 375.28002 160.36549 374.225279 160.36549 
C 373.170537 160.36549 372.158853 160.784543 371.413038 161.530358 
C 370.667223 162.276173 370.24817 163.287857 370.24817 164.342599 
C 370.24817 165.397341 370.667223 166.409025 371.413038 167.15484 
C 372.158853 167.900654 373.170537 168.319708 374.225279 168.319708 
z
" style="fill:#00008b;fill-opacity:0.5;stroke:#00008b;stroke-opacity:0.5;"/>
    <path clip-path="url(#pde22b9e91c)" d="M 497.656823 382.119656 
C 498.546905 382.119656 499.400651 381.766023 500.030034 381.13664 
C 500.659416 380.507258 501.013049 379.653512 501.013049 378.76343 
C 501.013049 377.873349 500.659416 377.019603 500.030034 376.39022 
C 499.400651 375.760837 498.546905 375.407204 497.656823 375.407204 
C 496.766742 375.407204 495.912996 375.760837 495.283613 376.39022 
C 494.65423 377.019603 494.300597 377.873349 494.300597 378.76343 
C 494.300597 379.653512 494.65423 380.507258 495.283613 381.13664 
C 495.912996 381.766023 496.766742 382.119656 497.656823 382.119656 
z
" style="fill:#00008b;fill-opacity:0.5;stroke:#00008b;stroke-opacity:0.5;"/>
   </g>
   <g id="PathCollection_8">
    <path clip-path="url(#pde22b9e91c)" d="M 399.726962 623.404267 
C 400.73994 623.404267 401.711566 623.001806 402.42785 622.285522 
C 403.144134 621.569238 403.546595 620.597612 403.546595 619.584633 
C 403.546595 618.571655 403.144134 617.600029 402.42785 616.883745 
C 401.711566 616.167461 400.73994 615.765 399.726962 615.765 
C 398.713983 615.765 397.742357 616.167461 397.026073 616.883745 
C 396.309789 617.600029 395.907328 618.571655 395.907328 619.584633 
C 395.907328 620.597612 396.309789 621.569238 397.026073 622.285522 
C 397.742357 623.001806 398.713983 623.404267 399.726962 623.404267 
z
" style="fill:#8b0000;fill-opacity:0.5;stroke:#8b0000;stroke-opacity:0.5;"/>
    <path clip-path="url(#pde22b9e91c)" d="M 440.87081 623.447405 
C 441.895229 623.447405 442.877828 623.040399 443.602202 622.316026 
C 444.326576 621.591652 444.733582 620.609052 444.733582 619.584633 
C 444.733582 618.560214 444.326576 617.577615 443.602202 616.853241 
C 442.877828 616.128868 441.895229 615.721862 440.87081 615.721862 
C 439.846391 615.721862 438.863791 616.128868 438.139418 616.853241 
C 437.415044 617.577615 437.008038 618.560214 437.008038 619.584633 
C 437.008038 620.609052 437.415044 621.591652 438.139418 622.316026 
C 438.863791 623.040399 439.846391 623.447405 440.87081 623.447405 
z
" style="fill:#8b0000;fill-opacity:0.5;stroke:#8b0000;stroke-opacity:0.5;"/>
    <path clip-path="url(#pde22b9e91c)" d="M 511.206683 428.94144 
C 512.192181 428.94144 513.137448 428.549898 513.8343 427.853045 
C 514.531152 427.156193 514.922695 426.210926 514.922695 425.225428 
C 514.922695 424.23993 514.531152 423.294663 513.8343 422.597811 
C 513.137448 421.900959 512.192181 421.509416 511.206683 421.509416 
C 510.221185 421.509416 509.275918 421.900959 508.579066 422.597811 
C 507.882214 423.294663 507.490671 424.23993 507.490671 425.225428 
C 507.490671 426.210926 507.882214 427.156193 508.579066 427.853045 
C 509.275918 428.549898 510.221185 428.94144 511.206683 428.94144 
z
" style="fill:#8b0000;fill-opacity:0.5;stroke:#8b0000;stroke-opacity:0.5;"/>
    <path clip-path="url(#pde22b9e91c)" d="M 465.342299 420.078843 
C 466.429338 420.078843 467.472001 419.646958 468.240653 418.878306 
C 469.009306 418.109653 469.441191 417.066991 469.441191 415.979952 
C 469.441191 414.892913 469.009306 413.85025 468.240653 413.081598 
C 467.472001 412.312945 466.429338 411.88106 465.342299 411.88106 
C 464.255261 411.88106 463.212598 412.312945 462.443945 413.081598 
C 461.675293 413.85025 461.243408 414.892913 461.243408 415.979952 
C 461.243408 417.066991 461.675293 418.109653 462.443945 418.878306 
C 463.212598 419.646958 464.255261 420.078843 465.342299 420.078843 
z
" style="fill:#8b0000;fill-opacity:0.5;stroke:#8b0000;stroke-opacity:0.5;"/>
    <path clip-path="url(#pde22b9e91c)" d="M 545.349603 623.811405 
C 546.470556 623.811405 547.545748 623.366046 548.338382 622.573412 
C 549.131015 621.780779 549.576374 620.705586 549.576374 619.584633 
C 549.576374 618.463681 549.131015 617.388488 548.338382 616.595855 
C 547.545748 615.803221 546.470556 615.357862 545.349603 615.357862 
C 544.22865 615.357862 543.153457 615.803221 542.360824 616.595855 
C 541.568191 617.388488 541.122831 618.463681 541.122831 619.584633 
C 541.122831 620.705586 541.568191 621.780779 542.360824 622.573412 
C 543.153457 623.366046 544.22865 623.811405 545.349603 623.811405 
z
" style="fill:#8b0000;fill-opacity:0.5;stroke:#8b0000;stroke-opacity:0.5;"/>
    <path clip-path="url(#pde22b9e91c)" d="M 485.705 623.693298 
C 486.79463 623.693298 487.839779 623.260383 488.610264 622.489898 
C 489.380749 621.719413 489.813664 620.674264 489.813664 619.584633 
C 489.813664 618.495003 489.380749 617.449854 488.610264 616.679369 
C 487.839779 615.908884 486.79463 615.475969 485.705 615.475969 
C 484.61537 615.475969 483.570221 615.908884 482.799736 616.679369 
C 482.029251 617.449854 481.596336 618.495003 481.596336 619.584633 
C 481.596336 620.674264 482.029251 621.719413 482.799736 622.489898 
C 483.570221 623.260383 484.61537 623.693298 485.705 623.693298 
z
" style="fill:#8b0000;fill-opacity:0.5;stroke:#8b0000;stroke-opacity:0.5;"/>
    <path clip-path="url(#pde22b9e91c)" d="M 511.206683 623.726021 
C 512.304992 623.726021 513.358465 623.289658 514.135086 622.513037 
C 514.911708 621.736415 515.348071 620.682942 515.348071 619.584633 
C 515.348071 618.486325 514.911708 617.432852 514.135086 616.65623 
C 513.358465 615.879609 512.304992 615.443246 511.206683 615.443246 
C 510.108374 615.443246 509.054902 615.879609 508.27828 616.65623 
C 507.501658 617.432852 507.065296 618.486325 507.065296 619.584633 
C 507.065296 620.682942 507.501658 621.736415 508.27828 622.513037 
C 509.054902 623.289658 510.108374 623.726021 511.206683 623.726021 
z
" style="fill:#8b0000;fill-opacity:0.5;stroke:#8b0000;stroke-opacity:0.5;"/>
    <path clip-path="url(#pde22b9e91c)" d="M 497.656823 624.024315 
C 498.834241 624.024315 499.963593 623.556522 500.796152 622.723963 
C 501.628712 621.891403 502.096505 620.762051 502.096505 619.584633 
C 502.096505 618.407216 501.628712 617.277864 500.796152 616.445304 
C 499.963593 615.612744 498.834241 615.144952 497.656823 615.144952 
C 496.479406 615.144952 495.350054 615.612744 494.517494 616.445304 
C 493.684934 617.277864 493.217141 618.407216 493.217141 619.584633 
C 493.217141 620.762051 493.684934 621.891403 494.517494 622.723963 
C 495.350054 623.556522 496.479406 624.024315 497.656823 624.024315 
z
" style="fill:#8b0000;fill-opacity:0.5;stroke:#8b0000;stroke-opacity:0.5;"/>
    <path clip-path="url(#pde22b9e91c)" d="M 545.349603 516.92503 
C 546.406607 516.92503 547.420462 516.505078 548.167877 515.757663 
C 548.915293 515.010247 549.335245 513.996393 549.335245 512.939388 
C 549.335245 511.882383 548.915293 510.868528 548.167877 510.121113 
C 547.420462 509.373698 546.406607 508.953746 545.349603 508.953746 
C 544.292598 508.953746 543.278743 509.373698 542.531328 510.121113 
C 541.783913 510.868528 541.363961 511.882383 541.363961 512.939388 
C 541.363961 513.996393 541.783913 515.010247 542.531328 515.757663 
C 543.278743 516.505078 544.292598 516.92503 545.349603 516.92503 
z
" style="fill:#8b0000;fill-opacity:0.5;stroke:#8b0000;stroke-opacity:0.5;"/>
   </g>
   <g id="PathCollection_9">
    <path clip-path="url(#pde22b9e91c)" d="M 395.006426 623.160687 
C 395.954807 623.160687 396.864471 622.783891 397.535078 622.113285 
C 398.205684 621.442679 398.58248 620.533014 398.58248 619.584633 
C 398.58248 618.636253 398.205684 617.726588 397.535078 617.055982 
C 396.864471 616.385376 395.954807 616.00858 395.006426 616.00858 
C 394.058046 616.00858 393.148381 616.385376 392.477774 617.055982 
C 391.807168 617.726588 391.430373 618.636253 391.430373 619.584633 
C 391.430373 620.533014 391.807168 621.442679 392.477774 622.113285 
C 393.148381 622.783891 394.058046 623.160687 395.006426 623.160687 
z
" style="fill:#cd853f;fill-opacity:0.5;stroke:#cd853f;stroke-opacity:0.5;"/>
    <path clip-path="url(#pde22b9e91c)" d="M 597.184721 622.605052 
C 598.315518 622.605052 599.400152 622.155782 600.199746 621.356188 
C 600.99934 620.556594 601.44861 619.47196 601.44861 618.341164 
C 601.44861 617.210367 600.99934 616.125733 600.199746 615.326139 
C 599.400152 614.526545 598.315518 614.077275 597.184721 614.077275 
C 596.053925 614.077275 594.969291 614.526545 594.169697 615.326139 
C 593.370103 616.125733 592.920833 617.210367 592.920833 618.341164 
C 592.920833 619.47196 593.370103 620.556594 594.169697 621.356188 
C 594.969291 622.155782 596.053925 622.605052 597.184721 622.605052 
z
" style="fill:#cd853f;fill-opacity:0.5;stroke:#cd853f;stroke-opacity:0.5;"/>
    <path clip-path="url(#pde22b9e91c)" d="M 370.534937 500.024725 
C 371.507038 500.024725 372.439454 499.638506 373.126833 498.951127 
C 373.814212 498.263748 374.200432 497.331331 374.200432 496.35923 
C 374.200432 495.387129 373.814212 494.454712 373.126833 493.767333 
C 372.439454 493.079954 371.507038 492.693735 370.534937 492.693735 
C 369.562836 492.693735 368.630419 493.079954 367.94304 493.767333 
C 367.255661 494.454712 366.869441 495.387129 366.869441 496.35923 
C 366.869441 497.331331 367.255661 498.263748 367.94304 498.951127 
C 368.630419 499.638506 369.562836 500.024725 370.534937 500.024725 
z
" style="fill:#cd853f;fill-opacity:0.5;stroke:#cd853f;stroke-opacity:0.5;"/>
    <path clip-path="url(#pde22b9e91c)" d="M 100.69127 542.461266 
C 101.612642 542.461266 102.496401 542.095201 103.14791 541.443693 
C 103.799418 540.792184 104.165483 539.908425 104.165483 538.987053 
C 104.165483 538.065681 103.799418 537.181922 103.14791 536.530413 
C 102.496401 535.878905 101.612642 535.51284 100.69127 535.51284 
C 99.769898 535.51284 98.886139 535.878905 98.234631 536.530413 
C 97.583122 537.181922 97.217057 538.065681 97.217057 538.987053 
C 97.217057 539.908425 97.583122 540.792184 98.234631 541.443693 
C 98.886139 542.095201 99.769898 542.461266 100.69127 542.461266 
z
" style="fill:#cd853f;fill-opacity:0.5;stroke:#cd853f;stroke-opacity:0.5;"/>
   </g>
   <g id="PathCollection_10">
    <path clip-path="url(#pde22b9e91c)" d="M 433.869881 337.47763 
L 432.974397 340.233649 
L 430.076546 340.233649 
L 432.420956 341.936962 
L 431.525471 344.692982 
L 433.869881 342.989668 
L 436.214291 344.692982 
L 435.318806 341.936962 
L 437.663216 340.233649 
L 434.765366 340.233649 
z
" style="fill:#006400;fill-opacity:0.5;stroke:#006400;stroke-opacity:0.5;"/>
    <path clip-path="url(#pde22b9e91c)" d="M 374.225279 276.780603 
L 373.309844 279.598022 
L 370.347434 279.598022 
L 372.744074 281.339283 
L 371.828639 284.156702 
L 374.225279 282.415441 
L 376.621918 284.156702 
L 375.706483 281.339283 
L 378.103123 279.598022 
L 375.140713 279.598022 
z
" style="fill:#006400;fill-opacity:0.5;stroke:#006400;stroke-opacity:0.5;"/>
    <path clip-path="url(#pde22b9e91c)" d="M 511.206683 215.294658 
L 510.225892 218.313223 
L 507.051984 218.313223 
L 509.619729 220.178799 
L 508.638938 223.197365 
L 511.206683 221.331789 
L 513.774428 223.197365 
L 512.793637 220.178799 
L 515.361382 218.313223 
L 512.187474 218.313223 
z
" style="fill:#006400;fill-opacity:0.5;stroke:#006400;stroke-opacity:0.5;"/>
    <path clip-path="url(#pde22b9e91c)" d="M 475.01373 239.932801 
L 473.986816 243.093316 
L 470.663653 243.093316 
L 473.352148 245.046622 
L 472.325234 248.207138 
L 475.01373 246.253832 
L 477.702225 248.207138 
L 476.675311 245.046622 
L 479.363806 243.093316 
L 476.040643 243.093316 
z
" style="fill:#006400;fill-opacity:0.5;stroke:#006400;stroke-opacity:0.5;"/>
    <path clip-path="url(#pde22b9e91c)" d="M 399.726962 297.333305 
L 398.8175 300.13234 
L 395.874421 300.13234 
L 398.255422 301.862239 
L 397.34596 304.661274 
L 399.726962 302.931375 
L 402.107963 304.661274 
L 401.198501 301.862239 
L 403.579503 300.13234 
L 400.636423 300.13234 
z
" style="fill:#006400;fill-opacity:0.5;stroke:#006400;stroke-opacity:0.5;"/>
    <path clip-path="url(#pde22b9e91c)" d="M 526.848848 250.908675 
L 525.947776 253.68189 
L 523.031847 253.681889 
L 525.390883 255.39583 
L 524.489811 258.169044 
L 526.848848 256.455104 
L 529.207885 258.169044 
L 528.306813 255.39583 
L 530.66585 253.681889 
L 527.74992 253.68189 
z
" style="fill:#006400;fill-opacity:0.5;stroke:#006400;stroke-opacity:0.5;"/>
    <path clip-path="url(#pde22b9e91c)" d="M 485.705 359.451044 
L 484.790355 362.266033 
L 481.830501 362.266033 
L 484.225073 364.005791 
L 483.310428 366.82078 
L 485.705 365.081021 
L 488.099572 366.82078 
L 487.184927 364.005791 
L 489.579499 362.266033 
L 486.619645 362.266033 
z
" style="fill:#006400;fill-opacity:0.5;stroke:#006400;stroke-opacity:0.5;"/>
   </g>
   <g id="PathCollection_11">
    <path clip-path="url(#pde22b9e91c)" d="M 485.705 463.750382 
C 486.571156 463.750382 487.401954 463.406254 488.014419 462.793789 
C 488.626884 462.181324 488.971012 461.350527 488.971012 460.48437 
C 488.971012 459.618214 488.626884 458.787416 488.014419 458.174951 
C 487.401954 457.562486 486.571156 457.218358 485.705 457.218358 
C 484.838843 457.218358 484.008046 457.562486 483.395581 458.174951 
C 482.783116 458.787416 482.438988 459.618214 482.438988 460.48437 
C 482.438988 461.350527 482.783116 462.181324 483.395581 462.793789 
C 484.008046 463.406254 484.838843 463.750382 485.705 463.750382 
z
" style="fill:#8b008b;fill-opacity:0.5;stroke:#8b008b;stroke-opacity:0.5;"/>
    <path clip-path="url(#pde22b9e91c)" d="M 353.862578 485.84204 
C 355.000945 485.84204 356.092841 485.389762 356.897788 484.584815 
C 357.702736 483.779868 358.155014 482.687972 358.155014 481.549604 
C 358.155014 480.411237 357.702736 479.319341 356.897788 478.514394 
C 356.092841 477.709447 355.000945 477.257168 353.862578 477.257168 
C 352.724211 477.257168 351.632315 477.709447 350.827367 478.514394 
C 350.02242 479.319341 349.570142 480.411237 349.570142 481.549604 
C 349.570142 482.687972 350.02242 483.779868 350.827367 484.584815 
C 351.632315 485.389762 352.724211 485.84204 353.862578 485.84204 
z
" style="fill:#8b008b;fill-opacity:0.5;stroke:#8b008b;stroke-opacity:0.5;"/>
    <path clip-path="url(#pde22b9e91c)" d="M 597.184721 361.173095 
C 598.36976 361.173095 599.506423 360.702274 600.344372 359.864325 
C 601.182321 359.026376 601.653142 357.889713 601.653142 356.704674 
C 601.653142 355.519636 601.182321 354.382973 600.344372 353.545024 
C 599.506423 352.707075 598.36976 352.236254 597.184721 352.236254 
C 595.999682 352.236254 594.86302 352.707075 594.025071 353.545024 
C 593.187122 354.382973 592.716301 355.519636 592.716301 356.704674 
C 592.716301 357.889713 593.187122 359.026376 594.025071 359.864325 
C 594.86302 360.702274 595.999682 361.173095 597.184721 361.173095 
z
" style="fill:#8b008b;fill-opacity:0.5;stroke:#8b008b;stroke-opacity:0.5;"/>
    <path clip-path="url(#pde22b9e91c)" d="M 440.87081 356.992945 
C 441.900694 356.992945 442.888535 356.583767 443.616772 355.85553 
C 444.34501 355.127292 444.754187 354.139451 444.754187 353.109567 
C 444.754187 352.079684 444.34501 351.091843 443.616772 350.363605 
C 442.888535 349.635367 441.900694 349.22619 440.87081 349.22619 
C 439.840926 349.22619 438.853085 349.635367 438.124848 350.363605 
C 437.39661 351.091843 436.987433 352.079684 436.987433 353.109567 
C 436.987433 354.139451 437.39661 355.127292 438.124848 355.85553 
C 438.853085 356.583767 439.840926 356.992945 440.87081 356.992945 
z
" style="fill:#8b008b;fill-opacity:0.5;stroke:#8b008b;stroke-opacity:0.5;"/>
   </g>
   <g id="PathCollection_12">
    <path clip-path="url(#pde22b9e91c)" d="M 254.33468 623.356522 
C 255.334996 623.356522 256.294477 622.959092 257.001808 622.251762 
C 257.709139 621.544431 258.106569 620.58495 258.106569 619.584633 
C 258.106569 618.584317 257.709139 617.624836 257.001808 616.917505 
C 256.294477 616.210175 255.334996 615.812744 254.33468 615.812744 
C 253.334363 615.812744 252.374882 616.210175 251.667552 616.917505 
C 250.960221 617.624836 250.562791 618.584317 250.562791 619.584633 
C 250.562791 620.58495 250.960221 621.544431 251.667552 622.251762 
C 252.374882 622.959092 253.334363 623.356522 254.33468 623.356522 
z
" style="fill:#008b8b;fill-opacity:0.5;stroke:#008b8b;stroke-opacity:0.5;"/>
    <path clip-path="url(#pde22b9e91c)" d="M 456.512975 623.364749 
C 457.515473 623.364749 458.477047 622.966452 459.18592 622.257579 
C 459.894794 621.548705 460.293091 620.587132 460.293091 619.584633 
C 460.293091 618.582135 459.894794 617.620562 459.18592 616.911688 
C 458.477047 616.202815 457.515473 615.804518 456.512975 615.804518 
C 455.510477 615.804518 454.548903 616.202815 453.84003 616.911688 
C 453.131156 617.620562 452.73286 618.582135 452.73286 619.584633 
C 452.73286 620.587132 453.131156 621.548705 453.84003 622.257579 
C 454.548903 622.966452 455.510477 623.364749 456.512975 623.364749 
z
" style="fill:#008b8b;fill-opacity:0.5;stroke:#008b8b;stroke-opacity:0.5;"/>
   </g>
   <g id="matplotlib.axis_1">
    <g id="xtick_1">
     <g id="line2d_1">
      <defs>
       <path d="M 0 0 
L 0 3.5 
" id="m4d2c10871b" style="stroke:#000000;stroke-width:0.8;"/>
      </defs>
      <g>
       <use style="stroke:#000000;stroke-width:0.8;" x="241.363017" xlink:href="#m4d2c10871b" y="630"/>
      </g>
     </g>
     <g id="text_1">
      <!-- $\mathdefault{10^{-2}}$ -->
      <defs>
       <path d="M 12.40625 8.296875 
L 28.515625 8.296875 
L 28.515625 63.921875 
L 10.984375 60.40625 
L 10.984375 69.390625 
L 28.421875 72.90625 
L 38.28125 72.90625 
L 38.28125 8.296875 
L 54.390625 8.296875 
L 54.390625 0 
L 12.40625 0 
z
" id="DejaVuSans-49"/>
       <path d="M 31.78125 66.40625 
Q 24.171875 66.40625 20.328125 58.90625 
Q 16.5 51.421875 16.5 36.375 
Q 16.5 21.390625 20.328125 13.890625 
Q 24.171875 6.390625 31.78125 6.390625 
Q 39.453125 6.390625 43.28125 13.890625 
Q 47.125 21.390625 47.125 36.375 
Q 47.125 51.421875 43.28125 58.90625 
Q 39.453125 66.40625 31.78125 66.40625 
z
M 31.78125 74.21875 
Q 44.046875 74.21875 50.515625 64.515625 
Q 56.984375 54.828125 56.984375 36.375 
Q 56.984375 17.96875 50.515625 8.265625 
Q 44.046875 -1.421875 31.78125 -1.421875 
Q 19.53125 -1.421875 13.0625 8.265625 
Q 6.59375 17.96875 6.59375 36.375 
Q 6.59375 54.828125 13.0625 64.515625 
Q 19.53125 74.21875 31.78125 74.21875 
z
" id="DejaVuSans-48"/>
       <path d="M 10.59375 35.5 
L 73.1875 35.5 
L 73.1875 27.203125 
L 10.59375 27.203125 
z
" id="DejaVuSans-8722"/>
       <path d="M 19.1875 8.296875 
L 53.609375 8.296875 
L 53.609375 0 
L 7.328125 0 
L 7.328125 8.296875 
Q 12.9375 14.109375 22.625 23.890625 
Q 32.328125 33.6875 34.8125 36.53125 
Q 39.546875 41.84375 41.421875 45.53125 
Q 43.3125 49.21875 43.3125 52.78125 
Q 43.3125 58.59375 39.234375 62.25 
Q 35.15625 65.921875 28.609375 65.921875 
Q 23.96875 65.921875 18.8125 64.3125 
Q 13.671875 62.703125 7.8125 59.421875 
L 7.8125 69.390625 
Q 13.765625 71.78125 18.9375 73 
Q 24.125 74.21875 28.421875 74.21875 
Q 39.75 74.21875 46.484375 68.546875 
Q 53.21875 62.890625 53.21875 53.421875 
Q 53.21875 48.921875 51.53125 44.890625 
Q 49.859375 40.875 45.40625 35.40625 
Q 44.1875 33.984375 37.640625 27.21875 
Q 31.109375 20.453125 19.1875 8.296875 
z
" id="DejaVuSans-50"/>
      </defs>
      <g transform="translate(229.613017 644.598438)scale(0.1 -0.1)">
       <use transform="translate(0 0.765625)" xlink:href="#DejaVuSans-49"/>
       <use transform="translate(63.623047 0.765625)" xlink:href="#DejaVuSans-48"/>
       <use transform="translate(128.203125 39.046875)scale(0.7)" xlink:href="#DejaVuSans-8722"/>
       <use transform="translate(186.855469 39.046875)scale(0.7)" xlink:href="#DejaVuSans-50"/>
      </g>
     </g>
    </g>
    <g id="xtick_2">
     <g id="line2d_2">
      <g>
       <use style="stroke:#000000;stroke-width:0.8;" x="475.01373" xlink:href="#m4d2c10871b" y="630"/>
      </g>
     </g>
     <g id="text_2">
      <!-- $\mathdefault{10^{-1}}$ -->
      <g transform="translate(463.26373 644.598438)scale(0.1 -0.1)">
       <use transform="translate(0 0.684375)" xlink:href="#DejaVuSans-49"/>
       <use transform="translate(63.623047 0.684375)" xlink:href="#DejaVuSans-48"/>
       <use transform="translate(128.203125 38.965625)scale(0.7)" xlink:href="#DejaVuSans-8722"/>
       <use transform="translate(186.855469 38.965625)scale(0.7)" xlink:href="#DejaVuSans-49"/>
      </g>
     </g>
    </g>
    <g id="xtick_3">
     <g id="line2d_3">
      <defs>
       <path d="M 0 0 
L 0 2 
" id="m5d65a0b8fb" style="stroke:#000000;stroke-width:0.6;"/>
      </defs>
      <g>
       <use style="stroke:#000000;stroke-width:0.6;" x="119.192025" xlink:href="#m5d65a0b8fb" y="630"/>
      </g>
     </g>
    </g>
    <g id="xtick_4">
     <g id="line2d_4">
      <g>
       <use style="stroke:#000000;stroke-width:0.6;" x="148.38405" xlink:href="#m5d65a0b8fb" y="630"/>
      </g>
     </g>
    </g>
    <g id="xtick_5">
     <g id="line2d_5">
      <g>
       <use style="stroke:#000000;stroke-width:0.6;" x="171.027143" xlink:href="#m5d65a0b8fb" y="630"/>
      </g>
     </g>
    </g>
    <g id="xtick_6">
     <g id="line2d_6">
      <g>
       <use style="stroke:#000000;stroke-width:0.6;" x="189.527898" xlink:href="#m5d65a0b8fb" y="630"/>
      </g>
     </g>
    </g>
    <g id="xtick_7">
     <g id="line2d_7">
      <g>
       <use style="stroke:#000000;stroke-width:0.6;" x="205.170063" xlink:href="#m5d65a0b8fb" y="630"/>
      </g>
     </g>
    </g>
    <g id="xtick_8">
     <g id="line2d_8">
      <g>
       <use style="stroke:#000000;stroke-width:0.6;" x="218.719923" xlink:href="#m5d65a0b8fb" y="630"/>
      </g>
     </g>
    </g>
    <g id="xtick_9">
     <g id="line2d_9">
      <g>
       <use style="stroke:#000000;stroke-width:0.6;" x="230.671746" xlink:href="#m5d65a0b8fb" y="630"/>
      </g>
     </g>
    </g>
    <g id="xtick_10">
     <g id="line2d_10">
      <g>
       <use style="stroke:#000000;stroke-width:0.6;" x="311.69889" xlink:href="#m5d65a0b8fb" y="630"/>
      </g>
     </g>
    </g>
    <g id="xtick_11">
     <g id="line2d_11">
      <g>
       <use style="stroke:#000000;stroke-width:0.6;" x="352.842738" xlink:href="#m5d65a0b8fb" y="630"/>
      </g>
     </g>
    </g>
    <g id="xtick_12">
     <g id="line2d_12">
      <g>
       <use style="stroke:#000000;stroke-width:0.6;" x="382.034763" xlink:href="#m5d65a0b8fb" y="630"/>
      </g>
     </g>
    </g>
    <g id="xtick_13">
     <g id="line2d_13">
      <g>
       <use style="stroke:#000000;stroke-width:0.6;" x="404.677857" xlink:href="#m5d65a0b8fb" y="630"/>
      </g>
     </g>
    </g>
    <g id="xtick_14">
     <g id="line2d_14">
      <g>
       <use style="stroke:#000000;stroke-width:0.6;" x="423.178611" xlink:href="#m5d65a0b8fb" y="630"/>
      </g>
     </g>
    </g>
    <g id="xtick_15">
     <g id="line2d_15">
      <g>
       <use style="stroke:#000000;stroke-width:0.6;" x="438.820776" xlink:href="#m5d65a0b8fb" y="630"/>
      </g>
     </g>
    </g>
    <g id="xtick_16">
     <g id="line2d_16">
      <g>
       <use style="stroke:#000000;stroke-width:0.6;" x="452.370636" xlink:href="#m5d65a0b8fb" y="630"/>
      </g>
     </g>
    </g>
    <g id="xtick_17">
     <g id="line2d_17">
      <g>
       <use style="stroke:#000000;stroke-width:0.6;" x="464.322459" xlink:href="#m5d65a0b8fb" y="630"/>
      </g>
     </g>
    </g>
    <g id="xtick_18">
     <g id="line2d_18">
      <g>
       <use style="stroke:#000000;stroke-width:0.6;" x="545.349603" xlink:href="#m5d65a0b8fb" y="630"/>
      </g>
     </g>
    </g>
    <g id="xtick_19">
     <g id="line2d_19">
      <g>
       <use style="stroke:#000000;stroke-width:0.6;" x="586.493451" xlink:href="#m5d65a0b8fb" y="630"/>
      </g>
     </g>
    </g>
    <g id="xtick_20">
     <g id="line2d_20">
      <g>
       <use style="stroke:#000000;stroke-width:0.6;" x="615.685476" xlink:href="#m5d65a0b8fb" y="630"/>
      </g>
     </g>
    </g>
    <g id="xtick_21">
     <g id="line2d_21">
      <g>
       <use style="stroke:#000000;stroke-width:0.6;" x="638.32857" xlink:href="#m5d65a0b8fb" y="630"/>
      </g>
     </g>
    </g>
    <g id="text_3">
     <!-- $h_{bet}$ -->
     <defs>
      <path d="M 55.71875 33.015625 
L 49.3125 0 
L 40.28125 0 
L 46.6875 32.671875 
Q 47.125 34.96875 47.359375 36.71875 
Q 47.609375 38.484375 47.609375 39.5 
Q 47.609375 43.609375 45.015625 45.890625 
Q 42.4375 48.1875 37.796875 48.1875 
Q 30.5625 48.1875 25.265625 43.296875 
Q 19.96875 38.421875 18.40625 30.328125 
L 12.5 0 
L 3.515625 0 
L 18.3125 75.984375 
L 27.296875 75.984375 
L 21.484375 46.09375 
Q 24.90625 50.6875 30.21875 53.34375 
Q 35.546875 56 41.40625 56 
Q 48.640625 56 52.609375 52.09375 
Q 56.59375 48.1875 56.59375 41.109375 
Q 56.59375 39.359375 56.375 37.359375 
Q 56.15625 35.359375 55.71875 33.015625 
z
" id="DejaVuSans-Oblique-104"/>
      <path d="M 49.515625 33.40625 
Q 49.515625 40.484375 46.265625 44.484375 
Q 43.015625 48.484375 37.3125 48.484375 
Q 33.15625 48.484375 29.515625 46.453125 
Q 25.875 44.4375 23.1875 40.578125 
Q 20.359375 36.53125 18.71875 31.171875 
Q 17.09375 25.828125 17.09375 20.515625 
Q 17.09375 13.765625 20.28125 9.9375 
Q 23.484375 6.109375 29.109375 6.109375 
Q 33.34375 6.109375 36.953125 8.078125 
Q 40.578125 10.0625 43.3125 13.921875 
Q 46.09375 17.921875 47.796875 23.234375 
Q 49.515625 28.5625 49.515625 33.40625 
z
M 21.578125 46.390625 
Q 24.90625 50.875 29.90625 53.4375 
Q 34.90625 56 40.375 56 
Q 48.78125 56 53.734375 50.328125 
Q 58.6875 44.671875 58.6875 35.015625 
Q 58.6875 27.09375 55.78125 19.671875 
Q 52.875 12.25 47.515625 6.5 
Q 44 2.6875 39.40625 0.625 
Q 34.8125 -1.421875 29.78125 -1.421875 
Q 24.46875 -1.421875 20.5625 1.015625 
Q 16.65625 3.46875 14.203125 8.296875 
L 12.59375 0 
L 3.609375 0 
L 18.40625 75.984375 
L 27.390625 75.984375 
z
" id="DejaVuSans-Oblique-98"/>
      <path d="M 48.09375 32.234375 
Q 48.25 33.015625 48.3125 33.84375 
Q 48.390625 34.671875 48.390625 35.5 
Q 48.390625 41.453125 44.890625 44.921875 
Q 41.40625 48.390625 35.40625 48.390625 
Q 28.71875 48.390625 23.578125 44.15625 
Q 18.453125 39.9375 15.828125 32.171875 
z
M 55.90625 25.203125 
L 14.109375 25.203125 
Q 13.8125 23.34375 13.71875 22.265625 
Q 13.625 21.1875 13.625 20.40625 
Q 13.625 13.625 17.796875 9.90625 
Q 21.96875 6.203125 29.59375 6.203125 
Q 35.453125 6.203125 40.671875 7.515625 
Q 45.90625 8.84375 50.390625 11.375 
L 48.6875 2.484375 
Q 43.84375 0.53125 38.6875 -0.4375 
Q 33.546875 -1.421875 28.21875 -1.421875 
Q 16.84375 -1.421875 10.71875 4.015625 
Q 4.59375 9.46875 4.59375 19.484375 
Q 4.59375 28.03125 7.640625 35.375 
Q 10.6875 42.71875 16.609375 48.484375 
Q 20.40625 52.09375 25.65625 54.046875 
Q 30.90625 56 36.8125 56 
Q 46.09375 56 51.578125 50.4375 
Q 57.078125 44.875 57.078125 35.5 
Q 57.078125 33.25 56.78125 30.6875 
Q 56.5 28.125 55.90625 25.203125 
z
" id="DejaVuSans-Oblique-101"/>
      <path d="M 42.28125 54.6875 
L 40.921875 47.703125 
L 23 47.703125 
L 17.1875 18.015625 
Q 16.890625 16.359375 16.75 15.234375 
Q 16.609375 14.109375 16.609375 13.484375 
Q 16.609375 10.359375 18.484375 8.9375 
Q 20.359375 7.515625 24.515625 7.515625 
L 33.59375 7.515625 
L 32.078125 0 
L 23.484375 0 
Q 15.484375 0 11.546875 3.125 
Q 7.625 6.25 7.625 12.59375 
Q 7.625 13.71875 7.765625 15.0625 
Q 7.90625 16.40625 8.203125 18.015625 
L 14.015625 47.703125 
L 6.390625 47.703125 
L 7.8125 54.6875 
L 15.28125 54.6875 
L 18.3125 70.21875 
L 27.296875 70.21875 
L 24.3125 54.6875 
z
" id="DejaVuSans-Oblique-116"/>
     </defs>
     <g transform="translate(350.8 665.875)scale(0.2 -0.2)">
      <use transform="translate(0 0.015625)" xlink:href="#DejaVuSans-Oblique-104"/>
      <use transform="translate(63.378906 -16.390625)scale(0.7)" xlink:href="#DejaVuSans-Oblique-98"/>
      <use transform="translate(107.8125 -16.390625)scale(0.7)" xlink:href="#DejaVuSans-Oblique-101"/>
      <use transform="translate(150.878906 -16.390625)scale(0.7)" xlink:href="#DejaVuSans-Oblique-116"/>
     </g>
    </g>
   </g>
   <g id="matplotlib.axis_2">
    <g id="ytick_1">
     <g id="line2d_22">
      <defs>
       <path d="M 0 0 
L -3.5 0 
" id="mec90e2afb9" style="stroke:#000000;stroke-width:0.8;"/>
      </defs>
      <g>
       <use style="stroke:#000000;stroke-width:0.8;" x="90" xlink:href="#mec90e2afb9" y="482.543126"/>
      </g>
     </g>
     <g id="text_4">
      <!-- $\mathdefault{10^{-2}}$ -->
      <g transform="translate(59.5 486.342345)scale(0.1 -0.1)">
       <use transform="translate(0 0.765625)" xlink:href="#DejaVuSans-49"/>
       <use transform="translate(63.623047 0.765625)" xlink:href="#DejaVuSans-48"/>
       <use transform="translate(128.203125 39.046875)scale(0.7)" xlink:href="#DejaVuSans-8722"/>
       <use transform="translate(186.855469 39.046875)scale(0.7)" xlink:href="#DejaVuSans-50"/>
      </g>
     </g>
    </g>
    <g id="ytick_2">
     <g id="line2d_23">
      <g>
       <use style="stroke:#000000;stroke-width:0.8;" x="90" xlink:href="#mec90e2afb9" y="254.922109"/>
      </g>
     </g>
     <g id="text_5">
      <!-- $\mathdefault{10^{-1}}$ -->
      <g transform="translate(59.5 258.721327)scale(0.1 -0.1)">
       <use transform="translate(0 0.684375)" xlink:href="#DejaVuSans-49"/>
       <use transform="translate(63.623047 0.684375)" xlink:href="#DejaVuSans-48"/>
       <use transform="translate(128.203125 38.965625)scale(0.7)" xlink:href="#DejaVuSans-8722"/>
       <use transform="translate(186.855469 38.965625)scale(0.7)" xlink:href="#DejaVuSans-49"/>
      </g>
     </g>
    </g>
    <g id="ytick_3">
     <g id="line2d_24">
      <defs>
       <path d="M 0 0 
L -2 0 
" id="mf1a0361cc2" style="stroke:#000000;stroke-width:0.6;"/>
      </defs>
      <g>
       <use style="stroke:#000000;stroke-width:0.6;" x="90" xlink:href="#mf1a0361cc2" y="601.561318"/>
      </g>
     </g>
    </g>
    <g id="ytick_4">
     <g id="line2d_25">
      <g>
       <use style="stroke:#000000;stroke-width:0.6;" x="90" xlink:href="#mf1a0361cc2" y="573.122635"/>
      </g>
     </g>
    </g>
    <g id="ytick_5">
     <g id="line2d_26">
      <g>
       <use style="stroke:#000000;stroke-width:0.6;" x="90" xlink:href="#mf1a0361cc2" y="551.06388"/>
      </g>
     </g>
    </g>
    <g id="ytick_6">
     <g id="line2d_27">
      <g>
       <use style="stroke:#000000;stroke-width:0.6;" x="90" xlink:href="#mf1a0361cc2" y="533.040564"/>
      </g>
     </g>
    </g>
    <g id="ytick_7">
     <g id="line2d_28">
      <g>
       <use style="stroke:#000000;stroke-width:0.6;" x="90" xlink:href="#mf1a0361cc2" y="517.802067"/>
      </g>
     </g>
    </g>
    <g id="ytick_8">
     <g id="line2d_29">
      <g>
       <use style="stroke:#000000;stroke-width:0.6;" x="90" xlink:href="#mf1a0361cc2" y="504.601882"/>
      </g>
     </g>
    </g>
    <g id="ytick_9">
     <g id="line2d_30">
      <g>
       <use style="stroke:#000000;stroke-width:0.6;" x="90" xlink:href="#mf1a0361cc2" y="492.958492"/>
      </g>
     </g>
    </g>
    <g id="ytick_10">
     <g id="line2d_31">
      <g>
       <use style="stroke:#000000;stroke-width:0.6;" x="90" xlink:href="#mf1a0361cc2" y="414.022372"/>
      </g>
     </g>
    </g>
    <g id="ytick_11">
     <g id="line2d_32">
      <g>
       <use style="stroke:#000000;stroke-width:0.6;" x="90" xlink:href="#mf1a0361cc2" y="373.9403"/>
      </g>
     </g>
    </g>
    <g id="ytick_12">
     <g id="line2d_33">
      <g>
       <use style="stroke:#000000;stroke-width:0.6;" x="90" xlink:href="#mf1a0361cc2" y="345.501618"/>
      </g>
     </g>
    </g>
    <g id="ytick_13">
     <g id="line2d_34">
      <g>
       <use style="stroke:#000000;stroke-width:0.6;" x="90" xlink:href="#mf1a0361cc2" y="323.442862"/>
      </g>
     </g>
    </g>
    <g id="ytick_14">
     <g id="line2d_35">
      <g>
       <use style="stroke:#000000;stroke-width:0.6;" x="90" xlink:href="#mf1a0361cc2" y="305.419547"/>
      </g>
     </g>
    </g>
    <g id="ytick_15">
     <g id="line2d_36">
      <g>
       <use style="stroke:#000000;stroke-width:0.6;" x="90" xlink:href="#mf1a0361cc2" y="290.18105"/>
      </g>
     </g>
    </g>
    <g id="ytick_16">
     <g id="line2d_37">
      <g>
       <use style="stroke:#000000;stroke-width:0.6;" x="90" xlink:href="#mf1a0361cc2" y="276.980864"/>
      </g>
     </g>
    </g>
    <g id="ytick_17">
     <g id="line2d_38">
      <g>
       <use style="stroke:#000000;stroke-width:0.6;" x="90" xlink:href="#mf1a0361cc2" y="265.337475"/>
      </g>
     </g>
    </g>
    <g id="ytick_18">
     <g id="line2d_39">
      <g>
       <use style="stroke:#000000;stroke-width:0.6;" x="90" xlink:href="#mf1a0361cc2" y="186.401355"/>
      </g>
     </g>
    </g>
    <g id="ytick_19">
     <g id="line2d_40">
      <g>
       <use style="stroke:#000000;stroke-width:0.6;" x="90" xlink:href="#mf1a0361cc2" y="146.319283"/>
      </g>
     </g>
    </g>
    <g id="ytick_20">
     <g id="line2d_41">
      <g>
       <use style="stroke:#000000;stroke-width:0.6;" x="90" xlink:href="#mf1a0361cc2" y="117.880601"/>
      </g>
     </g>
    </g>
    <g id="ytick_21">
     <g id="line2d_42">
      <g>
       <use style="stroke:#000000;stroke-width:0.6;" x="90" xlink:href="#mf1a0361cc2" y="95.821845"/>
      </g>
     </g>
    </g>
    <g id="text_6">
     <!-- $h_{va}$ -->
     <defs>
      <path d="M 7.171875 54.6875 
L 16.703125 54.6875 
L 24.703125 8.203125 
L 50.875 54.6875 
L 60.40625 54.6875 
L 29.296875 0 
L 17.1875 0 
z
" id="DejaVuSans-Oblique-118"/>
      <path d="M 53.71875 31.203125 
L 47.609375 0 
L 38.625 0 
L 40.28125 8.296875 
Q 36.328125 3.421875 31.265625 1 
Q 26.21875 -1.421875 20.015625 -1.421875 
Q 13.03125 -1.421875 8.5625 2.84375 
Q 4.109375 7.125 4.109375 13.8125 
Q 4.109375 23.390625 11.75 28.953125 
Q 19.390625 34.515625 32.8125 34.515625 
L 45.3125 34.515625 
L 45.796875 36.921875 
Q 45.90625 37.3125 45.953125 37.765625 
Q 46 38.234375 46 39.203125 
Q 46 43.5625 42.453125 45.96875 
Q 38.921875 48.390625 32.515625 48.390625 
Q 28.125 48.390625 23.5 47.265625 
Q 18.890625 46.140625 14.015625 43.890625 
L 15.578125 52.203125 
Q 20.65625 54.109375 25.515625 55.046875 
Q 30.375 56 34.90625 56 
Q 44.578125 56 49.625 51.796875 
Q 54.6875 47.609375 54.6875 39.59375 
Q 54.6875 37.984375 54.4375 35.8125 
Q 54.203125 33.640625 53.71875 31.203125 
z
M 44 27.484375 
L 35.015625 27.484375 
Q 23.96875 27.484375 18.671875 24.53125 
Q 13.375 21.578125 13.375 15.375 
Q 13.375 11.078125 16.078125 8.640625 
Q 18.796875 6.203125 23.578125 6.203125 
Q 30.90625 6.203125 36.375 11.453125 
Q 41.84375 16.703125 43.609375 25.484375 
z
" id="DejaVuSans-Oblique-97"/>
     </defs>
     <g transform="translate(51.340625 373.3)rotate(-90)scale(0.2 -0.2)">
      <use transform="translate(0 0.015625)" xlink:href="#DejaVuSans-Oblique-104"/>
      <use transform="translate(63.378906 -16.390625)scale(0.7)" xlink:href="#DejaVuSans-Oblique-118"/>
      <use transform="translate(104.804688 -16.390625)scale(0.7)" xlink:href="#DejaVuSans-Oblique-97"/>
     </g>
    </g>
   </g>
   <g id="LineCollection_1">
    <path clip-path="url(#pde22b9e91c)" d="M 334.341983 721 
L 334.341983 391.963616 
" style="fill:none;stroke:#000000;stroke-width:1.5;"/>
   </g>
   <g id="LineCollection_2">
    <path clip-path="url(#pde22b9e91c)" d="M -1 391.963616 
L 334.341983 391.963616 
" style="fill:none;stroke:#000000;stroke-width:1.5;"/>
   </g>
   <g id="line2d_43">
    <path clip-path="url(#pde22b9e91c)" d="M 100.69127 248.386759 
L 212.512078 248.122684 
L 264.415277 247.859312 
L 298.58736 247.59664 
L 324.105241 247.334664 
L 344.478248 247.07338 
L 361.436898 246.812785 
L 375.963033 246.552876 
L 388.66774 246.293647 
L 399.957321 246.035097 
L 410.115668 245.777222 
L 419.348979 245.520017 
L 427.811753 245.26348 
L 435.622748 245.007607 
L 442.875222 244.752394 
L 449.643744 244.497839 
L 455.988883 244.243937 
L 461.960501 243.990686 
L 467.60014 243.738082 
L 472.942776 243.486122 
L 478.018132 243.234802 
L 482.851682 242.98412 
L 487.465422 242.734071 
L 491.878478 242.484654 
L 496.107584 242.235864 
L 500.167462 241.987699 
L 504.071136 241.740156 
L 507.830183 241.493231 
L 511.454937 241.246921 
L 514.954664 241.001223 
L 518.337701 240.756134 
L 521.61158 240.511651 
L 524.783125 240.267772 
L 527.85854 240.024493 
L 530.843482 239.781811 
L 533.743123 239.539723 
L 536.562201 239.298227 
L 539.305074 239.057319 
L 541.975752 238.816997 
L 544.57794 238.577258 
L 547.115062 238.338099 
L 549.590292 238.099517 
L 552.00658 237.861509 
L 554.366667 237.624073 
L 556.673107 237.387206 
L 558.928286 237.150905 
L 561.134433 236.915168 
L 563.293634 236.679991 
L 565.407847 236.445373 
L 567.478907 236.21131 
L 569.508541 235.9778 
L 571.498374 235.744841 
L 573.449936 235.512429 
L 575.364673 235.280562 
L 577.243947 235.049238 
L 579.08905 234.818454 
L 580.901201 234.588207 
L 582.681557 234.358495 
L 584.431214 234.129316 
L 586.151214 233.900667 
L 587.842544 233.672546 
L 589.506145 233.44495 
L 591.142912 233.217876 
L 592.753696 232.991324 
L 594.339309 232.765289 
L 595.900527 232.539769 
L 597.438088 232.314763 
L 598.952698 232.090269 
L 600.445034 231.866282 
L 601.915739 231.642802 
L 603.365433 231.419826 
L 604.794708 231.197352 
L 606.20413 230.975378 
L 607.594243 230.753901 
L 608.96557 230.532919 
L 610.318612 230.31243 
L 611.653849 230.092431 
L 612.971745 229.872921 
L 614.272743 229.653898 
L 615.557272 229.435358 
L 616.825744 229.217301 
L 618.078554 228.999723 
L 619.316086 228.782624 
L 620.538706 228.566 
L 621.746771 228.34985 
L 622.940623 228.134171 
L 624.120592 227.918962 
L 625.286997 227.704221 
L 626.440147 227.489945 
L 627.58034 227.276132 
L 628.707863 227.062781 
L 629.822995 226.849889 
L 630.926006 226.637455 
L 632.017156 226.425476 
L 633.096697 226.213951 
L 634.164875 226.002878 
L 635.221924 225.792254 
L 636.268076 225.582078 
L 637.303553 225.372348 
L 638.32857 225.163062 
" style="fill:none;stroke:#000000;stroke-linecap:square;stroke-width:2;"/>
   </g>
   <g id="line2d_44">
    <path clip-path="url(#pde22b9e91c)" d="M -1 718.651613 
L 708.664443 27.301091 
L 721 15.283871 
" style="fill:none;stroke:#000000;stroke-dasharray:5.55,2.4;stroke-dashoffset:0;stroke-width:1.5;"/>
   </g>
   <g id="patch_3">
    <path d="M 90 630 
L 90 86.4 
" style="fill:none;stroke:#000000;stroke-linecap:square;stroke-linejoin:miter;stroke-width:0.8;"/>
   </g>
   <g id="patch_4">
    <path d="M 648 630 
L 648 86.4 
" style="fill:none;stroke:#000000;stroke-linecap:square;stroke-linejoin:miter;stroke-width:0.8;"/>
   </g>
   <g id="patch_5">
    <path d="M 90 630 
L 648 630 
" style="fill:none;stroke:#000000;stroke-linecap:square;stroke-linejoin:miter;stroke-width:0.8;"/>
   </g>
   <g id="patch_6">
    <path d="M 90 86.4 
L 648 86.4 
" style="fill:none;stroke:#000000;stroke-linecap:square;stroke-linejoin:miter;stroke-width:0.8;"/>
   </g>
   <g id="text_7">
    <!-- r = 0.059 -->
    <defs>
     <path d="M 41.109375 46.296875 
Q 39.59375 47.171875 37.8125 47.578125 
Q 36.03125 48 33.890625 48 
Q 26.265625 48 22.1875 43.046875 
Q 18.109375 38.09375 18.109375 28.8125 
L 18.109375 0 
L 9.078125 0 
L 9.078125 54.6875 
L 18.109375 54.6875 
L 18.109375 46.1875 
Q 20.953125 51.171875 25.484375 53.578125 
Q 30.03125 56 36.53125 56 
Q 37.453125 56 38.578125 55.875 
Q 39.703125 55.765625 41.0625 55.515625 
z
" id="DejaVuSans-114"/>
     <path id="DejaVuSans-32"/>
     <path d="M 10.59375 45.40625 
L 73.1875 45.40625 
L 73.1875 37.203125 
L 10.59375 37.203125 
z
M 10.59375 25.484375 
L 73.1875 25.484375 
L 73.1875 17.1875 
L 10.59375 17.1875 
z
" id="DejaVuSans-61"/>
     <path d="M 10.6875 12.40625 
L 21 12.40625 
L 21 0 
L 10.6875 0 
z
" id="DejaVuSans-46"/>
     <path d="M 10.796875 72.90625 
L 49.515625 72.90625 
L 49.515625 64.59375 
L 19.828125 64.59375 
L 19.828125 46.734375 
Q 21.96875 47.46875 24.109375 47.828125 
Q 26.265625 48.1875 28.421875 48.1875 
Q 40.625 48.1875 47.75 41.5 
Q 54.890625 34.8125 54.890625 23.390625 
Q 54.890625 11.625 47.5625 5.09375 
Q 40.234375 -1.421875 26.90625 -1.421875 
Q 22.3125 -1.421875 17.546875 -0.640625 
Q 12.796875 0.140625 7.71875 1.703125 
L 7.71875 11.625 
Q 12.109375 9.234375 16.796875 8.0625 
Q 21.484375 6.890625 26.703125 6.890625 
Q 35.15625 6.890625 40.078125 11.328125 
Q 45.015625 15.765625 45.015625 23.390625 
Q 45.015625 31 40.078125 35.4375 
Q 35.15625 39.890625 26.703125 39.890625 
Q 22.75 39.890625 18.8125 39.015625 
Q 14.890625 38.140625 10.796875 36.28125 
z
" id="DejaVuSans-53"/>
     <path d="M 10.984375 1.515625 
L 10.984375 10.5 
Q 14.703125 8.734375 18.5 7.8125 
Q 22.3125 6.890625 25.984375 6.890625 
Q 35.75 6.890625 40.890625 13.453125 
Q 46.046875 20.015625 46.78125 33.40625 
Q 43.953125 29.203125 39.59375 26.953125 
Q 35.25 24.703125 29.984375 24.703125 
Q 19.046875 24.703125 12.671875 31.3125 
Q 6.296875 37.9375 6.296875 49.421875 
Q 6.296875 60.640625 12.9375 67.421875 
Q 19.578125 74.21875 30.609375 74.21875 
Q 43.265625 74.21875 49.921875 64.515625 
Q 56.59375 54.828125 56.59375 36.375 
Q 56.59375 19.140625 48.40625 8.859375 
Q 40.234375 -1.421875 26.421875 -1.421875 
Q 22.703125 -1.421875 18.890625 -0.6875 
Q 15.09375 0.046875 10.984375 1.515625 
z
M 30.609375 32.421875 
Q 37.25 32.421875 41.125 36.953125 
Q 45.015625 41.5 45.015625 49.421875 
Q 45.015625 57.28125 41.125 61.84375 
Q 37.25 66.40625 30.609375 66.40625 
Q 23.96875 66.40625 20.09375 61.84375 
Q 16.21875 57.28125 16.21875 49.421875 
Q 16.21875 41.5 20.09375 36.953125 
Q 23.96875 32.421875 30.609375 32.421875 
z
" id="DejaVuSans-57"/>
    </defs>
    <g transform="translate(559.20357 319.091593)scale(0.166667 -0.166667)">
     <use xlink:href="#DejaVuSans-114"/>
     <use x="41.113281" xlink:href="#DejaVuSans-32"/>
     <use x="72.900391" xlink:href="#DejaVuSans-61"/>
     <use x="156.689453" xlink:href="#DejaVuSans-32"/>
     <use x="188.476562" xlink:href="#DejaVuSans-48"/>
     <use x="252.099609" xlink:href="#DejaVuSans-46"/>
     <use x="283.886719" xlink:href="#DejaVuSans-48"/>
     <use x="347.509766" xlink:href="#DejaVuSans-53"/>
     <use x="411.132812" xlink:href="#DejaVuSans-57"/>
    </g>
   </g>
   <g id="text_8">
    <!-- r weight = 0.079 -->
    <defs>
     <path d="M 4.203125 54.6875 
L 13.1875 54.6875 
L 24.421875 12.015625 
L 35.59375 54.6875 
L 46.1875 54.6875 
L 57.421875 12.015625 
L 68.609375 54.6875 
L 77.59375 54.6875 
L 63.28125 0 
L 52.6875 0 
L 40.921875 44.828125 
L 29.109375 0 
L 18.5 0 
z
" id="DejaVuSans-119"/>
     <path d="M 56.203125 29.59375 
L 56.203125 25.203125 
L 14.890625 25.203125 
Q 15.484375 15.921875 20.484375 11.0625 
Q 25.484375 6.203125 34.421875 6.203125 
Q 39.59375 6.203125 44.453125 7.46875 
Q 49.3125 8.734375 54.109375 11.28125 
L 54.109375 2.78125 
Q 49.265625 0.734375 44.1875 -0.34375 
Q 39.109375 -1.421875 33.890625 -1.421875 
Q 20.796875 -1.421875 13.15625 6.1875 
Q 5.515625 13.8125 5.515625 26.8125 
Q 5.515625 40.234375 12.765625 48.109375 
Q 20.015625 56 32.328125 56 
Q 43.359375 56 49.78125 48.890625 
Q 56.203125 41.796875 56.203125 29.59375 
z
M 47.21875 32.234375 
Q 47.125 39.59375 43.09375 43.984375 
Q 39.0625 48.390625 32.421875 48.390625 
Q 24.90625 48.390625 20.390625 44.140625 
Q 15.875 39.890625 15.1875 32.171875 
z
" id="DejaVuSans-101"/>
     <path d="M 9.421875 54.6875 
L 18.40625 54.6875 
L 18.40625 0 
L 9.421875 0 
z
M 9.421875 75.984375 
L 18.40625 75.984375 
L 18.40625 64.59375 
L 9.421875 64.59375 
z
" id="DejaVuSans-105"/>
     <path d="M 45.40625 27.984375 
Q 45.40625 37.75 41.375 43.109375 
Q 37.359375 48.484375 30.078125 48.484375 
Q 22.859375 48.484375 18.828125 43.109375 
Q 14.796875 37.75 14.796875 27.984375 
Q 14.796875 18.265625 18.828125 12.890625 
Q 22.859375 7.515625 30.078125 7.515625 
Q 37.359375 7.515625 41.375 12.890625 
Q 45.40625 18.265625 45.40625 27.984375 
z
M 54.390625 6.78125 
Q 54.390625 -7.171875 48.1875 -13.984375 
Q 42 -20.796875 29.203125 -20.796875 
Q 24.46875 -20.796875 20.265625 -20.09375 
Q 16.0625 -19.390625 12.109375 -17.921875 
L 12.109375 -9.1875 
Q 16.0625 -11.328125 19.921875 -12.34375 
Q 23.78125 -13.375 27.78125 -13.375 
Q 36.625 -13.375 41.015625 -8.765625 
Q 45.40625 -4.15625 45.40625 5.171875 
L 45.40625 9.625 
Q 42.625 4.78125 38.28125 2.390625 
Q 33.9375 0 27.875 0 
Q 17.828125 0 11.671875 7.65625 
Q 5.515625 15.328125 5.515625 27.984375 
Q 5.515625 40.671875 11.671875 48.328125 
Q 17.828125 56 27.875 56 
Q 33.9375 56 38.28125 53.609375 
Q 42.625 51.21875 45.40625 46.390625 
L 45.40625 54.6875 
L 54.390625 54.6875 
z
" id="DejaVuSans-103"/>
     <path d="M 54.890625 33.015625 
L 54.890625 0 
L 45.90625 0 
L 45.90625 32.71875 
Q 45.90625 40.484375 42.875 44.328125 
Q 39.84375 48.1875 33.796875 48.1875 
Q 26.515625 48.1875 22.3125 43.546875 
Q 18.109375 38.921875 18.109375 30.90625 
L 18.109375 0 
L 9.078125 0 
L 9.078125 75.984375 
L 18.109375 75.984375 
L 18.109375 46.1875 
Q 21.34375 51.125 25.703125 53.5625 
Q 30.078125 56 35.796875 56 
Q 45.21875 56 50.046875 50.171875 
Q 54.890625 44.34375 54.890625 33.015625 
z
" id="DejaVuSans-104"/>
     <path d="M 18.3125 70.21875 
L 18.3125 54.6875 
L 36.8125 54.6875 
L 36.8125 47.703125 
L 18.3125 47.703125 
L 18.3125 18.015625 
Q 18.3125 11.328125 20.140625 9.421875 
Q 21.96875 7.515625 27.59375 7.515625 
L 36.8125 7.515625 
L 36.8125 0 
L 27.59375 0 
Q 17.1875 0 13.234375 3.875 
Q 9.28125 7.765625 9.28125 18.015625 
L 9.28125 47.703125 
L 2.6875 47.703125 
L 2.6875 54.6875 
L 9.28125 54.6875 
L 9.28125 70.21875 
z
" id="DejaVuSans-116"/>
     <path d="M 8.203125 72.90625 
L 55.078125 72.90625 
L 55.078125 68.703125 
L 28.609375 0 
L 18.3125 0 
L 43.21875 64.59375 
L 8.203125 64.59375 
z
" id="DejaVuSans-55"/>
    </defs>
    <g transform="translate(100.69127 319.091593)scale(0.166667 -0.166667)">
     <use xlink:href="#DejaVuSans-114"/>
     <use x="41.113281" xlink:href="#DejaVuSans-32"/>
     <use x="72.900391" xlink:href="#DejaVuSans-119"/>
     <use x="154.6875" xlink:href="#DejaVuSans-101"/>
     <use x="216.210938" xlink:href="#DejaVuSans-105"/>
     <use x="243.994141" xlink:href="#DejaVuSans-103"/>
     <use x="307.470703" xlink:href="#DejaVuSans-104"/>
     <use x="370.849609" xlink:href="#DejaVuSans-116"/>
     <use x="410.058594" xlink:href="#DejaVuSans-32"/>
     <use x="441.845703" xlink:href="#DejaVuSans-61"/>
     <use x="525.634766" xlink:href="#DejaVuSans-32"/>
     <use x="557.421875" xlink:href="#DejaVuSans-48"/>
     <use x="621.044922" xlink:href="#DejaVuSans-46"/>
     <use x="652.832031" xlink:href="#DejaVuSans-48"/>
     <use x="716.455078" xlink:href="#DejaVuSans-55"/>
     <use x="780.078125" xlink:href="#DejaVuSans-57"/>
    </g>
   </g>
  </g>
 </g>
 <defs>
  <clipPath id="pde22b9e91c">
   <rect height="543.6" width="558" x="90" y="86.4"/>
  </clipPath>
 </defs>
</svg>
