<?xml version="1.0" encoding="utf-8" standalone="no"?>
<!DOCTYPE svg PUBLIC "-//W3C//DTD SVG 1.1//EN"
  "http://www.w3.org/Graphics/SVG/1.1/DTD/svg11.dtd">
<!-- Created with matplotlib (https://matplotlib.org/) -->
<svg height="720pt" version="1.1" viewBox="0 0 720 720" width="720pt" xmlns="http://www.w3.org/2000/svg" xmlns:xlink="http://www.w3.org/1999/xlink">
 <defs>
  <style type="text/css">
*{stroke-linecap:butt;stroke-linejoin:round;}
  </style>
 </defs>
 <g id="figure_1">
  <g id="patch_1">
   <path d="M 0 720 
L 720 720 
L 720 0 
L 0 0 
z
" style="fill:#ffffff;"/>
  </g>
  <g id="axes_1">
   <g id="patch_2">
    <path d="M 119.477402 632.1 
L 689.563872 632.1 
L 689.563872 21.4 
L 119.477402 21.4 
z
" style="fill:#ffffff;"/>
   </g>
   <g id="PathCollection_1">
    <defs>
     <path d="M 0 1.936492 
C 0.513564 1.936492 1.006162 1.732451 1.369306 1.369306 
C 1.732451 1.006162 1.936492 0.513564 1.936492 0 
C 1.936492 -0.513564 1.732451 -1.006162 1.369306 -1.369306 
C 1.006162 -1.732451 0.513564 -1.936492 0 -1.936492 
C -0.513564 -1.936492 -1.006162 -1.732451 -1.369306 -1.369306 
C -1.732451 -1.006162 -1.936492 -0.513564 -1.936492 0 
C -1.936492 0.513564 -1.732451 1.006162 -1.369306 1.369306 
C -1.006162 1.732451 -0.513564 1.936492 0 1.936492 
z
" id="m08d118b73d" style="stroke:#000000;"/>
    </defs>
    <g clip-path="url(#pa2a418574f)">
     <use style="stroke:#000000;" x="269.586896" xlink:href="#m08d118b73d" y="51.87125"/>
    </g>
   </g>
   <g id="PathCollection_2">
    <defs>
     <path d="M 0 1.936492 
C 0.513564 1.936492 1.006162 1.732451 1.369306 1.369306 
C 1.732451 1.006162 1.936492 0.513564 1.936492 0 
C 1.936492 -0.513564 1.732451 -1.006162 1.369306 -1.369306 
C 1.006162 -1.732451 0.513564 -1.936492 0 -1.936492 
C -0.513564 -1.936492 -1.006162 -1.732451 -1.369306 -1.369306 
C -1.732451 -1.006162 -1.936492 -0.513564 -1.936492 0 
C -1.936492 0.513564 -1.732451 1.006162 -1.369306 1.369306 
C -1.006162 1.732451 -0.513564 1.936492 0 1.936492 
z
" id="me295c89231" style="stroke:#808080;"/>
    </defs>
    <g clip-path="url(#pa2a418574f)">
     <use style="fill:#808080;stroke:#808080;" x="277.379917" xlink:href="#me295c89231" y="137.7116"/>
    </g>
   </g>
   <g id="PathCollection_3">
    <defs>
     <path d="M 0 1.936492 
C 0.513564 1.936492 1.006162 1.732451 1.369306 1.369306 
C 1.732451 1.006162 1.936492 0.513564 1.936492 0 
C 1.936492 -0.513564 1.732451 -1.006162 1.369306 -1.369306 
C 1.006162 -1.732451 0.513564 -1.936492 0 -1.936492 
C -0.513564 -1.936492 -1.006162 -1.732451 -1.369306 -1.369306 
C -1.732451 -1.006162 -1.936492 -0.513564 -1.936492 0 
C -1.936492 0.513564 -1.732451 1.006162 -1.369306 1.369306 
C -1.006162 1.732451 -0.513564 1.936492 0 1.936492 
z
" id="mb923922449" style="stroke:#ff0000;"/>
    </defs>
    <g clip-path="url(#pa2a418574f)">
     <use style="fill:#ff0000;stroke:#ff0000;" x="440.649496" xlink:href="#mb923922449" y="608.915107"/>
    </g>
   </g>
   <g id="PathCollection_4">
    <g clip-path="url(#pa2a418574f)">
     <use style="stroke:#000000;" x="532.092534" xlink:href="#m08d118b73d" y="173.192331"/>
    </g>
   </g>
   <g id="PathCollection_5">
    <g clip-path="url(#pa2a418574f)">
     <use style="fill:#808080;stroke:#808080;" x="560.035422" xlink:href="#me295c89231" y="210.672997"/>
    </g>
   </g>
   <g id="PathCollection_6">
    <g clip-path="url(#pa2a418574f)">
     <use style="fill:#ff0000;stroke:#ff0000;" x="487.356979" xlink:href="#mb923922449" y="144.090375"/>
    </g>
   </g>
   <g id="PathCollection_7">
    <g clip-path="url(#pa2a418574f)">
     <use style="stroke:#000000;" x="667.581377" xlink:href="#m08d118b73d" y="204.123108"/>
    </g>
   </g>
   <g id="PathCollection_8">
    <g clip-path="url(#pa2a418574f)">
     <use style="fill:#808080;stroke:#808080;" x="608.981662" xlink:href="#me295c89231" y="167.429659"/>
    </g>
   </g>
   <g id="PathCollection_9">
    <g clip-path="url(#pa2a418574f)">
     <use style="fill:#ff0000;stroke:#ff0000;" x="613.813124" xlink:href="#mb923922449" y="170.151313"/>
    </g>
   </g>
   <g id="PathCollection_10">
    <g clip-path="url(#pa2a418574f)">
     <use style="stroke:#000000;" x="666.168906" xlink:href="#m08d118b73d" y="210.051797"/>
    </g>
   </g>
   <g id="PathCollection_11">
    <g clip-path="url(#pa2a418574f)">
     <use style="fill:#808080;stroke:#808080;" x="650.793843" xlink:href="#me295c89231" y="184.176106"/>
    </g>
   </g>
   <g id="PathCollection_12">
    <g clip-path="url(#pa2a418574f)">
     <use style="fill:#ff0000;stroke:#ff0000;" x="616.070835" xlink:href="#mb923922449" y="174.57095"/>
    </g>
   </g>
   <g id="PathCollection_13">
    <g clip-path="url(#pa2a418574f)">
     <use style="stroke:#000000;" x="637.31632" xlink:href="#m08d118b73d" y="256.97644"/>
    </g>
   </g>
   <g id="PathCollection_14">
    <g clip-path="url(#pa2a418574f)">
     <use style="fill:#808080;stroke:#808080;" x="605.749717" xlink:href="#me295c89231" y="278.594959"/>
    </g>
   </g>
   <g id="PathCollection_15">
    <g clip-path="url(#pa2a418574f)">
     <use style="fill:#ff0000;stroke:#ff0000;" x="557.203023" xlink:href="#mb923922449" y="235.2853"/>
    </g>
   </g>
   <g id="PathCollection_16">
    <g clip-path="url(#pa2a418574f)">
     <use style="stroke:#000000;" x="423.934534" xlink:href="#m08d118b73d" y="138.537111"/>
    </g>
   </g>
   <g id="PathCollection_17">
    <g clip-path="url(#pa2a418574f)">
     <use style="fill:#808080;stroke:#808080;" x="593.819824" xlink:href="#me295c89231" y="169.590365"/>
    </g>
   </g>
   <g id="PathCollection_18">
    <g clip-path="url(#pa2a418574f)">
     <use style="fill:#ff0000;stroke:#ff0000;" x="614.564801" xlink:href="#mb923922449" y="172.633095"/>
    </g>
   </g>
   <g id="PathCollection_19">
    <g clip-path="url(#pa2a418574f)">
     <use style="stroke:#000000;" x="433.964768" xlink:href="#m08d118b73d" y="357.833766"/>
    </g>
   </g>
   <g id="PathCollection_20">
    <g clip-path="url(#pa2a418574f)">
     <use style="fill:#808080;stroke:#808080;" x="589.46187" xlink:href="#me295c89231" y="296.435786"/>
    </g>
   </g>
   <g id="PathCollection_21">
    <g clip-path="url(#pa2a418574f)">
     <use style="fill:#ff0000;stroke:#ff0000;" x="531.757131" xlink:href="#mb923922449" y="250.853145"/>
    </g>
   </g>
   <g id="PathCollection_22">
    <g clip-path="url(#pa2a418574f)">
     <use style="stroke:#000000;" x="405.966699" xlink:href="#m08d118b73d" y="250.37621"/>
    </g>
   </g>
   <g id="PathCollection_23">
    <g clip-path="url(#pa2a418574f)">
     <use style="fill:#808080;stroke:#808080;" x="493.183751" xlink:href="#me295c89231" y="135.465536"/>
    </g>
   </g>
   <g id="PathCollection_24">
    <g clip-path="url(#pa2a418574f)">
     <use style="fill:#ff0000;stroke:#ff0000;" x="576.756254" xlink:href="#mb923922449" y="94.293767"/>
    </g>
   </g>
   <g id="PathCollection_25">
    <g clip-path="url(#pa2a418574f)">
     <use style="stroke:#000000;" x="666.475345" xlink:href="#m08d118b73d" y="270.561381"/>
    </g>
   </g>
   <g id="PathCollection_26">
    <g clip-path="url(#pa2a418574f)">
     <use style="fill:#808080;stroke:#808080;" x="653.561886" xlink:href="#me295c89231" y="178.264123"/>
    </g>
   </g>
   <g id="PathCollection_27">
    <g clip-path="url(#pa2a418574f)">
     <use style="fill:#ff0000;stroke:#ff0000;" x="597.246178" xlink:href="#mb923922449" y="47.959921"/>
    </g>
   </g>
   <g id="PathCollection_28">
    <g clip-path="url(#pa2a418574f)">
     <use style="stroke:#000000;" x="125.014904" xlink:href="#m08d118b73d" y="286.89158"/>
    </g>
   </g>
   <g id="PathCollection_29">
    <g clip-path="url(#pa2a418574f)">
     <use style="fill:#808080;stroke:#808080;" x="628.718373" xlink:href="#me295c89231" y="268.37272"/>
    </g>
   </g>
   <g id="PathCollection_30">
    <g clip-path="url(#pa2a418574f)">
     <use style="fill:#ff0000;stroke:#ff0000;" x="402.268642" xlink:href="#mb923922449" y="247.026139"/>
    </g>
   </g>
   <g id="PathCollection_31">
    <g clip-path="url(#pa2a418574f)">
     <use style="stroke:#000000;" x="550.362124" xlink:href="#m08d118b73d" y="406.920193"/>
    </g>
   </g>
   <g id="PathCollection_32">
    <g clip-path="url(#pa2a418574f)">
     <use style="fill:#808080;stroke:#808080;" x="532.921843" xlink:href="#me295c89231" y="301.395786"/>
    </g>
   </g>
   <g id="PathCollection_33">
    <g clip-path="url(#pa2a418574f)">
     <use style="fill:#ff0000;stroke:#ff0000;" x="526.297219" xlink:href="#mb923922449" y="200.356426"/>
    </g>
   </g>
   <g id="PathCollection_34">
    <g clip-path="url(#pa2a418574f)">
     <use style="stroke:#000000;" x="484.997495" xlink:href="#m08d118b73d" y="51.413985"/>
    </g>
   </g>
   <g id="PathCollection_35">
    <g clip-path="url(#pa2a418574f)">
     <use style="fill:#808080;stroke:#808080;" x="520.293435" xlink:href="#me295c89231" y="185.407528"/>
    </g>
   </g>
   <g id="PathCollection_36">
    <g clip-path="url(#pa2a418574f)">
     <use style="fill:#ff0000;stroke:#ff0000;" x="570.741976" xlink:href="#mb923922449" y="96.682481"/>
    </g>
   </g>
   <g id="patch_3">
    <path clip-path="url(#pa2a418574f)" d="M 269.586896 51.87125 
L 277.379917 137.7116 
L 440.649496 608.915107 
z
" style="opacity:0.2;stroke:#000000;stroke-linejoin:miter;stroke-width:2;"/>
   </g>
   <g id="patch_4">
    <path clip-path="url(#pa2a418574f)" d="M 532.092534 173.192331 
L 560.035422 210.672997 
L 487.356979 144.090375 
z
" style="fill:#150000;opacity:0.2;stroke:#150000;stroke-linejoin:miter;stroke-width:2;"/>
   </g>
   <g id="patch_5">
    <path clip-path="url(#pa2a418574f)" d="M 667.581377 204.123108 
L 608.981662 167.429659 
L 613.813124 170.151313 
z
" style="fill:#2a0000;opacity:0.2;stroke:#2a0000;stroke-linejoin:miter;stroke-width:2;"/>
   </g>
   <g id="patch_6">
    <path clip-path="url(#pa2a418574f)" d="M 666.168906 210.051797 
L 650.793843 184.176106 
L 616.070835 174.57095 
z
" style="fill:#400000;opacity:0.2;stroke:#400000;stroke-linejoin:miter;stroke-width:2;"/>
   </g>
   <g id="patch_7">
    <path clip-path="url(#pa2a418574f)" d="M 637.31632 256.97644 
L 605.749717 278.594959 
L 557.203023 235.2853 
z
" style="fill:#550000;opacity:0.2;stroke:#550000;stroke-linejoin:miter;stroke-width:2;"/>
   </g>
   <g id="patch_8">
    <path clip-path="url(#pa2a418574f)" d="M 423.934534 138.537111 
L 593.819824 169.590365 
L 614.564801 172.633095 
z
" style="fill:#6a0000;opacity:0.2;stroke:#6a0000;stroke-linejoin:miter;stroke-width:2;"/>
   </g>
   <g id="patch_9">
    <path clip-path="url(#pa2a418574f)" d="M 433.964768 357.833766 
L 589.46187 296.435786 
L 531.757131 250.853145 
z
" style="fill:#800000;opacity:0.2;stroke:#800000;stroke-linejoin:miter;stroke-width:2;"/>
   </g>
   <g id="patch_10">
    <path clip-path="url(#pa2a418574f)" d="M 405.966699 250.37621 
L 493.183751 135.465536 
L 576.756254 94.293767 
z
" style="fill:#950000;opacity:0.2;stroke:#950000;stroke-linejoin:miter;stroke-width:2;"/>
   </g>
   <g id="patch_11">
    <path clip-path="url(#pa2a418574f)" d="M 666.475345 270.561381 
L 653.561886 178.264123 
L 597.246178 47.959921 
z
" style="fill:#aa0000;opacity:0.2;stroke:#aa0000;stroke-linejoin:miter;stroke-width:2;"/>
   </g>
   <g id="patch_12">
    <path clip-path="url(#pa2a418574f)" d="M 125.014904 286.89158 
L 628.718373 268.37272 
L 402.268642 247.026139 
z
" style="fill:#bf0000;opacity:0.2;stroke:#bf0000;stroke-linejoin:miter;stroke-width:2;"/>
   </g>
   <g id="patch_13">
    <path clip-path="url(#pa2a418574f)" d="M 550.362124 406.920193 
L 532.921843 301.395786 
L 526.297219 200.356426 
z
" style="fill:#d40000;opacity:0.2;stroke:#d40000;stroke-linejoin:miter;stroke-width:2;"/>
   </g>
   <g id="patch_14">
    <path clip-path="url(#pa2a418574f)" d="M 484.997495 51.413985 
L 520.293435 185.407528 
L 570.741976 96.682481 
z
" style="fill:#ea0000;opacity:0.2;stroke:#ea0000;stroke-linejoin:miter;stroke-width:2;"/>
   </g>
   <g id="matplotlib.axis_1">
    <g id="xtick_1">
     <g id="line2d_1">
      <defs>
       <path d="M 0 0 
L 0 3.5 
" id="m807c48cbe2" style="stroke:#000000;stroke-width:0.8;"/>
      </defs>
      <g>
       <use style="stroke:#000000;stroke-width:0.8;" x="171.303445" xlink:href="#m807c48cbe2" y="632.1"/>
      </g>
     </g>
     <g id="text_1">
      <!-- $\mathdefault{10^{-5}}$ -->
      <defs>
       <path d="M 12.40625 8.296875 
L 28.515625 8.296875 
L 28.515625 63.921875 
L 10.984375 60.40625 
L 10.984375 69.390625 
L 28.421875 72.90625 
L 38.28125 72.90625 
L 38.28125 8.296875 
L 54.390625 8.296875 
L 54.390625 0 
L 12.40625 0 
z
" id="DejaVuSans-49"/>
       <path d="M 31.78125 66.40625 
Q 24.171875 66.40625 20.328125 58.90625 
Q 16.5 51.421875 16.5 36.375 
Q 16.5 21.390625 20.328125 13.890625 
Q 24.171875 6.390625 31.78125 6.390625 
Q 39.453125 6.390625 43.28125 13.890625 
Q 47.125 21.390625 47.125 36.375 
Q 47.125 51.421875 43.28125 58.90625 
Q 39.453125 66.40625 31.78125 66.40625 
z
M 31.78125 74.21875 
Q 44.046875 74.21875 50.515625 64.515625 
Q 56.984375 54.828125 56.984375 36.375 
Q 56.984375 17.96875 50.515625 8.265625 
Q 44.046875 -1.421875 31.78125 -1.421875 
Q 19.53125 -1.421875 13.0625 8.265625 
Q 6.59375 17.96875 6.59375 36.375 
Q 6.59375 54.828125 13.0625 64.515625 
Q 19.53125 74.21875 31.78125 74.21875 
z
" id="DejaVuSans-48"/>
       <path d="M 10.59375 35.5 
L 73.1875 35.5 
L 73.1875 27.203125 
L 10.59375 27.203125 
z
" id="DejaVuSans-8722"/>
       <path d="M 10.796875 72.90625 
L 49.515625 72.90625 
L 49.515625 64.59375 
L 19.828125 64.59375 
L 19.828125 46.734375 
Q 21.96875 47.46875 24.109375 47.828125 
Q 26.265625 48.1875 28.421875 48.1875 
Q 40.625 48.1875 47.75 41.5 
Q 54.890625 34.8125 54.890625 23.390625 
Q 54.890625 11.625 47.5625 5.09375 
Q 40.234375 -1.421875 26.90625 -1.421875 
Q 22.3125 -1.421875 17.546875 -0.640625 
Q 12.796875 0.140625 7.71875 1.703125 
L 7.71875 11.625 
Q 12.109375 9.234375 16.796875 8.0625 
Q 21.484375 6.890625 26.703125 6.890625 
Q 35.15625 6.890625 40.078125 11.328125 
Q 45.015625 15.765625 45.015625 23.390625 
Q 45.015625 31 40.078125 35.4375 
Q 35.15625 39.890625 26.703125 39.890625 
Q 22.75 39.890625 18.8125 39.015625 
Q 14.890625 38.140625 10.796875 36.28125 
z
" id="DejaVuSans-53"/>
      </defs>
      <g transform="translate(145.192334 655.985417)scale(0.222222 -0.222222)">
       <use transform="translate(0 0.684375)" xlink:href="#DejaVuSans-49"/>
       <use transform="translate(63.623047 0.684375)" xlink:href="#DejaVuSans-48"/>
       <use transform="translate(128.203125 38.965625)scale(0.7)" xlink:href="#DejaVuSans-8722"/>
       <use transform="translate(186.855469 38.965625)scale(0.7)" xlink:href="#DejaVuSans-53"/>
      </g>
     </g>
    </g>
    <g id="xtick_2">
     <g id="line2d_2">
      <g>
       <use style="stroke:#000000;stroke-width:0.8;" x="274.95553" xlink:href="#m807c48cbe2" y="632.1"/>
      </g>
     </g>
     <g id="text_2">
      <!-- $\mathdefault{10^{-4}}$ -->
      <defs>
       <path d="M 37.796875 64.3125 
L 12.890625 25.390625 
L 37.796875 25.390625 
z
M 35.203125 72.90625 
L 47.609375 72.90625 
L 47.609375 25.390625 
L 58.015625 25.390625 
L 58.015625 17.1875 
L 47.609375 17.1875 
L 47.609375 0 
L 37.796875 0 
L 37.796875 17.1875 
L 4.890625 17.1875 
L 4.890625 26.703125 
z
" id="DejaVuSans-52"/>
      </defs>
      <g transform="translate(248.844419 655.985417)scale(0.222222 -0.222222)">
       <use transform="translate(0 0.684375)" xlink:href="#DejaVuSans-49"/>
       <use transform="translate(63.623047 0.684375)" xlink:href="#DejaVuSans-48"/>
       <use transform="translate(128.203125 38.965625)scale(0.7)" xlink:href="#DejaVuSans-8722"/>
       <use transform="translate(186.855469 38.965625)scale(0.7)" xlink:href="#DejaVuSans-52"/>
      </g>
     </g>
    </g>
    <g id="xtick_3">
     <g id="line2d_3">
      <g>
       <use style="stroke:#000000;stroke-width:0.8;" x="378.607616" xlink:href="#m807c48cbe2" y="632.1"/>
      </g>
     </g>
     <g id="text_3">
      <!-- $\mathdefault{10^{-3}}$ -->
      <defs>
       <path d="M 40.578125 39.3125 
Q 47.65625 37.796875 51.625 33 
Q 55.609375 28.21875 55.609375 21.1875 
Q 55.609375 10.40625 48.1875 4.484375 
Q 40.765625 -1.421875 27.09375 -1.421875 
Q 22.515625 -1.421875 17.65625 -0.515625 
Q 12.796875 0.390625 7.625 2.203125 
L 7.625 11.71875 
Q 11.71875 9.328125 16.59375 8.109375 
Q 21.484375 6.890625 26.8125 6.890625 
Q 36.078125 6.890625 40.9375 10.546875 
Q 45.796875 14.203125 45.796875 21.1875 
Q 45.796875 27.640625 41.28125 31.265625 
Q 36.765625 34.90625 28.71875 34.90625 
L 20.21875 34.90625 
L 20.21875 43.015625 
L 29.109375 43.015625 
Q 36.375 43.015625 40.234375 45.921875 
Q 44.09375 48.828125 44.09375 54.296875 
Q 44.09375 59.90625 40.109375 62.90625 
Q 36.140625 65.921875 28.71875 65.921875 
Q 24.65625 65.921875 20.015625 65.03125 
Q 15.375 64.15625 9.8125 62.3125 
L 9.8125 71.09375 
Q 15.4375 72.65625 20.34375 73.4375 
Q 25.25 74.21875 29.59375 74.21875 
Q 40.828125 74.21875 47.359375 69.109375 
Q 53.90625 64.015625 53.90625 55.328125 
Q 53.90625 49.265625 50.4375 45.09375 
Q 46.96875 40.921875 40.578125 39.3125 
z
" id="DejaVuSans-51"/>
      </defs>
      <g transform="translate(352.496505 655.985417)scale(0.222222 -0.222222)">
       <use transform="translate(0 0.765625)" xlink:href="#DejaVuSans-49"/>
       <use transform="translate(63.623047 0.765625)" xlink:href="#DejaVuSans-48"/>
       <use transform="translate(128.203125 39.046875)scale(0.7)" xlink:href="#DejaVuSans-8722"/>
       <use transform="translate(186.855469 39.046875)scale(0.7)" xlink:href="#DejaVuSans-51"/>
      </g>
     </g>
    </g>
    <g id="xtick_4">
     <g id="line2d_4">
      <g>
       <use style="stroke:#000000;stroke-width:0.8;" x="482.259701" xlink:href="#m807c48cbe2" y="632.1"/>
      </g>
     </g>
     <g id="text_4">
      <!-- $\mathdefault{10^{-2}}$ -->
      <defs>
       <path d="M 19.1875 8.296875 
L 53.609375 8.296875 
L 53.609375 0 
L 7.328125 0 
L 7.328125 8.296875 
Q 12.9375 14.109375 22.625 23.890625 
Q 32.328125 33.6875 34.8125 36.53125 
Q 39.546875 41.84375 41.421875 45.53125 
Q 43.3125 49.21875 43.3125 52.78125 
Q 43.3125 58.59375 39.234375 62.25 
Q 35.15625 65.921875 28.609375 65.921875 
Q 23.96875 65.921875 18.8125 64.3125 
Q 13.671875 62.703125 7.8125 59.421875 
L 7.8125 69.390625 
Q 13.765625 71.78125 18.9375 73 
Q 24.125 74.21875 28.421875 74.21875 
Q 39.75 74.21875 46.484375 68.546875 
Q 53.21875 62.890625 53.21875 53.421875 
Q 53.21875 48.921875 51.53125 44.890625 
Q 49.859375 40.875 45.40625 35.40625 
Q 44.1875 33.984375 37.640625 27.21875 
Q 31.109375 20.453125 19.1875 8.296875 
z
" id="DejaVuSans-50"/>
      </defs>
      <g transform="translate(456.14859 655.985417)scale(0.222222 -0.222222)">
       <use transform="translate(0 0.765625)" xlink:href="#DejaVuSans-49"/>
       <use transform="translate(63.623047 0.765625)" xlink:href="#DejaVuSans-48"/>
       <use transform="translate(128.203125 39.046875)scale(0.7)" xlink:href="#DejaVuSans-8722"/>
       <use transform="translate(186.855469 39.046875)scale(0.7)" xlink:href="#DejaVuSans-50"/>
      </g>
     </g>
    </g>
    <g id="xtick_5">
     <g id="line2d_5">
      <g>
       <use style="stroke:#000000;stroke-width:0.8;" x="585.911787" xlink:href="#m807c48cbe2" y="632.1"/>
      </g>
     </g>
     <g id="text_5">
      <!-- $\mathdefault{10^{-1}}$ -->
      <g transform="translate(559.800676 655.985417)scale(0.222222 -0.222222)">
       <use transform="translate(0 0.684375)" xlink:href="#DejaVuSans-49"/>
       <use transform="translate(63.623047 0.684375)" xlink:href="#DejaVuSans-48"/>
       <use transform="translate(128.203125 38.965625)scale(0.7)" xlink:href="#DejaVuSans-8722"/>
       <use transform="translate(186.855469 38.965625)scale(0.7)" xlink:href="#DejaVuSans-49"/>
      </g>
     </g>
    </g>
    <g id="xtick_6">
     <g id="line2d_6">
      <g>
       <use style="stroke:#000000;stroke-width:0.8;" x="689.563872" xlink:href="#m807c48cbe2" y="632.1"/>
      </g>
     </g>
     <g id="text_6">
      <!-- $\mathdefault{10^{0}}$ -->
      <g transform="translate(670.008317 655.985417)scale(0.222222 -0.222222)">
       <use transform="translate(0 0.765625)" xlink:href="#DejaVuSans-49"/>
       <use transform="translate(63.623047 0.765625)" xlink:href="#DejaVuSans-48"/>
       <use transform="translate(128.203125 39.046875)scale(0.7)" xlink:href="#DejaVuSans-48"/>
      </g>
     </g>
    </g>
    <g id="xtick_7">
     <g id="line2d_7">
      <defs>
       <path d="M 0 0 
L 0 2 
" id="m1adab7a2ee" style="stroke:#000000;stroke-width:0.6;"/>
      </defs>
      <g>
       <use style="stroke:#000000;stroke-width:0.6;" x="130.056133" xlink:href="#m1adab7a2ee" y="632.1"/>
      </g>
     </g>
    </g>
    <g id="xtick_8">
     <g id="line2d_8">
      <g>
       <use style="stroke:#000000;stroke-width:0.6;" x="140.101058" xlink:href="#m1adab7a2ee" y="632.1"/>
      </g>
     </g>
    </g>
    <g id="xtick_9">
     <g id="line2d_9">
      <g>
       <use style="stroke:#000000;stroke-width:0.6;" x="148.30836" xlink:href="#m1adab7a2ee" y="632.1"/>
      </g>
     </g>
    </g>
    <g id="xtick_10">
     <g id="line2d_10">
      <g>
       <use style="stroke:#000000;stroke-width:0.6;" x="155.247534" xlink:href="#m1adab7a2ee" y="632.1"/>
      </g>
     </g>
    </g>
    <g id="xtick_11">
     <g id="line2d_11">
      <g>
       <use style="stroke:#000000;stroke-width:0.6;" x="161.25852" xlink:href="#m1adab7a2ee" y="632.1"/>
      </g>
     </g>
    </g>
    <g id="xtick_12">
     <g id="line2d_12">
      <g>
       <use style="stroke:#000000;stroke-width:0.6;" x="166.560586" xlink:href="#m1adab7a2ee" y="632.1"/>
      </g>
     </g>
    </g>
    <g id="xtick_13">
     <g id="line2d_13">
      <g>
       <use style="stroke:#000000;stroke-width:0.6;" x="202.505832" xlink:href="#m1adab7a2ee" y="632.1"/>
      </g>
     </g>
    </g>
    <g id="xtick_14">
     <g id="line2d_14">
      <g>
       <use style="stroke:#000000;stroke-width:0.6;" x="220.758058" xlink:href="#m1adab7a2ee" y="632.1"/>
      </g>
     </g>
    </g>
    <g id="xtick_15">
     <g id="line2d_15">
      <g>
       <use style="stroke:#000000;stroke-width:0.6;" x="233.708219" xlink:href="#m1adab7a2ee" y="632.1"/>
      </g>
     </g>
    </g>
    <g id="xtick_16">
     <g id="line2d_16">
      <g>
       <use style="stroke:#000000;stroke-width:0.6;" x="243.753144" xlink:href="#m1adab7a2ee" y="632.1"/>
      </g>
     </g>
    </g>
    <g id="xtick_17">
     <g id="line2d_17">
      <g>
       <use style="stroke:#000000;stroke-width:0.6;" x="251.960445" xlink:href="#m1adab7a2ee" y="632.1"/>
      </g>
     </g>
    </g>
    <g id="xtick_18">
     <g id="line2d_18">
      <g>
       <use style="stroke:#000000;stroke-width:0.6;" x="258.899619" xlink:href="#m1adab7a2ee" y="632.1"/>
      </g>
     </g>
    </g>
    <g id="xtick_19">
     <g id="line2d_19">
      <g>
       <use style="stroke:#000000;stroke-width:0.6;" x="264.910606" xlink:href="#m1adab7a2ee" y="632.1"/>
      </g>
     </g>
    </g>
    <g id="xtick_20">
     <g id="line2d_20">
      <g>
       <use style="stroke:#000000;stroke-width:0.6;" x="270.212671" xlink:href="#m1adab7a2ee" y="632.1"/>
      </g>
     </g>
    </g>
    <g id="xtick_21">
     <g id="line2d_21">
      <g>
       <use style="stroke:#000000;stroke-width:0.6;" x="306.157917" xlink:href="#m1adab7a2ee" y="632.1"/>
      </g>
     </g>
    </g>
    <g id="xtick_22">
     <g id="line2d_22">
      <g>
       <use style="stroke:#000000;stroke-width:0.6;" x="324.410143" xlink:href="#m1adab7a2ee" y="632.1"/>
      </g>
     </g>
    </g>
    <g id="xtick_23">
     <g id="line2d_23">
      <g>
       <use style="stroke:#000000;stroke-width:0.6;" x="337.360304" xlink:href="#m1adab7a2ee" y="632.1"/>
      </g>
     </g>
    </g>
    <g id="xtick_24">
     <g id="line2d_24">
      <g>
       <use style="stroke:#000000;stroke-width:0.6;" x="347.405229" xlink:href="#m1adab7a2ee" y="632.1"/>
      </g>
     </g>
    </g>
    <g id="xtick_25">
     <g id="line2d_25">
      <g>
       <use style="stroke:#000000;stroke-width:0.6;" x="355.61253" xlink:href="#m1adab7a2ee" y="632.1"/>
      </g>
     </g>
    </g>
    <g id="xtick_26">
     <g id="line2d_26">
      <g>
       <use style="stroke:#000000;stroke-width:0.6;" x="362.551705" xlink:href="#m1adab7a2ee" y="632.1"/>
      </g>
     </g>
    </g>
    <g id="xtick_27">
     <g id="line2d_27">
      <g>
       <use style="stroke:#000000;stroke-width:0.6;" x="368.562691" xlink:href="#m1adab7a2ee" y="632.1"/>
      </g>
     </g>
    </g>
    <g id="xtick_28">
     <g id="line2d_28">
      <g>
       <use style="stroke:#000000;stroke-width:0.6;" x="373.864757" xlink:href="#m1adab7a2ee" y="632.1"/>
      </g>
     </g>
    </g>
    <g id="xtick_29">
     <g id="line2d_29">
      <g>
       <use style="stroke:#000000;stroke-width:0.6;" x="409.810003" xlink:href="#m1adab7a2ee" y="632.1"/>
      </g>
     </g>
    </g>
    <g id="xtick_30">
     <g id="line2d_30">
      <g>
       <use style="stroke:#000000;stroke-width:0.6;" x="428.062229" xlink:href="#m1adab7a2ee" y="632.1"/>
      </g>
     </g>
    </g>
    <g id="xtick_31">
     <g id="line2d_31">
      <g>
       <use style="stroke:#000000;stroke-width:0.6;" x="441.012389" xlink:href="#m1adab7a2ee" y="632.1"/>
      </g>
     </g>
    </g>
    <g id="xtick_32">
     <g id="line2d_32">
      <g>
       <use style="stroke:#000000;stroke-width:0.6;" x="451.057314" xlink:href="#m1adab7a2ee" y="632.1"/>
      </g>
     </g>
    </g>
    <g id="xtick_33">
     <g id="line2d_33">
      <g>
       <use style="stroke:#000000;stroke-width:0.6;" x="459.264616" xlink:href="#m1adab7a2ee" y="632.1"/>
      </g>
     </g>
    </g>
    <g id="xtick_34">
     <g id="line2d_34">
      <g>
       <use style="stroke:#000000;stroke-width:0.6;" x="466.20379" xlink:href="#m1adab7a2ee" y="632.1"/>
      </g>
     </g>
    </g>
    <g id="xtick_35">
     <g id="line2d_35">
      <g>
       <use style="stroke:#000000;stroke-width:0.6;" x="472.214776" xlink:href="#m1adab7a2ee" y="632.1"/>
      </g>
     </g>
    </g>
    <g id="xtick_36">
     <g id="line2d_36">
      <g>
       <use style="stroke:#000000;stroke-width:0.6;" x="477.516842" xlink:href="#m1adab7a2ee" y="632.1"/>
      </g>
     </g>
    </g>
    <g id="xtick_37">
     <g id="line2d_37">
      <g>
       <use style="stroke:#000000;stroke-width:0.6;" x="513.462088" xlink:href="#m1adab7a2ee" y="632.1"/>
      </g>
     </g>
    </g>
    <g id="xtick_38">
     <g id="line2d_38">
      <g>
       <use style="stroke:#000000;stroke-width:0.6;" x="531.714314" xlink:href="#m1adab7a2ee" y="632.1"/>
      </g>
     </g>
    </g>
    <g id="xtick_39">
     <g id="line2d_39">
      <g>
       <use style="stroke:#000000;stroke-width:0.6;" x="544.664475" xlink:href="#m1adab7a2ee" y="632.1"/>
      </g>
     </g>
    </g>
    <g id="xtick_40">
     <g id="line2d_40">
      <g>
       <use style="stroke:#000000;stroke-width:0.6;" x="554.7094" xlink:href="#m1adab7a2ee" y="632.1"/>
      </g>
     </g>
    </g>
    <g id="xtick_41">
     <g id="line2d_41">
      <g>
       <use style="stroke:#000000;stroke-width:0.6;" x="562.916701" xlink:href="#m1adab7a2ee" y="632.1"/>
      </g>
     </g>
    </g>
    <g id="xtick_42">
     <g id="line2d_42">
      <g>
       <use style="stroke:#000000;stroke-width:0.6;" x="569.855875" xlink:href="#m1adab7a2ee" y="632.1"/>
      </g>
     </g>
    </g>
    <g id="xtick_43">
     <g id="line2d_43">
      <g>
       <use style="stroke:#000000;stroke-width:0.6;" x="575.866862" xlink:href="#m1adab7a2ee" y="632.1"/>
      </g>
     </g>
    </g>
    <g id="xtick_44">
     <g id="line2d_44">
      <g>
       <use style="stroke:#000000;stroke-width:0.6;" x="581.168927" xlink:href="#m1adab7a2ee" y="632.1"/>
      </g>
     </g>
    </g>
    <g id="xtick_45">
     <g id="line2d_45">
      <g>
       <use style="stroke:#000000;stroke-width:0.6;" x="617.114173" xlink:href="#m1adab7a2ee" y="632.1"/>
      </g>
     </g>
    </g>
    <g id="xtick_46">
     <g id="line2d_46">
      <g>
       <use style="stroke:#000000;stroke-width:0.6;" x="635.3664" xlink:href="#m1adab7a2ee" y="632.1"/>
      </g>
     </g>
    </g>
    <g id="xtick_47">
     <g id="line2d_47">
      <g>
       <use style="stroke:#000000;stroke-width:0.6;" x="648.31656" xlink:href="#m1adab7a2ee" y="632.1"/>
      </g>
     </g>
    </g>
    <g id="xtick_48">
     <g id="line2d_48">
      <g>
       <use style="stroke:#000000;stroke-width:0.6;" x="658.361485" xlink:href="#m1adab7a2ee" y="632.1"/>
      </g>
     </g>
    </g>
    <g id="xtick_49">
     <g id="line2d_49">
      <g>
       <use style="stroke:#000000;stroke-width:0.6;" x="666.568787" xlink:href="#m1adab7a2ee" y="632.1"/>
      </g>
     </g>
    </g>
    <g id="xtick_50">
     <g id="line2d_50">
      <g>
       <use style="stroke:#000000;stroke-width:0.6;" x="673.507961" xlink:href="#m1adab7a2ee" y="632.1"/>
      </g>
     </g>
    </g>
    <g id="xtick_51">
     <g id="line2d_51">
      <g>
       <use style="stroke:#000000;stroke-width:0.6;" x="679.518947" xlink:href="#m1adab7a2ee" y="632.1"/>
      </g>
     </g>
    </g>
    <g id="xtick_52">
     <g id="line2d_52">
      <g>
       <use style="stroke:#000000;stroke-width:0.6;" x="684.821013" xlink:href="#m1adab7a2ee" y="632.1"/>
      </g>
     </g>
    </g>
    <g id="text_7">
     <!-- h$_{bet}$ -->
     <defs>
      <path d="M 54.890625 33.015625 
L 54.890625 0 
L 45.90625 0 
L 45.90625 32.71875 
Q 45.90625 40.484375 42.875 44.328125 
Q 39.84375 48.1875 33.796875 48.1875 
Q 26.515625 48.1875 22.3125 43.546875 
Q 18.109375 38.921875 18.109375 30.90625 
L 18.109375 0 
L 9.078125 0 
L 9.078125 75.984375 
L 18.109375 75.984375 
L 18.109375 46.1875 
Q 21.34375 51.125 25.703125 53.5625 
Q 30.078125 56 35.796875 56 
Q 45.21875 56 50.046875 50.171875 
Q 54.890625 44.34375 54.890625 33.015625 
z
" id="DejaVuSans-104"/>
      <path d="M 49.515625 33.40625 
Q 49.515625 40.484375 46.265625 44.484375 
Q 43.015625 48.484375 37.3125 48.484375 
Q 33.15625 48.484375 29.515625 46.453125 
Q 25.875 44.4375 23.1875 40.578125 
Q 20.359375 36.53125 18.71875 31.171875 
Q 17.09375 25.828125 17.09375 20.515625 
Q 17.09375 13.765625 20.28125 9.9375 
Q 23.484375 6.109375 29.109375 6.109375 
Q 33.34375 6.109375 36.953125 8.078125 
Q 40.578125 10.0625 43.3125 13.921875 
Q 46.09375 17.921875 47.796875 23.234375 
Q 49.515625 28.5625 49.515625 33.40625 
z
M 21.578125 46.390625 
Q 24.90625 50.875 29.90625 53.4375 
Q 34.90625 56 40.375 56 
Q 48.78125 56 53.734375 50.328125 
Q 58.6875 44.671875 58.6875 35.015625 
Q 58.6875 27.09375 55.78125 19.671875 
Q 52.875 12.25 47.515625 6.5 
Q 44 2.6875 39.40625 0.625 
Q 34.8125 -1.421875 29.78125 -1.421875 
Q 24.46875 -1.421875 20.5625 1.015625 
Q 16.65625 3.46875 14.203125 8.296875 
L 12.59375 0 
L 3.609375 0 
L 18.40625 75.984375 
L 27.390625 75.984375 
z
" id="DejaVuSans-Oblique-98"/>
      <path d="M 48.09375 32.234375 
Q 48.25 33.015625 48.3125 33.84375 
Q 48.390625 34.671875 48.390625 35.5 
Q 48.390625 41.453125 44.890625 44.921875 
Q 41.40625 48.390625 35.40625 48.390625 
Q 28.71875 48.390625 23.578125 44.15625 
Q 18.453125 39.9375 15.828125 32.171875 
z
M 55.90625 25.203125 
L 14.109375 25.203125 
Q 13.8125 23.34375 13.71875 22.265625 
Q 13.625 21.1875 13.625 20.40625 
Q 13.625 13.625 17.796875 9.90625 
Q 21.96875 6.203125 29.59375 6.203125 
Q 35.453125 6.203125 40.671875 7.515625 
Q 45.90625 8.84375 50.390625 11.375 
L 48.6875 2.484375 
Q 43.84375 0.53125 38.6875 -0.4375 
Q 33.546875 -1.421875 28.21875 -1.421875 
Q 16.84375 -1.421875 10.71875 4.015625 
Q 4.59375 9.46875 4.59375 19.484375 
Q 4.59375 28.03125 7.640625 35.375 
Q 10.6875 42.71875 16.609375 48.484375 
Q 20.40625 52.09375 25.65625 54.046875 
Q 30.90625 56 36.8125 56 
Q 46.09375 56 51.578125 50.4375 
Q 57.078125 44.875 57.078125 35.5 
Q 57.078125 33.25 56.78125 30.6875 
Q 56.5 28.125 55.90625 25.203125 
z
" id="DejaVuSans-Oblique-101"/>
      <path d="M 42.28125 54.6875 
L 40.921875 47.703125 
L 23 47.703125 
L 17.1875 18.015625 
Q 16.890625 16.359375 16.75 15.234375 
Q 16.609375 14.109375 16.609375 13.484375 
Q 16.609375 10.359375 18.484375 8.9375 
Q 20.359375 7.515625 24.515625 7.515625 
L 33.59375 7.515625 
L 32.078125 0 
L 23.484375 0 
Q 15.484375 0 11.546875 3.125 
Q 7.625 6.25 7.625 12.59375 
Q 7.625 13.71875 7.765625 15.0625 
Q 7.90625 16.40625 8.203125 18.015625 
L 14.015625 47.703125 
L 6.390625 47.703125 
L 7.8125 54.6875 
L 15.28125 54.6875 
L 18.3125 70.21875 
L 27.296875 70.21875 
L 24.3125 54.6875 
z
" id="DejaVuSans-Oblique-116"/>
     </defs>
     <g transform="translate(367.920637 695.000694)scale(0.4 -0.4)">
      <use transform="translate(0 0.015625)" xlink:href="#DejaVuSans-104"/>
      <use transform="translate(64.335938 -16.390625)scale(0.7)" xlink:href="#DejaVuSans-Oblique-98"/>
      <use transform="translate(108.769531 -16.390625)scale(0.7)" xlink:href="#DejaVuSans-Oblique-101"/>
      <use transform="translate(151.835938 -16.390625)scale(0.7)" xlink:href="#DejaVuSans-Oblique-116"/>
     </g>
    </g>
   </g>
   <g id="matplotlib.axis_2">
    <g id="ytick_1">
     <g id="line2d_53">
      <defs>
       <path d="M 0 0 
L -3.5 0 
" id="m14a1fbe156" style="stroke:#000000;stroke-width:0.8;"/>
      </defs>
      <g>
       <use style="stroke:#000000;stroke-width:0.8;" x="119.477402" xlink:href="#m14a1fbe156" y="552.443478"/>
      </g>
     </g>
     <g id="text_8">
      <!-- $\mathdefault{10^{-2}}$ -->
      <g transform="translate(60.25518 560.886187)scale(0.222222 -0.222222)">
       <use transform="translate(0 0.765625)" xlink:href="#DejaVuSans-49"/>
       <use transform="translate(63.623047 0.765625)" xlink:href="#DejaVuSans-48"/>
       <use transform="translate(128.203125 39.046875)scale(0.7)" xlink:href="#DejaVuSans-8722"/>
       <use transform="translate(186.855469 39.046875)scale(0.7)" xlink:href="#DejaVuSans-50"/>
      </g>
     </g>
    </g>
    <g id="ytick_2">
     <g id="line2d_54">
      <g>
       <use style="stroke:#000000;stroke-width:0.8;" x="119.477402" xlink:href="#m14a1fbe156" y="286.921739"/>
      </g>
     </g>
     <g id="text_9">
      <!-- $\mathdefault{10^{-1}}$ -->
      <g transform="translate(60.25518 295.364447)scale(0.222222 -0.222222)">
       <use transform="translate(0 0.684375)" xlink:href="#DejaVuSans-49"/>
       <use transform="translate(63.623047 0.684375)" xlink:href="#DejaVuSans-48"/>
       <use transform="translate(128.203125 38.965625)scale(0.7)" xlink:href="#DejaVuSans-8722"/>
       <use transform="translate(186.855469 38.965625)scale(0.7)" xlink:href="#DejaVuSans-49"/>
      </g>
     </g>
    </g>
    <g id="ytick_3">
     <g id="line2d_55">
      <g>
       <use style="stroke:#000000;stroke-width:0.8;" x="119.477402" xlink:href="#m14a1fbe156" y="21.4"/>
      </g>
     </g>
     <g id="text_10">
      <!-- $\mathdefault{10^{0}}$ -->
      <g transform="translate(73.366291 29.842708)scale(0.222222 -0.222222)">
       <use transform="translate(0 0.765625)" xlink:href="#DejaVuSans-49"/>
       <use transform="translate(63.623047 0.765625)" xlink:href="#DejaVuSans-48"/>
       <use transform="translate(128.203125 39.046875)scale(0.7)" xlink:href="#DejaVuSans-48"/>
      </g>
     </g>
    </g>
    <g id="ytick_4">
     <g id="line2d_56">
      <defs>
       <path d="M 0 0 
L -2 0 
" id="m5c9c9731c0" style="stroke:#000000;stroke-width:0.6;"/>
      </defs>
      <g>
       <use style="stroke:#000000;stroke-width:0.6;" x="119.477402" xlink:href="#m5c9c9731c0" y="632.373486"/>
      </g>
     </g>
    </g>
    <g id="ytick_5">
     <g id="line2d_57">
      <g>
       <use style="stroke:#000000;stroke-width:0.6;" x="119.477402" xlink:href="#m5c9c9731c0" y="611.349144"/>
      </g>
     </g>
    </g>
    <g id="ytick_6">
     <g id="line2d_58">
      <g>
       <use style="stroke:#000000;stroke-width:0.6;" x="119.477402" xlink:href="#m5c9c9731c0" y="593.573316"/>
      </g>
     </g>
    </g>
    <g id="ytick_7">
     <g id="line2d_59">
      <g>
       <use style="stroke:#000000;stroke-width:0.6;" x="119.477402" xlink:href="#m5c9c9731c0" y="578.175193"/>
      </g>
     </g>
    </g>
    <g id="ytick_8">
     <g id="line2d_60">
      <g>
       <use style="stroke:#000000;stroke-width:0.6;" x="119.477402" xlink:href="#m5c9c9731c0" y="564.593087"/>
      </g>
     </g>
    </g>
    <g id="ytick_9">
     <g id="line2d_61">
      <g>
       <use style="stroke:#000000;stroke-width:0.6;" x="119.477402" xlink:href="#m5c9c9731c0" y="472.51347"/>
      </g>
     </g>
    </g>
    <g id="ytick_10">
     <g id="line2d_62">
      <g>
       <use style="stroke:#000000;stroke-width:0.6;" x="119.477402" xlink:href="#m5c9c9731c0" y="425.757413"/>
      </g>
     </g>
    </g>
    <g id="ytick_11">
     <g id="line2d_63">
      <g>
       <use style="stroke:#000000;stroke-width:0.6;" x="119.477402" xlink:href="#m5c9c9731c0" y="392.583462"/>
      </g>
     </g>
    </g>
    <g id="ytick_12">
     <g id="line2d_64">
      <g>
       <use style="stroke:#000000;stroke-width:0.6;" x="119.477402" xlink:href="#m5c9c9731c0" y="366.851747"/>
      </g>
     </g>
    </g>
    <g id="ytick_13">
     <g id="line2d_65">
      <g>
       <use style="stroke:#000000;stroke-width:0.6;" x="119.477402" xlink:href="#m5c9c9731c0" y="345.827405"/>
      </g>
     </g>
    </g>
    <g id="ytick_14">
     <g id="line2d_66">
      <g>
       <use style="stroke:#000000;stroke-width:0.6;" x="119.477402" xlink:href="#m5c9c9731c0" y="328.051577"/>
      </g>
     </g>
    </g>
    <g id="ytick_15">
     <g id="line2d_67">
      <g>
       <use style="stroke:#000000;stroke-width:0.6;" x="119.477402" xlink:href="#m5c9c9731c0" y="312.653454"/>
      </g>
     </g>
    </g>
    <g id="ytick_16">
     <g id="line2d_68">
      <g>
       <use style="stroke:#000000;stroke-width:0.6;" x="119.477402" xlink:href="#m5c9c9731c0" y="299.071348"/>
      </g>
     </g>
    </g>
    <g id="ytick_17">
     <g id="line2d_69">
      <g>
       <use style="stroke:#000000;stroke-width:0.6;" x="119.477402" xlink:href="#m5c9c9731c0" y="206.991731"/>
      </g>
     </g>
    </g>
    <g id="ytick_18">
     <g id="line2d_70">
      <g>
       <use style="stroke:#000000;stroke-width:0.6;" x="119.477402" xlink:href="#m5c9c9731c0" y="160.235674"/>
      </g>
     </g>
    </g>
    <g id="ytick_19">
     <g id="line2d_71">
      <g>
       <use style="stroke:#000000;stroke-width:0.6;" x="119.477402" xlink:href="#m5c9c9731c0" y="127.061723"/>
      </g>
     </g>
    </g>
    <g id="ytick_20">
     <g id="line2d_72">
      <g>
       <use style="stroke:#000000;stroke-width:0.6;" x="119.477402" xlink:href="#m5c9c9731c0" y="101.330008"/>
      </g>
     </g>
    </g>
    <g id="ytick_21">
     <g id="line2d_73">
      <g>
       <use style="stroke:#000000;stroke-width:0.6;" x="119.477402" xlink:href="#m5c9c9731c0" y="80.305666"/>
      </g>
     </g>
    </g>
    <g id="ytick_22">
     <g id="line2d_74">
      <g>
       <use style="stroke:#000000;stroke-width:0.6;" x="119.477402" xlink:href="#m5c9c9731c0" y="62.529838"/>
      </g>
     </g>
    </g>
    <g id="ytick_23">
     <g id="line2d_75">
      <g>
       <use style="stroke:#000000;stroke-width:0.6;" x="119.477402" xlink:href="#m5c9c9731c0" y="47.131715"/>
      </g>
     </g>
    </g>
    <g id="ytick_24">
     <g id="line2d_76">
      <g>
       <use style="stroke:#000000;stroke-width:0.6;" x="119.477402" xlink:href="#m5c9c9731c0" y="33.549608"/>
      </g>
     </g>
    </g>
    <g id="text_11">
     <!-- h$_{v_a}$ -->
     <defs>
      <path d="M 7.171875 54.6875 
L 16.703125 54.6875 
L 24.703125 8.203125 
L 50.875 54.6875 
L 60.40625 54.6875 
L 29.296875 0 
L 17.1875 0 
z
" id="DejaVuSans-Oblique-118"/>
      <path d="M 53.71875 31.203125 
L 47.609375 0 
L 38.625 0 
L 40.28125 8.296875 
Q 36.328125 3.421875 31.265625 1 
Q 26.21875 -1.421875 20.015625 -1.421875 
Q 13.03125 -1.421875 8.5625 2.84375 
Q 4.109375 7.125 4.109375 13.8125 
Q 4.109375 23.390625 11.75 28.953125 
Q 19.390625 34.515625 32.8125 34.515625 
L 45.3125 34.515625 
L 45.796875 36.921875 
Q 45.90625 37.3125 45.953125 37.765625 
Q 46 38.234375 46 39.203125 
Q 46 43.5625 42.453125 45.96875 
Q 38.921875 48.390625 32.515625 48.390625 
Q 28.125 48.390625 23.5 47.265625 
Q 18.890625 46.140625 14.015625 43.890625 
L 15.578125 52.203125 
Q 20.65625 54.109375 25.515625 55.046875 
Q 30.375 56 34.90625 56 
Q 44.578125 56 49.625 51.796875 
Q 54.6875 47.609375 54.6875 39.59375 
Q 54.6875 37.984375 54.4375 35.8125 
Q 54.203125 33.640625 53.71875 31.203125 
z
M 44 27.484375 
L 35.015625 27.484375 
Q 23.96875 27.484375 18.671875 24.53125 
Q 13.375 21.578125 13.375 15.375 
Q 13.375 11.078125 16.078125 8.640625 
Q 18.796875 6.203125 23.578125 6.203125 
Q 30.90625 6.203125 36.375 11.453125 
Q 41.84375 16.703125 43.609375 25.484375 
z
" id="DejaVuSans-Oblique-97"/>
     </defs>
     <g transform="translate(44.65518 354.95)rotate(-90)scale(0.4 -0.4)">
      <use transform="translate(0 0.015625)" xlink:href="#DejaVuSans-104"/>
      <use transform="translate(64.335938 -16.390625)scale(0.7)" xlink:href="#DejaVuSans-Oblique-118"/>
      <use transform="translate(105.761719 -27.875)scale(0.49)" xlink:href="#DejaVuSans-Oblique-97"/>
     </g>
    </g>
   </g>
   <g id="LineCollection_1">
    <path clip-path="url(#pa2a418574f)" d="M 523.507013 721 
L 523.507013 446.781755 
" style="fill:none;stroke:#000000;stroke-width:1.5;"/>
   </g>
   <g id="LineCollection_2">
    <path clip-path="url(#pa2a418574f)" d="M -1 446.781755 
L 523.507013 446.781755 
" style="fill:none;stroke:#000000;stroke-width:1.5;"/>
   </g>
   <g id="line2d_77">
    <path clip-path="url(#pa2a418574f)" d="M 416.460061 721 
L 689.563872 21.4 
L 698.308191 -1 
" style="fill:none;stroke:#000000;stroke-dasharray:5.55,2.4;stroke-dashoffset:0;stroke-width:1.5;"/>
   </g>
   <g id="patch_15">
    <path d="M 119.477402 632.1 
L 119.477402 21.4 
" style="fill:none;stroke:#000000;stroke-linecap:square;stroke-linejoin:miter;stroke-width:0.8;"/>
   </g>
   <g id="patch_16">
    <path d="M 689.563872 632.1 
L 689.563872 21.4 
" style="fill:none;stroke:#000000;stroke-linecap:square;stroke-linejoin:miter;stroke-width:0.8;"/>
   </g>
   <g id="patch_17">
    <path d="M 119.477402 632.1 
L 689.563872 632.1 
" style="fill:none;stroke:#000000;stroke-linecap:square;stroke-linejoin:miter;stroke-width:0.8;"/>
   </g>
   <g id="patch_18">
    <path d="M 119.477402 21.4 
L 689.563872 21.4 
" style="fill:none;stroke:#000000;stroke-linecap:square;stroke-linejoin:miter;stroke-width:0.8;"/>
   </g>
  </g>
 </g>
 <defs>
  <clipPath id="pa2a418574f">
   <rect height="610.7" width="570.08647" x="119.477402" y="21.4"/>
  </clipPath>
 </defs>
</svg>
